<svg version="1.1" id="Layer_1" xmlns="http://www.w3.org/2000/svg" xmlns:xlink="http://www.w3.org/1999/xlink" x="0px" y="0px"
	 width="146px" height="24px" viewBox="0 0 146 24" enable-background="new 0 0 146 24" xml:space="preserve">
<path fill="#555555" d="M19.544,17.606c-0.03,0.085-0.504,1.723-1.662,3.413c-1,1.461-2.039,2.92-3.674,2.95
	c-1.607,0.03-2.124-0.954-3.96-0.954c-1.838,0-2.413,0.924-3.933,0.983c-1.579,0.059-2.782-1.581-3.79-3.037
	c-2.062-2.981-3.635-8.422-1.52-12.093C2.053,7.044,3.932,5.889,5.97,5.86c1.551-0.03,3.013,1.042,3.961,1.042
	c0.948,0,2.725-1.289,4.594-1.1c0.782,0.033,2.979,0.316,4.39,2.381c-0.113,0.071-2.622,1.531-2.595,4.568
	C16.354,16.383,19.507,17.59,19.544,17.606z M13.3,3.832c0.84-1.015,1.404-2.427,1.249-3.832c-1.208,0.045-2.67,0.804-3.536,1.818
	C10.237,2.716,9.556,4.153,9.74,5.529C11.086,5.633,12.463,4.845,13.3,3.832z"/>
<g>
	<g>
		<path fill="#555555" d="M35.648,10.622l-0.324,1.172c-0.503-0.233-1.078-0.35-1.725-0.35c-0.979,0-1.756,0.296-2.332,0.889
			c-0.611,0.62-0.916,1.487-0.916,2.602c0,1.069,0.283,1.907,0.849,2.514c0.565,0.607,1.353,0.91,2.358,0.91
			c0.71,0,1.308-0.112,1.792-0.336l0.256,1.159c-0.539,0.261-1.307,0.391-2.304,0.391c-1.366,0-2.449-0.399-3.249-1.199
			c-0.827-0.827-1.24-1.95-1.24-3.369c0-1.456,0.449-2.624,1.348-3.505c0.872-0.844,1.999-1.267,3.383-1.267
			C34.462,10.231,35.163,10.361,35.648,10.622z"/>
		<path fill="#555555" d="M42.71,16.126c0,1.007-0.288,1.833-0.862,2.481c-0.602,0.665-1.402,0.997-2.399,0.997
			c-0.961,0-1.728-0.319-2.298-0.957c-0.57-0.638-0.856-1.443-0.856-2.413c0-1.016,0.294-1.846,0.883-2.494
			c0.588-0.647,1.381-0.97,2.379-0.97c0.961,0,1.733,0.319,2.318,0.957C42.432,14.348,42.71,15.147,42.71,16.126z M41.201,16.162
			c0-0.6-0.131-1.115-0.391-1.544c-0.306-0.52-0.742-0.779-1.308-0.779c-0.584,0-1.029,0.26-1.334,0.779
			c-0.26,0.43-0.391,0.954-0.391,1.571c0,0.6,0.131,1.115,0.391,1.545c0.314,0.519,0.755,0.779,1.321,0.779
			c0.557,0,0.993-0.264,1.307-0.793C41.066,17.281,41.201,16.762,41.201,16.162z"/>
		<path fill="#555555" d="M49.598,19.462H48.15v-3.765c0-1.161-0.444-1.741-1.333-1.741c-0.435,0-0.788,0.16-1.06,0.479
			c-0.272,0.319-0.408,0.695-0.408,1.127v3.899h-1.447v-4.677c0-0.574-0.016-1.199-0.047-1.873h1.28l0.068,1.009h0.04
			c0.171-0.316,0.422-0.578,0.755-0.786c0.395-0.244,0.835-0.366,1.321-0.366c0.611,0,1.119,0.197,1.523,0.593
			c0.503,0.486,0.755,1.209,0.755,2.172V19.462z"/>
		<path fill="#555555" d="M55.154,17.575c0,0.613-0.225,1.104-0.674,1.474c-0.45,0.37-1.07,0.555-1.861,0.555
			c-0.746,0-1.38-0.149-1.901-0.447l0.31-1.083c0.504,0.308,1.039,0.463,1.606,0.463c0.747,0,1.121-0.274,1.121-0.824
			c0-0.243-0.082-0.443-0.244-0.601c-0.163-0.157-0.451-0.312-0.867-0.465c-1.174-0.432-1.761-1.062-1.761-1.891
			c0-0.567,0.216-1.039,0.649-1.417c0.432-0.378,1.004-0.567,1.716-0.567c0.647,0,1.202,0.13,1.661,0.393l-0.311,1.042
			c-0.424-0.26-0.871-0.391-1.34-0.391c-0.307,0-0.546,0.072-0.717,0.216c-0.171,0.145-0.257,0.329-0.257,0.555
			s0.09,0.41,0.271,0.555c0.154,0.135,0.451,0.284,0.894,0.446C54.585,16.02,55.154,16.682,55.154,17.575z"/>
		<path fill="#555555" d="M62.037,19.462h-1.28l-0.082-0.998h-0.026c-0.458,0.76-1.15,1.14-2.076,1.14
			c-0.647,0-1.164-0.202-1.55-0.606c-0.458-0.493-0.688-1.238-0.688-2.235v-3.851h1.447v3.6c0,1.254,0.434,1.881,1.302,1.881
			c0.651,0,1.103-0.313,1.356-0.94c0.063-0.162,0.095-0.345,0.095-0.551v-3.99h1.447v4.663
			C61.983,18.195,62.001,18.824,62.037,19.462z"/>
		<path fill="#555555" d="M65.068,19.462h-1.447V9.898h1.447V19.462z"/>
		<path fill="#555555" d="M70.211,14.004h-1.593v3.178c0,0.808,0.281,1.212,0.843,1.212c0.258,0,0.472-0.021,0.642-0.064l0.04,1.112
			c-0.288,0.108-0.666,0.163-1.134,0.163c-0.577,0-1.028-0.175-1.352-0.526c-0.325-0.351-0.487-0.94-0.487-1.768v-3.306h-0.949
			v-1.091h0.949v-1.205l1.448-0.433v1.638h1.593V14.004z"/>
		<path fill="#555555" d="M76.513,19.462h-1.307l-0.108-0.755h-0.04c-0.45,0.598-1.087,0.897-1.914,0.897
			c-0.62,0-1.118-0.197-1.496-0.591c-0.341-0.358-0.512-0.802-0.512-1.33c0-0.797,0.334-1.406,1.002-1.827
			c0.668-0.421,1.607-0.627,2.818-0.618v-0.122c0-0.868-0.453-1.302-1.358-1.302c-0.646,0-1.215,0.162-1.708,0.485l-0.296-0.961
			c0.609-0.379,1.356-0.568,2.244-0.568c1.71,0,2.566,0.904,2.566,2.711v2.415C76.403,18.554,76.439,19.075,76.513,19.462z
			 M75.004,17.213v-1.002c-1.614-0.027-2.421,0.41-2.421,1.31c0,0.339,0.094,0.593,0.282,0.762c0.188,0.169,0.426,0.254,0.713,0.254
			c0.323,0,0.62-0.1,0.894-0.301c0.274-0.2,0.442-0.457,0.504-0.769C74.994,17.396,75.004,17.312,75.004,17.213z"/>
		<path fill="#555555" d="M83.643,19.462h-1.447v-3.765c0-1.161-0.444-1.741-1.332-1.741c-0.435,0-0.789,0.16-1.06,0.479
			c-0.272,0.319-0.408,0.695-0.408,1.127v3.899h-1.447v-4.677c0-0.574-0.016-1.199-0.047-1.873h1.281l0.067,1.009h0.041
			c0.17-0.316,0.422-0.578,0.755-0.786c0.395-0.244,0.836-0.366,1.321-0.366c0.612,0,1.119,0.197,1.523,0.593
			c0.503,0.486,0.755,1.209,0.755,2.172V19.462z"/>
		<path fill="#555555" d="M88.474,14.004H86.88v3.178c0,0.808,0.281,1.212,0.843,1.212c0.259,0,0.472-0.021,0.642-0.064l0.04,1.112
			c-0.289,0.108-0.667,0.163-1.134,0.163c-0.577,0-1.028-0.175-1.352-0.526c-0.324-0.351-0.486-0.94-0.486-1.768v-3.306h-0.949
			v-1.091h0.949v-1.205l1.447-0.433v1.638h1.593V14.004z"/>
		<path fill="#555555" d="M93.835,17.575c0,0.613-0.225,1.104-0.674,1.474c-0.45,0.37-1.07,0.555-1.861,0.555
			c-0.746,0-1.381-0.149-1.901-0.447l0.31-1.083c0.504,0.308,1.04,0.463,1.607,0.463c0.747,0,1.121-0.274,1.121-0.824
			c0-0.243-0.082-0.443-0.244-0.601c-0.162-0.157-0.451-0.312-0.867-0.465c-1.174-0.432-1.761-1.062-1.761-1.891
			c0-0.567,0.216-1.039,0.649-1.417c0.432-0.378,1.004-0.567,1.715-0.567c0.648,0,1.202,0.13,1.662,0.393l-0.311,1.042
			c-0.425-0.26-0.871-0.391-1.34-0.391c-0.307,0-0.546,0.072-0.717,0.216s-0.257,0.329-0.257,0.555s0.09,0.41,0.271,0.555
			c0.153,0.135,0.451,0.284,0.894,0.446C93.267,16.02,93.835,16.682,93.835,17.575z"/>
		<path fill="#555555" d="M105.401,19.462h-1.494l-2.502-4.227c-0.673-1.144-1.211-2.179-1.615-3.106l-0.04,0.013
			c0.065,1.018,0.099,2.305,0.099,3.863v3.457h-1.353v-9.089h1.617l2.507,4.163c0.584,0.97,1.101,1.971,1.55,3.004l0.026-0.014
			c-0.099-1.023-0.148-2.281-0.148-3.771v-3.382h1.353V19.462z"/>
		<path fill="#555555" d="M112.541,15.878c0,0.26-0.018,0.48-0.054,0.659h-4.383c0.018,0.647,0.229,1.141,0.634,1.482
			c0.369,0.306,0.845,0.459,1.429,0.459c0.647,0,1.236-0.104,1.767-0.31l0.229,1.009c-0.62,0.269-1.353,0.404-2.197,0.404
			c-1.016,0-1.813-0.298-2.393-0.895c-0.579-0.597-0.869-1.397-0.869-2.403c0-0.987,0.271-1.808,0.811-2.463
			c0.567-0.7,1.333-1.049,2.298-1.049c0.945,0,1.662,0.35,2.148,1.049C112.347,14.376,112.541,15.062,112.541,15.878z
			 M111.141,15.499c0.009-0.431-0.085-0.804-0.284-1.119c-0.252-0.404-0.639-0.606-1.161-0.606c-0.477,0-0.864,0.198-1.161,0.593
			c-0.243,0.314-0.387,0.691-0.432,1.132H111.141z"/>
		<path fill="#555555" d="M117.208,14.004h-1.593v3.178c0,0.808,0.281,1.212,0.843,1.212c0.259,0,0.473-0.021,0.643-0.064
			l0.04,1.112c-0.288,0.108-0.666,0.163-1.134,0.163c-0.578,0-1.028-0.175-1.352-0.526c-0.324-0.351-0.486-0.94-0.486-1.768v-3.306
			h-0.949v-1.091h0.949v-1.205l1.448-0.433v1.638h1.593V14.004z"/>
		<path fill="#555555" d="M127.434,12.913l-2.049,6.549h-1.334l-0.849-2.844c-0.216-0.709-0.392-1.415-0.526-2.116h-0.027
			c-0.126,0.719-0.301,1.424-0.525,2.116l-0.904,2.844h-1.348l-1.928-6.549h1.497l0.741,3.116c0.18,0.738,0.328,1.439,0.445,2.104
			h0.027c0.107-0.548,0.287-1.246,0.539-2.091l0.931-3.129h1.186l0.89,3.062c0.215,0.747,0.391,1.466,0.526,2.158h0.041
			c0.098-0.674,0.247-1.394,0.444-2.158l0.796-3.062H127.434z"/>
		<path fill="#555555" d="M134.252,16.126c0,1.007-0.288,1.833-0.862,2.481c-0.602,0.665-1.402,0.997-2.399,0.997
			c-0.961,0-1.728-0.319-2.298-0.957s-0.856-1.443-0.856-2.413c0-1.016,0.294-1.846,0.883-2.494c0.588-0.647,1.381-0.97,2.379-0.97
			c0.961,0,1.733,0.319,2.317,0.957C133.974,14.348,134.252,15.147,134.252,16.126z M132.743,16.162c0-0.6-0.13-1.115-0.391-1.544
			c-0.306-0.52-0.742-0.779-1.308-0.779c-0.584,0-1.029,0.26-1.334,0.779c-0.261,0.43-0.391,0.954-0.391,1.571
			c0,0.6,0.13,1.115,0.391,1.545c0.314,0.519,0.754,0.779,1.321,0.779c0.557,0,0.993-0.264,1.307-0.793
			C132.608,17.281,132.743,16.762,132.743,16.162z"/>
		<path fill="#555555" d="M138.875,14.191c-0.144-0.03-0.297-0.045-0.459-0.045c-0.512,0-0.908,0.194-1.186,0.581
			c-0.243,0.342-0.364,0.773-0.364,1.295v3.44h-1.447v-4.487c0-0.755-0.016-1.442-0.047-2.062h1.267l0.054,1.252h0.041
			c0.153-0.433,0.395-0.781,0.728-1.042c0.323-0.235,0.674-0.352,1.052-0.352c0.134,0,0.255,0.009,0.363,0.026V14.191z"/>
		<path fill="#555555" d="M145.732,19.462h-1.783l-1.985-2.992l-0.554,0.674v2.318h-1.447V9.898h1.447v5.938h0.027
			c0.18-0.287,0.356-0.539,0.527-0.754l1.688-2.169h1.742l-2.413,2.695L145.732,19.462z"/>
	</g>
</g>
</svg>
