<?xml version="1.0" encoding="utf-8"?>
<!-- Generator: Adobe Illustrator 16.0.5, SVG Export Plug-In . SVG Version: 6.00 Build 0)  -->
<!DOCTYPE svg PUBLIC "-//W3C//DTD SVG 1.1//EN" "http://www.w3.org/Graphics/SVG/1.1/DTD/svg11.dtd">
<svg version="1.1" id="Layer_1" xmlns="http://www.w3.org/2000/svg" xmlns:xlink="http://www.w3.org/1999/xlink" x="0px" y="0px"
	 width="1000px" height="889px" viewBox="0 0 1000 889" enable-background="new 0 0 1000 889" xml:space="preserve">
<path fill="none" stroke="#000000" stroke-miterlimit="10" d="M499.992,888.5H789.09V304.081c0,0,121.675-1.674,168.376-2.435
	l41.938-163.768c-37.592-13.455-200.785-80.313-200.785-80.313L618.566,0.55c0,0-42.775,29.005-118.574,29.005
	c-75.811,0-118.664-29.005-118.664-29.005L201.304,57.565c0,0-163.167,66.858-200.706,80.313l41.884,163.768
	c46.701,0.76,168.375,2.435,168.375,2.435V888.5H499.992z"/>
<path d="M499.992,888.5H789.09V304.081c0,0,121.675-1.674,168.376-2.435l41.938-163.768
	c-37.592-13.455-200.785-80.313-200.785-80.313L618.566,0.55c0,0-42.775,29.005-118.574,29.005
	c-75.811,0-118.664-29.005-118.664-29.005L201.304,57.565c0,0-163.167,66.858-200.706,80.313l41.884,163.768
	c46.701,0.76,168.375,2.435,168.375,2.435V888.5H499.992z"/>
<path fill="none" d="M646,7.959c-11.412,74.789-71.727,125.705-146.008,125.601c-74.317,0.104-134.659-50.812-146.071-125.601"/>
<path fill="none" d="M618.566,0.55c-8.9,61.02-58.012,106.465-118.574,106.412C439.417,107.016,390.308,61.57,381.329,0.55"/>
<path fill="none" stroke="#000000" stroke-miterlimit="10" d="M609.927,32.173c-16.544,8.272-54.555,23.77-109.935,23.77
	c-55.393,0-93.427-15.497-109.947-23.77"/>
<path fill="none" d="M201.304,57.565c7.904,17.408,36.675,55.576,36.675,129.815c0,74.268-27.251,117.696-27.251,117.696"/>
<path fill="none" d="M798.617,57.565c-7.904,17.408-36.647,55.576-36.647,129.815c0,74.268,27.276,117.696,27.276,117.696"/>
</svg>
