<!-- Copyright © 2014 Brian Speir. All rights reserved.  -->
<svg version="1.1" id="Jar" xmlns="http://www.w3.org/2000/svg" xmlns:xlink="http://www.w3.org/1999/xlink" x="0px" y="0px"
	 width="660px" height="660px" viewBox="0 0 660 660" enable-background="new 0 0 660 660" xml:space="preserve">
<path id="jar-side" fill="#BD8A6E" d="M589,391.9v231.31c0,2.33-1.31,14.46-67.34,25.17C475.45,655.88,414.98,660,349.54,660
	c-65.42,0-126.93-4.12-173.14-11.62c-66.03-10.71-69.4-22.84-69.4-25.17V391.9c6,2.779,9.09,5.439,15.71,7.979
	c12.57,4.82,30.74,9.13,53.49,12.82c46.52,7.55,108.479,11.7,174.22,11.7c65.75,0,127.65-4.15,174.18-11.7
	c22.75-3.69,38.66-8,51.221-12.82C582.44,397.34,586,394.68,589,391.9z"/>
<path id="jar-top" fill="#BD8A6E" d="M590,381.565c0,2.32-3.324,14.378-68.949,25.023c-45.917,7.452-107.021,11.548-172.052,11.548
	c-65.028,0-126.142-4.096-172.063-11.548C111.324,395.943,108,383.886,108,381.565c0-2.31,3.324-14.382,68.936-25.014
	C222.857,349.1,283.971,345,348.999,345c65.03,0,126.135,4.1,172.052,11.552C586.676,367.194,590,379.256,590,381.565z"/>
<path id="cap-side" fill="#BD8A6E" d="M524,64.963c-1.726,2.408-11.007,11.698-60.6,43.562
	c-38.123,24.501-88.817,55.05-142.725,86.042c-53.073,30.48-104.39,58.572-144.478,79.1c-53.295,27.269-66.731,30.972-69.993,31.333
	L70,242.574c10.145-2.458,33.486-13.012,69.55-31.462c40.229-20.578,91.637-48.72,144.75-79.23
	c56.377-32.396,108.746-64.029,147.482-89.091c35.843-23.197,50.402-34.353,56.012-40.262L524,64.963z"/>
<path id="cap-top" fill="#BD8A6E" d="M481.834,0c-5.346,4.936-19.638,16.092-57.818,40.633
	c-38.143,24.51-88.829,55.07-142.715,86.032c-53.034,30.469-104.351,58.552-144.49,79.088c-41.523,21.25-58.853,28.183-66.018,30.38
	c5.358-4.936,19.658-16.092,57.8-40.604c38.152-24.52,88.837-55.07,142.715-86.032c53.073-30.489,104.379-58.582,144.489-79.099
	C457.341,9.13,474.669,2.197,481.834,0z"/>
<path id="signature" fill="#FEECE2" d="M577.83,513.15c-14.72,6.76-21.36,7.779-22.67,7.449c-2.24-0.569-4.03-5.819-5.44-9.989
	c-2.489-7.351-5.569-16.48-14.79-16.601c-5.949-0.08-12.109,5.13-19.13,15.84c0.181-4.38-0.04-10.18-0.149-13.14
	c-0.021-0.63-0.04-1.28-0.08-1.91c-0.15-2.01-1.931-3.53-3.95-3.399c-2.03,0.119-3.59,1.859-3.5,3.869
	c0.03,0.53,0.06,1.11,0.07,1.711c0.18,11.979-6.08,23.689-14.61,32.13c-7.061,6.989-15.271,11.25-21.15,11.1
	c-1.609-0.05-2.239-0.6-2.67-1.41c-1.52-2.83-0.74-8.35,0.58-13.34c2.57-4.4,4.21-8.15,4.65-10.1c0.729-3.341-0.83-4.851-1.82-5.46
	c-1.36-0.841-3.09-0.74-4.4,0.26c-2.409,1.84-5.109,11.07-5.42,12.109c-0.04,0.11-0.069,0.421-0.109,0.53
	c-5.771,9.32-14.45,21.2-25.09,23.2H438.1c-3.64,0-4.43-1.02-4.689-1.4c-1.92-2.779-0.38-9.72,2.32-17.01
	c3.619-5.55,6.38-11.47,7.71-17.13c0.42-1.8-0.58-3.66-2.311-4.31c-1.75-0.65-3.71,0.06-4.61,1.68c-1.289,2.32-4.93,9.1-7.819,16.71
	c-6.58,9.52-15.51,18.29-26.05,22.89c-3.891,1.69-7.25,2.021-9.21,1.051c-1.83-0.91-3.12-2.53-3.78-4.79
	c-1.521-5.141,0.38-12.54,4.97-20.351c0.92-1.56,0.55-3.53-0.86-4.68c-3.35-2.73-5.01-4.101-8.319-6.86
	c-0.9-0.76-2.12-1.04-3.25-0.78c-1.16,0.271-2.08,1.16-2.59,2.141c-7.71,14.89-30.351,35.51-48.271,36.96
	c-3.12,0.25-4.479-1.101-5.18-2.18c-3.49-5.41,3.54-14.03,8.49-19.41c1.5-1.641,2.979-3.29,4.18-4.71
	c3.56-4.221,7.29-9.181,3.45-12.99c-0.101-0.1-0.21-0.19-0.32-0.28s-0.22-0.18-0.34-0.25c-1.07-0.7-2.38-1.22-3.811-1.569
	c-6.699-1.62-16.89,0.14-26.27,2.819c-0.48,0.13-0.96,0.26-1.42,0.38c-16.38,4.57-32.2,11.24-47.04,19.54
	c0.03-1.34,0.07-2.63,0.1-3.87c0.08-3.149,0.16-6.52,0.29-9.46c3.21-4,5.05-7.77,4.33-10.569c-0.58-2.271-2.49-3.761-5.1-4.021
	c-1.29-0.12-2.561,0.29-3.561,1.16c-1.84,1.61-2.6,4.33-3.05,10.5c-9.63,10.12-21.56,18.82-34.62,23.45
	c-5.78,2.06-10.47,2.18-12.51,0.54c-1.66-1.33-2.6-3.23-2.79-5.63c-0.44-5.32,2.87-12.15,8.86-18.82c1.21-1.35,1.24-3.36,0.08-4.76
	c-2.76-3.34-4.12-5.01-6.83-8.37c-0.74-0.92-1.87-1.44-3.05-1.4c-1.19,0.03-2.27,0.73-2.96,1.58
	c-10.52,13.101-36.9,28.811-54.82,26.67c-3.13-0.37-4.2-1.96-4.68-3.17c-2.26-5.64,5.03-12.13,12.25-17.39
	c1.78-1.29,3.54-2.58,5-3.73c4.35-3.43,8.97-7.54,5.96-12.05c-0.09-0.14-0.19-0.28-0.31-0.41c-0.11-0.12-0.23-0.26-0.35-0.359
	c-11.26-9.17-33.22-5.341-46.64-1.61c-3.81,1.06-7.82,2.44-11.68,4.2v8.46c4.42-2.38,9.35-4.061,13.94-5.57
	c10.36-3.399,23.07-4.189,34.37-2.14c1.18,0.26,2.2,0.569,3.06,0.93c-0.53,0.57-1.26,1.311-2.18,2.061
	c-0.79,0.64-1.67,1.25-2.35,1.75c-0.76,0.56-1.54,1.13-2.3,1.699c-0.53,0.391-1.1,0.851-1.68,1.261c-3.12,2.21-7.47,4.63-12.54,7.18
	c-9.25,4.64-19.91,9.12-30.32,9.87v7.47c9.66-0.52,19.52-4.09,28.27-8.05c-0.92,2.79-1.02,5.77,0.22,8.89
	c1.21,3.061,4.26,7.17,10.9,8.01c20.01,2.551,44.14-12.939,58.77-26.18c0.86,1.061,1.28,1.58,2.14,2.63
	c-6.13,7.48-9.34,15.09-8.85,21.79c0.33,4.4,2.29,8.49,5.54,10.8c9.86,7,25.04-0.239,34.6-6.09c4.58-2.8,11.27-7.43,17.01-12.51
	c-0.01,0.37-0.02,0.76-0.03,1.14c-0.09,2.71-0.19,5.641-0.3,8.73c-16.53,10.22-32.88,23.5-41.99,40.34
	c-6.87,12.69-15.4,29.54-9.81,44.33c1.65,4.39,5.07,7.75,9.49,9.53c1.58,0.64,3.22,1.069,4.86,1.279
	c3.04,0.391,6.25,0.101,9.13-1.029c14.19-5.521,22.56-22.49,27.12-36.061c5.8-17.27,8.1-35.58,8.74-54.239
	c4.32-2.54,8.69-4.881,13-7.011c-2.35,2.84-4.04,5.721-4.909,8.49c-1.17,3.75-0.86,7.32,0.949,10.31
	c1.75,2.891,5.69,6.431,13.25,5.75c11.66-1.05,22.98-7.76,32.5-14.659c-0.359,2.92,0.131,5.87,1.94,8.68
	c1.78,2.76,5.56,6.18,12.19,5.7c20.039-1.45,40.579-21.44,52.239-37.26c1.04,0.859,1.561,1.289,2.61,2.149
	c-4.58,8.64-6.23,16.82-4.36,23.32c1.21,4.21,3.83,7.439,7.57,9.31c4.18,2.101,9.6,1.83,15.97-0.84c6.03-2.52,12.94-7.4,19.17-13.55
	c-0.029,2.99,0.521,5.689,1.94,7.8c1.61,2.4,5.02,5.2,11.899,4.55c0.03,0,0.061-0.01,0.091-0.01c7.97-0.77,16.159-7.39,22.62-14.99
	c0.119,0.79,0.3,1.561,0.539,2.29c1.471,4.55,5.2,7.351,10.061,7.33c10.979-0.05,19.43-6.55,27.03-13.399
	c1.35-1.221,2.64-2.75,3.84-4.19c-2.09,6.41-4.061,11.94-4.101,12.05c-0.68,1.88,0.341,3.931,2.33,4.601
	c1.971,0.659,4.271-0.33,5-2.16c0.04-0.101,4.91-11.37,11.07-22.45c8.49-15.25,14.47-20.69,17.52-20.65
	c3.61,0.051,5.381,4.63,7.66,11.58c2.101,6.38,4.761,13.75,10.38,14.73c10.521,1.83,24.341-4.25,36.19-11.07v-9.04
	C585.84,509.3,582.04,511.22,577.83,513.15z M246.34,591.97c-3.8,11.2-11.05,27.07-22.83,31.71c-2.38,0.94-4.86,0.86-7.24-0.1
	c-2.25-0.9-4.02-2.64-4.89-5.08c-4.48-12.63,3.25-27.44,9.1-38.57c7.44-14.14,20.68-25.689,34.34-34.689
	C253.52,561.43,251.43,576.96,246.34,591.97z M317.77,533.6c-9.26,7.301-20.39,14.771-31.97,16.67
	c-5.42,0.891-6.819-1.239-7.22-1.899c-0.73-1.21-0.9-2.851-0.271-4.521c3.41-9.119,12.75-14.71,21.011-19.5
	c4.239-2.46,9.62-4.33,14.62-5.8c11.069-2.92,18.159-3.37,21.59-2.77c-0.4,0.66-0.96,1.54-1.7,2.439
	c-0.64,0.78-1.4,1.561-1.96,2.181c-0.63,0.689-1.28,1.409-1.91,2.109c-0.43,0.49-0.9,1.061-1.39,1.58
	C325.97,526.88,322.2,530.11,317.77,533.6z"/>
<path id="dot" fill="#FEECE2" d="M273.09,478.97c-0.63-0.779-1.81-1.76-3.81-1.95c-0.07,0-0.11-0.01-0.181-0.01
	c-3.119-0.21-5.71,2.01-6.02,5.17c-0.29,3.021,1.77,5.69,4.8,6.2c0.13,0.021,0.26,0.04,0.4,0.05c2.96,0.271,5.649-2.05,5.97-5.16
	C274.46,481.16,273.73,479.76,273.09,478.97z"/>
</svg>
