<?xml version="1.0" encoding="utf-8"?>
<!-- Generator: Adobe Illustrator 16.0.5, SVG Export Plug-In . SVG Version: 6.00 Build 0)  -->
<!DOCTYPE svg PUBLIC "-//W3C//DTD SVG 1.1//EN" "http://www.w3.org/Graphics/SVG/1.1/DTD/svg11.dtd">
<svg version="1.1" id="Layer_1" xmlns="http://www.w3.org/2000/svg" xmlns:xlink="http://www.w3.org/1999/xlink" x="0px" y="0px"
	 width="1994px" height="1000px" viewBox="0 0 1994 1000" enable-background="new 0 0 1994 1000" xml:space="preserve">
<g id="Signature">
	<path d="M699.678,759.191c-4.045,0-8.133-0.627-12.197-1.855c-10.986-3.346-19.865-11.174-25.676-22.646
		c-13.568-26.771-10.705-72.508,7.854-125.465c17.572-50.08,52.283-91.213,91.377-123.385c-0.438-7.396-0.887-14.461-1.311-21.027
		c-14.875,16.568-31.418,31.594-41.094,39.324c-35.424,28.229-63.842,37.051-82.197,25.521
		c-20.418-12.846-30.053-46.137-5.787-90.453l-3.697-3.502c-25.266,32.936-92.924,96.266-134.697,99.033
		c-14.164,1.02-25.814-4.641-32.848-15.721c-4.051-6.408-5.861-13.08-6.037-19.793c-26.562,21.262-55.771,38.795-78.229,41.729
		c-20.891,2.734-31.117-7.623-35.377-14.037c-5.438-8.197-7.076-18.379-4.707-29.383c4.965-23.268,28.049-50.354,60.197-70.682
		c33.609-21.156,95.998-40.787,121.725-24.916c0.453,0.287,0.914,0.602,1.338,0.928c0.439,0.346,0.844,0.736,1.217,1.109
		c10.666,10.887,2.23,24.328-7.293,36.152c-3.834,5.23-8.52,10.922-13.867,16.881c-11.559,14.584-26.945,36.338-18.781,49.189
		c1.721,2.695,4.268,5.098,11.076,4.68c37.43-2.49,114.672-79.908,123.295-98.562c1.623-3.49,4.809-5.988,8.57-6.723
		c3.764-0.705,7.658,0.398,10.465,3.025l20.969,19.703c4.164,3.914,4.977,10.209,1.943,15.061
		c-20.762,33.072-19.115,58.266-6.762,66.014c4.412,2.783,13.473,1.168,24.867-4.41c31.496-15.453,66.92-52.322,83.77-75.588
		c-0.43-17.182,0.959-25.004,5.809-30.211c2.791-3,6.57-4.645,10.604-4.645c7.891,0,14.027,4.086,16.418,10.895
		c2.717,7.791-1.262,18.723-8.666,30.639c0.373,7.936,0.955,16.953,1.512,25.473c0.145,2.201,0.285,4.455,0.445,6.752
		c42.439-30.223,87.023-50.516,118.955-60.848c0.564-0.164,1.141-0.373,1.711-0.541c24.881-8.748,51.598-13.57,69.586-9.012
		c3.883,0.922,7.365,2.318,10.275,4.303c0.365,0.234,0.738,0.5,1.074,0.795c0.377,0.291,0.703,0.605,1.016,0.934
		c11.551,11.73,0.852,26.451-9.512,38.912c-2.586,3.326-5.504,6.814-8.68,10.43c-12.242,15.236-30.568,38.975-21.742,52.922
		c1.713,2.695,4.275,5.158,11.113,4.688c37.475-2.539,114.674-79.922,123.262-98.578c1.633-3.496,4.836-5.996,8.594-6.721
		c3.73-0.742,7.66,0.383,10.475,3.01l20.984,19.693c4.17,3.926,4.969,10.219,1.943,15.07
		c-12.814,20.406-18.266,40.021-14.986,53.807c1.312,5.629,4.027,9.688,8.006,12.1c3.994,2.426,11.498,1.9,20.576-1.42
		c21.484-7.848,50.004-30.639,70.549-56.988c9.176-19.84,20.211-37,24.178-42.957c3.311-4.986,9.832-6.75,15.213-4.102
		c5.379,2.619,7.977,8.85,6.064,14.539c-5.109,15.256-13.885,30.602-24.713,44.887c-8.697,19.359-13.346,36.518-9.639,43.486
		c0.441,0.803,1.727,3.242,9.514,3.283c0.051,0,0.111,0,0.15,0c20.336,0,50.043-30.006,67.666-52.838
		c6.543-16.654,15.023-30.686,19.658-33.385c4.373-2.518,10.084-2.068,13.916,1.146c2.891,2.455,6.918,7.92,3.168,17.953
		c-1.977,5.236-7.455,14.535-15.348,25.258c-4.947,12.936-8.648,27.248-5.787,34.748c0.547,1.484,1.256,2.666,4.479,3.219
		c13.543,2.396,34.119-5.225,53.66-19.867c28.184-21.139,47.377-50.664,52.043-79.77c0.225-1.641,0.432-3.199,0.629-4.641
		c0.838-6.49,6.773-11.107,13.27-10.324c6.529,0.787,11.178,6.672,10.461,13.191c-0.195,1.754-0.428,3.504-0.713,5.279
		c-0.914,6.521-2.584,17.893-4.549,28.215c18.188-18.371,37.412-31.023,53.785-27.113c24.979,5.943,27.588,32.92,29.713,54.615
		c0.996,10.305,2.529,25.896,6.871,28.463c13.621,5.908,100.83-13.299,115.525-20.143c3.203-2.689,7.75-3.617,11.926-2.035
		c6.184,2.305,9.312,9.225,6.99,15.383c-2.148,5.703-7.396,7.967-13.504,10.146c-8.547,3.037-108.682,31.459-132.998,17.275
		c-14.914-8.768-16.797-28.096-18.623-46.785c-1.799-18.539-3.668-31.809-11.424-33.643c-15.602-3.746-59.732,49.691-89.453,99.998
		c-3.279,5.547-10.383,7.496-16.039,4.41c-5.648-3.125-7.824-10.146-4.92-15.898c0.117-0.227,4.852-9.533,10.855-21.764
		c-1.799,1.463-3.617,2.898-5.48,4.283c-25.371,19.027-51.646,27.869-72.135,24.285c-13.148-2.27-22.076-11.295-24.475-24.758
		c-0.15-0.764-0.238-1.512-0.328-2.305c-18.377,17.389-39.582,31.594-59.133,31.314c-18.219-0.098-26.643-8.75-30.484-15.969
		c-2.77-5.193-3.879-11.363-3.811-18.094c-16.467,14.156-33.686,25.018-48.508,30.432c-16.664,6.102-30.535,5.914-41.203-0.576
		c-9.514-5.736-16.057-15.086-18.896-27.016c-4.295-18.08,0.299-40.357,12.99-63.518l-3.729-3.496
		c-25.223,32.908-92.848,96.209-134.646,99.02c-14.178,0.939-25.869-4.627-32.916-15.729c-4.156-6.578-5.99-13.4-6.143-20.219
		c-26.787,21.463-56.137,39.285-78.137,42.15c-20.852,2.732-31.113-7.617-35.367-14.039c-5.424-8.215-7.049-18.365-4.686-29.383
		c1.311-6.066,3.828-12.404,7.438-18.797c-8.475,5.695-16.473,11.572-23.979,17.555c2.229,44.748,2.602,100.008-8.975,149.762
		c-9.234,39.6-26.396,90.34-55.721,107.27C714.121,757.209,706.955,759.191,699.678,759.191z M762.465,516.387
		c-38.912,36.885-61.229,75.107-70.223,100.773c-15.938,45.471-19.424,86.355-9.1,106.734c2.867,5.672,6.568,9.125,11.303,10.58
		c5.033,1.527,9.629,0.936,14.48-1.869c16.844-9.711,33.021-43.246,44.375-91.979C762.654,600.449,763.699,555.625,762.465,516.387z
		 M912.705,429.467c-13.064,4.521-26.332,10.502-37.66,17.621c-26.055,16.49-45.979,38.787-49.549,55.471
		c-1,4.65-0.578,8.42,1.242,11.174c0.957,1.445,3.506,5.309,14.619,3.168c30.871-5.951,79.203-46.607,106.074-75.66
		c1.295-1.625,2.566-3.197,3.764-4.693c1.703-2.1,3.32-4.014,4.924-5.922c2.043-2.414,4.783-5.668,7.084-8.65
		c0.344-0.529,0.672-1.045,0.965-1.539C955.703,419.777,939.418,421.059,912.705,429.467z M492.123,419.963
		c-20.42,0-57.547,10.42-84.08,27.129c-26.082,16.494-46.02,38.785-49.578,55.459c-1.002,4.645-0.584,8.412,1.25,11.17
		c0.949,1.453,3.514,5.312,14.633,3.164c30.928-5.965,79.381-46.777,106.215-75.854c1.311-1.648,2.58-3.203,3.758-4.672
		c1.582-1.955,3.201-3.871,4.809-5.779c1.994-2.375,4.676-5.58,6.941-8.504c0.428-0.645,0.824-1.271,1.186-1.871
		C495.697,420.049,493.98,419.963,492.123,419.963z"/>
	<path d="M785.268,355.836c-0.318,0-0.994-0.029-1.301-0.059c-9.359-0.717-16.418-8.234-16.418-17.484
		c0-9.695,7.33-17.213,17.023-17.484c0.016,0,0.021,0,0.037,0c6.754,0,10.646,2.645,12.824,4.852
		c2.234,2.273,4.857,6.312,4.773,12.801C802.072,348.039,794.473,355.836,785.268,355.836z"/>
</g>
</svg>
