<?xml version="1.0" encoding="utf-8"?>
<!-- Generator: Adobe Illustrator 16.0.5, SVG Export Plug-In . SVG Version: 6.00 Build 0)  -->
<!DOCTYPE svg PUBLIC "-//W3C//DTD SVG 1.1//EN" "http://www.w3.org/Graphics/SVG/1.1/DTD/svg11.dtd">
<svg version="1.1" id="Layer_1" xmlns="http://www.w3.org/2000/svg" xmlns:xlink="http://www.w3.org/1999/xlink" x="0px" y="0px"
	 viewBox="0 0 1000 556" enable-background="new 0 0 1000 556" xml:space="preserve">
<path opacity="0.87" d="M669.721,54.158c68.762-18.501,151.449-15.767,204.238,35.636c38.224,41.065,73.549,86.311,80.471,139.722
	c-5.551,62.342-6.76,109.842,24.384,172.625l21.004,41.385c2.091,25.378-14.205,45.327-25.873,64.15
	c-13.199,16.411-27.08,36.801-50.017,38.855c-38.866-2.734-81.276,5.512-119.5-0.643c-5.553-3.46-6.923-4.226-5.553-10.82
	c7.363-33.666,51.222-40.22,79.908-67.167c2.096-5.471,5.838-8.004,0.562-17.013c-27.762-15.726-50.815-27.631-76.526-50.235
	c-1.328-2.776-8.692-1.729-14.044-0.445c-40.959,42.475-53.756,86.635-73.191,139.648c-12.551,15.08-34.643,11.821-54.075,13.835
	c-34.041-1.369-68.883,5.35-98.739-4.267c-3.5-2.048-4.185-8.203-2.777-12.307c11.104-38.369,62.488-24.01,70.857-65.077
	c4.827-27.389-16.697-46.612-20.882-71.229l-2.053-1.369c-22.209,0-48.645-4.826-67.395,4.102
	c20.158,52.045-19.193,127.659-45.347,140.37c-18.268,2.292-48.403,3.94-72.184,4.344c-22.25,0.401-42.248,4.545-63.051-1.608
	c-3.5-4.144-3.5-7.481-1.406-12.952c12.514-32.9,63.937-17.817,62.506-57.553c-15.955-8.247-15.955-33.586-36.797-30.169
	c-36.414,32.581-57.137,68.175-88.921,101.397c0,0-2.354,3.499-8.291,4.826c-21.445,4.584-109.825,4.705-131.973,2.048
	c-22.17-2.654-19.596-3.057-24.988-8.403c-1.973-6.154-3.48-13.555-0.041-18.984c22.916-24.012,58.344-19.908,79.891-46.614
	c15.955-21.92,29.17-45.208,41.705-68.494c7.846-20.994-22.25-21.235-34.08-30.808c-20.823-11.666-41.686,3.419-60.415,8.849
	c-18.066,3.456-26.396-17.776-45.125-8.849c-13.237,3.419-30.58,7.52-42.39,0c-6.256-4.786-17.362-13.033-9.716-21.235l7.042-3.823
	c-22.935,2.775-50.134-3.741-63.292-23.61c-0.725-4.787-6.278-10.257-2.112-15.083c16.678-30.123,63.19-40.379,64.62-78.066
	c5.532-13.714,22.916-21.237,29.17-34.267c0.704-15.767-0.704-36.319,17.36-42.473c10.42-4.143,12.494,7.562,19.436,9.611
	c4.164-11.663,6.357-32.257,24.422-34.306c17.783-3.862,37.9,15.283,56.149,7.56c55.547-28.073,98.621-76.014,147.244-119.854
	C466.889-50.013,558.588,67.874,669.721,54.158"/>
</svg>
