<!-- Copyright © 2014 Brian Speir. All rights reserved.  -->
<svg version="1.1" id="Layer_1" xmlns="http://www.w3.org/2000/svg" xmlns:xlink="http://www.w3.org/1999/xlink" x="0px" y="0px"
	 width="152px" height="152px" viewBox="0 0 152 152" enable-background="new 0 0 152 152" xml:space="preserve">
<linearGradient id="SVGID_1_" gradientUnits="userSpaceOnUse" x1="76.0005" y1="152" x2="76.0005" y2="9.765625e-04">
	<stop  offset="0" style="stop-color:#FFCD02"/>
	<stop  offset="1" style="stop-color:#FFDB4C"/>
</linearGradient>
<circle fill="url(#SVGID_1_)" cx="76" cy="76" r="76"/>
<linearGradient id="SVGID_2_" gradientUnits="userSpaceOnUse" x1="55.1646" y1="71.3892" x2="55.1646" y2="51.4067">
	<stop  offset="0" style="stop-color:#4A4A4A"/>
	<stop  offset="1" style="stop-color:#2B2B2B"/>
</linearGradient>
<ellipse fill="url(#SVGID_2_)" cx="55.164" cy="61.398" rx="8.368" ry="9.991"/>
<linearGradient id="SVGID_3_" gradientUnits="userSpaceOnUse" x1="96.8359" y1="71.3892" x2="96.8359" y2="51.4067">
	<stop  offset="0" style="stop-color:#4A4A4A"/>
	<stop  offset="1" style="stop-color:#2B2B2B"/>
</linearGradient>
<ellipse fill="url(#SVGID_3_)" cx="96.836" cy="61.398" rx="8.369" ry="9.991"/>
<linearGradient id="SVGID_4_" gradientUnits="userSpaceOnUse" x1="76.0317" y1="109.9902" x2="76.0317" y2="93.3467">
	<stop  offset="0" style="stop-color:#2B2B2B"/>
	<stop  offset="1" style="stop-color:#4A4A4A"/>
</linearGradient>
<path fill="url(#SVGID_4_)" d="M104.185,101.312c-5.572-1.144-11.343-1.744-17.254-1.744c-13.994,0-27.271,3.232-38.856,9.333
	c-4.979,2.622-4.655-0.001-1.64-2.513c9.771-8.144,22.341-13.042,36.056-13.042c8.033,0,15.674,1.681,22.589,4.708
	C109.229,99.872,108.473,102.192,104.185,101.312z"/>
</svg>
