<?xml version="1.0" encoding="utf-8"?>
<!-- Copyright © 2014 Brian Speir. All rights reserved.  -->
<!DOCTYPE svg PUBLIC "-//W3C//DTD SVG 1.1//EN" "http://www.w3.org/Graphics/SVG/1.1/DTD/svg11.dtd">
<svg version="1.1" id="Layer_1" xmlns="http://www.w3.org/2000/svg" xmlns:xlink="http://www.w3.org/1999/xlink" x="0px" y="0px"
	 width="435px" height="435px" viewBox="0 0 435 435" enable-background="new 0 0 435 435" xml:space="preserve">
<linearGradient id="background_1_" gradientUnits="userSpaceOnUse" x1="661.5" y1="892" x2="661.5" y2="457.001" gradientTransform="matrix(1 0 0 1 -444 -457)">
	<stop  offset="0" style="stop-color:#000000"/>
	<stop  offset="1" style="stop-color:#575757"/>
</linearGradient>
<rect id="background" fill="url(#background_1_)" width="435" height="435"/>
<path display="none" fill="#FFFFFF" d="M95.898-291.055c0.327,3.234,0.211,6.223-0.352,8.965c-0.563,2.742-1.418,5.25-2.566,7.523
	c-1.149,2.274-2.508,4.301-4.078,6.082c-1.571,1.782-3.199,3.329-4.887,4.641c0.187,1.969,0.433,3.821,0.738,5.555
	c0.305,1.735,0.644,3.493,1.02,5.273c2.437-0.187,4.641,0.083,6.609,0.809c1.969,0.728,3.645,1.782,5.027,3.164
	c1.382,1.383,2.426,3.048,3.129,4.992c0.703,1.946,1.008,4.067,0.914,6.363c-0.095,1.923-0.469,3.633-1.125,5.133
	c-0.657,1.501-1.477,2.848-2.461,4.043c-0.984,1.195-2.099,2.262-3.34,3.199c-1.242,0.938-2.521,1.805-3.832,2.602
	c-0.095,1.735,0.023,3.364,0.352,4.887c0.327,1.524,0.644,3,0.949,4.43c0.305,1.431,0.516,2.86,0.633,4.289
	c0.116,1.429-0.082,2.941-0.598,4.535c-0.422,1.266-1.114,2.366-2.074,3.305c-0.961,0.937-2.074,1.698-3.34,2.285
	c-1.266,0.585-2.637,0.984-4.113,1.195s-2.918,0.211-4.324,0c-1.406-0.211-2.731-0.61-3.973-1.195
	c-1.242-0.587-2.285-1.418-3.129-2.496c-0.938-1.22-1.453-2.556-1.547-4.008c-0.095-1.454,0.129-2.802,0.668-4.043
	c0.538-1.241,1.347-2.261,2.426-3.059c1.078-0.796,2.32-1.148,3.727-1.055c1.266,0.047,2.296,0.376,3.094,0.984
	c0.797,0.61,1.382,1.36,1.758,2.25c0.375,0.891,0.516,1.851,0.422,2.883c-0.095,1.03-0.376,1.979-0.844,2.848
	c-0.469,0.867-1.137,1.605-2.004,2.215c-0.868,0.608-1.91,0.937-3.129,0.984c1.125,1.218,2.426,1.969,3.902,2.25
	c1.476,0.281,2.929,0.234,4.359-0.141c1.43-0.376,2.718-1.032,3.867-1.969c1.148-0.938,1.979-2.016,2.496-3.234
	c0.516-1.313,0.749-2.696,0.703-4.148c-0.047-1.452-0.2-2.941-0.457-4.465c-0.258-1.522-0.539-3.069-0.844-4.641
	c-0.306-1.57-0.457-3.082-0.457-4.535c-3.892,0.422-7.559,0.141-11.004-0.844c-3.445-0.985-6.41-2.566-8.895-4.746
	c-2.485-2.18-4.359-4.897-5.625-8.156c-1.266-3.257-1.688-6.926-1.266-11.004c0.281-2.906,1.09-5.578,2.426-8.016
	c1.336-2.437,2.918-4.699,4.746-6.785c1.828-2.085,3.75-3.973,5.766-5.66c2.015-1.688,3.867-3.234,5.555-4.641
	c-0.703-2.906-1.066-5.941-1.09-9.105s0.27-6.175,0.879-9.035c0.608-2.858,1.522-5.437,2.742-7.734
	c1.219-2.296,2.695-4.008,4.43-5.133c0.938-0.608,1.874-0.503,2.812,0.316c0.938,0.821,1.769,1.958,2.496,3.41
	c0.727,1.454,1.336,2.988,1.828,4.605C95.509-293.271,95.804-291.992,95.898-291.055z M71.078-229.039
	c0.89,0.798,2.004,1.582,3.34,2.355s2.801,1.406,4.395,1.898c1.593,0.492,3.258,0.773,4.992,0.844
	c1.733,0.07,3.421-0.199,5.062-0.809c-0.657-3.187-1.266-6.469-1.828-9.844s-1.102-6.726-1.617-10.055
	c-2.812,0-4.922,0.844-6.328,2.531c-1.406,1.687-1.853,3.867-1.336,6.539c0.094,0.703,0.327,1.325,0.703,1.863
	c0.375,0.54,0.784,1.044,1.23,1.512c0.445,0.469,0.879,0.926,1.301,1.371c0.422,0.446,0.727,0.926,0.914,1.441
	c-1.22-0.515-2.345-1.183-3.375-2.004c-1.031-0.819-1.91-1.769-2.637-2.848c-0.728-1.078-1.242-2.285-1.547-3.621
	c-0.306-1.336-0.341-2.777-0.105-4.324c0.187-1.312,0.608-2.519,1.266-3.621c0.656-1.101,1.452-2.085,2.391-2.953
	c0.938-0.867,1.969-1.628,3.094-2.285c1.125-0.656,2.25-1.195,3.375-1.617c-0.235-0.796-0.422-1.64-0.562-2.531
	c-0.141-0.89-0.281-1.781-0.422-2.672c-0.141-0.89-0.293-1.758-0.457-2.602c-0.165-0.844-0.387-1.617-0.668-2.32
	c-1.688,0.984-3.399,2.262-5.133,3.832c-1.734,1.571-3.34,3.305-4.816,5.203c-1.476,1.898-2.731,3.915-3.762,6.047
	c-1.031,2.134-1.677,4.289-1.934,6.469c-0.258,2.18-0.06,4.313,0.598,6.398C67.867-232.753,69.155-230.82,71.078-229.039z
	 M82.258-273.617c0.844-0.468,1.804-1.148,2.883-2.039c1.078-0.89,2.155-1.921,3.234-3.094c1.078-1.171,2.062-2.437,2.953-3.797
	c0.89-1.359,1.547-2.753,1.969-4.184c0.422-1.429,0.538-2.835,0.352-4.219c-0.188-1.382-0.844-2.683-1.969-3.902
	c-1.501-0.187-2.802,0.047-3.902,0.703c-1.102,0.657-2.016,1.582-2.742,2.777c-0.728,1.195-1.301,2.579-1.723,4.148
	c-0.422,1.571-0.738,3.164-0.949,4.781c-0.211,1.617-0.306,3.199-0.281,4.746C82.105-276.148,82.163-274.788,82.258-273.617z
	 M89.922-225.172c1.688-0.187,3.059-0.867,4.113-2.039c1.055-1.171,1.793-2.566,2.215-4.184s0.538-3.315,0.352-5.098
	c-0.188-1.781-0.68-3.363-1.477-4.746c-0.798-1.382-1.888-2.426-3.27-3.129c-1.383-0.703-3.059-0.796-5.027-0.281
	c0.703,3.141,1.301,6.353,1.793,9.633C89.113-231.734,89.546-228.452,89.922-225.172z"/>
<path display="none" fill="#FFFFFF" d="M276.391-276.219v56.531c0,3.422-1.22,6.082-3.656,7.98
	c-2.438,1.898-6.022,2.848-10.758,2.848c-3.892,0-7.065-0.854-9.526-2.566c-2.462-1.71-3.691-3.902-3.691-6.574
	c0-2.203,1.229-4.159,3.691-5.871c2.461-1.71,5.262-2.566,8.401-2.566c3.983,0,8.017,1.195,12.094,3.586l0.142-53.367
	L276.391-276.219L276.391-276.219z"/>
<path display="none" fill="#FFFFFF" d="M339.672-248.797l-1.266-2.039c1.547-1.969,2.319-3.632,2.319-4.992
	c0-2.203-1.992-3.96-5.977-5.273c-4.032-1.359-7.242-2.812-9.633-4.359l0.069,43.875v2.531c0,1.406-0.069,2.391-0.211,2.953
	c-0.517,1.969-2.027,3.621-4.534,4.957c-2.509,1.336-5.825,2.004-9.949,2.004c-9.188,0-13.781-2.672-13.781-8.016
	c0-2.25,1.44-4.171,4.324-5.766c2.883-1.593,6.339-2.391,10.371-2.391c3.655,0,7.172,1.477,10.547,4.43v-55.688l3.094-0.141
	c0.749,2.063,1.582,3.48,2.496,4.254s2.637,1.559,5.168,2.355c8.719,2.626,13.078,6.235,13.078,10.828
	C345.789-256.32,343.75-252.828,339.672-248.797z"/>
<path display="none" fill="#FFFFFF" d="M418.773-276.289v57.445c0,3.188-1.021,5.625-3.06,7.312
	c-2.039,1.688-5.659,2.532-10.862,2.532c-3.655,0-6.669-0.691-9.034-2.074c-2.367-1.382-3.552-3.152-3.552-5.309
	c0-2.437,1.137-4.476,3.41-6.117c2.273-1.64,5.099-2.461,8.474-2.461c4.124,0,7.897,1.266,11.319,3.797l0.142-46.055l-28.548-7.594
	l-0.069,45.562v2.742l-0.633,2.461c-1.828,3.704-5.884,5.555-12.164,5.555c-4.032,0-7.349-0.668-9.949-2.004
	c-2.602-1.336-3.902-3.034-3.902-5.098c0-2.437,1.195-4.453,3.586-6.047c2.392-1.593,5.414-2.391,9.07-2.391
	c3.516,0,7.055,1.454,10.617,4.359l0.141-55.688L418.773-276.289z"/>
<path display="none" fill="#FFFFFF" d="M506.734-277.695v57.797c0,3.844-0.879,6.622-2.638,8.332
	c-1.758,1.712-5.474,2.566-11.145,2.566c-2.953,0-5.496-0.773-7.629-2.32c-2.134-1.547-3.199-3.375-3.199-5.484
	c0-2.343,1.02-4.242,3.059-5.695c2.039-1.452,4.651-2.18,7.841-2.18c4.172,0,7.312,1.102,9.422,3.305l1.477,0.984v-30.305h-40.078
	l0.07,31.853c0,1.642-0.246,2.907-0.738,3.797c-0.492,0.891-1.512,1.875-3.059,2.953c-2.719,1.969-6.071,2.953-10.055,2.953
	c-3.329,0-6.199-0.844-8.613-2.531c-2.415-1.688-3.621-3.679-3.621-5.977c0-5.578,4.522-8.367,13.57-8.367
	c2.999,0,6.258,1.642,9.772,4.922l0.07-56.742L506.734-277.695z M503.992-267.641h-40.078l-0.07,6.961l40.148-0.141V-267.641z"/>
<path display="none" fill="#FFFFFF" d="M530.781-300.969h4.078v59.273c3.375-3.468,6.387-6.035,9.034-7.699
	c2.647-1.663,4.816-2.496,6.505-2.496c1.969,0,3.762,0.364,5.379,1.09c1.617,0.728,3.033,1.758,4.254,3.094
	c1.219,1.336,2.155,2.895,2.812,4.676c0.656,1.782,0.984,3.727,0.984,5.836c0,1.36-0.398,2.825-1.195,4.395
	c-0.798,1.571-1.758,3.141-2.883,4.711c-1.125,1.571-2.32,3.048-3.586,4.43c-1.266,1.383-2.391,2.566-3.375,3.551l-21.516,20.25
	L530.781-300.969z M535.07-206.469c1.688-2.204,3.49-4.581,5.414-7.137c1.922-2.554,3.68-5.214,5.272-7.98
	c1.593-2.765,2.918-5.625,3.974-8.578c1.055-2.953,1.582-5.906,1.582-8.859c0-1.921-0.518-3.468-1.548-4.641
	c-1.03-1.171-2.415-1.758-4.147-1.758c-1.453,0-2.965,0.387-4.535,1.16c-1.571,0.772-2.848,1.7-3.832,2.777l-2.391,3.023
	L535.07-206.469z"/>
<path display="none" fill="#FFFFFF" d="M620.922-312.57v20.812l8.086-4.148l-0.07,9.422l-8.016,4.148l0.141,28.617l7.945-4.008
	v9.633l-8.016,4.078l0.141,20.32h-4.008l-0.07-18.281l-20.672,10.406l0.142,22.5l-3.798,0.07l-0.069-20.672l-8.156,4.078v-9.562
	l8.227-4.219l-0.141-28.617l-8.156,4.148v-9.492l8.156-4.148l-0.07-20.602h3.867l0.07,18.562l20.602-10.125l-0.069-23.062
	L620.922-312.57z M617.055-280.227l-20.672,10.406l0.142,28.547l20.53-10.336V-280.227z"/>
<path display="none" fill="#FFFFFF" d="M751.211-230.586v-33.258c0-0.562-0.141-1.57-0.422-3.023
	c-0.281-1.452-0.763-3.199-1.441-5.238c-0.68-2.039-1.582-4.254-2.707-6.645s-2.53-4.804-4.219-7.242
	c-1.688-2.437-3.69-4.792-6.012-7.066c-2.32-2.273-4.992-4.289-8.016-6.047c-3.024-1.758-6.445-3.164-10.267-4.219
	c-3.821-1.055-8.098-1.582-12.832-1.582s-9.012,0.527-12.832,1.582c-3.82,1.055-7.242,2.461-10.266,4.219
	c-3.024,1.758-5.695,3.774-8.017,6.047c-2.319,2.274-4.323,4.63-6.012,7.066c-1.688,2.438-3.094,4.852-4.219,7.242
	s-2.028,4.605-2.707,6.645c-0.68,2.039-1.16,3.786-1.441,5.238c-0.28,1.454-0.422,2.461-0.422,3.023v33.258h-9.844v-33.258
	c0-0.938,0.164-2.391,0.492-4.359c0.327-1.969,0.902-4.229,1.723-6.785c0.819-2.554,1.909-5.309,3.271-8.262
	c1.358-2.953,3.059-5.894,5.098-8.824c2.039-2.929,4.453-5.766,7.242-8.508c2.788-2.742,6.035-5.156,9.738-7.242
	c3.702-2.085,7.886-3.75,12.551-4.992c4.664-1.241,9.879-1.863,15.645-1.863c5.767,0,10.979,0.622,15.646,1.863
	c4.664,1.243,8.848,2.907,12.551,4.992c3.702,2.086,6.949,4.5,9.738,7.242c2.788,2.742,5.203,5.579,7.242,8.508
	c2.039,2.93,3.736,5.871,5.098,8.824c1.359,2.953,2.449,5.708,3.27,8.262c0.819,2.556,1.396,4.816,1.724,6.785
	c0.327,1.969,0.492,3.422,0.492,4.359v33.258H751.211z M683.5-211.883c-0.609,0.891-1.29,1.547-2.039,1.969
	c-0.844,0.517-1.828,0.821-2.953,0.914h-12.656v-50.555c2.109-0.046,4.055-0.07,5.836-0.07c1.5,0,2.919,0,4.255,0
	s2.189,0.024,2.565,0.07c1.5,0.095,2.647,0.469,3.445,1.125c0.797,0.657,1.382,1.36,1.758,2.109
	c0.468,0.844,0.703,1.828,0.703,2.953v37.758C684.414-214.015,684.108-212.772,683.5-211.883z M732.086-209
	c-1.079-0.093-2.039-0.397-2.883-0.914c-0.75-0.422-1.418-1.078-2.004-1.969c-0.587-0.89-0.879-2.132-0.879-3.727v-37.758
	c0.046-1.125,0.28-2.109,0.703-2.953c0.375-0.749,0.948-1.452,1.723-2.109c0.772-0.656,1.887-1.03,3.34-1.125
	c0.375-0.046,1.254-0.07,2.637-0.07s2.823,0,4.324,0c1.781,0,3.728,0.024,5.836,0.07V-209H732.086z"/>
<path display="none" fill="#FFFFFF" d="M785.594-312.5v32.484l23.344-11.812l-0.141,82.758h-3.234l-0.069-32.836l-23.344,11.742
	v-82.195L785.594-312.5z M805.492-280.227l-19.898,10.125v27.914l19.969-10.055L805.492-280.227z"/>
<path id="note" fill="#FFFFFF" d="M186.718,57.5v100.501l72.226-36.547l-0.44,256.046h-10.004l-0.22-101.592l-72.218,36.334V57.937
	L186.718,57.5z M248.277,157.348l-61.561,31.328v86.359l61.78-31.1L248.277,157.348z"/>
<path id="mask" fill="#FFFFFF" d="M0,0v435h435V0H0z M431.25,286.602c0,48.976,0,62.705-7.09,83.791
	c-9.104,24.922-28.852,44.664-53.773,53.771c-21.08,7.09-34.818,7.09-83.785,7.09c-138.202,0-138.202,0-138.202,0
	c-48.968,0-62.708,0-83.791-7.09c-24.922-9.104-44.667-28.853-53.771-53.772c-7.088-21.08-7.088-34.82-7.088-83.787
	c0-138.201,0-138.201,0-138.201c0-48.975,0-62.706,7.092-83.792C19.946,39.69,39.69,19.947,64.613,10.842
	c21.083-7.09,34.823-7.09,83.787-7.09h138.202c48.967,0,62.705,0,83.791,7.09c24.924,9.104,44.664,28.851,53.771,53.774
	c7.09,21.079,7.09,34.818,7.09,83.785C431.25,286.602,431.25,286.602,431.25,286.602z"/>
<path id="outline" fill="#DDDDDD" d="M286.604,3.75c48.965,0,62.703,0,83.789,7.09c24.924,9.111,44.664,28.851,53.771,53.774
	c7.09,21.079,7.09,34.818,7.09,83.782c0,138.2,0,138.2,0,138.2c0,48.971,0,62.709-7.09,83.788
	c-9.111,24.925-28.853,44.663-53.774,53.774c-21.078,7.09-34.816,7.09-83.779,7.09c-138.208,0-138.208,0-138.208,0
	c-48.964,0-62.704,0-83.787-7.09c-24.922-9.111-44.663-28.852-53.771-53.774C3.75,349.307,3.75,335.566,3.75,286.6
	c0-138.2,0-138.2,0-138.2c0-48.967,0-62.706,7.092-83.785C19.949,39.689,39.69,19.951,64.613,10.84
	c21.083-7.09,34.823-7.09,83.782-7.09H286.604 M286.604,0H148.394C99.758,0,85.08,0,63.417,7.28
	c-26.161,9.563-46.571,29.978-56.1,56.041C0,85.078,0,99.763,0,148.396v138.2c0,48.641,0,63.316,7.286,84.985
	c9.56,26.159,29.971,46.571,56.038,56.101c21.757,7.316,36.438,7.316,85.071,7.316h138.207c48.637,0,63.312,0,84.979-7.28
	c26.162-9.562,46.57-29.978,56.1-56.041C435,349.921,435,335.236,435,286.6V148.396c0-48.642,0-63.318-7.287-84.983
	c-9.559-26.155-29.971-46.571-56.038-56.101C349.922,0,335.236,0,286.604,0L286.604,0z"/>
</svg>
