<?xml version="1.0" encoding="utf-8"?>
<!-- Generator: Adobe Illustrator 16.0.5, SVG Export Plug-In . SVG Version: 6.00 Build 0)  -->
<!DOCTYPE svg PUBLIC "-//W3C//DTD SVG 1.1//EN" "http://www.w3.org/Graphics/SVG/1.1/DTD/svg11.dtd">
<svg version="1.1" id="Layer_1" xmlns="http://www.w3.org/2000/svg" xmlns:xlink="http://www.w3.org/1999/xlink" x="0px" y="0px"
	 width="1310px" height="1529px" viewBox="0 0 1310 1529" enable-background="new 0 0 1310 1529" xml:space="preserve">
<g>
	<rect x="283" y="26" fill="#FFFFFF" width="1027" height="771"/>
	<g id="Browser_1_">
		<g id="Frame">
			<path fill="#4B4B4B" d="M1307,26v764c0,2.209-1.791,4-4,4H287c-2.209,0-4-1.791-4-4V26H1307 M1310,23h-3H283h-3v3v764
				c0,3.859,3.141,7,7,7h1016c3.859,0,7-3.141,7-7V26V23L1310,23z"/>
		</g>
		<g id="Bar">
			<path fill="#DDDDDD" d="M281.5,24.5V6c0-3.033,2.467-5.5,5.5-5.5h1016c3.033,0,5.5,2.467,5.5,5.5v18.5H281.5z"/>
			<path fill="#4B4B4B" d="M1303,2c2.209,0,4,1.791,4,4v17H283V6c0-2.209,1.791-4,4-4H1303 M1303-1H287c-3.859,0-7,3.141-7,7v17v3h3
				h1024h3v-3V6C1310,2.141,1306.859-1,1303-1L1303-1z"/>
		</g>
		<circle id="Close" fill="#BBBBBB" cx="295" cy="13" r="5"/>
		<circle id="Minimize" fill="#BBBBBB" cx="315" cy="13" r="5"/>
		<circle id="Zoom" fill="#BBBBBB" cx="335" cy="13" r="5"/>
		<rect id="Title" x="745" y="7.438" display="none" fill="#BBBBBB" width="100" height="11"/>
	</g>
</g>
<rect x="93.5" y="392.001" fill="#808080" width="775" height="1027"/>
<g id="iPad_1_">
	<g id="Body_1_">
		<g>
			<path fill="#FFFFFF" d="M45,1529c-23.986,0-43.5-19.514-43.5-43.5v-1157c0-23.985,19.514-43.5,43.5-43.5h872
				c23.986,0,43.5,19.515,43.5,43.5v1157c0,23.986-19.514,43.5-43.5,43.5H45z M95,1420.5h772v-1027H95V1420.5z"/>
		</g>
		<g>
			<path fill="#4B4B4B" d="M917,286.501c23.159,0,42,18.841,42,42v1157c0,23.16-18.841,42-42,42H45c-23.159,0-42-18.84-42-42v-1157
				c0-23.159,18.841-42,42-42H917 M93.5,1422h3h769h3v-3v-1024v-3h-3h-769h-3v3v1024V1422 M917,283.501H45c-24.85,0-45,20.15-45,45
				v1157c0,24.85,20.15,45,45,45h872c24.85,0,45-20.15,45-45v-1157C962,303.651,941.85,283.501,917,283.501L917,283.501z M96.5,1419
				v-1024h769v1024H96.5L96.5,1419z"/>
		</g>
	</g>
	<g id="Home_Button">
		<path fill="#AAAAAA" d="M479,1447.645c14.888,0,27,12.113,27,27c0,14.891-12.112,27-27,27s-27-12.109-27-27
			C452,1459.758,464.112,1447.645,479,1447.645 M479,1444.645c-16.562,0-30,13.434-30,30c0,16.568,13.438,30,30,30s30-13.432,30-30
			C509,1458.075,495.562,1444.645,479,1444.645L479,1444.645z"/>
	</g>
</g>
<g>
	<rect x="542" y="192" fill="#808080" width="326" height="573"/>
	<g>
		<g id="Body">
			<g>
				<path fill="#FFFFFF" d="M579.179,864.002c-30.7,0-55.679-24.984-55.679-55.695V148.693c0-30.709,24.979-55.691,55.679-55.691
					h251.649c30.697,0,55.672,24.982,55.672,55.691v659.612c0,30.711-24.975,55.695-55.672,55.695H579.179V864.002z M543.5,764.002
					h323v-571h-323V764.002z"/>
			</g>
			<g>
				<path fill="#4B4B4B" d="M830.828,94.501c29.87,0,54.172,24.312,54.172,54.191v659.611c0,29.883-24.302,54.195-54.172,54.195
					H579.179c-29.875,0-54.179-24.312-54.179-54.195v-659.61c0-29.882,24.304-54.191,54.179-54.191L830.828,94.501 M542,765.502h3
					h320h3v-3v-568v-3h-3H545h-3v3v568V765.502 M830.828,91.501H579.179c-31.578,0-57.179,25.607-57.179,57.191v659.611
					c0,31.586,25.601,57.195,57.179,57.195h251.649c31.571,0,57.172-25.609,57.172-57.195v-659.61
					C888,117.109,862.399,91.501,830.828,91.501L830.828,91.501z M545,762.502v-568h320v568H545L545,762.502z"/>
			</g>
		</g>
		<g id="Home_Button_2_">
			<path id="Button" fill="#AAAAAA" d="M706.5,779.002c17.094,0,31,13.906,31,31s-13.906,31-31,31c-17.093,0-31-13.906-31-31
				S689.407,779.002,706.5,779.002 M706.5,776.002c-18.771,0-34,15.219-34,34c0,18.779,15.229,34,34,34c18.777,0,34-15.221,34-34
				C740.5,791.221,725.277,776.002,706.5,776.002L706.5,776.002z"/>
			<path id="Icon" display="none" fill="#AAAAAA" d="M710.4,799.002c2.303,0,3.338,0.104,4.373,0.438
				c0.965,0.381,1.843,1.221,2.154,2.062c0.36,1.199,0.569,2.363,0.569,4.68v8.113c0,2.281-0.2,3.396-0.569,4.625
				c-0.301,0.805-1.033,1.482-2.023,1.869c-0.564,0.178-1.217,0.215-2.145,0.215c-0.301,0-0.621-0.004-0.969-0.008
				c-0.425-0.006-0.886-0.012-1.396-0.012h-7.799c-0.513,0-0.973,0.006-1.392,0.012c-0.336,0.004-0.646,0.008-0.936,0.008
				c-1.024,0-1.554-0.055-2.057-0.213c-1.021-0.4-1.856-1.152-2.145-1.934c-0.327-1.078-0.575-2.117-0.575-4.562v-8.113
				c0-2.281,0.202-3.396,0.575-4.629c0.331-0.92,1.137-1.76,2.021-2.111c1.027-0.332,2.135-0.439,4.502-0.439H710.4 M710.4,797.002
				H702.6c-2.478,0-3.838,0.113-5.175,0.553c-1.452,0.553-2.724,1.857-3.251,3.373c-0.423,1.385-0.675,2.672-0.675,5.254v8.113
				c0,2.576,0.252,3.801,0.675,5.189c0.527,1.514,1.926,2.641,3.379,3.188c0.836,0.275,1.635,0.328,2.725,0.328
				c0.646,0,1.397-0.021,2.322-0.021h7.802c0.925,0,1.69,0.021,2.361,0.021c1.125,0,1.975-0.053,2.811-0.328
				c1.451-0.551,2.722-1.613,3.257-3.127c0.422-1.387,0.672-2.678,0.672-5.254v-8.113c0-2.582-0.25-3.926-0.672-5.311
				c-0.535-1.518-1.931-2.766-3.384-3.316C714.113,797.116,712.875,797.002,710.4,797.002L710.4,797.002z"/>
		</g>
		<g id="Earpiece">
			<path fill="#4B4B4B" d="M733,158.001c1.103,0,2,0.897,2,2s-0.897,2-2,2h-53c-1.103,0-2-0.897-2-2s0.897-2,2-2H733 M733,156.001
				h-53c-2.209,0-4,1.791-4,4s1.791,4,4,4h53c2.209,0,4-1.791,4-4S735.209,156.001,733,156.001L733,156.001z"/>
		</g>
		<g id="Front_Camera">
			<path fill="#4B4B4B" d="M706.496,124.499c3.035,0.001,5.504,2.471,5.504,5.504c0,3.031-2.469,5.496-5.503,5.496
				c-3.031,0-5.497-2.465-5.497-5.496C701,126.968,703.466,124.5,706.496,124.499 M706.497,122.499
				c-4.141,0-7.497,3.361-7.497,7.504c0,4.137,3.356,7.496,7.497,7.496c4.142,0,7.503-3.359,7.503-7.496
				C714,125.861,710.639,122.501,706.497,122.499L706.497,122.499z"/>
		</g>
	</g>
</g>
</svg>
