<?xml version="1.0" encoding="utf-8"?>
<!-- Copyright © 2014 Brian Speir. All rights reserved.  -->
<!DOCTYPE svg PUBLIC "-//W3C//DTD SVG 1.1//EN" "http://www.w3.org/Graphics/SVG/1.1/DTD/svg11.dtd">
<svg version="1.1" id="iPhone_6" xmlns="http://www.w3.org/2000/svg" xmlns:xlink="http://www.w3.org/1999/xlink" x="0px" y="0px"
	 width="431px" height="887px" viewBox="0 0 431 887" enable-background="new 0 0 431 887" xml:space="preserve">
<g id="Body">
	<path fill="#FFFFFF" d="M344.718,885.496H86.286c-0.007,0-0.783,0.004-2.058,0.004c-4.747,0-16.265-0.057-20.678-0.584
		c-6.239-0.735-17.913-2.833-23.159-4.999c-5.608-2.31-16.019-8.668-20.174-12.796c-4.277-4.271-10.792-14.824-13.125-20.467
		c-2.163-5.226-4.265-16.892-5.004-23.131c-0.663-5.556-0.583-22.558-0.583-22.729V86.189c-0.001-0.176-0.081-17.16,0.583-22.71
		c0.735-6.231,2.834-17.89,5.004-23.131c2.331-5.66,8.844-16.215,13.125-20.468C24.56,15.564,35.104,9.135,40.37,7.093
		c5.436-2.107,17.155-4.299,23.178-5.008C67.969,1.557,79.504,1.5,84.258,1.5c1.257,0,2.021,0.004,2.022,0.004h258.432
		c0.007,0,0.771-0.004,2.03-0.004c4.76,0,16.306,0.057,20.707,0.584c6.236,0.735,17.916,2.833,23.185,5.001
		c5.58,2.292,15.975,8.646,20.151,12.794c4.306,4.282,10.827,14.832,13.145,20.465c2.146,5.181,4.219,16.647,5.007,23.135
		c0.662,5.549,0.558,22.531,0.557,22.702V800.79c0.001,0.178,0.105,17.179-0.558,22.733c-0.792,6.495-2.868,17.969-5.005,23.13
		c-2.336,5.654-8.86,16.209-13.146,20.468c-4.163,4.136-14.561,10.493-20.151,12.796c-5.27,2.167-16.948,4.264-23.183,4.999
		c-4.394,0.527-15.903,0.584-20.665,0.584C346.782,885.5,344.719,885.496,344.718,885.496z M27,778h377V109H27V778z"/>
	<path d="M346.743,2.5c4.741,0,16.239,0.056,20.591,0.578c6.18,0.728,17.736,2.799,22.921,4.933
		c5.497,2.258,15.726,8.506,19.825,12.578c4.155,4.132,10.689,14.703,12.927,20.142c2.107,5.091,4.155,16.439,4.937,22.867
		c0.654,5.488,0.551,22.408,0.55,22.592v714.614c0.001,0.171,0.104,17.108-0.55,22.597c-0.785,6.442-2.836,17.798-4.938,22.873
		c-2.253,5.454-8.79,16.03-12.925,20.139c-4.088,4.061-14.319,10.312-19.827,12.581c-5.184,2.131-16.741,4.202-22.924,4.932
		c-4.342,0.521-15.823,0.576-20.558,0.576c-1.272,0-2.047-0.004-2.061-0.004H86.275c-0.002,0-0.776,0.004-2.047,0.004
		c-4.729,0-16.2-0.056-20.563-0.577c-6.182-0.729-17.733-2.8-22.894-4.931c-5.525-2.275-15.77-8.528-19.846-12.577
		c-4.129-4.124-10.659-14.699-12.91-20.144c-2.126-5.138-4.202-16.682-4.935-22.867c-0.655-5.493-0.576-22.434-0.575-22.614V86.179
		c-0.001-0.17-0.08-17.092,0.576-22.584c0.729-6.174,2.801-17.711,4.936-22.868c2.248-5.458,8.774-16.034,12.905-20.137
		c3.917-3.892,14.1-10.35,19.811-12.564c5.36-2.078,16.962-4.245,22.936-4.948C68.034,2.556,79.521,2.5,84.257,2.5
		c1.254,0,2.016,0.004,2.029,0.004h258.437C344.726,2.504,345.487,2.5,346.743,2.5 M26,779h2h375h2v-2V110v-2h-2H28h-2v2v667V779
		 M346.743,0.5c-1.265,0-2.031,0.004-2.031,0.004H86.286c0,0-0.766-0.004-2.029-0.004c-4.713,0-16.344,0.056-20.826,0.591
		c-5.956,0.702-17.836,2.904-23.422,5.069c-5.66,2.194-16.193,8.733-20.498,13.01C15.128,23.525,8.524,34.24,6.167,39.965
		c-2.285,5.52-4.371,17.442-5.073,23.395c-0.678,5.677-0.589,22.829-0.589,22.829V800.79c0,0-0.088,17.17,0.589,22.852
		c0.703,5.928,2.788,17.874,5.073,23.395c2.357,5.702,8.973,16.429,13.345,20.794c4.304,4.276,14.883,10.699,20.498,13.012
		c5.53,2.283,17.466,4.365,23.422,5.067c4.473,0.534,16.065,0.591,20.797,0.591c1.28,0,2.058-0.004,2.058-0.004h258.426
		c0,0,0.779,0.004,2.061,0.004c4.737,0,16.341-0.057,20.796-0.591c5.955-0.702,17.894-2.784,23.446-5.067
		c5.613-2.312,16.171-8.735,20.476-13.012c4.393-4.365,11.009-15.092,13.364-20.794c2.285-5.521,4.352-17.467,5.074-23.395
		c0.678-5.682,0.564-22.852,0.564-22.852V86.189c0,0,0.113-17.152-0.564-22.829c-0.723-5.953-2.789-17.875-5.074-23.395
		c-2.355-5.725-8.972-16.426-13.364-20.794c-4.305-4.275-14.862-10.704-20.476-13.01c-5.553-2.286-17.491-4.368-23.446-5.069
		C363.104,0.556,351.463,0.5,346.743,0.5L346.743,0.5z M28,777V110h375v667H28L28,777z"/>
</g>
<g id="Home_Button">
	<path d="M215.001,794c18.748,0,34,15.254,34,34.004c0,18.745-15.252,33.996-34,33.996s-34-15.251-34-33.996
		C181.001,809.254,196.253,794,215.001,794 M215.001,793c-19.33,0-35,15.672-35,35.004c0,19.324,15.67,34.996,35,34.996
		s35-15.672,35-34.996C250.001,808.672,234.331,793,215.001,793L215.001,793z"/>
</g>
<g id="Earpiece">
	<path d="M245.633,55c1.581,0,2.867,1.346,2.867,3c0,1.654-1.286,3-2.867,3h-61.269c-1.579,0-2.864-1.346-2.864-3
		c0-1.654,1.285-3,2.864-3H245.633 M245.633,54h-61.269c-2.124,0-3.864,1.8-3.864,4c0,2.2,1.74,4,3.864,4h61.269
		c2.124,0,3.867-1.8,3.867-4C249.5,55.8,247.757,54,245.633,54L245.633,54z"/>
</g>
<g id="Camera">
	<path d="M146.5,49.5c4.687,0,8.5,3.812,8.5,8.499c0,4.688-3.813,8.501-8.5,8.501s-8.5-3.813-8.5-8.501
		C138,53.312,141.813,49.5,146.5,49.5 M146.5,48.5c-5.246,0-9.5,4.252-9.5,9.499c0,5.246,4.254,9.501,9.5,9.501s9.5-4.255,9.5-9.501
		C156,52.752,151.746,48.5,146.5,48.5L146.5,48.5z"/>
</g>
</svg>
