<?xml version="1.0" encoding="utf-8"?>
<!-- Copyright © 2014 Brian Speir. All rights reserved.  -->
<!DOCTYPE svg PUBLIC "-//W3C//DTD SVG 1.1//EN" "http://www.w3.org/Graphics/SVG/1.1/DTD/svg11.dtd">
<svg version="1.1" id="iPhone" xmlns="http://www.w3.org/2000/svg" xmlns:xlink="http://www.w3.org/1999/xlink" x="0px" y="0px"
	 width="722px" height="382px" viewBox="0 0 722 382" enable-background="new 0 0 722 382" xml:space="preserve">
<g id="Body">
	<path fill="#FFFFFF" d="M73.099,380C33.619,380,1.5,347.873,1.5,308.383V73.616C1.5,34.127,33.619,2,73.099,2h575.806
		C688.382,2,720.5,34.127,720.5,73.617v234.766c0,39.49-32.118,71.617-71.596,71.617H73.099z M120,352h482V30l-482-0.001V352z"/>
	<path d="M648.904,3c18.774,0,36.479,7.366,49.854,20.741c13.376,13.377,20.742,31.09,20.742,49.876v234.766
		c0,18.777-7.366,36.488-20.742,49.868C685.381,371.631,667.677,379,648.904,379H73.099c-18.773,0-36.479-7.369-49.855-20.749
		C9.867,344.871,2.5,327.16,2.5,308.383V73.616c0-18.786,7.367-36.499,20.743-49.875C36.617,10.366,54.323,3,73.099,3H648.904
		 M119,353h2h480h2v-2V31v-2h-2l-480-0.001h-2v2V351V353 M648.904,1H73.099C33.178,1,0.5,33.665,0.5,73.616v234.767
		C0.5,348.312,33.178,381,73.099,381h575.806c39.919,0,72.596-32.688,72.596-72.617V73.617C721.5,33.665,688.823,1,648.904,1
		L648.904,1z M121,351V30.999L601,31v320H121L121,351z"/>
</g>
<g id="Home_Button">
	<path d="M73.101,157.262c18.602,0,33.735,15.134,33.735,33.736c0,18.602-15.134,33.734-33.735,33.734
		c-18.603,0-33.737-15.133-33.737-33.734C39.363,172.396,54.498,157.262,73.101,157.262 M73.101,156.262
		c-19.186,0-34.737,15.551-34.737,34.736c0,19.184,15.552,34.734,34.737,34.734c19.179,0,34.735-15.551,34.735-34.734
		C107.836,171.812,92.279,156.262,73.101,156.262L73.101,156.262z"/>
</g>
<g id="Earpiece">
	<path d="M648.899,156.949c3.59,0,6.511,2.92,6.511,6.51v55.082c0,3.587-2.921,6.506-6.512,6.506c-3.59,0-6.51-2.919-6.51-6.506
		v-55.082C642.389,159.87,645.31,156.949,648.899,156.949 M648.899,155.949L648.899,155.949c-4.132,0-7.511,3.381-7.511,7.51v55.082
		c0,4.131,3.379,7.506,7.51,7.506h0.001c4.13,0,7.511-3.375,7.511-7.506v-55.082C656.41,159.33,653.029,155.949,648.899,155.949
		L648.899,155.949z"/>
</g>
</svg>
