<!-- Copyright © 2014 Brian Speir. All rights reserved.  -->
<svg version="1.1" id="Layer_1" xmlns="http://www.w3.org/2000/svg" xmlns:xlink="http://www.w3.org/1999/xlink" x="0px" y="0px"
	 width="152px" height="152px" viewBox="0 0 152 152" enable-background="new 0 0 152 152" xml:space="preserve">
<path fill="#1A1A1A" d="M52.815,134.503c-0.651,0,0.243,9.483,0.404,10.424c0.495,2.861,1.752,4.701,4.639,5.435
	c8.622,2.193,17.878,1.79,26.648,1.048c3.398-0.289,8.148,0.008,11.225-1.617c3.051-1.624,3.084-8.106,3.133-11.107
	c0.157-9.468,0.198-18.935,0.281-28.402c0.082-9.146,0.626-18.382-0.1-27.511c-0.709-9.044-3.735-17.192-6.086-25.867
	c-2.351-8.667-3.661-17.384-4.147-26.34c-0.231-4.346-0.619-8.692-0.94-13.038c-0.083-1.084-0.957-3.773,0.132-4.606
	c1.683-1.287-1.212-2.499-2.013-3.109c0.71-0.128,2.499,0.12,2.771-0.82c0.462-1.612,0.033-3.786,0.024-5.451
	C88.763-0.901,82.891,0.089,80,0.105c-2.613,0.013-5.224,0.029-7.834,0.054c-2.008,0.021-5.183-0.585-6.915,0.652
	c-1.806,1.286-1.39,3.719-1.295,5.649c0.103,2.181,0.177,3.15,2.474,3.418c-1.34,0.804-3.348,1.509-1.749,3.241
	c1.373,1.48,0.231,5.583,0.095,7.434c-0.392,5.319-0.202,10.688-0.878,15.974c-1.356,10.605-3.876,21.269-7.566,31.305
	c-3.826,10.398-3.459,21.019-3.509,31.97C52.778,111.363,52.815,122.933,52.815,134.503
	C52.77,134.503,52.815,122.487,52.815,134.503z"/>
</svg>
