<!-- Copyright © 2014 Brian Speir. All rights reserved.  -->
<svg version="1.1" id="Layer_1" xmlns="http://www.w3.org/2000/svg" xmlns:xlink="http://www.w3.org/1999/xlink" x="0px" y="0px"
	 width="152px" height="152px" viewBox="0 0 152 152" enable-background="new 0 0 152 152" xml:space="preserve">
<g>
	<g>
		<path fill="#1A1A1A" d="M85.24,42.59c-0.101,0.16-0.21,0.28-0.32,0.45c-0.34,0.31-0.689,1.08-1.04,1.68
			C84.19,43.85,84.65,43.17,85.24,42.59z"/>
	</g>
	<path fill-rule="evenodd" clip-rule="evenodd" fill="#1A1A1A" d="M45.57,56.55c0.14,0.19,0.28,0.29,0.35,0.13
		C45.8,56.63,45.69,56.58,45.57,56.55z M59.35,57.25c0.13,0.08,0.24,0.12,0.3,0.08C59.58,57.31,59.48,57.28,59.35,57.25z
		 M57.28,54.8c-0.03,0.06-0.05,0.12-0.07,0.19c0.13,0.12,0.25,0.18,0.35,0.2C57.47,55.06,57.37,54.93,57.28,54.8z"/>
	<path fill-rule="evenodd" clip-rule="evenodd" fill="#1A1A1A" d="M64.9,27.03c-0.18,0.1-0.36,0.2-0.55,0.3
		c-0.11-0.08-0.21-0.18-0.28-0.3H64.9z"/>
	<path fill-rule="evenodd" clip-rule="evenodd" fill="#1A1A1A" d="M66.88,12.63c0,0.11,0,0.2-0.02,0.3
		c-0.02-0.02-0.04-0.05-0.06-0.07c-0.12-0.15-0.31-0.33-0.52-0.54C66.64,12.28,66.87,12.36,66.88,12.63z"/>
	<path fill-rule="evenodd" clip-rule="evenodd" fill="#1A1A1A" d="M67.37,39.12c-0.24,0.02-0.43,0.01-0.44-0.07
		c0-0.02,0.03-0.05,0.08-0.08C67.1,39.01,67.22,39.06,67.37,39.12z"/>
	<path fill-rule="evenodd" clip-rule="evenodd" fill="#1A1A1A" d="M134.24,60.74l-0.021-0.01c-1.58-1.37-4.489,0.02-6.239,0.31
		c-2.471,0.4-4.921,1.5-7.391,1.72c0.03,0,0.05-0.01,0.07-0.03c-0.47-0.41-2.47-0.06-3.21-0.36c2.05-1.61,6.319-0.53,8.76-1.21
		c1.57-0.44,2.99-0.87,4.63-0.96c0.561-0.03,3.54-1.96,2.4-2.3c0.21,0.06-1.471,1.51-1.7,1.6c-1.61,0.65-3.53,0.56-4.76-0.8
		c-2.82-3.13-6.471-0.26-9.69,0.33c3.34-1.66,12.9-6.06,11.18-11.15c-0.369,5.33-6.659,5.8-10.149,8.17
		c0.13-0.11,1.04-0.83,1.17-0.92c1.44-1.08,2.55-2.53,3.69-3.89c0.92-1.09,2.689-4.08-0.091-2.83c-1.72,0.77-1.72,0.27-1.34-1.45
		c-0.47-0.23-3.71,3.81-4.53,4.2c-1.949,0.92-3.029,3.48-5.029,4.12c0.62-2.01,2.12-3.78,2.529-6.03c0.021-0.11,0.04-0.23,0.04-0.34
		c0.091,0.02,0.171,0.02,0.24,0.01c0.021-0.11-0.05-0.33-0.17-0.63c0.101-1.27-0.06-2.63-0.49-3.78c-0.13-0.35-2.029-2.7-2.6-1.91
		c-0.87-1.48-1.57-2.63-1.57-2.64c0.5-0.27,2.49,1.02,2.94,1.26c0.75,0.39,1.479,0.79,2.16,1.3c0.199,0.15,1.229,1.24,1.489,1.16
		c0.431-0.08-1.739-3.57-1.92-3.84c-0.97-1.38-2.09-2.7-3.5-3.65c-0.88-0.6-1.8-1.11-2.62-1.78c-0.46-0.37-1.229-1.2-0.09-0.93
		c1.08,0.25,2.11,0.74,3.15,1.12c1.41,0.52,2.95,0.64,4.439,0.78c1.771,0.17,3.551,0.26,5.33,0.38c0.58,0.04,3.96,0.38,4.24-0.44
		c0.101-0.31-2.33-1.4-2.649-1.52c0.76-0.28,2.25,0.41,3.04,0.53c0.46,0.07,3.659,0.77,3.869,0.38c0.311-0.56-3.72-2.76-4.17-2.99
		c-0.97-0.49-1.96-0.99-3-1.3c-1.04-0.3-9.81-1.61-9.81-1.67c3.27,0.29,6.08-1.79,9.2-2.36c1.899-0.35,3.699-0.61,5.529-1.25
		c1.591-0.56,3.431-1.07,4.83-2.04c1.15-0.79-3.04-0.84-3.41-0.84c-1.409,0-3.14-0.26-4.529-0.07c-1.391,0.2-2.771,0.45-4.141,0.68
		c-0.649,0.11-9.22,1.49-9.229,1.45c-0.05-0.55,2.87-1.38,3.22-1.51c2.19-0.8,4.42-1.52,6.641-2.22c1.38-0.43,2.76-0.9,4.149-1.25
		c1.53-0.39,3.16-0.9,4.58-1.6c2.66-1.31-1.4-1.16-2.31-1.36c0.02-0.04,0.989-0.96,0.64-0.95c-0.61,0.02-1.23,0.2-1.82,0.32
		c-1.609,0.33-3.41,1.12-5.01,1.24c-1.41,1.23-4.07,1.45-5.75,2.17c-1.05,0.46-2.21,0.78-3.28,1.22c-0.949-0.26,1.45-0.92,1.71-1.05
		c3.07-1.46,5.511-4.35,7.641-6.93c0.729-0.89,1.54-1.77,2.189-2.72c0.521-0.76,1.04-1.6,1.21-2.51c0.04-0.25-1.739,0.59-1.949,0.72
		c0.109-0.2,0.979-1.78,0.26-1.49c-1.28,0.53-2.44,1.29-3.63,1.98c-2.04,1.16-3.99,2.7-6.08,3.72c0.42-0.84,1.239-1.69,1.88-2.36
		c0.37-0.39,0.77-0.73,1.2-1.05c0.149-0.12,1.399-0.54,1.399-0.54c0.13-0.57-2.6-0.34-2.859-0.29c-1.16,0.19-2.21,0.6-3.271,1.1
		c0.28-1.09,1.3-2.35,1.851-3.35c0.109-0.19,1.729-2.57,1.729-2.58c-0.22-0.55-5.43,3.49-5.93,3.75c0.239-0.73,0.51-1.44,0.779-2.16
		c0.091-0.23,0.7-1.42,0.08-1.24c-1.85,0.48-2.64,2.77-4.26,3.45c0.22-1.27,0.43-2.54,0.46-3.83c0-0.26,0.271-1.49-0.24-1.45
		c-0.529,0.04-0.39-0.12-0.55-0.66c-0.14-0.47-1.89,1.44-2.08,1.61c-1.06,0.94-1.89,2.13-2.689,3.28C100.96,5.29,101.06,0.96,101,1
		c-0.75,0.42-1.23,1.55-1.76,2.2c-0.521,0.65-0.98,1.2-1.37,1.94c-0.44-1.46-0.91-2.87-1.99-3.98c-1.89-1.96-1.47,0.47-2.3,1.83
		c-0.09-0.34-0.62-2.92-0.86-2.98c-1.01-0.24-1.6,3.1-1.66,3.63c-0.13,1.25,0.45,2.69,0.24,3.89c-0.649-1.09-1.17-2.17-1.99-3.17
		c-0.239-0.29-2.27-2.83-2.079-1.53C87.19,2.56,85.57,0.2,85.4,0.2c-1.25,0.03,0.58,8.21,0.949,9.07c0.61,1.39,1.33,2.92,2.46,3.96
		c0.21,0.2,1.79,2.48,0.48,2.06c-1.03-0.34-1.28-1.42-1.79-2.22c-0.84-1.31-1.64-2.64-2.63-3.85c-0.54-0.67-5.78-6.83-6.34-6.49
		c-0.521,0.31,1.34,5.21,1.649,5.81C80.15,8.55,80.15,8.58,80.2,8.62c-0.641-0.33-2.76-3.11-3.25-2.97
		c-1.13,0.33,0.76,3.51,0.33,3.8c-0.23,0.16-2.11-1.07-2.4-1.23c-0.32-0.16-2.68-1.57-2.91-1.37c-0.43,0.36,3.41,4.56,3.65,5.12
		c-1.16-0.56-2.16-1.82-3.36-2.47c-0.42-0.23-4.43-2.27-4.61-1.88c-0.09,0.19,3.89,3.43,4.32,3.93c1.38,1.6,2.35,3.52,3.76,5.11
		c-0.64,0.02-1.95-1.22-2.49-1.56c-0.64-0.43-1.28-0.87-1.94-1.26c-1.82-1.08-4.09-2.48-6.18-2.91c0.1,0.43,0.67,0.95,1.15,1.39
		c-1.32,0.16-4.36,1.97-4.68,1.97c-0.07-0.73,1.48-4.2-0.42-3.58c-0.1,0.03-1,0.5-1.06,0.27c-0.05-0.24,0.17-1.57-0.09-1.72
		c-0.14-0.08-0.39,0.16-0.51,0.18c-0.1-0.53,0.26-1.06,0.34-1.55c0.13-0.8-1.54,0.11-1.71,0.2c-1.55,0.76-2.72,2.35-3.96,3.52
		c0.17-0.91,1.15-4.69,0.1-5.38c-0.4-0.27-1.99,1.14-2.24,1.41c-0.57,0.63-0.51-0.63-0.6-1.05c-0.15-0.69-0.45-2.02-1.27-1.18
		C50,5.59,49.33,6.76,49.04,6.76c-0.37-0.02-1.01-1.93-1.21-2.4c-0.5-1.17-1.01-2.35-1.59-3.48c-0.45-0.87-0.75-1.39-0.9-0.12
		c-0.26,2.33-0.3,4.77-0.3,7.11c-0.5,0.12-1.48-2.54-1.59-2.91c-0.15-0.44-0.77-3.01-1.3-2.02c-1.23,2.29-1.78,4.94-1.78,7.51
		c-0.6-0.19-1.23-2.06-1.6-2.59c-0.78-0.71-1.19-1.69-2.06-2.35c-0.26-0.2-1.37-1.21-1.63-0.65c-0.4,0.88-0.04,2.39-0.19,3.34
		c-0.25-0.51-0.72-1.38-0.93-0.18c-0.16,1-0.01,2.12-0.01,3.13c0,0.77-0.08,1.53,0.01,2.28c0.05,0.43,0.74,2.19,0.55,2.5
		c-0.49-0.41-1.02-0.81-1.42-1.3c-0.22-0.28-0.59-1.26-1.02-1.31c0.13,0.35,0.41,0.7,0.58,1.05c-1.8-0.93-3.55-1.04-5.48-1.46
		c-0.66-0.14-3.69-0.68-1.95,0.41c-0.28,0.12,0.97,0.55,0.73,0.72c-0.09,0.06-0.84-0.01-0.22-0.13c-0.81-0.36-0.2,0.52-0.36,0.69
		c-0.17,0.17-1.92-0.54-2.1-0.17c-0.52,1.04,3.15,4.62,3.98,5.2c-1.27,0-2.54-0.06-3.8,0.08c-0.81,0.08-2.13,0.13-2.87,0.42
		c-1.36,0.54,3.1,3.6,3.04,3.69c-0.3,0.45-2.67,0.65-3.24,0.81c-0.76,0.23-1.55,0.62-2.25,1.01c-1.22,0.67,0.1,1.36,0.92,1.55
		c1.44,0.32,2.89,0.54,4.34,0.88c1.25,0.3,2.64,0.39,3.93,0.33c0.62-0.03-0.39,0.45-0.63,0.48c-0.31,0.03-4.42,0.11-4.38,0
		c1.19,0.9,2.64,1.3,4.01,1.79c-0.77,0.55-6.09,1.43-5.43,3.23c0.29,0.8,1.33,0.63,0.76,1.45c-0.68,0.98,1.27,0.86,1.91,0.98
		c-0.29,0.28-1.43,1.25-0.85,1.73c0.77,0.63,2-0.08,2.76,0.34c-0.52,0.47-1.36,1.14-1.45,1.9c-0.08,0.71,1.23,0.49,1.59,0.49
		c0.81,0,1.6-0.23,2.39-0.39c0.68-0.23,1.44-0.73,2.14-0.76c-0.87,0.78-2.31,1.23-3.38,1.66c-0.54,0.21-4.16,2.69-2.62,2.93
		c1.56,0.24,3.29-0.21,4.74-0.79c0.52-0.2,3.35-1.88,3.65-1.72c-0.7,0.88-0.84,2.18-1.21,3.23c-0.16,0.43,3.2-0.21,3.68-0.4
		c0.84-0.34,0.65,0.14,0.11,0.55c-0.72,0.57-1.46,1.11-2.19,1.67c-0.8,0.63-1.62,1.25-2.37,1.94c-0.27,0.24-1.19,1.14-0.21,1.11
		c2.26-0.06,4.51-2.03,5.59-3.94c-0.11,1.07-1.04,2.09-1.31,3.14c-0.27,1.04-1.05,4.28-0.07,5.13c0.46,0.4,0.35-0.02,0.39,0.8
		c0.04,0.84,0.58,0.62,1.13,0.19c0.43-0.34,0.82-0.72,1.18-1.11c0.04,0.11,0.1,0.24,0.19,0.39c1.71,2.21,1.1,4.11,2.21,5.76
		c-1.48-1.04-3.64-3.7-5.46-3.45c-2.36,0.78-1.79,0.85-0.94,1.72c0.44,0.44,2.06,2.75,1.8,2.52c-0.93-0.82-4.71-0.98-4.51,0.5
		c0.06,0.38,0.51,0.73,1.18,1.36c1.67,1.59,2.26,1.82,5.63,3.15c0,0.03,0.61,0.73-0.3,0.32c-3.87-1.77-6.57-3.7-10.25-2.22
		c-0.59,0.23,1.25,0.09,3.23,1.9c1.53,1.4,2.99,1.91,3.85,2.26c-1.05-0.18-2.77-0.44-4.56-0.17c-1.84,0.28-7.25,1.87-7.19,3.22
		c0.04,0.98,2.36-0.03,4.86,0.48c1.31,0.26,4.88-0.08,6.22,0.6c-6.24,0.74-13.17,6.18-12.27,8.67c0.1,0.27,2.91-3.25,7.62-4.6
		c-1.21,0.81-4.52,4.73-4.86,6.78c0.03,0.44,0.43-2.33,5.01-2.18c1.07,0.63-3.89-0.74-4.86,5.37c1.73-2.13,2.88-2.08,5.22-3.851
		c0.97-0.739,5.21-3.51,6-3.319c-1.13,0.81-2.3,1.89-2.99,2.76c-0.71,0.76-1.25,1.91-1.52,2.69c-0.33,2.1-5.29,5.369-3.85,9.01
		c0.69-1.24,3.07-2.8,3.93-3.311c0.4,2.4-0.73,4.83,0,6.86c1.62-2.91,5.95-6.79,7.68-7.56c0.16-0.07-2.87,3.529,0.04,10.85
		c0.51-0.94,5.22-8.48,5.55-10.08c1.34-1.19,2.23-2.65,2.73-3.41c-1.99,6.44,2.8,14.45,4.58,16.38c-1.29,3.471-2.26,6.74-2.29,8.83
		C48.74,122.75,64.82,152,64.82,152h22.36c0,0,16.08-29.25,15.891-39.74c-0.11-6.5-9.19-24.34-9.19-24.34h-5.04
		c0.59-1.27,1.2-2.5,1.82-3.67c1.16,1.17,2.07,2.19,2.1,2.55c0.16-0.81-0.87-2.42-1.59-3.49c0.17-0.319,0.34-0.63,0.521-0.939
		c0.97,0.81,2.069,1.52,3.449,2.03c3.681,1.359-0.81-3.29-1.67-4.98c0.061-0.1,0.13-0.2,0.2-0.3c1.16,0.24,4.59,1.43,4.74,1.81
		c0.74,0.09,2.29,2.141,2.67,1.98c0,0,0.01,0,0.01-0.01c0.04,0.84,0.03,1.67-0.13,2.51c-0.43,2.31-1.21,4.479-1.34,6.859
		c-0.021,0.58,3.09-0.71,3.6-1.06c0.021,0.69,0.7,6.28,1.3,6.36c1.62,0.22,1.19-6.7,2.011-6.96c0.979-0.32-0.59,7.63-0.61,7.609
		c1.44,1.24,2.73-9.76,2.94-10.05c2.29,2.16,3.13,3.49,1.569,6.561c1.12-0.131,1.67-2.221,1.96-3.051
		c1.21,1.061,1.48,1.351,1.681,2.94c0.39-0.43,1.39-1.351,1.609-1.811c0.2,0.851,0.391,1.71,0.59,2.561
		c0.841-1.16,0.721-2.59,0.82-3.95c0.42,0.57,1.47,2.62,2.141,2.8c1.02,0.28,0.949-5.479,0.649-6.2
		c1.44,0.421,3.38,1.471,1.67-0.659c1.3,0.85,2.04,2.18,2.561,3.6c0.229-0.59-0.41-3.72-0.17-3.89c0.369-0.25,0.96,0.71,1.479,0.08
		c0.8-0.971-0.11-2.471-0.68-3.28c-0.87-1.23-4.88-3.45-4.811-4.83c0.511,0,1.41,0.91,1.88,1.15c1.101,0.56,2.25,0.88,3.471,1.029
		c0.68,0.08,5.359,1.851,5.3,0.05c-0.04-1.329-7.78-7.899-6.93-8.819c0.729-0.79,3.72,2.42,3.909,2.37c0.721-0.19-1.02-3-1.109-3.37
		c-0.4-1.72,0.06-0.69,1.42-0.71c-0.26-0.37-2.84-2.74-2.63-3.16c0.359-0.7,6.479-0.04,5.819-2.49c-1.8,0.89-6.8,1.51-8.359,0.03
		c2.649-0.53,5.16-1.09,7.52-2.48C130.63,62.17,135.18,61.57,134.24,60.74z M112.4,44.06c-0.11-0.2-0.23-0.39-0.341-0.59
		C112.26,43.63,112.44,43.81,112.4,44.06z M43.04,52.31c-0.28,0.92-0.38,1.82-0.44,2.75c-0.91-0.55-1.81,0.29-3.42-0.92
		c-0.42-0.31-0.98-0.6-1.4-0.7c0.63-0.73,1.22-1.5,1.9-2.23c0.07,0.6,0.61,3.67,1.46,3.14c0.61-0.38,0.76-1.64,0.98-2.27
		c0.31-0.89,0.91-1.49,1.52-2.18C43.59,50.73,43.28,51.53,43.04,52.31z M44.68,56.24c0.21-0.33,0.36-0.56,0.4-0.51
		c0.05,0.05,0.27,0.52,0.48,0.81C45.26,56.44,44.96,56.34,44.68,56.24z M45.92,56.68c-0.07,0.16-0.21,0.06-0.35-0.13
		C45.69,56.58,45.8,56.63,45.92,56.68c0-0.01,0.01-0.04,0.02-0.06c0.05-0.14,1.01-1.56,1.09-1.56c0.22,0,0.4,1.58,0.65,2.54
		C47.13,57.18,46.52,56.9,45.92,56.68z M48.78,58.8c-0.17-0.26-0.35-0.49-0.54-0.69c1.19-1.57,1.54-3.63,1.88-5.5
		c0.02,0.02,0.05,0.04,0.08,0.07c-0.91,4.04-0.04,8.22,0.15,11.01C50.15,63.49,49.41,59.8,48.78,58.8z M50.79,64.71
		C50.68,64.57,50.83,64.61,50.79,64.71L50.79,64.71z M77.64,33.89c2.021,0.28,3.42-0.07,5.25-0.84c0.16-0.07,2.41-0.95,1.86-0.04
		c-0.99,1.61-3.57,1.99-5.21,2.42c-2.05,0.52-4.1,0.99-6.17,1.42c-0.28,0.08-1.67,0.49-3.09,0.94l-0.45-0.88
		c0.03-0.14-0.32-0.37-0.17-0.51c0.41-0.42,2.77,0.31,3.4,0.24c-0.35-0.13-0.62-0.43-1-0.49c0.06-0.16,1.25,0.24,1.46,0.29
		c-0.62-0.94-1.23-1.88-1.79-2.88c-0.27-0.48-1.76-1.24-2.83-1.87c0.85,0.17,1.69,0.43,2.54,0.67
		C73.48,32.95,75.52,33.6,77.64,33.89z M71.56,47.13c-0.22-0.39-3.76-5.63-4.53-4.78c-0.03,0.04,0.1,0.38,0.3,0.89
		c-0.66-0.98-3.09-4.22-3.21-4.22c0.05-0.09,0.53,0.07,0.62,0.07c-0.13-0.37-0.65-0.28-0.78-0.58c0.3,0.1,0.61,0.2,0.92,0.29
		c-0.01-0.01-2.16-1.92-1.75-1.88c0.31,0.03,0.6,0.51,0.87,0.66c0.92,0.5,1.88,0.92,2.84,1.32c0.03,0.01,0.09,0.04,0.17,0.07
		c0.09,0.04,0.21,0.09,0.36,0.15h0.01c1.22,0.48,4.06,1.55,4.16,1.14c0.03-0.12-0.28-0.18-0.34-0.21c0.09,0.01,0.16-0.01,0.24-0.05
		c0-0.09-0.05-0.16-0.13-0.2l-0.05-0.1c0.41,0.23,0.91,0.54,1.15,0.59c0.03,0.01,0.05,0.01,0.08,0.01v0.01
		c-0.3,2.98-0.4,5.86,0.32,8.88c-1.3-0.36-0.63-4.22-1.88-4.92C70.93,44.74,72.08,46.7,71.56,47.13z M69.11,48.09
		c-0.82-1.21-1.7-2.41-2.65-3.54c0.3,0.22,0.59,0.42,0.9,0.6c0.41,0.14,0.65,0.16,0.78,0.09C68.64,46.48,69.11,47.72,69.11,48.09z
		 M64.07,27.03h0.83c0.66-0.36,1.26-0.74,1.75-1.09c0.55-0.38,1.08-0.78,1.59-1.19c0.63,0.43,1.27,0.81,1.96,1.14
		c0.4,0.19,1.45,0.38,1.7,0.71c-0.3,0.2-1.17,0.1-1.51,0.13c-0.86,0.08-1.71,0.17-2.56,0.24c-0.97,0.07-1.97,0.07-2.93,0.06
		c-0.18,0.1-0.36,0.2-0.55,0.3c0.6,0.5,1.71,0.7,2.33,1.02c0.18,0.09,1.09,0.58,1.79,1.03c-0.91,0.09-1.82,0.08-2.57-0.04
		c0.57-0.12,1.14-0.23,1.71-0.36c-0.44,0.06-3.27-0.06-3.58-0.1c-1.38-0.16-2.75-0.14-4.14-0.2c1.38-0.01,3.02-0.61,4.46-1.35
		C64.24,27.25,64.14,27.15,64.07,27.03z M70.48,22.67c0.1-0.1,0.19-0.19,0.28-0.29c0.3,0.14,0.58,0.3,0.86,0.46
		C71.24,22.81,70.86,22.75,70.48,22.67z M69.34,30.11c0,0.01-0.56,0.12-1.24,0.27c0.27-0.16,0.69-0.3,1.12-0.46
		C69.3,30,69.35,30.07,69.34,30.11z M66.88,12.63c0,0.11,0,0.2-0.02,0.3c-0.02-0.02-0.04-0.05-0.06-0.07
		c-0.12-0.15-0.31-0.33-0.52-0.54C66.64,12.28,66.87,12.36,66.88,12.63z M65.61,15.49c0.49-0.79,1.17-1.58,1.25-2.55
		c0.69,0.84,1.39,1.68,2.16,2.46c1.58,1.63,3.07,3.27,4.89,4.64c-0.62,0.27-2.84-0.58-3.57-0.7c-1.38-0.23-2.76-0.43-4.16-0.46
		c0.38-0.46,0.73-0.98,1.05-1.62c-0.15-0.51-2.59,1.16-2.88,1C64.81,17.36,65.07,16.35,65.61,15.49z M64.57,20.27
		c0.72,0.17,1.32,0.31,1.49,0.36c0.65,0.19,1.32,0.39,2,0.63c-0.36,0.08-0.72,0.16-1.07,0.25c-0.92-0.37-1.84-0.74-2.76-1.02
		C64.35,20.43,64.46,20.36,64.57,20.27z M54.78,61.79c-0.37,0.34-0.51,0.67-0.51,0.98v0.01c-0.22,0.48-0.46,1.08-0.72,1.87
		c0,0-0.48-0.04-1.1,0.09c1.6-2.8,2.05-5.48,2.12-7.42c0.36,0.64,0.94,1.2,1.62,1.69v0.01c-0.1,0.42-0.19,0.79-0.3,1.11
		c-0.23,0.67-0.58,0.91-1.05,1.61C54.82,61.75,54.8,61.77,54.78,61.79z M54,96.68c-0.53,1.181-1.05,2.4-1.55,3.641
		c-0.01-1.061-0.19-2.061-0.72-2.521c0.28-1.85,0.13-1,0.13-2.859c0.52,0.35,1.4,1.149,2.14,1.729V96.68z M55.03,94.38
		c-0.41-2.86-1.08-6.83-1.16-7.59c0.57,0.92,1.73,2.22,3.15,3.37C56.48,91.27,55.78,92.72,55.03,94.38z M56.21,65.62
		c0.2-0.19,0.39-0.38,0.57-0.56c0.1,0.04,0.2,0.08,0.31,0.12C56.76,65.47,56.46,65.64,56.21,65.62z M57.21,54.99
		c-0.19,0.53-0.35,1.08-0.48,1.62c-0.88-0.18-1.71-0.31-2.16-0.27c-0.03-1.14-0.17-1.88-0.18-2.02c-0.06-0.34-0.11-0.68-0.16-1.01
		c0,0,0,0,0-0.01c0.04-1.06-0.11-2.17-0.26-3.08c1.13,1.48,1.81,3.16,3.05,4.58C57.09,54.87,57.15,54.94,57.21,54.99
		c0.02-0.07,0.04-0.13,0.07-0.19c0.09,0.13,0.19,0.26,0.28,0.39C57.46,55.17,57.34,55.11,57.21,54.99z M57.49,24.2
		c0.07,0,2.79-1.58,3-1.71c0.75-0.47,1.54-0.85,2.34-1.24c0.36-0.18,0.71-0.35,1.03-0.54c0.46,0.38,0.89,0.78,1.32,1.2
		c-0.83,0.16-1.66,0.32-2.5,0.48c-0.84,0.16-1.72,0.65-2.5,0.99C59.75,23.57,58,24.53,57.49,24.2z M58.3,51.99
		c0.1,0.04,0.24,0.17,0.39,0.31c-0.04,0.04-0.07,0.08-0.1,0.12c-0.07,0.09-0.14,0.18-0.21,0.27c-0.02,0.03-0.04,0.06-0.06,0.09
		v-0.12C58.32,52.36,58.31,52.12,58.3,51.99z M58.24,66.91c-0.31,0.14-0.34-0.06-0.27-0.27c0.47-0.22,0.82-0.47,1.12-0.71
		c0.16,0.06,0.32,0.13,0.47,0.19C59.13,66.43,58.69,66.7,58.24,66.91z M59.35,57.25c0.13,0.03,0.23,0.06,0.3,0.08
		C59.59,57.37,59.48,57.33,59.35,57.25z M59.55,61.67c0.11-0.18,0.21-0.37,0.31-0.56c0.22,0.12,0.43,0.23,0.62,0.34
		C60.32,61.65,59.99,61.7,59.55,61.67z M61.23,50.8c-0.05-0.2-0.12-0.39-0.21-0.59c-0.17-0.4-0.52-0.18-0.93,0.26
		c-0.13-0.04-0.27-0.07-0.4-0.11c0.04-0.85,0.01-1.7-0.16-2.54c-0.05-0.23-0.62-2.14-0.51-2.23c0.84,0.81,1.91,1.53,3.05,1.95
		c0,0,0,0,0,0.01c0.74,1.87,2.09,3.42,3.13,5.27c-0.13,0-2.73-1.47-2.79-1.53c0.06-0.03-0.46-0.25-1.17-0.48
		C61.24,50.81,61.24,50.8,61.23,50.8z M61.66,53.14c0.46,0.29,0.84,0.53,1,0.68c0.2,0.19,0.41,0.37,0.62,0.56
		c-0.15,0.18-0.32,0.37-0.58,0.53c-0.01,0-0.01,0-0.01,0c-0.45-0.2-0.86-0.37-1.08-0.47C61.65,54.06,61.68,53.62,61.66,53.14z
		 M66.4,87.92c-1.14-2.55-3.35-5.37-3.73-5.7c1.24,0.471,2.42,0.87,3.59,1.24c-0.51,0.94-0.31,1.4,1.63,0.68
		c0.05-0.02,0.11-0.05,0.2-0.1c0.91,0.28,1.83,0.56,2.8,0.87c0.35,0.12,1.07,0.52,1.94,0.939c0.13,0.69,0.3,1.271,0.49,1.181
		c0.34-0.15,0.61-0.36,0.85-0.61c0.17,0.061,0.34,0.12,0.51,0.17c0.04,0.44,0.07,0.88,0.1,1.33H66.4z M74.54,40.48
		c0.32,0,0.64-0.03,0.95-0.08c-0.08,0.14-0.33,0.4-0.64,0.71C74.76,40.9,74.65,40.69,74.54,40.48z M76.13,42.77
		c-0.43,0.27,0.16,1.66-0.26,1.8c-0.09-0.55-0.24-1.22-0.45-1.92c0.3-0.09,0.61-0.19,0.93-0.29C76.47,43.41,76.67,44.72,76.13,42.77
		z M78.13,41.8c1.08-0.35,2.11-0.7,2.851-0.95c-0.79,1.45-1.32,3.22-1.74,4.25C79.24,45.08,78.7,43.4,78.13,41.8z M79.71,87.92
		c0.05-1.67,0.12-3.3,0.18-4.91V83c0.021-0.03,0.04-0.05,0.061-0.07c1.17,1.62,1.12,3.73,2.6,4.99H79.71z M83.32,39.94
		c0.83-0.37,1.63-0.81,2.34-1.34c0.439-0.33,1.78-1.55,2.37-1.35l-0.011,0.02c-1.77,1.09-3.52,2.5-4.609,4.21
		C83.38,40.93,83.35,40.4,83.32,39.94z M85.09,86.38c-0.24,0.51-0.479,1.021-0.71,1.54h-0.24c0.2-1.32-0.229-4.14,0.08-4.21
		c-0.04,0.01,0.28,1.37,0.87,2.66V86.38z M84.92,43.04c-0.34,0.31-0.689,1.08-1.04,1.68c0.311-0.87,0.771-1.55,1.36-2.13
		C85.14,42.75,85.03,42.87,84.92,43.04z M86.62,83.22c-0.5-1.91-1.01-3.649-0.92-3.88c0.24,0.32,0.99,1.061,1.93,1.96
		C87.29,81.93,86.95,82.57,86.62,83.22z M88.58,79.6c-0.54-0.739-1.11-1.479-1.67-2.189c0.649,0.63,1.24,1.28,1.82,1.93
		C88.68,79.42,88.63,79.51,88.58,79.6z M92.38,46.37c-0.67,0.48-4.95,4.78-5.35,4.67c-0.24-0.5,1.66-4.15,1.819-4.91
		c0.091-0.4,0.141-0.77,0.16-1.15v-0.01c0.7-1.01,1.53-1.92,2.221-2.94c0.55-0.8,1.119-1.56,1.699-2.32
		c0.141-0.19,1.431-1.63,1.431-1.64c0.189,0.99-0.94,2.17-0.95,3.24c-0.01,1.22,0.32,2.53,0.78,3.71
		C93.45,45.49,92.73,46.1,92.38,46.37z M94.22,56.58c0.04-0.04,0.101-0.11,0.19-0.18c0.07,0.06,0.14,0.13,0.21,0.2
		C94.37,56.65,94.21,56.65,94.22,56.58z M100.32,64.94c-0.851-0.06-1.431-0.14-1.471-0.29c0.131,0,0.471-0.07,0.94-0.17
		C100.08,64.64,100.25,64.8,100.32,64.94z M99.57,51.29c0.109,0.25,0.22,0.52,0.3,0.79c-0.09,0.53-0.28,0.88-0.68,0.87
		c-0.471-0.01-0.841,0.01-1.11,0.05C98.64,52.43,99.17,51.84,99.57,51.29z M97.31,49.68c0.091,0.12,0.171,0.25,0.24,0.39
		c-0.149,0.05-0.25,0.06-0.3,0C97.19,49.99,97.22,49.86,97.31,49.68z M97.47,53.62c0.2,0.35,0.83,0.79,1.49,1.21
		c-0.25,0.17-0.5,0.35-0.74,0.5c-0.68-0.24-1.26-0.44-1.42-0.46c-0.2-0.03-0.41-0.04-0.64-0.04C96.58,54.45,97.02,54.04,97.47,53.62
		z M95.08,47.79c-0.05-0.05,0.05-0.3,0.21-0.64c0.1,0.16,0.22,0.31,0.34,0.46C95.36,47.79,95.16,47.87,95.08,47.79z M100.84,78.63
		c-0.05,1.17,0.101,2.351,0.2,3.521c-0.75-1.41-3.71-4.391-5.29-5.91c0.22-0.27,0.44-0.54,0.66-0.79c0.479,0.11,1,0.27,1.5,0.44
		c0.149,0.79,0.399,1.45,0.8,1.54c0.3,0.07,0.74-0.34,1.17-0.87c0.2,0.06,0.38,0.11,0.53,0.15c0.39,0.09,0.729,0.16,1.01,0.2
		C101.16,77.55,100.86,78.18,100.84,78.63z M101.2,74.83c0.17-0.19,0.28-0.3,0.33-0.25c0.22,0.23,0.31,0.52,0.3,0.84
		C101.63,75.23,101.42,75.03,101.2,74.83z M105.19,53.16c-0.78-0.54-1.301-3.91-1.49-4.84c-0.09,1.36,0.51,2.67,0.37,4
		c-0.471-0.57-1.25-1.17-1.94-1.8c0-1.09-0.01-1.97-0.03-2.17c-0.119-1.7-0.56-3.54-0.479-5.22c1.5,1.83,3.49,2.83,5.26,4.35
		c0.22,0.19,0.45,0.42,0.67,0.61C106.53,50.33,105.62,52.71,105.19,53.16z M107.26,43.82c0.61,0.43,1.21,0.89,1.8,1.35
		c-0.329,0.52-0.67,1.16-1.01,1.85C107.79,45.95,107.53,44.88,107.26,43.82z M110.6,48.79c-0.35,1.28-0.79,2.54-2.08,3.13
		c-0.199-1,0.141-3.38,0.45-4.32c0.21-0.65,0.45-1.3,0.761-1.9c0.329,0.26,0.67,0.52,1,0.78c0.14,0.1,0.27,0.21,0.409,0.31
		C111.14,47.38,110.69,48.43,110.6,48.79z"/>
	<path fill-rule="evenodd" clip-rule="evenodd" fill="#1A1A1A" d="M45.92,56.68c-0.07,0.16-0.21,0.06-0.35-0.13
		C45.69,56.58,45.8,56.63,45.92,56.68z"/>
	<path fill-rule="evenodd" clip-rule="evenodd" fill="#1A1A1A" d="M57.56,55.19c-0.1-0.02-0.22-0.08-0.35-0.2
		c0.02-0.07,0.04-0.13,0.07-0.19C57.37,54.93,57.47,55.06,57.56,55.19z"/>
	<path fill-rule="evenodd" clip-rule="evenodd" fill="#1A1A1A" d="M64.9,27.03c-0.18,0.1-0.36,0.2-0.55,0.3
		c-0.11-0.08-0.21-0.18-0.28-0.3H64.9z"/>
	<path fill-rule="evenodd" clip-rule="evenodd" fill="#1A1A1A" d="M66.88,12.63c0,0.11,0,0.2-0.02,0.3
		c-0.02-0.02-0.04-0.05-0.06-0.07c-0.12-0.15-0.31-0.33-0.52-0.54C66.64,12.28,66.87,12.36,66.88,12.63z"/>
	<path fill-rule="evenodd" clip-rule="evenodd" fill="#1A1A1A" d="M58.38,52.69c-0.02,0.03-0.04,0.06-0.06,0.09v-0.12
		C58.34,52.67,58.36,52.68,58.38,52.69z"/>
</g>
</svg>
