<?xml version="1.0" encoding="utf-8"?>
<!-- Generator: Adobe Illustrator 16.0.5, SVG Export Plug-In . SVG Version: 6.00 Build 0)  -->
<!DOCTYPE svg PUBLIC "-//W3C//DTD SVG 1.1//EN" "http://www.w3.org/Graphics/SVG/1.1/DTD/svg11.dtd">
<svg version="1.1" id="Layer_1" xmlns="http://www.w3.org/2000/svg" xmlns:xlink="http://www.w3.org/1999/xlink" x="0px" y="0px"
	 width="997px" height="1000px" viewBox="0 0 997 1000" enable-background="new 0 0 997 1000" xml:space="preserve">
<g>
	<path fill="#111111" d="M500,833c-183.713,0-298.361-168.283-298.361-264.844c0-18.515,15.01-33.518,33.524-33.518
		c132.413,0,397.254,0,529.67,0c18.519,0,33.528,15.003,33.528,33.518C798.361,664.717,683.695,833,500,833z"/>
	<g>
		<path fill="#111111" d="M652.184,381.775c-7.636,0-15.09,0.752-22.296,2.185c-33.213-33.25-79.172-53.804-129.866-53.804
			c-71.604,0-133.654,40.968-163.957,100.752c-42.878,14.441-78.675,44.285-100.817,82.951h40.159
			c4.035-5.27,8.42-10.289,13.166-15.018c13.797-13.809,29.87-24.646,47.741-32.201c18.503-7.812,38.165-11.788,58.458-11.788
			c20.279,0,39.952,3.976,58.451,11.788c15.997,6.763,30.539,16.156,43.328,27.948c-4.498,5.995-8.389,12.444-11.645,19.271h39.107
			c2.09-2.784,4.457-5.434,6.986-7.955c11.999-12.002,27.17-19.749,43.568-22.471c3.902,9.54,5.919,19.814,5.919,30.426h33.514
			c0-62.957-51.001-113.982-113.957-113.982c-26.761,0-51.381,9.226-70.827,24.678c-11.158-2.127-22.676-3.227-34.438-3.227
			c-4.52,0-8.981,0.164-13.439,0.479c3.852-4.951,8.006-9.668,12.504-14.147c13.805-13.808,29.871-24.634,47.742-32.202
			c18.499-7.812,38.172-11.783,58.451-11.783c20.278,0,39.943,3.972,58.454,11.783c17.89,7.568,33.915,18.395,47.749,32.202
			c13.819,13.797,24.642,29.87,32.22,47.741c7.812,18.5,11.759,38.165,11.759,58.459h41.646c2.551-5.518,3.932-11.652,3.932-18.109
			c0-15.58-8.192-29.245-20.454-36.951c-4.838-15.452-11.686-30.039-20.214-43.448c20.418,0.712,39.47,8.988,54.005,23.505
			c15.186,15.197,23.545,35.402,23.545,56.895c0,6.172-0.694,12.234-2.031,18.109h34.142c0.95-5.897,1.403-11.952,1.403-18.109
			C766.178,432.809,715.147,381.775,652.184,381.775z M500,433.4c20.045,0,38.979,7.29,53.756,20.594
			c-12.146,3.807-23.421,9.584-33.433,16.965c-14.166-13.268-30.427-24.312-48.235-32.596C480.895,435.092,490.317,433.4,500,433.4z
			"/>
		<path fill="#111111" d="M394.735,491.059c-25.661,0-49.353,8.478-68.397,22.801h136.776
			C444.077,499.536,420.386,491.059,394.735,491.059z"/>
	</g>
	<polygon fill="#111111" points="277.271,331.742 311.964,323.66 297.271,356.113 315.658,386.609 280.263,382.656 256.934,409.588 
		249.757,374.693 216.956,360.827 247.9,343.219 250.951,307.736 	"/>
	<polygon fill="#111111" points="368.273,187.271 401.564,174.641 391.338,208.764 413.645,236.533 378.029,237.341 
		358.515,267.131 346.738,233.526 312.373,224.172 340.698,202.582 338.984,167 	"/>
	<polygon fill="#111111" points="478.808,238.39 488.213,204.028 509.764,232.387 545.337,230.713 525.029,259.969 537.62,293.293 
		503.508,283.011 475.709,305.289 474.945,269.67 445.178,250.107 	"/>
</g>
</svg>
