<?xml version="1.0" encoding="utf-8"?>
<!-- Generator: Adobe Illustrator 16.0.5, SVG Export Plug-In . SVG Version: 6.00 Build 0)  -->
<!DOCTYPE svg PUBLIC "-//W3C//DTD SVG 1.1//EN" "http://www.w3.org/Graphics/SVG/1.1/DTD/svg11.dtd">
<svg version="1.1" id="Layer_1" xmlns="http://www.w3.org/2000/svg" xmlns:xlink="http://www.w3.org/1999/xlink" x="0px" y="0px"
	 width="1000px" height="1000px" viewBox="-1 1000.5 1000 1000" enable-background="new -1 1000.5 1000 1000" xml:space="preserve">
<g>
	<path fill="#FFFFFF" d="M499,2000.5c-275.845,0-447.989-252.678-447.989-397.663c0-27.802,22.537-50.328,50.336-50.328
		c198.818,0,596.478,0,795.301,0c27.806,0,50.343,22.526,50.343,50.328C946.99,1747.822,774.818,2000.5,499,2000.5z"/>
	<g>
		<path fill="#FFFFFF" d="M727.504,1322.985c-11.465,0-22.657,1.129-33.478,3.28c-49.869-49.925-118.877-80.786-194.994-80.786
			c-107.513,0-200.681,61.513-246.18,151.279c-64.382,21.682-118.131,66.494-151.377,124.551h60.299
			c6.058-7.913,12.643-15.448,19.769-22.55c20.716-20.734,44.85-37.006,71.683-48.351c27.782-11.729,57.304-17.699,87.773-17.699
			c30.449,0,59.988,5.971,87.765,17.699c24.02,10.156,45.854,24.259,65.057,41.965c-6.754,9.001-12.596,18.685-17.484,28.936h58.718
			c3.14-4.181,6.692-8.16,10.49-11.944c18.017-18.021,40.796-29.653,65.418-33.741c5.857,14.324,8.888,29.751,8.888,45.686h50.32
			c0-94.53-76.578-171.145-171.106-171.145c-40.182,0-77.148,13.854-106.347,37.054c-16.754-3.193-34.048-4.845-51.708-4.845
			c-6.788,0-13.486,0.246-20.179,0.719c5.785-7.433,12.021-14.517,18.774-21.241c20.729-20.733,44.852-36.989,71.685-48.352
			c27.776-11.729,57.315-17.692,87.764-17.692c30.448,0,59.974,5.964,87.77,17.692c26.861,11.362,50.923,27.621,71.695,48.352
			c20.748,20.716,36.999,44.85,48.378,71.684c11.73,27.777,17.655,57.305,17.655,87.776h62.532
			c3.83-8.286,5.903-17.496,5.903-27.191c0-23.394-12.301-43.911-30.712-55.482c-7.264-23.201-17.545-45.104-30.351-65.237
			c30.657,1.07,59.264,13.496,81.088,35.294c22.803,22.817,35.354,53.155,35.354,85.427c0,9.268-1.041,18.37-3.05,27.191h51.265
			c1.427-8.854,2.107-17.946,2.107-27.191C898.666,1399.612,822.043,1322.985,727.504,1322.985z M499,1400.501
			c30.098,0,58.526,10.945,80.715,30.921c-18.237,5.716-35.167,14.391-50.199,25.473c-21.271-19.921-45.686-36.505-72.426-48.942
			C470.313,1403.04,484.461,1400.501,499,1400.501z"/>
		<path fill="#FFFFFF" d="M340.945,1487.074c-38.53,0-74.104,12.73-102.699,34.237h205.37
			C415.032,1499.804,379.459,1487.074,340.945,1487.074z"/>
	</g>
	<polygon fill="#FFFFFF" points="164.572,1247.86 216.663,1235.726 194.602,1284.454 222.21,1330.244 169.064,1324.309 
		134.036,1364.746 123.259,1312.352 74.009,1291.531 120.471,1265.093 125.053,1211.815 	"/>
	<polygon fill="#FFFFFF" points="301.212,1030.938 351.199,1011.973 335.844,1063.208 369.337,1104.904 315.861,1106.117 
		286.56,1150.847 268.877,1100.388 217.278,1086.344 259.808,1053.927 257.235,1000.5 	"/>
	<polygon fill="#FFFFFF" points="467.18,1107.693 481.302,1056.097 513.66,1098.678 567.073,1096.165 536.581,1140.093 
		555.486,1190.129 504.267,1174.69 462.527,1208.142 461.38,1154.659 416.684,1125.286 	"/>
</g>
</svg>
