<?xml version="1.0" encoding="utf-8"?>
<!-- Copyright (C) 2014 Brian Speir. All rights reserved. -->
<!DOCTYPE svg PUBLIC "-//W3C//DTD SVG 1.1//EN" "http://www.w3.org/Graphics/SVG/1.1/DTD/svg11.dtd">
<svg version="1.1" id="Layer_1" xmlns="http://www.w3.org/2000/svg" xmlns:xlink="http://www.w3.org/1999/xlink" x="0px" y="0px"
	 width="96px" height="64px" viewBox="0 0 96 64" enable-background="new 0 0 96 64" xml:space="preserve">
<path fill="#929292" d="M47.999,11c5.61,0,10.884,2.186,14.852,6.15c3.965,3.967,6.148,9.24,6.148,14.85
	c0,5.611-2.184,10.885-6.148,14.852C58.883,50.816,53.609,53,47.999,53c-5.609,0-10.883-2.184-14.849-6.148
	C29.184,42.885,27,37.611,27,32c0-5.609,2.185-10.883,6.15-14.85C37.116,13.186,42.39,11,47.999,11 M47.999,9
	c-5.887,0-11.773,2.246-16.263,6.736c-8.981,8.982-8.981,23.549,0,32.529C36.226,52.756,42.112,55,47.999,55
	c5.888,0,11.773-2.244,16.266-6.734c8.98-8.98,8.98-23.547,0-32.529C59.772,11.246,53.887,9,47.999,9L47.999,9z"/>
<g>
	<path fill="#929292" d="M53.207,37.205c-2.875,2.873-7.533,2.873-10.413,0c-2.872-2.877-2.872-7.533,0-10.408
		c2.88-2.875,7.538-2.875,10.413,0C56.078,29.672,56.078,34.328,53.207,37.205z"/>
</g>
<path fill="#929292" d="M47.999,18.361c3.646,0,7.069,1.418,9.645,3.994c2.577,2.576,3.995,6.002,3.995,9.645
	c0,3.645-1.418,7.07-3.995,9.646c-2.575,2.576-5.999,3.994-9.645,3.994c-3.644,0-7.068-1.418-9.644-3.994
	C35.779,39.07,34.36,35.645,34.36,32c0-3.643,1.419-7.068,3.996-9.645C40.931,19.779,44.355,18.361,47.999,18.361 M47.999,16.361
	c-4.003,0-8.005,1.525-11.058,4.58c-6.109,6.107-6.109,16.012,0,22.119c3.052,3.053,7.055,4.58,11.058,4.58
	c4.005,0,8.007-1.527,11.059-4.58c6.108-6.107,6.108-16.012,0-22.119C56.006,17.887,52.004,16.361,47.999,16.361L47.999,16.361z"/>
</svg>
