<?xml version="1.0" encoding="utf-8"?>
<!-- Generator: Adobe Illustrator 16.0.5, SVG Export Plug-In . SVG Version: 6.00 Build 0)  -->
<!DOCTYPE svg PUBLIC "-//W3C//DTD SVG 1.1//EN" "http://www.w3.org/Graphics/SVG/1.1/DTD/svg11.dtd">
<svg version="1.1" id="container" xmlns="http://www.w3.org/2000/svg" xmlns:xlink="http://www.w3.org/1999/xlink" x="0px" y="0px"
	 width="1000px" height="1000px" viewBox="0 0 1000 1000" enable-background="new 0 0 1000 1000" xml:space="preserve">
<path id="mark" d="M806.641,455.078c0,169.346-137.295,306.641-306.641,306.641c-9.668,0-19.229-0.449-28.662-1.328L284.18,810.547
	l29.902-111.602c-73.379-56.025-120.723-144.424-120.723-243.867h0.342c0-33.105,26.836-60.547,59.951-60.547
	s59.951,27.441,59.951,60.547h0.342c0,102.754,83.301,186.055,186.055,186.055c102.744,0,186.055-83.301,186.055-186.055h0.352
	c0-33.105,26.836-60.547,59.951-60.547c33.105,0,59.941,27.441,59.941,60.547H806.641z"/>
</svg>
