<?xml version="1.0" encoding="utf-8"?>
<!-- Copyright (C) 2014 Brian Speir. All rights reserved. -->
<!DOCTYPE svg PUBLIC "-//W3C//DTD SVG 1.1//EN" "http://www.w3.org/Graphics/SVG/1.1/DTD/svg11.dtd">
<svg version="1.1" id="Layer_1" xmlns="http://www.w3.org/2000/svg" xmlns:xlink="http://www.w3.org/1999/xlink" x="0px" y="0px"
	 width="96px" height="64px" viewBox="0 0 96 64" enable-background="new 0 0 96 64" xml:space="preserve">
<g>
	<g>
		<path fill-rule="evenodd" clip-rule="evenodd" fill="#929292" d="M89.749,31.819c0,12.7-10.301,23.001-22.999,23.001
			c-6.84,0-13-2.98-17.2-7.762c0.44-0.539,0.841-1.1,1.2-1.68c0.76,0.92,1.621,1.76,2.539,2.539l-0.02,0.021
			c0.32,0.279,0.641,0.52,0.961,0.74c-0.32-0.24-0.641-0.5-0.941-0.762c2.32-2.66,4.641-3.398,6.521-4.039
			c1.541-0.539,1.439-1.5,1.58-2.379c0.039-0.221,0.078-0.621-0.039-0.742c-1.461-1.398-1.223-3.66-1.742-5.5
			c-0.1-0.34-0.459-0.379-0.699-0.578c-0.26-0.221-0.441-0.521-0.52-0.86c-0.08-0.42-0.102-0.84-0.221-1.261
			c-0.16-0.56-0.4-1.079-0.52-1.599c-0.141-0.46-0.6-2.2,0.279-2.26c0.441-0.021,0.441,0.04,0.32-0.44
			c-0.121-0.58-0.219-1.16-0.281-1.72c-0.199-2.021-0.617-4.2,0.102-6.16c1-2.72,4.559-4.439,8.5-4.439
			c3.68,0,7.679,1.72,8.397,4.96c0.48,2.06,0.182,4.18-0.238,6.22c-0.102,0.479-0.199,0.96-0.32,1.439
			c-0.039,0.341,0.4,0.101,0.58,0.2c0.74,0.42,0.26,2.2,0.061,2.8c-0.141,0.48-0.359,0.94-0.461,1.44
			c-0.08,0.42-0.1,0.86-0.26,1.259c-0.201,0.402-0.5,0.461-0.799,0.701c-0.361,0.26-0.422,0.881-0.521,1.26
			c-0.199,0.98-0.26,2.02-0.52,2.98c-0.139,0.461-0.381,0.879-0.639,1.24c-0.361,0.459-0.681,0.658-0.659,1.279
			c0,0,0.198,0.621,0.358,1.02c0.398,0.881,0.578,0.961,1.459,1.141c2.66,0.539,4.66,1.76,7.061,4.16
			c4.699-3.859,7.68-9.699,7.68-16.22c0-11.58-9.42-21-20.999-21c-6.42,0-12.16,2.88-16.02,7.439c-0.359-0.58-0.762-1.14-1.181-1.66
			C53.73,11.82,59.891,8.82,66.75,8.82C79.448,8.82,89.749,19.12,89.749,31.819z"/>
	</g>
	<g>
		<path fill-rule="evenodd" clip-rule="evenodd" fill="#929292" d="M29.75,8.821c-12.7,0-23,10.299-23,22.999
			c0,6.66,2.84,12.68,7.379,16.879c4.1,3.801,9.6,6.121,15.62,6.121c5.899,0,11.279-2.221,15.359-5.879
			c4.699-4.201,7.641-10.32,7.641-17.121C52.75,19.121,42.45,8.821,29.75,8.821z M43.77,47.461c-0.26,0.238-0.52,0.459-0.8,0.68
			c-2-0.699-4.06-1.061-6.06-1.74c-0.86-0.301-1.64-0.641-1.86-1.58c-0.22-0.98-1-3.199-0.36-3.801c1.04-1,5.54-0.439,6.22-1.84
			c0.619-1.279-1.46-4.02-1.94-7.199c-0.64-4.44-0.3-7.94-0.5-9.16c-0.14-1.04-0.76-1.74-1.22-2.681c-0.34-0.779-1.26-1.22-2.02-1.5
			c-0.96-0.34-1.939-0.68-2.899-1.02c-0.94-0.34-1.9-0.601-2.88-0.561c-1.141,0.04-2.04,0.5-3.08,0.801
			c-0.841,0.22-1.66,0.54-2.341,1.02c-0.779,0.54-1.239,1.16-2.119,1.521c-0.82,0.3-1.24,1.18-1.54,1.939
			c-0.46,1.141-0.28,4.96-0.74,9.56c-0.34,3.26-2.58,5.979-1.94,7.279c0.66,1.34,4.48,0.441,5.94,1.84
			c0.68,0.641,0.06,2.621,0.06,2.621s-0.16,1.738-1.02,2.238c-0.9,0.521-2.101,0.742-3.12,1c-0.98,0.281-2,0.562-2.96,0.902
			c-0.061,0.02-0.18,0.059-0.34,0.119c-0.261-0.221-0.5-0.439-0.761-0.682C11.211,43.26,8.751,37.66,8.751,31.82
			c0-11.58,9.419-21,21-21c11.58,0,21,9.42,21,21C50.75,37.781,48.21,43.48,43.77,47.461z"/>
	</g>
</g>
</svg>
