<?xml version="1.0" encoding="utf-8"?>
<!-- Copyright (C) 2014 Brian Speir. All rights reserved. -->
<!DOCTYPE svg PUBLIC "-//W3C//DTD SVG 1.1//EN" "http://www.w3.org/Graphics/SVG/1.1/DTD/svg11.dtd">
<svg version="1.1" id="Layer_1" xmlns="http://www.w3.org/2000/svg" xmlns:xlink="http://www.w3.org/1999/xlink" x="0px" y="0px"
	 width="96px" height="64px" viewBox="0 0 96 64" enable-background="new 0 0 96 64" xml:space="preserve">
<g id="Messages__x28_active_x29__1_">
	<g>
		<path fill="#FF3366" d="M61.74,8.5h-26c-6.36,0-12.1,2.58-16.26,6.74s-6.74,9.899-6.74,16.26c0,12.699,10.3,23,23,23h26
			c6.359,0,12.1-2.58,16.26-6.74s6.74-9.9,6.74-16.26C84.74,18.8,74.439,8.5,61.74,8.5z M30.74,37.5c-3.32,0-6-2.68-6-6s2.68-6,6-6
			s6,2.68,6,6S34.061,37.5,30.74,37.5z M48.74,37.5c-3.32,0-6-2.68-6-6s2.68-6,6-6s6,2.68,6,6S52.061,37.5,48.74,37.5z M66.74,37.5
			c-3.32,0-6-2.68-6-6s2.68-6,6-6s6,2.68,6,6S70.061,37.5,66.74,37.5z"/>
	</g>
</g>
</svg>
