<?xml version="1.0" encoding="utf-8"?>
<!-- Generator: Adobe Illustrator 16.0.5, SVG Export Plug-In . SVG Version: 6.00 Build 0)  -->
<!DOCTYPE svg PUBLIC "-//W3C//DTD SVG 1.1//EN" "http://www.w3.org/Graphics/SVG/1.1/DTD/svg11.dtd">
<svg version="1.1" id="container" xmlns="http://www.w3.org/2000/svg" xmlns:xlink="http://www.w3.org/1999/xlink" x="0px" y="0px"
	 width="1000px" height="679px" viewBox="0 0 1000 679" enable-background="new 0 0 1000 679" xml:space="preserve">
<path id="mark" fill="#FFFFFF" d="M1000,98.726c0,276.13-223.869,500-500,500c-15.764,0-31.354-0.732-46.735-2.166L148.09,678.344
	l48.757-181.975C77.198,405.016,0,260.876,0,98.726h0.558C0.558,44.745,44.316,0,98.312,0c53.997,0,97.754,44.744,97.754,98.726
	h0.559c0,167.547,135.828,303.375,303.375,303.375c167.532,0,303.376-135.828,303.376-303.375h0.574
	C803.95,44.745,847.708,0,901.705,0c53.979,0,97.737,44.744,97.737,98.726H1000z"/>
</svg>
