<?xml version="1.0" encoding="utf-8"?>
<!-- Generator: Adobe Illustrator 16.0.5, SVG Export Plug-In . SVG Version: 6.00 Build 0)  -->
<!DOCTYPE svg PUBLIC "-//W3C//DTD SVG 1.1//EN" "http://www.w3.org/Graphics/SVG/1.1/DTD/svg11.dtd">
<svg version="1.1" id="Browser" xmlns="http://www.w3.org/2000/svg" xmlns:xlink="http://www.w3.org/1999/xlink" x="0px" y="0px"
	 width="135px" height="105px" viewBox="-422 560.5 135 105" enable-background="new -422 560.5 135 105" xml:space="preserve">
<rect id="Background" x="-419.823" y="580.531" fill="#F7F7F7" width="130.646" height="82.742"/>
<path id="Title_Bar" fill="#DDDDDD" d="M-289.291,565.82v12.935h-130.427V565.82c0-1.672,1.367-3.039,3.057-3.039h124.322
	C-290.648,562.781-289.291,564.148-289.291,565.82z"/>
<path id="Close_2_" fill="#FF3B30" d="M-406.752,571.148c0,2.105-1.707,3.81-3.812,3.81c-2.106,0-3.814-1.704-3.814-3.81
	c0-2.096,1.708-3.802,3.814-3.802C-408.459,567.346-406.752,569.052-406.752,571.148z"/>
<path id="Minimize_2_" fill="#FFC300" d="M-391.499,571.148c0,2.105-1.709,3.81-3.811,3.81c-2.108,0-3.817-1.704-3.817-3.81
	c0-2.096,1.709-3.802,3.817-3.802C-393.208,567.346-391.499,569.052-391.499,571.148z"/>
<path id="Zoom_2_" fill="#4CD964" d="M-376.25,571.148c0,2.105-1.707,3.81-3.811,3.81s-3.814-1.704-3.814-3.81
	c0-2.096,1.71-3.802,3.814-3.802S-376.25,569.052-376.25,571.148z"/>
<path id="Outline" fill="#AAAAAA" d="M-292.339,560.5h-124.322c-2.952,0-5.339,2.387-5.339,5.322v93.863
	c0,2.943,2.387,5.33,5.339,5.33h124.322c2.942,0,5.339-2.387,5.339-5.33V565.82C-287,562.886-289.396,560.5-292.339,560.5z
	 M-289.291,659.686c0,1.69-1.359,3.049-3.048,3.049h-124.322c-1.689,0-3.057-1.354-3.057-3.049v-78.64h130.427V659.686z
	 M-419.718,578.756V565.82c0-1.672,1.367-3.039,3.057-3.039h124.322c1.688,0,3.048,1.367,3.048,3.039v12.935L-419.718,578.756
	L-419.718,578.756z"/>
</svg>
