<?xml version="1.0" encoding="utf-8"?>
<!-- Generator: Adobe Illustrator 16.0.5, SVG Export Plug-In . SVG Version: 6.00 Build 0)  -->
<!DOCTYPE svg PUBLIC "-//W3C//DTD SVG 1.1//EN" "http://www.w3.org/Graphics/SVG/1.1/DTD/svg11.dtd">
<svg version="1.1" id="Toolbox" xmlns="http://www.w3.org/2000/svg" xmlns:xlink="http://www.w3.org/1999/xlink" x="0px" y="0px"
	 width="44px" height="44px" viewBox="0 0 44 44" enable-background="new 0 0 44 44" xml:space="preserve">
<path id="Box" opacity="0.87" d="M25,32h-6v-4H0v16h44V28H25V32z M37,16h-6v-3.201C31,10.152,28.746,8,26,8h-8
	c-2.747,0-5,2.152-5,4.799V16H7c-3.645,0-7,2.349-7,6v4h19v-4h6v4h19v-3.547C44,18.802,40.645,16,37,16z M16,16v-3
	c0-0.891,1.006-2,2-2h8c0.994,0,2,1.113,2,2v3H16z M21,24v6h2v-6H21z"/>
<path fill="#FFFFFF" d="M25,26v-4h-6v4H0v2h19v4h6v-4h19v-2H25z M23,30h-2v-6h2V30z"/>
</svg>
