<?xml version="1.0" encoding="utf-8"?>
<!-- Generator: Adobe Illustrator 16.0.5, SVG Export Plug-In . SVG Version: 6.00 Build 0)  -->
<!DOCTYPE svg PUBLIC "-//W3C//DTD SVG 1.1//EN" "http://www.w3.org/Graphics/SVG/1.1/DTD/svg11.dtd">
<svg version="1.1" id="Layer_1" xmlns="http://www.w3.org/2000/svg" xmlns:xlink="http://www.w3.org/1999/xlink" x="0px" y="0px"
	 width="1000px" height="1000px" viewBox="24.5 71.5 1000 1000" enable-background="new 24.5 71.5 1000 1000" xml:space="preserve">
<path d="M399.98,422.398c-8.521-80.471,44.14-157.549,122.316-178.361c39.814-10.596,83.137-5.875,119.65,13.23
	c27.729,14.53,49.614,37.804,83.255,28.66c23.393-6.336,46.736-12.666,70.097-19.013c33.82-9.154,46.99,44.373,15.078,56.655
	c52.66,33.544-44.054,76.796-65.034,89.375c-25.316,15.101-32.004,49.848-12.829,72.867c9.789,11.68,23.507,14.829,36.471,21.393
	c17.902,8.997,33.956,21.463,47.214,36.487c101.482,115.272-1.047,295.211-124.139,342.625
	c-132.913,51.219-295.229-12.146-389.367-110.535c-48.619-50.808-84.14-113.891-101.737-182.025
	c-7.615-29.138-19.805-66.764,7.154-89.766c40.476-34.455,67.236,8.504,88.45,36.898c60.245,80.639,173.338,75.501,253.59,29.301
	C465.431,562.603,408.207,500.164,399.98,422.398z"/>
</svg>
