<?xml version="1.0" encoding="utf-8"?>
<!-- Generator: Adobe Illustrator 16.0.5, SVG Export Plug-In . SVG Version: 6.00 Build 0)  -->
<!DOCTYPE svg PUBLIC "-//W3C//DTD SVG 1.1//EN" "http://www.w3.org/Graphics/SVG/1.1/DTD/svg11.dtd">
<svg version="1.1" id="Layer_1" xmlns="http://www.w3.org/2000/svg" xmlns:xlink="http://www.w3.org/1999/xlink" x="0px" y="0px"
	 width="666px" height="666px" viewBox="0 0 666 666" enable-background="new 0 0 666 666" xml:space="preserve">
<path d="M208.48,183.899c-8.521-80.472,44.14-157.55,122.315-178.362c39.814-10.596,83.137-5.875,119.65,13.23
	c27.729,14.53,49.614,37.804,83.255,28.66c23.393-6.336,46.736-12.666,70.097-19.013c33.82-9.154,46.99,44.373,15.078,56.655
	c52.66,33.545-44.054,76.797-65.034,89.376c-25.315,15.101-32.004,49.848-12.829,72.866c9.789,11.681,23.508,14.829,36.472,21.394
	c17.901,8.997,33.956,21.463,47.214,36.487c101.481,115.272-1.047,295.211-124.14,342.625
	c-132.912,51.22-295.229-12.146-389.367-110.535C62.573,486.474,27.052,423.391,9.455,355.257
	c-7.615-29.138-19.805-66.764,7.154-89.766c40.476-34.455,67.236,8.504,88.45,36.897c60.245,80.64,173.338,75.501,253.59,29.302
	C273.931,324.104,216.707,261.665,208.48,183.899z"/>
</svg>
