<?xml version="1.0" encoding="utf-8"?>
<!-- Generator: Adobe Illustrator 16.0.5, SVG Export Plug-In . SVG Version: 6.00 Build 0)  -->
<!DOCTYPE svg PUBLIC "-//W3C//DTD SVG 1.1//EN" "http://www.w3.org/Graphics/SVG/1.1/DTD/svg11.dtd">
<svg version="1.1" id="Layer_1" xmlns="http://www.w3.org/2000/svg" xmlns:xlink="http://www.w3.org/1999/xlink" x="0px" y="0px"
	 width="72px" height="72px" viewBox="0 0 72 72" enable-background="new 0 0 72 72" xml:space="preserve">
<polygon fill="#FFEA39" points="0,72 72,0 0,0 "/>
<g>
	<path fill="#B06001" d="M17.079,43.191c-0.072,0.28-0.264,0.577-0.577,0.889c-0.265,0.266-0.549,0.401-0.854,0.41
		c-0.304,0.008-0.625-0.157-0.962-0.493c0.056,0.616-0.028,1.186-0.252,1.706c-0.224,0.521-0.553,0.998-0.985,1.431
		c-0.281,0.281-0.579,0.515-0.896,0.703c-0.316,0.188-0.635,0.307-0.956,0.354c-0.32,0.049-0.645,0.017-0.974-0.096
		c-0.328-0.112-0.649-0.324-0.962-0.637c-0.353-0.353-0.581-0.701-0.685-1.046c-0.104-0.345-0.128-0.686-0.072-1.022
		c0.056-0.336,0.174-0.666,0.354-0.992c0.18-0.324,0.378-0.643,0.595-0.955c0.224-0.336,0.449-0.645,0.673-0.926
		c0.225-0.28,0.407-0.543,0.547-0.787c0.14-0.244,0.216-0.473,0.228-0.686c0.012-0.212-0.078-0.414-0.271-0.606
		c-0.224-0.224-0.447-0.362-0.667-0.415c-0.22-0.052-0.433-0.048-0.637,0.012c-0.205,0.061-0.401,0.161-0.589,0.301
		c-0.189,0.141-0.363,0.291-0.523,0.451c-0.433,0.433-0.711,0.876-0.835,1.328c-0.125,0.453,0.03,0.92,0.463,1.4l-1.021,1.021
		c-0.369-0.4-0.614-0.805-0.734-1.214s-0.142-0.815-0.066-1.22c0.076-0.405,0.232-0.797,0.469-1.178s0.531-0.748,0.883-1.101
		c0.281-0.28,0.58-0.538,0.896-0.775c0.317-0.236,0.649-0.405,0.998-0.505c0.349-0.101,0.702-0.107,1.063-0.02
		c0.359,0.088,0.72,0.312,1.08,0.671l3.191,3.19c0.24,0.24,0.429,0.402,0.57,0.486c0.14,0.084,0.29,0.046,0.45-0.115
		c0.088-0.088,0.177-0.207,0.265-0.359L17.079,43.191z M12.235,41.664c-0.032,0.225-0.131,0.463-0.295,0.715
		c-0.165,0.252-0.347,0.506-0.547,0.762c-0.201,0.258-0.399,0.52-0.595,0.788c-0.197,0.269-0.348,0.534-0.452,0.798
		c-0.104,0.265-0.141,0.528-0.11,0.792c0.032,0.264,0.175,0.523,0.43,0.778c0.167,0.168,0.343,0.275,0.527,0.322
		c0.184,0.048,0.365,0.054,0.545,0.017c0.18-0.036,0.358-0.11,0.534-0.223c0.176-0.112,0.344-0.249,0.504-0.409
		c0.336-0.336,0.579-0.671,0.728-1.003c0.148-0.332,0.229-0.644,0.242-0.936s-0.027-0.556-0.118-0.792
		c-0.091-0.234-0.209-0.425-0.353-0.568L12.235,41.664z"/>
	<path fill="#B06001" d="M12.764,35.125l1.31,1.311l0.024-0.024c-0.256-0.753-0.325-1.43-0.205-2.031
		c0.12-0.601,0.465-1.17,1.034-1.707l1.083,1.082c-0.409,0.409-0.702,0.813-0.878,1.214c-0.176,0.401-0.245,0.798-0.205,1.19
		s0.175,0.784,0.403,1.172c0.229,0.389,0.543,0.784,0.943,1.185l2.765,2.764l-1.021,1.022l-6.215-6.215L12.764,35.125z"/>
	<path fill="#B06001" d="M20.421,29.632c-0.473,0.04-0.925,0.276-1.358,0.709c-0.369,0.369-0.609,0.745-0.721,1.129
		c-0.112,0.385-0.13,0.764-0.054,1.136c0.076,0.373,0.229,0.737,0.457,1.094c0.228,0.356,0.499,0.691,0.812,1.003
		c0.288,0.289,0.603,0.535,0.943,0.739c0.341,0.205,0.689,0.341,1.046,0.409s0.715,0.051,1.076-0.054
		c0.36-0.104,0.701-0.316,1.021-0.637c0.505-0.505,0.768-1.032,0.787-1.581c0.021-0.549-0.179-1.096-0.595-1.641l1.046-1.046
		c0.657,0.881,0.964,1.761,0.92,2.639s-0.463,1.713-1.257,2.506c-0.473,0.473-0.968,0.816-1.484,1.028
		c-0.517,0.213-1.038,0.301-1.562,0.264c-0.525-0.035-1.044-0.186-1.557-0.45s-1.002-0.629-1.467-1.094
		c-0.464-0.464-0.839-0.959-1.123-1.485c-0.285-0.525-0.456-1.06-0.511-1.605c-0.056-0.544,0.014-1.087,0.21-1.628
		c0.196-0.541,0.539-1.056,1.027-1.545c0.353-0.353,0.726-0.641,1.119-0.865c0.393-0.224,0.795-0.367,1.207-0.427
		c0.413-0.06,0.83-0.032,1.251,0.084c0.421,0.117,0.835,0.339,1.244,0.667l-1.058,1.058C21.367,29.729,20.894,29.592,20.421,29.632z
		"/>
	<path fill="#B06001" d="M20.733,22.419l3.282,3.282l0.023-0.023c-0.112-0.272-0.162-0.547-0.15-0.824
		c0.013-0.276,0.066-0.547,0.162-0.812c0.097-0.264,0.223-0.514,0.379-0.751c0.156-0.236,0.326-0.447,0.511-0.631
		c0.408-0.409,0.806-0.693,1.19-0.854c0.384-0.16,0.761-0.224,1.13-0.192c0.368,0.032,0.725,0.152,1.069,0.36
		c0.345,0.209,0.686,0.481,1.022,0.818l4.087,4.087l-1.022,1.022l-4.207-4.208c-0.385-0.385-0.801-0.577-1.251-0.577
		c-0.447,0-0.869,0.197-1.262,0.589c-0.312,0.312-0.534,0.631-0.667,0.955c-0.132,0.325-0.186,0.652-0.161,0.979
		c0.023,0.329,0.116,0.649,0.275,0.962c0.16,0.313,0.382,0.609,0.662,0.89l3.51,3.51l-1.021,1.022l-8.583-8.583L20.733,22.419z"/>
	<path fill="#B06001" d="M27.704,17.949l-1.25-1.25l1.022-1.022l1.25,1.25L27.704,17.949z M29.845,18.044l6.215,6.215l-1.022,1.022
		l-6.215-6.215L29.845,18.044z"/>
	<path fill="#B06001" d="M39.354,20.965l-8.523-3.907l1.143-1.142l6.924,3.438l0.023-0.023l-3.485-6.876l1.069-1.069l3.943,8.486
		L39.354,20.965z"/>
	<path fill="#B06001" d="M47.658,11.867c-0.111,0.817-0.521,1.579-1.225,2.283c-0.497,0.498-1.009,0.848-1.533,1.053
		c-0.524,0.204-1.056,0.286-1.593,0.246s-1.068-0.198-1.594-0.474c-0.524-0.276-1.03-0.644-1.52-1.101
		c-0.473-0.473-0.834-0.977-1.082-1.515c-0.248-0.537-0.387-1.08-0.415-1.628c-0.027-0.549,0.056-1.082,0.254-1.6
		c0.195-0.517,0.506-0.988,0.93-1.412c0.555-0.554,1.127-0.898,1.72-1.034c0.594-0.137,1.177-0.139,1.749-0.006
		c0.573,0.132,1.11,0.364,1.611,0.697s0.931,0.696,1.292,1.088L41.6,13.117c0.266,0.279,0.557,0.506,0.873,0.679
		c0.315,0.172,0.647,0.272,0.998,0.299c0.349,0.028,0.701-0.025,1.062-0.161c0.36-0.136,0.71-0.373,1.047-0.71
		c0.432-0.432,0.687-0.887,0.763-1.364s-0.047-0.963-0.367-1.461l1.01-1.009C47.548,10.223,47.771,11.049,47.658,11.867z
		 M43.422,8.122c-0.31-0.124-0.619-0.186-0.932-0.186c-0.312,0-0.62,0.059-0.926,0.18c-0.305,0.121-0.585,0.31-0.841,0.565
		c-0.265,0.265-0.458,0.55-0.577,0.854c-0.12,0.305-0.177,0.614-0.168,0.926c0.007,0.313,0.073,0.62,0.198,0.919
		c0.124,0.301,0.298,0.579,0.521,0.836l3.571-3.571C44.013,8.42,43.73,8.246,43.422,8.122z"/>
</g>
</svg>
