<?xml version="1.0" encoding="utf-8"?>
<!-- Copyright © 2014 Brian Speir. All rights reserved.  -->
<!DOCTYPE svg PUBLIC "-//W3C//DTD SVG 1.1//EN" "http://www.w3.org/Graphics/SVG/1.1/DTD/svg11.dtd">
<svg version="1.1" id="Phone" xmlns="http://www.w3.org/2000/svg" xmlns:xlink="http://www.w3.org/1999/xlink" x="0px" y="0px"
	 width="120px" height="120px" viewBox="0 0 120 120" enable-background="new 0 0 120 120" xml:space="preserve">
<path id="Phone_1_" fill="#4B4B4B" d="M79.77,0H40.23C33.5,0,28,5.44,28,12.08v95.84c0,6.64,5.5,12.08,12.23,12.08h39.54
	C86.49,120,92,114.56,92,107.92V12.08C92,5.44,86.49,0,79.77,0z M55.29,10.5h9.42c0.71,0,1.29,0.68,1.29,1.5
	c0,0.83-0.58,1.5-1.29,1.5h-9.42C54.58,13.5,54,12.83,54,12C54,11.18,54.58,10.5,55.29,10.5z M60,116c-3.31,0-6-2.69-6-6s2.69-6,6-6
	c3.31,0,6,2.69,6,6S63.31,116,60,116z M87,100H33V20h54V100z"/>
</svg>
