<?xml version="1.0" encoding="utf-8"?>
<!-- Copyright (C) 2014 Brian Speir. All rights reserved. -->
<!DOCTYPE svg PUBLIC "-//W3C//DTD SVG 1.1//EN" "http://www.w3.org/Graphics/SVG/1.1/DTD/svg11.dtd">
<svg version="1.1" id="mark" xmlns="http://www.w3.org/2000/svg" xmlns:xlink="http://www.w3.org/1999/xlink" x="0px" y="0px"
	 width="360px" height="90px" viewBox="0 0 360 90" enable-background="new 0 0 360 90" xml:space="preserve">
<polygon id="left" fill="#7F8A9A" points="127.674,45 159.336,90 0,90 0,0 159.336,0 "/>
<polygon id="right" fill="#44515C" points="360,90 159.336,90 127.674,45 159.336,0 360,0 "/>
<path id="text" fill="#FFFFFF" d="M115.113,63.047h-9.306v-49.44h9.306V63.047z M130.17,63.047h10.197L127.674,45l12.696-18.051
	h-10.2L117.588,45L130.17,63.047z M218.512,43.581c0-10.688-6.35-17.362-15.253-17.362c-6.226,0-9.28,3.295-10.131,4.222h-0.138
	l-0.07-3.492h-8.391v49.545h9.289V63.029c0.229,0.066,2.688,0.688,5.682,0.688C211.104,63.718,218.512,56.146,218.512,43.581z
	 M208.793,43.581c0,8.938-4.869,12.778-10.096,12.778c-2.455,0-4.781-0.719-4.875-0.743V41.857c0-5.286,2.672-8.021,6.822-8.021
	C205.436,33.837,208.793,37.704,208.793,43.581z M291.372,63.718c2.474,0,5.183-0.321,7.519-0.964V54.68
	c-0.555,0.264-3.019,1.242-6.127,1.242c-7.005,0-10.312-4.734-10.312-10.934c0-6.321,3.526-10.917,10.312-10.917
	c3.108,0,5.572,0.972,6.127,1.239v-8.073c-2.336-0.664-5.045-1.018-7.519-1.018c-11.511,0-18.665,7.512-18.665,18.771
	C272.707,56.25,279.861,63.718,291.372,63.718z M85.449,63.718c3.835,0,6.813-0.806,7.515-1.028v-8.06
	c-0.532,0.274-2.997,1.245-6.123,1.245c-6.721,0-10.313-4.693-10.313-10.89c0-6.321,3.526-10.917,10.313-10.917
	c3.126,0,5.591,0.972,6.123,1.239v-8.073c-2.334-0.664-5.041-1.019-7.515-1.019c-11.508,0-18.659,7.513-18.659,18.772
	C66.789,56.25,73.941,63.718,85.449,63.718z M259.479,63.047c-0.008-1.436-0.211-6.381-0.211-9.293V41.919
	c0-10.182-6.574-15.702-18.457-15.702c-5.101,0-8.593,1.058-9.328,1.286v7.32c0.621-0.171,5.096-1.494,8.719-1.494
	c7.811,0,9.771,3.412,9.771,6.229v1.481c-0.355,0-5.188,0-5.539,0c-8.828,0-15.312,4.043-15.312,11.279
	c0,6.707,5.103,11.4,11.548,11.4c7.01,0,9.217-3.599,10.025-4.564l0.072,0.082l0.398,3.807h8.312V63.047L259.479,63.047z
	 M249.973,49.014c0,4.342-2.451,7.652-6.746,7.652c-3.281,0-5.235-1.963-5.235-4.711c0-2.771,2.12-4.881,8.646-4.881
	c0.221,0,3.127,0,3.338,0v1.939H249.973z M340.755,42.271c0-8.938-5.149-16.052-15.671-16.052c-10.84,0-16.438,7.771-16.438,18.803
	c0,12.402,8.023,18.696,18.825,18.696c6.382,0,9.703-1.491,11.096-1.938v-7.523c-1.094,0.492-5.121,2.344-10.541,2.26
	c-6.407-0.101-9.93-3.943-9.943-10.022h22.383C340.682,44.97,340.755,43.506,340.755,42.271z M331.526,40.167h-13.283
	c0.188-4.34,2.921-7.197,6.775-7.197C328.928,32.97,331.342,35.829,331.526,40.167z M55.197,44.064
	c0-10.677-6.407-17.845-15.81-17.845c-5.178,0-8.187,2.62-8.883,3.311l0,0V13.604h-9.303v48.147c0.292,0.11,5.164,2.03,13.44,2.03
	C47.07,63.785,55.197,55.992,55.197,44.064z M45.453,44.097c0,9.164-5.115,12.262-10.231,12.262c-2.619,0-4.374-0.732-4.718-0.879
	V41.568c0-5.631,3.426-7.653,6.895-7.653C42.186,33.915,45.453,37.782,45.453,44.097z M171.906,52.418
	c0-6.135-4.223-8.942-8.621-10.694c-0.426-0.165-1.428-0.563-1.819-0.703c-2.722-1.093-4.386-2.171-4.386-4.301
	c0-2.074,1.533-3.521,5.376-3.521c3.271,0,6.048,0.727,6.968,0.976v-7.374c-2.188-0.36-4.482-0.579-6.59-0.579
	c-10.179,0-15.342,5.01-15.342,11.136c0,6.06,4.578,8.949,7.953,10.272c0.41,0.17,1.635,0.649,2.202,0.879
	c2.152,0.861,4.447,2.021,4.447,4.371c0,1.899-1.671,3.71-6.28,3.71c-3.334,0-6.648-0.898-7.603-1.184v7.715
	c2.329,0.363,5.155,0.6,7.778,0.6C165.861,63.718,171.906,59.338,171.906,52.418z"/>
</svg>
