<?xml version="1.0" encoding="utf-8"?>
<!-- Copyright (C) 2014 Brian Speir. All rights reserved. -->
<!DOCTYPE svg PUBLIC "-//W3C//DTD SVG 1.1//EN" "http://www.w3.org/Graphics/SVG/1.1/DTD/svg11.dtd">
<svg version="1.1" id="Layer_1" xmlns="http://www.w3.org/2000/svg" xmlns:xlink="http://www.w3.org/1999/xlink" x="0px" y="0px"
	 width="138px" height="44px" viewBox="0 0 138 44" enable-background="new 0 0 138 44" xml:space="preserve">
<g>
	<path fill="#1A1A1A" d="M42.605,13.171c1.614,0.809,2.891,1.48,4.199,2.091c2.326,1.081,4.023,2.783,5.205,5.045
		c0.646,1.24,0.752,2.438-0.099,3.626c-0.766,1.073-0.241,1.392,0.811,1.34c2.178-0.104,4.368-0.137,6.533-0.375
		c3.908-0.433,7.836-0.144,11.737-0.48c3.494-0.303,6.463,1.594,9.695,2.385c1.36,0.33,2.69,0.773,4.045,1.097
		c0.535,0.129,1.135,0.179,1.66,0.076c0.723-0.14,1.425-0.872,2.076,0.096c0.559,0.827,0.455,1.66-0.274,2.537
		c1.968,0.248,3.717-0.107,5.47-0.271c2.787-0.258,5.565-0.555,8.354-0.786c1.455-0.118,1.535-0.712,0.83-1.821
		c-1.727-2.702-4.24-4.599-6.634-6.61c-2.659-2.224-5.439-4.304-8.071-6.551c-1.294-1.101-2.069-2.623-2.499-4.293
		c-0.279-1.083,0.063-1.978,1.104-2.321c5.985-1.973,12.056-2.964,18.307-1.479c0.853,0.205,1.658,0.666,2.457,1.067
		c0.468,0.235,0.861,0.625,0.542,1.211c-0.297,0.533-0.796,0.552-1.322,0.36c-0.101-0.041-0.216-0.067-0.311-0.114
		c-5.647-2.686-11.33-1.824-17.019-0.193c-1.722,0.494-1.859,1.105-0.906,2.706c1.316,2.19,3.515,3.422,5.352,5.049
		c2.675,2.369,5.479,4.608,8.194,6.946c1.324,1.143,2.351,2.573,3.113,4.126c0.536,1.085,1.201,1.434,2.362,1.368
		c4.021-0.223,8.039-0.339,12.078-0.116c3.241,0.179,6.152,1.059,8.873,2.702c2.142,1.296,4.269,1.433,6.551,0.434
		c0.992-0.439,2.377-1.086,2.876,0.344c0.505,1.426-0.918,2.084-2.042,2.324c-2.88,0.618-5.771,1.25-8.528-0.665
		c-3.831-2.659-8.214-3.342-12.784-3.205c-2.236,0.068-4.472,0.11-6.707,0.158c-1.007,0.019-1.689,0.334-1.843,1.491
		c-0.328,2.448-2.009,3.939-3.949,5.145c-5.121,3.176-10.835,4.687-16.701,5.622c-6.285,0.994-12.593,1.103-18.838-0.177
		c-1.93-0.395-3.97-0.643-5.647-1.929c-1.993-1.529-2.115-2.96-0.255-4.704c1.915-1.8,4.351-2.528,6.827-3.006
		c4.778-0.918,9.637-1.312,14.478-1.832c0.758-0.084,2.061,0.204,2.168-0.671c0.123-0.936-1.184-0.987-1.938-1.238
		c-6.056-2.005-12.114-3.754-18.677-2.953c-4.541,0.555-9.157,0.579-13.742,0.661c-3.01,0.056-5.47,1.597-8.023,2.75
		c-5.607,2.529-11.49,4.016-17.473,5.162c-5.342,1.022-10.743,1.328-16.178,0.714c-2.031-0.234-3.922-0.886-5.773-1.614
		c-2.677-1.054-3.033-3.749-0.812-5.579c2.58-2.136,5.799-2.24,8.894-2.53c7.083-0.659,14.203-0.397,21.304-0.635
		c4.364-0.141,8.731-0.118,13.097-0.033c2.237,0.043,3.686-1.162,4.95-2.687c0.932-1.119,0.109-2.154-0.586-3.001
		c-2.191-2.681-5.213-3.983-8.461-4.797c-1.836-0.466-3.717-0.762-5.571-1.157c-0.717-0.157-1.536-0.355-1.41-1.335
		c0.126-0.983,0.896-1.15,1.758-1.131c3.158,0.065,6.263-0.197,9.187-1.543c0.496-0.227,1.164-0.323,1.135-1.051
		c-0.027-0.618-0.503-0.977-1.026-1.229c-2.096-0.996-4.346-1.331-6.615-1.723c-2.769-0.478-4.692,0.383-6.236,2.67
		c-1.76,2.616-4.339,4.692-5.055,7.986c-0.188,0.857-0.924,1.271-1.789,1.245c-0.898-0.029-1.661-0.485-2.016-1.292
		c-0.411-0.955,0.301-1.752,0.945-2.146c2.686-1.662,3.91-4.554,5.928-6.769c0.242-0.271,0.669-0.58,0.37-1.004
		c-0.25-0.355-0.744-0.275-1.098-0.177c-0.807,0.213-1.586,0.535-2.38,0.795c-0.806,0.261-1.557,0.155-2.192-0.428
		C24.227,6.512,24.097,6.06,24.38,5.63c0.439-0.666,0.967-1.211,1.858-1.271c1.937-0.125,3.834-0.559,5.812-0.447
		c1.552,0.087,1.771-1.46,2.331-2.493C34.723,0.79,34.846-0.001,35.806,0c0.576,0,1.125,0.048,1.507,0.559
		c0.387,0.517,0.053,0.944-0.181,1.39C36.073,3.97,36.092,3.839,38.354,4.1c3.328,0.384,6.704,0.776,9.312,3.272
		c1.505,1.446,1.229,3.01-0.573,4.074C45.792,12.212,44.256,12.321,42.605,13.171z M74.798,42.467
		c4.896-0.028,8.467-0.242,11.976-1.028c4.699-1.052,9.301-2.41,13.461-4.945c1.557-0.952,2.901-2.098,3.425-3.961
		c0.191-0.702,0.236-1.223-0.776-1.125c-3.777,0.357-7.564,0.62-11.337,1.024c-5.495,0.589-10.976,1.292-16.471,1.903
		c-3.723,0.414-7.44,0.839-10.959,2.219c-1.066,0.413-2.498,0.924-2.479,2.218c0.019,1.324,1.488,1.668,2.573,2.057
		C68.064,42.179,72.07,42.447,74.798,42.467z M41.761,28.008c-0.026-0.191-0.054-0.379-0.083-0.573
		c-1.601,0-3.205-0.028-4.807,0.007c-6.527,0.14-13.057,0.266-19.582,0.463c-4.396,0.134-8.832,0.023-13.04,1.663
		c-0.882,0.347-1.97,0.538-2.03,1.706c-0.054,1.128,0.933,1.591,1.768,2.024c3.035,1.581,6.364,1.527,9.653,1.586
		c7.014,0.129,13.733-1.522,20.353-3.633C36.666,30.402,39.398,29.607,41.761,28.008z"/>
	<path fill="#1A1A1A" d="M122.605,22.585c-2.299,0.055-4.435-0.322-6.186-2.037c-0.881-0.869-1.27-1.849-1.045-3.028
		c0.153-0.811,1.281-1.606-0.177-2.358c-0.281-0.146,0.158-0.553,0.507-0.621c3.859-0.777,7.592-0.557,10.992,1.636
		c1.141,0.735,2.176,1.7,1.953,3.277c-0.22,1.559-1.462,2.124-2.744,2.636C124.841,22.514,123.729,22.558,122.605,22.585z
		 M122.212,20.522c0.824-0.122,1.663-0.192,2.466-0.385c0.572-0.137,1.264-0.256,1.384-1.012c0.102-0.641-0.381-0.999-0.792-1.379
		c-1.161-1.062-5.372-1.526-6.707-0.7c-0.885,0.544-0.86,1.238-0.148,1.911C119.471,19.954,120.747,20.45,122.212,20.522z"/>
	<path fill="#1A1A1A" d="M64.189,11.951c0.025-2.729,1.053-3.516,3.166-2.718c0.799,0.3,1.516,0.189,2.29,0.114
		c2.415-0.228,4.679,0.129,6.517,1.905c1.273,1.233,1.21,2.862-0.347,3.595c-3.233,1.525-6.537,2.242-9.832,0.043
		C64.768,14.079,64.221,12.952,64.189,11.951z M70.623,14.172c0.914,0.043,1.783-0.17,2.618-0.498
		c0.437-0.176,1.059-0.283,1.059-0.916c0-0.577-0.529-0.833-0.945-1.088c-0.879-0.54-1.894-0.797-2.892-0.714
		c-1.215,0.101-2.723-0.279-3.449,1.08C66.646,12.733,69.023,14.126,70.623,14.172z"/>
</g>
</svg>
