<?xml version="1.0" encoding="utf-8"?>
<!-- Generator: Adobe Illustrator 16.0.5, SVG Export Plug-In . SVG Version: 6.00 Build 0)  -->
<!DOCTYPE svg PUBLIC "-//W3C//DTD SVG 1.1//EN" "http://www.w3.org/Graphics/SVG/1.1/DTD/svg11.dtd">
<svg version="1.1" id="iPhone" xmlns="http://www.w3.org/2000/svg" xmlns:xlink="http://www.w3.org/1999/xlink" x="0px" y="0px"
	 width="430px" height="886px" viewBox="-24 -82 430 886" enable-background="new -24 -82 430 886" xml:space="preserve">
<linearGradient id="Screen_1_" gradientUnits="userSpaceOnUse" x1="402.0791" y1="495.2109" x2="402.0791" y2="-175.79" gradientTransform="matrix(1 0 0 -1 -211.0801 521.21)">
	<stop  offset="0" style="stop-color:#BA40FF"/>
	<stop  offset="1" style="stop-color:#A200FF"/>
</linearGradient>
<rect id="Screen" x="1" y="26" fill="url(#Screen_1_)" width="379.999" height="671"/>
<g id="Body" display="none">
	<path display="inline" fill="#FFFFFF" d="M73.617,720.5C34.127,720.5,2,688.381,2,648.901V73.096C2,33.618,34.127,1.5,73.617,1.5
		h234.766C347.873,1.5,380,33.618,380,73.096v575.805c0,39.479-32.127,71.599-71.617,71.599H73.617z M30,602h322V120H30V602z"/>
	<path display="inline" d="M308.383,2.5c18.777,0,36.488,7.367,49.868,20.743S379,54.324,379,73.096v575.805
		c0,18.771-7.369,36.479-20.749,49.854s-31.091,20.743-49.868,20.743H73.617c-18.786,0-36.499-7.367-49.876-20.743
		C10.366,685.383,3,667.677,3,648.901V73.096c0-18.775,7.366-36.48,20.741-49.854C37.118,9.867,54.831,2.5,73.617,2.5H308.383
		 M29,603h2h320h2v-2V121v-2h-2H31h-2v2v480V603 M308.383,0.5H73.617C33.665,0.5,1,33.177,1,73.096v575.805
		C1,688.822,33.665,721.5,73.617,721.5h234.766c39.93,0,72.617-32.678,72.617-72.599V73.096C381,33.177,348.312,0.5,308.383,0.5
		L308.383,0.5z M31,601V121h320v480H31L31,601z"/>
</g>
<g id="Home_Button" display="none">
	<path display="inline" d="M190.998,615.164c18.602,0,33.734,15.134,33.734,33.735c0,18.603-15.133,33.735-33.734,33.735
		c-18.603,0-33.736-15.135-33.736-33.735C157.262,630.298,172.396,615.164,190.998,615.164 M190.998,614.164
		c-19.186,0-34.736,15.557-34.736,34.735c0,19.186,15.551,34.735,34.736,34.735c19.184,0,34.734-15.552,34.734-34.735
		C225.732,629.721,210.182,614.164,190.998,614.164L190.998,614.164z"/>
</g>
<g id="Earpiece" display="none">
	<path display="inline" d="M218.541,66.59c3.587,0,6.506,2.921,6.506,6.511c0,3.589-2.919,6.51-6.506,6.51h-55.082
		c-3.59,0-6.51-2.921-6.51-6.511c0-3.59,2.92-6.51,6.51-6.51H218.541 M218.541,65.59h-55.082c-4.129,0-7.51,3.38-7.51,7.51v0.001
		c0,4.131,3.381,7.51,7.51,7.51h55.082c4.131,0,7.506-3.378,7.506-7.51V73.1C226.047,68.971,222.672,65.59,218.541,65.59
		L218.541,65.59z"/>
</g>
<polygon id="Star" fill="#FFFFFF" points="232.985,317.201 255.794,392.995 191,347.8 126.195,392.995 149,317.201 86,269.395 
	165.001,267.802 191,193 216.998,267.802 296,269.395 "/>
<g id="iPhone-6">
	<g id="Body_1_">
		<path fill="#FFFFFF" d="M320.217,802.996H61.785c-0.007,0-0.783,0.004-2.058,0.004c-4.748,0-16.266-0.057-20.679-0.584
			c-6.239-0.735-17.913-2.833-23.159-4.999c-5.608-2.31-16.019-8.668-20.174-12.796c-4.277-4.271-10.792-14.824-13.125-20.467
			c-2.163-5.227-4.265-16.893-5.004-23.131c-0.663-5.557-0.583-22.559-0.583-22.729V3.689c-0.001-0.176-0.081-17.16,0.583-22.71
			c0.735-6.231,2.834-17.89,5.004-23.131c2.331-5.66,8.844-16.215,13.125-20.468c4.343-4.316,14.887-10.745,20.153-12.787
			c5.436-2.107,17.155-4.299,23.178-5.008C43.468-80.943,55.003-81,59.757-81c1.258,0,2.021,0.004,2.021,0.004h258.433
			c0.007,0,0.771-0.004,2.03-0.004c4.76,0,16.306,0.057,20.707,0.584c6.235,0.735,17.916,2.833,23.185,5.001
			c5.58,2.292,15.976,8.646,20.151,12.794c4.306,4.282,10.827,14.832,13.145,20.465c2.146,5.181,4.22,16.647,5.007,23.135
			c0.662,5.549,0.559,22.531,0.558,22.702V718.29c0.001,0.178,0.104,17.179-0.559,22.732c-0.792,6.495-2.867,17.97-5.005,23.131
			c-2.336,5.653-8.859,16.209-13.146,20.468c-4.163,4.136-14.562,10.493-20.151,12.796c-5.27,2.167-16.948,4.264-23.183,4.999
			c-4.395,0.527-15.903,0.584-20.665,0.584C322.281,803,320.218,802.996,320.217,802.996z M2.499,695.5h377v-669h-377V695.5z"/>
		<path d="M322.242-80c4.741,0,16.239,0.056,20.591,0.578c6.18,0.728,17.736,2.799,22.921,4.933
			c5.497,2.258,15.727,8.506,19.825,12.578c4.155,4.132,10.688,14.703,12.927,20.142c2.107,5.091,4.155,16.439,4.938,22.867
			c0.653,5.488,0.551,22.408,0.55,22.592v714.614c0.001,0.171,0.104,17.108-0.55,22.598c-0.785,6.441-2.836,17.798-4.938,22.873
			c-2.253,5.453-8.79,16.029-12.925,20.139c-4.088,4.061-14.319,10.312-19.827,12.581c-5.184,2.131-16.741,4.202-22.924,4.932
			c-4.342,0.521-15.823,0.576-20.558,0.576c-1.272,0-2.048-0.004-2.062-0.004H61.774c-0.002,0-0.776,0.004-2.047,0.004
			c-4.729,0-16.201-0.056-20.563-0.577c-6.182-0.729-17.733-2.8-22.894-4.931c-5.525-2.275-15.77-8.528-19.846-12.577
			c-4.129-4.124-10.659-14.699-12.91-20.145c-2.126-5.138-4.202-16.682-4.935-22.866c-0.655-5.493-0.576-22.435-0.575-22.614V3.679
			c-0.001-0.17-0.08-17.092,0.576-22.584c0.729-6.174,2.801-17.711,4.936-22.868c2.248-5.458,8.774-16.034,12.905-20.137
			c3.917-3.892,14.1-10.35,19.811-12.564c5.36-2.078,16.962-4.245,22.936-4.948C43.533-79.944,55.021-80,59.756-80
			c1.255,0,2.017,0.004,2.029,0.004h258.437C320.225-79.996,320.986-80,322.242-80 M1.499,696.5h2h375h2v-2v-667v-2h-2h-375h-2v2
			v667V696.5 M322.242-82c-1.266,0-2.031,0.004-2.031,0.004H61.785c0,0-0.767-0.004-2.029-0.004c-4.713,0-16.344,0.056-20.825,0.591
			c-5.957,0.702-17.836,2.904-23.423,5.069C9.848-74.146-0.685-67.607-4.99-63.33c-4.383,4.355-10.987,15.07-13.344,20.795
			c-2.285,5.52-4.371,17.442-5.073,23.395c-0.678,5.677-0.589,22.829-0.589,22.829V718.29c0,0-0.088,17.17,0.589,22.852
			c0.703,5.929,2.788,17.874,5.073,23.396c2.357,5.702,8.973,16.429,13.345,20.794c4.304,4.276,14.883,10.699,20.498,13.012
			c5.53,2.283,17.466,4.365,23.422,5.067c4.473,0.534,16.065,0.591,20.797,0.591c1.28,0,2.059-0.004,2.059-0.004h258.426
			c0,0,0.779,0.004,2.062,0.004c4.736,0,16.341-0.057,20.796-0.591c5.955-0.702,17.894-2.784,23.445-5.067
			c5.613-2.312,16.171-8.734,20.477-13.012c4.393-4.365,11.009-15.092,13.364-20.794c2.284-5.521,4.352-17.467,5.073-23.396
			c0.679-5.682,0.564-22.852,0.564-22.852V3.689c0,0,0.113-17.152-0.564-22.829c-0.723-5.953-2.789-17.875-5.073-23.395
			c-2.355-5.725-8.973-16.426-13.364-20.794c-4.305-4.275-14.862-10.704-20.477-13.01c-5.553-2.286-17.49-4.368-23.445-5.069
			C338.603-81.944,326.962-82,322.242-82L322.242-82z M3.499,694.5v-667h375v667H3.499L3.499,694.5z"/>
	</g>
	<g id="Home_Button_1_">
		<path d="M190.5,711.5c18.748,0,34,15.254,34,34.004c0,18.745-15.252,33.996-34,33.996s-34-15.251-34-33.996
			C156.5,726.754,171.752,711.5,190.5,711.5 M190.5,710.5c-19.33,0-35,15.672-35,35.004c0,19.324,15.67,34.996,35,34.996
			s35-15.672,35-34.996C225.5,726.172,209.83,710.5,190.5,710.5L190.5,710.5z"/>
	</g>
	<g id="Earpiece_1_">
		<path d="M221.132-27.5c1.581,0,2.867,1.346,2.867,3s-1.286,3-2.867,3h-61.27c-1.578,0-2.863-1.346-2.863-3s1.285-3,2.863-3
			H221.132 M221.132-28.5h-61.27c-2.123,0-3.863,1.8-3.863,4s1.74,4,3.863,4h61.27c2.124,0,3.867-1.8,3.867-4
			S223.256-28.5,221.132-28.5L221.132-28.5z"/>
	</g>
	<g id="Camera">
		<path d="M121.999-33c4.688,0,8.5,3.812,8.5,8.499c0,4.688-3.812,8.501-8.5,8.501s-8.5-3.813-8.5-8.501
			C113.499-29.188,117.312-33,121.999-33 M121.999-34c-5.246,0-9.5,4.252-9.5,9.499c0,5.246,4.254,9.501,9.5,9.501
			s9.5-4.255,9.5-9.501C131.499-29.748,127.245-34,121.999-34L121.999-34z"/>
	</g>
</g>
</svg>
