<?xml version="1.0" encoding="utf-8"?>
<!-- Generator: Adobe Illustrator 16.0.5, SVG Export Plug-In . SVG Version: 6.00 Build 0)  -->
<!DOCTYPE svg PUBLIC "-//W3C//DTD SVG 1.1//EN" "http://www.w3.org/Graphics/SVG/1.1/DTD/svg11.dtd">
<svg version="1.1" id="Layer_1" xmlns="http://www.w3.org/2000/svg" xmlns:xlink="http://www.w3.org/1999/xlink" x="0px" y="0px"
	 width="388px" height="388px" viewBox="99.5 389.5 388 388" enable-background="new 99.5 389.5 388 388" xml:space="preserve">
<g id="background">
	<path fill="#FFFFFF" d="M293.5,728C213.822,728,149,663.178,149,583.5S213.822,439,293.5,439S438,503.822,438,583.5
		S373.178,728,293.5,728z"/>
	<path d="M293.5,440.5c38.195,0,74.107,14.875,101.116,41.883C421.625,509.395,436.5,545.305,436.5,583.5
		c0,38.197-14.875,74.107-41.884,101.117C367.607,711.626,331.697,726.5,293.5,726.5s-74.107-14.874-101.116-41.883
		c-27.009-27.01-41.884-62.92-41.884-101.117c0-38.195,14.875-74.105,41.884-101.116C219.393,455.375,255.305,440.5,293.5,440.5
		 M293.5,437.5c-80.634,0-146,65.367-146,146c0,80.635,65.366,146,146,146s146-65.365,146-146
		C439.5,502.867,374.134,437.5,293.5,437.5L293.5,437.5z"/>
</g>
<path id="mouth" d="M293.5,641.877c-45.088,0-58.988-24.256-64.055-22.865c-1.84,0.506-2.853,2.15-2.172,3.623
	c2.515,5.436,24.66,37.639,66.227,37.639s63.712-32.203,66.227-37.639c0.681-1.473-0.334-3.117-2.172-3.623
	C352.488,617.621,338.589,641.877,293.5,641.877z"/>
<path id="eye-right" d="M333.527,567.197c-7.455,0-13.889,6.854-17.031,16.818c-0.495,1.567-1.903,2.108-2.857,2.108
	c-2.128,0-2.839-1.83-2.959-2.556c-0.514-3.061-0.775-6.276-0.775-9.596c0-20.828,10.578-37.719,23.623-37.719
	s23.623,16.891,23.623,37.719c0,3.318-0.262,6.535-0.773,9.596c-0.121,0.726-0.833,2.556-2.96,2.556
	c-0.955,0-2.362-0.541-2.856-2.108C347.415,574.051,340.98,567.197,333.527,567.197z"/>
<path id="eye-left" d="M253.475,567.197c-7.455,0-13.89,6.854-17.031,16.818c-0.495,1.567-1.903,2.108-2.858,2.108
	c-2.127,0-2.838-1.83-2.959-2.556c-0.513-3.061-0.774-6.276-0.774-9.596c0-20.828,10.578-37.719,23.623-37.719
	s23.623,16.891,23.623,37.719c0,3.318-0.263,6.535-0.775,9.596c-0.12,0.726-0.831,2.556-2.959,2.556
	c-0.954,0-2.362-0.541-2.857-2.108C267.361,574.051,260.928,567.197,253.475,567.197z"/>
<line opacity="0.33" fill="none" stroke="#AAAAAA" stroke-miterlimit="10" enable-background="new    " x1="99.5" y1="583.5" x2="487.5" y2="583.5"/>
<line opacity="0.33" fill="none" stroke="#AAAAAA" stroke-miterlimit="10" enable-background="new    " x1="293.5" y1="389.5" x2="293.5" y2="777.5"/>
<line opacity="0.33" fill="none" stroke="#AAAAAA" stroke-miterlimit="10" enable-background="new    " x1="253.473" y1="507.141" x2="253.473" y2="699.859"/>
<line opacity="0.33" fill="none" stroke="#AAAAAA" stroke-miterlimit="10" enable-background="new    " x1="333.527" y1="507.141" x2="333.527" y2="699.859"/>
<line opacity="0.33" fill="none" stroke="#AAAAAA" stroke-miterlimit="10" enable-background="new    " x1="197.5" y1="656.5" x2="389.5" y2="656.5"/>
</svg>
