<!-- Copyright © 2014 Brian Speir. All rights reserved.  -->
<svg version="1.1" id="Layer_1" xmlns="http://www.w3.org/2000/svg" xmlns:xlink="http://www.w3.org/1999/xlink" x="0px" y="0px"
	 width="152px" height="152px" viewBox="0 0 152 152" enable-background="new 0 0 152 152" xml:space="preserve">
<linearGradient id="SVGID_1_" gradientUnits="userSpaceOnUse" x1="76.0005" y1="152" x2="76.0005" y2="9.765625e-04">
	<stop  offset="0" style="stop-color:#FFCD02"/>
	<stop  offset="1" style="stop-color:#FFDB4C"/>
</linearGradient>
<circle fill="url(#SVGID_1_)" cx="76" cy="76" r="76"/>
<linearGradient id="SVGID_2_" gradientUnits="userSpaceOnUse" x1="86.6367" y1="-11.4526" x2="83.2331" y2="-24.1549" gradientTransform="matrix(0.9659 0.2588 -0.2588 0.9659 -43.5645 27.5811)">
	<stop  offset="0" style="stop-color:#4A4A4A"/>
	<stop  offset="1" style="stop-color:#2B2B2B"/>
</linearGradient>
<path fill="url(#SVGID_2_)" d="M25.5,37.204c-0.094,0.84,0.461,1.617,1.298,1.732c1.152,0.157,9.532-4.875,20.197-6.026
	c5.339-0.576,6.289-0.292,10.165,0.007c2.711,0.21,4.058-0.92,3.303-2.804c-1.227-3.06-8.542-4.899-15.203-4.162
	C35.817,26.997,26.017,32.558,25.5,37.204z"/>
<linearGradient id="SVGID_3_" gradientUnits="userSpaceOnUse" x1="-251.4492" y1="79.1328" x2="-254.8528" y2="66.4305" gradientTransform="matrix(-0.9659 0.2588 0.2588 0.9659 -154.4355 27.5811)">
	<stop  offset="0" style="stop-color:#4A4A4A"/>
	<stop  offset="1" style="stop-color:#2B2B2B"/>
</linearGradient>
<path fill="url(#SVGID_3_)" d="M126.5,37.204c0.094,0.84-0.462,1.617-1.299,1.732c-1.152,0.157-9.532-4.875-20.197-6.026
	c-5.339-0.576-6.289-0.292-10.165,0.007c-2.711,0.21-4.058-0.92-3.303-2.804c1.227-3.06,8.542-4.899,15.203-4.162
	C116.183,26.997,125.983,32.558,126.5,37.204z"/>
<linearGradient id="SVGID_4_" gradientUnits="userSpaceOnUse" x1="75.8296" y1="125.4434" x2="75.8296" y2="118.0986">
	<stop  offset="0" style="stop-color:#4A4A4A"/>
	<stop  offset="1" style="stop-color:#2B2B2B"/>
</linearGradient>
<path fill="url(#SVGID_4_)" d="M92.396,121.771c0,2.027-1.644,3.672-3.672,3.672H62.935c-2.028,0-3.672-1.645-3.672-3.672l0,0
	c0-2.028,1.644-3.673,3.672-3.673h25.789C90.752,118.099,92.396,119.743,92.396,121.771L92.396,121.771z"/>
<circle fill="#F7F7F7" cx="42.355" cy="75.488" r="24.593"/>
<linearGradient id="SVGID_5_" gradientUnits="userSpaceOnUse" x1="42.355" y1="83.8564" x2="42.355" y2="67.1196">
	<stop  offset="0" style="stop-color:#4A4A4A"/>
	<stop  offset="1" style="stop-color:#2B2B2B"/>
</linearGradient>
<circle fill="url(#SVGID_5_)" cx="42.355" cy="75.488" r="8.368"/>
<circle fill="#F7F7F7" cx="109.645" cy="75.488" r="24.593"/>
<linearGradient id="SVGID_6_" gradientUnits="userSpaceOnUse" x1="-351.6445" y1="83.8574" x2="-351.6445" y2="67.1191" gradientTransform="matrix(-1 0 0 1 -242 0)">
	<stop  offset="0" style="stop-color:#4A4A4A"/>
	<stop  offset="1" style="stop-color:#2B2B2B"/>
</linearGradient>
<circle fill="url(#SVGID_6_)" cx="109.645" cy="75.488" r="8.369"/>
</svg>
