<?xml version="1.0" encoding="utf-8"?>
<!-- Generator: Adobe Illustrator 16.0.5, SVG Export Plug-In . SVG Version: 6.00 Build 0)  -->
<!DOCTYPE svg PUBLIC "-//W3C//DTD SVG 1.1//EN" "http://www.w3.org/Graphics/SVG/1.1/DTD/svg11.dtd">
<svg version="1.1" id="Layer_1" xmlns="http://www.w3.org/2000/svg" xmlns:xlink="http://www.w3.org/1999/xlink" x="0px" y="0px"
	 width="152px" height="152px" viewBox="0 0 152 152" enable-background="new 0 0 152 152" xml:space="preserve">
<linearGradient id="SVGID_1_" gradientUnits="userSpaceOnUse" x1="372" y1="-282.9995" x2="372" y2="-131" gradientTransform="matrix(1 0 0 -1 -296 -131)">
	<stop  offset="0" style="stop-color:#FFCD02"/>
	<stop  offset="1" style="stop-color:#FFDB4C"/>
</linearGradient>
<rect fill="url(#SVGID_1_)" width="152" height="152"/>
<linearGradient id="SVGID_2_" gradientUnits="userSpaceOnUse" x1="902.6113" y1="147.6201" x2="902.6113" y2="169.6445" gradientTransform="matrix(1 0 0 -1 -826.6113 267)">
	<stop  offset="0" style="stop-color:#4A4A4A"/>
	<stop  offset="1" style="stop-color:#2B2B2B"/>
</linearGradient>
<path fill="url(#SVGID_2_)" d="M76,109.445c21.848,0,32-12.889,34.454-12.051c0.892,0.304,1.382,1.293,1.052,2.178
	c-1.218,3.27-15.363,19.808-35.506,19.808c-20.141,0-34.288-16.538-35.506-19.808c-0.33-0.885,0.161-1.874,1.052-2.178
	C44.001,96.559,54.152,109.445,76,109.445z"/>
<path fill="#2B2B2B" d="M76,59.885c1.877,0,2.523,5.438,8.71,15.99c7.499,12.792,31.046,14.669,41.026,5.544
	c6.627-6.058,6.74-20.724,12.209-24.612c2.326-1.653,3.125-3.105,3.125-6.175c-0.002-2.976-1.854-5.373-5.522-5.373
	c-48.116,0-45.983,6.737-59.548,6.737c-13.565,0-11.432-6.737-59.547-6.737c-3.668,0-5.522,2.397-5.522,5.373
	c0,3.07,0.798,4.522,3.124,6.175c5.47,3.888,5.412,17.529,12.039,23.587c9.981,9.125,33.341,10.236,41.198-4.52
	C73.039,65.079,74.124,59.885,76,59.885z"/>
<linearGradient id="SVGID_3_" gradientUnits="userSpaceOnUse" x1="319.9111" y1="-188.8398" x2="319.9111" y2="-188.498" gradientTransform="matrix(1 0 0 -1 -296 -131)">
	<stop  offset="0" style="stop-color:#4A4A4A"/>
	<stop  offset="1" style="stop-color:#2B2B2B"/>
</linearGradient>
<ellipse fill="url(#SVGID_3_)" cx="23.911" cy="57.669" rx="0" ry="0.171"/>
<linearGradient id="SVGID_4_" gradientUnits="userSpaceOnUse" x1="341.5996" y1="-181.8945" x2="341.5996" y2="-213.3198" gradientTransform="matrix(1 0 0 -1 -296 -131)">
	<stop  offset="0" style="stop-color:#4A4A4A"/>
	<stop  offset="1" style="stop-color:#2B2B2B"/>
</linearGradient>
<path fill="url(#SVGID_4_)" d="M67.231,61.155c-1.027,5.768-6.636,23.096-24.383,20.988C24.661,79.98,25,69.618,24.206,62.861
	c-1.25-10.635,1.353-12.189,9.946-11.943C62.059,51.714,67.97,57.003,67.231,61.155z"/>
<linearGradient id="SVGID_5_" gradientUnits="userSpaceOnUse" x1="-653.4004" y1="-181.8945" x2="-653.4004" y2="-213.3188" gradientTransform="matrix(-1 0 0 -1 -547 -131)">
	<stop  offset="0" style="stop-color:#4A4A4A"/>
	<stop  offset="1" style="stop-color:#2B2B2B"/>
</linearGradient>
<path fill="url(#SVGID_5_)" d="M84.77,61.155c1.026,5.768,6.637,23.096,24.383,20.988C127.34,79.98,127,69.618,127.794,62.861
	c1.251-10.635-1.353-12.189-9.946-11.943C89.941,51.714,84.029,57.003,84.77,61.155z"/>
</svg>
