<?xml version="1.0" encoding="utf-8"?>
<!-- Generator: Adobe Illustrator 16.0.5, SVG Export Plug-In . SVG Version: 6.00 Build 0)  -->
<!DOCTYPE svg PUBLIC "-//W3C//DTD SVG 1.1//EN" "http://www.w3.org/Graphics/SVG/1.1/DTD/svg11.dtd">
<svg version="1.1" id="Layer_1" xmlns="http://www.w3.org/2000/svg" xmlns:xlink="http://www.w3.org/1999/xlink" x="0px" y="0px"
	 width="388px" height="388px" viewBox="125.5 385.5 388 388" enable-background="new 125.5 385.5 388 388" xml:space="preserve">
<g>
	<g>
		
			<linearGradient id="SVGID_1_" gradientUnits="userSpaceOnUse" x1="776.5801" y1="1252.1572" x2="776.5801" y2="1000.4219" gradientTransform="matrix(1 0 0 1 -457.0801 -546.79)">
			<stop  offset="0" style="stop-color:#F7F7F7"/>
			<stop  offset="1" style="stop-color:#FFFFFF"/>
		</linearGradient>
		<path fill="url(#SVGID_1_)" d="M465.5,533.731c0,28.088-14.567,55.796-50.339,88.692c-50.73,46.657-90.616,82.943-95.661,82.943
			c-5.02,0-44.9-36.286-95.66-82.942c-35.75-32.897-50.34-60.604-50.34-88.692c0-57.213,43.031-80.101,77.34-80.101
			c27.129,0,57.223,20.032,68.66,45.768c11.459-25.729,41.533-45.768,68.651-45.768C422.493,453.631,465.5,476.52,465.5,533.731z"/>
		<linearGradient id="SVGID_2_" gradientUnits="userSpaceOnUse" x1="319.5" y1="453.6318" x2="319.5" y2="705.3672">
			<stop  offset="0" style="stop-color:#777777"/>
			<stop  offset="0.1713" style="stop-color:#727272"/>
			<stop  offset="0.3856" style="stop-color:#626262"/>
			<stop  offset="0.6226" style="stop-color:#494949"/>
			<stop  offset="0.8745" style="stop-color:#252525"/>
			<stop  offset="1" style="stop-color:#111111"/>
		</linearGradient>
		<path fill="url(#SVGID_2_)" d="M388.153,456.632c18.247,0,36.325,6.516,49.601,17.876c16.189,13.854,24.746,34.333,24.746,59.224
			c0,13.917-3.721,27.354-11.375,41.082c-8.058,14.449-20.485,29.3-37.995,45.402c-26.594,24.459-47.583,43.639-63.572,57.743
			c-21.606,19.058-28.127,23.511-30.056,24.323c-1.926-0.815-8.441-5.273-30.046-24.33c-15.933-14.054-36.143-32.511-63.585-57.735
			c-17.504-16.107-29.93-30.959-37.987-45.403c-7.66-13.732-11.384-27.17-11.384-41.081c0-24.89,8.56-45.37,24.754-59.226
			c13.277-11.359,31.35-17.875,49.585-17.875c26.002,0,54.957,19.321,65.919,43.986l2.738,6.162l2.743-6.16
			C333.226,475.954,362.178,456.632,388.153,456.632L388.153,456.632 M388.151,453.632c-27.118,0-57.192,20.038-68.651,45.768
			c-11.438-25.735-41.531-45.768-68.66-45.768c-34.309,0-77.34,22.888-77.34,80.101c0,28.088,14.59,55.795,50.34,88.692
			c50.76,46.656,90.641,82.942,95.66,82.942c5.045,0,44.931-36.286,95.661-82.943c35.771-32.896,50.339-60.604,50.339-88.692
			C465.5,476.52,422.493,453.631,388.151,453.632L388.151,453.632z"/>
	</g>
</g>
</svg>
