<?xml version="1.0" encoding="utf-8"?>
<!-- Copyright © 2014 Brian Speir. All rights reserved.  -->
<!DOCTYPE svg PUBLIC "-//W3C//DTD SVG 1.1//EN" "http://www.w3.org/Graphics/SVG/1.1/DTD/svg11.dtd">
<svg version="1.1" id="Layer_1" xmlns="http://www.w3.org/2000/svg" xmlns:xlink="http://www.w3.org/1999/xlink" x="0px" y="0px"
	 width="222px" height="203px" viewBox="0 0 222 203" enable-background="new 0 0 222 203" xml:space="preserve">
<g>
	<path fill="#111111" d="M108.871,133.5C84.321,133.5,69,111.012,69,98.108c0-2.474,2.006-4.479,4.48-4.479
		c17.695,0,53.086,0,70.782,0c2.475,0,4.48,2.005,4.48,4.479C148.742,111.012,133.419,133.5,108.871,133.5z"/>
	<g>
		<path fill="#111111" d="M129.208,73.201c-1.021,0-2.017,0.101-2.979,0.292c-4.439-4.443-10.58-7.19-17.355-7.19
			c-9.569,0-17.861,5.475-21.91,13.464c-5.73,1.93-10.514,5.918-13.473,11.085h5.367c0.539-0.704,1.125-1.375,1.759-2.007
			c1.844-1.845,3.992-3.293,6.38-4.303c2.473-1.044,5.1-1.575,7.812-1.575c2.71,0,5.339,0.531,7.811,1.575
			c2.138,0.904,4.081,2.159,5.79,3.735c-0.601,0.801-1.121,1.663-1.556,2.575h5.226c0.28-0.372,0.596-0.726,0.933-1.063
			c1.604-1.604,3.631-2.639,5.823-3.003c0.521,1.275,0.791,2.648,0.791,4.066h4.479c0-8.413-6.816-15.232-15.229-15.232
			c-3.576,0-6.866,1.233-9.465,3.298c-1.491-0.284-3.03-0.431-4.602-0.431c-0.604,0-1.2,0.022-1.796,0.064
			c0.515-0.662,1.07-1.292,1.671-1.891c1.845-1.845,3.992-3.292,6.38-4.303c2.472-1.044,5.101-1.575,7.811-1.575
			s5.338,0.531,7.812,1.575c2.39,1.011,4.532,2.458,6.381,4.303c1.846,1.844,3.293,3.992,4.305,6.38
			c1.044,2.472,1.572,5.1,1.572,7.812h5.565c0.341-0.737,0.525-1.557,0.525-2.42c0-2.082-1.095-3.908-2.733-4.938
			c-0.646-2.065-1.562-4.014-2.701-5.806c2.728,0.095,5.274,1.201,7.217,3.141c2.029,2.031,3.146,4.731,3.146,7.603
			c0,0.825-0.093,1.635-0.271,2.42h4.562c0.127-0.788,0.188-1.597,0.188-2.42C144.441,80.021,137.622,73.201,129.208,73.201z
			 M108.871,80.1c2.679,0,5.209,0.974,7.184,2.752c-1.623,0.509-3.13,1.281-4.468,2.267c-1.893-1.773-4.066-3.249-6.446-4.356
			C106.318,80.326,107.577,80.1,108.871,80.1z"/>
		<path fill="#111111" d="M94.804,87.805c-3.429,0-6.595,1.133-9.14,3.047h18.278C101.398,88.938,98.232,87.805,94.804,87.805z"/>
	</g>
	<polygon fill="#111111" points="79.107,66.515 83.743,65.435 81.78,69.772 84.237,73.847 79.507,73.319 76.389,76.918
		75.43,72.255 71.047,70.402 75.182,68.049 75.59,63.307 	"/>
	<polygon fill="#111111" points="91.268,47.209 95.717,45.521 94.35,50.081 97.331,53.792 92.572,53.9 89.964,57.881 88.39,53.39
		83.798,52.14 87.583,49.255 87.354,44.5 	"/>
	<polygon fill="#111111" points="106.039,54.04 107.296,49.448 110.176,53.238 114.93,53.014 112.216,56.924 113.898,61.377
		109.34,60.003 105.625,62.98 105.523,58.22 101.545,55.606 	"/>
</g>
<g opacity="0.2">
	<g>
		<rect x="148.742" fill="#00FFFF" width="1" height="4"/>
		<path fill="#00FFFF" d="M149.742,165.904h-1v-8.096h1V165.904z M149.742,149.714h-1v-8.096h1V149.714z M149.742,133.523h-1v-8.098
			h1V133.523z M149.742,117.333h-1v-8.097h1V117.333z M149.742,101.143h-1v-8.095h1V101.143z M149.742,84.952h-1v-8.095h1V84.952z
			 M149.742,68.762h-1v-8.095h1V68.762z M149.742,52.571h-1v-8.095h1V52.571z M149.742,36.381h-1v-8.095h1V36.381z M149.742,20.19
			h-1v-8.095h1V20.19z"/>
		<rect x="148.742" y="174" fill="#00FFFF" width="1" height="4"/>
	</g>
</g>
<g opacity="0.2">
	<g>
		<rect x="68" fill="#00FFFF" width="1" height="4"/>
		<path fill="#00FFFF" d="M69,165.904h-1v-8.096h1V165.904z M69,149.714h-1v-8.096h1V149.714z M69,133.523h-1v-8.098h1V133.523z
			 M69,117.333h-1v-8.097h1V117.333z M69,101.143h-1v-8.095h1V101.143z M69,84.952h-1v-8.095h1V84.952z M69,68.762h-1v-8.095h1
			V68.762z M69,52.571h-1v-8.095h1V52.571z M69,36.381h-1v-8.095h1V36.381z M69,20.19h-1v-8.095h1V20.19z"/>
		<rect x="68" y="174" fill="#00FFFF" width="1" height="4"/>
	</g>
</g>
<path opacity="0.2" fill="#FF00FF" enable-background="new    " d="M135.516,134.5h-8v-1h8V134.5z M119.516,134.5h-8v-1h8V134.5z
	 M103.516,134.5h-8v-1h8V134.5z M87.516,134.5h-8v-1h8V134.5z M71.516,134.5h-8v-1h8V134.5z M55.516,134.5h-8v-1h8V134.5z
	 M39.516,134.5h-8v-1h8V134.5z"/>
<path opacity="0.2" fill="#FF00FF" enable-background="new    " d="M135.516,44.5h-8v-1h8V44.5z M119.516,44.5h-8v-1h8V44.5z
	 M103.516,44.5h-8v-1h8V44.5z M87.516,44.5h-8v-1h8V44.5z M71.516,44.5h-8v-1h8V44.5z M55.516,44.5h-8v-1h8V44.5z M39.516,44.5h-8
	v-1h8V44.5z"/>
<path opacity="0.2" fill="#00FFFF" enable-background="new    " d="M214.24,150.75V133.5h-22V178h22v-17.25h-1V177h-20v-42.5h20
	v16.25H214.24z"/>
<path opacity="0.2" fill="#00FFFF" enable-background="new    " d="M148.74,177v22h14.75v-1h-13.75v-20h42.5v20h-13.75v1h14.75v-22
	H148.74z"/>
<polygon opacity="0.2" fill="#FF00FF" enable-background="new    " points="23.5,43.5 23.5,44.5 4.46,44.5 4.46,84 3.46,84
	3.46,43.5 "/>
<polygon opacity="0.2" fill="#FF00FF" enable-background="new    " points="4.46,133.5 23.5,133.5 23.5,134.5 3.46,134.5 3.46,94
	4.46,94 "/>
<g opacity="0.2">
	<path fill="#00FFFF" d="M207.877,158.6c0,0.174-0.062,0.326-0.189,0.461c-0.127,0.133-0.287,0.199-0.479,0.199
		c-0.188,0-0.348-0.064-0.477-0.195c-0.131-0.129-0.193-0.277-0.193-0.455c0-0.18,0.062-0.334,0.188-0.465
		c0.127-0.129,0.287-0.191,0.48-0.191s0.354,0.062,0.48,0.188C207.812,158.268,207.877,158.42,207.877,158.6z"/>
	<path fill="#00FFFF" d="M213.406,152.979h-2.92l-0.062,1.854c0.137-0.048,0.281-0.082,0.445-0.103
		c0.162-0.021,0.312-0.03,0.465-0.03c0.34,0,0.654,0.053,0.939,0.155c0.291,0.104,0.541,0.252,0.75,0.442
		c0.213,0.193,0.375,0.433,0.496,0.707c0.119,0.277,0.184,0.586,0.184,0.929c0,0.375-0.062,0.713-0.188,1.015
		c-0.127,0.301-0.304,0.556-0.521,0.766c-0.225,0.211-0.479,0.375-0.781,0.492c-0.299,0.114-0.627,0.175-0.979,0.175
		c-0.553,0-1.021-0.128-1.397-0.386c-0.381-0.256-0.668-0.603-0.86-1.035l0.881-0.351c0.113,0.287,0.291,0.519,0.535,0.688
		c0.241,0.176,0.524,0.262,0.844,0.262c0.207,0,0.4-0.035,0.58-0.108c0.185-0.072,0.338-0.177,0.474-0.312
		c0.133-0.136,0.235-0.293,0.312-0.479c0.076-0.188,0.114-0.396,0.114-0.621c0-0.267-0.045-0.498-0.135-0.692
		c-0.09-0.197-0.211-0.359-0.365-0.486c-0.151-0.127-0.329-0.219-0.528-0.276c-0.201-0.062-0.41-0.09-0.631-0.09
		c-0.267,0-0.539,0.034-0.82,0.106c-0.276,0.073-0.526,0.168-0.75,0.279l0.104-3.761h3.818L213.406,152.979L213.406,152.979z"/>
	<path fill="#00FFFF" d="M217.797,154.76l1.68-2.641h1.16l-2.26,3.351l2.57,3.729h-1.25l-1.941-2.979l-1.898,2.979h-1.221
		l2.529-3.75l-2.279-3.33h1.211L217.797,154.76z"/>
</g>
<g opacity="0.2">
	<path fill="#FF00FF" d="M4.004,88.1l1.68-2.64h1.16l-2.26,3.35l2.57,3.73h-1.25l-1.94-2.98l-1.9,2.98h-1.22l2.53-3.75l-2.28-3.33
		h1.21L4.004,88.1z"/>
</g>
<g opacity="0.2">
	<path fill="#00FFFF" d="M165.127,201.35c0,0.174-0.062,0.326-0.189,0.461c-0.127,0.133-0.287,0.199-0.479,0.199
		c-0.188,0-0.348-0.064-0.477-0.195c-0.131-0.129-0.193-0.277-0.193-0.455c0-0.18,0.062-0.334,0.188-0.465
		c0.127-0.129,0.287-0.191,0.48-0.191s0.354,0.062,0.48,0.188C165.062,201.018,165.127,201.17,165.127,201.35z"/>
	<path fill="#00FFFF" d="M170.656,195.729h-2.92l-0.062,1.854c0.137-0.048,0.281-0.082,0.445-0.103
		c0.162-0.021,0.312-0.03,0.465-0.03c0.34,0,0.654,0.053,0.939,0.155c0.291,0.104,0.541,0.252,0.75,0.442
		c0.213,0.193,0.375,0.433,0.496,0.707c0.119,0.277,0.184,0.586,0.184,0.929c0,0.375-0.062,0.713-0.188,1.015
		c-0.127,0.301-0.304,0.556-0.521,0.766c-0.225,0.211-0.479,0.375-0.781,0.492c-0.299,0.114-0.627,0.175-0.979,0.175
		c-0.553,0-1.021-0.128-1.397-0.386c-0.381-0.256-0.668-0.603-0.86-1.035l0.881-0.351c0.113,0.287,0.291,0.519,0.535,0.688
		c0.241,0.176,0.524,0.262,0.844,0.262c0.207,0,0.4-0.035,0.58-0.108c0.185-0.072,0.338-0.177,0.474-0.312
		c0.133-0.136,0.235-0.293,0.312-0.479c0.076-0.188,0.114-0.396,0.114-0.621c0-0.267-0.045-0.498-0.135-0.692
		c-0.09-0.197-0.211-0.359-0.365-0.486c-0.151-0.127-0.329-0.219-0.528-0.276c-0.201-0.062-0.41-0.09-0.631-0.09
		c-0.267,0-0.539,0.034-0.82,0.106c-0.276,0.073-0.526,0.168-0.75,0.279l0.104-3.761h3.818L170.656,195.729L170.656,195.729z"/>
	<path fill="#00FFFF" d="M175.047,197.51l1.68-2.641h1.16l-2.26,3.351l2.57,3.729h-1.25l-1.941-2.979l-1.898,2.979h-1.221
		l2.529-3.75l-2.279-3.33h1.211L175.047,197.51z"/>
</g>
<g opacity="0.2">
	<rect x="188.992" y="133.5" fill="#00FFFF" width="4" height="1"/>
	<path fill="#00FFFF" d="M181.361,134.5h-7.631v-1h7.631V134.5z M166.1,134.5h-7.631v-1h7.631V134.5z M150.84,134.5h-7.631v-1h7.631
		V134.5z"/>
</g>
<g opacity="0.2">
	<rect x="188.992" y="43.5" fill="#00FFFF" width="4" height="1"/>
	<path fill="#00FFFF" d="M181.361,44.5h-7.631v-1h7.631V44.5z M166.1,44.5h-7.631v-1h7.631V44.5z M150.84,44.5h-7.631v-1h7.631V44.5
		z"/>
</g>
<path opacity="0.2" fill="#00FFFF" enable-background="new    " d="M193.242,178H24.5V0h168.742V178z M25.5,177h166.742V1H25.5V177z
	"/>
</svg>
