<?xml version="1.0" encoding="utf-8"?>
<!-- Copyright © 2014 Brian Speir. All rights reserved.  -->
<!DOCTYPE svg PUBLIC "-//W3C//DTD SVG 1.1//EN" "http://www.w3.org/Graphics/SVG/1.1/DTD/svg11.dtd">
<svg version="1.1" id="Quotes" xmlns="http://www.w3.org/2000/svg" xmlns:xlink="http://www.w3.org/1999/xlink" x="0px" y="0px"
	 width="44px" height="44px" viewBox="0 0 44 44" enable-background="new 0 0 44 44" xml:space="preserve">
<path id="Pair" fill="#4B4B4B" d="M4.029,16.375C6.715,11.865,11.564,7.736,18.58,4l1.318,2.545
	c-3.511,2.569-6.103,4.724-7.787,6.461c-2.957,3.135-4.435,6.133-4.435,9.003c0,0.98,0.271,2.658,0.819,2.959
	c0.549,0.337,1.024,0.509,1.423,0.509c1.392-0.187,2.304-0.28,2.742-0.28c2.338,0,4.26,0.875,5.759,2.629
	c1.498,1.757,2.243,3.883,2.243,6.37c0,2.797-0.819,5.131-2.465,6.996C16.554,43.065,14.29,44,11.404,44
	c-3.401,0-6.154-1.257-8.25-3.767C1.051,37.724,0,34.369,0,30.183C0,26.174,1.344,20.886,4.029,16.375z M27.613,16.062
	C30.459,11.573,35.228,7.551,41.918,4l1.313,2.546c-3.285,2.381-5.811,4.475-7.561,6.29c-3.109,3.213-4.662,6.195-4.662,8.949
	c0,0.79,0.201,2.467,0.603,2.954c0.402,0.494,0.951,0.738,1.644,0.738c1.389-0.186,2.305-0.28,2.742-0.28
	c2.306,0,4.21,0.871,5.73,2.604C43.239,29.535,44,31.673,44,34.197c0,2.947-0.841,5.318-2.521,7.11
	C39.796,43.101,37.511,44,34.626,44c-3.285,0-5.993-1.257-8.108-3.767c-2.124-2.51-3.179-5.864-3.179-10.049
	C23.339,25.951,24.761,20.56,27.613,16.062z"/>
</svg>
