<?xml version="1.0" encoding="utf-8"?>
<!-- Copyright (C) 2014 Brian Speir. All rights reserved. -->
<!DOCTYPE svg PUBLIC "-//W3C//DTD SVG 1.1//EN" "http://www.w3.org/Graphics/SVG/1.1/DTD/svg11.dtd">
<svg version="1.1" id="Layer_1" xmlns="http://www.w3.org/2000/svg" xmlns:xlink="http://www.w3.org/1999/xlink" x="0px" y="0px"
	 width="96px" height="64px" viewBox="0 0 96 64" enable-background="new 0 0 96 64" xml:space="preserve">
<path fill="#929292" d="M60.793,10.578c2.994,0,5.953,1.063,8.121,2.918c2.664,2.279,4.016,5.549,4.016,9.72
	c0,4.748-2.637,9.293-8.553,14.733c-5.162,4.748-13.486,12.4-16.127,14.344c-2.636-1.941-10.961-9.594-16.126-14.344
	c-5.916-5.442-8.554-9.986-8.554-14.733c0-4.17,1.351-7.44,4.015-9.721c2.167-1.854,5.126-2.917,8.118-2.917
	c4.152,0,8.961,3.219,10.72,7.175l1.826,4.108l1.829-4.107C51.84,13.797,56.646,10.578,60.793,10.578 M60.793,8.578
	c-4.953,0-10.449,3.659-12.543,8.362c-2.091-4.703-7.59-8.362-12.547-8.362c-6.271,0-14.133,4.182-14.133,14.638
	c0,5.132,2.665,10.193,9.199,16.206c9.274,8.525,16.561,15.156,17.48,15.156s8.209-6.631,17.48-15.156
	c6.535-6.013,9.199-11.074,9.199-16.206C74.93,12.76,67.068,8.578,60.793,8.578L60.793,8.578z"/>
</svg>
