<?xml version="1.0" encoding="utf-8"?>
<!-- Copyright © 2014 Brian Speir. All rights reserved.  -->
<!DOCTYPE svg PUBLIC "-//W3C//DTD SVG 1.1//EN" "http://www.w3.org/Graphics/SVG/1.1/DTD/svg11.dtd">
<svg version="1.1" id="Sites" xmlns="http://www.w3.org/2000/svg" xmlns:xlink="http://www.w3.org/1999/xlink" x="0px" y="0px"
	 width="44px" height="44px" viewBox="0 0 44 44" enable-background="new 0 0 44 44" xml:space="preserve">
<path id="Browser_1_" fill="#4B4B4B" d="M42,4H2C0.92,4,0,4.92,0,6v36c0,1.08,0.92,2,2,2h40.04c1.08,0,1.96-0.88,1.96-1.96V6
	C44,4.92,43.08,4,42,4z M15.5,6C16.33,6,17,6.67,17,7.5S16.33,9,15.5,9S14,8.33,14,7.5S14.67,6,15.5,6z M10,6
	c0.83,0,1.5,0.67,1.5,1.5S10.83,9,10,9S8.5,8.33,8.5,7.5S9.17,6,10,6z M4.5,6C5.33,6,6,6.67,6,7.5S5.33,9,4.5,9S3,8.33,3,7.5
	S3.67,6,4.5,6z M42,41c0,0.62-0.38,1-1,1H3c-0.62,0-1-0.38-1-1V11h40V41z"/>
</svg>
