<?xml version="1.0" encoding="utf-8"?>
<!-- Generator: Adobe Illustrator 16.0.5, SVG Export Plug-In . SVG Version: 6.00 Build 0)  -->
<!DOCTYPE svg PUBLIC "-//W3C//DTD SVG 1.1//EN" "http://www.w3.org/Graphics/SVG/1.1/DTD/svg11.dtd">
<svg version="1.1" id="Layer_1" xmlns="http://www.w3.org/2000/svg" xmlns:xlink="http://www.w3.org/1999/xlink" x="0px" y="0px"
	 width="1000px" height="1000px" viewBox="0 0 1000 1000" enable-background="new 0 0 1000 1000" xml:space="preserve">
<g>
	<path d="M907.164,733.505c-1.252,3.585-20.998,71.808-69.258,142.254c-41.68,60.96-84.954,121.674-153.097,122.91
		c-66.953,1.264-88.507-39.733-165.007-39.733c-76.62,0-100.579,38.497-163.889,40.997
		c-65.781,2.504-115.896-65.873-157.916-126.583c-85.895-124.181-151.444-350.904-63.325-503.815
		c43.674-76.039,121.967-124.146,206.889-125.412c64.636-1.206,125.535,43.44,165.055,43.44c39.51,0,113.539-53.729,191.431-45.851
		c32.569,1.391,124.086,13.132,182.916,99.182c-4.7,2.965-109.238,63.803-108.097,190.296
		C774.211,682.554,905.636,732.918,907.164,733.505z M646.992,159.679C682.015,117.319,705.498,58.52,699.055,0
		C648.753,1.855,587.794,33.492,551.72,75.73c-32.335,37.448-60.737,97.327-53.029,154.641
		C554.762,234.76,612.121,201.854,646.992,159.679z"/>
</g>
</svg>
