<?xml version="1.0" encoding="utf-8"?>
<!-- Generator: Adobe Illustrator 16.0.5, SVG Export Plug-In . SVG Version: 6.00 Build 0)  -->
<!DOCTYPE svg PUBLIC "-//W3C//DTD SVG 1.1//EN" "http://www.w3.org/Graphics/SVG/1.1/DTD/svg11.dtd">
<svg version="1.1" id="Layer_1" xmlns="http://www.w3.org/2000/svg" xmlns:xlink="http://www.w3.org/1999/xlink" x="0px" y="0px"
	 width="1000px" height="889px" viewBox="0 0 1000 889" enable-background="new 0 0 1000 889" xml:space="preserve">
<path fill="none" stroke="#000000" stroke-miterlimit="10" d="M499.992,888.5H789.09V304.081c0,0,121.675-1.674,168.376-2.435
	l41.937-163.768c-37.592-13.455-200.785-80.313-200.785-80.313L618.566,0.55c0,0-42.775,29.005-118.574,29.005
	c-75.81,0-118.664-29.005-118.664-29.005L201.304,57.565c0,0-163.167,66.858-200.706,80.313l41.884,163.768
	c46.701,0.76,168.375,2.435,168.375,2.435V888.5H499.992z"/>
<path d="M499.992,888.5H789.09V304.081c0,0,121.675-1.674,168.376-2.435l41.937-163.768
	c-37.592-13.455-200.785-80.313-200.785-80.313L618.566,0.55c0,0-42.775,29.005-118.574,29.005
	c-75.81,0-118.664-29.005-118.664-29.005L201.304,57.565c0,0-163.167,66.858-200.706,80.313l41.884,163.768
	c46.701,0.76,168.375,2.435,168.375,2.435V888.5H499.992z"/>
<path fill="none" d="M646,7.959c-11.412,74.789-71.727,125.705-146.008,125.601c-74.317,0.104-134.659-50.812-146.071-125.601"/>
<path fill="none" d="M618.566,0.55c-8.9,61.02-58.011,106.465-118.574,106.412C439.417,107.016,390.308,61.57,381.329,0.55"/>
<path fill="none" stroke="#000000" stroke-miterlimit="10" d="M609.927,32.173c-16.544,8.272-54.555,23.77-109.935,23.77
	c-55.392,0-93.427-15.497-109.947-23.77"/>
<path fill="none" d="M201.304,57.565c7.904,17.408,36.675,55.576,36.675,129.815c0,74.268-27.251,117.696-27.251,117.696"/>
<path fill="none" d="M798.617,57.565c-7.904,17.408-36.647,55.576-36.647,129.815c0,74.268,27.276,117.696,27.276,117.696"/>
<g>
	<path fill="#FFFFFF" d="M328.515,252.304c1.15-0.2,2.875-0.35,4.649-0.35c2.424,0,4.074,0.4,5.199,1.35
		c0.925,0.775,1.45,1.949,1.45,3.374c0,2.174-1.475,3.649-3.049,4.224v0.075c1.2,0.45,1.925,1.625,2.35,3.25
		c0.525,2.099,0.975,4.049,1.325,4.699h-3.174c-0.25-0.5-0.65-1.875-1.125-3.974c-0.475-2.199-1.275-2.899-3.024-2.949h-1.55v6.923
		h-3.049V252.304z M331.564,259.752h1.825c2.074,0,3.374-1.1,3.374-2.774c0-1.85-1.3-2.699-3.299-2.699
		c-0.975,0-1.6,0.075-1.899,0.15V259.752z"/>
	<path fill="#FFFFFF" d="M353.512,265.276c0,1.45,0.05,2.649,0.1,3.649h-2.699l-0.15-1.85h-0.05
		c-0.525,0.875-1.725,2.125-3.899,2.125c-2.225,0-4.249-1.325-4.249-5.299v-7.148h3.074v6.623c0,2.025,0.65,3.324,2.274,3.324
		c1.225,0,2.024-0.875,2.35-1.649c0.1-0.275,0.175-0.6,0.175-0.95v-7.348h3.074V265.276z"/>
	<path fill="#FFFFFF" d="M356.839,260.377c0-1.4-0.025-2.574-0.1-3.624h2.649l0.125,1.799h0.075c0.6-0.95,1.7-2.074,3.749-2.074
		c1.6,0,2.85,0.899,3.374,2.25h0.05c0.425-0.675,0.925-1.175,1.5-1.525c0.675-0.475,1.45-0.725,2.449-0.725
		c2.025,0,4.074,1.375,4.074,5.273v7.173h-2.999v-6.723c0-2.025-0.7-3.225-2.175-3.225c-1.05,0-1.824,0.75-2.149,1.625
		c-0.075,0.3-0.15,0.675-0.15,1.024v7.298h-3v-7.048c0-1.7-0.675-2.899-2.099-2.899c-1.15,0-1.925,0.9-2.2,1.75
		c-0.125,0.3-0.175,0.65-0.175,1v7.198h-3V260.377z"/>
	<path fill="#FFFFFF" d="M389.611,262.727c0,4.474-3.149,6.473-6.249,6.473c-3.449,0-6.098-2.375-6.098-6.273
		c0-3.999,2.624-6.448,6.298-6.448C387.187,256.479,389.611,259.028,389.611,262.727z M380.438,262.852
		c0,2.35,1.15,4.124,3.024,4.124c1.75,0,2.974-1.725,2.974-4.174c0-1.899-0.85-4.074-2.949-4.074
		C381.313,258.728,380.438,260.827,380.438,262.852z"/>
	<path fill="#FFFFFF" d="M392.139,260.677c0-1.649-0.025-2.824-0.1-3.924h2.674l0.1,2.324h0.1c0.6-1.725,2.024-2.599,3.324-2.599
		c0.3,0,0.475,0.025,0.725,0.075v2.899c-0.25-0.05-0.525-0.1-0.9-0.1c-1.475,0-2.475,0.95-2.75,2.325c-0.05,0.275-0.1,0.6-0.1,0.95
		v6.298h-3.074V260.677z"/>
	<path fill="#FFFFFF" d="M406.213,251.18h3.1v7.248h0.05c0.375-0.575,0.875-1.05,1.524-1.399c0.6-0.35,1.325-0.55,2.1-0.55
		c2.075,0,4.249,1.375,4.249,5.273v7.173h-3.074v-6.823c0-1.774-0.65-3.099-2.35-3.099c-1.2,0-2.049,0.8-2.374,1.724
		c-0.1,0.25-0.125,0.575-0.125,0.925v7.273h-3.1V251.18z"/>
	<path fill="#FFFFFF" d="M427.362,268.925l-0.2-1.35h-0.075c-0.75,0.95-2.024,1.625-3.599,1.625c-2.45,0-3.824-1.774-3.824-3.624
		c0-3.074,2.724-4.624,7.223-4.599v-0.2c0-0.8-0.325-2.125-2.474-2.125c-1.2,0-2.45,0.375-3.274,0.9l-0.6-2
		c0.899-0.55,2.474-1.075,4.399-1.075c3.899,0,5.023,2.474,5.023,5.124v4.399c0,1.1,0.05,2.174,0.175,2.924H427.362z
		 M426.962,262.977c-2.175-0.05-4.249,0.425-4.249,2.274c0,1.2,0.775,1.75,1.75,1.75c1.225,0,2.125-0.8,2.399-1.675
		c0.075-0.225,0.1-0.475,0.1-0.675V262.977z"/>
	<path fill="#FFFFFF" d="M433.063,266.101c0.7,0.425,2.024,0.875,3.125,0.875c1.35,0,1.949-0.55,1.949-1.35
		c0-0.825-0.5-1.25-2-1.774c-2.375-0.825-3.374-2.125-3.349-3.549c0-2.149,1.774-3.824,4.599-3.824c1.35,0,2.524,0.35,3.224,0.725
		l-0.6,2.174c-0.525-0.3-1.5-0.7-2.574-0.7c-1.1,0-1.7,0.525-1.7,1.275c0,0.774,0.575,1.149,2.125,1.699
		c2.2,0.8,3.224,1.925,3.25,3.724c0,2.2-1.725,3.799-4.949,3.799c-1.475,0-2.799-0.35-3.699-0.85L433.063,266.101z"/>
	<path fill="#FFFFFF" d="M452.087,253.354c0,0.925-0.675,1.65-1.75,1.65c-1.025,0-1.7-0.725-1.7-1.65c0-0.95,0.7-1.674,1.725-1.674
		C451.412,251.68,452.062,252.404,452.087,253.354z M448.812,268.925v-12.172h3.1v12.172H448.812z"/>
	<path fill="#FFFFFF" d="M455.062,266.101c0.7,0.425,2.024,0.875,3.125,0.875c1.35,0,1.949-0.55,1.949-1.35
		c0-0.825-0.5-1.25-2-1.774c-2.374-0.825-3.374-2.125-3.349-3.549c0-2.149,1.775-3.824,4.599-3.824c1.35,0,2.524,0.35,3.224,0.725
		l-0.6,2.174c-0.525-0.3-1.5-0.7-2.574-0.7c-1.1,0-1.7,0.525-1.7,1.275c0,0.774,0.575,1.149,2.125,1.699
		c2.2,0.8,3.224,1.925,3.25,3.724c0,2.2-1.725,3.799-4.949,3.799c-1.475,0-2.8-0.35-3.699-0.85L455.062,266.101z"/>
	<path fill="#FFFFFF" d="M474.011,252.08v16.846h-3.074V252.08H474.011z"/>
	<path fill="#FFFFFF" d="M484.436,256.753l1.275,5.523c0.275,1.3,0.55,2.625,0.775,3.949h0.05c0.25-1.325,0.65-2.674,1-3.924
		l1.575-5.548h2.5l1.524,5.398c0.375,1.425,0.7,2.75,0.975,4.074h0.05c0.2-1.325,0.475-2.649,0.8-4.074l1.35-5.398h3.024
		l-3.824,12.172h-2.849l-1.45-4.949c-0.375-1.275-0.65-2.424-0.925-3.899h-0.05c-0.25,1.5-0.575,2.699-0.925,3.899l-1.55,4.949
		h-2.874l-3.599-12.172H484.436z"/>
	<path fill="#FFFFFF" d="M512.559,262.727c0,4.474-3.148,6.473-6.248,6.473c-3.449,0-6.099-2.375-6.099-6.273
		c0-3.999,2.624-6.448,6.298-6.448C510.135,256.479,512.559,259.028,512.559,262.727z M503.386,262.852
		c0,2.35,1.149,4.124,3.024,4.124c1.75,0,2.975-1.725,2.975-4.174c0-1.899-0.85-4.074-2.949-4.074
		C504.261,258.728,503.386,260.827,503.386,262.852z"/>
	<path fill="#FFFFFF" d="M515.086,260.677c0-1.649-0.024-2.824-0.1-3.924h2.675l0.1,2.324h0.101c0.6-1.725,2.023-2.599,3.324-2.599
		c0.299,0,0.475,0.025,0.725,0.075v2.899c-0.25-0.05-0.525-0.1-0.9-0.1c-1.475,0-2.475,0.95-2.749,2.325
		c-0.05,0.275-0.101,0.6-0.101,0.95v6.298h-3.074V260.677z"/>
	<path fill="#FFFFFF" d="M527.061,262.102h0.05c0.3-0.475,0.649-1,0.975-1.425l2.949-3.924h3.699l-4.499,4.974l5.148,7.198h-3.773
		l-3.5-5.374l-1.049,1.225v4.149h-3.074V251.18h3.074V262.102z"/>
	<path fill="#FFFFFF" d="M538.711,263.702c0.074,2.199,1.799,3.149,3.749,3.149c1.425,0,2.449-0.2,3.374-0.55l0.45,2.125
		c-1.05,0.425-2.499,0.75-4.249,0.75c-3.949,0-6.273-2.424-6.273-6.148c0-3.375,2.049-6.548,5.948-6.548
		c3.949,0,5.249,3.249,5.249,5.923c0,0.575-0.051,1.025-0.1,1.3H538.711z M544.06,261.552c0.024-1.125-0.476-2.975-2.524-2.975
		c-1.899,0-2.699,1.725-2.824,2.975H544.06z"/>
	<path fill="#FFFFFF" d="M560.658,251.18v14.321c0,1.25,0.051,2.6,0.1,3.424h-2.748l-0.125-1.924h-0.051
		c-0.725,1.35-2.199,2.199-3.974,2.199c-2.899,0-5.198-2.474-5.198-6.224c-0.025-4.074,2.523-6.498,5.447-6.498
		c1.676,0,2.875,0.7,3.425,1.6h0.05v-6.898H560.658z M557.584,261.827c0-0.25-0.025-0.55-0.074-0.8
		c-0.275-1.2-1.25-2.175-2.65-2.175c-1.975,0-3.074,1.75-3.074,4.024c0,2.224,1.1,3.849,3.05,3.849c1.249,0,2.35-0.85,2.649-2.175
		c0.074-0.275,0.1-0.575,0.1-0.9V261.827z"/>
	<path fill="#FFFFFF" d="M569.485,268.925v-9.873h-1.649v-2.299h1.649v-0.525c0-1.575,0.425-3.149,1.475-4.149
		c0.899-0.85,2.124-1.175,3.175-1.175c0.824,0,1.475,0.125,1.975,0.3l-0.226,2.375c-0.325-0.125-0.75-0.225-1.3-0.225
		c-1.524,0-2.049,1.275-2.049,2.774v0.625h2.674v2.299h-2.649v9.873H569.485z"/>
	<path fill="#FFFFFF" d="M588.408,262.727c0,4.474-3.149,6.473-6.249,6.473c-3.449,0-6.099-2.375-6.099-6.273
		c0-3.999,2.625-6.448,6.299-6.448C585.983,256.479,588.408,259.028,588.408,262.727z M579.234,262.852
		c0,2.35,1.15,4.124,3.025,4.124c1.749,0,2.974-1.725,2.974-4.174c0-1.899-0.85-4.074-2.949-4.074
		C580.109,258.728,579.234,260.827,579.234,262.852z"/>
	<path fill="#FFFFFF" d="M590.936,260.677c0-1.649-0.025-2.824-0.1-3.924h2.674l0.1,2.324h0.1c0.601-1.725,2.025-2.599,3.324-2.599
		c0.301,0,0.476,0.025,0.726,0.075v2.899c-0.25-0.05-0.524-0.1-0.899-0.1c-1.475,0-2.475,0.95-2.75,2.325
		c-0.05,0.275-0.1,0.6-0.1,0.95v6.298h-3.074V260.677z"/>
	<path fill="#FFFFFF" d="M608.51,264.151l-1.45,4.774h-3.175l5.398-16.846h3.925l5.474,16.846h-3.299l-1.525-4.774H608.51z
		 M613.333,261.827l-1.325-4.149c-0.324-1.025-0.6-2.175-0.85-3.149h-0.05c-0.25,0.975-0.5,2.149-0.8,3.149l-1.3,4.149H613.333z"/>
	<path fill="#FFFFFF" d="M620.784,260.802c0-1.6-0.05-2.899-0.1-4.049h2.699l0.149,1.875h0.051c0.899-1.375,2.324-2.149,4.174-2.149
		c2.799,0,5.123,2.399,5.123,6.198c0,4.399-2.773,6.523-5.548,6.523c-1.524,0-2.8-0.65-3.425-1.625h-0.05v6.298h-3.074V260.802z
		 M623.858,263.827c0,0.3,0.025,0.575,0.101,0.85c0.299,1.25,1.399,2.149,2.699,2.149c1.949,0,3.1-1.625,3.1-4.024
		c0-2.149-1.051-3.899-3.025-3.899c-1.274,0-2.449,0.925-2.749,2.274c-0.075,0.25-0.125,0.525-0.125,0.775V263.827z"/>
	<path fill="#FFFFFF" d="M635.409,260.802c0-1.6-0.05-2.899-0.1-4.049h2.699l0.149,1.875h0.051c0.899-1.375,2.324-2.149,4.174-2.149
		c2.799,0,5.124,2.399,5.124,6.198c0,4.399-2.774,6.523-5.549,6.523c-1.524,0-2.8-0.65-3.425-1.625h-0.05v6.298h-3.074V260.802z
		 M638.483,263.827c0,0.3,0.025,0.575,0.101,0.85c0.3,1.25,1.399,2.149,2.699,2.149c1.949,0,3.099-1.625,3.099-4.024
		c0-2.149-1.05-3.899-3.023-3.899c-1.275,0-2.45,0.925-2.75,2.274c-0.075,0.25-0.125,0.525-0.125,0.775V263.827z"/>
	<path fill="#FFFFFF" d="M650.034,251.18h3.1v17.746h-3.1V251.18z"/>
	<path fill="#FFFFFF" d="M658.634,263.702c0.075,2.199,1.8,3.149,3.749,3.149c1.425,0,2.449-0.2,3.374-0.55l0.45,2.125
		c-1.05,0.425-2.5,0.75-4.249,0.75c-3.949,0-6.273-2.424-6.273-6.148c0-3.375,2.049-6.548,5.948-6.548
		c3.949,0,5.249,3.249,5.249,5.923c0,0.575-0.05,1.025-0.101,1.3H658.634z M663.982,261.552c0.024-1.125-0.475-2.975-2.524-2.975
		c-1.899,0-2.699,1.725-2.824,2.975H663.982z"/>
	<path fill="#FFFFFF" d="M668.634,267.226c0-1.149,0.8-1.975,1.899-1.975c1.125,0,1.9,0.8,1.9,1.975c0,1.125-0.75,1.975-1.9,1.975
		C669.409,269.2,668.634,268.351,668.634,267.226z"/>
</g>
</svg>
