<?xml version="1.0" encoding="utf-8"?>
<!-- Copyright (C) 2014 Brian Speir. All rights reserved. -->
<!DOCTYPE svg PUBLIC "-//W3C//DTD SVG 1.1//EN" "http://www.w3.org/Graphics/SVG/1.1/DTD/svg11.dtd">
<svg version="1.1" id="Phone" xmlns="http://www.w3.org/2000/svg" xmlns:xlink="http://www.w3.org/1999/xlink" x="0px" y="0px"
	 width="120px" height="120px" viewBox="0.5 120.5 120 120" enable-background="new 0.5 120.5 120 120" xml:space="preserve">
<rect id="Screen" x="29" y="135" fill="#F7F7F7" width="63" height="91"/>
<path id="Body" fill="#777777" d="M94.507,231.633c0,4.896-3.987,8.867-8.905,8.867H35.4c-4.919,0-8.907-3.971-8.907-8.867V129.366
	c0-4.896,3.988-8.866,8.907-8.866h50.202c4.916,0,8.904,3.971,8.904,8.866L94.507,231.633L94.507,231.633z M90.925,136.469H30.077
	v88.062h60.848V136.469z"/>
<ellipse id="Home_Button" fill="#555555" cx="60.5" cy="231.664" rx="5.296" ry="5.271"/>
<path id="Earpiece_2_" fill="#555555" d="M65.251,130.889c0,0.342-0.278,0.619-0.622,0.619h-8.257c-0.344,0-0.623-0.277-0.623-0.619
	l0,0c0-0.344,0.279-0.621,0.623-0.621h8.257C64.973,130.268,65.251,130.545,65.251,130.889L65.251,130.889z"/>
<ellipse id="Front_Camera_2_" fill="#555555" cx="60.5" cy="126.237" rx="1.168" ry="1.162"/>
</svg>
