<?xml version="1.0" encoding="utf-8"?>
<!-- Copyright (C) 2014 Brian Speir. All rights reserved. -->
<!DOCTYPE svg PUBLIC "-//W3C//DTD SVG 1.1//EN" "http://www.w3.org/Graphics/SVG/1.1/DTD/svg11.dtd">
<svg version="1.1" id="Phone" xmlns="http://www.w3.org/2000/svg" xmlns:xlink="http://www.w3.org/1999/xlink" x="0px" y="0px"
	 width="120px" height="122px" viewBox="0 0 120 122" enable-background="new 0 0 120 122" xml:space="preserve">
<rect id="Screen" x="34" y="15.5" fill="#F7F7F7" width="52" height="91"/>
<g id="Body">
	<path fill="#FFFFFF" d="M40.4,121.5c-5.187,0-9.407-4.202-9.407-9.367V9.866c0-5.165,4.22-9.366,9.407-9.366h39.202
		c5.186,0,9.404,4.202,9.404,9.366l0.001,102.267c0,5.165-4.219,9.367-9.405,9.367H40.4z M84.425,104.531V17.469H35.577v87.062
		H84.425z"/>
	<path fill="#777777" d="M79.602,1c4.916,0,8.904,3.97,8.904,8.866l0.001,102.267c0,4.896-3.987,8.867-8.905,8.867H40.4
		c-4.919,0-8.907-3.971-8.907-8.867V9.866C31.493,4.97,35.481,1,40.4,1H79.602 M35.077,105.031h49.848V16.969H35.077V105.031
		 M79.602,0H40.4c-5.462,0-9.907,4.426-9.907,9.866v102.267c0,5.44,4.444,9.867,9.907,9.867h39.202c5.462,0,9.905-4.427,9.905-9.867
		L89.506,9.866C89.506,4.426,85.062,0,79.602,0L79.602,0z M36.077,17.969h47.848v86.062H36.077V17.969L36.077,17.969z"/>
</g>
<g id="Home_Button">
	<path fill="#555555" d="M60,107.893c2.369,0,4.296,1.916,4.296,4.271s-1.927,4.271-4.296,4.271c-2.369,0-4.296-1.916-4.296-4.271
		S57.631,107.893,60,107.893 M60,106.893c-2.925,0-5.296,2.36-5.296,5.271s2.371,5.271,5.296,5.271s5.296-2.36,5.296-5.271
		S62.925,106.893,60,106.893L60,106.893z"/>
</g>
<path id="Earpiece_2_" fill="#555555" d="M64.751,11.388c0,0.343-0.278,0.62-0.622,0.62h-8.257c-0.344,0-0.623-0.277-0.623-0.62l0,0
	c0-0.343,0.279-0.62,0.623-0.62h8.257C64.473,10.768,64.751,11.045,64.751,11.388L64.751,11.388z"/>
<ellipse id="Front_Camera_2_" fill="#555555" cx="60" cy="6.737" rx="1.168" ry="1.162"/>
</svg>
