<?xml version="1.0" encoding="utf-8"?>
<!-- Generator: Adobe Illustrator 16.0.5, SVG Export Plug-In . SVG Version: 6.00 Build 0)  -->
<!DOCTYPE svg PUBLIC "-//W3C//DTD SVG 1.1//EN" "http://www.w3.org/Graphics/SVG/1.1/DTD/svg11.dtd">
<svg version="1.1" id="Phone" xmlns="http://www.w3.org/2000/svg" xmlns:xlink="http://www.w3.org/1999/xlink" x="0px" y="0px"
	 width="32px" height="64px" viewBox="0 0 32 64" enable-background="new 0 0 32 64" xml:space="preserve">
<path id="Phone_1_" opacity="0.87" d="M25.884,0H6.115C2.75,0,0,2.901,0,6.442v51.115C0,61.099,2.75,64,6.115,64h19.769
	C29.245,64,32,61.099,32,57.558V6.442C32,2.901,29.245,0,25.884,0z M13.488,5.6h5.023c0.379,0,0.688,0.363,0.688,0.8
	c0,0.443-0.309,0.8-0.688,0.8h-5.023c-0.379,0-0.688-0.357-0.688-0.8C12.8,5.963,13.109,5.6,13.488,5.6z M16,61.866
	c-1.766,0-3.2-1.434-3.2-3.199s1.435-3.2,3.2-3.2s3.199,1.435,3.199,3.2S17.766,61.866,16,61.866z M30,53.333H2V10.667h28V53.333z"
	/>
</svg>
