<?xml version="1.0" encoding="utf-8"?>
<!-- Generator: Adobe Illustrator 16.0.4, SVG Export Plug-In . SVG Version: 6.00 Build 0)  -->
<!DOCTYPE svg PUBLIC "-//W3C//DTD SVG 1.1//EN" "http://www.w3.org/Graphics/SVG/1.1/DTD/svg11.dtd">
<svg version="1.1" id="Marks" xmlns="http://www.w3.org/2000/svg" xmlns:xlink="http://www.w3.org/1999/xlink" x="0px" y="0px"
	 width="914px" height="80px" viewBox="0 0 914 80" enable-background="new 0 0 914 80" xml:space="preserve">
<g id="right">
	<path fill="#FEECE2" d="M736.819,79.996c-0.709,0-1.423-0.107-2.131-0.323c-1.92-0.585-3.475-1.959-4.496-3.976
		c-2.417-4.769-1.871-13.298,1.461-22.813c3.228-9.226,9.626-16.792,16.825-22.696c-0.088-1.551-0.184-3.018-0.272-4.375
		c-0.013-0.191-0.025-0.379-0.037-0.564c-2.68,3.094-5.869,6.082-8.182,7.923c-4.418,3.516-10.535,7.168-14.592,4.612
		c-5.098-3.211-4.044-10.491-0.789-16.41l-1.19-1.126c-4.355,5.882-16.992,17.894-24.729,18.408c-3.151,0.21-4.839-1.367-5.7-2.726
		c-0.878-1.388-1.162-2.841-1.052-4.294c-5.031,4.13-10.649,7.629-14.809,8.169c-3.447,0.451-5.233-1.071-6.13-2.424
		c-0.942-1.423-1.222-3.196-0.809-5.125c0.898-4.193,5.074-9.085,10.898-12.767c6.087-3.852,17.368-7.447,21.981-4.592
		c0.069,0.041,0.136,0.087,0.199,0.138c0.07,0.055,0.135,0.114,0.194,0.177c1.841,1.887,0.189,4.273-1.62,6.479
		c-0.538,0.707-1.158,1.459-1.849,2.242c-2.313,2.874-5.668,7.281-3.919,10.044c0.356,0.565,0.905,1.13,2.371,1.034
		c7.17-0.476,21.321-14.797,22.967-18.369c0.246-0.535,0.735-0.918,1.313-1.029c0.577-0.113,1.173,0.062,1.602,0.467l3.847,3.641
		c0.632,0.598,0.754,1.559,0.292,2.296c-3.946,6.301-3.552,11.147-1.122,12.678c0.999,0.628,2.98,0.243,5.441-1.062
		c5.807-3.078,12.077-9.71,15.088-13.913c-0.087-3.115,0.144-4.517,0.968-5.396c0.443-0.474,1.039-0.735,1.676-0.735
		c1.285,0,2.281,0.657,2.665,1.756c0.461,1.318-0.258,3.261-1.613,5.419c0.066,1.495,0.179,3.199,0.284,4.812
		c0.04,0.617,0.082,1.257,0.124,1.916c7.939-5.77,16.367-9.623,22.357-11.561c0.022-0.008,0.046-0.015,0.069-0.022
		c4.586-1.652,9.538-2.575,12.809-1.706c0.656,0.163,1.244,0.403,1.737,0.738c0.059,0.038,0.114,0.08,0.169,0.125
		c0.053,0.044,0.103,0.091,0.149,0.14c1.855,1.891,0.194,4.284-1.621,6.495c-0.534,0.702-1.15,1.45-1.836,2.227
		c-2.314,2.873-5.674,7.284-3.923,10.049c0.358,0.566,0.922,1.133,2.371,1.035c3.021-0.201,7.95-3.129,13.523-8.034
		c5.139-4.522,8.786-8.908,9.443-10.335c0.246-0.535,0.735-0.918,1.313-1.029c0.571-0.113,1.174,0.062,1.602,0.467l3.846,3.641
		c0.632,0.598,0.754,1.559,0.292,2.296c-2.402,3.835-3.422,7.548-2.797,10.186c0.271,1.142,0.825,1.975,1.65,2.476
		c0.838,0.509,2.291,0.426,4.087-0.232c4.002-1.467,9.32-5.728,13.148-10.653c1.678-3.642,3.713-6.816,4.438-7.908
		c0.507-0.764,1.502-1.033,2.323-0.631c0.823,0.402,1.221,1.351,0.931,2.22c-0.931,2.787-2.528,5.585-4.495,8.192
		c-1.599,3.541-2.584,6.908-1.788,8.4c0.104,0.195,0.422,0.791,2.068,0.799c0.008,0,0.016,0,0.022,0
		c3.957,0,9.537-5.741,12.807-10.018c1.168-2.978,2.655-5.481,3.456-5.932c0.671-0.378,1.554-0.299,2.138,0.208
		c0.521,0.45,1.028,1.316,0.447,2.869c-0.358,0.956-1.366,2.662-2.805,4.626c-0.937,2.429-1.643,5.154-1.081,6.677
		c0.155,0.42,0.404,0.727,1.116,0.851c2.576,0.457,6.454-0.967,10.109-3.71c5.266-3.95,8.854-9.483,9.731-14.947
		c0.043-0.307,0.082-0.599,0.117-0.868c0.13-0.993,1.025-1.695,2.029-1.578c0.995,0.12,1.708,1.018,1.598,2.013
		c-0.035,0.322-0.078,0.644-0.13,0.965c-0.204,1.465-0.616,4.257-1.077,6.381c3.504-3.771,7.26-6.522,10.404-5.77
		c4.329,1.03,4.798,5.85,5.174,9.722c0.215,2.21,0.482,4.96,1.448,5.529c2.415,1.237,18.951-2.391,21.604-3.7
		c0.486-0.436,1.192-0.599,1.851-0.355c0.947,0.348,1.433,1.397,1.085,2.344c-0.334,0.909-1.179,1.273-2.248,1.656
		c-2.623,0.938-20.053,5.608-24.144,3.204c-2.571-1.512-2.907-4.976-3.232-8.325c-0.358-3.682-0.718-6.125-2.384-6.522
		c-3.109-0.729-11.203,9.02-16.839,18.588c-0.501,0.849-1.586,1.149-2.45,0.676c-0.865-0.473-1.199-1.547-0.754-2.427
		c0.025-0.052,1.331-2.637,2.788-5.638c-0.755,0.69-1.549,1.35-2.38,1.973c-4.57,3.428-9.28,5.03-12.935,4.386
		c-2.307-0.405-3.802-1.937-4.208-4.312c-0.06-0.349-0.092-0.722-0.1-1.111c-3.414,3.371-7.466,6.197-11.141,6.198
		c-0.014,0-0.026,0-0.039,0c-3.162-0.017-4.613-1.497-5.272-2.735c-0.595-1.116-0.759-2.496-0.63-4.005
		c-3.178,2.846-6.562,5.041-9.446,6.098c-2.948,1.079-5.384,1.053-7.242-0.076c-1.667-1.013-2.812-2.658-3.308-4.756
		c-0.782-3.303,0.101-7.406,2.488-11.674l-1.185-1.122c-4.354,5.882-16.99,17.894-24.729,18.408
		c-3.168,0.212-4.84-1.367-5.699-2.726c-0.876-1.383-1.148-2.849-1.024-4.318c-5.038,4.14-10.67,7.651-14.837,8.193
		c-3.446,0.448-5.234-1.071-6.131-2.424c-0.942-1.424-1.222-3.196-0.809-5.126c0.329-1.531,1.094-3.156,2.217-4.781
		c-2.157,1.379-4.154,2.822-5.994,4.3c0.416,8.251,0.503,18.483-1.631,27.668c-1.679,7.228-4.789,16.483-10.069,19.529
		C739.342,79.652,738.088,79.996,736.819,79.996z M748.698,34.814c-7.57,7.016-11.884,14.38-13.598,19.277
		c-2.964,8.468-3.597,16.114-1.649,19.955c0.577,1.139,1.33,1.836,2.302,2.133c1.028,0.312,1.963,0.194,2.944-0.372
		c3.187-1.839,6.225-8.104,8.336-17.191C748.828,50.89,748.969,42.257,748.698,34.814z M775.64,19.346
		c-2.349,0.831-4.724,1.923-6.79,3.229c-4.946,3.127-8.588,7.227-9.277,10.444c-0.206,0.961-0.11,1.75,0.283,2.344
		c0.225,0.341,0.826,1.244,3.298,0.696c3.556-0.787,8.995-4.216,14.549-9.172c2.043-1.824,3.697-3.485,4.989-4.912
		c0.229-0.288,0.45-0.561,0.657-0.816c0.292-0.36,0.595-0.722,0.895-1.082c0.269-0.321,0.601-0.718,0.923-1.122
		c0.368-0.513,0.645-0.948,0.833-1.293C784.365,17.39,780.93,17.653,775.64,19.346z M698.658,17.524
		c-3.866,0-10.642,1.902-15.62,5.051c-4.947,3.128-8.589,7.228-9.278,10.445c-0.206,0.96-0.11,1.749,0.282,2.343
		c0.227,0.341,0.83,1.244,3.298,0.697c3.557-0.788,8.995-4.216,14.549-9.172c2.04-1.82,3.692-3.479,4.982-4.904
		c0.229-0.287,0.452-0.562,0.664-0.824c0.292-0.361,0.595-0.723,0.896-1.083c0.27-0.323,0.604-0.722,0.928-1.128
		c0.368-0.514,0.644-0.948,0.832-1.293C699.756,17.567,699.24,17.524,698.658,17.524z"/>
	<path fill="#FEECE2" d="M752.539,5.7c-0.047,0-0.16-0.004-0.206-0.008c-1.524-0.11-2.679-1.333-2.679-2.843
		c0-1.583,1.191-2.808,2.771-2.848c0.002,0,0.003,0,0.005,0c1.103,0,1.735,0.428,2.089,0.788c0.361,0.368,0.788,1.028,0.77,2.091
		C755.263,4.435,754.028,5.7,752.539,5.7z"/>
</g>
<g id="center">
	<path fill="#FEF6F1" d="M400.819,79.996c-0.709,0-1.423-0.107-2.131-0.323c-1.919-0.585-3.474-1.959-4.495-3.975
		c-2.417-4.77-1.872-13.298,1.459-22.814c3.229-9.227,9.626-16.792,16.826-22.695c-0.088-1.551-0.185-3.018-0.273-4.375
		c-0.012-0.191-0.024-0.38-0.037-0.565c-2.68,3.094-5.869,6.082-8.181,7.922c-4.417,3.516-10.533,7.172-14.592,4.613
		c-5.097-3.212-4.043-10.492-0.789-16.41l-1.191-1.127c-4.354,5.882-16.991,17.894-24.729,18.408
		c-3.158,0.21-4.84-1.367-5.701-2.726c-0.878-1.388-1.163-2.841-1.052-4.294c-5.03,4.13-10.649,7.629-14.808,8.169
		c-3.442,0.448-5.234-1.071-6.13-2.424c-0.943-1.423-1.222-3.196-0.809-5.125c0.898-4.193,5.074-9.085,10.898-12.767
		c6.088-3.85,17.37-7.447,21.981-4.592c0.072,0.043,0.141,0.091,0.207,0.144c0.066,0.053,0.128,0.109,0.185,0.169
		c1.848,1.891,0.187,4.283-1.627,6.493c-0.534,0.701-1.148,1.445-1.831,2.221c-2.315,2.873-5.677,7.287-3.927,10.053
		c0.358,0.565,0.92,1.132,2.371,1.034c7.171-0.477,21.321-14.797,22.966-18.369c0.247-0.535,0.735-0.918,1.313-1.029
		c0.578-0.113,1.174,0.062,1.602,0.467l3.847,3.641c0.632,0.598,0.754,1.559,0.292,2.296c-3.946,6.301-3.551,11.147-1.122,12.678
		c0.998,0.629,2.981,0.242,5.441-1.062c5.806-3.078,12.076-9.71,15.087-13.913c-0.087-3.115,0.143-4.517,0.967-5.397
		c0.444-0.474,1.039-0.735,1.676-0.735c1.285,0,2.281,0.657,2.666,1.756c0.461,1.319-0.258,3.261-1.613,5.42
		c0.066,1.495,0.178,3.199,0.283,4.812c0.041,0.617,0.083,1.256,0.124,1.916c7.94-5.77,16.369-9.624,22.359-11.562
		c0.022-0.007,0.044-0.014,0.067-0.021c4.587-1.651,9.539-2.574,12.812-1.706c0.655,0.163,1.242,0.403,1.735,0.738
		c0.058,0.038,0.114,0.08,0.168,0.125c0.053,0.044,0.104,0.092,0.15,0.141c1.853,1.889,0.196,4.28-1.618,6.49
		c-0.536,0.705-1.154,1.454-1.841,2.233c-2.314,2.874-5.672,7.283-3.922,10.047c0.358,0.566,0.92,1.132,2.371,1.035
		c3.021-0.201,7.95-3.129,13.523-8.034c5.139-4.522,8.786-8.908,9.443-10.335c0.246-0.535,0.735-0.918,1.313-1.029
		c0.573-0.113,1.173,0.062,1.602,0.467l3.846,3.641c0.632,0.598,0.754,1.559,0.292,2.296c-2.402,3.835-3.422,7.548-2.797,10.186
		c0.271,1.142,0.825,1.976,1.65,2.477c0.837,0.507,2.29,0.425,4.087-0.233c4.002-1.467,9.32-5.728,13.148-10.653
		c1.678-3.642,3.713-6.816,4.438-7.908c0.507-0.764,1.501-1.033,2.323-0.631c0.823,0.402,1.221,1.351,0.931,2.22
		c-0.931,2.787-2.528,5.585-4.495,8.192c-1.599,3.541-2.584,6.908-1.788,8.4c0.104,0.195,0.422,0.791,2.068,0.799
		c0.008,0,0.016,0,0.022,0c3.957,0,9.537-5.741,12.807-10.018c1.168-2.978,2.655-5.481,3.456-5.932
		c0.67-0.378,1.554-0.299,2.138,0.208c0.521,0.45,1.028,1.316,0.447,2.869c-0.358,0.956-1.366,2.662-2.805,4.626
		c-0.937,2.429-1.643,5.155-1.081,6.677c0.155,0.421,0.404,0.727,1.116,0.852c2.578,0.454,6.455-0.969,10.111-3.712
		c5.265-3.95,8.852-9.482,9.729-14.946c0.043-0.308,0.082-0.599,0.117-0.868c0.13-0.993,1.029-1.695,2.029-1.578
		c0.995,0.12,1.707,1.018,1.598,2.013c-0.035,0.322-0.078,0.644-0.13,0.966c-0.204,1.465-0.616,4.256-1.077,6.38
		c3.504-3.771,7.261-6.522,10.404-5.77c4.329,1.03,4.798,5.85,5.174,9.722c0.215,2.21,0.482,4.96,1.448,5.529
		c2.422,1.242,18.952-2.391,21.604-3.7c0.486-0.436,1.191-0.599,1.851-0.355c0.947,0.348,1.433,1.397,1.085,2.344
		c-0.334,0.909-1.179,1.273-2.248,1.656c-2.622,0.938-20.055,5.608-24.144,3.204c-2.571-1.512-2.907-4.976-3.232-8.325
		c-0.358-3.682-0.718-6.125-2.384-6.522c-3.104-0.729-11.203,9.02-16.839,18.588c-0.5,0.849-1.585,1.15-2.45,0.676
		c-0.865-0.473-1.199-1.547-0.754-2.427c0.025-0.051,1.331-2.636,2.788-5.637c-0.755,0.69-1.548,1.349-2.378,1.972
		c-4.571,3.428-9.287,5.027-12.936,4.388c-2.308-0.406-3.803-1.938-4.209-4.313c-0.06-0.349-0.092-0.722-0.1-1.111
		c-3.414,3.371-7.466,6.197-11.141,6.198c-0.014,0-0.026,0-0.039,0c-3.162-0.017-4.613-1.497-5.272-2.735
		c-0.595-1.116-0.759-2.496-0.63-4.005c-3.178,2.846-6.562,5.041-9.446,6.098c-2.944,1.08-5.381,1.055-7.242-0.076
		c-1.668-1.014-2.812-2.659-3.309-4.757c-0.781-3.303,0.102-7.406,2.489-11.674l-1.185-1.122
		c-4.354,5.882-16.99,17.894-24.729,18.408c-3.159,0.21-4.84-1.367-5.7-2.726c-0.875-1.383-1.147-2.849-1.023-4.318
		c-5.038,4.14-10.669,7.651-14.836,8.193c-3.446,0.448-5.237-1.071-6.132-2.424c-0.942-1.423-1.222-3.196-0.809-5.125
		c0.328-1.532,1.094-3.157,2.217-4.782c-2.159,1.38-4.154,2.822-5.994,4.3c0.416,8.25,0.503,18.482-1.63,27.668
		c-1.679,7.228-4.789,16.483-10.069,19.529C403.342,79.652,402.088,79.996,400.819,79.996z M412.698,34.814
		c-7.57,7.016-11.884,14.379-13.598,19.277c-2.964,8.468-3.596,16.114-1.649,19.955c0.577,1.139,1.33,1.836,2.302,2.133
		c1.026,0.312,1.962,0.194,2.944-0.372c3.187-1.839,6.225-8.104,8.336-17.191C412.828,50.891,412.969,42.258,412.698,34.814z
		 M439.639,19.347c-2.348,0.831-4.724,1.922-6.789,3.229c-4.946,3.127-8.588,7.227-9.277,10.445
		c-0.206,0.96-0.111,1.749,0.282,2.343c0.226,0.341,0.825,1.244,3.299,0.696c3.557-0.788,8.995-4.216,14.549-9.172
		c2.042-1.823,3.696-3.483,4.987-4.91c0.23-0.288,0.451-0.562,0.659-0.818c0.292-0.36,0.594-0.722,0.894-1.081
		c0.27-0.323,0.603-0.721,0.927-1.126c0.366-0.512,0.642-0.945,0.83-1.29C448.367,17.39,444.93,17.652,439.639,19.347z
		 M362.657,17.523c-3.865,0-10.641,1.902-15.619,5.052c-4.947,3.128-8.589,7.228-9.279,10.445c-0.206,0.96-0.111,1.749,0.283,2.343
		c0.226,0.34,0.822,1.245,3.298,0.696c3.556-0.788,8.995-4.216,14.549-9.172c2.042-1.823,3.697-3.484,4.988-4.911
		c0.227-0.284,0.448-0.558,0.659-0.818c0.292-0.36,0.594-0.722,0.894-1.081c0.269-0.321,0.601-0.718,0.923-1.122
		c0.371-0.517,0.648-0.955,0.837-1.302C363.756,17.567,363.239,17.523,362.657,17.523z"/>
	<path fill="#FEF6F1" d="M416.539,5.7c-0.047,0-0.16-0.004-0.206-0.008c-1.524-0.111-2.679-1.333-2.679-2.843
		c0-1.583,1.192-2.808,2.772-2.848c0.001,0,0.003,0,0.005,0c1.102,0,1.735,0.428,2.088,0.787c0.361,0.367,0.788,1.027,0.771,2.091
		C419.263,4.435,418.029,5.7,416.539,5.7z"/>
</g>
<g id="left">
	<path fill="#BD8A6E" d="M66.819,79.997c-0.709,0-1.422-0.107-2.13-0.323c-1.919-0.585-3.474-1.959-4.496-3.975
		c-2.417-4.77-1.872-13.299,1.459-22.815c3.229-9.227,9.626-16.792,16.826-22.696c-0.088-1.551-0.185-3.018-0.273-4.375
		c-0.012-0.191-0.024-0.379-0.037-0.564c-2.68,3.094-5.87,6.083-8.183,7.923c-4.416,3.515-10.534,7.169-14.59,4.612
		c-5.097-3.212-4.044-10.492-0.789-16.41l-1.191-1.127c-4.354,5.882-16.991,17.894-24.729,18.408
		c-3.147,0.209-4.84-1.366-5.701-2.726c-0.878-1.388-1.162-2.841-1.052-4.293c-5.031,4.13-10.649,7.629-14.808,8.169
		c-3.444,0.452-5.234-1.071-6.13-2.424c-0.942-1.423-1.222-3.196-0.808-5.125c0.898-4.193,5.074-9.085,10.898-12.767
		c6.087-3.851,17.368-7.446,21.981-4.592c0.072,0.042,0.141,0.091,0.207,0.144c0.066,0.053,0.128,0.109,0.185,0.169
		c1.847,1.89,0.188,4.282-1.626,6.491c-0.534,0.702-1.15,1.449-1.834,2.225c-2.314,2.874-5.675,7.286-3.925,10.051
		c0.358,0.566,0.919,1.133,2.371,1.035c7.171-0.477,21.321-14.798,22.966-18.37c0.247-0.535,0.735-0.918,1.313-1.029
		c0.578-0.113,1.174,0.062,1.602,0.467l3.847,3.641c0.632,0.598,0.754,1.559,0.292,2.296c-3.946,6.301-3.551,11.147-1.122,12.678
		c0.998,0.63,2.981,0.241,5.441-1.062c5.807-3.078,12.076-9.71,15.088-13.913c-0.087-3.115,0.143-4.518,0.967-5.397
		c0.444-0.474,1.039-0.735,1.676-0.735c1.285,0,2.281,0.657,2.666,1.756c0.461,1.319-0.258,3.262-1.613,5.42
		c0.066,1.496,0.178,3.199,0.283,4.812c0.041,0.617,0.083,1.256,0.124,1.916c7.94-5.77,16.369-9.624,22.359-11.562
		c0.022-0.007,0.044-0.014,0.066-0.021c4.587-1.652,9.539-2.576,12.813-1.706c0.655,0.163,1.242,0.403,1.736,0.738
		c0.057,0.038,0.113,0.079,0.167,0.124c0.053,0.045,0.104,0.092,0.151,0.141c1.853,1.889,0.196,4.28-1.616,6.488
		c-0.537,0.706-1.156,1.457-1.844,2.237c-2.314,2.874-5.669,7.281-3.92,10.045c0.358,0.565,0.911,1.131,2.371,1.035
		c3.021-0.201,7.95-3.129,13.524-8.034c5.138-4.522,8.786-8.908,9.443-10.335c0.246-0.535,0.735-0.918,1.313-1.029
		c0.577-0.113,1.175,0.062,1.602,0.467l3.846,3.641c0.632,0.598,0.754,1.559,0.292,2.296c-2.402,3.835-3.422,7.548-2.797,10.186
		c0.27,1.142,0.825,1.976,1.65,2.477c0.838,0.507,2.289,0.426,4.088-0.233c4.001-1.467,9.32-5.728,13.148-10.653
		c1.678-3.642,3.713-6.816,4.438-7.908c0.506-0.763,1.5-1.032,2.323-0.631c0.823,0.402,1.221,1.352,0.931,2.22
		c-0.931,2.787-2.528,5.585-4.495,8.192c-1.599,3.541-2.583,6.908-1.788,8.4c0.104,0.195,0.422,0.791,2.068,0.799
		c0.007,0,0.015,0,0.022,0c3.958,0,9.537-5.741,12.807-10.018c1.167-2.978,2.655-5.481,3.456-5.932
		c0.673-0.38,1.555-0.298,2.137,0.208c0.522,0.45,1.029,1.316,0.447,2.869c-0.357,0.956-1.366,2.662-2.804,4.626
		c-0.937,2.429-1.643,5.155-1.081,6.677c0.155,0.421,0.404,0.727,1.115,0.852c2.583,0.455,6.456-0.969,10.111-3.712
		c5.265-3.95,8.852-9.482,9.73-14.946c0.043-0.307,0.083-0.599,0.117-0.868c0.13-0.993,1.032-1.693,2.029-1.578
		c0.995,0.12,1.708,1.018,1.598,2.014c-0.035,0.321-0.079,0.644-0.13,0.965c-0.204,1.465-0.617,4.256-1.077,6.38
		c3.504-3.772,7.268-6.519,10.404-5.77c4.329,1.03,4.797,5.85,5.174,9.722c0.215,2.21,0.482,4.96,1.449,5.529
		c2.418,1.245,18.954-2.39,21.604-3.7c0.487-0.438,1.193-0.597,1.85-0.355c0.947,0.348,1.433,1.397,1.084,2.344
		c-0.333,0.909-1.178,1.273-2.247,1.656c-2.623,0.938-20.052,5.61-24.144,3.204c-2.571-1.512-2.907-4.976-3.233-8.325
		c-0.358-3.682-0.717-6.125-2.383-6.522c-3.087-0.733-11.202,9.016-16.839,18.588c-0.5,0.85-1.584,1.149-2.45,0.676
		c-0.865-0.473-1.199-1.547-0.754-2.427c0.026-0.051,1.332-2.636,2.789-5.637c-0.754,0.69-1.548,1.349-2.378,1.972
		c-4.57,3.429-9.285,5.027-12.936,4.388c-2.308-0.406-3.802-1.938-4.208-4.313c-0.06-0.349-0.092-0.722-0.1-1.111
		c-3.427,3.384-7.475,6.229-11.18,6.198c-3.162-0.017-4.612-1.497-5.272-2.735c-0.595-1.116-0.759-2.496-0.629-4.005
		c-3.178,2.846-6.563,5.041-9.447,6.098c-2.945,1.079-5.382,1.055-7.242-0.076c-1.667-1.014-2.812-2.659-3.308-4.757
		c-0.782-3.303,0.101-7.406,2.489-11.674l-1.185-1.122c-4.354,5.882-16.991,17.894-24.729,18.408c-3.151,0.21-4.84-1.367-5.7-2.726
		c-0.875-1.383-1.147-2.849-1.023-4.317c-5.038,4.14-10.669,7.651-14.836,8.193c-3.444,0.444-5.236-1.071-6.132-2.424
		c-0.942-1.423-1.222-3.196-0.809-5.125c0.328-1.532,1.094-3.156,2.217-4.781c-2.159,1.379-4.154,2.821-5.994,4.3
		c0.416,8.251,0.503,18.483-1.63,27.668c-1.679,7.228-4.789,16.482-10.069,19.53C69.342,79.652,68.088,79.997,66.819,79.997z
		 M78.698,34.814c-7.57,7.016-11.884,14.379-13.598,19.277c-2.964,8.469-3.596,16.115-1.649,19.956
		c0.577,1.139,1.33,1.837,2.302,2.133c1.027,0.312,1.962,0.194,2.944-0.373c3.187-1.839,6.226-8.104,8.336-17.191
		C78.828,50.89,78.969,42.257,78.698,34.814z M105.639,19.346c-2.349,0.831-4.724,1.922-6.789,3.229
		c-4.946,3.127-8.588,7.227-9.277,10.445c-0.206,0.96-0.111,1.749,0.282,2.343c0.226,0.341,0.827,1.244,3.299,0.696
		c3.557-0.788,8.995-4.216,14.549-9.172c2.042-1.822,3.695-3.482,4.985-4.908c0.231-0.289,0.453-0.563,0.661-0.82
		c0.292-0.36,0.594-0.722,0.894-1.081c0.27-0.323,0.604-0.722,0.928-1.128c0.366-0.511,0.641-0.943,0.829-1.288
		C114.366,17.39,110.929,17.652,105.639,19.346z M28.657,17.523c-3.865,0-10.641,1.902-15.619,5.052
		c-4.947,3.128-8.589,7.228-9.279,10.445c-0.206,0.96-0.111,1.749,0.283,2.343c0.226,0.341,0.823,1.243,3.298,0.697
		c3.556-0.787,8.995-4.216,14.549-9.173c2.042-1.822,3.695-3.482,4.986-4.908c0.228-0.286,0.45-0.559,0.661-0.82
		c0.292-0.36,0.594-0.722,0.894-1.081c0.269-0.322,0.601-0.719,0.924-1.123c0.37-0.517,0.647-0.953,0.836-1.3
		C29.756,17.566,29.239,17.523,28.657,17.523z"/>
	<path fill="#BD8A6E" d="M82.539,5.699c-0.047,0-0.16-0.004-0.206-0.008c-1.524-0.111-2.679-1.333-2.679-2.843
		c0-1.583,1.192-2.808,2.772-2.848c0.001,0,0.003,0,0.005,0c1.102,0,1.735,0.428,2.088,0.787c0.361,0.367,0.788,1.027,0.771,2.091
		C85.263,4.435,84.029,5.699,82.539,5.699z"/>
</g>
</svg>
