<?xml version="1.0" encoding="utf-8"?>
<!-- Copyright (C) 2014 Brian Speir. All rights reserved. -->
<!DOCTYPE svg PUBLIC "-//W3C//DTD SVG 1.1//EN" "http://www.w3.org/Graphics/SVG/1.1/DTD/svg11.dtd">
<svg version="1.1" id="Layer_1" xmlns="http://www.w3.org/2000/svg" xmlns:xlink="http://www.w3.org/1999/xlink" x="0px" y="0px"
	 width="365px" height="120px" viewBox="0 0 365 120" enable-background="new 0 0 365 120" xml:space="preserve">
<g id="Signature">
	<path fill="#FCD0B8" d="M100.098,120c-1.107,0-2.226-0.172-3.338-0.508c-3.008-0.916-5.438-3.059-7.029-6.199
		c-3.714-7.328-2.93-19.848,2.15-34.344c4.81-13.709,14.312-24.968,25.013-33.774c-0.12-2.025-0.243-3.959-0.359-5.756
		c-4.072,4.535-8.6,8.648-11.249,10.764c-9.696,7.727-17.475,10.142-22.5,6.986c-5.589-3.516-8.226-12.629-1.584-24.76l-1.012-0.959
		c-6.916,9.016-25.436,26.352-36.871,27.109c-3.877,0.279-7.066-1.27-8.992-4.303c-1.108-1.754-1.604-3.58-1.652-5.418
		c-7.271,5.82-15.267,10.619-21.414,11.423c-5.718,0.748-8.518-2.087-9.684-3.843c-1.488-2.244-1.937-5.031-1.288-8.043
		c1.359-6.369,7.678-13.783,16.478-19.348c9.2-5.791,26.278-11.165,33.32-6.82c0.124,0.078,0.25,0.164,0.366,0.254
		c0.12,0.094,0.231,0.201,0.333,0.303c2.92,2.98,0.611,6.66-1.996,9.896c-1.05,1.432-2.332,2.99-3.796,4.621
		c-3.164,3.992-7.376,9.947-5.141,13.465c0.471,0.738,1.168,1.395,3.032,1.281c10.246-0.682,31.389-21.873,33.75-26.98
		c0.444-0.955,1.316-1.639,2.346-1.84c1.03-0.193,2.096,0.109,2.864,0.828l5.74,5.393c1.14,1.072,1.362,2.795,0.532,4.123
		c-5.683,9.053-5.232,15.949-1.851,18.07c1.208,0.762,3.688,0.32,6.807-1.207c8.622-4.23,18.318-14.322,22.931-20.691
		c-0.118-4.703,0.262-6.844,1.59-8.27c0.764-0.821,1.798-1.271,2.902-1.271c2.16,0,3.84,1.119,4.494,2.982
		c0.744,2.133-0.345,5.125-2.372,8.387c0.102,2.172,0.262,4.641,0.414,6.973c0.04,0.602,0.078,1.219,0.122,1.848
		c11.617-8.273,23.821-13.828,32.562-16.656c0.154-0.045,0.312-0.102,0.468-0.148c6.811-2.395,14.124-3.715,19.048-2.467
		c1.063,0.252,2.016,0.635,2.813,1.178c0.1,0.064,0.202,0.137,0.294,0.217c0.103,0.08,0.192,0.166,0.278,0.256
		c3.162,3.211,0.233,7.24-2.604,10.652c-0.708,0.91-1.506,1.865-2.376,2.855c-3.351,4.17-8.367,10.668-5.951,14.486
		c0.469,0.738,1.17,1.412,3.042,1.283c10.258-0.695,31.389-21.877,33.74-26.984c0.447-0.957,1.324-1.641,2.352-1.84
		c1.021-0.203,2.096,0.105,2.867,0.824l5.744,5.391c1.141,1.074,1.361,2.797,0.533,4.125c-3.508,5.586-5,10.955-4.102,14.729
		c0.359,1.541,1.102,2.652,2.191,3.312c1.094,0.664,3.148,0.52,5.633-0.389c5.881-2.148,13.688-8.387,19.311-15.6
		c2.512-5.43,5.533-10.127,6.618-11.758c0.906-1.365,2.691-1.848,4.164-1.123c1.473,0.717,2.184,2.422,1.66,3.98
		c-1.398,4.176-3.801,8.377-6.763,12.287c-2.381,5.299-3.654,9.996-2.639,11.904c0.121,0.219,0.473,0.887,2.605,0.898
		c0.014,0,0.031,0,0.041,0c5.567,0,13.699-8.213,18.523-14.463c1.791-4.559,4.113-8.4,5.381-9.139
		c1.197-0.689,2.76-0.566,3.809,0.314c0.791,0.672,1.893,2.168,0.867,4.914c-0.541,1.434-2.041,3.979-4.201,6.914
		c-1.355,3.541-2.367,7.459-1.584,9.512c0.15,0.406,0.344,0.73,1.225,0.881c3.707,0.656,9.34-1.43,14.688-5.438
		c7.715-5.787,12.969-13.869,14.246-21.836c0.062-0.449,0.119-0.875,0.172-1.27c0.23-1.777,1.855-3.04,3.633-2.826
		c1.787,0.215,3.059,1.826,2.863,3.611c-0.053,0.48-0.117,0.959-0.195,1.445c-0.25,1.785-0.707,4.898-1.246,7.723
		c4.979-5.029,10.242-8.492,14.723-7.422c6.838,1.627,7.551,9.012,8.133,14.951c0.273,2.82,0.693,7.088,1.881,7.791
		c3.729,1.617,27.6-3.641,31.623-5.514c0.877-0.736,2.121-0.99,3.264-0.557c1.693,0.631,2.549,2.525,1.914,4.211
		c-0.588,1.561-2.025,2.18-3.697,2.777c-2.34,0.832-29.75,8.611-36.406,4.729c-4.082-2.4-4.598-7.691-5.098-12.807
		c-0.492-5.074-1.004-8.707-3.127-9.209c-4.271-1.025-16.35,13.602-24.486,27.373c-0.898,1.519-2.842,2.052-4.391,1.207
		c-1.545-0.855-2.141-2.777-1.346-4.352c0.033-0.062,1.328-2.609,2.971-5.957c-0.492,0.4-0.99,0.793-1.5,1.172
		c-6.945,5.209-14.137,7.629-19.746,6.648c-3.598-0.621-6.043-3.092-6.699-6.777c-0.041-0.209-0.066-0.414-0.09-0.631
		c-5.03,4.76-10.835,8.648-16.186,8.572c-4.988-0.027-7.293-2.395-8.344-4.371c-0.758-1.422-1.062-3.111-1.043-4.953
		c-4.508,3.875-9.221,6.848-13.279,8.33c-4.561,1.67-8.359,1.619-11.279-0.158c-2.605-1.57-4.395-4.129-5.172-7.395
		c-1.176-4.949,0.082-11.047,3.555-17.387l-1.021-0.957c-6.904,9.008-25.414,26.336-36.857,27.105
		c-3.881,0.258-7.081-1.266-9.01-4.305c-1.138-1.801-1.64-3.668-1.682-5.535c-7.332,5.875-15.366,10.754-21.388,11.538
		c-5.708,0.748-8.517-2.085-9.681-3.843c-1.485-2.248-1.93-5.027-1.283-8.043c0.359-1.66,1.048-3.395,2.036-5.145
		c-2.32,1.559-4.509,3.168-6.564,4.805c0.61,12.249,0.712,27.376-2.456,40.995c-2.528,10.84-7.226,24.729-15.253,29.363
		C104.052,119.457,102.09,120,100.098,120z M117.285,53.536c-10.651,10.097-16.76,20.56-19.222,27.585
		c-4.363,12.447-5.317,23.639-2.491,29.217c0.785,1.553,1.798,2.498,3.094,2.896c1.378,0.418,2.636,0.256,3.964-0.512
		c4.61-2.658,9.039-11.836,12.147-25.176C117.337,76.547,117.623,64.277,117.285,53.536z M158.411,29.743
		c-3.576,1.238-7.208,2.875-10.309,4.824c-7.132,4.514-12.586,10.617-13.563,15.184c-0.274,1.273-0.158,2.305,0.34,3.059
		c0.262,0.395,0.96,1.453,4.002,0.867c8.45-1.629,21.68-12.758,29.036-20.711c0.354-0.445,0.702-0.875,1.03-1.285
		c0.466-0.574,0.909-1.098,1.348-1.621c0.559-0.66,1.309-1.551,1.939-2.367c0.094-0.145,0.184-0.287,0.264-0.422
		C170.181,27.091,165.723,27.442,158.411,29.743z M43.283,27.142c-5.589,0-15.752,2.852-23.015,7.426
		C13.129,39.083,7.671,45.185,6.697,49.749c-0.274,1.271-0.16,2.303,0.342,3.057c0.26,0.398,0.962,1.455,4.006,0.867
		c8.466-1.633,21.729-12.805,29.074-20.764c0.359-0.451,0.706-0.877,1.029-1.279c0.433-0.535,0.876-1.059,1.316-1.582
		c0.546-0.65,1.28-1.527,1.9-2.328c0.117-0.176,0.226-0.348,0.325-0.512C44.262,27.165,43.792,27.142,43.283,27.142z"/>
	<path fill="#FCD0B8" d="M123.527,9.588c-0.087,0-0.272-0.008-0.356-0.016c-2.562-0.196-4.494-2.254-4.494-4.786
		c0-2.654,2.006-4.712,4.66-4.786c0.004,0,0.006,0,0.01,0c1.849,0,2.914,0.724,3.51,1.328c0.612,0.622,1.33,1.728,1.307,3.504
		C128.127,7.454,126.047,9.588,123.527,9.588z"/>
</g>
</svg>
