<?xml version="1.0" encoding="utf-8"?>
<!-- Copyright (C) 2014 Brian Speir. All rights reserved. -->
<!DOCTYPE svg PUBLIC "-//W3C//DTD SVG 1.1//EN" "http://www.w3.org/Graphics/SVG/1.1/DTD/svg11.dtd">
<svg version="1.1" id="mark" xmlns="http://www.w3.org/2000/svg" xmlns:xlink="http://www.w3.org/1999/xlink" x="0px" y="0px"
	 width="120px" height="120px" viewBox="0 0 120 120" enable-background="new 0 0 120 120" xml:space="preserve">
<path id="background" fill="#FCD0B8" d="M0,20C0,9,9,0,20,0h80c11,0,20,9,20,20v80c0,11-9,20-20,20H20c-11,0-20-9-20-20V20z"/>
<path id="a" fill="#FEF6F1" d="M35.801,87.374c-5.745,0-8.925-2.742-10.629-5.242c-2.038-2.987-2.657-6.707-1.791-10.755
	c1.896-8.859,10.946-19.195,23.617-26.974c6.869-4.218,16.215-7.98,25-10.065c7.113-1.688,16.759-2.978,22.414,0.423
	c0.152,0.088,0.3,0.188,0.441,0.297c0.143,0.11,0.274,0.229,0.397,0.355c4.034,4.01,0.328,9.231-3.476,13.741
	c-1.229,1.578-2.658,3.263-4.254,5.017c-4.974,6.013-11.92,15.03-8.248,20.658c0.67,1.028,2.715,4.161,11.717,0.487
	c1.992-0.815,4.265,0.144,5.076,2.134c0.812,1.991-0.143,4.265-2.133,5.077c-12.365,5.043-18.345,0.91-21.185-3.444
	c-1.901-2.915-2.499-5.999-2.242-9.089C59.802,78.561,47.822,85.842,38.75,87.15C37.701,87.305,36.718,87.374,35.801,87.374z
	 M84.962,40.419c-8.407,0-23.101,3.996-33.889,10.621c-10.587,6.5-18.655,15.327-20.077,21.967c-0.421,1.968-0.222,3.519,0.61,4.738
	c0.451,0.659,1.82,2.67,7.338,1.46c7.711-1.689,19.46-8.891,31.431-19.258c4.432-3.838,8.02-7.337,10.818-10.342
	c0.492-0.598,0.964-1.165,1.408-1.697c0.631-0.757,1.285-1.518,1.936-2.272c0.574-0.665,1.283-1.488,1.973-2.325
	c0.764-1.032,1.346-1.913,1.754-2.622C87.324,40.508,86.213,40.419,84.962,40.419z"/>
</svg>
