<!-- Copyright © 2014 Brian Speir. All rights reserved.  -->
<svg version="1.1" id="Layer_1" xmlns="http://www.w3.org/2000/svg" xmlns:xlink="http://www.w3.org/1999/xlink" x="0px" y="0px"
	 width="436px" height="97px" viewBox="0.5 72.5 436 97" enable-background="new 0.5 72.5 436 97" xml:space="preserve">
<g id="logo_1_">
	<polygon id="left_1_" fill="#7F8A99" points="89.158,117.756 111.147,149.014 0.5,149.014 0.5,86.5 111.147,86.5 	"/>
	<polygon id="right_1_" fill="#44515D" points="250.5,149.014 111.147,149.014 89.158,117.756 111.147,86.5 250.5,86.5 	"/>
	<path id="text_1_" fill="#FFFFFF" d="M80.437,130.293h-6.465v-34.34h6.463v34.34H80.437z M90.897,130.293h7.085l-8.824-12.537
		l8.825-12.538h-7.086l-8.739,12.538L90.897,130.293z M152.249,116.77c0-7.418-4.416-12.058-10.601-12.058
		c-4.322,0-6.443,2.285-7.03,2.938h-0.101l-0.052-2.433h-5.826v34.421h6.458v-9.354c0.154,0.041,1.86,0.471,3.94,0.471
		C147.1,130.756,152.249,125.496,152.249,116.77z M145.487,116.77c0,6.213-3.371,8.879-7.007,8.879
		c-1.704,0-3.317-0.498-3.382-0.521v-9.549c0-3.668,1.85-5.568,4.734-5.568C143.167,110.008,145.487,112.693,145.487,116.77z
		 M202.847,130.756c1.717,0,3.598-0.215,5.205-0.668v-5.605c-0.369,0.188-2.077,0.859-4.244,0.859c-4.861,0-7.167-3.279-7.167-7.592
		c0-4.393,2.449-7.59,7.167-7.59c2.167,0,3.875,0.676,4.244,0.865v-5.611c-1.607-0.452-3.488-0.703-5.205-0.703
		c-7.995,0-12.971,5.215-12.971,13.039C189.876,125.572,194.853,130.756,202.847,130.756z M59.843,130.756
		c2.654,0,4.729-0.561,5.216-0.709v-5.604c-0.374,0.189-2.084,0.867-4.25,0.867c-4.676,0-7.163-3.248-7.163-7.561
		c0-4.393,2.447-7.59,7.163-7.59c2.166,0,3.877,0.676,4.25,0.865v-5.611c-1.617-0.452-3.5-0.703-5.216-0.703
		c-7.993,0-12.962,5.215-12.962,13.039C46.881,125.572,51.85,130.756,59.843,130.756z M180.7,130.293
		c-0.009-0.998-0.152-4.438-0.152-6.457v-8.219c0-7.064-4.564-10.906-12.817-10.906c-3.552,0-5.962,0.742-6.48,0.896v5.085
		c0.433-0.115,3.54-1.039,6.055-1.039c5.424,0,6.789,2.375,6.789,4.332v1.021c-0.249,0-3.604,0-3.849,0
		c-6.135,0-10.633,2.811-10.633,7.842c0,4.652,3.546,7.908,8.024,7.908c4.862,0,6.4-2.5,6.963-3.162l0.049,0.049l0.271,2.65H180.7z
		 M174.094,120.539c0,3.029-1.704,5.316-4.686,5.316c-2.275,0-3.642-1.357-3.642-3.262c0-1.936,1.477-3.4,6.01-3.4
		c0.145,0,2.166,0,2.317,0V120.539z M237.136,115.863c0-6.211-3.571-11.151-10.893-11.151c-7.514,0-11.409,5.399-11.409,13.063
		c0,8.613,5.579,12.98,13.074,12.98c4.436,0,6.749-1.031,7.717-1.346v-5.225c-0.774,0.338-3.563,1.625-7.315,1.568
		c-4.454-0.078-6.897-2.736-6.914-6.967h15.535C237.087,117.73,237.136,116.719,237.136,115.863z M230.732,114.4h-9.237
		c0.14-3.016,2.037-4.996,4.709-4.996C228.926,109.406,230.6,111.385,230.732,114.4z M38.833,117.113
		c0-7.42-4.445-12.401-10.974-12.401c-3.6,0-5.689,1.825-6.168,2.302l0,0V95.953h-6.466v33.438c0.193,0.076,3.582,1.41,9.336,1.41
		C33.185,130.801,38.833,125.393,38.833,117.113z M32.071,117.125c0,6.369-3.556,8.523-7.111,8.523c-1.821,0-3.039-0.512-3.27-0.611
		v-9.666c0-3.912,2.378-5.312,4.775-5.312C29.797,110.059,32.071,112.742,32.071,117.125z M119.877,122.912
		c0-4.268-2.935-6.219-5.988-7.432c-0.292-0.121-0.997-0.391-1.258-0.492c-1.891-0.756-3.044-1.506-3.044-2.988
		c0-1.432,1.056-2.443,3.734-2.443c2.261,0,4.197,0.512,4.826,0.674v-5.119c-1.511-0.254-3.11-0.402-4.572-0.402
		c-7.068,0-10.646,3.482-10.646,7.738c0,4.203,3.179,6.207,5.517,7.133c0.29,0.115,1.141,0.451,1.53,0.605
		c1.5,0.598,3.092,1.402,3.092,3.031c0,1.33-1.158,2.582-4.366,2.582c-2.312,0-4.608-0.623-5.271-0.811v5.359
		c1.613,0.248,3.577,0.408,5.394,0.408C115.686,130.756,119.877,127.721,119.877,122.912z"/>
</g>
<path fill="#44515D" d="M260.574,113.789c-0.616,0-1.22-0.074-1.708-0.201l0.062-1.105c0.488,0.176,1.156,0.314,1.747,0.314
	c1.017,0,1.858-0.416,1.858-1.459c0-1.91-3.82-1.156-3.82-3.859c0-1.394,1.107-2.399,3.019-2.399c0.515,0,1.03,0.049,1.532,0.149
	l-0.062,1.03c-0.489-0.14-1.029-0.226-1.533-0.226c-1.155,0-1.762,0.527-1.762,1.32c0,1.834,3.834,1.168,3.834,3.82
	C263.739,112.695,262.547,113.789,260.574,113.789z"/>
<path fill="#44515D" d="M267.693,113.789c-1.699,0-2.807-0.982-2.807-3.182c0-1.834,1.158-3.292,3.043-3.292
	c1.597,0,2.815,0.878,2.815,3.13C270.747,112.332,269.541,113.789,267.693,113.789z M267.832,108.258
	c-0.905,0-1.763,0.691-1.763,2.238c0,1.51,0.616,2.338,1.763,2.338c0.93,0,1.732-0.73,1.732-2.324
	C269.564,109.088,268.986,108.258,267.832,108.258z"/>
<path fill="#44515D" d="M280.104,113.676v-4.01c0-0.865-0.199-1.422-1.019-1.422c-0.892,0-1.744,0.943-1.744,2.453v2.979h-1.122
	v-4.02c0-0.781-0.162-1.41-1.017-1.41c-0.956,0-1.75,1.02-1.75,2.451v2.98h-1.129v-6.247h1.091c0,0.364-0.021,0.931-0.099,1.308
	l0.028,0.012c0.365-0.879,1.167-1.445,2.172-1.445c1.321,0,1.673,0.918,1.722,1.42c0.263-0.592,0.932-1.42,2.138-1.42
	c1.184,0,1.86,0.642,1.86,2.049v4.322H280.104L280.104,113.676z"/>
<path fill="#44515D" d="M288.078,110.484h-4.082c-0.052,1.67,0.64,2.387,1.973,2.387c0.64,0,1.318-0.148,1.821-0.389l0.102,0.918
	c-0.604,0.25-1.332,0.389-2.11,0.389c-1.924,0-2.955-1.004-2.955-3.205c0-1.871,1.017-3.269,2.789-3.269
	c1.76,0,2.502,1.194,2.502,2.628C288.117,110.094,288.106,110.27,288.078,110.484z M285.566,108.145
	c-0.819,0-1.396,0.615-1.521,1.533h2.914C286.987,108.76,286.444,108.145,285.566,108.145z"/>
<path fill="#44515D" d="M294.696,113.752c-0.391,0-0.691-0.014-1.057-0.076v3.104h-1.13v-9.352h1.091
	c0,0.352-0.021,0.918-0.097,1.27l0.023,0.014c0.353-0.869,1.106-1.396,2.103-1.396c1.454,0,2.286,1.031,2.286,2.941
	C297.914,112.482,296.721,113.752,294.696,113.752z M295.348,108.244c-1.129,0-1.708,1.322-1.708,2.416v2.061
	c0.327,0.1,0.679,0.15,1.107,0.15c1.193,0,1.984-0.717,1.984-2.514C296.731,109.014,296.293,108.244,295.348,108.244z"/>
<path fill="#44515D" d="M304.229,110.484h-4.087c-0.049,1.67,0.641,2.387,1.976,2.387c0.641,0,1.318-0.148,1.822-0.389l0.099,0.918
	c-0.603,0.25-1.332,0.389-2.11,0.389c-1.926,0-2.955-1.004-2.955-3.205c0-1.871,1.016-3.269,2.789-3.269
	c1.763,0,2.504,1.194,2.504,2.628C304.266,110.094,304.253,110.27,304.229,110.484z M301.713,108.145
	c-0.816,0-1.395,0.615-1.522,1.533h2.917C303.135,108.76,302.595,108.145,301.713,108.145z"/>
<path fill="#44515D" d="M308.141,113.789c-1.698,0-2.803-0.982-2.803-3.182c0-1.834,1.155-3.292,3.041-3.292
	c1.599,0,2.813,0.878,2.813,3.13C311.195,112.332,309.988,113.789,308.141,113.789z M308.279,108.258
	c-0.904,0-1.762,0.691-1.762,2.238c0,1.51,0.619,2.338,1.762,2.338c0.931,0,1.736-0.73,1.736-2.324
	C310.016,109.088,309.437,108.258,308.279,108.258z"/>
<path fill="#44515D" d="M314.962,113.752c-0.392,0-0.695-0.014-1.06-0.076v3.104h-1.131v-9.352h1.094
	c0,0.352-0.024,0.918-0.099,1.27l0.024,0.014c0.354-0.869,1.108-1.396,2.101-1.396c1.46,0,2.286,1.031,2.286,2.941
	C318.177,112.482,316.982,113.752,314.962,113.752z M315.61,108.244c-1.131,0-1.708,1.322-1.708,2.416v2.061
	c0.328,0.1,0.68,0.15,1.105,0.15c1.193,0,1.985-0.717,1.985-2.514C316.993,109.014,316.556,108.244,315.61,108.244z"/>
<path fill="#44515D" d="M319.791,113.676V104.5h1.131v9.176H319.791z"/>
<path fill="#44515D" d="M327.763,110.484h-4.087c-0.051,1.67,0.644,2.387,1.97,2.387c0.644,0,1.324-0.148,1.826-0.389l0.098,0.918
	c-0.601,0.25-1.329,0.389-2.109,0.389c-1.928,0-2.957-1.004-2.957-3.205c0-1.871,1.019-3.269,2.792-3.269
	c1.759,0,2.504,1.194,2.504,2.628C327.8,110.094,327.784,110.27,327.763,110.484z M325.244,108.145c-0.816,0-1.395,0.615-1.52,1.533
	h2.917C326.669,108.76,326.126,108.145,325.244,108.145z"/>
<path fill="#44515D" d="M336.162,113.676v-4.033c0-0.883-0.238-1.398-1.068-1.398c-1.028,0-1.772,1.045-1.772,2.426v3.006h-1.134
	V104.5h1.134v2.953c0,0.402-0.028,0.918-0.111,1.244l0.022,0.014c0.363-0.855,1.131-1.409,2.179-1.409c1.43,0,1.88,0.892,1.88,1.999
	v4.373h-1.129V113.676z"/>
<path fill="#44515D" d="M342.755,113.676c0-0.441,0-0.891,0.062-1.244h-0.028c-0.301,0.768-1.092,1.357-2.123,1.357
	c-1.028,0-1.73-0.555-1.73-1.545c0-1.371,1.389-2.238,3.758-2.238v-0.467c0-0.867-0.34-1.33-1.373-1.33
	c-0.589,0-1.343,0.189-1.886,0.516l-0.114-0.969c0.603-0.251,1.36-0.453,2.187-0.453c1.799,0,2.317,0.842,2.317,2.086v2.488
	c0,0.59,0.011,1.26,0.027,1.797h-1.097V113.676z M342.693,110.799c-2.177,0-2.654,0.666-2.654,1.23c0,0.529,0.375,0.867,0.955,0.867
	c1.018,0,1.699-1.006,1.699-1.986V110.799L342.693,110.799z"/>
<path fill="#44515D" d="M348.353,113.676h-1.169l-2.35-6.248h1.267l1.318,3.723c0.142,0.4,0.267,0.789,0.364,1.182h0.028
	c0.101-0.365,0.213-0.768,0.355-1.145l1.355-3.758h1.218L348.353,113.676z"/>
<path fill="#44515D" d="M356.413,110.484h-4.086c-0.051,1.67,0.641,2.387,1.973,2.387c0.641,0,1.321-0.148,1.82-0.389l0.101,0.918
	c-0.6,0.25-1.329,0.389-2.11,0.389c-1.924,0-2.952-1.004-2.952-3.205c0-1.871,1.018-3.269,2.789-3.269
	c1.761,0,2.504,1.194,2.504,2.628C356.451,110.094,356.436,110.27,356.413,110.484z M353.896,108.145
	c-0.813,0-1.392,0.615-1.52,1.533h2.914C355.317,108.76,354.777,108.145,353.896,108.145z"/>
<path fill="#44515D" d="M363.921,108.422c-1.321-0.229-1.951,0.742-1.951,2.74v2.514h-1.13v-6.248h1.094
	c0,0.39-0.031,0.969-0.135,1.482h0.021c0.268-0.868,0.908-1.735,2.154-1.596L363.921,108.422z"/>
<path fill="#44515D" d="M369.844,110.484h-4.086c-0.049,1.67,0.641,2.387,1.976,2.387c0.64,0,1.318-0.148,1.82-0.389l0.103,0.918
	c-0.604,0.25-1.335,0.389-2.11,0.389c-1.924,0-2.955-1.004-2.955-3.205c0-1.871,1.015-3.269,2.787-3.269
	c1.764,0,2.504,1.194,2.504,2.628C369.882,110.094,369.871,110.27,369.844,110.484z M367.331,108.145
	c-0.816,0-1.395,0.615-1.521,1.533h2.914C368.75,108.76,368.208,108.145,367.331,108.145z"/>
<path fill="#44515D" d="M374.863,113.676c0-0.441,0-0.891,0.065-1.244h-0.027c-0.304,0.768-1.097,1.357-2.122,1.357
	c-1.033,0-1.736-0.555-1.736-1.545c0-1.371,1.395-2.238,3.758-2.238v-0.467c0-0.867-0.339-1.33-1.37-1.33
	c-0.592,0-1.346,0.189-1.887,0.516l-0.108-0.969c0.601-0.251,1.357-0.453,2.187-0.453c1.796,0,2.312,0.842,2.312,2.086v2.488
	c0,0.59,0.011,1.26,0.028,1.797h-1.099V113.676z M374.801,110.799c-2.172,0-2.65,0.666-2.65,1.23c0,0.529,0.375,0.867,0.953,0.867
	c1.019,0,1.7-1.006,1.7-1.986v-0.111H374.801z"/>
<path fill="#44515D" d="M378.084,113.676V104.5h1.131v9.176H378.084z"/>
<path fill="#44515D" d="M386.286,113.752c-0.391,0-0.692-0.014-1.059-0.076v3.104h-1.131v-9.352h1.096
	c0,0.352-0.024,0.918-0.104,1.27l0.024,0.014c0.355-0.869,1.107-1.396,2.104-1.396c1.457,0,2.286,1.031,2.286,2.941
	C389.504,112.482,388.307,113.752,386.286,113.752z M386.937,108.244c-1.131,0-1.709,1.322-1.709,2.416v2.061
	c0.331,0.1,0.679,0.15,1.107,0.15c1.193,0,1.984-0.717,1.984-2.514C388.318,109.014,387.881,108.244,386.937,108.244z"/>
<path fill="#44515D" d="M394.194,108.422c-1.318-0.229-1.947,0.742-1.947,2.74v2.514h-1.133v-6.248h1.093
	c0,0.39-0.033,0.969-0.134,1.482h0.025c0.262-0.868,0.902-1.735,2.149-1.596L394.194,108.422z"/>
<path fill="#44515D" d="M397.654,113.789c-1.693,0-2.803-0.982-2.803-3.182c0-1.834,1.153-3.292,3.04-3.292
	c1.595,0,2.813,0.878,2.813,3.13C400.706,112.332,399.505,113.789,397.654,113.789z M397.795,108.258
	c-0.909,0-1.765,0.691-1.765,2.238c0,1.51,0.614,2.338,1.765,2.338c0.926,0,1.736-0.73,1.736-2.324
	C399.531,109.088,398.951,108.258,397.795,108.258z"/>
<path fill="#44515D" d="M404.435,113.764c-0.866,0-1.484-0.076-2.146-0.252V104.5h1.129v3.029c0,0.364-0.038,0.855-0.114,1.17
	l0.024,0.014c0.342-0.883,1.121-1.397,2.062-1.397c1.47,0,2.301,1.03,2.301,2.94C407.69,112.443,406.444,113.764,404.435,113.764z
	 M405.126,108.244c-1.129,0-1.709,1.322-1.709,2.402v2.074c0.322,0.1,0.667,0.15,1.108,0.15c1.192,0,1.983-0.717,1.983-2.514
	C406.507,109.014,406.07,108.244,405.126,108.244z"/>
<path fill="#44515D" d="M409.302,113.676V104.5h1.131v9.176H409.302z"/>
<path fill="#44515D" d="M417.273,110.484h-4.087c-0.046,1.67,0.641,2.387,1.976,2.387c0.641,0,1.318-0.148,1.826-0.389l0.098,0.918
	c-0.605,0.25-1.335,0.389-2.111,0.389c-1.925,0-2.957-1.004-2.957-3.205c0-1.871,1.017-3.269,2.792-3.269
	c1.761,0,2.499,1.194,2.499,2.628C417.309,110.094,417.3,110.27,417.273,110.484z M414.761,108.145
	c-0.816,0-1.397,0.615-1.522,1.533h2.917C416.18,108.76,415.643,108.145,414.761,108.145z"/>
<path fill="#44515D" d="M426.745,113.676v-4.01c0-0.865-0.206-1.422-1.018-1.422c-0.898,0-1.753,0.943-1.753,2.453v2.979h-1.112
	v-4.02c0-0.781-0.168-1.41-1.023-1.41c-0.954,0-1.747,1.02-1.747,2.451v2.98h-1.128v-6.247h1.093c0,0.364-0.027,0.931-0.101,1.308
	l0.026,0.012c0.363-0.879,1.172-1.445,2.175-1.445c1.318,0,1.668,0.918,1.72,1.42c0.269-0.592,0.931-1.42,2.138-1.42
	c1.181,0,1.858,0.642,1.858,2.049v4.322H426.745L426.745,113.676z"/>
<path fill="#44515D" d="M430.999,113.789c-0.464,0-0.934-0.037-1.318-0.113l0.035-1.006c0.394,0.125,0.893,0.213,1.373,0.213
	c0.827,0,1.392-0.375,1.392-0.953c0-1.396-2.906-0.543-2.906-2.742c0-1.057,0.871-1.873,2.505-1.873c0.38,0,0.816,0.051,1.193,0.125
	l-0.025,0.943c-0.387-0.125-0.84-0.201-1.258-0.201c-0.829,0-1.241,0.352-1.241,0.895c0,1.369,2.914,0.627,2.914,2.727
	C433.663,112.934,432.657,113.789,430.999,113.789z"/>
<path fill="#44515D" d="M436.5,113.008c0,0.428-0.353,0.781-0.778,0.781c-0.429,0-0.779-0.354-0.779-0.781s0.351-0.779,0.779-0.779
	C436.147,112.23,436.5,112.582,436.5,113.008z"/>
<path fill="#7F8A99" d="M267.375,126.254h-1.422l-1.62-5.709c-0.138-0.488-0.238-0.992-0.314-1.469h-0.012
	c-0.062,0.49-0.164,0.967-0.303,1.457l-1.585,5.721h-1.381l-2.238-8.486h1.231l1.435,5.531c0.15,0.564,0.251,1.08,0.339,1.635h0.014
	c0.085-0.541,0.202-1.07,0.339-1.572l1.571-5.592h1.307l1.619,5.645c0.128,0.439,0.253,0.979,0.34,1.494h0.015
	c0.085-0.488,0.175-0.928,0.289-1.383l1.47-5.758h1.145L267.375,126.254z"/>
<path fill="#7F8A99" d="M275.337,123.061h-4.085c-0.052,1.672,0.641,2.389,1.976,2.389c0.64,0,1.316-0.15,1.821-0.391l0.1,0.92
	c-0.604,0.252-1.332,0.389-2.112,0.389c-1.924,0-2.952-1.008-2.952-3.207c0-1.873,1.016-3.268,2.79-3.268
	c1.759,0,2.502,1.193,2.502,2.625C275.373,122.672,275.362,122.848,275.337,123.061z M272.823,120.723
	c-0.814,0-1.395,0.615-1.521,1.533h2.918C274.243,121.34,273.702,120.723,272.823,120.723z"/>
<path fill="#7F8A99" d="M283.739,126.254v-4.035c0-0.879-0.24-1.396-1.067-1.396c-1.032,0-1.773,1.045-1.773,2.428v3.006h-1.133
	v-9.178h1.133v2.953c0,0.404-0.025,0.916-0.113,1.246l0.025,0.012c0.366-0.854,1.133-1.41,2.173-1.41
	c1.435,0,1.886,0.895,1.886,1.998v4.377H283.739z"/>
<path fill="#7F8A99" d="M290.331,126.254c0-0.441,0-0.895,0.062-1.244h-0.027c-0.301,0.768-1.093,1.357-2.121,1.357
	c-1.034,0-1.737-0.553-1.737-1.545c0-1.371,1.396-2.238,3.76-2.238v-0.465c0-0.869-0.341-1.332-1.37-1.332
	c-0.592,0-1.345,0.188-1.888,0.516l-0.11-0.969c0.604-0.25,1.358-0.453,2.187-0.453c1.799,0,2.314,0.844,2.314,2.088v2.49
	c0,0.59,0.011,1.256,0.024,1.797h-1.094V126.254z M290.268,123.375c-2.176,0-2.652,0.666-2.652,1.232
	c0,0.525,0.377,0.867,0.955,0.867c1.018,0,1.698-1.008,1.698-1.988L290.268,123.375L290.268,123.375z"/>
<path fill="#7F8A99" d="M295.929,126.254h-1.17l-2.351-6.246h1.27l1.32,3.717c0.138,0.404,0.263,0.793,0.364,1.184h0.026
	c0.101-0.363,0.213-0.768,0.353-1.143l1.356-3.758h1.221L295.929,126.254z"/>
<path fill="#7F8A99" d="M303.986,123.061h-4.083c-0.052,1.672,0.641,2.389,1.973,2.389c0.64,0,1.318-0.15,1.823-0.391l0.101,0.92
	c-0.605,0.252-1.333,0.389-2.111,0.389c-1.924,0-2.956-1.008-2.956-3.207c0-1.873,1.019-3.268,2.791-3.268
	c1.761,0,2.504,1.193,2.504,2.625C304.024,122.672,304.014,122.848,303.986,123.061z M301.475,120.723
	c-0.819,0-1.397,0.615-1.522,1.533h2.917C302.895,121.34,302.354,120.723,301.475,120.723z"/>
<path fill="#7F8A99" d="M311.497,121c-1.32-0.229-1.948,0.74-1.948,2.738v2.518h-1.129v-6.248h1.091
	c0,0.389-0.038,0.967-0.139,1.482h0.027c0.264-0.867,0.903-1.734,2.146-1.598L311.497,121z"/>
<path fill="#7F8A99" d="M317.42,123.061h-4.084c-0.049,1.672,0.644,2.389,1.973,2.389c0.641,0,1.318-0.15,1.826-0.391l0.098,0.92
	c-0.606,0.252-1.332,0.389-2.112,0.389c-1.924,0-2.955-1.008-2.955-3.207c0-1.873,1.017-3.268,2.794-3.268
	c1.758,0,2.501,1.193,2.501,2.625C317.46,122.672,317.446,122.848,317.42,123.061z M314.907,120.723
	c-0.819,0-1.395,0.615-1.522,1.533h2.917C316.327,121.34,315.789,120.723,314.907,120.723z"/>
<path fill="#7F8A99" d="M322.441,126.254c0-0.441,0-0.895,0.062-1.244h-0.024c-0.303,0.768-1.093,1.357-2.124,1.357
	c-1.034,0-1.736-0.553-1.736-1.545c0-1.371,1.395-2.238,3.758-2.238v-0.465c0-0.869-0.34-1.332-1.368-1.332
	c-0.594,0-1.346,0.188-1.886,0.516l-0.113-0.969c0.604-0.25,1.36-0.453,2.189-0.453c1.796,0,2.309,0.844,2.309,2.088v2.49
	c0,0.59,0.014,1.256,0.024,1.797h-1.091V126.254z M322.377,123.375c-2.177,0-2.651,0.666-2.651,1.232
	c0,0.525,0.377,0.867,0.955,0.867c1.018,0,1.696-1.008,1.696-1.988V123.375L322.377,123.375z"/>
<path fill="#7F8A99" d="M325.662,126.254v-9.176h1.132v9.176H325.662z"/>
<path fill="#7F8A99" d="M332.654,126.367c-0.47,0-0.931-0.037-1.324-0.113l0.041-1.006c0.388,0.125,0.896,0.211,1.37,0.211
	c0.833,0,1.395-0.377,1.395-0.955c0-1.395-2.903-0.539-2.903-2.738c0-1.057,0.865-1.875,2.504-1.875
	c0.372,0,0.817,0.051,1.194,0.125l-0.027,0.945c-0.391-0.125-0.838-0.201-1.256-0.201c-0.83,0-1.247,0.352-1.247,0.893
	c0,1.371,2.92,0.629,2.92,2.727C335.318,125.512,334.314,126.367,332.654,126.367z"/>
<path fill="#7F8A99" d="M339.242,126.367c-1.696,0-2.803-0.98-2.803-3.182c0-1.836,1.158-3.293,3.042-3.293
	c1.595,0,2.812,0.879,2.812,3.131C342.297,124.908,341.092,126.367,339.242,126.367z M339.383,120.836
	c-0.902,0-1.761,0.691-1.761,2.236c0,1.508,0.613,2.34,1.761,2.34c0.928,0,1.731-0.729,1.731-2.326
	C341.114,121.664,340.539,120.836,339.383,120.836z"/>
<path fill="#7F8A99" d="M343.87,126.254v-9.176h1.135v9.176H343.87z"/>
<path fill="#7F8A99" d="M351.139,126.254c0-0.365,0.041-0.943,0.104-1.307l-0.024-0.014c-0.363,0.867-1.132,1.445-2.2,1.445
	c-1.433,0-1.875-0.893-1.875-2v-4.371h1.12v4.033c0,0.881,0.25,1.395,1.066,1.395c1.034,0,1.785-1.043,1.785-2.426v-3.004h1.118
	v6.246h-1.094V126.254z"/>
<path fill="#7F8A99" d="M356.3,126.352c-1.283,0-1.672-0.525-1.672-1.871v-3.594h-1.283v-0.879h1.283v-2.025l1.128-0.314v2.34h1.748
	v0.879h-1.748v3.191c0,1.031,0.188,1.309,0.894,1.309c0.293,0,0.605-0.051,0.854-0.111v0.955
	C357.154,126.303,356.701,126.352,356.3,126.352z"/>
<path fill="#7F8A99" d="M359.607,118.975c-0.416,0-0.758-0.324-0.758-0.742c0-0.402,0.342-0.729,0.758-0.729
	c0.415,0,0.754,0.312,0.754,0.729C360.361,118.637,360.022,118.975,359.607,118.975z M359.043,126.254v-6.246h1.131v6.246H359.043z"
	/>
<path fill="#7F8A99" d="M364.534,126.367c-1.693,0-2.8-0.98-2.8-3.182c0-1.836,1.153-3.293,3.04-3.293
	c1.594,0,2.812,0.879,2.812,3.131C367.589,124.908,366.388,126.367,364.534,126.367z M364.675,120.836
	c-0.906,0-1.761,0.691-1.761,2.236c0,1.508,0.613,2.34,1.761,2.34c0.929,0,1.737-0.729,1.737-2.326
	C366.412,121.664,365.834,120.836,364.675,120.836z"/>
<path fill="#7F8A99" d="M373.141,126.254v-4.035c0-0.879-0.242-1.396-1.07-1.396c-1.03,0-1.771,1.045-1.771,2.428v3.006h-1.132
	v-6.248h1.091c0,0.363-0.021,0.941-0.101,1.307l0.027,0.014c0.365-0.867,1.132-1.447,2.2-1.447c1.43,0,1.886,0.895,1.886,1.998
	v4.377h-1.131V126.254z"/>
<path fill="#7F8A99" d="M377.378,126.367c-0.464,0-0.928-0.037-1.318-0.113l0.035-1.006c0.391,0.125,0.896,0.211,1.373,0.211
	c0.828,0,1.395-0.377,1.395-0.955c0-1.395-2.903-0.539-2.903-2.738c0-1.057,0.864-1.875,2.502-1.875
	c0.374,0,0.813,0.051,1.195,0.125l-0.028,0.945c-0.39-0.127-0.843-0.203-1.255-0.203c-0.832,0-1.247,0.352-1.247,0.893
	c0,1.371,2.92,0.631,2.92,2.729C380.046,125.512,379.042,126.367,377.378,126.367z"/>
<path fill="#7F8A99" d="M382.886,125.59c0,0.428-0.35,0.777-0.778,0.777c-0.428,0-0.78-0.35-0.78-0.777
	c0-0.43,0.353-0.781,0.78-0.781C382.536,124.809,382.886,125.16,382.886,125.59z"/>
<path fill="#E24492" d="M251.5,155.85h-1v-5.557h1V155.85z M251.5,144.736h-1v-5.557h1V144.736z M251.5,133.623h-1v-5.557h1V133.623
	z M251.5,122.51h-1v-5.557h1V122.51z M251.5,111.396h-1v-5.557h1V111.396z M251.5,100.283h-1v-5.557h1V100.283z M251.5,89.17h-1
	v-5.557h1V89.17z M251.5,78.057h-1V72.5h1V78.057z"/>
<path fill="#E24492" d="M258.5,155.85h-1v-5.557h1V155.85z M258.5,144.736h-1v-5.557h1V144.736z M258.5,133.623h-1v-5.557h1V133.623
	z M258.5,122.51h-1v-5.557h1V122.51z M258.5,111.396h-1v-5.557h1V111.396z M258.5,100.283h-1v-5.557h1V100.283z M258.5,89.17h-1
	v-5.557h1V89.17z M258.5,78.057h-1V72.5h1V78.057z"/>
<g>
	<path fill="#00ADEE" d="M256.872,169.5l-2.437-3.719l-2.421,3.719H250.5l3.143-4.642l-2.945-4.358h1.502l2.267,3.439l2.22-3.439
		h1.475l-2.903,4.322l3.243,4.678H256.872z"/>
</g>
<rect x="218.5" y="103.5" fill="#00ADEE" width="63" height="1"/>
</svg>
