<?xml version="1.0" encoding="utf-8"?>
<!-- Generator: Adobe Illustrator 16.0.5, SVG Export Plug-In . SVG Version: 6.00 Build 0)  -->
<!DOCTYPE svg PUBLIC "-//W3C//DTD SVG 1.1//EN" "http://www.w3.org/Graphics/SVG/1.1/DTD/svg11.dtd">
<svg version="1.1" id="Me_1_" xmlns="http://www.w3.org/2000/svg" xmlns:xlink="http://www.w3.org/1999/xlink" x="0px" y="0px"
	 width="44px" height="44px" viewBox="0 0 44 44" enable-background="new 0 0 44 44" xml:space="preserve">
<g id="Silhouette_1_" opacity="0.87">
	<path d="M42,38l-1.666,6c0,0-14.486,0-18.332,0c-3.832,0-18.335,0-18.335,0L2,38c1.793-1.301,8.065-3.089,9.288-3.405
		c1.012-0.262,4.519-0.589,5.117-1.448c0.645-0.922,0.12-4.385,0.12-4.385c-0.896-1.158-1.646-4.793-1.604-5.098
		c-0.442,0-0.845-0.33-1.176-0.85c-0.71-0.312-0.939-0.996-0.981-1.822c-0.382-0.59-1.221-1.167-1.08-2.067
		c0.087-0.555,0.701-0.866,0.51-1.495c-0.242-0.199-0.476-0.113-0.695-0.25c-0.502-0.317-0.795-1.356-0.555-2.104
		c0.251-0.777,1.273-0.743,1.638-1.346c-0.423-0.826-0.514-1.853,0.045-2.701c0.159-0.239,0.851-0.545,0.94-0.812
		c0.025-0.066-0.125-1.023-0.048-1.206c0.141-0.341,0.57-0.189,0.74-0.474c0.192-0.314,0.055-0.771,0.245-1.061
		c0.248-0.386,0.688-0.465,1.178-0.465c0.21,0,0.43,0.016,0.652,0.026c0.095-0.396-0.278-0.66-0.219-1.12
		c0.071-0.527,0.765-1.131,1.27-1.131c0.354,0,0.573,0.4,0.909,0.432c0.3,0,0.359-0.131,0.545-0.191
		c0.202-0.066,0.382-0.124,0.585-0.124c0.647,0,0.813,0.274,1.351,0.437c0.181-0.82,0.892-1.333,1.344-1.333
		c0.009,0,0.022-0.003,0.033-0.002c0,0,0.028-0.005,0.076-0.005c0.167,0,0.581,0.042,1.008,0.462
		c0.182,0.179,0.756,0.44,1.035,0.435c0.258-0.006,0.693-0.24,1-0.24c0,0,0.006,0,0.012,0c0.854,0.06,1.244,0.48,1.797,1.009
		c0.32,0.306,0.564,0.206,0.834,0.466c0.334,0.326,0.328,0.903,0.584,1.064c0.197,0.123,0.689-0.08,0.92,0.104
		c0.395,0.317,0.445,0.633,0.213,1.151c0.598,0.325,1.334,0.614,1.766,1.188c0.316,0.43,0.658,1.114,0.424,1.803
		c-0.135,0.412-0.271,0.832-0.037,0.832c0,0,0.785,0.246,0.953,0.877c0.158,0.61-0.264,1.445-0.551,1.613
		c0.404,0.555,1.301,1.149,0.814,2.09c0.479,0.93-0.371,1.557-0.67,2.305c-0.15,0.381-0.176,0.77-0.352,1.099
		c-0.248,0.464-0.752,0.687-1.076,0.919c-0.33,1.37-1.023,2.487-1.82,2.487c0.041,0.306-0.709,3.938-1.605,5.098
		c0,0-0.523,3.464,0.119,4.386c0.6,0.857,4.105,1.183,5.119,1.447C33.947,34.917,40.25,36.665,42,38z"/>
</g>
</svg>
