<?xml version="1.0" encoding="utf-8"?>
<!-- Generator: Adobe Illustrator 16.0.5, SVG Export Plug-In . SVG Version: 6.00 Build 0)  -->
<!DOCTYPE svg PUBLIC "-//W3C//DTD SVG 1.1//EN" "http://www.w3.org/Graphics/SVG/1.1/DTD/svg11.dtd">
<svg version="1.1" id="award" xmlns="http://www.w3.org/2000/svg" xmlns:xlink="http://www.w3.org/1999/xlink" x="0px" y="0px"
	 width="64px" height="64px" viewBox="0 0 64 64" enable-background="new 0 0 64 64" xml:space="preserve">
<path id="border" opacity="0.87" d="M24.283,64l-3.288-10.417l-10.376,3.189l1.895-10.759L1.858,43.984l6.64-8.639L0,28.56
	l9.863-4.539l-4.395-9.989l10.829,0.597l0.718-10.906l9.317,5.599L32,0l5.668,9.322l9.318-5.599l0.717,10.906l10.83-0.597
	l-4.396,9.989l9.863,4.539l-8.499,6.786l6.641,8.639l-10.655,2.029l1.894,10.76l-10.374-3.19L39.718,64L32,56.316L24.283,64z
	 M32,53.494l6.8,6.77l2.898-9.175l9.146,2.812l-1.669-9.482l9.401-1.791l-5.857-7.619l7.499-5.987l-8.703-4.006l3.876-8.807
	l-9.553,0.526l-0.633-9.608l-8.213,4.935L32,3.849l-4.994,8.211l-8.211-4.935l-0.633,9.608l-9.551-0.526l3.875,8.808l-8.704,4.005
	l7.498,5.987l-5.857,7.619l9.402,1.791l-1.67,9.483l9.149-2.812l2.896,9.175L32,53.494z"/>
<polygon id="check" opacity="0.87" points="27.479,42.769 18.518,33.808 21.346,30.979 27.479,37.112 42.654,21.938 45.482,24.767 
	"/>
</svg>
