<?xml version="1.0" encoding="utf-8"?>
<!-- Copyright © 2014 Brian Speir. All rights reserved.  -->
<!DOCTYPE svg PUBLIC "-//W3C//DTD SVG 1.1//EN" "http://www.w3.org/Graphics/SVG/1.1/DTD/svg11.dtd">
<svg version="1.1" id="Me_1_" xmlns="http://www.w3.org/2000/svg" xmlns:xlink="http://www.w3.org/1999/xlink" x="0px" y="0px"
	 width="44px" height="44px" viewBox="-34.5 255.5 44 44" enable-background="new -34.5 255.5 44 44" xml:space="preserve">
<g id="Silhouette_1_">
	<path fill="#4B4B4B" d="M7.5,293.5l-1.666,6c0,0-14.487,0-18.333,0c-3.832,0-18.335,0-18.335,0l-1.667-6
		c1.793-1.301,8.066-3.089,9.288-3.405c1.012-0.262,4.519-0.589,5.118-1.448c0.644-0.923,0.12-4.385,0.12-4.385
		c-0.897-1.159-1.646-4.793-1.604-5.098c-0.442,0-0.845-0.33-1.176-0.85c-0.71-0.312-0.939-0.995-0.981-1.822
		c-0.382-0.59-1.221-1.167-1.08-2.067c0.087-0.555,0.701-0.866,0.51-1.496c-0.243-0.198-0.476-0.112-0.696-0.249
		c-0.502-0.318-0.795-1.357-0.554-2.104c0.251-0.777,1.273-0.743,1.637-1.345c-0.423-0.827-0.513-1.853,0.045-2.702
		c0.159-0.239,0.851-0.545,0.941-0.812c0.025-0.067-0.125-1.024-0.048-1.206c0.14-0.341,0.57-0.19,0.74-0.474
		c0.192-0.314,0.055-0.772,0.245-1.061c0.248-0.385,0.688-0.464,1.178-0.464c0.21,0,0.43,0.016,0.652,0.026
		c0.095-0.396-0.278-0.66-0.219-1.12c0.072-0.527,0.765-1.131,1.27-1.131c0.354,0,0.573,0.4,0.909,0.432
		c0.3,0,0.36-0.131,0.545-0.192c0.202-0.066,0.382-0.124,0.585-0.124c0.648,0,0.814,0.275,1.351,0.437
		c0.18-0.821,0.891-1.333,1.343-1.333c0.009,0,0.023-0.003,0.034-0.002c0,0,0.028-0.005,0.076-0.005
		c0.167,0,0.581,0.042,1.008,0.462c0.182,0.178,0.755,0.44,1.035,0.435c0.257-0.006,0.693-0.241,0.999-0.241c0,0,0.007,0,0.012,0
		c0.854,0.06,1.245,0.481,1.798,1.009c0.319,0.305,0.564,0.206,0.833,0.466c0.335,0.326,0.329,0.903,0.585,1.064
		c0.196,0.124,0.688-0.08,0.92,0.104c0.394,0.317,0.444,0.633,0.213,1.151c0.597,0.326,1.334,0.615,1.764,1.188
		c0.317,0.431,0.658,1.115,0.424,1.804c-0.135,0.411-0.27,0.831-0.037,0.831c0,0,0.786,0.247,0.953,0.877
		c0.159,0.611-0.263,1.446-0.551,1.613c0.405,0.555,1.301,1.15,0.816,2.09c0.478,0.93-0.371,1.557-0.67,2.305
		c-0.151,0.381-0.177,0.77-0.353,1.099c-0.248,0.463-0.751,0.686-1.076,0.919c-0.329,1.37-1.022,2.487-1.82,2.487
		c0.042,0.306-0.708,3.938-1.605,5.098c0,0-0.523,3.464,0.119,4.385c0.599,0.858,4.106,1.183,5.119,1.448
		C-0.554,290.417,5.749,292.165,7.5,293.5z"/>
</g>
</svg>
