<?xml version="1.0" encoding="utf-8"?>
<!-- Copyright (C) 2014 Brian Speir. All rights reserved. -->
<!DOCTYPE svg PUBLIC "-//W3C//DTD SVG 1.1//EN" "http://www.w3.org/Graphics/SVG/1.1/DTD/svg11.dtd">
<svg version="1.1" id="Me_1_" xmlns="http://www.w3.org/2000/svg" xmlns:xlink="http://www.w3.org/1999/xlink" x="0px" y="0px"
	 width="120px" height="120px" viewBox="0.5 120.5 120 120" enable-background="new 0.5 120.5 120 120" xml:space="preserve">
<path id="Silhouette_1_" fill="#555555" d="M120.5,222.5l-5,18c0,0-43.459,0-54.996,0c-11.494,0-55.004,0-55.004,0l-5-18
	c5.379-3.904,24.198-9.264,27.861-10.215c3.04-0.789,13.56-1.768,15.356-4.344c1.929-2.769,0.358-13.156,0.358-13.156
	c-2.69-3.479-4.937-14.379-4.812-15.293c-1.325,0-2.535-0.988-3.525-2.551c-2.132-0.938-2.818-2.981-2.945-5.463
	c-1.147-1.772-3.665-3.502-3.24-6.205c0.261-1.662,2.103-2.597,1.532-4.489c-0.729-0.593-1.428-0.332-2.088-0.743
	c-1.508-0.957-2.387-4.076-1.662-6.314c0.754-2.334,3.819-2.234,4.911-4.031c-1.268-2.485-1.543-5.562,0.136-8.107
	c0.475-0.721,2.55-1.639,2.821-2.439c0.075-0.203-0.372-3.074-0.144-3.621c0.421-1.019,1.711-0.57,2.219-1.418
	c0.576-0.945,0.167-2.317,0.735-3.182c0.743-1.154,2.064-1.389,3.533-1.389c0.633,0,1.29,0.042,1.957,0.075
	c0.285-1.189-0.835-1.976-0.66-3.357c0.217-1.586,2.296-3.393,3.81-3.393c1.062,0,1.721,1.202,2.729,1.293
	c0.9,0,1.078-0.394,1.636-0.576c0.604-0.201,1.146-0.371,1.757-0.371c1.946,0,2.443,0.825,4.053,1.308
	c0.539-2.465,2.672-3.996,4.027-3.996c0.025,0,0.072-0.011,0.102-0.006c0,0,0.085-0.016,0.229-0.016c0.5,0,1.744,0.125,3.023,1.386
	c0.544,0.535,2.266,1.321,3.107,1.304c0.771-0.019,2.076-0.725,2.994-0.725c0,0,0.023,0,0.035,0c2.565,0.18,3.737,1.446,5.396,3.025
	c0.957,0.918,1.692,0.621,2.5,1.396c1.006,0.979,0.985,2.71,1.754,3.197c0.589,0.372,2.063-0.239,2.761,0.317
	c1.182,0.949,1.332,1.893,0.639,3.453c1.789,0.975,4.002,1.842,5.291,3.564c0.953,1.293,1.974,3.348,1.274,5.411
	c-0.405,1.233-0.812,2.493-0.112,2.493c0,0,2.359,0.742,2.857,2.631c0.477,1.832-0.789,4.34-1.652,4.839
	c1.215,1.665,3.902,3.45,2.449,6.269c1.432,2.789-1.113,4.674-2.011,6.916c-0.453,1.14-0.533,2.307-1.062,3.295
	c-0.742,1.388-2.252,2.055-3.224,2.756c-0.989,4.111-3.069,7.463-5.464,7.463c0.125,0.917-2.122,11.814-4.812,15.293
	c0,0-1.572,10.391,0.357,13.156c1.795,2.576,12.318,3.547,15.355,4.344C96.339,213.255,115.248,218.497,120.5,222.5z"/>
</svg>
