<?xml version="1.0" encoding="utf-8"?>
<!-- Generator: Adobe Illustrator 16.0.5, SVG Export Plug-In . SVG Version: 6.00 Build 0)  -->
<!DOCTYPE svg PUBLIC "-//W3C//DTD SVG 1.1//EN" "http://www.w3.org/Graphics/SVG/1.1/DTD/svg11.dtd">
<svg version="1.1" id="_x3C_container_x3E_" xmlns="http://www.w3.org/2000/svg" xmlns:xlink="http://www.w3.org/1999/xlink"
	 x="0px" y="0px" width="320px" height="320px" viewBox="0 0 320 320" enable-background="new 0 0 320 320" xml:space="preserve">
<g id="film" opacity="0.87">
	<path fill="#232222" d="M268.96,169.15c0,3.168-2.592,5.76-5.76,5.76h-21.44c-3.168,0-5.76-2.592-5.76-5.76v-18.3
		c0-3.168,2.592-5.76,5.76-5.76h21.44c3.168,0,5.76,2.592,5.76,5.76V169.15z"/>
	<path fill="#232222" d="M84,169.15c0,3.168-2.592,5.76-5.76,5.76H56.8c-3.168,0-5.76-2.592-5.76-5.76v-18.3
		c0-3.168,2.592-5.76,5.76-5.76h21.44c3.168,0,5.76,2.592,5.76,5.76V169.15z"/>
	<path fill="#232222" d="M262.141,120.968c1.373,2.854,0.164,6.314-2.691,7.689l-19.316,9.302c-2.854,1.375-6.314,0.164-7.689-2.69
		l-7.94-16.489c-1.374-2.854-0.164-6.314,2.69-7.688l19.316-9.303c2.854-1.375,6.314-0.164,7.689,2.69L262.141,120.968z"/>
	<path fill="#232222" d="M95.497,201.219c1.375,2.854,0.164,6.314-2.69,7.689l-19.317,9.303c-2.854,1.375-6.314,0.164-7.689-2.689
		l-7.94-16.489c-1.375-2.854-0.164-6.314,2.69-7.689l19.317-9.303c2.854-1.375,6.314-0.164,7.689,2.69L95.497,201.219z"/>
	<path fill="#232222" d="M254.203,215.514c-1.375,2.854-4.834,4.065-7.688,2.691l-19.317-9.301
		c-2.854-1.375-4.065-4.834-2.691-7.688l7.938-16.489c1.375-2.854,4.834-4.065,7.688-2.691l19.317,9.301
		c2.854,1.374,4.064,4.834,2.691,7.688L254.203,215.514z"/>
	<path fill="#232222" d="M87.554,135.275c-1.375,2.854-4.834,4.065-7.688,2.691l-19.317-9.301c-2.854-1.375-4.065-4.834-2.691-7.688
		l7.939-16.49c1.375-2.854,4.834-4.065,7.689-2.691l19.317,9.301c2.854,1.374,4.065,4.834,2.691,7.688L87.554,135.275z"/>
	<path fill="#232222" d="M235.102,80.528c2.478,1.976,2.888,5.618,0.912,8.095l-13.371,16.76c-1.977,2.477-5.619,2.887-8.096,0.911
		L200.24,94.881c-2.477-1.976-2.887-5.618-0.911-8.095l13.371-16.76c1.976-2.477,5.618-2.887,8.095-0.911L235.102,80.528z"/>
	<path fill="#232222" d="M119.759,225.119c2.477,1.976,2.887,5.617,0.911,8.094l-13.37,16.762c-1.976,2.477-5.618,2.885-8.095,0.91
		l-14.307-11.412c-2.477-1.977-2.886-5.619-0.911-8.096l13.37-16.76c1.976-2.477,5.619-2.887,8.095-0.911L119.759,225.119z"/>
	<path fill="#232222" d="M220.795,250.885c-2.477,1.975-6.119,1.565-8.095-0.91l-13.371-16.762
		c-1.976-2.477-1.565-6.119,0.911-8.094l14.307-11.414c2.477-1.975,6.119-1.564,8.096,0.911l13.371,16.761
		c1.976,2.477,1.564,6.119-0.912,8.096L220.795,250.885z"/>
	<path fill="#232222" d="M105.453,106.294c-2.477,1.976-6.119,1.565-8.095-0.911l-13.37-16.76c-1.976-2.477-1.565-6.119,0.911-8.095
		l14.307-11.413c2.477-1.976,6.119-1.565,8.095,0.911l13.37,16.761c1.976,2.477,1.566,6.119-0.911,8.094L105.453,106.294z"/>
	<path fill="#232222" d="M193.189,55.815c3.088,0.706,5.039,3.81,4.334,6.898l-4.776,20.901c-0.706,3.088-3.81,5.038-6.897,4.332
		l-17.843-4.076c-3.088-0.706-5.038-3.81-4.332-6.898l4.775-20.901c0.706-3.088,3.81-5.038,6.897-4.332L193.189,55.815z"/>
	<path fill="#232222" d="M151.993,236.129c3.088,0.706,5.038,3.811,4.332,6.898l-4.775,20.9c-0.706,3.09-3.81,5.038-6.898,4.333
		l-17.841-4.075c-3.088-0.707-5.038-3.811-4.332-6.898l4.775-20.901c0.706-3.088,3.81-5.038,6.898-4.332L151.993,236.129z"/>
	<path fill="#232222" d="M175.35,268.261c-3.089,0.706-6.193-1.243-6.898-4.333l-4.776-20.9c-0.706-3.088,1.244-6.193,4.333-6.898
		l17.842-4.076c3.088-0.705,6.191,1.244,6.897,4.332l4.774,20.901c0.707,3.088-1.244,6.192-4.332,6.897L175.35,268.261z"/>
	<path fill="#232222" d="M134.151,87.948c-3.088,0.706-6.192-1.244-6.898-4.333l-4.775-20.901c-0.706-3.088,1.244-6.193,4.333-6.898
		l17.841-4.077c3.088-0.706,6.192,1.244,6.898,4.333l4.776,20.901c0.706,3.088-1.244,6.193-4.333,6.898L134.151,87.948z"/>
</g>
<g id="reel" opacity="0.54">
	<path fill="#FFFFFF" d="M160,287.75c-70.441,0-127.75-57.309-127.75-127.75c0-41.964,20.632-81.269,55.195-105.161l5.504,0.871
		l0.787-4.952c6.422-3.905,13.221-7.254,20.21-9.955l5.104,2.167l1.983-4.668C133.582,34.286,146.69,32.25,160,32.25
		c70.441,0,127.75,57.309,127.75,127.75C287.75,230.441,230.441,287.75,160,287.75z M156.56,282.811h6.881v-13.905h-6.881V282.811z
		 M187.124,231.657c-0.446,0-0.894,0.051-1.33,0.149l-17.843,4.077c-3.229,0.74-5.258,3.97-4.521,7.199l4.777,20.901
		c0.617,2.707,3.085,4.672,5.868,4.672c0.446,0,0.893-0.051,1.331-0.15l17.84-4.077c3.229-0.739,5.257-3.969,4.521-7.198
		l-4.777-20.902C192.372,233.622,189.904,231.657,187.124,231.657z M132.876,231.657c-2.781,0-5.248,1.965-5.865,4.671
		l-4.777,20.902c-0.736,3.229,1.292,6.459,4.521,7.199l17.84,4.073c0.439,0.101,0.888,0.151,1.335,0.151
		c2.781,0,5.247-1.965,5.863-4.67l4.777-20.901c0.736-3.229-1.292-6.459-4.521-7.199l-17.843-4.077
		C133.769,231.708,133.322,231.657,132.876,231.657z M218.129,212.206c-1.355,0-2.684,0.463-3.738,1.304l-14.307,11.415
		c-1.25,0.996-2.038,2.427-2.218,4.025c-0.181,1.599,0.271,3.168,1.269,4.418l13.37,16.762c1.142,1.433,2.856,2.255,4.704,2.255
		c1.355,0,2.684-0.464,3.74-1.307l14.307-11.412c1.25-0.996,2.038-2.426,2.219-4.025c0.18-1.602-0.271-3.171-1.268-4.421
		l-13.37-16.758C221.693,213.027,219.979,212.206,218.129,212.206z M101.871,212.206c-1.848,0-3.564,0.821-4.709,2.255
		l-13.37,16.759c-2.065,2.591-1.638,6.38,0.952,8.447l14.307,11.412c1.054,0.843,2.382,1.307,3.738,1.307
		c1.848,0,3.563-0.821,4.706-2.255l13.37-16.762c0.998-1.25,1.449-2.819,1.269-4.418c-0.18-1.6-0.967-3.029-2.218-4.025
		l-14.307-11.414C104.553,212.669,103.226,212.206,101.871,212.206z M243.002,230.59l10.871,8.67l4.289-5.383l-10.871-8.67
		L243.002,230.59z M61.834,233.877l4.293,5.383l10.871-8.67l-4.289-5.383L61.834,233.877z M82.352,181.223
		c-0.904,0-1.776,0.2-2.591,0.594l-19.318,9.303c-1.44,0.691-2.527,1.911-3.059,3.43c-0.531,1.52-0.442,3.149,0.251,4.59
		l7.942,16.49c0.993,2.064,3.125,3.398,5.432,3.398c0.903,0,1.773-0.198,2.588-0.59l19.319-9.304
		c2.984-1.438,4.244-5.038,2.808-8.022l-7.942-16.49C86.788,182.557,84.656,181.223,82.352,181.223z M237.652,181.217
		c-2.305,0-4.438,1.335-5.434,3.4l-7.939,16.49c-0.692,1.44-0.781,3.07-0.25,4.59s1.619,2.738,3.059,3.43l19.318,9.302
		c0.814,0.394,1.687,0.591,2.59,0.591c2.306,0,4.438-1.334,5.43-3.398l7.942-16.49c1.437-2.984,0.177-6.584-2.808-8.023
		l-19.318-9.299C239.427,181.417,238.557,181.217,237.652,181.217z M241.76,144.838c-3.314,0-6.01,2.696-6.01,6.01v18.304
		c0,3.313,2.695,6.01,6.01,6.01h21.44c3.313,0,6.01-2.696,6.01-6.01v-18.304c0-3.314-2.696-6.01-6.01-6.01H241.76z M56.8,144.838
		c-3.314,0-6.01,2.696-6.01,6.01v18.304c0,3.313,2.696,6.01,6.01,6.01h21.44c3.314,0,6.01-2.696,6.01-6.01v-18.304
		c0-3.314-2.696-6.01-6.01-6.01H56.8z M160,153.35c-3.667,0-6.65,2.983-6.65,6.65s2.983,6.65,6.65,6.65s6.65-2.983,6.65-6.65
		S163.667,153.35,160,153.35z M265.41,132.411l1.531,6.711l13.557-3.094l-1.532-6.711L265.41,132.411z M39.502,136.021l13.559,3.094
		l1.532-6.708l-13.56-3.097L39.502,136.021z M71.004,100.979c-2.306,0-4.438,1.334-5.434,3.399l-7.939,16.49
		c-1.436,2.985-0.176,6.584,2.808,8.023l19.318,9.299c0.815,0.393,1.687,0.593,2.59,0.593c2.305,0,4.437-1.335,5.433-3.401
		l7.939-16.489c0.693-1.441,0.782-3.071,0.25-4.59c-0.531-1.519-1.618-2.737-3.058-3.43l-19.318-9.303
		C72.778,101.178,71.907,100.979,71.004,100.979z M248.99,100.972c-0.903,0-1.774,0.199-2.59,0.591l-19.315,9.303
		c-2.983,1.438-4.244,5.037-2.808,8.023l7.941,16.49c0.992,2.064,3.124,3.398,5.43,3.398c0.904,0,1.776-0.2,2.594-0.593
		l19.314-9.303c1.44-0.692,2.527-1.911,3.06-3.43c0.53-1.519,0.442-3.149-0.25-4.59l-7.943-16.49
		C253.432,102.307,251.298,100.972,248.99,100.972z M217.21,67.614c-1.847,0-3.562,0.822-4.704,2.255l-13.369,16.762
		c-0.998,1.25-1.449,2.819-1.27,4.418c0.18,1.6,0.967,3.029,2.218,4.025l14.308,11.415c1.055,0.841,2.383,1.305,3.737,1.305
		c1.849,0,3.563-0.822,4.709-2.256l13.37-16.758c2.066-2.592,1.641-6.382-0.951-8.447L220.95,68.921
		C219.895,68.079,218.566,67.614,217.21,67.614z M102.791,67.614c-1.356,0-2.685,0.464-3.74,1.307L84.744,80.333
		c-2.591,2.065-3.019,5.855-0.952,8.447l13.37,16.758c1.145,1.434,2.861,2.256,4.709,2.256c1.355,0,2.683-0.463,3.738-1.305
		l14.307-11.415c1.25-0.996,2.038-2.426,2.218-4.025c0.18-1.599-0.271-3.168-1.269-4.418l-13.37-16.762
		C106.352,68.437,104.637,67.614,102.791,67.614z M174.075,51.344c-2.783,0-5.25,1.964-5.867,4.671l-4.774,20.902
		c-0.74,3.229,1.287,6.459,4.519,7.199l17.843,4.077c0.438,0.1,0.885,0.15,1.33,0.15c2.781,0,5.248-1.965,5.865-4.671l4.777-20.902
		c0.735-3.23-1.293-6.459-4.521-7.198l-17.84-4.077C174.968,51.395,174.521,51.344,174.075,51.344z M145.925,51.344
		c-0.446,0-0.894,0.051-1.331,0.15l-17.84,4.077c-3.229,0.739-5.257,3.968-4.521,7.198l4.774,20.902
		c0.62,2.707,3.087,4.671,5.868,4.671c0.446,0,0.893-0.051,1.33-0.15l17.843-4.077c3.23-0.74,5.257-3.969,4.518-7.199l-4.774-20.902
		C151.175,53.308,148.708,51.344,145.925,51.344z M204.152,60.385l6.201,2.989l6.035-12.528l-6.201-2.988L204.152,60.385z
		 M103.621,50.84l6.035,12.531l6.2-2.989l-6.034-12.527L103.621,50.84z"/>
	<path d="M160,32.5c34.057,0,66.074,13.263,90.156,37.344c24.08,24.082,37.344,56.1,37.344,90.156
		c0,34.057-13.264,66.074-37.344,90.156c-24.082,24.08-56.1,37.344-90.156,37.344c-34.056,0-66.074-13.264-90.156-37.344
		C45.763,226.074,32.5,194.057,32.5,160c0-41.849,20.559-81.047,55.005-104.898l5.159,0.816l0.494,0.078l0.078-0.493l0.729-4.59
		c6.352-3.854,13.071-7.164,19.977-9.839l4.781,2.031l0.46,0.195l0.196-0.46l1.84-4.333C133.708,34.521,146.755,32.5,160,32.5
		 M109.54,63.705l0.451-0.217l5.75-2.771l0.45-0.217l-0.217-0.45l-5.817-12.077l-0.217-0.451l-0.45,0.217l-5.75,2.768l-0.451,0.217
		l0.217,0.45l5.818,12.08L109.54,63.705 M210.471,63.708l0.217-0.451l5.816-12.077l0.217-0.45l-0.449-0.217l-5.75-2.771
		l-0.451-0.217l-0.217,0.451l-5.818,12.077l-0.217,0.45l0.449,0.217l5.75,2.771L210.471,63.708 M187.124,88.593
		c2.897,0,5.466-2.046,6.108-4.866l4.777-20.902c0.768-3.364-1.345-6.728-4.708-7.498l-17.841-4.077
		c-0.455-0.104-0.922-0.157-1.386-0.157c-2.898,0-5.468,2.046-6.111,4.865l-4.774,20.902c-0.771,3.364,1.34,6.728,4.707,7.499
		l17.842,4.077C186.193,88.54,186.66,88.593,187.124,88.593 M132.876,88.593c0.464,0,0.931-0.053,1.386-0.157l17.844-4.077
		c3.365-0.771,5.476-4.134,4.705-7.498l-4.774-20.902c-0.643-2.819-3.213-4.865-6.111-4.865c-0.464,0-0.931,0.053-1.387,0.157
		l-17.84,4.077c-3.363,0.77-5.475,4.133-4.708,7.498l4.774,20.903C127.41,86.546,129.98,88.593,132.876,88.593 M218.129,108.044
		c1.926,0,3.712-0.857,4.905-2.35l13.37-16.759c2.152-2.7,1.707-6.647-0.991-8.799l-14.308-11.411
		c-1.1-0.878-2.482-1.362-3.896-1.362c-1.923,0-3.709,0.856-4.899,2.349l-13.369,16.762c-1.041,1.302-1.51,2.937-1.322,4.603
		s1.008,3.155,2.311,4.192l14.307,11.415C215.335,107.562,216.718,108.044,218.129,108.044 M101.871,108.044
		c1.412,0,2.794-0.483,3.894-1.359l14.307-11.414c1.303-1.038,2.123-2.527,2.311-4.193c0.187-1.666-0.282-3.301-1.322-4.603
		l-13.37-16.761c-1.19-1.493-2.977-2.35-4.9-2.35c-1.413,0-2.796,0.483-3.896,1.361L84.588,80.137
		c-2.699,2.152-3.144,6.099-0.991,8.799l13.37,16.758C98.158,107.188,99.946,108.044,101.871,108.044 M237.648,139.027
		c0.942,0,1.852-0.208,2.703-0.618l19.314-9.303c3.109-1.495,4.421-5.242,2.925-8.354l-7.942-16.49
		c-1.035-2.151-3.256-3.541-5.66-3.541c-0.94,0-1.848,0.208-2.697,0.616l-19.314,9.303c-3.108,1.498-4.42,5.247-2.926,8.356
		l7.942,16.49C233.027,137.638,235.248,139.027,237.648,139.027 M82.348,139.033c2.4,0,4.621-1.391,5.658-3.542l7.939-16.489
		c0.722-1.501,0.814-3.199,0.261-4.781c-0.554-1.583-1.685-2.851-3.186-3.573l-19.318-9.303c-0.85-0.408-1.757-0.616-2.698-0.616
		c-2.401,0-4.622,1.39-5.66,3.541l-7.939,16.49c-1.496,3.109-0.184,6.858,2.925,8.357l19.318,9.299
		C80.499,138.825,81.406,139.033,82.348,139.033 M53.25,139.415l0.111-0.487l1.421-6.221l0.111-0.487l-0.487-0.111l-13.072-2.986
		l-0.487-0.111l-0.111,0.487l-1.42,6.224l-0.111,0.488l0.487,0.111l13.072,2.982L53.25,139.415 M266.754,139.421l0.487-0.111
		l13.067-2.982l0.487-0.111l-0.11-0.487l-1.422-6.224l-0.111-0.487l-0.486,0.111l-13.068,2.983l-0.486,0.111l0.111,0.487l1.42,6.224
		L266.754,139.421 M241.76,175.412h21.44c3.452,0,6.26-2.809,6.26-6.26v-18.304c0-3.452-2.808-6.26-6.26-6.26h-21.44
		c-3.451,0-6.26,2.809-6.26,6.26v18.304C235.5,172.604,238.309,175.412,241.76,175.412 M56.8,175.412h21.44
		c3.452,0,6.26-2.809,6.26-6.26v-18.304c0-3.452-2.808-6.26-6.26-6.26H56.8c-3.452,0-6.26,2.809-6.26,6.26v18.304
		C50.54,172.604,53.348,175.412,56.8,175.412 M160,166.9c3.805,0,6.9-3.096,6.9-6.9c0-3.805-3.096-6.9-6.9-6.9
		c-3.805,0-6.9,3.095-6.9,6.9C153.1,163.805,156.195,166.9,160,166.9 M248.997,219.271c2.401,0,4.621-1.391,5.655-3.541l7.943-16.49
		c1.495-3.109,0.184-6.858-2.926-8.357l-19.318-9.299c-0.85-0.41-1.758-0.618-2.699-0.618c-2.399,0-4.62,1.392-5.657,3.542
		l-7.938,16.49c-0.723,1.501-0.815,3.199-0.262,4.781c0.555,1.582,1.686,2.852,3.186,3.572l19.318,9.303
		C247.148,219.064,248.057,219.271,248.997,219.271 M71.008,219.277c0.94,0,1.848-0.207,2.696-0.615l19.319-9.303
		c3.108-1.5,4.42-5.248,2.924-8.356l-7.942-16.489c-1.035-2.15-3.254-3.541-5.654-3.541c-0.942,0-1.851,0.209-2.7,0.618
		l-19.318,9.304c-1.5,0.722-2.632,1.99-3.186,3.572c-0.553,1.582-0.461,3.28,0.261,4.781l7.942,16.49
		C66.385,217.889,68.606,219.277,71.008,219.277 M217.21,252.636c1.413,0,2.796-0.483,3.896-1.36l14.308-11.412
		c1.302-1.038,2.123-2.528,2.312-4.194c0.188-1.667-0.281-3.302-1.32-4.604l-13.37-16.758c-1.192-1.492-2.979-2.35-4.904-2.35
		c-1.412,0-2.795,0.482-3.894,1.359L199.93,224.73c-1.304,1.037-2.123,2.526-2.312,4.192c-0.187,1.666,0.282,3.302,1.321,4.603
		l13.371,16.762C213.5,251.779,215.286,252.636,217.21,252.636 M102.789,252.636c1.924,0,3.711-0.855,4.901-2.35l13.369-16.761
		c1.04-1.303,1.509-2.938,1.322-4.604c-0.188-1.666-1.008-3.154-2.31-4.191l-14.308-11.416c-1.099-0.875-2.482-1.357-3.894-1.357
		c-1.924,0-3.712,0.855-4.905,2.35l-13.37,16.76c-2.15,2.697-1.706,6.645,0.991,8.798l14.307,11.411
		C99.993,252.152,101.376,252.636,102.789,252.636 M253.913,239.611l0.312-0.392l3.978-4.991l0.312-0.392l-0.391-0.312l-10.48-8.358
		l-0.391-0.312l-0.312,0.391l-3.978,4.992l-0.312,0.391l0.391,0.312l10.48,8.357L253.913,239.611 M66.087,239.611l0.391-0.312
		l10.48-8.357l0.391-0.312l-0.312-0.391l-3.978-4.992l-0.312-0.391l-0.391,0.312l-10.483,8.358l-0.391,0.312l0.312,0.392
		l3.981,4.991L66.087,239.611 M174.075,268.906c0.464,0,0.931-0.053,1.386-0.156l17.841-4.077c3.363-0.771,5.476-4.134,4.708-7.498
		l-4.777-20.901c-0.643-2.819-3.211-4.866-6.108-4.866c-0.464,0-0.931,0.053-1.386,0.157l-17.844,4.076
		c-3.363,0.771-5.476,4.135-4.709,7.498l4.777,20.902C168.605,266.859,171.177,268.906,174.075,268.906 M145.929,268.904
		c2.896,0,5.464-2.045,6.107-4.863l4.777-20.902c0.767-3.363-1.345-6.728-4.708-7.498l-17.843-4.076
		c-0.455-0.104-0.921-0.157-1.386-0.157c-2.897,0-5.466,2.047-6.109,4.866l-4.777,20.901c-0.767,3.364,1.345,6.728,4.708,7.498
		l17.84,4.074C144.995,268.852,145.463,268.904,145.929,268.904 M156.31,283.061h0.5h6.381h0.5v-0.5v-13.405v-0.5h-0.5h-6.381h-0.5
		v0.5v13.405V283.061 M160,32c-13.654,0-26.813,2.138-39.152,6.099l-1.93,4.544l-4.966-2.109h-0.003
		c-7.146,2.755-13.981,6.135-20.441,10.071l-0.765,4.819l-5.356-0.848C53.926,77.667,32,116.272,32,160c0,70.691,57.309,128,128,128
		c70.691,0,128-57.309,128-128C288,89.309,230.691,32,160,32L160,32z M109.773,63.037l-5.818-12.08l5.75-2.768l5.817,12.077
		L109.773,63.037L109.773,63.037z M210.236,63.04l-5.75-2.771l5.818-12.077l5.75,2.771L210.236,63.04L210.236,63.04z
		 M187.124,88.093c-0.421,0-0.849-0.047-1.274-0.144l-17.843-4.077c-3.088-0.707-5.037-3.812-4.33-6.899l4.774-20.902
		c0.607-2.661,2.997-4.476,5.624-4.477c0.421,0,0.848,0.047,1.274,0.144l17.84,4.077c3.088,0.707,5.037,3.811,4.334,6.899
		l-4.777,20.902C192.139,86.277,189.749,88.093,187.124,88.093L187.124,88.093z M132.876,88.093c-2.625,0-5.015-1.815-5.625-4.477
		l-4.774-20.902c-0.704-3.088,1.245-6.192,4.333-6.899l17.84-4.077c0.427-0.097,0.854-0.144,1.275-0.144
		c2.628,0,5.017,1.815,5.624,4.477l4.774,20.902c0.707,3.088-1.242,6.192-4.33,6.899l-17.843,4.077
		C133.724,88.046,133.297,88.093,132.876,88.093L132.876,88.093z M218.129,107.544c-1.26,0-2.525-0.409-3.582-1.25L200.24,94.88
		c-2.477-1.974-2.887-5.616-0.909-8.093l13.37-16.762c1.132-1.42,2.812-2.161,4.509-2.161c1.261,0,2.528,0.409,3.584,1.252
		l14.308,11.411c2.477,1.975,2.885,5.619,0.912,8.096l-13.371,16.758C221.508,106.804,219.826,107.544,218.129,107.544
		L218.129,107.544z M101.871,107.544c-1.696,0-3.379-0.741-4.514-2.162l-13.37-16.758c-1.975-2.477-1.565-6.122,0.912-8.096
		l14.307-11.411c1.056-0.843,2.324-1.252,3.584-1.252c1.695,0,3.376,0.741,4.509,2.161l13.37,16.762
		c1.978,2.477,1.568,6.119-0.909,8.093l-14.307,11.415C104.397,107.136,103.13,107.544,101.871,107.544L101.871,107.544z
		 M237.648,138.527c-2.146,0-4.217-1.202-5.205-3.256l-7.941-16.49c-1.373-2.854-0.164-6.313,2.691-7.689l19.314-9.303
		c0.799-0.384,1.646-0.566,2.481-0.566c2.147,0,4.22,1.203,5.208,3.258l7.943,16.49c1.373,2.854,0.162,6.313-2.691,7.686
		l-19.315,9.303C239.334,138.344,238.486,138.527,237.648,138.527L237.648,138.527z M82.348,138.533
		c-0.835,0-1.682-0.183-2.482-0.568l-19.318-9.299c-2.854-1.376-4.064-4.835-2.691-7.689l7.939-16.49
		c0.991-2.055,3.062-3.258,5.209-3.258c0.835,0,1.682,0.182,2.481,0.566l19.318,9.303c2.854,1.373,4.064,4.832,2.691,7.687
		l-7.939,16.489C86.564,137.328,84.494,138.533,82.348,138.533L82.348,138.533z M52.874,138.816l-13.072-2.982l1.42-6.224
		l13.072,2.986L52.874,138.816L52.874,138.816z M267.13,138.822l-1.421-6.224l13.068-2.983l1.421,6.224L267.13,138.822
		L267.13,138.822z M241.76,174.912c-3.168,0-5.76-2.592-5.76-5.76v-18.304c0-3.168,2.592-5.76,5.76-5.76h21.44
		c3.168,0,5.76,2.592,5.76,5.76v18.304c0,3.168-2.592,5.76-5.76,5.76H241.76L241.76,174.912z M56.8,174.912
		c-3.168,0-5.76-2.592-5.76-5.76v-18.304c0-3.168,2.592-5.76,5.76-5.76h21.44c3.168,0,5.76,2.592,5.76,5.76v18.304
		c0,3.168-2.592,5.76-5.76,5.76H56.8L56.8,174.912z M160,166.4c-3.533,0-6.4-2.864-6.4-6.4c0-3.533,2.867-6.4,6.4-6.4
		c3.536,0,6.4,2.867,6.4,6.4C166.4,163.536,163.536,166.4,160,166.4L160,166.4z M248.997,218.771c-0.835,0-1.683-0.183-2.481-0.566
		l-19.317-9.303c-2.854-1.372-4.064-4.832-2.691-7.687l7.938-16.489c0.992-2.056,3.062-3.259,5.209-3.26
		c0.835,0,1.682,0.184,2.481,0.568l19.318,9.299c2.854,1.376,4.063,4.835,2.69,7.689l-7.941,16.49
		C253.213,217.568,251.145,218.771,248.997,218.771L248.997,218.771z M71.008,218.777c-2.147,0-4.218-1.202-5.207-3.258
		l-7.942-16.489c-1.373-2.854-0.164-6.313,2.691-7.687l19.318-9.303c0.799-0.386,1.647-0.568,2.483-0.568
		c2.146,0,4.215,1.203,5.204,3.256l7.942,16.49c1.373,2.854,0.163,6.313-2.691,7.689l-19.319,9.303
		C72.689,218.596,71.843,218.777,71.008,218.777L71.008,218.777z M217.21,252.136c-1.694,0-3.376-0.741-4.509-2.161l-13.37-16.762
		c-1.978-2.477-1.567-6.119,0.909-8.093l14.307-11.415c1.055-0.841,2.322-1.25,3.582-1.25c1.696,0,3.379,0.74,4.514,2.162
		l13.371,16.758c1.975,2.477,1.564,6.122-0.912,8.096l-14.308,11.412C219.738,251.727,218.471,252.136,217.21,252.136
		L217.21,252.136z M102.789,252.136c-1.26,0-2.528-0.409-3.583-1.252l-14.307-11.411c-2.477-1.979-2.887-5.619-0.912-8.097
		l13.37-16.758c1.135-1.421,2.818-2.162,4.514-2.162c1.26,0,2.527,0.408,3.582,1.25l14.307,11.415
		c2.477,1.974,2.887,5.615,0.909,8.093l-13.37,16.763C106.167,251.395,104.484,252.136,102.789,252.136L102.789,252.136z
		 M253.834,238.909l-10.48-8.358l3.979-4.992l10.48,8.358L253.834,238.909L253.834,238.909z M66.167,238.909l-3.981-4.992
		l10.483-8.358l3.978,4.992L66.167,238.909L66.167,238.909z M174.075,268.406c-2.627,0-5.017-1.815-5.624-4.477l-4.777-20.902
		c-0.703-3.088,1.245-6.192,4.333-6.899l17.843-4.077c0.426-0.097,0.854-0.144,1.274-0.144c2.625,0,5.015,1.815,5.622,4.477
		l4.777,20.902c0.703,3.088-1.246,6.192-4.334,6.899l-17.84,4.076C174.923,268.359,174.496,268.406,174.075,268.406L174.075,268.406
		z M145.929,268.404c-0.423,0-0.851-0.047-1.28-0.146l-17.84-4.073c-3.088-0.707-5.037-3.812-4.333-6.899l4.777-20.902
		c0.607-2.661,2.997-4.477,5.622-4.477c0.421,0,0.848,0.047,1.274,0.144l17.843,4.077c3.088,0.708,5.037,3.812,4.333,6.899
		l-4.777,20.901C150.942,266.589,148.555,268.404,145.929,268.404L145.929,268.404z M156.81,282.561v-13.405h6.381v13.405H156.81
		L156.81,282.561z"/>
</g>
</svg>
