<?xml version="1.0" encoding="utf-8"?>
<!-- Generator: Adobe Illustrator 18.1.1, SVG Export Plug-In . SVG Version: 6.00 Build 0)  -->
<svg version="1.1" id="information" xmlns="http://www.w3.org/2000/svg" xmlns:xlink="http://www.w3.org/1999/xlink" x="0px"
	 y="0px" width="64px" height="64px" viewBox="-447 249 64 64" enable-background="new -447 249 64 64" xml:space="preserve">
<g id="border">
	<path fill="#FFFFFF" d="M-415,251c16.5,0,30,13.5,30,30s-13.5,30-30,30s-30-13.5-30-30S-431.5,251-415,251 M-415,249
		c-17.7,0-32,14.3-32,32s14.3,32,32,32c17.7,0,32-14.3,32-32S-397.3,249-415,249L-415,249z"/>
</g>
<g id="letter">
	<circle fill="#FFFFFF" cx="-415.4" cy="266.1" r="4"/>
	<path fill="#FFFFFF" d="M-409,298.9h-12c-0.4-0.6-0.4-1.4,0-2h3v-21h-3c-0.4-0.6-0.4-1.4,0-2h9v23h3
		C-408.6,297.5-408.6,298.3-409,298.9z"/>
</g>
</svg>
