<?xml version="1.0" encoding="utf-8"?>
<!-- Generator: Adobe Illustrator 16.0.5, SVG Export Plug-In . SVG Version: 6.00 Build 0)  -->
<!DOCTYPE svg PUBLIC "-//W3C//DTD SVG 1.1//EN" "http://www.w3.org/Graphics/SVG/1.1/DTD/svg11.dtd">
<svg version="1.1" id="skills" xmlns="http://www.w3.org/2000/svg" xmlns:xlink="http://www.w3.org/1999/xlink" x="0px" y="0px"
	 width="64px" height="64px" viewBox="0 0 64 64" enable-background="new 0 0 64 64" xml:space="preserve">
<path id="brush" opacity="0.87" d="M62.25,48l1-9V2.97c0-1.64-1.34-2.97-3-2.97h-2c-1.66,0-3,1.33-3,2.97V39l1,9
	c-0.47,0.3-1.53,1.29-1.53,4.94c0,2.68,2.311,5.189,2.471,7.239c0.18,2.301-0.381,3.33-0.381,3.33L57.08,64
	c0,0,6.67-3.13,6.67-11.06C63.75,49.24,62.76,48.28,62.25,48z M57.25,2.97c0-0.53,0.45-0.97,1-0.97h2c0.55,0,1,0.44,1,0.97V37h-4
	V2.97z M60.35,47H58.15l-0.891-8h3.98L60.35,47z M61.74,53.44c-0.061,3.01-1.21,5.14-2.561,6.55c-0.109-1.29-0.71-2.51-1.3-3.69
	c0-0.01-0.01-0.01-0.01-0.02c-0.21-0.42-0.42-0.86-0.61-1.28c0-0.01-0.01-0.03-0.02-0.04c-0.17-0.41-0.32-0.81-0.41-1.2
	c-0.01-0.01-0.01-0.02-0.01-0.029c-0.11-0.461-0.17-0.961-0.17-1.48c0-1.31,0.359-2.47,0.93-3.25h3.26
	c0.15,0.22,0.29,0.47,0.41,0.75l0.01,0.01c0.141,0.32,0.28,0.78,0.351,1.05C61.9,51.88,61.74,53.39,61.74,53.44z"/>
<path id="pencil" d="M41.25,10h-2c-1.66,0-3,1.32-3,2.95V51l3.69,13h0.609l3.7-13V12.95C44.25,11.32,42.91,10,41.25,10z M40.75,56
	h-1l-1.42-5h3.84L40.75,56z M42.25,49h-4V19h4V49z M42.25,17h-4v-4.05c0-0.52,0.45-0.95,1-0.95h2c0.55,0,1,0.43,1,0.95V17z"/>
<path id="hammer" d="M18.182,2c0.727,0,1.463,0.028,2.191,0.083c0.533,0.04,1.174,0.364,1.852,0.707
	c0.923,0.467,1.877,0.949,2.954,0.949c0.647,0,1.257-0.182,1.812-0.541c0.834-0.539,1.288-0.774,2.133-0.778
	c0.033,0,0.137-0.003,0.269-0.008c0.151-0.006,0.356-0.015,0.451-0.015c0.138,0,0.233,0.007,0.297,0.015
	c0.061,0.247,0.067,0.708,0.071,0.951l0.003,0.131c0.067,2.703,0.026,3.869-0.005,4.327c-0.006,0.083-0.018,0.265-0.045,0.402
	c-0.083,0.001-0.262,0.006-0.457,0.011c-0.232,0.006-0.496,0.014-0.604,0.014c-0.302,0-0.531-0.018-0.727-0.056
	c-0.332-0.065-0.659-0.261-1.039-0.487c-0.066-0.04-0.125-0.079-0.18-0.116c-0.371-0.247-0.993-0.66-2.055-0.674
	c-1.645,0-2.949,1.292-3.314,1.791c-1.667,2.286-1.949,5.143-2.111,8.115c-0.078,1.457-0.32,6.509-0.111,10.342
	c0.252,4.605,0.42,9.301,0.582,13.842l0.007,0.179c0.012,0.344,0.034,1.021,0.062,1.918c0.121,3.78,0.346,10.817,0.522,14.022
	L20.75,57.3c0.117,2.067,0.055,4.038-1.197,4.451C19.06,61.914,18.491,62,17.909,62c-0.774,0-2.592-0.161-2.752-1.656
	c-0.227-2.1-0.029-4.362,0.16-6.559c0.046-0.529,0.436-6.802,0.941-14.946c0.229-3.701,0.417-6.73,0.443-7.118
	c0.307-4.43,0.623-9.012,0.451-13.566c-0.137-3.632-0.391-10.393-6.154-11.865c-0.593-0.151-1.222-0.229-1.871-0.229
	c-1.858,0-3.671,0.632-5.04,1.181c-0.532,0.212-1.396,0.601-1.763,0.77c-0.023-0.07-0.048-0.149-0.073-0.238
	C2.249,7.721,2.25,7.698,2.25,7.698l0,0C2.264,7.644,2.287,7.6,2.303,7.556l0.004-0.009c0.187-0.223,0.752-0.685,1.221-0.994
	l0.026-0.017l0.026-0.018c0.746-0.523,2.185-1.47,2.869-1.783c2.191-1.004,4.482-1.776,6.624-2.231C14.647,2.169,16.366,2,18.182,2
	 M18.182,0c-1.955,0-3.814,0.184-5.523,0.547C10.375,1.033,7.94,1.852,5.616,2.917C4.508,3.424,2.432,4.88,2.432,4.88
	s-1.66,1.087-1.945,1.833C0.358,7.05,0.179,7.383,0.28,8.141c0.359,1.396,0.925,2.109,1.684,2.118c0.482,0,0.854-0.27,1.156-0.41
	c0.354-0.165,1.215-0.551,1.711-0.749c1.204-0.483,2.781-1.038,4.297-1.038c0.48,0,0.943,0.056,1.374,0.166
	c3.984,1.017,4.491,5.697,4.653,10.003c0.168,4.455-0.146,8.992-0.449,13.379c-0.068,0.967-1.306,21.131-1.381,22.004
	c-0.198,2.285-0.404,4.649-0.157,6.944C13.395,62.681,15.211,64,17.909,64c0.793,0,1.578-0.121,2.271-0.35
	c2.975-0.983,2.654-4.863,2.557-6.638c-0.219-3.972-0.521-14.166-0.582-15.9c-0.165-4.608-0.334-9.374-0.591-14.06
	c-0.177-3.23-0.025-7.598,0.112-10.125c0.137-2.532,0.345-5.146,1.729-7.043c0.212-0.291,0.981-0.97,1.698-0.97
	c0.006,0,0.011,0,0.016,0c0.551,0.008,0.761,0.249,1.193,0.507c0.472,0.281,1.006,0.6,1.679,0.732
	c0.323,0.064,0.678,0.094,1.112,0.094c0.206,0,0.936-0.023,1.092-0.024c1.857-0.014,1.969-1.654,2.01-2.271
	c0.097-1.443,0.008-4.482,0.006-4.617c-0.01-0.671-0.023-1.589-0.508-2.229c-0.482-0.635-1.293-0.708-1.86-0.708
	c-0.173,0-0.665,0.022-0.733,0.023c-1.399,0.005-2.244,0.479-3.203,1.097c-0.233,0.151-0.465,0.221-0.728,0.221
	c-0.599,0-1.305-0.356-2.051-0.734c-0.823-0.416-1.677-0.847-2.606-0.917C19.743,0.029,18.956,0,18.182,0L18.182,0z"/>
</svg>
