<?xml version="1.0" encoding="utf-8"?>
<!-- Generator: Adobe Illustrator 16.0.5, SVG Export Plug-In . SVG Version: 6.00 Build 0)  -->
<!DOCTYPE svg PUBLIC "-//W3C//DTD SVG 1.1//EN" "http://www.w3.org/Graphics/SVG/1.1/DTD/svg11.dtd">
<svg version="1.1" id="Layer_1" xmlns="http://www.w3.org/2000/svg" xmlns:xlink="http://www.w3.org/1999/xlink" x="0px" y="0px"
	 width="138px" height="44px" viewBox="0 0 138 44" enable-background="new 0 0 138 44" xml:space="preserve">
<g opacity="0.87">
	<path d="M42.605,13.171c1.614,0.809,2.891,1.48,4.199,2.091c2.326,1.081,4.023,2.783,5.205,5.045
		c0.646,1.24,0.752,2.438-0.099,3.626c-0.766,1.072-0.241,1.392,0.811,1.34c2.178-0.104,4.368-0.138,6.533-0.375
		c3.908-0.434,7.836-0.145,11.737-0.48c3.493-0.303,6.463,1.594,9.694,2.385c1.36,0.33,2.69,0.773,4.045,1.098
		c0.535,0.129,1.136,0.179,1.66,0.076c0.724-0.141,1.426-0.873,2.076,0.096c0.559,0.826,0.455,1.66-0.273,2.537
		c1.968,0.248,3.717-0.107,5.47-0.271c2.787-0.258,5.565-0.555,8.354-0.786c1.455-0.118,1.534-0.712,0.83-1.821
		c-1.728-2.701-4.24-4.599-6.635-6.609c-2.658-2.224-5.439-4.304-8.07-6.551c-1.295-1.101-2.069-2.623-2.5-4.293
		c-0.278-1.083,0.063-1.978,1.104-2.321c5.985-1.973,12.056-2.964,18.308-1.479c0.853,0.205,1.657,0.666,2.456,1.067
		c0.468,0.235,0.861,0.625,0.542,1.211c-0.297,0.533-0.796,0.552-1.322,0.36c-0.101-0.041-0.215-0.067-0.311-0.114
		c-5.646-2.686-11.33-1.824-17.02-0.193c-1.721,0.494-1.858,1.105-0.905,2.706c1.315,2.19,3.515,3.422,5.353,5.049
		c2.674,2.369,5.479,4.608,8.193,6.946c1.324,1.144,2.352,2.573,3.113,4.126c0.535,1.085,1.201,1.434,2.361,1.368
		c4.021-0.223,8.039-0.339,12.078-0.116c3.241,0.18,6.152,1.059,8.873,2.702c2.143,1.296,4.27,1.433,6.551,0.435
		c0.992-0.439,2.377-1.086,2.877,0.344c0.504,1.426-0.918,2.084-2.043,2.324c-2.879,0.617-5.771,1.25-8.527-0.666
		c-3.831-2.658-8.215-3.342-12.784-3.205c-2.235,0.068-4.472,0.111-6.707,0.158c-1.007,0.02-1.688,0.334-1.843,1.491
		c-0.328,2.448-2.01,3.939-3.949,5.146c-5.121,3.176-10.835,4.687-16.701,5.621c-6.285,0.994-12.593,1.104-18.838-0.176
		c-1.93-0.396-3.97-0.644-5.647-1.93c-1.993-1.529-2.115-2.96-0.255-4.704c1.915-1.8,4.351-2.528,6.827-3.006
		c4.778-0.918,9.638-1.312,14.478-1.832c0.759-0.084,2.062,0.204,2.169-0.671c0.122-0.936-1.185-0.986-1.938-1.238
		c-6.056-2.005-12.113-3.754-18.677-2.953c-4.541,0.556-9.157,0.58-13.742,0.662c-3.01,0.055-5.47,1.596-8.023,2.75
		c-5.607,2.528-11.49,4.016-17.473,5.161c-5.342,1.022-10.743,1.328-16.178,0.714C6.011,35.78,4.12,35.128,2.269,34.4
		c-2.677-1.055-3.033-3.75-0.812-5.58c2.58-2.135,5.799-2.239,8.894-2.529c7.083-0.659,14.203-0.396,21.304-0.635
		c4.364-0.141,8.731-0.118,13.097-0.033c2.237,0.043,3.686-1.162,4.95-2.688c0.932-1.119,0.109-2.153-0.586-3
		c-2.191-2.681-5.213-3.983-8.461-4.797c-1.836-0.466-3.717-0.762-5.571-1.157c-0.717-0.157-1.536-0.355-1.41-1.335
		c0.126-0.983,0.896-1.15,1.758-1.131c3.158,0.065,6.263-0.197,9.187-1.543c0.496-0.227,1.164-0.323,1.135-1.051
		c-0.027-0.618-0.503-0.977-1.026-1.229c-2.096-0.996-4.346-1.331-6.615-1.723c-2.769-0.478-4.692,0.383-6.236,2.67
		c-1.76,2.616-4.339,4.692-5.055,7.986c-0.188,0.857-0.924,1.271-1.789,1.245c-0.898-0.029-1.661-0.485-2.016-1.292
		c-0.411-0.955,0.301-1.752,0.945-2.146c2.686-1.662,3.91-4.554,5.928-6.769c0.242-0.271,0.669-0.58,0.37-1.004
		c-0.25-0.355-0.744-0.275-1.098-0.177c-0.807,0.213-1.586,0.535-2.38,0.795c-0.806,0.261-1.557,0.155-2.192-0.428
		c-0.363-0.337-0.493-0.789-0.21-1.219c0.439-0.666,0.967-1.211,1.858-1.271c1.937-0.125,3.834-0.559,5.812-0.447
		c1.552,0.087,1.771-1.46,2.331-2.493C34.723,0.79,34.846-0.001,35.806,0c0.576,0,1.125,0.048,1.507,0.559
		c0.387,0.517,0.053,0.944-0.181,1.39c-1.059,2.021-1.04,1.89,1.222,2.151c3.328,0.384,6.704,0.776,9.312,3.272
		c1.505,1.446,1.229,3.01-0.573,4.074C45.792,12.212,44.256,12.321,42.605,13.171z M74.798,42.467
		c4.896-0.027,8.468-0.242,11.976-1.027c4.699-1.053,9.302-2.41,13.461-4.945c1.558-0.952,2.901-2.098,3.426-3.961
		c0.191-0.702,0.236-1.223-0.776-1.125c-3.776,0.357-7.563,0.619-11.337,1.023c-5.495,0.59-10.977,1.293-16.471,1.903
		c-3.723,0.414-7.44,0.839-10.959,2.22c-1.066,0.412-2.498,0.924-2.479,2.217c0.019,1.324,1.488,1.668,2.573,2.058
		C68.064,42.18,72.07,42.447,74.798,42.467z M41.761,28.008c-0.026-0.191-0.054-0.379-0.083-0.572c-1.601,0-3.205-0.028-4.807,0.006
		c-6.527,0.141-13.057,0.267-19.582,0.464c-4.396,0.134-8.832,0.022-13.04,1.663c-0.882,0.347-1.97,0.537-2.03,1.705
		c-0.054,1.129,0.933,1.592,1.768,2.024c3.035,1.581,6.364,1.527,9.653,1.586c7.014,0.13,13.733-1.522,20.353-3.633
		C36.666,30.402,39.398,29.607,41.761,28.008z"/>
	<path d="M122.605,22.585c-2.299,0.056-4.436-0.322-6.187-2.037c-0.881-0.869-1.271-1.849-1.045-3.028
		c0.153-0.811,1.28-1.606-0.177-2.358c-0.281-0.146,0.158-0.553,0.507-0.621c3.858-0.777,7.592-0.557,10.991,1.636
		c1.142,0.735,2.177,1.7,1.953,3.277c-0.219,1.559-1.461,2.124-2.744,2.636C124.841,22.514,123.729,22.559,122.605,22.585z
		 M122.212,20.522c0.824-0.122,1.663-0.192,2.466-0.385c0.572-0.137,1.264-0.256,1.385-1.012c0.102-0.641-0.381-0.999-0.793-1.379
		c-1.16-1.062-5.371-1.526-6.707-0.7c-0.885,0.544-0.859,1.238-0.147,1.911C119.471,19.954,120.747,20.45,122.212,20.522z"/>
	<path d="M64.189,11.951c0.025-2.729,1.053-3.516,3.166-2.718c0.799,0.3,1.516,0.189,2.29,0.114c2.416-0.228,4.68,0.129,6.518,1.905
		c1.273,1.233,1.21,2.862-0.348,3.595c-3.232,1.525-6.537,2.242-9.832,0.043C64.768,14.079,64.221,12.952,64.189,11.951z
		 M70.623,14.172c0.914,0.043,1.783-0.17,2.618-0.498c0.437-0.176,1.059-0.283,1.059-0.916c0-0.577-0.528-0.833-0.944-1.088
		c-0.879-0.54-1.895-0.797-2.893-0.714c-1.215,0.101-2.723-0.279-3.449,1.08C66.646,12.733,69.023,14.126,70.623,14.172z"/>
</g>
</svg>
