<?xml version="1.0" encoding="utf-8"?>
<!-- Generator: Adobe Illustrator 16.0.5, SVG Export Plug-In . SVG Version: 6.00 Build 0)  -->
<!DOCTYPE svg PUBLIC "-//W3C//DTD SVG 1.1//EN" "http://www.w3.org/Graphics/SVG/1.1/DTD/svg11.dtd">
<svg version="1.1" id="iPhone" xmlns="http://www.w3.org/2000/svg" xmlns:xlink="http://www.w3.org/1999/xlink" x="0px" y="0px"
	 width="382px" height="722px" viewBox="0 0 382 722" enable-background="new 0 0 382 722" xml:space="preserve">
<linearGradient id="SVGID_1_" gradientUnits="userSpaceOnUse" x1="190.9995" y1="113" x2="190.9995" y2="609.0005">
	<stop  offset="0" style="stop-color:#BA40FF"/>
	<stop  offset="1" style="stop-color:#A200FF"/>
</linearGradient>
<rect x="22" y="113" fill="url(#SVGID_1_)" width="338" height="496"/>
<g id="Body">
	<path fill="#FFFFFF" d="M73.617,720.5C34.127,720.5,2,688.381,2,648.901V73.096C2,33.618,34.127,1.5,73.617,1.5h234.766
		C347.873,1.5,380,33.618,380,73.096v575.805c0,39.479-32.127,71.599-71.617,71.599H73.617z M30,602h322V120H30V602z"/>
	<path d="M308.383,2.5c18.777,0,36.488,7.367,49.868,20.743S379,54.324,379,73.096v575.805c0,18.772-7.369,36.479-20.749,49.854
		s-31.091,20.743-49.868,20.743H73.617c-18.786,0-36.499-7.367-49.876-20.743C10.366,685.383,3,667.677,3,648.901V73.096
		c0-18.775,7.366-36.48,20.741-49.854C37.118,9.867,54.831,2.5,73.617,2.5H308.383 M29,603h2h320h2v-2V121v-2h-2H31h-2v2v480V603
		 M308.383,0.5H73.617C33.665,0.5,1,33.177,1,73.096v575.805C1,688.822,33.665,721.5,73.617,721.5h234.766
		c39.93,0,72.617-32.678,72.617-72.599V73.096C381,33.177,348.312,0.5,308.383,0.5L308.383,0.5z M31,601V121h320v480H31L31,601z"/>
</g>
<g id="Home_Button">
	<path d="M190.998,615.164c18.602,0,33.734,15.134,33.734,33.735c0,18.603-15.133,33.736-33.734,33.736
		c-18.603,0-33.736-15.135-33.736-33.736S172.396,615.164,190.998,615.164 M190.998,614.164c-19.186,0-34.736,15.557-34.736,34.735
		c0,19.186,15.551,34.736,34.736,34.736c19.184,0,34.734-15.552,34.734-34.736C225.732,629.721,210.182,614.164,190.998,614.164
		L190.998,614.164z"/>
</g>
<g id="Earpiece">
	<path d="M218.541,66.59c3.587,0,6.506,2.921,6.506,6.511c0,3.589-2.919,6.51-6.506,6.51h-55.082c-3.59,0-6.51-2.921-6.51-6.511
		c0-3.59,2.92-6.51,6.51-6.51H218.541 M218.541,65.59h-55.082c-4.129,0-7.51,3.38-7.51,7.51v0.001c0,4.131,3.381,7.51,7.51,7.51
		h55.082c4.131,0,7.506-3.378,7.506-7.51V73.1C226.047,68.971,222.672,65.59,218.541,65.59L218.541,65.59z"/>
</g>
<linearGradient id="SVGID_2_" gradientUnits="userSpaceOnUse" x1="189.9995" y1="285" x2="189.9995" y2="437.0005">
	<stop  offset="0" style="stop-color:#BA40FF"/>
	<stop  offset="1" style="stop-color:#A200FF"/>
</linearGradient>
<path display="none" fill="url(#SVGID_2_)" d="M228,285h-97.714v152H228c11.943,0,21.714-9.771,21.714-21.714V306.714
	C249.714,294.771,239.943,285,228,285z"/>
<path display="none" fill="#FFFFFF" d="M228,285h-97.714v152H228c11.943,0,21.714-9.771,21.714-21.714V306.714
	C249.714,294.771,239.943,285,228,285z M156.071,428.857H152V293.143h4.071V428.857z M210.896,343.141l6.19,20.573L199.5,351.447
	l-17.59,12.267l6.19-20.573L171,330.165l21.443-0.432l7.057-20.304l7.057,20.304L228,330.165L210.896,343.141z"/>
<polygon fill="#FFFFFF" points="222.989,329.679 240.366,387.427 191,352.993 141.625,387.427 159,329.679 111,293.255 
	171.192,292.042 191,235.05 210.808,292.042 271,293.255 "/>
</svg>
