<?xml version="1.0" encoding="utf-8"?>
<!DOCTYPE svg PUBLIC "-//W3C//DTD SVG 1.1//EN" "http://www.w3.org/Graphics/SVG/1.1/DTD/svg11.dtd">
<svg version="1.1" id="icon" xmlns="http://www.w3.org/2000/svg" xmlns:xlink="http://www.w3.org/1999/xlink" x="0px" y="0px"
	 width="435px" height="435px" viewBox="0 0 435 435" enable-background="new 0 0 435 435" xml:space="preserve">
<linearGradient id="background_1_" gradientUnits="userSpaceOnUse" x1="217.5005" y1="435" x2="217.5005" y2="4.882812e-04">
	<stop  offset="0" style="stop-color:#3E0072"/>
	<stop  offset="0.1411" style="stop-color:#420077"/>
	<stop  offset="0.3176" style="stop-color:#4D0087"/>
	<stop  offset="0.5131" style="stop-color:#5F00A0"/>
	<stop  offset="0.722" style="stop-color:#7800C4"/>
	<stop  offset="0.9397" style="stop-color:#9800F1"/>
	<stop  offset="1" style="stop-color:#A200FF"/>
</linearGradient>
<path id="background" fill="url(#background_1_)" d="M287.813,0c49.826,0,63.803,0,85.258,7.214
	c25.364,9.271,45.447,29.357,54.715,54.718C435,83.381,435,97.361,435,147.184c0,140.625,0,140.625,0,140.625
	c0,49.83,0,63.81-7.214,85.258c-9.271,25.362-29.36,45.447-54.718,54.719C351.624,435,337.645,435,287.821,435
	c-140.631,0-140.631,0-140.631,0c-49.823,0-63.803,0-85.256-7.214c-25.359-9.271-45.446-29.358-54.714-54.719
	C0,351.621,0,337.64,0,287.813c0-140.625,0-140.625,0-140.625c0-49.826,0-63.807,7.216-85.255
	C16.483,36.57,36.57,16.485,61.93,7.214C83.383,0,97.364,0,147.181,0H287.813"/>
<polygon id="star" fill="#FFFFFF" points="283.104,255.487 318.473,372.85 218.007,302.867 117.525,372.85 152.885,255.487
	55.201,181.461 177.694,178.996 218.007,63.17 258.317,178.996 380.812,181.461 "/>
</svg>
