<?xml version="1.0" encoding="utf-8"?>
<!-- Copyright (C) 2014 Brian Speir. All rights reserved. -->
<!DOCTYPE svg PUBLIC "-//W3C//DTD SVG 1.1//EN" "http://www.w3.org/Graphics/SVG/1.1/DTD/svg11.dtd">
<svg version="1.1" id="Code" xmlns="http://www.w3.org/2000/svg" xmlns:xlink="http://www.w3.org/1999/xlink" x="0px" y="0px"
	 width="120px" height="120px" viewBox="0.5 120.5 120 120" enable-background="new 0.5 120.5 120 120" xml:space="preserve">
<g id="E">
	<path fill="#555555" d="M0.5,233.107c0-4.812,2.16-7.281,5.434-7.281c3.272,0,5.434,2.472,5.434,7.281
		c0,4.787-2.161,7.393-5.434,7.393C2.66,240.5,0.5,237.895,0.5,233.107z M3.417,233.107c0,3.674,1.114,4.854,2.517,4.854
		s2.516-1.18,2.516-4.854c0-3.676-1.113-4.743-2.516-4.743S3.417,229.434,3.417,233.107z M4.264,233.062
		c0-1.024,0.734-1.692,1.67-1.692s1.67,0.668,1.67,1.692c0,1.022-0.734,1.69-1.67,1.69S4.264,234.087,4.264,233.062z"/>
	<path fill="#555555" d="M26.801,237.582v2.65H16.669v-2.65h3.652v-8.172h-2.918v-2.026c1.648-0.288,2.738-0.688,3.785-1.291h2.405
		v11.489H26.801z"/>
	<path fill="#DDDDDD" d="M42.393,237.582v2.65H32.261v-2.65h3.651v-8.172h-2.917v-2.026c1.647-0.288,2.739-0.688,3.786-1.291h2.404
		v11.489H42.393z"/>
	<path fill="#DDDDDD" d="M47.27,233.107c0-4.812,2.16-7.281,5.434-7.281c3.272,0,5.433,2.472,5.433,7.281
		c0,4.787-2.16,7.393-5.433,7.393S47.27,237.895,47.27,233.107z M50.187,233.107c0,3.674,1.114,4.854,2.517,4.854
		c1.403,0,2.516-1.18,2.516-4.854c0-3.676-1.113-4.743-2.516-4.743C51.301,228.364,50.187,229.434,50.187,233.107z M51.034,233.062
		c0-1.024,0.734-1.692,1.67-1.692s1.67,0.668,1.67,1.692c0,1.022-0.734,1.69-1.67,1.69S51.034,234.087,51.034,233.062z"/>
	<path fill="#888888" d="M62.86,233.107c0-4.812,2.16-7.281,5.434-7.281s5.434,2.472,5.434,7.281c0,4.787-2.16,7.393-5.434,7.393
		S62.86,237.895,62.86,233.107z M65.778,233.107c0,3.674,1.113,4.854,2.516,4.854c1.404,0,2.518-1.18,2.518-4.854
		c0-3.676-1.111-4.743-2.518-4.743C66.892,228.364,65.778,229.434,65.778,233.107z M66.625,233.062c0-1.024,0.733-1.692,1.669-1.692
		s1.671,0.668,1.671,1.692c0,1.022-0.735,1.69-1.671,1.69C67.358,234.755,66.625,234.087,66.625,233.062z"/>
	<path fill="#888888" d="M89.163,237.582v2.65H79.031v-2.65h3.651v-8.172h-2.918v-2.026c1.646-0.288,2.738-0.688,3.785-1.291h2.404
		v11.489H89.163z"/>
	<path fill="#DDDDDD" d="M94.042,233.107c0-4.812,2.16-7.281,5.433-7.281c3.273,0,5.436,2.472,5.436,7.281
		c0,4.787-2.16,7.393-5.436,7.393C96.202,240.5,94.042,237.895,94.042,233.107z M96.959,233.107c0,3.674,1.113,4.854,2.516,4.854
		c1.403,0,2.519-1.18,2.519-4.854c0-3.676-1.113-4.743-2.519-4.743C98.072,228.364,96.959,229.434,96.959,233.107z M97.807,233.062
		c0-1.024,0.733-1.692,1.668-1.692c0.938,0,1.672,0.668,1.672,1.692c0,1.022-0.734,1.69-1.672,1.69
		C98.54,234.755,97.807,234.087,97.807,233.062z"/>
	<path fill="#DDDDDD" d="M120.344,237.582v2.65h-10.133v-2.65h3.65v-8.172h-2.916v-2.026c1.646-0.288,2.738-0.688,3.785-1.291h2.404
		v11.489H120.344z"/>
</g>
<g id="D">
	<path fill="#DDDDDD" d="M0.5,197.999c0-4.81,2.16-7.281,5.434-7.281c3.272,0,5.434,2.472,5.434,7.281
		c0,4.788-2.161,7.394-5.434,7.394C2.66,205.393,0.5,202.787,0.5,197.999z M3.417,197.999c0,3.674,1.114,4.854,2.517,4.854
		s2.516-1.182,2.516-4.854s-1.113-4.742-2.516-4.742S3.417,194.325,3.417,197.999z M4.264,197.955c0-1.025,0.734-1.691,1.67-1.691
		s1.67,0.666,1.67,1.691c0,1.023-0.734,1.691-1.67,1.691S4.264,198.979,4.264,197.955z"/>
	<path fill="#555555" d="M26.801,202.475v2.65H16.669v-2.65h3.652v-8.172h-2.918v-2.025c1.648-0.288,2.738-0.689,3.785-1.291h2.405
		v11.488H26.801z"/>
	<path fill="#555555" d="M42.393,202.475v2.65H32.261v-2.65h3.651v-8.172h-2.917v-2.025c1.647-0.288,2.739-0.689,3.786-1.291h2.404
		v11.488H42.393z"/>
	<path fill="#DDDDDD" d="M47.27,197.999c0-4.81,2.16-7.281,5.434-7.281c3.272,0,5.433,2.472,5.433,7.281
		c0,4.788-2.16,7.394-5.433,7.394S47.27,202.787,47.27,197.999z M50.187,197.999c0,3.674,1.114,4.854,2.517,4.854
		c1.403,0,2.516-1.182,2.516-4.854s-1.113-4.742-2.516-4.742C51.301,193.257,50.187,194.325,50.187,197.999z M51.034,197.955
		c0-1.025,0.734-1.691,1.67-1.691s1.67,0.666,1.67,1.691c0,1.023-0.734,1.691-1.67,1.691S51.034,198.979,51.034,197.955z"/>
	<path fill="#DDDDDD" d="M62.86,197.999c0-4.81,2.16-7.281,5.434-7.281s5.434,2.472,5.434,7.281c0,4.788-2.16,7.394-5.434,7.394
		S62.86,202.787,62.86,197.999z M65.778,197.999c0,3.674,1.113,4.854,2.516,4.854c1.404,0,2.518-1.182,2.518-4.854
		s-1.111-4.742-2.518-4.742C66.892,193.257,65.778,194.325,65.778,197.999z M66.625,197.955c0-1.025,0.733-1.691,1.669-1.691
		s1.671,0.666,1.671,1.691c0,1.023-0.735,1.691-1.671,1.691S66.625,198.979,66.625,197.955z"/>
	<path fill="#888888" d="M89.163,202.475v2.65H79.031v-2.65h3.651v-8.172h-2.918v-2.025c1.646-0.288,2.738-0.689,3.785-1.291h2.404
		v11.488H89.163z"/>
	<path fill="#888888" d="M94.042,197.999c0-4.81,2.16-7.281,5.433-7.281c3.273,0,5.436,2.472,5.436,7.281
		c0,4.788-2.16,7.394-5.436,7.394C96.202,205.393,94.042,202.787,94.042,197.999z M96.959,197.999c0,3.674,1.113,4.854,2.516,4.854
		c1.403,0,2.519-1.182,2.519-4.854s-1.113-4.742-2.519-4.742C98.072,193.257,96.959,194.325,96.959,197.999z M97.807,197.955
		c0-1.025,0.733-1.691,1.668-1.691c0.938,0,1.672,0.666,1.672,1.691c0,1.023-0.734,1.691-1.672,1.691
		C98.54,199.646,97.807,198.979,97.807,197.955z"/>
	<path fill="#DDDDDD" d="M109.632,197.999c0-4.81,2.16-7.281,5.433-7.281c3.273,0,5.436,2.472,5.436,7.281
		c0,4.788-2.16,7.394-5.436,7.394C111.792,205.393,109.632,202.787,109.632,197.999z M112.549,197.999
		c0,3.674,1.113,4.854,2.516,4.854c1.404,0,2.519-1.182,2.519-4.854s-1.112-4.742-2.519-4.742
		C113.662,193.257,112.549,194.325,112.549,197.999z M113.395,197.955c0-1.025,0.733-1.691,1.67-1.691
		c0.936,0,1.67,0.666,1.67,1.691c0,1.023-0.734,1.691-1.67,1.691C114.13,199.646,113.395,198.979,113.395,197.955z"/>
</g>
<g id="O">
	<path fill="#DDDDDD" d="M0.5,162.891c0-4.811,2.16-7.281,5.434-7.281c3.272,0,5.434,2.472,5.434,7.281
		c0,4.786-2.161,7.393-5.434,7.393C2.66,170.282,0.5,167.677,0.5,162.891z M3.417,162.891c0,3.674,1.114,4.854,2.517,4.854
		s2.516-1.18,2.516-4.854c0-3.675-1.113-4.742-2.516-4.742S3.417,159.216,3.417,162.891z M4.264,162.846
		c0-1.025,0.734-1.691,1.67-1.691s1.67,0.666,1.67,1.691c0,1.023-0.734,1.691-1.67,1.691S4.264,163.869,4.264,162.846z"/>
	<path fill="#DDDDDD" d="M26.801,167.365v2.648H16.669v-2.648h3.652v-8.174h-2.918v-2.025c1.648-0.288,2.738-0.689,3.785-1.291
		h2.405v11.49H26.801z"/>
	<path fill="#555555" d="M42.393,167.365v2.648H32.261v-2.648h3.651v-8.174h-2.917v-2.025c1.647-0.288,2.739-0.689,3.786-1.291
		h2.404v11.49H42.393z"/>
	<path fill="#555555" d="M47.27,162.891c0-4.811,2.16-7.281,5.434-7.281c3.272,0,5.433,2.472,5.433,7.281
		c0,4.786-2.16,7.393-5.433,7.393C49.431,170.282,47.27,167.677,47.27,162.891z M50.187,162.891c0,3.674,1.114,4.854,2.517,4.854
		c1.403,0,2.516-1.18,2.516-4.854c0-3.675-1.113-4.742-2.516-4.742C51.301,158.148,50.187,159.216,50.187,162.891z M51.034,162.846
		c0-1.025,0.734-1.691,1.67-1.691s1.67,0.666,1.67,1.691c0,1.023-0.734,1.691-1.67,1.691S51.034,163.869,51.034,162.846z"/>
	<path fill="#888888" d="M73.571,167.365v2.648H63.44v-2.648h3.649v-8.174h-2.917v-2.025c1.648-0.288,2.738-0.689,3.785-1.291h2.405
		v11.49H73.571z"/>
	<path fill="#888888" d="M89.163,167.365v2.648H79.031v-2.648h3.651v-8.174h-2.918v-2.025c1.646-0.288,2.738-0.689,3.785-1.291
		h2.404v11.49H89.163z"/>
	<path fill="#DDDDDD" d="M104.752,167.365v2.648H94.621v-2.648h3.65v-8.174h-2.916v-2.025c1.646-0.288,2.738-0.689,3.785-1.291
		h2.403v11.49H104.752z"/>
	<path fill="#DDDDDD" d="M120.344,167.365v2.648h-10.133v-2.648h3.65v-8.174h-2.916v-2.025c1.646-0.288,2.738-0.689,3.785-1.291
		h2.404v11.49H120.344z"/>
</g>
<g id="C">
	<path fill="#555555" d="M0.5,127.781c0-4.809,2.16-7.281,5.434-7.281c3.272,0,5.434,2.473,5.434,7.281
		c0,4.787-2.161,7.393-5.434,7.393C2.66,135.174,0.5,132.568,0.5,127.781z M3.417,127.781c0,3.675,1.114,4.854,2.517,4.854
		s2.516-1.18,2.516-4.854s-1.113-4.742-2.516-4.742S3.417,124.107,3.417,127.781z M4.264,127.736c0-1.024,0.734-1.691,1.67-1.691
		s1.67,0.667,1.67,1.691s-0.734,1.693-1.67,1.693S4.264,128.762,4.264,127.736z"/>
	<path fill="#555555" d="M26.801,132.257v2.65H16.669v-2.65h3.652v-8.172h-2.918v-2.026c1.648-0.289,2.738-0.688,3.785-1.291h2.405
		v11.489H26.801z"/>
	<path fill="#DDDDDD" d="M42.393,132.257v2.65H32.261v-2.65h3.651v-8.172h-2.917v-2.026c1.647-0.289,2.739-0.688,3.786-1.291h2.404
		v11.489H42.393z"/>
	<path fill="#DDDDDD" d="M47.27,127.781c0-4.811,2.16-7.281,5.434-7.281c3.272,0,5.433,2.473,5.433,7.281
		c0,4.787-2.16,7.393-5.433,7.393S47.27,132.568,47.27,127.781z M50.187,127.781c0,3.675,1.114,4.854,2.517,4.854
		c1.403,0,2.516-1.18,2.516-4.854s-1.113-4.742-2.516-4.742C51.301,123.039,50.187,124.107,50.187,127.781z M51.034,127.736
		c0-1.024,0.734-1.691,1.67-1.691s1.67,0.667,1.67,1.691s-0.734,1.693-1.67,1.693S51.034,128.762,51.034,127.736z"/>
	<path fill="#DDDDDD" d="M62.86,127.781c0-4.811,2.16-7.281,5.434-7.281s5.434,2.473,5.434,7.281c0,4.787-2.16,7.393-5.434,7.393
		S62.86,132.568,62.86,127.781z M65.778,127.781c0,3.675,1.113,4.854,2.516,4.854c1.404,0,2.518-1.18,2.518-4.854
		s-1.111-4.742-2.518-4.742C66.892,123.039,65.778,124.107,65.778,127.781z M66.625,127.736c0-1.024,0.733-1.691,1.669-1.691
		s1.671,0.667,1.671,1.691s-0.735,1.693-1.671,1.693S66.625,128.762,66.625,127.736z"/>
	<path fill="#888888" d="M78.452,127.781c0-4.811,2.16-7.281,5.434-7.281c3.272,0,5.434,2.473,5.434,7.281
		c0,4.787-2.159,7.393-5.434,7.393C80.612,135.174,78.452,132.568,78.452,127.781z M81.369,127.781c0,3.675,1.112,4.854,2.517,4.854
		c1.402,0,2.516-1.18,2.516-4.854s-1.111-4.742-2.516-4.742S81.369,124.107,81.369,127.781z M82.216,127.736
		c0-1.024,0.734-1.691,1.67-1.691c0.937,0,1.67,0.667,1.67,1.691s-0.733,1.693-1.67,1.693
		C82.95,129.43,82.216,128.762,82.216,127.736z"/>
	<path fill="#888888" d="M104.752,132.257v2.65H94.621v-2.65h3.65v-8.172h-2.916v-2.026c1.646-0.289,2.738-0.688,3.785-1.291h2.403
		v11.489H104.752z"/>
	<path fill="#DDDDDD" d="M120.344,132.257v2.65h-10.133v-2.65h3.65v-8.172h-2.916v-2.026c1.646-0.289,2.738-0.688,3.785-1.291h2.404
		v11.489H120.344z"/>
</g>
</svg>
