<?xml version="1.0" encoding="utf-8"?>
<!-- Generator: Adobe Illustrator 16.0.4, SVG Export Plug-In . SVG Version: 6.00 Build 0)  -->
<svg version="1.2" baseProfile="tiny" id="Layer_1" xmlns="http://www.w3.org/2000/svg" xmlns:xlink="http://www.w3.org/1999/xlink"
	 x="0px" y="0px" width="120px" height="120px" viewBox="0 0 120 120" xml:space="preserve">
<g>
	<rect x="34" y="14.5" fill="#F7F7F7" width="52" height="91"/>
	<g id="iPhone_5_1_">
		<g id="Body_1_">
			<path fill="#777777" d="M88.507,111.133c0,4.897-3.988,8.867-8.905,8.867H40.4c-4.919,0-8.907-3.97-8.907-8.867V8.866
				C31.493,3.97,35.481,0,40.4,0h39.201c4.917,0,8.905,3.97,8.905,8.866V111.133z M84.925,15.969H35.077v88.062h49.848V15.969z"/>
		</g>
		<g id="Home_Button_2_">
			<ellipse id="Button_1_" fill="#555555" cx="60" cy="111.164" rx="5.296" ry="5.271"/>
			<path id="Icon_1_" display="none" fill="#555555" d="M60.607,109.147c0.387,0,0.579,0.018,0.786,0.087
				c0.227,0.084,0.443,0.278,0.527,0.514c0.064,0.214,0.104,0.423,0.104,0.823v1.258c0,0.398-0.04,0.6-0.104,0.814
				c-0.084,0.234-0.28,0.399-0.508,0.485c-0.208,0.066-0.419,0.047-0.806,0.047h-1.215c-0.386,0-0.579,0.02-0.786-0.047
				c-0.227-0.086-0.443-0.261-0.525-0.495c-0.066-0.215-0.105-0.406-0.105-0.805v-1.258c0-0.4,0.039-0.601,0.105-0.815
				c0.082-0.234,0.279-0.438,0.506-0.521c0.208-0.069,0.42-0.087,0.806-0.087l0,0H60.607z"/>
		</g>
		<path id="Earpiece_2_" fill="#555555" d="M64.751,10.388c0,0.343-0.278,0.62-0.622,0.62h-8.257c-0.344,0-0.623-0.277-0.623-0.62
			l0,0c0-0.343,0.279-0.62,0.623-0.62h8.257C64.473,9.768,64.751,10.045,64.751,10.388L64.751,10.388z"/>
		<ellipse id="Front_Camera_2_" fill="#555555" cx="60" cy="5.737" rx="1.168" ry="1.162"/>
	</g>
</g>
</svg>
