<?xml version="1.0" encoding="utf-8"?>
<!-- Generator: Adobe Illustrator 16.0.4, SVG Export Plug-In . SVG Version: 6.00 Build 0)  -->
<!DOCTYPE svg PUBLIC "-//W3C//DTD SVG 1.1//EN" "http://www.w3.org/Graphics/SVG/1.1/DTD/svg11.dtd">
<svg version="1.1" id="Toolbox" xmlns="http://www.w3.org/2000/svg" xmlns:xlink="http://www.w3.org/1999/xlink" x="0px" y="0px"
	 width="152px" height="120px" viewBox="0 0 152 120" enable-background="new 0 0 152 120" xml:space="preserve">
<g id="Box">
	<path fill="#555555" d="M129.2,27H106V16.54C106,7.42,98.28,0,88.79,0H63.21C53.72,0,46,7.42,46,16.54V27H22.8
		C10.21,27,0,37.21,0,49.8V120h152V49.8C152,37.21,141.79,27,129.2,27z M56.97,16.54c0-3.07,2.8-5.57,6.24-5.57h25.58
		c3.44,0,6.24,2.5,6.24,5.57V27H56.97V16.54z"/>
</g>
<path id="Hinge" fill="#888888" d="M87.5,62.5V48h-23v14.5H0v7h64.5V84h23V69.5H152v-7H87.5z M80.5,77h-9V55h9V77z"/>
</svg>
