<?xml version="1.0" encoding="utf-8"?>
<!-- Copyright (C) 2014 Brian Speir. All rights reserved. -->
<!DOCTYPE svg PUBLIC "-//W3C//DTD SVG 1.1//EN" "http://www.w3.org/Graphics/SVG/1.1/DTD/svg11.dtd">
<svg version="1.1" id="Code" xmlns="http://www.w3.org/2000/svg" xmlns:xlink="http://www.w3.org/1999/xlink" x="0px" y="0px"
	 width="120px" height="120px" viewBox="0 0 120 120" enable-background="new 0 0 120 120" xml:space="preserve">
<g id="E">
	<path fill="#DDDDDD" d="M0,112.607c0-4.811,2.16-7.281,5.434-7.281c3.272,0,5.434,2.472,5.434,7.281
		c0,4.787-2.161,7.393-5.434,7.393C2.16,120,0,117.395,0,112.607z M2.917,112.607c0,3.674,1.114,4.854,2.517,4.854
		s2.516-1.18,2.516-4.854c0-3.676-1.113-4.743-2.516-4.743S2.917,108.934,2.917,112.607z M3.764,112.562
		c0-1.024,0.734-1.692,1.67-1.692s1.67,0.668,1.67,1.692c0,1.023-0.734,1.691-1.67,1.691S3.764,113.587,3.764,112.562z"/>
	<path fill="#DDDDDD" d="M26.302,117.082v2.65H16.17v-2.65h3.652v-8.172h-2.918v-2.026c1.648-0.288,2.738-0.688,3.785-1.291h2.405
		v11.489H26.302z"/>
	<path fill="#555555" d="M41.893,117.082v2.65H31.761v-2.65h3.651v-8.172h-2.917v-2.026c1.647-0.288,2.739-0.688,3.786-1.291h2.404
		v11.489H41.893z"/>
	<path fill="#555555" d="M46.771,112.607c0-4.811,2.16-7.281,5.434-7.281c3.272,0,5.433,2.472,5.433,7.281
		c0,4.787-2.16,7.393-5.433,7.393S46.771,117.395,46.771,112.607z M49.688,112.607c0,3.674,1.114,4.854,2.517,4.854
		c1.403,0,2.516-1.18,2.516-4.854c0-3.676-1.113-4.743-2.516-4.743C50.802,107.864,49.688,108.934,49.688,112.607z M50.535,112.562
		c0-1.024,0.734-1.692,1.67-1.692s1.67,0.668,1.67,1.692c0,1.023-0.734,1.691-1.67,1.691S50.535,113.587,50.535,112.562z"/>
	<path fill="#888888" d="M62.361,112.607c0-4.811,2.16-7.281,5.434-7.281s5.434,2.472,5.434,7.281c0,4.787-2.16,7.393-5.434,7.393
		S62.361,117.395,62.361,112.607z M65.279,112.607c0,3.674,1.113,4.854,2.516,4.854c1.404,0,2.518-1.18,2.518-4.854
		c0-3.676-1.112-4.743-2.518-4.743C66.393,107.864,65.279,108.934,65.279,112.607z M66.126,112.562c0-1.024,0.733-1.692,1.669-1.692
		s1.671,0.668,1.671,1.692c0,1.023-0.735,1.691-1.671,1.691C66.859,114.255,66.126,113.587,66.126,112.562z"/>
	<path fill="#888888" d="M88.664,117.082v2.65H78.532v-2.65h3.651v-8.172h-2.918v-2.026c1.647-0.288,2.739-0.688,3.786-1.291h2.404
		v11.489H88.664z"/>
	<path fill="#555555" d="M93.544,112.607c0-4.811,2.16-7.281,5.433-7.281c3.273,0,5.435,2.472,5.435,7.281
		c0,4.787-2.16,7.393-5.435,7.393C95.704,120,93.544,117.395,93.544,112.607z M96.461,112.607c0,3.674,1.113,4.854,2.516,4.854
		c1.403,0,2.518-1.18,2.518-4.854c0-3.676-1.113-4.743-2.518-4.743C97.574,107.864,96.461,108.934,96.461,112.607z M97.309,112.562
		c0-1.024,0.733-1.692,1.668-1.692c0.937,0,1.672,0.668,1.672,1.692c0,1.023-0.735,1.691-1.672,1.691
		C98.042,114.255,97.309,113.587,97.309,112.562z"/>
	<path fill="#555555" d="M119.846,117.082v2.65h-10.133v-2.65h3.65v-8.172h-2.916v-2.026c1.646-0.288,2.738-0.688,3.785-1.291h2.404
		v11.489H119.846z"/>
</g>
<g id="D">
	<path fill="#555555" d="M0,77.499c0-4.81,2.16-7.281,5.434-7.281c3.272,0,5.434,2.472,5.434,7.281c0,4.788-2.161,7.394-5.434,7.394
		C2.16,84.893,0,82.287,0,77.499z M2.917,77.499c0,3.674,1.114,4.854,2.517,4.854s2.516-1.181,2.516-4.854s-1.113-4.742-2.516-4.742
		S2.917,73.825,2.917,77.499z M3.764,77.455c0-1.025,0.734-1.691,1.67-1.691s1.67,0.666,1.67,1.691c0,1.023-0.734,1.691-1.67,1.691
		S3.764,78.479,3.764,77.455z"/>
	<path fill="#BBBBBB" d="M26.302,81.975v2.65H16.17v-2.65h3.652v-8.172h-2.918v-2.025c1.648-0.289,2.738-0.69,3.785-1.291h2.405
		v11.488H26.302z"/>
	<path fill="#BBBBBB" d="M41.893,81.975v2.65H31.761v-2.65h3.651v-8.172h-2.917v-2.025c1.647-0.289,2.739-0.69,3.786-1.291h2.404
		v11.488H41.893z"/>
	<path fill="#555555" d="M46.771,77.499c0-4.81,2.16-7.281,5.434-7.281c3.272,0,5.433,2.472,5.433,7.281
		c0,4.788-2.16,7.394-5.433,7.394S46.771,82.287,46.771,77.499z M49.688,77.499c0,3.674,1.114,4.854,2.517,4.854
		c1.403,0,2.516-1.181,2.516-4.854s-1.113-4.742-2.516-4.742C50.802,72.757,49.688,73.825,49.688,77.499z M50.535,77.455
		c0-1.025,0.734-1.691,1.67-1.691s1.67,0.666,1.67,1.691c0,1.023-0.734,1.691-1.67,1.691S50.535,78.479,50.535,77.455z"/>
	<path fill="#555555" d="M62.361,77.499c0-4.81,2.16-7.281,5.434-7.281s5.434,2.472,5.434,7.281c0,4.788-2.16,7.394-5.434,7.394
		S62.361,82.287,62.361,77.499z M65.279,77.499c0,3.674,1.113,4.854,2.516,4.854c1.404,0,2.518-1.181,2.518-4.854
		s-1.112-4.742-2.518-4.742C66.393,72.757,65.279,73.825,65.279,77.499z M66.126,77.455c0-1.025,0.733-1.691,1.669-1.691
		s1.671,0.666,1.671,1.691c0,1.023-0.735,1.691-1.671,1.691S66.126,78.479,66.126,77.455z"/>
	<path fill="#888888" d="M88.664,81.975v2.65H78.532v-2.65h3.651v-8.172h-2.918v-2.025c1.647-0.289,2.739-0.69,3.786-1.291h2.404
		v11.488H88.664z"/>
	<path fill="#888888" d="M93.544,77.499c0-4.81,2.16-7.281,5.433-7.281c3.273,0,5.435,2.472,5.435,7.281
		c0,4.788-2.16,7.394-5.435,7.394C95.704,84.893,93.544,82.287,93.544,77.499z M96.461,77.499c0,3.674,1.113,4.854,2.516,4.854
		c1.403,0,2.518-1.181,2.518-4.854s-1.113-4.742-2.518-4.742C97.574,72.757,96.461,73.825,96.461,77.499z M97.309,77.455
		c0-1.025,0.733-1.691,1.668-1.691c0.937,0,1.672,0.666,1.672,1.691c0,1.023-0.735,1.691-1.672,1.691
		C98.042,79.146,97.309,78.479,97.309,77.455z"/>
	<path fill="#555555" d="M109.134,77.499c0-4.81,2.16-7.281,5.433-7.281c3.273,0,5.435,2.472,5.435,7.281
		c0,4.788-2.16,7.394-5.435,7.394C111.294,84.893,109.134,82.287,109.134,77.499z M112.051,77.499c0,3.674,1.113,4.854,2.516,4.854
		c1.404,0,2.518-1.181,2.518-4.854s-1.113-4.742-2.518-4.742C113.164,72.757,112.051,73.825,112.051,77.499z M112.896,77.455
		c0-1.025,0.734-1.691,1.67-1.691s1.67,0.666,1.67,1.691c0,1.023-0.734,1.691-1.67,1.691
		C113.632,79.146,112.896,78.479,112.896,77.455z"/>
</g>
<g id="O">
	<path fill="#555555" d="M0,42.39c0-4.81,2.16-7.281,5.434-7.281c3.272,0,5.434,2.472,5.434,7.281c0,4.787-2.161,7.393-5.434,7.393
		C2.16,49.782,0,47.177,0,42.39z M2.917,42.39c0,3.674,1.114,4.854,2.517,4.854s2.516-1.18,2.516-4.854
		c0-3.674-1.113-4.742-2.516-4.742S2.917,38.716,2.917,42.39z M3.764,42.345c0-1.024,0.734-1.691,1.67-1.691s1.67,0.667,1.67,1.691
		c0,1.024-0.734,1.692-1.67,1.692S3.764,43.369,3.764,42.345z"/>
	<path fill="#555555" d="M26.302,46.865v2.649H16.17v-2.649h3.652v-8.173h-2.918v-2.026c1.648-0.288,2.738-0.689,3.785-1.291h2.405
		v11.49H26.302z"/>
	<path fill="#BBBBBB" d="M41.893,46.865v2.649H31.761v-2.649h3.651v-8.173h-2.917v-2.026c1.647-0.288,2.739-0.689,3.786-1.291h2.404
		v11.49H41.893z"/>
	<path fill="#BBBBBB" d="M46.771,42.39c0-4.81,2.16-7.281,5.434-7.281c3.272,0,5.433,2.472,5.433,7.281
		c0,4.787-2.16,7.393-5.433,7.393C48.932,49.782,46.771,47.177,46.771,42.39z M49.688,42.39c0,3.674,1.114,4.854,2.517,4.854
		c1.403,0,2.516-1.18,2.516-4.854c0-3.674-1.113-4.742-2.516-4.742C50.802,37.648,49.688,38.716,49.688,42.39z M50.535,42.345
		c0-1.024,0.734-1.691,1.67-1.691s1.67,0.667,1.67,1.691c0,1.024-0.734,1.692-1.67,1.692S50.535,43.369,50.535,42.345z"/>
	<path fill="#888888" d="M73.072,46.865v2.649H62.941v-2.649h3.65v-8.173h-2.917v-2.026c1.648-0.288,2.738-0.689,3.785-1.291h2.405
		v11.49H73.072z"/>
	<path fill="#888888" d="M88.664,46.865v2.649H78.532v-2.649h3.651v-8.173h-2.918v-2.026c1.647-0.288,2.739-0.689,3.786-1.291h2.404
		v11.49H88.664z"/>
	<path fill="#555555" d="M104.254,46.865v2.649H94.123v-2.649h3.65v-8.173h-2.916v-2.026c1.646-0.288,2.738-0.689,3.785-1.291h2.404
		v11.49H104.254z"/>
	<path fill="#555555" d="M119.846,46.865v2.649h-10.133v-2.649h3.65v-8.173h-2.916v-2.026c1.646-0.288,2.738-0.689,3.785-1.291
		h2.404v11.49H119.846z"/>
</g>
<g id="C">
	<path fill="#BBBBBB" d="M0,7.281C0,2.472,2.16,0,5.434,0c3.272,0,5.434,2.472,5.434,7.281c0,4.788-2.161,7.393-5.434,7.393
		C2.16,14.674,0,12.069,0,7.281z M2.917,7.281c0,3.675,1.114,4.854,2.517,4.854s2.516-1.18,2.516-4.854
		c0-3.674-1.113-4.742-2.516-4.742S2.917,3.607,2.917,7.281z M3.764,7.237c0-1.025,0.734-1.692,1.67-1.692s1.67,0.667,1.67,1.692
		c0,1.024-0.734,1.692-1.67,1.692S3.764,8.262,3.764,7.237z"/>
	<path fill="#BBBBBB" d="M26.302,11.757v2.65H16.17v-2.65h3.652V3.585h-2.918V1.559c1.648-0.289,2.738-0.689,3.785-1.291h2.405
		v11.489H26.302z"/>
	<path fill="#555555" d="M41.893,11.757v2.65H31.761v-2.65h3.651V3.585h-2.917V1.559c1.647-0.289,2.739-0.689,3.786-1.291h2.404
		v11.489H41.893z"/>
	<path fill="#555555" d="M46.771,7.281c0-4.81,2.16-7.281,5.434-7.281c3.272,0,5.433,2.472,5.433,7.281
		c0,4.788-2.16,7.393-5.433,7.393S46.771,12.069,46.771,7.281z M49.688,7.281c0,3.675,1.114,4.854,2.517,4.854
		c1.403,0,2.516-1.18,2.516-4.854c0-3.674-1.113-4.742-2.516-4.742C50.802,2.539,49.688,3.607,49.688,7.281z M50.535,7.237
		c0-1.025,0.734-1.692,1.67-1.692s1.67,0.667,1.67,1.692c0,1.024-0.734,1.692-1.67,1.692S50.535,8.262,50.535,7.237z"/>
	<path fill="#555555" d="M62.361,7.281c0-4.81,2.16-7.281,5.434-7.281s5.434,2.472,5.434,7.281c0,4.788-2.16,7.393-5.434,7.393
		S62.361,12.069,62.361,7.281z M65.279,7.281c0,3.675,1.113,4.854,2.516,4.854c1.404,0,2.518-1.18,2.518-4.854
		c0-3.674-1.112-4.742-2.518-4.742C66.393,2.539,65.279,3.607,65.279,7.281z M66.126,7.237c0-1.025,0.733-1.692,1.669-1.692
		s1.671,0.667,1.671,1.692c0,1.024-0.735,1.692-1.671,1.692C66.859,8.93,66.126,8.262,66.126,7.237z"/>
	<path fill="#888888" d="M77.953,7.281c0-4.81,2.16-7.281,5.434-7.281c3.272,0,5.434,2.472,5.434,7.281
		c0,4.788-2.16,7.393-5.434,7.393S77.953,12.069,77.953,7.281z M80.87,7.281c0,3.675,1.112,4.854,2.517,4.854
		c1.402,0,2.516-1.18,2.516-4.854c0-3.674-1.112-4.742-2.516-4.742C81.982,2.539,80.87,3.607,80.87,7.281z M81.717,7.237
		c0-1.025,0.734-1.692,1.67-1.692s1.67,0.667,1.67,1.692c0,1.024-0.734,1.692-1.67,1.692C82.451,8.93,81.717,8.262,81.717,7.237z"/>
	<path fill="#888888" d="M104.254,11.757v2.65H94.123v-2.65h3.65V3.585h-2.916V1.559c1.646-0.289,2.738-0.689,3.785-1.291h2.404
		v11.489H104.254z"/>
	<path fill="#555555" d="M119.846,11.757v2.65h-10.133v-2.65h3.65V3.585h-2.916V1.559c1.646-0.289,2.738-0.689,3.785-1.291h2.404
		v11.489H119.846z"/>
</g>
</svg>
