<?xml version="1.0" encoding="utf-8"?>
<!-- Generator: Adobe Illustrator 16.0.4, SVG Export Plug-In . SVG Version: 6.00 Build 0)  -->
<svg version="1.2" baseProfile="tiny" id="Layer_1" xmlns="http://www.w3.org/2000/svg" xmlns:xlink="http://www.w3.org/1999/xlink"
	 x="0px" y="0px" width="155px" height="120px" viewBox="0 0 155 120" overflow="auto" xml:space="preserve">
<g>
	<rect x="2.5" y="23" fill="#F7F7F7" width="150" height="95"/>
	<g id="Browser_3_">
		<path id="Frame_1_" fill="#555555" d="M152.373,23.589v90.292c0,1.937-1.567,3.501-3.502,3.501H6.127
			c-1.935,0-3.504-1.564-3.504-3.501V23.589H152.373 M155,20.965h-2.627H2.623H0v2.624v90.292C0,117.259,2.744,120,6.127,120
			h142.744c3.381,0,6.129-2.741,6.129-6.119V23.589V20.965L155,20.965z"/>
		<g>
			<path id="Bar_4_" fill="#DDDDDD" d="M2.623,20.965V6.113c0-1.928,1.569-3.495,3.504-3.495h142.744
				c1.935,0,3.502,1.567,3.502,3.495v14.852H2.623z"/>
			<path id="Bar_1_" fill="#555555" d="M148.871,2.618c1.935,0,3.502,1.567,3.502,3.495v14.852H2.623V6.113
				c0-1.928,1.569-3.495,3.504-3.495H148.871 M148.871,0H6.127C2.744,0,0,2.741,0,6.113v14.852v2.624h2.623h149.75H155v-2.624V6.113
				C155,2.741,152.252,0,148.871,0L148.871,0z"/>
		</g>
		<path id="Close_2_" fill="#BBBBBB" d="M17.507,12.227c0,2.417-1.96,4.373-4.377,4.373c-2.419,0-4.379-1.956-4.379-4.373
			c0-2.407,1.96-4.365,4.379-4.365C15.547,7.861,17.507,9.819,17.507,12.227z"/>
		<path id="Minimize_2_" fill="#BBBBBB" d="M35.02,12.227c0,2.417-1.962,4.373-4.375,4.373c-2.421,0-4.383-1.956-4.383-4.373
			c0-2.407,1.962-4.365,4.383-4.365C33.058,7.861,35.02,9.819,35.02,12.227z"/>
		<path id="Zoom_2_" fill="#BBBBBB" d="M52.528,12.227c0,2.417-1.96,4.373-4.375,4.373s-4.379-1.956-4.379-4.373
			c0-2.407,1.964-4.365,4.379-4.365S52.528,9.819,52.528,12.227z"/>
	</g>
</g>
</svg>
