<?xml version="1.0" encoding="utf-8"?>
<!-- Generator: Adobe Illustrator 16.0.4, SVG Export Plug-In . SVG Version: 6.00 Build 0)  -->
<svg version="1.2" baseProfile="tiny" id="Layer_1" xmlns="http://www.w3.org/2000/svg" xmlns:xlink="http://www.w3.org/1999/xlink"
	 x="0px" y="0px" width="140px" height="120px" viewBox="0 0 140 120" xml:space="preserve">
<g>
	<path fill="#555555" d="M12.819,38.106C21.367,24.217,36.797,11.505,59.119,0l4.194,7.84C52.14,15.749,43.895,22.386,38.536,27.736
		C29.129,37.39,24.424,46.621,24.424,55.46c0,3.019,0.862,5.007,2.606,5.931c1.745,1.039,3.26,1.569,4.528,1.569
		c4.427-0.573,7.33-0.862,8.724-0.862c7.439,0,13.554,2.694,18.328,8.096c4.764,5.409,7.132,11.956,7.132,19.619
		c0,8.615-2.605,15.801-7.84,21.543C52.669,117.119,45.466,120,36.284,120c-10.821,0-19.579-3.873-26.249-11.604
		C3.343,100.669,0,90.342,0,77.447C0,65.108,4.274,51.996,12.819,38.106z M87.859,37.145C96.916,23.321,112.088,10.933,133.375,0
		l4.179,7.84c-10.45,7.333-18.487,13.78-24.056,19.368c-9.894,9.893-14.838,19.076-14.838,27.559c0,2.431,0.639,4.42,1.921,5.919
		c1.279,1.524,3.023,2.274,5.233,2.274c4.416-0.573,7.332-0.862,8.724-0.862c7.331,0,13.392,2.676,18.229,8.018
		C137.579,75.459,140,82.041,140,89.812c0,9.077-2.676,16.378-8.017,21.896C126.622,117.232,119.35,120,110.17,120
		c-10.451,0-19.064-3.873-25.799-11.604c-6.758-7.728-10.113-18.055-10.113-30.949C74.258,64.42,78.785,50.993,87.859,37.145z"/>
</g>
</svg>
