<!-- Copyright © 2014 Brian Speir. All rights reserved.  -->
<svg version="1.2" baseProfile="tiny" id="Layer_1" xmlns="http://www.w3.org/2000/svg" xmlns:xlink="http://www.w3.org/1999/xlink"
	 x="0px" y="0px" width="120px" height="120px" viewBox="0 0 120 120" overflow="auto" xml:space="preserve">
<g>
	<circle fill="#AAAAAA" cx="60" cy="60" r="60"/>
	<path fill="#555555" d="M20.131,29.372c-0.074,0.662,0.365,1.275,1.025,1.367c0.91,0.123,7.525-3.848,15.945-4.758
		c4.215-0.455,4.965-0.23,8.025,0.006c2.141,0.166,3.203-0.727,2.607-2.213c-0.969-2.416-6.744-3.867-12.002-3.287
		C28.275,21.313,20.539,25.704,20.131,29.372z"/>
	<path fill="#555555" d="M99.869,29.372c0.074,0.662-0.365,1.275-1.027,1.367c-0.908,0.123-7.523-3.848-15.943-4.758
		c-4.217-0.455-4.967-0.23-8.025,0.006c-2.141,0.166-3.203-0.727-2.607-2.213c0.967-2.416,6.744-3.867,12.002-3.287
		C91.723,21.313,99.459,25.704,99.869,29.372z"/>
	<path fill="#555555" d="M72.943,96.135c0,1.602-1.297,2.898-2.898,2.898H49.686c-1.602,0-2.898-1.297-2.898-2.898l0,0
		c0-1.602,1.297-2.898,2.898-2.898h20.359C71.646,93.236,72.943,94.533,72.943,96.135L72.943,96.135z"/>
	<path fill="#FFFFFF" d="M14.021,59.596c0,10.722,8.693,19.414,19.416,19.414c10.725,0,19.416-8.691,19.416-19.414
		c0-10.725-8.691-19.416-19.416-19.416C22.715,40.18,14.021,48.872,14.021,59.596z"/>
	<circle fill="#555555" cx="33.438" cy="59.596" r="6.607"/>
	<path fill="#FFFFFF" d="M105.979,59.596c0,10.722-8.693,19.414-19.418,19.414c-10.723,0-19.414-8.691-19.414-19.414
		c0-10.725,8.691-19.416,19.414-19.416C97.285,40.18,105.979,48.872,105.979,59.596z"/>
	<circle fill="#555555" cx="86.562" cy="59.596" r="6.606"/>
</g>
</svg>
