<?xml version="1.0" encoding="utf-8"?>
<!-- Generator: Adobe Illustrator 16.0.4, SVG Export Plug-In . SVG Version: 6.00 Build 0)  -->
<svg version="1.2" baseProfile="tiny" id="Layer_1" xmlns="http://www.w3.org/2000/svg" xmlns:xlink="http://www.w3.org/1999/xlink"
	 x="0px" y="0px" width="120px" height="120px" viewBox="0 0 120 120" xml:space="preserve">
<path fill="#555555" d="M37.563,33.134C36.028,18.635,45.518,4.747,59.603,0.997c7.175-1.909,14.979-1.057,21.557,2.384
	c4.997,2.618,8.941,6.81,15.001,5.165c4.215-1.141,8.421-2.285,12.63-3.426c6.094-1.651,8.467,7.994,2.717,10.208
	c9.488,6.044-7.937,13.837-11.718,16.104c-4.562,2.72-5.764,8.982-2.311,13.129c1.762,2.101,4.238,2.672,6.574,3.854
	c3.224,1.621,6.118,3.867,8.505,6.573c18.287,20.773-0.189,53.193-22.367,61.735c-23.95,9.229-53.195-2.19-70.157-19.915
	c-8.76-9.155-15.159-20.519-18.33-32.796c-1.371-5.25-3.568-12.029,1.289-16.173c7.293-6.207,12.115,1.532,15.938,6.648
	C29.785,69.02,50.16,68.095,64.621,59.77C49.357,58.396,39.047,47.144,37.563,33.134z"/>
</svg>
