<?xml version="1.0" encoding="utf-8"?>
<!-- Copyright (C) 2014 Brian Speir. All rights reserved. -->
<!DOCTYPE svg PUBLIC "-//W3C//DTD SVG 1.1//EN" "http://www.w3.org/Graphics/SVG/1.1/DTD/svg11.dtd">
<svg version="1.1" id="Browser" xmlns="http://www.w3.org/2000/svg" xmlns:xlink="http://www.w3.org/1999/xlink" x="0px" y="0px"
	 width="155px" height="120px" viewBox="0 0 155 120" enable-background="new 0 0 155 120" xml:space="preserve">
<rect id="Background" x="12.177" y="27.774" fill="#F7F7F7" width="130.646" height="82.742"/>
<path id="Title_Bar" fill="#DDDDDD" d="M142.709,13.063v12.934H12.282V13.063c0-1.672,1.367-3.04,3.057-3.04h124.322
	C141.352,10.024,142.709,11.391,142.709,13.063z"/>
<path id="Close_2_" fill="#AAAAAA" d="M25.248,18.391c0,2.105-1.707,3.809-3.812,3.809c-2.106,0-3.814-1.704-3.814-3.809
	c0-2.096,1.708-3.802,3.814-3.802C23.541,14.588,25.248,16.294,25.248,18.391z"/>
<path id="Minimize_2_" fill="#AAAAAA" d="M40.501,18.391c0,2.105-1.709,3.809-3.811,3.809c-2.108,0-3.817-1.704-3.817-3.809
	c0-2.096,1.709-3.802,3.817-3.802C38.792,14.588,40.501,16.294,40.501,18.391z"/>
<path id="Zoom_2_" fill="#AAAAAA" d="M55.75,18.391c0,2.105-1.707,3.809-3.811,3.809s-3.814-1.704-3.814-3.809
	c0-2.096,1.71-3.802,3.814-3.802S55.75,16.294,55.75,18.391z"/>
<path id="Outline" fill="#555555" d="M139.661,7.742H15.339c-2.952,0-5.339,2.387-5.339,5.322v93.864c0,2.943,2.387,5.33,5.339,5.33
	h124.322c2.942,0,5.339-2.387,5.339-5.33V13.063C145,10.128,142.604,7.742,139.661,7.742z M142.709,106.928
	c0,1.69-1.359,3.049-3.048,3.049H15.339c-1.689,0-3.057-1.356-3.057-3.049v-78.64h130.427V106.928z M12.282,25.998V13.063
	c0-1.672,1.367-3.04,3.057-3.04h124.322c1.688,0,3.048,1.367,3.048,3.04v12.934L12.282,25.998L12.282,25.998z"/>
</svg>
