<?xml version="1.0" encoding="utf-8"?>
<!-- Generator: Adobe Illustrator 16.0.4, SVG Export Plug-In . SVG Version: 6.00 Build 0)  -->
<!DOCTYPE svg PUBLIC "-//W3C//DTD SVG 1.1//EN" "http://www.w3.org/Graphics/SVG/1.1/DTD/svg11.dtd">
<svg version="1.1" id="Pixel" xmlns="http://www.w3.org/2000/svg" xmlns:xlink="http://www.w3.org/1999/xlink" x="0px" y="0px"
	 width="120px" height="120px" viewBox="0 0 120 120" enable-background="new 0 0 120 120" xml:space="preserve">
<g id="Layer_2_1_" display="none">
	<path fill="#BBBBBB" d="M12,120c-6.628,0-12-5.372-12-12V54v-3v-6v-6V27h3V15h12V3h12V0h12h10h21h10h12v3h13v12h12v12h3v21v3v57
		c0,6.628-5.373,12-12,12H12z"/>
	
		<linearGradient id="SVGID_1_" gradientUnits="userSpaceOnUse" x1="306" y1="-334.9995" x2="306" y2="-215" gradientTransform="matrix(1 0 0 -1 -246 -215)">
		<stop  offset="0" style="stop-color:#AAAAAA"/>
		<stop  offset="1" style="stop-color:#BABABA"/>
	</linearGradient>
	<path fill="url(#SVGID_1_)" d="M120,108c0,6.628-5.372,12-12,12H54v-3h-3v3h-6v-6h-6v6h-9v-3H18v3h-6v-6H6v-6H0v-6h6v-3H0V81h3v-3
		H0V48h3V36H0v-6h6v-6H0V12h6V6h6V0h12v3h6V0h18v3h3V0h57c6.628,0,12,5.373,12,12V108z"/>
	<path fill="#AAAAAA" d="M60,70L0,60V40h3v-9h9v-9h9v-9h6V7h12V3h3V0h18"/>
	<path fill="#AAAAAA" d="M60,0c33.145,0,60,26.851,60,60c0,33.145-26.855,60-60,60C26.851,120,0,93.145,0,60C0,26.851,26.851,0,60,0
		z"/>
	<path fill="#BBBBBB" d="M54,119h-3h-6h-6H27v-3H15v-12H3V92H0V80V70V49v-9v-9h12v-9h9v-9h6V7h12V3h3V0h18L54,119z"/>
	<g id="face">
		
			<linearGradient id="SVGID_2_" gradientUnits="userSpaceOnUse" x1="306" y1="-334.9995" x2="306" y2="-215" gradientTransform="matrix(1 0 0 -1 -246 -215)">
			<stop  offset="0" style="stop-color:#AAAAAA"/>
			<stop  offset="1" style="stop-color:#BABABA"/>
		</linearGradient>
		<path display="inline" fill="url(#SVGID_2_)" d="M120,108c0,6.628-5.372,12-12,12H54v-3h-3v3h-6v-6h-6v6h-9v-3H18v3h-6v-6H6v-6H0
			v-6h6v-3H0V81h3v-3H0V48h3V36H0v-6h6v-6H0V12h6V6h6V0h12v3h6V0h18v3h3V0h57c6.628,0,12,5.373,12,12V108z"/>
		<path display="inline" fill="#555555" d="M18,30h6v-3h6h15v-3h3v-3H30v3H18V30z"/>
		<path display="inline" fill="#555555" d="M99.863,29.365c0.078,0.679-0.361,1.279-1.045,1.382
			c-0.869,0.122-7.51-3.853-15.938-4.775c-4.219-0.439-4.95-0.234-7.998,0.029c-2.139,0.146-3.192-0.742-2.606-2.222
			c0.968-2.407,6.729-3.867,11.992-3.286C91.738,21.318,99.473,25.708,99.863,29.365z"/>
		<path display="inline" fill="#555555" d="M72.92,96.123c0,1.611-1.289,2.9-2.861,2.9L60,99.012V99H48v-3l-3,0.001V93h15v0.252
			h10.059C71.631,93.252,72.92,94.541,72.92,96.123L72.92,96.123z"/>
		<path display="inline" fill="#FFFFFF" d="M24,45h-6v5h-6v19h6v6h6v6h6h9v-3h6v-3h3v-3h3v-6h3V54h-3v-6h-3v-3h-3v-3h-5v-3H24V45z"
			/>
		<polygon display="inline" fill="#555555" points="37,57 40,57 40,63 37,63 37,66 30,66 30,60 24,60 24,54 37,54 		"/>
		<path display="inline" fill="#FFFFFF" d="M105.967,59.595c0,10.717-8.682,19.409-19.395,19.409
			c-10.732,0-19.424-8.691-19.424-19.409c0-10.728,8.689-19.409,19.424-19.409C97.285,40.186,105.967,48.872,105.967,59.595z"/>
		<path display="inline" fill="#555555" d="M86.572,52.983c3.643,0,6.592,2.964,6.592,6.611c0,3.639-2.949,6.616-6.592,6.616
			c-3.633,0-6.631-2.979-6.631-6.616C79.941,55.947,82.939,52.983,86.572,52.983z"/>
	</g>
	<g id="Layer_1_2_">
		<g id="Layer_1_1_" display="inline">
			<g opacity="0.6">
				<path fill="#AAAAAA" d="M60,0c33.145,0,60,26.851,60,60c0,33.145-26.855,60-60,60C26.851,120,0,93.145,0,60
					C0,26.851,26.851,0,60,0z"/>
				<path fill="#555555" d="M20.142,29.365c-0.088,0.679,0.356,1.279,1.011,1.382c0.923,0.122,7.515-3.853,15.947-4.775
					c4.219-0.439,4.971-0.234,8.027,0.029c2.144,0.146,3.203-0.742,2.612-2.222c-0.972-2.407-6.738-3.867-12.007-3.286
					C28.286,21.318,20.552,25.708,20.142,29.365z"/>
				<path fill="#555555" d="M99.863,29.365c0.078,0.679-0.361,1.279-1.045,1.382c-0.869,0.122-7.51-3.853-15.938-4.775
					c-4.219-0.439-4.95-0.234-7.998,0.029c-2.139,0.146-3.192-0.742-2.606-2.222c0.968-2.407,6.729-3.867,11.992-3.286
					C91.738,21.318,99.473,25.708,99.863,29.365z"/>
				<path fill="#555555" d="M72.92,96.123c0,1.611-1.289,2.9-2.861,2.9H49.688c-1.597,0-2.886-1.289-2.886-2.9l0,0
					c0-1.582,1.289-2.871,2.886-2.871h20.371C71.631,93.252,72.92,94.541,72.92,96.123L72.92,96.123z"/>
				<path fill="#FFFFFF" d="M14.014,59.595c0,10.717,8.706,19.409,19.429,19.409c10.728,0,19.409-8.691,19.409-19.409
					c0-10.728-8.682-19.409-19.409-19.409C22.72,40.186,14.014,48.872,14.014,59.595z"/>
				<path fill="#555555" d="M33.442,52.983c3.647,0,6.592,2.964,6.592,6.611c0,3.639-2.944,6.616-6.592,6.616
					c-3.662,0-6.606-2.979-6.606-6.616C26.836,55.947,29.78,52.983,33.442,52.983z"/>
				<path fill="#FFFFFF" d="M105.967,59.595c0,10.717-8.682,19.409-19.395,19.409c-10.732,0-19.424-8.691-19.424-19.409
					c0-10.728,8.689-19.409,19.424-19.409C97.285,40.186,105.967,48.872,105.967,59.595z"/>
				<path fill="#555555" d="M86.572,52.983c3.643,0,6.592,2.964,6.592,6.611c0,3.639-2.949,6.616-6.592,6.616
					c-3.633,0-6.631-2.979-6.631-6.616C79.941,55.947,82.939,52.983,86.572,52.983z"/>
			</g>
		</g>
		<g id="Layer_2">
			<rect x="30" display="inline" fill="#AAAAAA" width="10" height="10"/>
			<rect x="30" y="40" display="inline" fill="#FFFFFF" width="10" height="10"/>
			<rect x="30" y="20" display="inline" fill="#555555" width="10" height="10"/>
			<rect x="40" y="50" display="inline" fill="#FFFFFF" width="10" height="10"/>
			<rect x="30" y="50" display="inline" fill="#555555" width="10" height="10"/>
			<rect x="40" y="90" display="inline" fill="#555555" width="10" height="10"/>
			<rect x="50" y="90" display="inline" fill="#555555" width="10" height="10"/>
			<rect x="40" y="20" display="inline" fill="#555555" width="10" height="10"/>
			<rect x="20" y="20" display="inline" fill="#555555" width="10" height="10"/>
			<rect x="40" display="inline" fill="#AAAAAA" width="10" height="10"/>
			<rect x="20" y="10" display="inline" fill="#AAAAAA" width="10" height="10"/>
			<rect x="10" y="20" display="inline" fill="#AAAAAA" width="10" height="10"/>
			<rect x="10" y="30" display="inline" fill="#AAAAAA" width="10" height="10"/>
			<rect x="20" y="30" display="inline" fill="#AAAAAA" width="10" height="10"/>
			<rect x="30" y="30" display="inline" fill="#AAAAAA" width="10" height="10"/>
			<rect x="40" y="30" display="inline" fill="#AAAAAA" width="10" height="10"/>
			<rect x="50" y="30" display="inline" fill="#AAAAAA" width="10" height="10"/>
			<rect y="40" display="inline" fill="#AAAAAA" width="10" height="10"/>
			<rect x="10" y="40" display="inline" fill="#AAAAAA" width="10" height="10"/>
			<rect y="50" display="inline" fill="#AAAAAA" width="10" height="10"/>
			<rect y="60" display="inline" fill="#AAAAAA" width="10" height="10"/>
			<rect x="10" y="70" display="inline" fill="#AAAAAA" width="10" height="10"/>
			<rect x="20" y="70" display="inline" fill="#AAAAAA" width="10" height="10"/>
			<rect x="30" y="70" display="inline" fill="#AAAAAA" width="10" height="10"/>
			<rect x="40" y="70" display="inline" fill="#AAAAAA" width="10" height="10"/>
			<rect x="50" y="70" display="inline" fill="#AAAAAA" width="10" height="10"/>
			<rect x="50" y="60" display="inline" fill="#AAAAAA" width="10" height="10"/>
			<rect x="50" y="50" display="inline" fill="#AAAAAA" width="10" height="10"/>
			<rect x="50" y="40" display="inline" fill="#AAAAAA" width="10" height="10"/>
			<rect x="10" y="60" display="inline" fill="#AAAAAA" width="10" height="10"/>
			<rect x="10" y="50" display="inline" fill="#AAAAAA" width="10" height="10"/>
			<rect x="10" y="80" display="inline" fill="#AAAAAA" width="10" height="10"/>
			<rect x="10" y="90" display="inline" fill="#AAAAAA" width="10" height="10"/>
			<rect x="20" y="90" display="inline" fill="#AAAAAA" width="10" height="10"/>
			<rect x="20" y="100" display="inline" fill="#AAAAAA" width="10" height="10"/>
			<rect x="30" y="100" display="inline" fill="#AAAAAA" width="10" height="10"/>
			<rect x="30" y="110" display="inline" fill="#AAAAAA" width="10" height="10"/>
			<rect x="40" y="110" display="inline" fill="#AAAAAA" width="10" height="10"/>
			<rect x="50" y="110" display="inline" fill="#AAAAAA" width="10" height="10"/>
			<rect x="50" display="inline" fill="#AAAAAA" width="10" height="10"/>
			<rect x="30" y="10" display="inline" fill="#AAAAAA" width="10" height="10"/>
			<rect x="40" y="10" display="inline" fill="#AAAAAA" width="10" height="10"/>
			<rect x="50" y="10" display="inline" fill="#AAAAAA" width="10" height="10"/>
			<rect x="50" y="20" display="inline" fill="#AAAAAA" width="10" height="10"/>
			<rect y="70" display="inline" fill="#AAAAAA" width="10" height="10"/>
			<rect x="20" y="80" display="inline" fill="#AAAAAA" width="10" height="10"/>
			<rect x="30" y="80" display="inline" fill="#AAAAAA" width="10" height="10"/>
			<rect x="30" y="90" display="inline" fill="#AAAAAA" width="10" height="10"/>
			<rect x="40" y="80" display="inline" fill="#AAAAAA" width="10" height="10"/>
			<rect x="50" y="80" display="inline" fill="#AAAAAA" width="10" height="10"/>
			<rect x="40" y="100" display="inline" fill="#AAAAAA" width="10" height="10"/>
			<rect x="50" y="100" display="inline" fill="#AAAAAA" width="10" height="10"/>
		</g>
		<path fill="#AAAAAA" d="M60,0c33.145,0,60,26.851,60,60c0,33.145-26.855,60-60,60c-3.329,0-12,0-12,0v-3h-6v-3h-6v-3H24v-6h-6v-6
			h-6v-6H6V81H0V39h6V27h6v-6h6v-6h6V9h12V6h6V3h6V0H60z"/>
	</g>
</g>
<path id="Face" fill="#AAAAAA" d="M120,60c0,33.14-26.86,60-60,60c-19.64,0-37.06-9.42-48.01-24c0,0,0-0.01,0.01-0.02V93H9v-6H6v-9
	H3v-9H0V49h3v-9h3v-9h6v-9h9v-9h6V7h12V3h9V0h12C93.14,0,120,26.85,120,60z"/>
<path id="Mouth" fill="#555555" d="M72.92,96.123c0,1.611-1.289,2.9-2.861,2.9L60,99.012V99H48v-3l-3,0.001V93h15v0.252h10.059
	C71.631,93.252,72.92,94.541,72.92,96.123L72.92,96.123z"/>
<path id="Eye_-_Right" fill="#FFFFFF" d="M105.967,59.595c0,10.717-8.682,19.409-19.395,19.409
	c-10.732,0-19.424-8.691-19.424-19.409c0-10.728,8.689-19.409,19.424-19.409C97.285,40.186,105.967,48.872,105.967,59.595z"/>
<path id="Pupil_-_Right" fill="#555555" d="M86.572,52.983c3.643,0,6.592,2.964,6.592,6.611c0,3.639-2.949,6.616-6.592,6.616
	c-3.633,0-6.631-2.979-6.631-6.616C79.941,55.947,82.939,52.983,86.572,52.983z"/>
<path id="Eyebrow_-_Right" fill="#555555" d="M99.863,29.365c0.078,0.679-0.361,1.279-1.045,1.382
	c-0.869,0.122-7.51-3.853-15.938-4.775c-4.219-0.439-4.95-0.234-7.998,0.029c-2.139,0.146-3.192-0.742-2.606-2.222
	c0.968-2.407,6.729-3.867,11.992-3.286C91.738,21.318,99.473,25.708,99.863,29.365z"/>
<path id="Eye_-_Left" fill="#FFFFFF" d="M21,51h-9v18h8v9h6v3h13v-3h6v-3h3v-3h3v-6h3V54h-3v-6h-3v-3h-3v-3h-5v-3H27v3h-6V51z"/>
<polygon id="Pupil_-_Left" fill="#555555" points="37,57 40,57 40,63 37,63 37,66 27,66 27,54 37,54 "/>
<path id="Eyebrow_-_Left" fill="#555555" d="M18,30h18v-3h9v-3h3v-3H30v3H18V30z"/>
</svg>
