<?xml version="1.0" encoding="utf-8"?>
<!-- Generator: Adobe Illustrator 16.0.5, SVG Export Plug-In . SVG Version: 6.00 Build 0)  -->
<!DOCTYPE svg PUBLIC "-//W3C//DTD SVG 1.1//EN" "http://www.w3.org/Graphics/SVG/1.1/DTD/svg11.dtd">
<svg version="1.1" id="Toolbox" xmlns="http://www.w3.org/2000/svg" xmlns:xlink="http://www.w3.org/1999/xlink" x="0px" y="0px"
	 width="180px" height="126px" viewBox="0.5 153.5 180 126" enable-background="new 0.5 153.5 180 126" xml:space="preserve">
<path opacity="0.87" enable-background="new    " d="M176.982,164.881c-1.633-2.439-3.268-4.471-5.719-6.098
	c-4.086-3.25-9.396-5.283-15.115-5.283H25.42c-5.719,0-11.03,2.033-15.116,5.283c-2.042,1.627-4.085,3.658-5.719,6.098
	c-2.451,3.658-4.085,8.535-4.085,13.413v77.226c0,4.879,1.634,9.756,4.085,13.414c1.634,2.438,3.268,4.471,5.719,5.688
	c4.085,3.252,9.396,4.878,14.708,4.878H155.74c5.719,0,10.621-2.032,14.705-4.878c2.043-1.625,4.087-3.658,5.721-5.688
	c2.451-4.065,4.085-8.535,4.085-13.414v-77.226C181.068,173.416,179.844,168.539,176.982,164.881z M25.829,162.035h130.729
	c3.268,0,6.535,1.221,8.986,2.846l-53.925,54.059c-5.312,5.285-12.665,8.129-20.427,8.129c-7.762,0-14.708-2.844-20.427-8.129
	l-54.333-54.059C19.292,162.85,22.561,162.035,25.829,162.035z M9.488,255.52v-77.226c0-2.846,0.817-5.284,1.634-7.315
	l46.572,45.929l-46.163,45.93C10.305,260.803,9.488,257.958,9.488,255.52z M156.559,271.777H25.829
	c-3.268,0-6.536-0.813-8.987-2.846l46.572-46.336l2.043,2.032c6.944,6.91,16.341,10.567,26.146,10.567
	c9.804,0,19.201-3.657,26.146-10.567l2.043-2.032l46.571,46.336C163.094,270.559,159.825,271.777,156.559,271.777z M172.898,255.52
	c0,2.846-0.817,5.283-2.043,7.724l-46.164-45.929l46.572-45.931c1.225,2.032,1.635,4.472,1.635,7.317V255.52L172.898,255.52z"/>
</svg>
