<?xml version="1.0" encoding="utf-8"?>
<!-- Generator: Adobe Illustrator 16.0.5, SVG Export Plug-In . SVG Version: 6.00 Build 0)  -->
<!DOCTYPE svg PUBLIC "-//W3C//DTD SVG 1.1//EN" "http://www.w3.org/Graphics/SVG/1.1/DTD/svg11.dtd">
<svg version="1.1" id="Envelope" xmlns="http://www.w3.org/2000/svg" xmlns:xlink="http://www.w3.org/1999/xlink" x="0px" y="0px"
	 width="68px" height="48px" viewBox="0 0 68 48" enable-background="new 0 0 68 48" xml:space="preserve">
<path id="Icon" opacity="0.87" enable-background="new    " d="M66.778,4.443c-0.642-1.083-1.493-2.025-2.505-2.758
	C62.8,0.621,60.995,0,59.052,0H8.949C7.005,0,5.201,0.621,3.728,1.685C2.716,2.417,1.864,3.359,1.223,4.443
	C0.451,5.767,0,7.311,0,8.956v30.088c0,1.646,0.451,3.189,1.223,4.514c0.642,1.083,1.493,2.025,2.505,2.758
	C5.201,47.379,7.005,48,8.949,48h50.103c1.943,0,3.748-0.621,5.222-1.685c1.012-0.732,1.863-1.675,2.505-2.758
	C67.55,42.233,68,40.689,68,39.044V8.956C68,7.311,67.55,5.767,66.778,4.443z M8.949,4h50.103C59.935,4,60.28,4.222,61,4.612
	c0,0-18.91,19.308-19,19.388c-2.155,2.035-5.004,3-8,3c-2.997,0-5.846-0.963-8-3C25.91,23.92,7,4.612,7,4.612
	C7.721,4.222,8.067,4,8.949,4z M4,39V9c0-0.562,0.09-1.147,0.26-1.648L21,24L4.26,40.648C4.09,40.146,4,39.562,4,39z M59.052,44
	H8.949C8.067,44,7.721,43.779,7,43.389L23.398,27c2.876,2.747,6.623,4,10.602,4c3.978,0,7.726-1.253,10.601-4L61,43.389
	C60.28,43.779,59.935,44,59.052,44z M64,39c0,0.562-0.09,1.146-0.261,1.648L47,24L63.739,7.352C63.91,7.853,64,8.438,64,9V39z"/>
</svg>
