<?xml version="1.0" encoding="utf-8"?>
<!-- Generator: Adobe Illustrator 16.0.5, SVG Export Plug-In . SVG Version: 6.00 Build 0)  -->
<!DOCTYPE svg PUBLIC "-//W3C//DTD SVG 1.1//EN" "http://www.w3.org/Graphics/SVG/1.1/DTD/svg11.dtd">
<svg version="1.1" id="Layer_1" xmlns="http://www.w3.org/2000/svg" xmlns:xlink="http://www.w3.org/1999/xlink" x="0px" y="0px"
	 width="16px" height="16px" viewBox="0 0 16 16" enable-background="new 0 0 16 16" xml:space="preserve">
<g>
	<defs>
		<rect id="SVGID_1_" width="16" height="16"/>
	</defs>
	<clipPath id="SVGID_2_">
		<use xlink:href="#SVGID_1_"  overflow="visible"/>
	</clipPath>
	<path clip-path="url(#SVGID_2_)" d="M14,3H2C0.895,3,0,3.895,0,5v7c0,1.105,0.895,2,2,2h12c1.105,0,2-0.895,2-2V5
		C16,3.895,15.105,3,14,3 M15,5v7c0,0.146-0.034,0.282-0.09,0.406L11.457,8.96c0.856-0.937,2.627-3.054,3.511-4.118
		C14.977,4.896,15,4.944,15,5 M14,4c0.112,0,0.215,0.03,0.315,0.064c-0.936,1.124-3.233,3.876-3.866,4.51C9.628,9.394,8.927,10,8,10
		S6.372,9.394,5.551,8.574C4.918,7.94,2.62,5.188,1.685,4.064C1.785,4.03,1.888,4,2,4H14z M1.109,12.434C1.044,12.302,1,12.158,1,12
		V5c0-0.056,0.023-0.104,0.032-0.158C1.924,5.915,3.719,8.06,4.565,8.985L1.109,12.434z M2,13c-0.086,0-0.163-0.029-0.243-0.049
		l3.384-3.377C5.844,10.256,6.767,11,8,11c1.247,0,2.177-0.761,2.883-1.449l3.399,3.393C14.191,12.97,14.1,13,14,13H2z"/>
</g>
</svg>
