<?xml version="1.0" encoding="utf-8"?>
<!-- Generator: Adobe Illustrator 16.0.5, SVG Export Plug-In . SVG Version: 6.00 Build 0)  -->
<!DOCTYPE svg PUBLIC "-//W3C//DTD SVG 1.1//EN" "http://www.w3.org/Graphics/SVG/1.1/DTD/svg11.dtd">
<svg version="1.1" id="Envelope" xmlns="http://www.w3.org/2000/svg" xmlns:xlink="http://www.w3.org/1999/xlink" x="0px" y="0px"
	 width="68px" height="48px" viewBox="18.5 135.5 68 48" enable-background="new 18.5 135.5 68 48" xml:space="preserve">
<path id="Icon" opacity="0.87" d="M85.21,140c-0.64-1.08-1.49-2.02-2.5-2.75c-1.47-1.06-3.27-1.68-5.21-1.68h-50
	c-1.94,0-3.74,0.62-5.21,1.68c-1.01,0.73-1.86,1.67-2.5,2.75c-0.77,1.32-1.22,2.86-1.22,4.5v30c0,1.64,0.45,3.18,1.22,4.5
	c0.64,1.08,1.49,2.02,2.5,2.75c1.47,1.06,3.27,1.68,5.21,1.68h50c1.94,0,3.74-0.62,5.21-1.68c1.01-0.73,1.86-1.67,2.5-2.75
	c0.77-1.32,1.22-2.86,1.22-4.5v-30C86.43,142.86,85.98,141.32,85.21,140z M27.5,139.43h50c0.88,0,1.7,0.221,2.42,0.61l-16.84,16.84
	l-2.36,2.36c-0.09,0.09-0.18,0.18-0.27,0.26c-2.15,2.03-4.96,3.14-7.95,3.14s-5.8-1.109-7.95-3.14c-0.09-0.08-0.18-0.17-0.27-0.26
	l-2.36-2.36l-16.84-16.84C25.8,139.65,26.62,139.43,27.5,139.43z M22.43,174.5v-30c0-0.56,0.09-1.1,0.26-1.6l16.6,16.6l-16.6,16.6
	C22.52,175.6,22.43,175.06,22.43,174.5z M77.5,179.57h-50c-0.88,0-1.7-0.221-2.42-0.61l16.84-16.84
	c2.87,2.74,6.61,4.229,10.58,4.229s7.71-1.489,10.58-4.229l16.84,16.84C79.2,179.35,78.38,179.57,77.5,179.57z M82.57,174.5
	c0,0.56-0.09,1.1-0.26,1.6l-16.6-16.6l16.6-16.6c0.17,0.5,0.26,1.04,0.26,1.6V174.5z"/>
</svg>
