<?xml version="1.0" encoding="utf-8"?>
<!-- Generator: Adobe Illustrator 18.1.1, SVG Export Plug-In . SVG Version: 6.00 Build 0)  -->
<svg version="1.1" id="Toolbox" xmlns="http://www.w3.org/2000/svg" xmlns:xlink="http://www.w3.org/1999/xlink" x="0px" y="0px"
	 viewBox="-283 375 44 44" enable-background="new -283 375 44 44" xml:space="preserve">
<path opacity="0.87" d="M-240,390.7c-0.4-0.6-0.8-1.1-1.4-1.5c-1-0.8-2.3-1.3-3.7-1.3h-32c-1.4,0-2.7,0.5-3.7,1.3
	c-0.5,0.4-1,0.9-1.4,1.5c-0.6,0.9-1,2.1-1,3.3v19c0,1.2,0.4,2.4,1,3.3c0.4,0.6,0.8,1.1,1.4,1.4c1,0.8,2.3,1.2,3.6,1.2h32
	c1.4,0,2.6-0.5,3.6-1.2c0.5-0.4,1-0.9,1.4-1.4c0.6-1,1-2.1,1-3.3v-19C-239,392.8-239.3,391.6-240,390.7z M-277,390h32
	c0.8,0,1.6,0.3,2.2,0.7L-256,404c-1.3,1.3-3.1,2-5,2s-3.6-0.7-5-2l-13.3-13.3C-278.6,390.2-277.8,390-277,390z M-281,413v-19
	c0-0.7,0.2-1.3,0.4-1.8l11.4,11.3l-11.3,11.3C-280.8,414.3-281,413.6-281,413z M-245,417h-32c-0.8,0-1.6-0.2-2.2-0.7l11.4-11.4
	l0.5,0.5c1.7,1.7,4,2.6,6.4,2.6s4.7-0.9,6.4-2.6l0.5-0.5l11.4,11.4C-243.4,416.7-244.2,417-245,417z M-241,413
	c0,0.7-0.2,1.3-0.5,1.9l-11.3-11.3l11.4-11.3c0.3,0.5,0.4,1.1,0.4,1.8V413z"/>
</svg>
