<?xml version="1.0" encoding="utf-8"?>
<!-- Generator: Adobe Illustrator 16.0.5, SVG Export Plug-In . SVG Version: 6.00 Build 0)  -->
<!DOCTYPE svg PUBLIC "-//W3C//DTD SVG 1.1//EN" "http://www.w3.org/Graphics/SVG/1.1/DTD/svg11.dtd">
<svg version="1.1" id="Layer_1" xmlns="http://www.w3.org/2000/svg" xmlns:xlink="http://www.w3.org/1999/xlink" x="0px" y="0px"
	 width="388px" height="388px" viewBox="0 0 388 388" enable-background="new 0 0 388 388" xml:space="preserve">
<g id="background">
	<path fill="#FFFFFF" d="M194,338.5c-79.678,0-144.5-64.822-144.5-144.5S114.322,49.5,194,49.5S338.5,114.322,338.5,194
		S273.678,338.5,194,338.5z"/>
	<path d="M194,51c38.196,0,74.107,14.875,101.116,41.883C322.125,119.894,337,155.804,337,194
		c0,38.197-14.875,74.107-41.884,101.117C268.107,322.126,232.197,337,194,337s-74.107-14.874-101.116-41.883
		C65.875,268.107,51,232.197,51,194c0-38.196,14.875-74.106,41.884-101.116C119.893,65.875,155.804,51,194,51 M194,48
		c-80.634,0-146,65.367-146,146c0,80.635,65.366,146,146,146s146-65.365,146-146C340,113.367,274.634,48,194,48L194,48z"/>
</g>
<path id="mouth" d="M194,252.377c-45.088,0-58.989-24.256-64.054-22.865c-1.84,0.506-2.853,2.15-2.172,3.623
	c2.514,5.436,24.66,37.639,66.226,37.639s63.712-32.203,66.226-37.639c0.681-1.473-0.333-3.117-2.172-3.623
	C252.989,228.121,239.089,252.377,194,252.377z"/>
<path id="eye-right" d="M234.027,177.697c-7.455,0-13.888,6.854-17.031,16.818c-0.495,1.568-1.903,2.109-2.858,2.109
	c-2.127,0-2.838-1.83-2.959-2.555c-0.513-3.061-0.774-6.277-0.774-9.596c0-20.828,10.578-37.719,23.623-37.719
	s23.622,16.891,23.622,37.719c0,3.318-0.262,6.535-0.773,9.596c-0.121,0.725-0.833,2.555-2.96,2.555
	c-0.955,0-2.363-0.541-2.857-2.109C247.915,184.551,241.481,177.697,234.027,177.697z"/>
<path id="eye-left" d="M153.974,177.697c-7.455,0-13.889,6.854-17.031,16.818c-0.495,1.568-1.903,2.109-2.858,2.109
	c-2.127,0-2.838-1.83-2.959-2.555c-0.513-3.061-0.774-6.277-0.774-9.596c0-20.828,10.578-37.719,23.623-37.719
	c13.044,0,23.622,16.891,23.622,37.719c0,3.318-0.262,6.535-0.774,9.596c-0.121,0.725-0.832,2.555-2.959,2.555
	c-0.955,0-2.363-0.541-2.858-2.109C167.861,184.551,161.428,177.697,153.974,177.697z"/>
<line opacity="0.33" fill="none" stroke="#AAAAAA" stroke-miterlimit="10" x1="0" y1="194" x2="388" y2="194"/>
<line opacity="0.33" fill="none" stroke="#AAAAAA" stroke-miterlimit="10" x1="194" y1="0" x2="194" y2="388"/>
<line opacity="0.33" fill="none" stroke="#AAAAAA" stroke-miterlimit="10" x1="153.973" y1="117.641" x2="153.973" y2="310.359"/>
<line opacity="0.33" fill="none" stroke="#AAAAAA" stroke-miterlimit="10" x1="234.027" y1="117.641" x2="234.027" y2="310.359"/>
<line opacity="0.33" fill="none" stroke="#AAAAAA" stroke-miterlimit="10" x1="98" y1="267" x2="290" y2="267"/>
</svg>
