<?xml version="1.0" encoding="utf-8"?>
<!-- Generator: Adobe Illustrator 16.0.4, SVG Export Plug-In . SVG Version: 6.00 Build 0)  -->
<!DOCTYPE svg PUBLIC "-//W3C//DTD SVG 1.1//EN" "http://www.w3.org/Graphics/SVG/1.1/DTD/svg11.dtd">
<svg version="1.1" id="Layer_1" xmlns="http://www.w3.org/2000/svg" xmlns:xlink="http://www.w3.org/1999/xlink" x="0px" y="0px"
	 width="152px" height="152px" viewBox="0 0 152 152" enable-background="new 0 0 152 152" xml:space="preserve">
<linearGradient id="SVGID_1_" gradientUnits="userSpaceOnUse" x1="76.0005" y1="152" x2="76.0005" y2="9.765625e-04">
	<stop  offset="0" style="stop-color:#FFCD02"/>
	<stop  offset="1" style="stop-color:#FFDB4C"/>
</linearGradient>
<circle fill="url(#SVGID_1_)" cx="76" cy="76" r="76"/>
<linearGradient id="SVGID_2_" gradientUnits="userSpaceOnUse" x1="76" y1="108.2783" x2="76" y2="125.5283">
	<stop  offset="0" style="stop-color:#4A4A4A"/>
	<stop  offset="1" style="stop-color:#2B2B2B"/>
</linearGradient>
<path fill="url(#SVGID_2_)" d="M76,125.528c8.997,0,17.65-6.169,20.438-15.465c0.295-0.985,0.173-1.364-0.763-1.696
	c-2.576-0.913-6.925,5.538-19.675,5.538l0,0c-12.75,0-17.099-6.451-19.674-5.538c-0.935,0.332-1.059,0.711-0.764,1.696
	C58.348,119.359,67.004,125.528,76,125.528L76,125.528z"/>
<linearGradient id="SVGID_3_" gradientUnits="userSpaceOnUse" x1="1.7188" y1="107.542" x2="8.269" y2="83.0962" gradientTransform="matrix(0.9659 -0.2588 0.2588 0.9659 11.0771 -35.3438)">
	<stop  offset="0" style="stop-color:#4A4A4A"/>
	<stop  offset="1" style="stop-color:#2B2B2B"/>
</linearGradient>
<path fill="url(#SVGID_3_)" d="M26.951,67.128c0.338,0.772,1.207,1.166,1.988,0.848c1.076-0.439,5.813-8.961,14.465-15.274
	c4.331-3.16,5.294-3.388,8.798-5.062c2.45-1.171,3.051-2.818,1.457-4.068c-2.589-2.031-9.836,0.03-15.231,3.987
	C30.78,53.171,25.078,62.859,26.951,67.128z"/>
<linearGradient id="SVGID_4_" gradientUnits="userSpaceOnUse" x1="55.1646" y1="92.5664" x2="55.1646" y2="67.8027">
	<stop  offset="0" style="stop-color:#4A4A4A"/>
	<stop  offset="1" style="stop-color:#2B2B2B"/>
</linearGradient>
<ellipse fill="url(#SVGID_4_)" cx="55.164" cy="80.185" rx="8.368" ry="12.382"/>
<linearGradient id="SVGID_5_" gradientUnits="userSpaceOnUse" x1="-375.1016" y1="65.21" x2="-378.7468" y2="53.287" gradientTransform="matrix(-0.9563 0.2924 0.2924 0.9563 -268.6436 119.0508)">
	<stop  offset="0" style="stop-color:#4A4A4A"/>
	<stop  offset="1" style="stop-color:#2B2B2B"/>
</linearGradient>
<path fill="url(#SVGID_5_)" d="M126.791,69.94c0.124,0.84-0.403,1.639-1.235,1.784c-1.146,0.198-9.688-4.559-20.378-5.342
	c-5.352-0.392-6.29-0.074-10.15,0.363c-2.699,0.305-4.084-0.782-3.396-2.699c1.118-3.114,8.358-5.215,15.035-4.708
	C116.133,60.058,126.112,65.297,126.791,69.94z"/>
<linearGradient id="SVGID_6_" gradientUnits="userSpaceOnUse" x1="100.5781" y1="88.7344" x2="100.5781" y2="76.6504">
	<stop  offset="0" style="stop-color:#4A4A4A"/>
	<stop  offset="1" style="stop-color:#2B2B2B"/>
</linearGradient>
<path fill="url(#SVGID_6_)" d="M90.005,88.734c-1.11,0-4.399-0.467-4.782-3.341c-0.513-3.843,5.222-9.218,15.371-8.71
	c8.539,0.427,15.37,4.782,15.37,8.197c0,2.392-2.676,4.498-6.062,3.331C97.899,84.076,96.58,88.734,90.005,88.734z"/>
</svg>
