<?xml version="1.0" encoding="utf-8"?>
<!-- Generator: Adobe Illustrator 16.0.4, SVG Export Plug-In . SVG Version: 6.00 Build 0)  -->
<!DOCTYPE svg PUBLIC "-//W3C//DTD SVG 1.1//EN" "http://www.w3.org/Graphics/SVG/1.1/DTD/svg11.dtd">
<svg version="1.1" id="Layer_1" xmlns="http://www.w3.org/2000/svg" xmlns:xlink="http://www.w3.org/1999/xlink" x="0px" y="0px"
	 width="152px" height="152px" viewBox="0 0 152 152" enable-background="new 0 0 152 152" xml:space="preserve">
<linearGradient id="SVGID_1_" gradientUnits="userSpaceOnUse" x1="76.0005" y1="152" x2="76.0005" y2="9.765625e-04">
	<stop  offset="0" style="stop-color:#FFCD02"/>
	<stop  offset="1" style="stop-color:#FFDB4C"/>
</linearGradient>
<circle fill="url(#SVGID_1_)" cx="76" cy="76" r="76"/>
<linearGradient id="SVGID_2_" gradientUnits="userSpaceOnUse" x1="-300.6128" y1="-197.1309" x2="-300.6128" y2="-216.2588" gradientTransform="matrix(-1 0 0 -1 -265.6016 -156.6543)">
	<stop  offset="0" style="stop-color:#4A4A4A"/>
	<stop  offset="1" style="stop-color:#2B2B2B"/>
</linearGradient>
<path fill="url(#SVGID_2_)" d="M51.193,41.822c-0.127-0.833-0.864-1.438-1.701-1.334c-1.152,0.146-7.934,7.151-17.925,11.009
	c-5.001,1.931-5.991,1.902-9.808,2.613c-2.669,0.497-3.677,1.932-2.46,3.552c1.976,2.631,9.509,2.517,15.744,0.09
	C43.882,54.312,51.896,46.43,51.193,41.822z"/>
<linearGradient id="SVGID_3_" gradientUnits="userSpaceOnUse" x1="48.8452" y1="105.2051" x2="48.8452" y2="64.8999">
	<stop  offset="0" style="stop-color:#4A4A4A"/>
	<stop  offset="1" style="stop-color:#2B2B2B"/>
</linearGradient>
<path fill="url(#SVGID_3_)" d="M37.177,105.205c-0.319,0-0.637-0.127-0.873-0.378c-0.452-0.481-0.191-1.346,0.054-1.69
	c3.495-4.889,15.505-13.758,15.505-18.369c0-4.867-15.709-12.888-20.481-17.683c-0.298-0.3-0.689-1.114-0.319-1.66
	c0.371-0.547,1.114-0.689,1.66-0.319c0.052,0.036,34.054,12.062,34.054,18.866c0,7.372-20.962,16.676-28.784,20.91
	C37.801,104.986,37.47,105.205,37.177,105.205z"/>
<linearGradient id="SVGID_4_" gradientUnits="userSpaceOnUse" x1="88.3867" y1="-197.1309" x2="88.3867" y2="-216.2588" gradientTransform="matrix(1 0 0 -1 28.6016 -156.6543)">
	<stop  offset="0" style="stop-color:#4A4A4A"/>
	<stop  offset="1" style="stop-color:#2B2B2B"/>
</linearGradient>
<path fill="url(#SVGID_4_)" d="M100.808,41.822c0.127-0.833,0.864-1.438,1.701-1.334c1.152,0.146,7.935,7.151,17.925,11.009
	c5.002,1.931,5.991,1.902,9.809,2.613c2.67,0.497,3.677,1.932,2.461,3.552c-1.976,2.631-9.51,2.517-15.744,0.09
	C108.119,54.312,100.104,46.43,100.808,41.822z"/>
<linearGradient id="SVGID_5_" gradientUnits="userSpaceOnUse" x1="-340.1548" y1="105.2061" x2="-340.1548" y2="64.8994" gradientTransform="matrix(-1 0 0 1 -237 0)">
	<stop  offset="0" style="stop-color:#4A4A4A"/>
	<stop  offset="1" style="stop-color:#2B2B2B"/>
</linearGradient>
<path fill="url(#SVGID_5_)" d="M114.824,105.205c0.318,0,0.637-0.127,0.872-0.378c0.451-0.481,0.191-1.346-0.055-1.69
	c-3.495-4.889-15.504-13.758-15.504-18.369c0-4.867,15.709-12.888,20.48-17.683c0.298-0.3,0.689-1.114,0.318-1.66
	c-0.37-0.547-1.113-0.689-1.66-0.319c-0.052,0.036-34.054,12.062-34.054,18.866c0,7.372,20.963,16.676,28.784,20.91
	C114.199,104.986,114.531,105.205,114.824,105.205z"/>
<linearGradient id="SVGID_6_" gradientUnits="userSpaceOnUse" x1="76" y1="103.1553" x2="76" y2="132.1895">
	<stop  offset="0" style="stop-color:#4A4A4A"/>
	<stop  offset="1" style="stop-color:#2B2B2B"/>
</linearGradient>
<path fill="url(#SVGID_6_)" d="M76,132.173c0.466,0,0.931-0.189,1.268-0.562l11.335-11.525c0.631-0.697,1.709-0.754,2.409-0.125
	l11.775,11.792c0.7,0.629,1.778,0.572,2.409-0.125l11.354-12.553c0.63-0.698,0.574-1.773-0.126-2.401l-5.241-4.891
	c-0.699-0.629-1.778-0.572-2.408,0.126l-3.229,3.549c-0.63,0.698-1.709,0.754-2.409,0.126l-12.123-11.991
	c-0.699-0.628-1.778-0.572-2.408,0.126l-11.331,11.739c-0.338,0.375-0.806,0.564-1.274,0.562c-0.468,0.002-0.936-0.188-1.274-0.562
	l-11.331-11.739c-0.631-0.698-1.709-0.754-2.409-0.126l-12.124,11.991c-0.7,0.628-1.778,0.572-2.409-0.126l-3.229-3.549
	c-0.63-0.698-1.708-0.755-2.409-0.126l-5.241,4.891c-0.7,0.628-0.756,1.703-0.126,2.401l11.355,12.553
	c0.63,0.697,1.708,0.754,2.409,0.125l11.775-11.792c0.7-0.629,1.779-0.572,2.409,0.125l11.335,11.525
	C75.069,131.983,75.534,132.173,76,132.173z"/>
</svg>
