<?xml version="1.0" encoding="utf-8"?>
<!-- Generator: Adobe Illustrator 16.0.4, SVG Export Plug-In . SVG Version: 6.00 Build 0)  -->
<!DOCTYPE svg PUBLIC "-//W3C//DTD SVG 1.1//EN" "http://www.w3.org/Graphics/SVG/1.1/DTD/svg11.dtd">
<svg version="1.1" id="Layer_1" xmlns="http://www.w3.org/2000/svg" xmlns:xlink="http://www.w3.org/1999/xlink" x="0px" y="0px"
	 width="152px" height="152px" viewBox="0 0 152 152" enable-background="new 0 0 152 152" xml:space="preserve">
<linearGradient id="SVGID_1_" gradientUnits="userSpaceOnUse" x1="76.0005" y1="152" x2="76.0005" y2="9.765625e-04">
	<stop  offset="0" style="stop-color:#FFCD02"/>
	<stop  offset="1" style="stop-color:#FFDB4C"/>
</linearGradient>
<circle fill="url(#SVGID_1_)" cx="76" cy="76" r="76"/>
<linearGradient id="SVGID_2_" gradientUnits="userSpaceOnUse" x1="42.355" y1="91.8838" x2="42.355" y2="76.0005">
	<stop  offset="0" style="stop-color:#4A4A4A"/>
	<stop  offset="1" style="stop-color:#2B2B2B"/>
</linearGradient>
<path fill="url(#SVGID_2_)" d="M59.092,84.142c0,4.276-3.488,7.742-7.791,7.742c-5.336,0-7.408-5.383-8.946-7.231
	c-2.383-2.864-16.737,1.34-16.737,1.106c0-0.191,5.964-6.126,13.612-8.337C52.034,73.719,59.092,77.705,59.092,84.142z"/>
<linearGradient id="SVGID_3_" gradientUnits="userSpaceOnUse" x1="77.9707" y1="102.0342" x2="77.9707" y2="125.5039">
	<stop  offset="0" style="stop-color:#4A4A4A"/>
	<stop  offset="1" style="stop-color:#2B2B2B"/>
</linearGradient>
<path fill-rule="evenodd" clip-rule="evenodd" fill="url(#SVGID_3_)" d="M54.481,125.357c-2.091-0.073-3.543-0.908-3.543-2.349
	c0-1.642,2-2.008,3.627-2.059c2.69-0.083,26.643-0.053,38.438-7.039c4.175-2.473,6.31-5.889,7.501-9.49
	c1.112-3.363,3.335-2.881,3.781-0.358c1.229,6.938,1.688,14.976-5.5,17.423C90.633,124.261,73.865,126.041,54.481,125.357z"/>
<linearGradient id="SVGID_4_" gradientUnits="userSpaceOnUse" x1="31.5952" y1="73.0967" x2="31.5952" y2="51.2363">
	<stop  offset="0" style="stop-color:#4A4A4A"/>
	<stop  offset="1" style="stop-color:#2B2B2B"/>
</linearGradient>
<path fill-rule="evenodd" clip-rule="evenodd" fill="url(#SVGID_4_)" d="M36.968,51.261c6.991-0.34,10.165,2.902,11.596,4.369
	c2.103,2.156,2.106,5.115-1.98,4.106c-3.306-0.815-6.433-3.596-15.294-1.672C20.901,60.318,14.516,73.73,13.733,73.073
	C11.259,70.996,17.873,52.19,36.968,51.261z"/>
<linearGradient id="SVGID_5_" gradientUnits="userSpaceOnUse" x1="120.4043" y1="73.0967" x2="120.4043" y2="51.2363">
	<stop  offset="0" style="stop-color:#4A4A4A"/>
	<stop  offset="1" style="stop-color:#2B2B2B"/>
</linearGradient>
<path fill-rule="evenodd" clip-rule="evenodd" fill="url(#SVGID_5_)" d="M115.032,51.261c-6.991-0.34-10.165,2.902-11.596,4.369
	c-2.104,2.156-2.106,5.115,1.98,4.106c3.306-0.815,6.432-3.596,15.294-1.672c10.388,2.254,16.773,15.666,17.557,15.009
	C140.741,70.996,134.127,52.19,115.032,51.261z"/>
<linearGradient id="SVGID_6_" gradientUnits="userSpaceOnUse" x1="109.6445" y1="91.8838" x2="109.6445" y2="76.0005">
	<stop  offset="0" style="stop-color:#4A4A4A"/>
	<stop  offset="1" style="stop-color:#2B2B2B"/>
</linearGradient>
<path fill="url(#SVGID_6_)" d="M126.382,84.142c0,4.276-3.487,7.742-7.79,7.742c-5.337,0-7.408-5.383-8.946-7.231
	c-2.384-2.864-16.737,1.34-16.737,1.106c0-0.191,5.964-6.126,13.612-8.337C119.323,73.719,126.382,77.705,126.382,84.142z"/>
</svg>
