<?xml version="1.0" encoding="utf-8"?>
<!-- Generator: Adobe Illustrator 16.0.4, SVG Export Plug-In . SVG Version: 6.00 Build 0)  -->
<!DOCTYPE svg PUBLIC "-//W3C//DTD SVG 1.1//EN" "http://www.w3.org/Graphics/SVG/1.1/DTD/svg11.dtd">
<svg version="1.1" id="Layer_1" xmlns="http://www.w3.org/2000/svg" xmlns:xlink="http://www.w3.org/1999/xlink" x="0px" y="0px"
	 width="158px" height="152px" viewBox="0 0 158 152" enable-background="new 0 0 158 152" xml:space="preserve">
<linearGradient id="SVGID_1_" gradientUnits="userSpaceOnUse" x1="76.0005" y1="152" x2="76.0005" y2="9.765625e-04">
	<stop  offset="0" style="stop-color:#FFCD02"/>
	<stop  offset="1" style="stop-color:#FFDB4C"/>
</linearGradient>
<circle fill="url(#SVGID_1_)" cx="76" cy="76" r="76"/>
<linearGradient id="SVGID_2_" gradientUnits="userSpaceOnUse" x1="3.8174" y1="99.709" x2="10.3677" y2="75.2628" gradientTransform="matrix(0.9659 -0.2588 0.2588 0.9659 11.0771 -35.3438)">
	<stop  offset="0" style="stop-color:#4A4A4A"/>
	<stop  offset="1" style="stop-color:#2B2B2B"/>
</linearGradient>
<path fill="url(#SVGID_2_)" d="M26.95,59.019c0.338,0.772,1.207,1.166,1.989,0.848c1.075-0.439,5.812-8.962,14.465-15.274
	c4.331-3.16,5.295-3.388,8.798-5.062c2.45-1.171,3.051-2.818,1.457-4.068c-2.589-2.031-9.836,0.03-15.23,3.987
	C30.78,45.062,25.078,54.75,26.95,59.019z"/>
<linearGradient id="SVGID_3_" gradientUnits="userSpaceOnUse" x1="55.1641" y1="84.458" x2="55.1641" y2="59.6938">
	<stop  offset="0" style="stop-color:#4A4A4A"/>
	<stop  offset="1" style="stop-color:#2B2B2B"/>
</linearGradient>
<ellipse fill="url(#SVGID_3_)" cx="55.164" cy="72.076" rx="8.369" ry="12.382"/>
<linearGradient id="SVGID_4_" gradientUnits="userSpaceOnUse" x1="-377.4727" y1="57.4551" x2="-381.1179" y2="45.5321" gradientTransform="matrix(-0.9563 0.2924 0.2924 0.9563 -268.6436 119.0508)">
	<stop  offset="0" style="stop-color:#4A4A4A"/>
	<stop  offset="1" style="stop-color:#2B2B2B"/>
</linearGradient>
<path fill="url(#SVGID_4_)" d="M126.791,61.832c0.123,0.84-0.404,1.639-1.236,1.784c-1.145,0.198-9.688-4.559-20.378-5.342
	c-5.351-0.392-6.29-0.073-10.149,0.363c-2.699,0.305-4.084-0.782-3.396-2.699c1.118-3.114,8.358-5.215,15.035-4.708
	C116.133,51.949,126.112,57.188,126.791,61.832z"/>
<linearGradient id="SVGID_5_" gradientUnits="userSpaceOnUse" x1="100.5781" y1="80.625" x2="100.5781" y2="68.5415">
	<stop  offset="0" style="stop-color:#4A4A4A"/>
	<stop  offset="1" style="stop-color:#2B2B2B"/>
</linearGradient>
<path fill="url(#SVGID_5_)" d="M90.005,80.625c-1.11,0-4.399-0.466-4.782-3.341c-0.513-3.842,5.222-9.217,15.37-8.71
	c8.54,0.427,15.371,4.782,15.371,8.198c0,2.391-2.676,4.497-6.062,3.33C97.898,75.967,96.58,80.625,90.005,80.625z"/>
<linearGradient id="SVGID_6_" gradientUnits="userSpaceOnUse" x1="74.9751" y1="112.7188" x2="97.5195" y2="112.7188">
	<stop  offset="0" style="stop-color:#4A4A4A"/>
	<stop  offset="1" style="stop-color:#2B2B2B"/>
</linearGradient>
<path fill="url(#SVGID_6_)" d="M74.975,130.699c0-1.071,15.542-3.78,15.542-7.66c0-4.222-12.126-6.846-12.126-10.098
	c0-3.479,12.126-7.017,12.126-9.926c0-4.507-15.542-7.274-15.542-8.34c0-0.945,22.544,0.866,22.544,8.34
	c0,5.305-12.297,7.587-12.297,9.926c0,2.054,12.297,4.393,12.297,10.098C97.52,130.798,74.975,131.601,74.975,130.699z"/>
<g>
	
		<radialGradient id="SVGID_7_" cx="443.833" cy="298.7598" r="133.0202" gradientTransform="matrix(-0.1708 0 0 -0.1366 210.0615 154.8638)" gradientUnits="userSpaceOnUse">
		<stop  offset="0" style="stop-color:#FF3A2D"/>
		<stop  offset="0.2894" style="stop-color:#FF3629"/>
		<stop  offset="0.6022" style="stop-color:#FF2B1C"/>
		<stop  offset="0.9249" style="stop-color:#FF1806"/>
		<stop  offset="1" style="stop-color:#FF1300"/>
	</radialGradient>
	<path fill="url(#SVGID_7_)" d="M157.502,114.109c-1.117,4.481-4.544,8.321-11.561,12.148c-9.951,5.426-17.759,9.629-18.562,9.429
		s-5.722-7.576-11.963-17.04c-4.396-6.672-5.622-11.672-4.505-16.152c2.276-9.13,10.051-11.07,15.527-9.705
		c4.328,1.08,8.333,5.472,9.134,10.034c2.853-3.651,8.448-5.649,12.774-4.571C153.825,99.618,159.778,104.979,157.502,114.109z"/>
</g>
</svg>
