<?xml version="1.0" encoding="utf-8"?>
<!-- Generator: Adobe Illustrator 16.0.4, SVG Export Plug-In . SVG Version: 6.00 Build 0)  -->
<!DOCTYPE svg PUBLIC "-//W3C//DTD SVG 1.1//EN" "http://www.w3.org/Graphics/SVG/1.1/DTD/svg11.dtd">
<svg version="1.1" id="Layer_1" xmlns="http://www.w3.org/2000/svg" xmlns:xlink="http://www.w3.org/1999/xlink" x="0px" y="0px"
	 width="152px" height="152px" viewBox="0 0 152 152" enable-background="new 0 0 152 152" xml:space="preserve">
<linearGradient id="SVGID_1_" gradientUnits="userSpaceOnUse" x1="76.0005" y1="152" x2="76.0005" y2="9.765625e-04">
	<stop  offset="0" style="stop-color:#FFCD02"/>
	<stop  offset="1" style="stop-color:#FFDB4C"/>
</linearGradient>
<circle fill="url(#SVGID_1_)" cx="76" cy="76" r="76"/>
<linearGradient id="SVGID_2_" gradientUnits="userSpaceOnUse" x1="54.9937" y1="99.9102" x2="54.9937" y2="75.8301">
	<stop  offset="0" style="stop-color:#4A4A4A"/>
	<stop  offset="1" style="stop-color:#2B2B2B"/>
</linearGradient>
<ellipse fill="url(#SVGID_2_)" cx="54.993" cy="87.87" rx="8.368" ry="12.04"/>
<linearGradient id="SVGID_3_" gradientUnits="userSpaceOnUse" x1="-292.7842" y1="76.98" x2="-292.7842" y2="57.8516" gradientTransform="matrix(-1 0 0 1 -243.2559 2.0947)">
	<stop  offset="0" style="stop-color:#4A4A4A"/>
	<stop  offset="1" style="stop-color:#2B2B2B"/>
</linearGradient>
<path fill="url(#SVGID_3_)" d="M65.709,77.725c-0.128,0.835-0.867,1.441-1.705,1.338c-1.153-0.144-7.929-7.153-17.92-11.003
	c-5.002-1.928-5.993-1.897-9.811-2.604c-2.67-0.494-3.676-1.93-2.457-3.555c1.98-2.64,9.519-2.536,15.754-0.114
	C58.411,65.222,66.42,73.107,65.709,77.725z"/>
<linearGradient id="SVGID_4_" gradientUnits="userSpaceOnUse" x1="-255.0068" y1="99.9111" x2="-255.0068" y2="75.8296" gradientTransform="matrix(-1 0 0 1 -158 0)">
	<stop  offset="0" style="stop-color:#4A4A4A"/>
	<stop  offset="1" style="stop-color:#2B2B2B"/>
</linearGradient>
<ellipse fill="url(#SVGID_4_)" cx="97.007" cy="87.87" rx="8.369" ry="12.04"/>
<linearGradient id="SVGID_5_" gradientUnits="userSpaceOnUse" x1="17.2163" y1="76.979" x2="17.2163" y2="57.8516" gradientTransform="matrix(1 0 0 1 85.2559 2.0947)">
	<stop  offset="0" style="stop-color:#4A4A4A"/>
	<stop  offset="1" style="stop-color:#2B2B2B"/>
</linearGradient>
<path fill="url(#SVGID_5_)" d="M86.291,77.725c0.129,0.835,0.867,1.441,1.705,1.338c1.152-0.144,7.929-7.153,17.92-11.003
	c5.002-1.928,5.992-1.897,9.812-2.604c2.67-0.494,3.675-1.93,2.456-3.555c-1.98-2.64-9.519-2.536-15.754-0.114
	C93.59,65.222,85.581,73.107,86.291,77.725z"/>
<linearGradient id="SVGID_6_" gradientUnits="userSpaceOnUse" x1="76.0005" y1="134.2764" x2="76.0005" y2="151.5254" gradientTransform="matrix(1 0 0 -1 0 261)">
	<stop  offset="0" style="stop-color:#4A4A4A"/>
	<stop  offset="1" style="stop-color:#2B2B2B"/>
</linearGradient>
<path fill="url(#SVGID_6_)" d="M76,109.475c8.997,0,17.65,6.169,20.438,15.465c0.295,0.984,0.173,1.364-0.763,1.695
	c-2.576,0.914-6.925-5.537-19.675-5.537l0,0c-12.75,0-17.099,6.451-19.674,5.537c-0.935-0.331-1.059-0.71-0.764-1.695
	C58.348,115.644,67.004,109.475,76,109.475L76,109.475z"/>
</svg>
