<!-- Copyright © 2014 Brian Speir. All rights reserved.  -->
<svg version="1.1" id="Layer_1" xmlns="http://www.w3.org/2000/svg" xmlns:xlink="http://www.w3.org/1999/xlink" x="0px" y="0px"
	 width="152px" height="152px" viewBox="0 0 152 152" enable-background="new 0 0 152 152" xml:space="preserve">
<linearGradient id="SVGID_1_" gradientUnits="userSpaceOnUse" x1="76.0005" y1="152" x2="76.0005" y2="9.765625e-04">
	<stop  offset="0" style="stop-color:#FFCD02"/>
	<stop  offset="1" style="stop-color:#FFDB4C"/>
</linearGradient>
<circle fill="url(#SVGID_1_)" cx="76" cy="76" r="76"/>
<linearGradient id="SVGID_2_" gradientUnits="userSpaceOnUse" x1="18.498" y1="124.5127" x2="25.5592" y2="99.8874" gradientTransform="matrix(0.9613 -0.2756 0.2756 0.9613 -12.1328 -45.7681)">
	<stop  offset="0" style="stop-color:#4A4A4A"/>
	<stop  offset="1" style="stop-color:#2B2B2B"/>
</linearGradient>
<path fill="url(#SVGID_2_)" d="M26.524,67.896c0.353,0.764,1.23,1.141,2.008,0.811c1.071-0.456,5.67-9.034,14.232-15.477
	c4.286-3.225,5.248-3.47,8.73-5.199c2.435-1.21,3.009-2.862,1.389-4.081c-2.631-1.979-9.859,0.201-15.197,4.24
	C30.119,53.917,24.573,63.674,26.524,67.896z"/>
<linearGradient id="SVGID_3_" gradientUnits="userSpaceOnUse" x1="54.9937" y1="59.6045" x2="54.9937" y2="84.3696">
	<stop  offset="0" style="stop-color:#4A4A4A"/>
	<stop  offset="1" style="stop-color:#2B2B2B"/>
</linearGradient>
<ellipse fill="url(#SVGID_3_)" cx="54.993" cy="71.987" rx="8.368" ry="12.382"/>
<linearGradient id="SVGID_4_" gradientUnits="userSpaceOnUse" x1="-333.3193" y1="23.6475" x2="-326.2581" y2="-0.9778" gradientTransform="matrix(-0.9613 -0.2756 -0.2756 0.9613 -201.8672 -45.7681)">
	<stop  offset="0" style="stop-color:#4A4A4A"/>
	<stop  offset="1" style="stop-color:#2B2B2B"/>
</linearGradient>
<path fill="url(#SVGID_4_)" d="M125.476,67.896c-0.353,0.764-1.229,1.141-2.008,0.811c-1.07-0.456-5.67-9.034-14.231-15.477
	c-4.286-3.225-5.248-3.47-8.73-5.199c-2.435-1.21-3.009-2.862-1.389-4.081c2.631-1.979,9.858,0.201,15.196,4.24
	C121.882,53.917,127.427,63.674,125.476,67.896z"/>
<linearGradient id="SVGID_5_" gradientUnits="userSpaceOnUse" x1="-311.0078" y1="59.605" x2="-311.0078" y2="84.3687" gradientTransform="matrix(-1 0 0 1 -214 0)">
	<stop  offset="0" style="stop-color:#4A4A4A"/>
	<stop  offset="1" style="stop-color:#2B2B2B"/>
</linearGradient>
<ellipse fill="url(#SVGID_5_)" cx="97.007" cy="71.987" rx="8.369" ry="12.382"/>
<linearGradient id="SVGID_6_" gradientUnits="userSpaceOnUse" x1="76.0005" y1="134.2764" x2="76.0005" y2="151.5254" gradientTransform="matrix(1 0 0 -1 0 261)">
	<stop  offset="0" style="stop-color:#4A4A4A"/>
	<stop  offset="1" style="stop-color:#2B2B2B"/>
</linearGradient>
<path fill="url(#SVGID_6_)" d="M76,109.475c8.997,0,17.65,6.169,20.438,15.465c0.295,0.984,0.173,1.364-0.763,1.695
	c-2.576,0.914-6.925-5.537-19.675-5.537l0,0c-12.75,0-17.099,6.451-19.674,5.537c-0.935-0.331-1.059-0.71-0.764-1.695
	C58.348,115.644,67.004,109.475,76,109.475L76,109.475z"/>
<linearGradient id="SVGID_7_" gradientUnits="userSpaceOnUse" x1="40.3491" y1="299.4199" x2="70.0044" y2="248.0555" gradientTransform="matrix(0.866 -0.5 0.5 0.866 -138.1816 -96.1382)">
	<stop  offset="0" style="stop-color:#1D77EF"/>
	<stop  offset="0.0869" style="stop-color:#2784F0"/>
	<stop  offset="0.5165" style="stop-color:#58C0F7"/>
	<stop  offset="0.833" style="stop-color:#76E5FB"/>
	<stop  offset="1" style="stop-color:#81F3FD"/>
</linearGradient>
<path fill="url(#SVGID_7_)" d="M46.364,83.676c0,0-17.627,31.775-17.625,41.57s7.942,17.737,17.735,17.739
	c9.793,0.002,17.73-7.938,17.729-17.732C64.201,115.458,46.364,83.676,46.364,83.676z"/>
</svg>
