<!-- Copyright © 2014 Brian Speir. All rights reserved.  -->
<svg version="1.1" id="Layer_1" xmlns="http://www.w3.org/2000/svg" xmlns:xlink="http://www.w3.org/1999/xlink" x="0px" y="0px"
	 width="152px" height="152px" viewBox="0 0 152 152" enable-background="new 0 0 152 152" xml:space="preserve">
<linearGradient id="SVGID_1_" gradientUnits="userSpaceOnUse" x1="76.0005" y1="152" x2="76.0005" y2="9.765625e-04">
	<stop  offset="0" style="stop-color:#FFCD02"/>
	<stop  offset="1" style="stop-color:#FFDB4C"/>
</linearGradient>
<circle fill="url(#SVGID_1_)" cx="76" cy="76" r="76"/>
<linearGradient id="SVGID_2_" gradientUnits="userSpaceOnUse" x1="101.96" y1="75.1465" x2="101.96" y2="49.1865">
	<stop  offset="0" style="stop-color:#4A4A4A"/>
	<stop  offset="1" style="stop-color:#2B2B2B"/>
</linearGradient>
<path fill="url(#SVGID_2_)" d="M101.96,65.293c-3.881,0-7.229,3.567-8.866,8.754c-0.257,0.816-0.99,1.099-1.487,1.099
	c-1.107,0-1.478-0.954-1.54-1.33c-0.267-1.593-0.403-3.268-0.403-4.995c0-10.843,5.506-19.635,12.297-19.635
	c6.79,0,12.297,8.792,12.297,19.635c0,1.727-0.137,3.402-0.403,4.995c-0.063,0.376-0.434,1.33-1.54,1.33
	c-0.498,0-1.23-0.282-1.488-1.099C109.189,68.861,105.84,65.293,101.96,65.293z"/>
<linearGradient id="SVGID_3_" gradientUnits="userSpaceOnUse" x1="50.0405" y1="75.1465" x2="50.0405" y2="49.1865">
	<stop  offset="0" style="stop-color:#4A4A4A"/>
	<stop  offset="1" style="stop-color:#2B2B2B"/>
</linearGradient>
<path fill="url(#SVGID_3_)" d="M50.041,65.293c-3.88,0-7.229,3.567-8.865,8.754c-0.258,0.816-0.991,1.099-1.488,1.099
	c-1.107,0-1.478-0.954-1.541-1.33c-0.267-1.593-0.403-3.268-0.403-4.995c0-10.843,5.506-19.635,12.296-19.635
	s12.297,8.792,12.297,19.635c0,1.727-0.136,3.402-0.403,4.995c-0.063,0.376-0.433,1.33-1.54,1.33c-0.498,0-1.23-0.282-1.488-1.099
	C57.27,68.861,53.921,65.293,50.041,65.293z"/>
<path fill="#FF4981" d="M143.773,125.773c-5.763,7.3-16.007,8.892-23.311,3.13l-0.064-0.051l-15.91-12.553
	c0.297-0.233,0.592-0.473,0.885-0.718c8.784-7.358,15.052-16.501,17.621-27.583l18.331,14.464
	C148.625,108.226,149.533,118.472,143.773,125.773z"/>
<path fill="#FFD3E0" d="M116.923,103.729c0.297,0.189,0.652,0.425,1.057,0.7c0.404,0.273,0.855,0.59,1.341,0.942
	c0.486,0.351,1.008,0.738,1.552,1.156c0.547,0.416,1.112,0.867,1.688,1.344c0.572,0.481,1.152,0.994,1.736,1.521
	c0.585,0.525,1.18,1.058,1.781,1.583c1.203,1.051,2.409,2.097,3.529,3.09c0.561,0.496,1.103,0.976,1.617,1.431
	c0.512,0.456,0.996,0.889,1.443,1.287c0.894,0.798,1.639,1.463,2.159,1.929c0.52,0.469,0.815,0.736,0.815,0.736l-0.076,0.092
	c0,0-0.317-0.242-0.874-0.665c-0.554-0.426-1.346-1.034-2.296-1.765c-0.475-0.365-0.988-0.761-1.532-1.18
	c-0.542-0.421-1.114-0.865-1.705-1.324c-1.185-0.916-2.436-1.908-3.691-2.895c-0.627-0.494-1.261-0.98-1.886-1.457
	c-0.626-0.477-1.237-0.951-1.816-1.425c-0.576-0.478-1.124-0.95-1.634-1.409c-0.512-0.458-0.989-0.898-1.424-1.312
	c-0.437-0.412-0.83-0.796-1.175-1.143s-0.643-0.651-0.884-0.908C116.167,103.547,116.331,103.349,116.923,103.729z"/>
<linearGradient id="SVGID_4_" gradientUnits="userSpaceOnUse" x1="76.0005" y1="127.2363" x2="76.0005" y2="85.1367">
	<stop  offset="0" style="stop-color:#4A4A4A"/>
	<stop  offset="1" style="stop-color:#2B2B2B"/>
</linearGradient>
<path fill="url(#SVGID_4_)" d="M76,127.236c-6.022,0-11.932-0.835-17.563-2.818c-5.443-1.917-10.513-4.192-15.069-7.772
	c-9.099-7.15-15.69-16.201-18.559-27.348c-0.458-1.781,0.614-3.597,2.395-4.056c1.781-0.458,3.597,0.614,4.055,2.396
	c2.507,9.738,8.269,19.397,16.224,25.649c8.201,6.444,18.062,10.362,28.518,10.362c10.456,0,20.317-3.918,28.518-10.362
	c7.956-6.252,13.718-15.911,16.225-25.649c0.458-1.781,2.274-2.854,4.056-2.396c1.781,0.459,2.854,2.274,2.395,4.056
	c-2.869,11.146-9.46,20.197-18.56,27.348c-4.556,3.58-9.626,5.855-15.069,7.772C87.933,126.401,82.023,127.236,76,127.236z"/>
</svg>
