<?xml version="1.0" encoding="utf-8"?>
<!-- Copyright (C) 2014 Brian Speir. All rights reserved. -->
<!DOCTYPE svg PUBLIC "-//W3C//DTD SVG 1.1//EN" "http://www.w3.org/Graphics/SVG/1.1/DTD/svg11.dtd">
<svg version="1.1" id="Layer_1" xmlns="http://www.w3.org/2000/svg" xmlns:xlink="http://www.w3.org/1999/xlink" x="0px" y="0px"
	 width="435px" height="435px" viewBox="0 0 435 435" enable-background="new 0 0 435 435" xml:space="preserve">
<linearGradient id="SVGID_1_" gradientUnits="userSpaceOnUse" x1="439.5" y1="774" x2="439.5" y2="339" gradientTransform="matrix(1 0 0 1 -222 -339)">
	<stop  offset="0" style="stop-color:#F0523E"/>
	<stop  offset="1" style="stop-color:#F78F21"/>
</linearGradient>
<rect fill="url(#SVGID_1_)" width="435" height="435"/>
<path id="Mask" fill="#FFFFFF" d="M0,0v435h435V0H0z M431.25,286.601c0,48.975,0,62.706-7.09,83.792
	c-9.104,24.922-28.85,44.664-53.773,53.769c-21.08,7.09-34.82,7.09-83.785,7.09c-138.202,0-138.202,0-138.202,0
	c-48.968,0-62.708,0-83.791-7.09c-24.922-9.104-44.667-28.851-53.771-53.774C3.75,349.308,3.75,335.568,3.75,286.602
	c0-138.2,0-138.2,0-138.2c0-48.975,0-62.706,7.092-83.792c9.104-24.921,28.848-44.664,53.771-53.769
	c21.083-7.09,34.823-7.09,83.787-7.09h138.202c48.965,0,62.705,0,83.791,7.09c24.922,9.104,44.664,28.851,53.769,53.774
	c7.09,21.079,7.09,34.818,7.09,83.785C431.25,286.601,431.25,286.601,431.25,286.601z"/>
<g id="Outline_2_">
	<path fill="#DDDDDD" d="M286.604,3.75c48.963,0,62.703,0,83.789,7.09c24.922,9.111,44.664,28.851,53.769,53.774
		c7.09,21.079,7.09,34.818,7.09,83.782c0,138.199,0,138.199,0,138.199c0,48.971,0,62.71-7.09,83.789
		c-9.111,24.925-28.851,44.663-53.774,53.774c-21.078,7.09-34.818,7.09-83.781,7.09c-138.206,0-138.206,0-138.206,0
		c-48.964,0-62.704,0-83.787-7.09c-24.922-9.111-44.663-28.851-53.771-53.774C3.75,349.306,3.75,335.566,3.75,286.6
		c0-138.2,0-138.2,0-138.2c0-48.967,0-62.706,7.092-83.785C19.949,39.689,39.69,19.951,64.613,10.84
		c21.083-7.09,34.823-7.09,83.782-7.09H286.604 M286.604,0H148.394C99.758,0,85.08,0,63.417,7.28
		c-26.161,9.564-46.571,29.978-56.1,56.041C0,85.078,0,99.763,0,148.396v138.199c0,48.641,0,63.317,7.286,84.986
		c9.56,26.159,29.971,46.571,56.038,56.101c21.757,7.316,36.438,7.316,85.071,7.316h138.207c48.635,0,63.312,0,84.979-7.28
		c26.162-9.564,46.57-29.978,56.1-56.041C435,349.921,435,335.236,435,286.6V148.396c0-48.642,0-63.318-7.287-84.983
		c-9.559-26.155-29.971-46.571-56.038-56.101C349.922,0,335.236,0,286.604,0L286.604,0z"/>
</g>
</svg>
