<?xml version="1.0" encoding="utf-8"?>
<!-- Copyright © 2014 Brian Speir. All rights reserved.  -->
<!DOCTYPE svg PUBLIC "-//W3C//DTD SVG 1.1//EN" "http://www.w3.org/Graphics/SVG/1.1/DTD/svg11.dtd">
<svg version="1.1" id="Layer_1" xmlns="http://www.w3.org/2000/svg" xmlns:xlink="http://www.w3.org/1999/xlink" x="0px" y="0px"
	 width="774px" height="366px" viewBox="0 0 774 366" enable-background="new 0 0 774 366" xml:space="preserve">
<metadata><?xpacket begin="﻿" id="W5M0MpCehiHzreSzNTczkc9d"?>
<x:xmpmeta xmlns:x="adobe:ns:meta/" x:xmptk="Adobe XMP Core 5.3-c011 66.145661, 2012/02/06-14:56:27        ">
   <rdf:RDF xmlns:rdf="http://www.w3.org/1999/02/22-rdf-syntax-ns#">
      <rdf:Description rdf:about=""
            xmlns:dc="http://purl.org/dc/elements/1.1/">
         <dc:format>image/svg+xml</dc:format>
         <dc:title>
            <rdf:Alt>
               <rdf:li xml:lang="x-default">Web</rdf:li>
            </rdf:Alt>
         </dc:title>
      </rdf:Description>
      <rdf:Description rdf:about=""
            xmlns:xmp="http://ns.adobe.com/xap/1.0/"
            xmlns:xmpGImg="http://ns.adobe.com/xap/1.0/g/img/">
         <xmp:CreatorTool>Adobe Illustrator CS6 (Macintosh)</xmp:CreatorTool>
         <xmp:CreateDate>2014-03-27T14:42:27-07:00</xmp:CreateDate>
         <xmp:ModifyDate>2014-03-27T14:42:27-07:00</xmp:ModifyDate>
         <xmp:MetadataDate>2014-03-27T14:42:27-07:00</xmp:MetadataDate>
         <xmp:Thumbnails>
            <rdf:Alt>
               <rdf:li rdf:parseType="Resource">
                  <xmpGImg:width>256</xmpGImg:width>
                  <xmpGImg:height>124</xmpGImg:height>
                  <xmpGImg:format>JPEG</xmpGImg:format>
                  <xmpGImg:image>/9j/4AAQSkZJRgABAgEASABIAAD/7QAsUGhvdG9zaG9wIDMuMAA4QklNA+0AAAAAABAASAAAAAEA&#xA;AQBIAAAAAQAB/+4ADkFkb2JlAGTAAAAAAf/bAIQABgQEBAUEBgUFBgkGBQYJCwgGBggLDAoKCwoK&#xA;DBAMDAwMDAwQDA4PEA8ODBMTFBQTExwbGxscHx8fHx8fHx8fHwEHBwcNDA0YEBAYGhURFRofHx8f&#xA;Hx8fHx8fHx8fHx8fHx8fHx8fHx8fHx8fHx8fHx8fHx8fHx8fHx8fHx8fHx8f/8AAEQgAfAEAAwER&#xA;AAIRAQMRAf/EAaIAAAAHAQEBAQEAAAAAAAAAAAQFAwIGAQAHCAkKCwEAAgIDAQEBAQEAAAAAAAAA&#xA;AQACAwQFBgcICQoLEAACAQMDAgQCBgcDBAIGAnMBAgMRBAAFIRIxQVEGE2EicYEUMpGhBxWxQiPB&#xA;UtHhMxZi8CRygvElQzRTkqKyY3PCNUQnk6OzNhdUZHTD0uIIJoMJChgZhJRFRqS0VtNVKBry4/PE&#xA;1OT0ZXWFlaW1xdXl9WZ2hpamtsbW5vY3R1dnd4eXp7fH1+f3OEhYaHiImKi4yNjo+Ck5SVlpeYmZ&#xA;qbnJ2en5KjpKWmp6ipqqusra6voRAAICAQIDBQUEBQYECAMDbQEAAhEDBCESMUEFURNhIgZxgZEy&#xA;obHwFMHR4SNCFVJicvEzJDRDghaSUyWiY7LCB3PSNeJEgxdUkwgJChgZJjZFGidkdFU38qOzwygp&#xA;0+PzhJSktMTU5PRldYWVpbXF1eX1RlZmdoaWprbG1ub2R1dnd4eXp7fH1+f3OEhYaHiImKi4yNjo&#xA;+DlJWWl5iZmpucnZ6fkqOkpaanqKmqq6ytrq+v/aAAwDAQACEQMRAD8A9G+ZfMraY1vYWFv9f12/&#xA;5CwsA3BeKfbmmff04o67nv0G+KoCLyM2oAT+atQm1a4bc2cbvbWEZP7KQRsvMDpylLE+2KouP8vP&#xA;IUa8V8uaaR/lWkDH72UnFV3+AfIn/UuaX/0hW/8AzRirHbiT8kbe5mtprHRlnt5HhmT6jESskbFX&#xA;U0i6hhTFVn1v8jP+WLRv+kCP/qlirvrf5Gf8sWjf9IEf/VLFXfW/yM/5YtG/6QI/+qWKu+t/kZ/y&#xA;xaN/0gR/9UsVd9b/ACM/5YtG/wCkCP8A6pYq763+Rn/LFo3/AEgR/wDVLFXfW/yM/wCWLRv+kCP/&#xA;AKpYq763+Rn/ACxaN/0gR/8AVLFXfW/yM/5YtG/6QI/+qWKu+t/kZ/yxaN/0gR/9UsVd9b/Iz/li&#xA;0b/pAj/6pYq763+Rn/LFo3/SBH/1SxV31v8AIz/li0b/AKQI/wDqlirvrf5Gf8sWjf8ASBH/ANUs&#xA;Vd9b/Iz/AJYtG/6QI/8Aqlirvrf5Gf8ALFo3/SBH/wBUsVd9b/Iz/li0b/pAj/6pYq763+Rn/LFo&#xA;3/SBH/1SxV31v8jP+WLRv+kCP/qlirvrf5Gf8sWjf9IEf/VLFXfW/wAjP+WLRv8ApAj/AOqWKu+t&#xA;/kZ/yxaN/wBIEf8A1SxVfbyfkjcXMNtDY6M09xIkMKfUYgWkkYKiisXUsaYqyL/APkT/AKlzS/8A&#xA;pCt/+aMVWyfl55CkXi3lzTQP8m0gU/eqg4qhJfIzaeDP5V1CbSbhdxZyO9zYSEfsvBIzcAenKIqR&#xA;74qj/LXmVtTa4sL+3+oa7YcRf2BbmvF/sTQvt6kUlNj26HfFUB5GiGoNqHmqccrjVpnjsydzHYWz&#xA;tHAi+AfiZWp1Le2KsrxV2KuxVjXkH/jm6n/22dW/6j5sVZLirsVdirsVdirsVdirsVdirsVdirsV&#xA;dirsVdirsVdirsVdirsVdirsVY15+/45umf9tnSf+o+HFWS4q7FXYqxTzzENPbT/ADVAONxpMyR3&#xA;hGxksLl1jnRvEJyEq16FffFUX+Xkax+QvLir0Om2jfS0CsfxOKsgxV2KuxVjXkH/AI5up/8AbZ1b&#xA;/qPmxVkuKuxV2KuxV2KuxV2KuxV2KuxV2KuxV2KuxV2KuxV2KuxV2KuxV2KuxVjXn7/jm6Z/22dJ&#xA;/wCo+HFWS4q7FXYqx/8AMONZPIXmNW6DTbtvpWBmH4jFV3kH/lBPLn/bLsv+odMVT7FXYq7FWNeQ&#xA;f+Obqf8A22dW/wCo+bFWS4q7FXYq7FXYq7FXYq7FXYq7FXYq7FXYq7FXYq7FXYq7FXYq7FXYq7FW&#xA;Nefv+Obpn/bZ0n/qPhxVkuKuxV2KpD5+/wCUE8x/9su9/wCod8Vd5B/5QTy5/wBsuy/6h0xVPsVd&#xA;irsVY15B/wCObqf/AG2dW/6j5sVZLirsVdirsVdirsVdirsVdirsVdirsVdirsVdirsVdirsVdir&#xA;sVdirsVY15+/45umf9tnSf8AqPhxVkuKuxV2KpD5+/5QTzH/ANsu9/6h3xV3kH/lBPLn/bLsv+od&#xA;MVT7FXYq7FWNeQf+Obqf/bZ1b/qPmxVkuKuxV2KuxV2KuxV2KuxV2KuxV2KuxV2KuxV2KuxV2Kux&#xA;V2KuxV2KuxVjXn7/AI5umf8AbZ0n/qPhxVkuKuxV2KpD5+/5QTzH/wBsu9/6h3xV3kH/AJQTy5/2&#xA;y7L/AKh0xVSjvta1+WU6XcDTdGjdol1EIstxcMh4u1usgaJIwQQHdW5dl40Yqq0nl/V41D2XmC8W&#xA;dBsLlLeeFyP9+II43p/qOpxVX0XWZ7mefTtQiW21ezCtPEhLRSRvUJPCzAFkbiRvurAg9iVUB5B/&#xA;45up/wDbZ1b/AKj5sVZLirsVdirsVdirsVdirsVdirsVdirsVdirsVdirsVdirsVdirsVdirsVY1&#xA;5+/45umf9tnSf+o+HFWS4qkXk7Xb3WdMe4vEjSZWjP7nkF4T28V0goxJqi3AQnuRXatAqnuKpD5+&#xA;/wCUE8x/9su9/wCod8VSmwurm0/Ji3urUkXVv5cSWAjciRLEMtPpGKst0+0tbOwtrS0AW1t4kit1&#xA;XoI0UKtKewxVXxVIdXUR+atAnjH76X63bSEdTA0PrGvsJIU/zOKqHkH/AI5up/8AbZ1b/qPmxVku&#xA;KuxV2KuxV2KuxV2KuxV2KuxV2KuxV2KuxV2KuxV2KuxV2KuxV2KuxVjXn7/jm6Z/22dJ/wCo+HFW&#xA;S4qxL8tf+OLL/wBGX/dKs8VW6P5i1i58wJazShy891HdaaLd0NpDCW9CYzH7XqcU67NzquwxVMfP&#xA;3/KCeY/+2Xe/9Q74qt8ixRy+QPL0Uqh45NJs1dDuCptkBBxVC6dq3+GYU0jXWMNjbfu9O1l6mB4F&#xA;2jS4k6RSovwkvs9OQNSQFUzufN/le3iWR9Utn5isUcUizSSbVpHHGWdz7KDiqho9vfahqr69qEDW&#xA;irEbbSrKT+8SGQq8sswBIWSVkX4f2VUdyQFVDyD/AMc3U/8Ats6t/wBR82KslxV2KuxV2KuxV2Ku&#xA;xV2KuxV2KuxV2KuxV2KuxV2KuxV2KuxV2KuxV2Ksa8/f8c3TP+2zpP8A1Hw4qyXFWLfl1bXUGiP9&#xA;Ygkt2c26hJkaN6wWNtbyVVgDtLC496VGxBxVlOKpD5+/5QTzH/2y73/qHfFXeQf+UE8uf9suy/6h&#xA;0xVPuuKqMFlZwMzQQRxM/wBpkRVJrTrQe2Kq2Ksa8g/8c3U/+2zq3/UfNirJcVdirsVdirsVdirs&#xA;VdirsVdirsVdirsVdirsVdirsVdirsVdirsVdirGvP3/ABzdM/7bOk/9R8OKslxV2KuxVIfP3/KC&#xA;eY/+2Xe/9Q74q7yD/wAoJ5c/7Zdl/wBQ6Yqn2KuxV2Ksa8g/8c3U/wDts6t/1HzYqyXFXYq7FXYq&#xA;7FXYq7FXYq7FXYq7FXYq7FXYq7FXYq7FXYq7FXYq7FXYqxrz9/xzdM/7bOk/9R8OKslxV2KuxVIf&#xA;P3/KCeY/+2Xe/wDUO+Ku8g/8oJ5c/wC2XZf9Q6Yqn2KuxV2Ksa8g/wDHN1P/ALbOrf8AUfNirJcV&#xA;dirsVdirsVdirsVdirsVdirsVdirsVdirsVdirsVdirsVdirsVdirGvP3/HN0z/ts6T/ANR8OKsl&#xA;xV2KuxVIfP3/ACgnmP8A7Zd7/wBQ74q1+Xzq/kPy4VNQNMsxX3WBAfxGKp/irsVdirGvIP8AxzdT&#xA;/wC2zq3/AFHzYqyXFXYq7FXYq7FXYq7FXYq7FXYq7FXYq7FXYq7FXYq7FXYq7FXYq7FXYqxrz9/x&#xA;zdM/7bOk/wDUfDirJcVdirsVSD8wXVPIfmMsaA6ZeCvu0DgficVQn5eyC20268uy/DdeX7h7Tgep&#xA;tmYyWkgH8rQso+YOKsqxV2KuxVjXkH/jm6n/ANtnVv8AqPmxVkuKuxV2KuxV2KuxV2KuxV2KuxV2&#xA;KuxV2KuxV2KuxV2KuxV2KuxV2KuxVjXn7/jm6Z/22dJ/6j4cVZLirsVdirFfzCkFzptr5di+K68w&#xA;XCWnAdRbKwku5CP5VhVh8yMVRHmLQdQa+i1/QnSPXLWMxNDKSsF3b15GCYipUg7xv+yfYnFWtN8+&#xA;aHcTCy1FjourD+807UKQvUdfScn05l8GjY4qyJHR1DIwZT0YGoP3Yq3irGf8A2CzXElvqWqWq3U8&#xA;t1JDb3kkcYknkMkhVBsKsxOKt/4Gh/6ves/9J8uKu/wND/1e9Z/6T5cVd/gaH/q96z/0ny4q7/A0&#xA;P/V71n/pPlxV3+Bof+r3rP8A0ny4q7/A0P8A1e9Z/wCk+XFXf4Gh/wCr3rP/AEny4q7/AAND/wBX&#xA;vWf+k+XFXf4Gh/6ves/9J8uKu/wND/1e9Z/6T5cVd/gaH/q96z/0ny4q7/A0P/V71n/pPlxV3+Bo&#xA;f+r3rP8A0ny4q7/A0P8A1e9Z/wCk+XFXf4Gh/wCr3rP/AEny4q7/AAND/wBXvWf+k+XFXf4Gh/6v&#xA;es/9J8uKu/wND/1e9Z/6T5cVd/gaH/q96z/0ny4q7/A0P/V71n/pPlxV3+Bof+r3rP8A0ny4q7/A&#xA;0P8A1e9Z/wCk+XFWv8A2DTW8lxqWqXS2s8V1HDcXkkkZkgkEkZZDsaMoOKsmxVp3RFLOwVR1YmgH&#xA;34qx3UvPmh28xstOY61qx/u9O0+kz1PT1XB9OFfFpGGKt+XdB1Bb6XX9ddJNcuoxEsMRLQWlvXkI&#xA;ISaFiTvI/wC0fYDFWRYql+t/oD6kf059U+pV3+ven6Vf+evw4qweX/oX/wBRuX+H+Vd+P1fj9HH4&#xA;fuxVZ/1j7/2of+SOKu/6x9/7UP8AyRxV3/WPv/ah/wCSOKu/6x9/7UP/ACRxV3/WPv8A2of+SOKu&#xA;/wCsff8AtQ/8kcVd/wBY+/8Aah/5I4q7/rH3/tQ/8kcVd/1j7/2of+SOKu/6x9/7UP8AyRxV3/WP&#xA;v/ah/wCSOKu/6x9/7UP/ACRxV3/WPv8A2of+SOKu/wCsff8AtQ/8kcVd/wBY+/8Aah/5I4q7/rH3&#xA;/tQ/8kcVd/1j7/2of+SOKu/6x9/7UP8AyRxV3/WPv/ah/wCSOKu/6x9/7UP/ACRxV3/WPv8A2of+&#xA;SOKu/wCsff8AtQ/8kcVd/wBY+/8Aah/5I4q7/rH3/tQ/8kcVd/1j7/2of+SOKu/6x9/7UP8AyRxV&#xA;fF/0L/6i8f8AD/Ku3L6vx+nl8P34qzjRP0B9SH6D+qfUq7fUfT9Kv/PL4cVTDFX/2Q==</xmpGImg:image>
               </rdf:li>
            </rdf:Alt>
         </xmp:Thumbnails>
      </rdf:Description>
      <rdf:Description rdf:about=""
            xmlns:xmpMM="http://ns.adobe.com/xap/1.0/mm/"
            xmlns:stRef="http://ns.adobe.com/xap/1.0/sType/ResourceRef#"
            xmlns:stEvt="http://ns.adobe.com/xap/1.0/sType/ResourceEvent#">
         <xmpMM:RenditionClass>proof:pdf</xmpMM:RenditionClass>
         <xmpMM:OriginalDocumentID>uuid:65E6390686CF11DBA6E2D887CEACB407</xmpMM:OriginalDocumentID>
         <xmpMM:DocumentID>xmp.did:D53D4905A5216811822AC21D10F3504F</xmpMM:DocumentID>
         <xmpMM:InstanceID>xmp.iid:D53D4905A5216811822AC21D10F3504F</xmpMM:InstanceID>
         <xmpMM:DerivedFrom rdf:parseType="Resource">
            <stRef:instanceID>xmp.iid:0180117407206811822AD23EA7250672</stRef:instanceID>
            <stRef:documentID>xmp.did:0180117407206811822AD23EA7250672</stRef:documentID>
            <stRef:originalDocumentID>uuid:65E6390686CF11DBA6E2D887CEACB407</stRef:originalDocumentID>
            <stRef:renditionClass>proof:pdf</stRef:renditionClass>
         </xmpMM:DerivedFrom>
         <xmpMM:History>
            <rdf:Seq>
               <rdf:li rdf:parseType="Resource">
                  <stEvt:action>saved</stEvt:action>
                  <stEvt:instanceID>xmp.iid:0180117407206811822AD23EA7250672</stEvt:instanceID>
                  <stEvt:when>2014-03-09T12:37:30-07:00</stEvt:when>
                  <stEvt:softwareAgent>Adobe Illustrator CS6 (Macintosh)</stEvt:softwareAgent>
                  <stEvt:changed>/</stEvt:changed>
               </rdf:li>
               <rdf:li rdf:parseType="Resource">
                  <stEvt:action>saved</stEvt:action>
                  <stEvt:instanceID>xmp.iid:D53D4905A5216811822AC21D10F3504F</stEvt:instanceID>
                  <stEvt:when>2014-03-27T14:42:27-07:00</stEvt:when>
                  <stEvt:softwareAgent>Adobe Illustrator CS6 (Macintosh)</stEvt:softwareAgent>
                  <stEvt:changed>/</stEvt:changed>
               </rdf:li>
            </rdf:Seq>
         </xmpMM:History>
      </rdf:Description>
      <rdf:Description rdf:about=""
            xmlns:illustrator="http://ns.adobe.com/illustrator/1.0/">
         <illustrator:StartupProfile>Web</illustrator:StartupProfile>
      </rdf:Description>
      <rdf:Description rdf:about=""
            xmlns:xmpTPg="http://ns.adobe.com/xap/1.0/t/pg/"
            xmlns:stDim="http://ns.adobe.com/xap/1.0/sType/Dimensions#"
            xmlns:xmpG="http://ns.adobe.com/xap/1.0/g/">
         <xmpTPg:NPages>1</xmpTPg:NPages>
         <xmpTPg:HasVisibleTransparency>False</xmpTPg:HasVisibleTransparency>
         <xmpTPg:HasVisibleOverprint>False</xmpTPg:HasVisibleOverprint>
         <xmpTPg:MaxPageSize rdf:parseType="Resource">
            <stDim:w>774.000000</stDim:w>
            <stDim:h>366.000000</stDim:h>
            <stDim:unit>Points</stDim:unit>
         </xmpTPg:MaxPageSize>
         <xmpTPg:PlateNames>
            <rdf:Seq>
               <rdf:li>Cyan</rdf:li>
               <rdf:li>Magenta</rdf:li>
               <rdf:li>Yellow</rdf:li>
               <rdf:li>Black</rdf:li>
            </rdf:Seq>
         </xmpTPg:PlateNames>
         <xmpTPg:SwatchGroups>
            <rdf:Seq>
               <rdf:li rdf:parseType="Resource">
                  <xmpG:groupName>Default Swatch Group</xmpG:groupName>
                  <xmpG:groupType>0</xmpG:groupType>
               </rdf:li>
            </rdf:Seq>
         </xmpTPg:SwatchGroups>
      </rdf:Description>
      <rdf:Description rdf:about=""
            xmlns:pdf="http://ns.adobe.com/pdf/1.3/">
         <pdf:Producer>Adobe PDF library 10.01</pdf:Producer>
      </rdf:Description>
   </rdf:RDF>
</x:xmpmeta>





















<?xpacket end="w"?>
	</metadata>
<g id="Body">
	<g>
		<path fill="#FFFFFF" d="M1.5,57.178C1.5,26.477,26.484,1.5,57.195,1.5h659.613c30.709,0,55.691,24.977,55.691,55.678v251.65
			c0,30.697-24.982,55.672-55.691,55.672H57.195C26.484,364.5,1.5,339.525,1.5,308.828V57.178z M101.5,21.5v323h571v-323H101.5z"/>
	</g>
	<g>
		<path fill="#4B4B4B" d="M771,308.828c0,29.87-24.311,54.172-54.191,54.172H57.195C27.312,363,3,338.698,3,308.828V57.178
			C3,27.304,27.312,3,57.195,3h659.613C746.689,3,771,27.304,771,57.178V308.828 M100,20v3v320v3h3h568h3v-3V23v-3h-3H103H100
			 M774,308.828V57.178C774,25.601,748.393,0,716.809,0H57.195C25.609,0,0,25.601,0,57.178v251.65C0,340.398,25.609,366,57.195,366
			h659.613C748.393,366,774,340.398,774,308.828L774,308.828z M103,23h568v320H103V23L103,23z"/>
	</g>
</g>
<g id="Home_Button_2_">
	<g id="Button">
		<path fill="#4B4B4B" d="M55.5,152.5c17.645,0,32,14.355,32,32c0,17.645-14.355,32-32,32s-32-14.355-32-32
			C23.5,166.855,37.855,152.5,55.5,152.5 M55.5,150.5c-18.779,0-34,15.227-34,34c0,18.777,15.221,34,34,34c18.781,0,34-15.223,34-34
			C89.5,165.727,74.281,150.5,55.5,150.5L55.5,150.5z"/>
	</g>
	<path id="Icon" display="none" fill="#AAAAAA" d="M66.5,188.4c0,2.303-0.104,3.339-0.438,4.373
		c-0.382,0.966-1.221,1.843-2.062,2.156c-1.199,0.359-2.363,0.568-4.681,0.568h-8.113c-2.28,0-3.396-0.2-4.624-0.568
		c-0.805-0.302-1.483-1.035-1.87-2.025c-0.178-0.564-0.214-1.217-0.214-2.144c0-0.301,0.004-0.62,0.008-0.969
		c0.005-0.425,0.011-0.886,0.011-1.396V180.6c0-0.512-0.006-0.972-0.011-1.391c-0.004-0.336-0.008-0.646-0.008-0.934
		c0-1.026,0.055-1.554,0.213-2.056c0.399-1.023,1.151-1.858,1.933-2.145c1.078-0.327,2.117-0.575,4.562-0.575h8.113
		c2.282,0,3.396,0.202,4.629,0.575c0.92,0.332,1.761,1.137,2.112,2.022c0.331,1.028,0.438,2.136,0.438,4.502L66.5,188.4 M68.5,188.4
		v-7.8c0-2.477-0.113-3.838-0.553-5.174c-0.553-1.452-1.857-2.724-3.373-3.251c-1.385-0.423-2.672-0.675-5.254-0.675h-8.113
		c-2.576,0-3.801,0.252-5.189,0.675c-1.514,0.527-2.641,1.925-3.19,3.378c-0.275,0.836-0.327,1.634-0.327,2.723
		c0,0.648,0.019,1.4,0.019,2.324v7.8c0,0.925-0.019,1.691-0.019,2.363c0,1.125,0.052,1.973,0.327,2.809
		c0.551,1.451,1.613,2.722,3.127,3.257c1.387,0.422,2.678,0.672,5.254,0.672h8.113c2.582,0,3.926-0.25,5.311-0.672
		c1.517-0.535,2.765-1.931,3.316-3.383C68.387,192.113,68.5,190.875,68.5,188.4L68.5,188.4z"/>
</g>
<g id="Earpiece">
	<path fill="#4B4B4B" d="M705.5,156c1.103,0,2,0.897,2,2v53c0,1.103-0.897,2-2,2s-2-0.897-2-2v-53
		C703.5,156.897,704.397,156,705.5,156 M705.5,154c-2.209,0-4,1.791-4,4v53c0,2.209,1.791,4,4,4s4-1.791,4-4v-53
		C709.5,155.791,707.709,154,705.5,154L705.5,154z"/>
</g>
<g id="Front_Camera">
	<path fill="#4B4B4B" d="M735.498,179c3.034,0,5.503,2.466,5.503,5.497c-0.001,3.034-2.47,5.503-5.503,5.503
		c-3.031,0-5.497-2.469-5.497-5.503C730.001,181.466,732.467,179,735.498,179 M735.498,177c-4.137,0-7.497,3.356-7.497,7.497
		c0,4.142,3.36,7.503,7.497,7.503c4.143,0,7.502-3.361,7.503-7.503C743.001,180.356,739.641,177,735.498,177L735.498,177z"/>
</g>
</svg>
