<?xml version="1.0" encoding="utf-8"?>
<!-- Copyright © 2014 Brian Speir. All rights reserved.  -->
<!DOCTYPE svg PUBLIC "-//W3C//DTD SVG 1.1//EN" "http://www.w3.org/Graphics/SVG/1.1/DTD/svg11.dtd">
<svg version="1.1" id="Layer_1" xmlns="http://www.w3.org/2000/svg" xmlns:xlink="http://www.w3.org/1999/xlink" x="0px" y="0px"
	 width="1310px" height="1529.001px" viewBox="0 0 1310 1529.001" enable-background="new 0 0 1310 1529.001" xml:space="preserve">
<g>
	<rect x="283" y="26" fill="#FFFFFF" width="1027" height="771.001"/>
	<g id="Browser_1_">
		<g id="Frame">
			<path fill="#AAAAAA" d="M1307,26v764.001c0,2.209-1.791,4-4,4H287c-2.209,0-4-1.791-4-4V26H1307 M1310,23h-3H283h-3v3v764.001
				c0,3.859,3.141,7,7,7h1016c3.859,0,7-3.141,7-7V26V23L1310,23z"/>
		</g>
		<g id="Bar">
			<path fill="#DDDDDD" d="M281.5,24.5V6c0-3.033,2.467-5.5,5.5-5.5h1016c3.033,0,5.5,2.467,5.5,5.5v18.5H281.5z"/>
			<path fill="#AAAAAA" d="M1303,2c2.209,0,4,1.791,4,4v17H283V6c0-2.209,1.791-4,4-4H1303 M1303-1H287c-3.859,0-7,3.141-7,7v17v3h3
				h1024h3v-3V6C1310,2.141,1306.859-1,1303-1L1303-1z"/>
		</g>
		<circle id="Close" fill="#BBBBBB" cx="295" cy="13" r="5"/>
		<circle id="Minimize" fill="#BBBBBB" cx="315" cy="13" r="5"/>
		<circle id="Zoom" fill="#BBBBBB" cx="335" cy="13" r="5"/>
		<rect id="Title" x="745" y="7.438" display="none" fill="#BBBBBB" width="100" height="11"/>
	</g>
</g>
<rect x="93.5" y="392.001" fill="#808080" width="775" height="1027"/>
<g id="iPad_1_">
	<g id="Body_1_">
		<g>
			<path fill="#FFFFFF" d="M45,1529.001c-23.986,0-43.5-19.514-43.5-43.5v-1157c0-23.985,19.514-43.5,43.5-43.5h872
				c23.986,0,43.5,19.515,43.5,43.5v1157c0,23.986-19.514,43.5-43.5,43.5H45z M95,1420.501h772v-1027H95V1420.501z"/>
		</g>
		<g>
			<path fill="#AAAAAA" d="M917,286.501c23.159,0,42,18.841,42,42v1157c0,23.16-18.841,42-42,42H45c-23.159,0-42-18.84-42-42v-1157
				c0-23.159,18.841-42,42-42H917 M93.5,1422.001h3h769h3v-3v-1024v-3h-3h-769h-3v3v1024V1422.001 M917,283.501H45
				c-24.85,0-45,20.15-45,45v1157c0,24.85,20.15,45,45,45h872c24.85,0,45-20.15,45-45v-1157C962,303.651,941.85,283.501,917,283.501
				L917,283.501z M96.5,1419.001v-1024h769v1024H96.5L96.5,1419.001z"/>
		</g>
	</g>
	<path id="Front_Camera_1_" fill="#AAAAAA" d="M486.5,341.504c0,4.139-3.361,7.497-7.503,7.497c-4.141,0-7.497-3.358-7.497-7.497
		c0-4.142,3.356-7.503,7.497-7.503C483.139,334.001,486.5,337.362,486.5,341.504z"/>
	<g id="Home_Button">
		<path fill="#AAAAAA" d="M479,1447.646c14.888,0,27,12.112,27,27c0,14.889-12.112,27-27,27s-27-12.111-27-27
			C452,1459.759,464.112,1447.646,479,1447.646 M479,1444.646c-16.562,0-30,13.432-30,30c0,16.567,13.438,30,30,30s30-13.433,30-30
			C509,1458.075,495.562,1444.646,479,1444.646L479,1444.646z"/>
	</g>
</g>
<g>
	<rect x="542" y="192" fill="#808080" width="326" height="573"/>
	<g>
		<g id="Body">
			<g>
				<path fill="#FFFFFF" d="M579.179,864.002c-30.7,0-55.679-24.984-55.679-55.695V148.693c0-30.709,24.979-55.691,55.679-55.691
					h251.649c30.697,0,55.672,24.982,55.672,55.691v659.612c0,30.711-24.975,55.695-55.672,55.695H579.179V864.002z M543.5,764.002
					h323v-571h-323V764.002z"/>
			</g>
			<g>
				<path fill="#AAAAAA" d="M830.828,94.501c29.87,0,54.172,24.312,54.172,54.191v659.612c0,29.883-24.302,54.195-54.172,54.195
					H579.179c-29.875,0-54.179-24.312-54.179-54.195V148.693c0-29.882,24.304-54.191,54.179-54.191H830.828 M542,765.502h3h320h3v-3
					v-568v-3h-3H545h-3v3v568V765.502 M830.828,91.501H579.179c-31.578,0-57.179,25.607-57.179,57.191v659.612
					c0,31.586,25.601,57.195,57.179,57.195h251.649c31.571,0,57.172-25.609,57.172-57.195V148.693
					C888,117.109,862.399,91.501,830.828,91.501L830.828,91.501z M545,762.502v-568h320v568H545L545,762.502z"/>
			</g>
		</g>
		<g id="Home_Button_2_">
			<path id="Button" fill="#AAAAAA" d="M706.5,779.002c17.094,0,31,13.906,31,31s-13.906,31-31,31c-17.093,0-31-13.906-31-31
				S689.407,779.002,706.5,779.002 M706.5,776.002c-18.771,0-34,15.219-34,34c0,18.779,15.229,34,34,34c18.777,0,34-15.221,34-34
				C740.5,791.221,725.277,776.002,706.5,776.002L706.5,776.002z"/>
			<path id="Icon" display="none" fill="#AAAAAA" d="M710.4,799.002c2.303,0,3.338,0.104,4.373,0.438
				c0.965,0.381,1.843,1.221,2.155,2.062c0.36,1.199,0.569,2.363,0.569,4.68v8.113c0,2.281-0.2,3.396-0.569,4.625
				c-0.301,0.805-1.034,1.482-2.024,1.869c-0.564,0.178-1.217,0.215-2.144,0.215c-0.301,0-0.621-0.004-0.969-0.008
				c-0.425-0.006-0.886-0.012-1.396-0.012h-7.798c-0.513,0-0.973,0.006-1.392,0.012c-0.336,0.004-0.646,0.008-0.936,0.008
				c-1.024,0-1.553-0.055-2.056-0.213c-1.021-0.4-1.857-1.152-2.145-1.934c-0.327-1.078-0.575-2.117-0.575-4.562v-8.113
				c0-2.281,0.202-3.396,0.575-4.629c0.331-0.92,1.137-1.76,2.021-2.111c1.027-0.332,2.135-0.439,4.502-0.439H710.4 M710.4,797.002
				H702.6c-2.478,0-3.838,0.113-5.175,0.553c-1.452,0.553-2.724,1.857-3.251,3.373c-0.423,1.385-0.675,2.672-0.675,5.254v8.113
				c0,2.576,0.252,3.801,0.675,5.189c0.527,1.514,1.926,2.641,3.379,3.188c0.836,0.275,1.634,0.328,2.724,0.328
				c0.646,0,1.398-0.02,2.323-0.02h7.801c0.925,0,1.691,0.02,2.362,0.02c1.125,0,1.974-0.053,2.81-0.328
				c1.451-0.551,2.722-1.613,3.257-3.127c0.422-1.387,0.672-2.678,0.672-5.254v-8.113c0-2.582-0.25-3.926-0.672-5.311
				c-0.535-1.516-1.931-2.764-3.384-3.316C714.113,797.115,712.875,797.002,710.4,797.002L710.4,797.002z"/>
		</g>
		<path id="Earpiece" fill="#AAAAAA" d="M737,160.001c0,2.209-1.791,4-4,4h-53c-2.209,0-4-1.791-4-4l0,0c0-2.209,1.791-4,4-4h53
			C735.209,156.001,737,157.792,737,160.001L737,160.001z"/>
		<path id="Front_Camera" fill="#AAAAAA" d="M714,130.003c0,4.137-3.361,7.496-7.503,7.496c-4.141,0-7.497-3.359-7.497-7.496
			c0-4.143,3.356-7.504,7.497-7.504C710.639,122.501,714,125.861,714,130.003z"/>
	</g>
</g>
</svg>
