<?xml version="1.0" encoding="utf-8"?>
<!-- Generator: Adobe Illustrator 16.0.5, SVG Export Plug-In . SVG Version: 6.00 Build 0)  -->
<!DOCTYPE svg PUBLIC "-//W3C//DTD SVG 1.1//EN" "http://www.w3.org/Graphics/SVG/1.1/DTD/svg11.dtd">
<svg version="1.1" id="iPhone_6" xmlns="http://www.w3.org/2000/svg" xmlns:xlink="http://www.w3.org/1999/xlink" x="0px" y="0px"
	 width="956px" height="470px" viewBox="0 0 956 470" enable-background="new 0 0 956 470" xml:space="preserve">
<g id="Body">
	<path fill="#FFFFFF" d="M1.505,383.717V86.285c0-0.007-0.004-0.783-0.004-2.058c0-4.747,0.057-16.265,0.584-20.678
		C2.82,57.31,4.918,45.636,7.084,40.39c2.31-5.608,8.668-16.019,12.796-20.174c4.271-4.277,14.824-10.792,20.467-13.125
		c5.227-2.163,16.893-4.265,23.131-5.004c5.557-0.663,22.559-0.583,22.729-0.583h783.605c0.176-0.001,17.16-0.081,22.709,0.583
		c6.231,0.735,17.891,2.834,23.131,5.004c5.66,2.331,16.216,8.844,20.469,13.125c4.316,4.343,10.744,14.887,12.787,20.153
		c2.107,5.436,4.299,17.155,5.008,23.178c0.527,4.421,0.584,15.956,0.584,20.71c0,1.257-0.004,2.021-0.004,2.022v297.432
		c0,0.007,0.004,0.771,0.004,2.03c0,4.76-0.057,16.306-0.584,20.707c-0.734,6.235-2.832,17.916-5,23.185
		c-2.293,5.58-8.646,15.976-12.794,20.151c-4.282,4.306-14.832,10.827-20.465,13.145c-5.181,2.146-16.647,4.22-23.136,5.008
		c-5.549,0.661-22.53,0.558-22.701,0.557H86.211c-0.178,0.001-17.179,0.104-22.733-0.559c-6.494-0.792-17.969-2.867-23.13-5.005
		c-5.653-2.336-16.209-8.859-20.468-13.146c-4.136-4.163-10.493-14.562-12.796-20.151c-2.167-5.27-4.264-16.948-4.999-23.183
		c-0.527-4.395-0.584-15.903-0.584-20.665C1.501,385.781,1.505,383.718,1.505,383.717z M109.001,26.999v416h738v-416H109.001z"/>
	<path d="M953.5,385.742c0,4.741-0.055,16.239-0.578,20.591c-0.727,6.18-2.799,17.736-4.932,22.921
		c-2.258,5.497-8.506,15.727-12.578,19.825c-4.133,4.155-14.703,10.689-20.143,12.927c-5.091,2.107-16.438,4.155-22.867,4.938
		c-5.487,0.653-22.407,0.551-22.592,0.55H86.197c-0.171,0.001-17.108,0.104-22.598-0.55c-6.441-0.785-17.798-2.836-22.873-4.938
		c-5.453-2.253-16.029-8.79-20.139-12.925c-4.061-4.088-10.312-14.319-12.581-19.827c-2.131-5.184-4.202-16.741-4.932-22.924
		c-0.521-4.342-0.576-15.823-0.576-20.558c0-1.272,0.004-2.048,0.004-2.062V86.274c0-0.002-0.004-0.776-0.004-2.047
		c0-4.729,0.056-16.2,0.577-20.563c0.729-6.182,2.8-17.733,4.931-22.894c2.275-5.525,8.528-15.77,12.577-19.846
		c4.124-4.129,14.699-10.659,20.145-12.91c5.138-2.126,16.682-4.202,22.866-4.935c5.493-0.655,22.435-0.576,22.614-0.575h783.613
		c0.17-0.001,17.092-0.08,22.584,0.576c6.174,0.729,17.711,2.801,22.867,4.936c5.459,2.248,16.035,8.774,20.138,12.905
		c3.892,3.917,10.349,14.1,12.563,19.811c2.078,5.36,4.244,16.962,4.947,22.936c0.523,4.365,0.578,15.852,0.578,20.588
		c0,1.254-0.004,2.016-0.004,2.029v297.437C953.496,383.725,953.5,384.486,953.5,385.742 M108.001,25.999v2v414v2h2h736h2v-2v-414
		v-2h-2h-736H108.001 M955.5,385.742c0-1.265-0.004-2.031-0.004-2.031V86.285c0,0,0.004-0.766,0.004-2.029
		c0-4.713-0.055-16.344-0.59-20.826c-0.703-5.956-2.904-17.836-5.07-23.422c-2.193-5.66-8.732-16.193-13.01-20.498
		c-4.354-4.383-15.069-10.987-20.794-13.344c-5.521-2.285-17.442-4.371-23.396-5.073c-5.677-0.678-22.828-0.589-22.828-0.589H86.211
		c0,0-17.17-0.088-22.852,0.589c-5.929,0.703-17.874,2.788-23.396,5.073c-5.702,2.357-16.429,8.973-20.794,13.345
		C14.894,23.815,8.471,34.394,6.158,40.009c-2.283,5.53-4.365,17.466-5.067,23.422C0.557,67.904,0.5,79.496,0.5,84.228
		c0,1.28,0.004,2.058,0.004,2.058v297.426c0,0-0.004,0.779-0.004,2.062c0,4.736,0.057,16.341,0.591,20.796
		c0.702,5.955,2.784,17.894,5.067,23.445c2.312,5.613,8.734,16.172,13.012,20.477c4.365,4.393,15.092,11.009,20.794,13.364
		c5.521,2.284,17.467,4.352,23.396,5.073c5.682,0.679,22.852,0.564,22.852,0.564h783.602c0,0,17.151,0.113,22.828-0.564
		c5.953-0.723,17.875-2.789,23.396-5.073c5.725-2.355,16.426-8.973,20.794-13.364c4.275-4.305,10.703-14.862,13.01-20.477
		c2.285-5.553,4.367-17.49,5.068-23.445C955.445,402.103,955.5,390.462,955.5,385.742L955.5,385.742z M110.001,27.999h736v414h-736
		V27.999L110.001,27.999z"/>
</g>
<g id="Home_Button">
	<path d="M93.001,235c0,18.748-15.254,34-34.004,34c-18.745,0-33.996-15.252-33.996-34s15.251-34,33.996-34
		C77.747,201,93.001,216.252,93.001,235 M94.001,235c0-19.33-15.672-35-35.004-35c-19.324,0-34.996,15.67-34.996,35
		s15.672,35,34.996,35C78.329,270,94.001,254.33,94.001,235L94.001,235z"/>
</g>
<g id="Earpiece">
	<path d="M901.001,265.632c0,1.581-1.347,2.867-3,2.867s-3-1.286-3-2.867v-61.269c0-1.579,1.347-2.864,3-2.864s3,1.285,3,2.864
		V265.632 M902.001,265.632v-61.269c0-2.124-1.8-3.864-4-3.864s-4,1.74-4,3.864v61.269c0,2.124,1.8,3.867,4,3.867
		S902.001,267.756,902.001,265.632L902.001,265.632z"/>
</g>
<g id="Camera">
	<path d="M906.501,166.499c0,4.687-3.812,8.5-8.499,8.5s-8.501-3.813-8.501-8.5s3.813-8.5,8.501-8.5
		S906.501,161.812,906.501,166.499 M907.501,166.499c0-5.246-4.252-9.5-9.499-9.5c-5.246,0-9.501,4.254-9.501,9.5
		s4.255,9.5,9.501,9.5C903.249,175.999,907.501,171.745,907.501,166.499L907.501,166.499z"/>
</g>
</svg>
