<?xml version="1.0" encoding="utf-8"?>
<!-- Generator: Adobe Illustrator 16.0.5, SVG Export Plug-In . SVG Version: 6.00 Build 0)  -->
<!DOCTYPE svg PUBLIC "-//W3C//DTD SVG 1.1//EN" "http://www.w3.org/Graphics/SVG/1.1/DTD/svg11.dtd">
<svg version="1.1" id="Layer_1" xmlns="http://www.w3.org/2000/svg" xmlns:xlink="http://www.w3.org/1999/xlink" x="0px" y="0px"
	 width="1030px" height="798px" viewBox="0 0 1030 798" enable-background="new 0 0 1030 798" xml:space="preserve">
<g id="Browser_1_">
	<g id="Frame">
		<path fill="#AAAAAA" d="M1027,27v764c0,2.209-1.791,4-4,4H7c-2.209,0-4-1.791-4-4V27H1027 M1030,24h-3H3H0v3v764
			c0,3.859,3.14,7,7,7h1016c3.859,0,7-3.141,7-7V27V24L1030,24z"/>
	</g>
	<g id="Bar">
		<path fill="#DDDDDD" d="M1.5,25.5V7c0-3.033,2.467-5.5,5.5-5.5h1016c3.032,0,5.5,2.467,5.5,5.5v18.5H1.5z"/>
		<path fill="#AAAAAA" d="M1023,3c2.209,0,4,1.791,4,4v17H3V7c0-2.209,1.791-4,4-4H1023 M1023,0H7C3.14,0,0,3.14,0,7v17v3h3h1024h3
			v-3V7C1030,3.14,1026.859,0,1023,0L1023,0z"/>
	</g>
	<circle id="Close" fill="#BBBBBB" cx="15" cy="14" r="5"/>
	<circle id="Minimize" fill="#BBBBBB" cx="35" cy="14" r="5"/>
	<circle id="Zoom" fill="#BBBBBB" cx="55" cy="14" r="5"/>
	<rect id="Title" x="465" y="8.438" display="none" fill="#BBBBBB" width="100" height="11"/>
</g>
</svg>
