<!-- Copyright © 2014 Brian Speir. All rights reserved.  -->
<svg version="1.1" id="Layer_1" xmlns="http://www.w3.org/2000/svg" xmlns:xlink="http://www.w3.org/1999/xlink" x="0px" y="0px"
	 width="774px" height="366px" viewBox="0 0 774 366" enable-background="new 0 0 774 366" xml:space="preserve">
<metadata><?xpacket begin="﻿" id="W5M0MpCehiHzreSzNTczkc9d"?>
<x:xmpmeta xmlns:x="adobe:ns:meta/" x:xmptk="Adobe XMP Core 5.3-c011 66.145661, 2012/02/06-14:56:27        ">
   <rdf:RDF xmlns:rdf="http://www.w3.org/1999/02/22-rdf-syntax-ns#">
      <rdf:Description rdf:about=""
            xmlns:dc="http://purl.org/dc/elements/1.1/">
         <dc:format>image/svg+xml</dc:format>
         <dc:title>
            <rdf:Alt>
               <rdf:li xml:lang="x-default">Web</rdf:li>
            </rdf:Alt>
         </dc:title>
      </rdf:Description>
      <rdf:Description rdf:about=""
            xmlns:xmp="http://ns.adobe.com/xap/1.0/"
            xmlns:xmpGImg="http://ns.adobe.com/xap/1.0/g/img/">
         <xmp:CreatorTool>Adobe Illustrator CS6 (Macintosh)</xmp:CreatorTool>
         <xmp:CreateDate>2014-03-27T14:42:27-07:00</xmp:CreateDate>
         <xmp:ModifyDate>2014-03-27T14:42:27-07:00</xmp:ModifyDate>
         <xmp:MetadataDate>2014-03-27T14:42:27-07:00</xmp:MetadataDate>
         <xmp:Thumbnails>
            <rdf:Alt>
               <rdf:li rdf:parseType="Resource">
                  <xmpGImg:width>256</xmpGImg:width>
                  <xmpGImg:height>124</xmpGImg:height>
                  <xmpGImg:format>JPEG</xmpGImg:format>
                  <xmpGImg:image>/9j/4AAQSkZJRgABAgEASABIAAD/7QAsUGhvdG9zaG9wIDMuMAA4QklNA+0AAAAAABAASAAAAAEA&#xA;AQBIAAAAAQAB/+4ADkFkb2JlAGTAAAAAAf/bAIQABgQEBAUEBgUFBgkGBQYJCwgGBggLDAoKCwoK&#xA;DBAMDAwMDAwQDA4PEA8ODBMTFBQTExwbGxscHx8fHx8fHx8fHwEHBwcNDA0YEBAYGhURFRofHx8f&#xA;Hx8fHx8fHx8fHx8fHx8fHx8fHx8fHx8fHx8fHx8fHx8fHx8fHx8fHx8fHx8f/8AAEQgAfAEAAwER&#xA;AAIRAQMRAf/EAaIAAAAHAQEBAQEAAAAAAAAAAAQFAwIGAQAHCAkKCwEAAgIDAQEBAQEAAAAAAAAA&#xA;AQACAwQFBgcICQoLEAACAQMDAgQCBgcDBAIGAnMBAgMRBAAFIRIxQVEGE2EicYEUMpGhBxWxQiPB&#xA;UtHhMxZi8CRygvElQzRTkqKyY3PCNUQnk6OzNhdUZHTD0uIIJoMJChgZhJRFRqS0VtNVKBry4/PE&#xA;1OT0ZXWFlaW1xdXl9WZ2hpamtsbW5vY3R1dnd4eXp7fH1+f3OEhYaHiImKi4yNjo+Ck5SVlpeYmZ&#xA;qbnJ2en5KjpKWmp6ipqqusra6voRAAICAQIDBQUEBQYECAMDbQEAAhEDBCESMUEFURNhIgZxgZEy&#xA;obHwFMHR4SNCFVJicvEzJDRDghaSUyWiY7LCB3PSNeJEgxdUkwgJChgZJjZFGidkdFU38qOzwygp&#xA;0+PzhJSktMTU5PRldYWVpbXF1eX1RlZmdoaWprbG1ub2R1dnd4eXp7fH1+f3OEhYaHiImKi4yNjo&#xA;+DlJWWl5iZmpucnZ6fkqOkpaanqKmqq6ytrq+v/aAAwDAQACEQMRAD8A9OajqJtjHBBH699PX0IK&#xA;0FB9p3b9lVxVQXRDcDnqk73Uh3MKs0cC+yopFfmxOKqq6BoSig0+2+mJD+sYq3+gtD/6t1t/yJj/&#xA;AKYql8jeS45HjeCzDxsUdfQXZlNCPs9jiq31fJP++bP/AJEL/wA04q71fJP++bP/AJEL/wA04q71&#xA;fJP++bP/AJEL/wA04q71fJP++bP/AJEL/wA04q71fJP++bP/AJEL/wA04q71fJP++bP/AJEL/wA0&#xA;4q71fJP++bP/AJEL/wA04q71fJP++bP/AJEL/wA04q71fJP++bP/AJEL/wA04q71fJP++bP/AJEL&#xA;/wA04q71fJP++bP/AJEL/wA04q71fJP++bP/AJEL/wA04q71fJP++bP/AJEL/wA04q71fJP++bP/&#xA;AJEL/wA04q71fJP++bP/AJEL/wA04q71fJP++bP/AJEL/wA04q71fJP++bP/AJEL/wA04q71fJP+&#xA;+bP/AJEL/wA04q71fJP++bP/AJEL/wA04q71fJP++bP/AJEL/wA04q71fJP++bP/AJEL/wA04q71&#xA;fJP++bP/AJEL/wA04qujbyXJIkaQWZeRgiL6C7sxoB9nucVTD9BaH/1brb/kTH/TFWm0DQmFDp9t&#xA;9ESD9QxVSbRDbjnpc72sg3ELM0kDezIxNPmpGKq+naibkyQTx+hfQU9eCtRQ/ZdG/aVsVUNEUXBn&#xA;1R95Lp2WEn9mCNiqKPnQsfniqaYq7FXYql2hf7zXP/MZdf8AJ98VTHFXYq7FXYq7FXYq7FXYq7FX&#xA;Yq7FXYq7FXYq7FXYq7FXYq7FXYq7FXYql2u/7zW3/MZa/wDJ9MVTHFXYq7FUr1tRbmDVE2ktXVZi&#xA;P2oJGCup+VQw+WKqugKF0LTwP+WaI/egOKo/FXYq7FUu0L/ea5/5jLr/AJPviqY4q7FXYq7FXYq7&#xA;FXYq7FXYq7FXYq7FXYq7FXYq7FXYq7FXYq7FXYq7FUu13/ea2/5jLX/k+mKpjirsVdiqA19Q2hag&#xA;D/yzSn7kJxVvQv8Ajh6d/wAw0P8AybGKo7FXYq7FUu0L/ea5/wCYy6/5PviqY4q7FXYq7FXYq7FX&#xA;Yq7FXYq7FXYq7FXYq7FXYq7FXYq7FXYq7FXYq7FUu13/AHmtv+Yy1/5PpiqY4q7FXYqgdd/44eo/&#xA;8w03/Js4q7Qv+OHp3/MND/ybGKo7FXYq7FUu0L/ea5/5jLr/AJPviqY4q7FXYq7FXYq7FXYq7FXY&#xA;q7FXYq7FXYq7FXYq7FXYq7FXYq7FXYq7FUu13/ea2/5jLX/k+mKpjirsVdiqB13/AI4eo/8AMNN/&#xA;ybOKu0L/AI4enf8AMND/AMmxiqOxV2KuxVLtC/3muf8AmMuv+T74qmOKuxV2KuxV2KuxV2KuxV2K&#xA;uxV2KuxV2KuxV2KuxV2KuxV2KuxV2KuxVLtd/wB5rb/mMtf+T6YqmOKuxV2KoHXf+OHqP/MNN/yb&#xA;OKu0L/jh6d/zDQ/8mxiqHF1qGpSSCwkW2so2KG8Kh3kZTRvSU/DxB25Gvtiq9tM1KMcrfVJmkH7N&#xA;wkTxn2IRI2+5sVVtO1B52ktrmMQ31vT1ogaqQ32XQ91an0dMVU9C/wB5rn/mMuv+T74qmOKuxV2K&#xA;uxV2KuxV2KuxV2KuxV2KuxV2KuxV2KuxV2KuxV2KuxV2KuxVLtd/3mtv+Yy1/wCT6YqmOKpT5Z1m&#xA;XV9NN3LGsbiV04qSRQUI6+xxVNsVQOu/8cPUf+Yab/k2cVQkEskXk6OWLaWPTgyEfzCCoxVMdOhi&#xA;hsLaKKnpJEgSngFGKojFUsvAE13TnXZ5Enif3QBX3+TAffiq7Qv95rn/AJjLr/k++KpjirsVdirs&#xA;VdirsVdirsVdirsVdirsVdirsVdirsVdirsVdirsVdirsVS7Xf8Aea2/5jLX/k+mKpjirGPy8/44&#xA;Df8AGd/+Irirel65rtx5luLG4tuFmhcA8COKr9huXfliqca7/wAcPUf+Yab/AJNnFWtEVX0GwVhV&#xA;WtYQwPQgxjFUJa3Z0dBZX/IWce1pe0LJ6f7KSEfZZRtU7HFUVL5g0ZFBF5FKx+zHCwldv9VU5E4q&#xA;s0+G6uLx9Su4zCSnpWls32kjJDMz0/bcgVHYDFV2hf7zXP8AzGXX/J98VTHFXYq7FXYq7FXYq7FX&#xA;Yq7FXYq7FXYq7FXYq7FXYq7FXYq7FXYq7FXYql2u/wC81t/zGWv/ACfTFUxxVj/keyu7TRTFdRND&#xA;IZnYI4oabCtPmMVZBiqB13/jh6j/AMw03/Js4q7Qv+OHp3/MND/ybGKo7FViQwoSURVJ6lQBX7sV&#xA;X4ql2hf7zXP/ADGXX/J98VTHFXYq7FXYq7FXYq7FXYq7FXYq7FXYq7FXYq7FXYq7FXYq7FXYq7FX&#xA;Yql2u/7zW3/MZa/8n0xVMcVdirsVQOu/8cPUf+Yab/k2cVdoX/HD07/mGh/5NjFUdirsVdiqXaF/&#xA;vNc/8xl1/wAn3xVMcVdirsVdirsVdirsVdirsVdirsVdirsVdirsVdirsVdirsVdirsVdiqXa7/v&#xA;Nbf8xlr/AMn0xVMcVdirsVQOu/8AHD1H/mGm/wCTZxV2hf8AHD07/mGh/wCTYxVHYq7FXYql2hf7&#xA;zXP/ADGXX/J98VTHFXYq7FXYq7FXYq7FXYq7FXYq7FXYq7FXYq7FXYq7FXYq7FXYq7FXYql2u/7z&#xA;W3/MZa/8n0xVMcVdirsVQOu/8cPUf+Yab/k2cVa0Ag6Hp5G/+jQj7kAxVH4q7FXYql2hf7zXP/MZ&#xA;df8AJ98VTHFXYq7FXYq7FXYq7FXYq7FXYq7FXYq7FXYq7FXYq7FXYq7FXYq7FXYql2u/7zW3/MZa&#xA;/wDJ9MVTHFXYq7FUBr5A0PUCdv8ARph96EYqp6A3pW8unttLYSNFTxjJ5RN8ihH3YqmeKuxV2Kpd&#xA;oX+81z/zGXX/ACffFUxxV2KuxV2KuxV2KuxV2KuxV2KuxV2KuxV2KuxV2KuxV2KuxV2KuxV2Kpdr&#xA;v+81t/zGWv8AyfTFUxxV2KuxVLNfb1beLT13lv5Fip4Rg8pW+QQH78VX6hYzmZL+xIW9iXgUY0SW&#xA;OteD06eKntirrbXLKRxDcE2d3+1b3FEav+ST8Lj3U4qmAIIqDUHoRirsVS39BQB5GjubmISu8jJH&#xA;MyrydizUA9zirf6ET/ltvP8Ake2Ku/Qif8tt5/yPbFXfoRP+W28/5Htirv0In/Lbef8AI9sVd+hE&#xA;/wCW28/5Htirv0In/Lbef8j2xV36ET/ltvP+R7Yq79CJ/wAtt5/yPbFXfoRP+W28/wCR7Yq79CJ/&#xA;y23n/I9sVd+hE/5bbz/ke2Ku/Qif8tt5/wAj2xV36ET/AJbbz/ke2Ku/Qif8tt5/yPbFXfoRP+W2&#xA;8/5Htirv0In/AC23n/I9sVd+hE/5bbz/AJHtirv0In/Lbef8j2xV36ET/ltvP+R7Yq79CJ/y23n/&#xA;ACPbFXfoRP8AltvP+R7Yq79CJ/y23n/I9sVa/QUBeNpLm5lETpIqSTMy8kYMtQfcYqmWKuJAFSaA&#xA;dScVS+51yyjcw25N5d/s29vR2r/lEfCg92OKu0+xnEz398Q17KvAIpqkUda8Er18WPfFUwxVQvfq&#xA;Hon676Xo9/W48f8AhtsVSRv8B8jX6hXvT06fhtirX/Ohf8uP/CYq7/nQv+XH/hMVd/zoX/Lj/wAJ&#xA;irv+dC/5cf8AhMVd/wA6F/y4/wDCYq7/AJ0L/lx/4TFXf86F/wAuP/CYq7/nQv8Alx/4TFXf86F/&#xA;y4/8Jirv+dC/5cf+ExV3/Ohf8uP/AAmKu/50L/lx/wCExV3/ADoX/Lj/AMJirv8AnQv+XH/hMVd/&#xA;zoX/AC4/8Jirv+dC/wCXH/hMVd/zoX/Lj/wmKu/50L/lx/4TFXf86F/y4/8ACYq7/nQv+XH/AITF&#xA;Xf8AOhf8uP8AwmKu/wCdC/5cf+ExV3/Ohf8ALj/wmKu/50L/AJcf+ExV3/Ohf8uP/CYq7/nQv+XH&#xA;/hMVbX/AfIU+oV7V9On47Yqndl9Q9EfUvS9Ht6PHj/wu2Kq+Kv8A/9k=</xmpGImg:image>
               </rdf:li>
            </rdf:Alt>
         </xmp:Thumbnails>
      </rdf:Description>
      <rdf:Description rdf:about=""
            xmlns:xmpMM="http://ns.adobe.com/xap/1.0/mm/"
            xmlns:stRef="http://ns.adobe.com/xap/1.0/sType/ResourceRef#"
            xmlns:stEvt="http://ns.adobe.com/xap/1.0/sType/ResourceEvent#">
         <xmpMM:RenditionClass>proof:pdf</xmpMM:RenditionClass>
         <xmpMM:OriginalDocumentID>uuid:65E6390686CF11DBA6E2D887CEACB407</xmpMM:OriginalDocumentID>
         <xmpMM:DocumentID>xmp.did:D53D4905A5216811822AC21D10F3504F</xmpMM:DocumentID>
         <xmpMM:InstanceID>xmp.iid:D53D4905A5216811822AC21D10F3504F</xmpMM:InstanceID>
         <xmpMM:DerivedFrom rdf:parseType="Resource">
            <stRef:instanceID>xmp.iid:0180117407206811822AD23EA7250672</stRef:instanceID>
            <stRef:documentID>xmp.did:0180117407206811822AD23EA7250672</stRef:documentID>
            <stRef:originalDocumentID>uuid:65E6390686CF11DBA6E2D887CEACB407</stRef:originalDocumentID>
            <stRef:renditionClass>proof:pdf</stRef:renditionClass>
         </xmpMM:DerivedFrom>
         <xmpMM:History>
            <rdf:Seq>
               <rdf:li rdf:parseType="Resource">
                  <stEvt:action>saved</stEvt:action>
                  <stEvt:instanceID>xmp.iid:0180117407206811822AD23EA7250672</stEvt:instanceID>
                  <stEvt:when>2014-03-09T12:37:30-07:00</stEvt:when>
                  <stEvt:softwareAgent>Adobe Illustrator CS6 (Macintosh)</stEvt:softwareAgent>
                  <stEvt:changed>/</stEvt:changed>
               </rdf:li>
               <rdf:li rdf:parseType="Resource">
                  <stEvt:action>saved</stEvt:action>
                  <stEvt:instanceID>xmp.iid:D53D4905A5216811822AC21D10F3504F</stEvt:instanceID>
                  <stEvt:when>2014-03-27T14:42:27-07:00</stEvt:when>
                  <stEvt:softwareAgent>Adobe Illustrator CS6 (Macintosh)</stEvt:softwareAgent>
                  <stEvt:changed>/</stEvt:changed>
               </rdf:li>
            </rdf:Seq>
         </xmpMM:History>
      </rdf:Description>
      <rdf:Description rdf:about=""
            xmlns:illustrator="http://ns.adobe.com/illustrator/1.0/">
         <illustrator:StartupProfile>Web</illustrator:StartupProfile>
      </rdf:Description>
      <rdf:Description rdf:about=""
            xmlns:xmpTPg="http://ns.adobe.com/xap/1.0/t/pg/"
            xmlns:stDim="http://ns.adobe.com/xap/1.0/sType/Dimensions#"
            xmlns:xmpG="http://ns.adobe.com/xap/1.0/g/">
         <xmpTPg:NPages>1</xmpTPg:NPages>
         <xmpTPg:HasVisibleTransparency>False</xmpTPg:HasVisibleTransparency>
         <xmpTPg:HasVisibleOverprint>False</xmpTPg:HasVisibleOverprint>
         <xmpTPg:MaxPageSize rdf:parseType="Resource">
            <stDim:w>774.000000</stDim:w>
            <stDim:h>366.000000</stDim:h>
            <stDim:unit>Pixels</stDim:unit>
         </xmpTPg:MaxPageSize>
         <xmpTPg:PlateNames>
            <rdf:Seq>
               <rdf:li>Cyan</rdf:li>
               <rdf:li>Magenta</rdf:li>
               <rdf:li>Yellow</rdf:li>
            </rdf:Seq>
         </xmpTPg:PlateNames>
         <xmpTPg:SwatchGroups>
            <rdf:Seq>
               <rdf:li rdf:parseType="Resource">
                  <xmpG:groupName>Default Swatch Group</xmpG:groupName>
                  <xmpG:groupType>0</xmpG:groupType>
               </rdf:li>
            </rdf:Seq>
         </xmpTPg:SwatchGroups>
      </rdf:Description>
      <rdf:Description rdf:about=""
            xmlns:pdf="http://ns.adobe.com/pdf/1.3/">
         <pdf:Producer>Adobe PDF library 10.01</pdf:Producer>
      </rdf:Description>
   </rdf:RDF>
</x:xmpmeta>





















<?xpacket end="w"?>
	</metadata>
<g id="Body">
	<g>
		<path fill="#FFFFFF" d="M1.5,57.178C1.5,26.477,26.484,1.5,57.195,1.5h659.613c30.709,0,55.691,24.977,55.691,55.678v251.65
			c0,30.697-24.982,55.672-55.691,55.672H57.195C26.484,364.5,1.5,339.525,1.5,308.828V57.178z M101.5,21.5v323h571v-323H101.5z"/>
	</g>
	<g>
		<path fill="#AAAAAA" d="M771,308.828c0,29.87-24.311,54.172-54.191,54.172H57.195C27.312,363,3,338.698,3,308.828V57.178
			C3,27.304,27.312,3,57.195,3h659.613C746.689,3,771,27.304,771,57.178V308.828 M100,20v3v320v3h3h568h3v-3V23v-3h-3H103H100
			 M774,308.828V57.178C774,25.601,748.393,0,716.809,0H57.195C25.609,0,0,25.601,0,57.178v251.65C0,340.399,25.609,366,57.195,366
			h659.613C748.393,366,774,340.399,774,308.828L774,308.828z M103,23h568v320H103V23L103,23z"/>
	</g>
</g>
<g id="Home_Button_2_">
	<path id="Button" fill="#AAAAAA" d="M86.5,184.5c0,17.094-13.906,31-31,31s-31-13.906-31-31c0-17.093,13.906-31,31-31
		S86.5,167.407,86.5,184.5 M89.5,184.5c0-18.773-15.219-34-34-34c-18.779,0-34,15.227-34,34c0,18.777,15.221,34,34,34
		C74.281,218.5,89.5,203.277,89.5,184.5L89.5,184.5z"/>
	<path id="Icon" display="none" fill="#AAAAAA" d="M66.5,188.4c0,2.303-0.104,3.339-0.438,4.373
		c-0.382,0.966-1.221,1.843-2.062,2.156c-1.199,0.36-2.363,0.569-4.681,0.569h-8.113c-2.28,0-3.396-0.2-4.624-0.569
		c-0.805-0.301-1.483-1.035-1.87-2.025c-0.178-0.564-0.214-1.217-0.214-2.143c0-0.301,0.004-0.621,0.008-0.969
		c0.005-0.425,0.011-0.886,0.011-1.395V180.6c0-0.512-0.006-0.972-0.011-1.391c-0.004-0.336-0.008-0.646-0.008-0.934
		c0-1.026,0.055-1.554,0.213-2.056c0.399-1.023,1.151-1.858,1.933-2.145c1.078-0.327,2.117-0.575,4.562-0.575h8.113
		c2.282,0,3.396,0.202,4.629,0.575c0.92,0.332,1.761,1.137,2.112,2.022c0.331,1.028,0.438,2.136,0.438,4.502L66.5,188.4 M68.5,188.4
		v-7.8c0-2.477-0.113-3.838-0.553-5.174c-0.553-1.452-1.857-2.724-3.373-3.251c-1.385-0.423-2.672-0.675-5.254-0.675h-8.113
		c-2.576,0-3.801,0.252-5.189,0.675c-1.514,0.527-2.641,1.925-3.19,3.378c-0.275,0.836-0.327,1.634-0.327,2.723
		c0,0.648,0.019,1.4,0.019,2.324v7.8c0,0.925-0.019,1.692-0.019,2.363c0,1.125,0.052,1.973,0.327,2.809
		c0.551,1.451,1.613,2.722,3.127,3.257c1.387,0.422,2.678,0.672,5.254,0.672h8.113c2.582,0,3.926-0.25,5.311-0.672
		c1.517-0.535,2.765-1.931,3.316-3.383C68.387,192.113,68.5,190.875,68.5,188.4L68.5,188.4z"/>
</g>
<path id="Earpiece" fill="#AAAAAA" d="M705.5,215c-2.209,0-4-1.791-4-4v-53c0-2.209,1.791-4,4-4l0,0c2.209,0,4,1.791,4,4v53
	C709.5,213.209,707.709,215,705.5,215L705.5,215z"/>
<path id="Front_Camera" fill="#AAAAAA" d="M735.498,192c-4.137,0-7.497-3.361-7.497-7.503c0-4.141,3.36-7.497,7.497-7.497
	c4.143,0,7.503,3.356,7.503,7.497C743,188.639,739.641,192,735.498,192z"/>
</svg>
