<?xml version="1.0" encoding="utf-8"?>
<!-- Copyright © 2014 Brian Speir. All rights reserved.  -->
<!DOCTYPE svg PUBLIC "-//W3C//DTD SVG 1.1//EN" "http://www.w3.org/Graphics/SVG/1.1/DTD/svg11.dtd">
<svg version="1.1" id="Layer_1" xmlns="http://www.w3.org/2000/svg" xmlns:xlink="http://www.w3.org/1999/xlink" x="0px" y="0px"
	 width="965px" height="1250px" viewBox="0 0 965 1250" enable-background="new 0 0 965 1250" xml:space="preserve">
<g id="iPad_1_">
	<g id="Body_1_">
		<g>
			<path fill="#FFFFFF" d="M46.5,1247c-23.986,0-43.5-19.514-43.5-43.5V46.5C3,22.514,22.514,3,46.5,3h872
				C942.486,3,962,22.514,962,46.5v1157c0,23.986-19.514,43.5-43.5,43.5H46.5z M96.5,1138.5h772v-1027h-772V1138.5z"/>
		</g>
		<g>
			<path fill="#4B4B4B" d="M918.5,4.5c23.159,0,42,18.841,42,42v1157c0,23.159-18.841,42-42,42h-872c-23.159,0-42-18.841-42-42V46.5
				c0-23.159,18.841-42,42-42H918.5 M95,1140h3h769h3v-3V113v-3h-3H98h-3v3v1024V1140 M918.5,1.5h-872c-24.85,0-45,20.15-45,45v1157
				c0,24.85,20.15,45,45,45h872c24.85,0,45-20.15,45-45V46.5C963.5,21.65,943.35,1.5,918.5,1.5L918.5,1.5z M98,1137V113h769v1024H98
				L98,1137z"/>
		</g>
	</g>
	<g id="Home_Button">
		<g>
			<path fill="#4B4B4B" d="M480.5,1164.646c15.439,0,28,12.561,28,28s-12.561,28-28,28s-28-12.561-28-28
				S465.061,1164.646,480.5,1164.646 M480.5,1162.646c-16.562,0-30,13.43-30,30c0,16.567,13.438,30,30,30s30-13.433,30-30
				C510.5,1176.074,497.062,1162.646,480.5,1162.646L480.5,1162.646z"/>
		</g>
	</g>
</g>
</svg>
