<?xml version="1.0" encoding="utf-8"?>
<!-- Copyright © 2014 Brian Speir. All rights reserved.  -->
<!DOCTYPE svg PUBLIC "-//W3C//DTD SVG 1.1//EN" "http://www.w3.org/Graphics/SVG/1.1/DTD/svg11.dtd">
<svg version="1.1" id="Layer_1" xmlns="http://www.w3.org/2000/svg" xmlns:xlink="http://www.w3.org/1999/xlink" x="0px" y="0px"
	 width="366px" height="774px" viewBox="0 0 366 774" enable-background="new 0 0 366 774" xml:space="preserve">
<metadata><?xpacket begin="﻿" id="W5M0MpCehiHzreSzNTczkc9d"?>
<x:xmpmeta xmlns:x="adobe:ns:meta/" x:xmptk="Adobe XMP Core 5.3-c011 66.145661, 2012/02/06-14:56:27        ">
   <rdf:RDF xmlns:rdf="http://www.w3.org/1999/02/22-rdf-syntax-ns#">
      <rdf:Description rdf:about=""
            xmlns:dc="http://purl.org/dc/elements/1.1/">
         <dc:format>image/svg+xml</dc:format>
         <dc:title>
            <rdf:Alt>
               <rdf:li xml:lang="x-default">Web</rdf:li>
            </rdf:Alt>
         </dc:title>
      </rdf:Description>
      <rdf:Description rdf:about=""
            xmlns:xmp="http://ns.adobe.com/xap/1.0/"
            xmlns:xmpGImg="http://ns.adobe.com/xap/1.0/g/img/">
         <xmp:CreatorTool>Adobe Illustrator CS6 (Macintosh)</xmp:CreatorTool>
         <xmp:CreateDate>2014-03-09T12:37:30-07:00</xmp:CreateDate>
         <xmp:ModifyDate>2014-03-09T12:37:30-07:00</xmp:ModifyDate>
         <xmp:MetadataDate>2014-03-09T12:37:30-07:00</xmp:MetadataDate>
         <xmp:Thumbnails>
            <rdf:Alt>
               <rdf:li rdf:parseType="Resource">
                  <xmpGImg:width>124</xmpGImg:width>
                  <xmpGImg:height>256</xmpGImg:height>
                  <xmpGImg:format>JPEG</xmpGImg:format>
                  <xmpGImg:image>/9j/4AAQSkZJRgABAgEASABIAAD/7QAsUGhvdG9zaG9wIDMuMAA4QklNA+0AAAAAABAASAAAAAEA&#xA;AQBIAAAAAQAB/+4ADkFkb2JlAGTAAAAAAf/bAIQABgQEBAUEBgUFBgkGBQYJCwgGBggLDAoKCwoK&#xA;DBAMDAwMDAwQDA4PEA8ODBMTFBQTExwbGxscHx8fHx8fHx8fHwEHBwcNDA0YEBAYGhURFRofHx8f&#xA;Hx8fHx8fHx8fHx8fHx8fHx8fHx8fHx8fHx8fHx8fHx8fHx8fHx8fHx8fHx8f/8AAEQgBAAB8AwER&#xA;AAIRAQMRAf/EAaIAAAAHAQEBAQEAAAAAAAAAAAQFAwIGAQAHCAkKCwEAAgIDAQEBAQEAAAAAAAAA&#xA;AQACAwQFBgcICQoLEAACAQMDAgQCBgcDBAIGAnMBAgMRBAAFIRIxQVEGE2EicYEUMpGhBxWxQiPB&#xA;UtHhMxZi8CRygvElQzRTkqKyY3PCNUQnk6OzNhdUZHTD0uIIJoMJChgZhJRFRqS0VtNVKBry4/PE&#xA;1OT0ZXWFlaW1xdXl9WZ2hpamtsbW5vY3R1dnd4eXp7fH1+f3OEhYaHiImKi4yNjo+Ck5SVlpeYmZ&#xA;qbnJ2en5KjpKWmp6ipqqusra6voRAAICAQIDBQUEBQYECAMDbQEAAhEDBCESMUEFURNhIgZxgZEy&#xA;obHwFMHR4SNCFVJicvEzJDRDghaSUyWiY7LCB3PSNeJEgxdUkwgJChgZJjZFGidkdFU38qOzwygp&#xA;0+PzhJSktMTU5PRldYWVpbXF1eX1RlZmdoaWprbG1ub2R1dnd4eXp7fH1+f3OEhYaHiImKi4yNjo&#xA;+DlJWWl5iZmpucnZ6fkqOkpaanqKmqq6ytrq+v/aAAwDAQACEQMRAD8A9G+ZfMraY1vYWFv9f12/&#xA;5CwsA3BeKfbmmff04o67nv0G+KoCLyM2oAT+atQm1a4bc2cbvbWEZP7KQRsvMDpylLE+2KouP8vP&#xA;IUa8V8uaaR/lWkDH72UnFV3+AfIn/UuaX/0hW/8AzRirv8A+RP8AqXNL/wCkK3/5oxV3+AfIn/Uu&#xA;aX/0hW//ADRirv8AAPkT/qXNL/6Qrf8A5oxV3+AfIn/UuaX/ANIVv/zRirv8A+RP+pc0v/pCt/8A&#xA;mjFXf4B8if8AUuaX/wBIVv8A80Yq7/APkT/qXNL/AOkK3/5oxV3+AfIn/UuaX/0hW/8AzRirT/l9&#xA;5DdSp8uaYAetLOBT94QHFUJJ+Xum2w9Xy7dXHl+6XdPqjs1sT2ElpIWhZfkoPviqI0HzFfNqD6Fr&#xA;8UdrrkaGWFoifq93ApoZoC24Kk/HGd19xvirIsVYp5GiGoNqHmqccrjVpnjsydzHYWztHAi+AfiZ&#xA;Wp1Le2KsrxV2KuxV2KuxV2KsQ8xax5gttYlhtXnQoLc6bax2pmhuy70mE0/FvT49PtpxHxGoxVl+&#xA;KuxV2KuxV2KuxVjfn3TJrjQm1GyAGr6Kf0hpsnf1IQS8Vf5Zo+UbD3xVNP03ZfoD9OVP1L6p9er3&#xA;9L0/V/4jiqX/AJeRrH5C8uKvQ6baN9LQKx/E4qyDFXYq7FXYq7FUi13zjpmjXqWdwjNM8frbyW8C&#xA;cSxUUe6lt1c1G4QkjvSoqql//KytF/31/wBPulf9lmKqlt+YuiT3UFvwKNcSJChW4sZzzkYKo9O3&#xA;uZpTueyGnU0FTirKcVdirsVdirsVadFdGRhVWBDDxB2xV5x6sn/Qv/LkeX+H+Nf8n6vxp/wO2Ksq&#xA;8g/8oJ5c/wC2XZf9Q6Yqn2KuxV2KuxV2KuxV2KuxV2KuxV2KuxV2KuxV5p/677/24f8AmTiqLkuL&#xA;m3/JGxmtppLeddGseE0LtHIpMUQqrqQwPyxVO/8AAOm/9XPWf+4tf/8AVbFXf4B03/q56z/3Fr//&#xA;AKrYq7/AOm/9XPWf+4tf/wDVbFXf4B03/q56z/3Fr/8A6rYq7/AOm/8AVz1n/uLX/wD1WxV3+AdN&#xA;/wCrnrP/AHFr/wD6rYq7/AOm/wDVz1n/ALi1/wD9VsVd/gHTf+rnrP8A3Fr/AP6rYq7/AADpv/Vz&#xA;1n/uLX//AFWxV3+AdN/6ues/9xa//wCq2Ku/wDpv/Vz1n/uLX/8A1WxV3+AdN/6ues/9xa//AOq2&#xA;Ku/wDpv/AFc9Z/7i1/8A9VsVa8g+sthqVvJcT3S2uqXlvDJdSyTyCOOSiKZJCzGg8TirGv8A133/&#xA;ALcP/MnFURd/+SMsv+2NYf8AJuLFXoeKuxV2KuxV2KuxV2KuxV2KuxV2KuxV2Ksa8jf3Ot/9tm//&#xA;AOTuKsZ/9d9/7cP/ADJxVEXf/kjLL/tjWH/JuLFXoeKuxV2KuxV2KuxV2KuxV2KuxV2KuxV2Ksa8&#xA;jf3Ot/8AbZv/APk7irGf/Xff+3D/AMycVRF3/wCSMsv+2NYf8m4sVeh4q7FXYq7FXYq7FXYq7FXY&#xA;q7FXYq7FXYqxryN/c63/ANtm/wD+TuKsZ/8AXff+3D/zJxVEXf8A5Iyy/wC2NYf8m4sVeh4q7FXY&#xA;q7FXYq7FXYq7FXYq7FXYq7FXYqxryN/c63/22b//AJO4qxn/ANd9/wC3D/zJxVEXf/kjLL/tjWH/&#xA;ACbixV6HirsVdirsVdirsVdirsVdirsVdirsVdirGvI39zrf/bZv/wDk7irGf/Xff+3D/wAycVRF&#xA;3/5Iyy/7Y1h/ybixV6HirsVdirsVdirsVdirsVdirsVdirsVdirGvI39zrf/AG2b/wD5O4qxn/13&#xA;3/tw/wDMnFURd/8AkjLL/tjWH/JuLFXoeKuxV2KuxV2KuxV2KuxV2KuxV2KuxV2Ksa8jf3Ot/wDb&#xA;Zv8A/k7irGf/AF33/tw/8ycVRF3/AOSMsv8AtjWH/JuLFXoeKuxV2KuxV2KuxV2KuxV2KuxV2Kux&#xA;V2Ksa8jf3Ot/9tm//wCTuKsZ/wDXff8Atw/8ycVRF3/5Iyy/7Y1h/wAm4sVeh4q7FXYq7FXYq7FX&#xA;Yq7FXYq7FXYq7FXYqxryN/c63/22b/8A5O4qxn/133/tw/8AMnFURd/+SMsv+2NYf8m4sVeh4q7F&#xA;XYq7FXYq7FXYq7FXYq7FXYq7FXYqxryN/c63/wBtm/8A+TuKsZ/9d9/7cP8AzJxVEXf/AJIyy/7Y&#xA;1h/ybixV6HirsVdirsVdirsVdirsVdirsVdirsVdirGvI39zrf8A22b/AP5O4qxn/wBd9/7cP/Mn&#xA;FURd/wDkjLL/ALY1h/ybixV6HirsVdirsVdirsVdirsVdirsVdirsVdirGvI39zrf/bZv/8Ak7ir&#xA;Gf8A133/ALcP/MnFURd/+SMsv+2NYf8AJuLFXoeKuxV2KuxV2KuxV2KuxV2KuxV2KuxV2Ksa8jf3&#xA;Ot/9tm//AOTuKsZ/9d9/7cP/ADJxVEXf/kjLL/tjWH/JuLFXoeKuxV2KuxV2KuxV2KuxV2KuxV2K&#xA;uxV2Ksa8jf3Ot/8AbZv/APk7irGf/Xff+3D/AMycVRF3/wCSMsv+2NYf8m4sVeh4q7FXYq7FXYq7&#xA;FXYq7FXYq7FXYq7FXYqxryN/c63/ANtm/wD+TuKsZ/8AXff+3D/zJxVEXf8A5Iyy/wC2NYf8m4sV&#xA;eh4q7FXYq7FXYq7FXYq7FXYq7FXYq7FXYqxryN/c63/22b//AJO4qxn/ANd9/wC3D/zJxVEXf/kj&#xA;LL/tjWH/ACbixV6HirsVdirsVdirsVdirsVdirsVdirsVdirGvI39zrf/bZv/wDk7irGf/Xff+3D&#xA;/wAycVRF3/5Iyy/7Y1h/ybixV6HirsVdirsVdirsVdirsVdirsVdirsVdirGvI39zrf/AG2b/wD5&#xA;O4qxn/133/tw/wDMnFURd/8AkjLL/tjWH/JuLFXoeKuxV2KuxV2KuxV2KuxV2KuxV2KuxV2Ksa8j&#xA;f3Ot/wDbZv8A/k7irGf/AF33/tw/8ycVRF3/AOSMsv8AtjWH/JuLFXoeKuxV2KuxV2KuxV2KuxV2&#xA;KuxV2KuxV2Ksa8jf3Ot/9tm//wCTuKsZ/wDXff8Atw/8ycVRF3/5Iyy/7Y1h/wAm4sVeh4q7FXYq&#xA;7FXYq7FXYq7FXYq7FXYq7FXYqxryN/c63/22b/8A5O4qxn/133/tw/8AMnFURd/+SMsv+2NYf8m4&#xA;sVeh4q7FXYq7FXYq7FXYq7FXYq7FXYq7FXYqxryN/c63/wBtm/8A+TuKsZ/9d9/7cP8AzJxVFyW9&#xA;zcfkjYw20MlxO2jWPCGFGkkYiKI0VFBYn5Yqnf8Aj7Tf+rZrP/cJv/8Aqjirv8fab/1bNZ/7hN//&#xA;ANUcVd/j7Tf+rZrP/cJv/wDqjirv8fab/wBWzWf+4Tf/APVHFXf4+03/AKtms/8AcJv/APqjirv8&#xA;fab/ANWzWf8AuE3/AP1RxV3+PtN/6tms/wDcJv8A/qjirv8AH2m/9WzWf+4Tf/8AVHFXf4+03/q2&#xA;az/3Cb//AKo4q7/H2m/9WzWf+4Tf/wDVHFXf4+03/q2az/3Cb/8A6o4q7/H2m/8AVs1n/uE3/wD1&#xA;RxV3+PtN/wCrZrP/AHCb/wD6o4q15B9ZrDUriS3ntVutUvLiGO6ikgkMcklUYxyBWFR4jFWNf+u+&#xA;/wDbh/5k4qy3yD/ygnlz/tl2X/UOmKp9irsVdirsVdiqU6zrU9tPFp+nQC81e5UvFAzcI44lIVpp&#xA;3Abiik02BZjsB1IVQ66P5qkHqT+YPTmO5itrSFYAfCk3rSEf89PuxV1vrGq6ffQafryRMt23p2Wq&#xA;2wMcLybkQyxOztFIwHw/Eyt4g0BVT7FXYq7FXYq7FXYq80/9d9/7cP8AzJxVlf5eSLJ5C8uMvQab&#xA;aL9KwKp/EYqyDFXYq7FXYq7FUi8vxrJq/mC9ch52vEtgepSGC3jKR/LnI7/NsVT3FUo8320Vx5X1&#xA;RJGCcLaSWOU0/dyQqZI5BXujqGHyxVMbKdp7OCdl4NLGjsvShZQadTiqtirsVdirsVad1RGdjRVB&#xA;LHwA3xV5x6Un/Qv/AB4nl/h/lT/J+r8q/wDA74qnvkaUae2oeVZzxuNJmeSzB2Mlhcu0kDr4hORi&#xA;anQr74qyvFXYq7FXYq7FWOX0kuga1caoYnk0bUgh1FolLtb3ESiNbhkWpMbxKqOQPh4qfs8iFU8t&#xA;NQsLy1F3aXMVxasOS3ETq8ZHWvJSRirHNW1GHzNy0LSH+s2Mx4azqMfxQJAD+8t0kHwvLKPgIWvA&#xA;VLUNAVWVdMVdirsVdirsVY5581Ka30NtOsjXVtaP6P06PqecwIeWn8sMfKRj7Yqmf6Esv0B+g6H6&#xA;l9U+o07+l6fpf8RxVB+ZfLTam1vf2Fx9Q12w5GwvwvMUenOGZKj1IpKbjt1G+KoCLzy2ngQeatPm&#xA;0m4XY3kaPc2EhH7STxq3AHrxlCke+KouP8w/IUi8l8x6aB/lXcCn7mYHFV3+PvIn/Ux6X/0m2/8A&#xA;zXirv8feRP8AqY9L/wCk23/5rxV3+PvIn/Ux6X/0m2//ADXirv8AH3kT/qY9L/6Tbf8A5rxVKbq/&#xA;/Ji7uTdXVx5cuLompnlexeQkd+TEnFU0i89eQIo1ii8w6THGgoiLeWwUAdgA+Krv8feRP+pj0v8A&#xA;6Tbf/mvFXf4+8if9THpf/Sbb/wDNeKu/x95E/wCpj0v/AKTbf/mvFWn/ADB8hopY+Y9MIHWl5Ax+&#xA;4OTiqEk/MLTbkel5dtbjzBdNsn1RGW2B7GS7kCwqvyYn2xVEaD5dvl1B9d1+WO61yRDFCsQP1e0g&#xA;Y1MMAbcliPjkO7ew2xVkWKv/2Q==</xmpGImg:image>
               </rdf:li>
            </rdf:Alt>
         </xmp:Thumbnails>
      </rdf:Description>
      <rdf:Description rdf:about=""
            xmlns:xmpMM="http://ns.adobe.com/xap/1.0/mm/"
            xmlns:stRef="http://ns.adobe.com/xap/1.0/sType/ResourceRef#"
            xmlns:stEvt="http://ns.adobe.com/xap/1.0/sType/ResourceEvent#">
         <xmpMM:RenditionClass>proof:pdf</xmpMM:RenditionClass>
         <xmpMM:OriginalDocumentID>uuid:65E6390686CF11DBA6E2D887CEACB407</xmpMM:OriginalDocumentID>
         <xmpMM:DocumentID>xmp.did:0180117407206811822AD23EA7250672</xmpMM:DocumentID>
         <xmpMM:InstanceID>xmp.iid:0180117407206811822AD23EA7250672</xmpMM:InstanceID>
         <xmpMM:DerivedFrom rdf:parseType="Resource">
            <stRef:instanceID>uuid:0422f9ea-96fe-9946-a099-8d9eefc40c79</stRef:instanceID>
            <stRef:documentID>xmp.did:66A6819719206811822A897E387FE54C</stRef:documentID>
            <stRef:originalDocumentID>uuid:65E6390686CF11DBA6E2D887CEACB407</stRef:originalDocumentID>
            <stRef:renditionClass>proof:pdf</stRef:renditionClass>
         </xmpMM:DerivedFrom>
         <xmpMM:History>
            <rdf:Seq>
               <rdf:li rdf:parseType="Resource">
                  <stEvt:action>saved</stEvt:action>
                  <stEvt:instanceID>xmp.iid:0180117407206811822AD23EA7250672</stEvt:instanceID>
                  <stEvt:when>2014-03-09T12:37:30-07:00</stEvt:when>
                  <stEvt:softwareAgent>Adobe Illustrator CS6 (Macintosh)</stEvt:softwareAgent>
                  <stEvt:changed>/</stEvt:changed>
               </rdf:li>
            </rdf:Seq>
         </xmpMM:History>
      </rdf:Description>
      <rdf:Description rdf:about=""
            xmlns:illustrator="http://ns.adobe.com/illustrator/1.0/">
         <illustrator:StartupProfile>Web</illustrator:StartupProfile>
      </rdf:Description>
      <rdf:Description rdf:about=""
            xmlns:xmpTPg="http://ns.adobe.com/xap/1.0/t/pg/"
            xmlns:stDim="http://ns.adobe.com/xap/1.0/sType/Dimensions#"
            xmlns:xmpG="http://ns.adobe.com/xap/1.0/g/">
         <xmpTPg:NPages>1</xmpTPg:NPages>
         <xmpTPg:HasVisibleTransparency>False</xmpTPg:HasVisibleTransparency>
         <xmpTPg:HasVisibleOverprint>False</xmpTPg:HasVisibleOverprint>
         <xmpTPg:MaxPageSize rdf:parseType="Resource">
            <stDim:w>366.000000</stDim:w>
            <stDim:h>774.000000</stDim:h>
            <stDim:unit>Points</stDim:unit>
         </xmpTPg:MaxPageSize>
         <xmpTPg:PlateNames>
            <rdf:Seq>
               <rdf:li>Cyan</rdf:li>
               <rdf:li>Magenta</rdf:li>
               <rdf:li>Yellow</rdf:li>
               <rdf:li>Black</rdf:li>
            </rdf:Seq>
         </xmpTPg:PlateNames>
         <xmpTPg:SwatchGroups>
            <rdf:Seq>
               <rdf:li rdf:parseType="Resource">
                  <xmpG:groupName>Default Swatch Group</xmpG:groupName>
                  <xmpG:groupType>0</xmpG:groupType>
               </rdf:li>
            </rdf:Seq>
         </xmpTPg:SwatchGroups>
      </rdf:Description>
      <rdf:Description rdf:about=""
            xmlns:pdf="http://ns.adobe.com/pdf/1.3/">
         <pdf:Producer>Adobe PDF library 10.01</pdf:Producer>
      </rdf:Description>
   </rdf:RDF>
</x:xmpmeta>





















<?xpacket end="w"?>
	</metadata>
<g id="Body">
	<g>
		<path fill="#FFFFFF" d="M57.178,772.5C26.477,772.5,1.5,747.516,1.5,716.805V57.191C1.5,26.483,26.477,1.5,57.178,1.5h251.65
			c30.697,0,55.672,24.983,55.672,55.691v659.614c0,30.711-24.975,55.695-55.672,55.695H57.178z M21.5,672.5h323v-571h-323V672.5z"
			/>
	</g>
	<g>
		<path fill="#4B4B4B" d="M308.828,3C338.698,3,363,27.31,363,57.191v659.614C363,746.688,338.698,771,308.828,771H57.178
			C27.304,771,3,746.688,3,716.805V57.191C3,27.31,27.304,3,57.178,3H308.828 M20,674h3h320h3v-3V103v-3h-3H23h-3v3v568V674
			 M308.828,0H57.178C25.601,0,0,25.608,0,57.191v659.614C0,748.391,25.601,774,57.178,774h251.65
			C340.399,774,366,748.391,366,716.805V57.191C366,25.608,340.399,0,308.828,0L308.828,0z M23,671V103h320v568H23L23,671z"/>
	</g>
</g>
<g id="Home_Button_2_">
	<g id="Button">
		<path fill="#4B4B4B" d="M184.5,686.5c17.645,0,32,14.355,32,32s-14.355,32-32,32c-17.645,0-32-14.355-32-32
			S166.855,686.5,184.5,686.5 M184.5,684.5c-18.773,0-34,15.219-34,34c0,18.779,15.227,34,34,34c18.777,0,34-15.221,34-34
			C218.5,699.719,203.277,684.5,184.5,684.5L184.5,684.5z"/>
	</g>
	<path id="Icon" display="none" fill="#AAAAAA" d="M188.4,707.5c2.303,0,3.338,0.103,4.373,0.438
		c0.965,0.381,1.843,1.22,2.156,2.062c0.36,1.199,0.569,2.363,0.569,4.681v8.113c0,2.28-0.2,3.396-0.569,4.624
		c-0.301,0.805-1.035,1.483-2.025,1.87c-0.564,0.178-1.217,0.214-2.143,0.214c-0.301,0-0.621-0.004-0.969-0.008
		c-0.425-0.005-0.886-0.011-1.395-0.011H180.6c-0.512,0-0.972,0.006-1.391,0.011c-0.336,0.004-0.646,0.008-0.934,0.008
		c-1.026,0-1.554-0.055-2.056-0.213c-1.023-0.399-1.858-1.151-2.145-1.933c-0.327-1.078-0.575-2.117-0.575-4.562v-8.113
		c0-2.282,0.202-3.396,0.575-4.629c0.332-0.92,1.137-1.761,2.022-2.112c1.028-0.331,2.136-0.438,4.502-0.438L188.4,707.5
		 M188.4,705.5h-7.8c-2.477,0-3.838,0.113-5.174,0.553c-1.452,0.554-2.724,1.857-3.251,3.373c-0.423,1.385-0.675,2.672-0.675,5.254
		v8.113c0,2.576,0.252,3.801,0.675,5.189c0.527,1.514,1.925,2.641,3.378,3.19c0.836,0.275,1.634,0.327,2.723,0.327
		c0.648,0,1.4-0.019,2.324-0.019h7.8c0.925,0,1.692,0.019,2.363,0.019c1.125,0,1.973-0.052,2.809-0.327
		c1.451-0.551,2.722-1.613,3.257-3.127c0.422-1.387,0.672-2.678,0.672-5.254v-8.113c0-2.582-0.25-3.926-0.672-5.311
		c-0.535-1.517-1.931-2.764-3.384-3.316C192.113,705.613,190.875,705.5,188.4,705.5L188.4,705.5z"/>
</g>
<g id="Earpiece">
	<path fill="#4B4B4B" d="M211,66.5c1.103,0,2,0.897,2,2s-0.897,2-2,2h-53c-1.103,0-2-0.897-2-2s0.897-2,2-2H211 M211,64.5h-53
		c-2.209,0-4,1.791-4,4s1.791,4,4,4h53c2.209,0,4-1.791,4-4S213.209,64.5,211,64.5L211,64.5z"/>
</g>
<g id="Front_Camera">
	<path fill="#4B4B4B" d="M184.497,32.999L184.497,32.999C187.531,33,190,35.468,190,38.502c0,3.031-2.469,5.497-5.503,5.497
		c-3.031,0-5.497-2.466-5.497-5.497C179,35.468,181.466,33,184.497,32.999 M184.497,30.999c-4.141,0-7.497,3.361-7.497,7.503
		c0,4.137,3.356,7.497,7.497,7.497c4.142,0,7.503-3.36,7.503-7.497C192,34.36,188.639,31,184.497,30.999L184.497,30.999z"/>
</g>
</svg>
