<?xml version="1.0" encoding="utf-8"?>
<!-- Generator: Adobe Illustrator 16.0.4, SVG Export Plug-In . SVG Version: 6.00 Build 0)  -->
<!DOCTYPE svg PUBLIC "-//W3C//DTD SVG 1.1//EN" "http://www.w3.org/Graphics/SVG/1.1/DTD/svg11.dtd">
<svg version="1.1" id="Nexus5" xmlns="http://www.w3.org/2000/svg" xmlns:xlink="http://www.w3.org/1999/xlink" x="0px" y="0px"
	 width="405px" height="795px" viewBox="0 0 405 795" enable-background="new 0 0 405 795" xml:space="preserve">
<g id="Body">
	<g>
		<path fill="#777777" d="M173.392,793.661c-64.275,0-111.215-3.731-139.516-11.091C14.251,777.468,5.5,768.663,5.5,754.021v-476.5
			h-4v-122h4v-115.5c0-16.125,10.854-22.112,28.368-26.546C81.087,1.522,169.183,1.522,202.348,1.522c0,0,5.506-0.005,8.271-0.01
			c3.266-0.005,6.834-0.012,10.653-0.012c46.147,0,111.995,1.138,150.859,10.977c24.932,6.311,28.368,16.968,28.368,27.545v63.5h3
			v47h-3v603.5c0,14.643-8.752,23.445-28.378,28.55c-28.302,7.357-75.244,11.091-139.523,11.091c-7.781,0-14.66-0.05-20.188-0.089
			c-3.781-0.027-6.958-0.052-9.41-0.052c-2.453,0-5.63,0.022-9.413,0.052C188.058,793.611,181.176,793.661,173.392,793.661z
			 M21.5,706.521h363v-643h-363V706.521z"/>
	</g>
	<g>
		<path fill="#555555" d="M221.27,3c46.069,0,111.793,1.133,150.494,10.931c10.581,2.679,17.794,6.241,22.053,10.892
			c3.536,3.864,5.186,8.694,5.186,15.2v65h3v44h-3v605c0,9.314-3.098,20.812-27.255,27.097
			c-28.179,7.326-74.995,11.042-139.147,11.042c-7.775,0-14.652-0.05-20.177-0.089c-3.733-0.026-6.96-0.05-9.421-0.05
			s-5.688,0.021-9.424,0.05c-5.528,0.039-12.407,0.089-20.183,0.089c-64.149,0-110.962-3.716-139.14-11.042
			C10.098,774.838,7,763.339,7,754.021v-478H3v-119h4v-117c0-11.234,4.556-19.35,27.236-25.092
			C81.273,3.022,169.234,3.022,202.348,3.022C202.348,3.022,217.452,3,221.27,3 M20,708l366,0.021v-646H20v646 M221.27,0
			c-7.047,0-13.235,0.022-18.27,0.022c-0.217,0-0.432,0-0.652,0c-34.681,0-121.599,0.038-168.848,12
			C10.095,17.948,4,26.828,4,40.022v114H0v125h4v475c0,12.896,6.196,23.94,29.499,30C71.571,793.921,134.222,795,173.394,795
			c13.083,0,23.555,0,29.606,0c6.053,0,16.516,0,29.598,0c39.172,0,101.831-1.077,139.902-10.979c23.303-6.06,29.5-17.104,29.5-30
			v-602h3v-50h-3v-62c0-13.195-6.094-23.075-29.5-29C331.94,0.755,262.154,0,221.27,0L221.27,0z M23,705V65h360v640l-360,0.021V705z
			"/>
	</g>
</g>
<circle id="Front_Camera" fill="#555555" cx="70.5" cy="41.525" r="5"/>
<path id="Speaker" fill="#555555" d="M214.5,40.525c0,5.517-4.479,9.997-10.003,9.997c-5.522,0-9.997-4.48-9.997-9.997
	c0-5.521,4.475-10.003,9.997-10.003C210.021,30.522,214.5,35.004,214.5,40.525z"/>
</svg>
