<!-- Copyright © 2014 Brian Speir. All rights reserved.  -->
<svg version="1.1" id="gesture-drag" xmlns="http://www.w3.org/2000/svg" xmlns:xlink="http://www.w3.org/1999/xlink" x="0px"
	 y="0px" width="320px" height="320px" viewBox="-44 106.5 320 320" enable-background="new -44 106.5 320 320"
	 xml:space="preserve">
<g id="star-fill" opacity="0.1">
	<path opacity="0.5" fill="#AAAAAA" enable-background="new    " d="M121.812,248.279c-1.188-0.329-2.416-0.561-3.688-0.68
		c-0.699-0.07-1.408-0.101-2.127-0.101s-1.428,0.028-2.127,0.101c-1.27,0.119-2.497,0.351-3.686,0.68L116,236.5L121.812,248.279z"/>
	<path opacity="0.5" fill="#AAAAAA" enable-background="new    " d="M97.573,257.52c-0.679,1.041-1.269,2.131-1.757,3.28
		c-0.58,1.33-1.029,2.74-1.319,4.19c-0.259,1.22-0.41,2.47-0.45,3.75l-9.547-9.32L97.573,257.52z"/>
	<path opacity="0.5" fill="#AAAAAA" enable-background="new    " d="M108.51,290.189L96.525,296.5l2.287-13.3
		c0.778,0.979,1.637,1.89,2.566,2.729c1.139,1.01,2.377,1.908,3.715,2.67C106.173,289.229,107.32,289.76,108.51,290.189z"/>
	<path opacity="0.5" fill="#AAAAAA" enable-background="new    " d="M133.188,283.2l2.287,13.3l-11.984-6.311
		c1.189-0.432,2.337-0.961,3.416-1.59c1.338-0.762,2.576-1.66,3.715-2.67C131.551,285.09,132.408,284.18,133.188,283.2z"/>
	<path opacity="0.5" fill="#AAAAAA" enable-background="new    " d="M147.5,259.42l-9.547,9.32c-0.041-1.28-0.191-2.53-0.45-3.75
		c-0.29-1.45-0.739-2.86-1.319-4.19c-0.488-1.149-1.078-2.239-1.757-3.28L147.5,259.42z"/>
</g>
<g id="star-outline" opacity="0.3">
	<path fill="#555555" d="M97.598,257.52l-13.058,1.9l9.535,9.32c0.04-1.28,0.19-2.53,0.448-3.75l-3.561-3.48l4.877-0.71
		C96.33,259.648,96.919,258.561,97.598,257.52z"/>
	<path fill="#555555" d="M105.107,288.6l-4.578,2.42l0.867-5.09c-0.929-0.84-1.785-1.75-2.562-2.729L96.55,296.5l11.97-6.311
		C107.332,289.76,106.186,289.229,105.107,288.6z"/>
	<path fill="#555555" d="M134.402,257.52c0.679,1.041,1.268,2.131,1.756,3.28l4.878,0.71l-3.562,3.48
		c0.26,1.22,0.408,2.47,0.448,3.75l9.535-9.32L134.402,257.52z"/>
	<path fill="#555555" d="M130.604,285.93l0.867,5.09l-4.578-2.42c-1.078,0.631-2.225,1.16-3.412,1.59l11.97,6.311l-2.284-13.3
		C132.389,284.18,131.531,285.09,130.604,285.93z"/>
	<path fill="#555555" d="M116,236.5l-5.807,11.779c1.188-0.329,2.414-0.561,3.683-0.68l2.124-4.32l2.124,4.32
		c1.269,0.119,2.494,0.351,3.683,0.68L116,236.5z"/>
</g>
<ellipse id="touch" opacity="0.5" fill="#555555" enable-background="new    " cx="116" cy="269.5" rx="21.973" ry="22"/>
</svg>
