<?xml version="1.0" encoding="utf-8"?>
<!-- Generator: Adobe Illustrator 16.0.4, SVG Export Plug-In . SVG Version: 6.00 Build 0)  -->
<!DOCTYPE svg PUBLIC "-//W3C//DTD SVG 1.1//EN" "http://www.w3.org/Graphics/SVG/1.1/DTD/svg11.dtd">
<svg version="1.1" id="gesture-touch-hold" xmlns="http://www.w3.org/2000/svg" xmlns:xlink="http://www.w3.org/1999/xlink" x="0px"
	 y="0px" width="320px" height="320px" viewBox="-42.5 109.5 320 320" enable-background="new -42.5 109.5 320 320"
	 xml:space="preserve">
<path id="release" opacity="0.2" fill="#555555" enable-background="new    " d="M117.5,242c15.163,0,27.5,12.337,27.5,27.5
	S132.663,297,117.5,297S90,284.663,90,269.5S102.337,242,117.5,242 M117.5,236.5c-18.227,0-33,14.773-33,33s14.773,33,33,33
	s33-14.773,33-33S135.727,236.5,117.5,236.5L117.5,236.5z"/>
<circle id="touch" opacity="0.5" fill="#555555" enable-background="new    " cx="117.5" cy="269.5" r="22"/>
<path id="hold" opacity="0.6" fill="#FFFFFF" enable-background="new    " d="M117.5,254c8.547,0,15.5,6.953,15.5,15.5
	s-6.953,15.5-15.5,15.5s-15.5-6.953-15.5-15.5S108.953,254,117.5,254 M117.5,251c-10.217,0-18.5,8.283-18.5,18.5
	s8.283,18.5,18.5,18.5s18.5-8.283,18.5-18.5S127.717,251,117.5,251L117.5,251z"/>
</svg>
