<?xml version="1.0" encoding="utf-8"?>
<!-- Generator: Adobe Illustrator 16.0.5, SVG Export Plug-In . SVG Version: 6.00 Build 0)  -->
<!DOCTYPE svg PUBLIC "-//W3C//DTD SVG 1.1//EN" "http://www.w3.org/Graphics/SVG/1.1/DTD/svg11.dtd">
<svg version="1.1" id="design" xmlns="http://www.w3.org/2000/svg" xmlns:xlink="http://www.w3.org/1999/xlink" x="0px" y="0px"
	 width="90px" height="48px" viewBox="0 0 90 48" enable-background="new 0 0 90 48" xml:space="preserve">
<g id="brush" opacity="0.87">
	<path d="M89.62,15.1c-0.07-0.79-23.46-2.94-23.46-2.94s22.979-1.11,22.85-1.91C87.72,2.35,85.62,0,85.62,0L55.46,2.43h-6.25
		c0,0-0.39,0-2.99,0c-6.32,0-8.27,5.34-8.27,9.25c0,6.13-6.43,6.32-9.03,6.32H28.7c-3.87-0.01-4.39-0.01-6.81-0.49
		c-5-0.98-9.8-2.92-12.65-2.92c-5.1,0-9.24,4.14-9.24,9.25c0,5.101,4.14,9.24,9.24,9.24c2.84,0,7.71-1.95,12.65-2.92
		c2.42-0.47,2.94-0.47,6.81-0.48h0.24c2.62,0,9,0.2,9.01,6.32c0,3.91,1.95,9.24,8.27,9.24c2.59,0,3,0,3,0h6.24L85.62,48
		c0,0,4.38-4.22,4.38-23.67C90,20.79,89.85,17.73,89.62,15.1z M46.22,43.24c-2.19,0-3.78-0.75-4.87-2.3
		c-0.89-1.271-1.4-3.07-1.4-4.94c-0.01-7.24-6.9-8.32-11.01-8.32h-0.28c-3.86,0.011-4.55,0.011-7.15,0.521
		c-2.16,0.42-4.31,1.03-6.21,1.56c-2.41,0.681-4.69,1.32-6.06,1.32C5.25,31.08,2,27.83,2,23.84c0-4,3.25-7.25,7.24-7.25
		c1.38,0,3.64,0.64,6.04,1.32c1.9,0.53,4.04,1.14,6.22,1.57c2.61,0.51,3.3,0.51,7.2,0.52h0.22c9.11,0,11.03-4.53,11.03-8.32
		c0-1.21,0.3-7.25,6.27-7.25H50v38.81H46.22z M84.65,45.9L55.64,43.25c-0.06,0-0.12-0.01-0.18-0.01H52V4.43h3.62l28.96-2.34
		c0.53,1.01,1.4,3.05,2.13,6.65c-3.58,0.44-12.52,1.03-20.65,1.42c-1.04,0.06-1.88,0.91-1.899,1.96c-0.021,1.05,0.77,1.94,1.82,2.03
		c8.81,0.81,18.52,1.87,21.75,2.46c0.18,2.4,0.27,4.99,0.27,7.72C88,38.37,85.66,44.08,84.65,45.9z"/>
	<path fill-rule="evenodd" clip-rule="evenodd" d="M12.65,23.84c0,1.88-1.53,3.4-3.41,3.4c-1.88,0-3.4-1.521-3.4-3.4
		s1.52-3.41,3.4-3.41C11.12,20.43,12.65,21.96,12.65,23.84z"/>
</g>
</svg>
