<?xml version="1.0" encoding="utf-8"?>
<!-- Copyright (C) 2014 Brian Speir. All rights reserved. -->
<!DOCTYPE svg PUBLIC "-//W3C//DTD SVG 1.1//EN" "http://www.w3.org/Graphics/SVG/1.1/DTD/svg11.dtd">
<svg version="1.1" id="Escutcheon" xmlns="http://www.w3.org/2000/svg" xmlns:xlink="http://www.w3.org/1999/xlink" x="0px" y="0px"
	 width="120px" height="120px" viewBox="0.5 120.5 120 120" enable-background="new 0.5 120.5 120 120" xml:space="preserve">
<path id="Right" fill="#AAAAAA" d="M110.04,120.5v72.62c-0.899,20.45-14.181,37.688-32.54,44.39V120.5H110.04z"/>
<path id="Middle" fill="#BBBBBB" d="M77.5,120.5v117.01c-5.3,1.93-11.029,2.99-17,2.99c-5.97,0-11.7-1.061-17-2.99V120.5H77.5z"/>
<path id="Left" fill="#888888" d="M43.5,120.5v117.01c-18.36-6.699-31.64-23.939-32.54-44.39V120.5H43.5z"/>
<polygon id="Star" fill="#FFFFFF" points="77.5,144.17 82.753,154.921 94.5,156.645 85.999,165.014 88.005,176.83 77.5,171.251
	66.995,176.83 69.001,165.014 60.5,156.645 72.247,154.921 "/>
<path id="Outline" fill="#777777" d="M108.491,122.509v70.568c-1.151,25.47-22.222,45.414-47.991,45.414
	c-25.769,0-46.841-19.944-47.991-45.414v-70.568H108.491 M110.5,120.5h-100v72.622c1.167,26.36,23.106,47.378,50,47.378
	c26.893,0,48.832-21.018,50-47.378V120.5L110.5,120.5z"/>
</svg>
