<?xml version="1.0" encoding="utf-8"?>
<!-- Copyright (C) 2014 Brian Speir. All rights reserved. -->
<!DOCTYPE svg PUBLIC "-//W3C//DTD SVG 1.1//EN" "http://www.w3.org/Graphics/SVG/1.1/DTD/svg11.dtd">
<svg version="1.1" id="Escutcheon" xmlns="http://www.w3.org/2000/svg" xmlns:xlink="http://www.w3.org/1999/xlink" x="0px" y="0px"
	 width="120px" height="120px" viewBox="0 0 120 120" enable-background="new 0 0 120 120" xml:space="preserve">
<linearGradient id="Right_1_" gradientUnits="userSpaceOnUse" x1="93.2695" y1="0" x2="93.2695" y2="117.0103">
	<stop  offset="0" style="stop-color:#BBBBBB"/>
	<stop  offset="0.5058" style="stop-color:#AFAFAF"/>
	<stop  offset="1" style="stop-color:#AAAAAA"/>
</linearGradient>
<path id="Right" fill="url(#Right_1_)" d="M109.54,0v72.62c-0.899,20.45-14.181,37.688-32.54,44.39V0H109.54z"/>
<linearGradient id="Middle_1_" gradientUnits="userSpaceOnUse" x1="59.9995" y1="0" x2="59.9995" y2="120.0005">
	<stop  offset="0" style="stop-color:#FFFFFF"/>
	<stop  offset="0.2274" style="stop-color:#E7E7E7"/>
	<stop  offset="0.5131" style="stop-color:#CFCFCF"/>
	<stop  offset="0.7781" style="stop-color:#C0C0C0"/>
	<stop  offset="1" style="stop-color:#BBBBBB"/>
</linearGradient>
<path id="Middle" fill="url(#Middle_1_)" d="M77,0v117.01c-5.3,1.93-11.029,2.99-17,2.99c-5.97,0-11.7-1.061-17-2.99V0H77z"/>
<linearGradient id="Left_1_" gradientUnits="userSpaceOnUse" x1="26.73" y1="0" x2="26.73" y2="117.0103">
	<stop  offset="0" style="stop-color:#BBBBBB"/>
	<stop  offset="0.0877" style="stop-color:#B4B4B4"/>
	<stop  offset="0.4252" style="stop-color:#9C9C9C"/>
	<stop  offset="0.738" style="stop-color:#8D8D8D"/>
	<stop  offset="1" style="stop-color:#888888"/>
</linearGradient>
<path id="Left" fill="url(#Left_1_)" d="M43,0v117.01c-18.36-6.699-31.64-23.939-32.54-44.39V0H43z"/>
<polygon id="Star" fill="#FFFFFF" points="77,23.67 82.253,34.421 94,36.145 85.499,44.514 87.505,56.33 77,50.751 66.495,56.33
	68.501,44.514 60,36.145 71.747,34.421 "/>
<linearGradient id="Outline_1_" gradientUnits="userSpaceOnUse" x1="59.9995" y1="0" x2="59.9995" y2="120.0005">
	<stop  offset="0" style="stop-color:#888888"/>
	<stop  offset="0.5058" style="stop-color:#7C7C7C"/>
	<stop  offset="1" style="stop-color:#777777"/>
</linearGradient>
<path id="Outline" fill="url(#Outline_1_)" d="M107.991,2.009v70.568C106.84,98.047,85.77,117.991,60,117.991
	c-25.769,0-46.841-19.944-47.991-45.414V2.009H107.991 M110,0H10v72.622C11.167,98.982,33.106,120,60,120
	c26.893,0,48.832-21.018,50-47.378V0L110,0z"/>
</svg>
