<?xml version="1.0" encoding="utf-8"?>
<!-- Generator: Adobe Illustrator 16.0.4, SVG Export Plug-In . SVG Version: 6.00 Build 0)  -->
<!DOCTYPE svg PUBLIC "-//W3C//DTD SVG 1.1//EN" "http://www.w3.org/Graphics/SVG/1.1/DTD/svg11.dtd">
<svg version="1.1" id="Layer_1" xmlns="http://www.w3.org/2000/svg" xmlns:xlink="http://www.w3.org/1999/xlink" x="0px" y="0px"
	 width="240px" height="120px" viewBox="0 0 240 120" enable-background="new 0 0 240 120" xml:space="preserve">
<g>
	<polygon opacity="0.5" fill="#555555" points="85.116,60 106.224,90 0,90 0,30 106.224,30 	"/>
	<polygon fill="#555555" points="240,90 106.224,90 85.116,60 106.224,30 240,30 	"/>
	<path fill="#FFFFFF" d="M76.742,72.031h-6.204V39.072h6.204V72.031z M86.78,72.031h6.798L85.116,60l8.464-12.034h-6.8L78.392,60
		L86.78,72.031z M145.674,59.054c0-7.126-4.232-11.575-10.168-11.575c-4.15,0-6.188,2.197-6.754,2.815h-0.092l-0.047-2.328h-5.594
		v33.03h6.194V72.02c0.152,0.045,1.791,0.459,3.787,0.459C140.736,72.479,145.674,67.432,145.674,59.054z M139.195,59.054
		c0,5.959-3.246,8.519-6.73,8.519c-1.637,0-3.188-0.479-3.25-0.496v-9.172c0-3.524,1.781-5.347,4.549-5.347
		C136.957,52.558,139.195,55.136,139.195,59.054z M194.248,72.479c1.648,0,3.455-0.215,5.012-0.643v-5.383
		c-0.369,0.176-2.012,0.828-4.084,0.828c-4.67,0-6.875-3.156-6.875-7.289c0-4.214,2.352-7.278,6.875-7.278
		c2.072,0,3.715,0.648,4.084,0.826v-5.382c-1.557-0.442-3.363-0.678-5.012-0.678c-7.674,0-12.443,5.008-12.443,12.514
		C181.805,67.5,186.574,72.479,194.248,72.479z M56.966,72.479c2.557,0,4.542-0.537,5.01-0.686V66.42
		c-0.355,0.184-1.998,0.83-4.082,0.83c-4.481,0-6.876-3.129-6.876-7.26c0-4.214,2.351-7.278,6.876-7.278
		c2.084,0,3.727,0.648,4.082,0.826v-5.382c-1.556-0.442-3.361-0.679-5.01-0.679c-7.672,0-12.439,5.009-12.439,12.515
		C44.526,67.5,49.294,72.479,56.966,72.479z M172.986,72.031c-0.006-0.957-0.141-4.254-0.141-6.195v-7.89
		c0-6.788-4.382-10.468-12.304-10.468c-3.401,0-5.728,0.705-6.219,0.857v4.88c0.415-0.114,3.397-0.996,5.812-0.996
		c5.207,0,6.514,2.274,6.514,4.152v0.988c-0.237,0-3.459,0-3.692,0c-5.886,0-10.207,2.695-10.207,7.519
		c0,4.472,3.401,7.601,7.699,7.601c4.672,0,6.143-2.4,6.684-3.043l0.048,0.053l0.266,2.539h5.541V72.031L172.986,72.031z
		 M166.648,62.676c0,2.895-1.635,5.102-4.498,5.102c-2.187,0-3.49-1.309-3.49-3.141c0-1.848,1.414-3.254,5.764-3.254
		c0.146,0,2.084,0,2.225,0V62.676L166.648,62.676z M227.17,58.18c0-5.958-3.434-10.701-10.447-10.701
		c-7.227,0-10.959,5.18-10.959,12.535c0,8.268,5.35,12.464,12.551,12.464c4.254,0,6.468-0.994,7.396-1.293V66.17
		c-0.729,0.328-3.414,1.562-7.027,1.506c-4.272-0.066-6.619-2.629-6.629-6.682h14.922C227.121,59.98,227.17,59.004,227.17,58.18z
		 M221.018,56.778h-8.856c0.125-2.893,1.948-4.798,4.517-4.798C219.285,51.98,220.895,53.886,221.018,56.778z M36.798,59.376
		c0-7.118-4.271-11.897-10.54-11.897c-3.452,0-5.458,1.747-5.922,2.207l0,0V39.07h-6.202v32.098c0.194,0.074,3.442,1.354,8.96,1.354
		C31.38,72.523,36.798,67.328,36.798,59.376z M30.302,59.398c0,6.109-3.41,8.174-6.821,8.174c-1.746,0-2.916-0.488-3.145-0.586
		v-9.274c0-3.754,2.284-5.102,4.596-5.102C28.124,52.61,30.302,55.188,30.302,59.398z M114.604,64.945
		c0-4.09-2.815-5.961-5.747-7.129c-0.284-0.11-0.952-0.376-1.213-0.469c-1.815-0.729-2.924-1.447-2.924-2.867
		c0-1.383,1.022-2.347,3.584-2.347c2.181,0,4.032,0.484,4.645,0.65v-4.916c-1.458-0.24-2.988-0.386-4.393-0.386
		c-6.786,0-10.228,3.34-10.228,7.424c0,4.04,3.052,5.966,5.302,6.848c0.274,0.113,1.09,0.433,1.468,0.586
		c1.435,0.574,2.965,1.347,2.965,2.914c0,1.267-1.114,2.474-4.187,2.474c-2.222,0-4.432-0.599-5.068-0.789v5.143
		c1.553,0.242,3.437,0.4,5.185,0.4C110.574,72.479,114.604,69.559,114.604,64.945z"/>
</g>
</svg>
