<?xml version="1.0" encoding="utf-8"?>
<!-- Generator: Adobe Illustrator 16.0.4, SVG Export Plug-In . SVG Version: 6.00 Build 0)  -->
<!DOCTYPE svg PUBLIC "-//W3C//DTD SVG 1.1//EN" "http://www.w3.org/Graphics/SVG/1.1/DTD/svg11.dtd">
<svg version="1.1" id="Layer_1" xmlns="http://www.w3.org/2000/svg" xmlns:xlink="http://www.w3.org/1999/xlink" x="0px" y="0px"
	 width="183px" height="120px" viewBox="0 0 183 120" enable-background="new 0 0 183 120" xml:space="preserve">
<g id="Signature">
	<path fill="#555555" d="M50.046,110c-0.554,0-1.113-0.086-1.669-0.254c-1.504-0.458-2.719-1.529-3.514-3.1
		c-1.857-3.664-1.465-9.924,1.075-17.172c2.405-6.854,7.156-12.484,12.507-16.887c-0.06-1.013-0.122-1.979-0.18-2.878
		c-2.036,2.267-4.3,4.324-5.625,5.382c-4.848,3.863-8.737,5.071-11.25,3.493c-2.795-1.758-4.113-6.315-0.792-12.38l-0.506-0.479
		C36.634,70.232,27.374,78.9,21.656,79.28c-1.938,0.139-3.533-0.636-4.496-2.152c-0.554-0.877-0.802-1.79-0.826-2.709
		c-3.636,2.91-7.634,5.31-10.707,5.712c-2.859,0.374-4.259-1.044-4.842-1.922c-0.744-1.122-0.968-2.516-0.644-4.021
		c0.68-3.185,3.839-6.892,8.239-9.674c4.6-2.896,13.139-5.583,16.66-3.41c0.062,0.039,0.125,0.082,0.183,0.127
		c0.06,0.047,0.116,0.1,0.167,0.151c1.46,1.49,0.306,3.33-0.998,4.948c-0.525,0.716-1.166,1.495-1.898,2.311
		c-1.582,1.995-3.688,4.973-2.57,6.732c0.235,0.369,0.584,0.697,1.516,0.641c5.123-0.341,15.695-10.937,16.875-13.49
		c0.222-0.478,0.658-0.82,1.173-0.92c0.515-0.097,1.048,0.054,1.432,0.414l2.87,2.696c0.57,0.536,0.681,1.397,0.266,2.062
		c-2.841,4.526-2.616,7.974-0.925,9.035c0.604,0.381,1.844,0.159,3.403-0.604c4.311-2.115,9.16-7.161,11.466-10.346
		c-0.059-2.351,0.131-3.422,0.795-4.135c0.382-0.41,0.899-0.635,1.451-0.635c1.08,0,1.92,0.559,2.247,1.491
		c0.372,1.067-0.172,2.563-1.186,4.194c0.051,1.086,0.131,2.32,0.207,3.486c0.02,0.301,0.039,0.609,0.061,0.924
		c5.809-4.137,11.911-6.914,16.281-8.328c0.077-0.023,0.156-0.051,0.234-0.075c3.405-1.197,7.062-1.857,9.524-1.233
		c0.532,0.126,1.008,0.317,1.407,0.588c0.05,0.033,0.101,0.069,0.147,0.109c0.051,0.04,0.096,0.083,0.139,0.128
		c1.581,1.606,0.117,3.62-1.302,5.326c-0.354,0.455-0.753,0.933-1.188,1.428c-1.676,2.085-4.184,5.334-2.976,7.243
		c0.234,0.369,0.585,0.706,1.521,0.641c5.129-0.347,15.695-10.938,16.871-13.492c0.223-0.478,0.662-0.82,1.175-0.92
		c0.511-0.101,1.048,0.053,1.434,0.412l2.872,2.696c0.57,0.537,0.68,1.399,0.266,2.062c-1.754,2.793-2.5,5.478-2.051,7.365
		c0.18,0.77,0.551,1.326,1.096,1.656c0.547,0.332,1.574,0.26,2.817-0.195c2.94-1.074,6.843-4.193,9.655-7.799
		c1.256-2.715,2.766-5.064,3.309-5.879c0.454-0.682,1.346-0.924,2.082-0.561c0.737,0.358,1.092,1.211,0.831,1.99
		c-0.7,2.088-1.901,4.188-3.382,6.143c-1.191,2.65-1.827,4.998-1.32,5.953c0.061,0.109,0.237,0.443,1.303,0.449
		c0.007,0,0.016,0,0.021,0c2.784,0,6.85-4.107,9.262-7.232c0.896-2.279,2.057-4.2,2.691-4.569c0.598-0.345,1.38-0.284,1.904,0.157
		c0.396,0.336,0.947,1.084,0.434,2.457c-0.27,0.717-1.021,1.99-2.101,3.457c-0.677,1.771-1.183,3.729-0.792,4.756
		c0.076,0.203,0.172,0.365,0.613,0.441c1.853,0.328,4.67-0.715,7.344-2.719c3.857-2.894,6.484-6.935,7.123-10.918
		c0.031-0.225,0.059-0.438,0.086-0.635c0.115-0.889,0.927-1.52,1.816-1.413c0.893,0.107,1.529,0.913,1.432,1.806
		c-0.027,0.24-0.059,0.479-0.098,0.722c-0.125,0.892-0.354,2.45-0.623,3.862c2.489-2.515,5.121-4.246,7.361-3.711
		c3.419,0.813,3.775,4.506,4.066,7.475c0.137,1.41,0.347,3.544,0.941,3.896c1.864,0.808,13.799-1.82,15.811-2.757
		c0.439-0.368,1.061-0.495,1.632-0.278c0.847,0.315,1.274,1.262,0.957,2.105c-0.294,0.78-1.013,1.09-1.849,1.389
		c-1.17,0.416-14.875,4.305-18.203,2.364c-2.041-1.2-2.299-3.846-2.549-6.403c-0.246-2.537-0.502-4.354-1.563-4.605
		c-2.136-0.512-8.175,6.801-12.243,13.686c-0.449,0.76-1.421,1.027-2.195,0.604c-0.773-0.427-1.07-1.388-0.673-2.175
		c0.017-0.032,0.664-1.305,1.485-2.979c-0.246,0.2-0.495,0.396-0.75,0.586c-3.473,2.604-7.068,3.814-9.873,3.324
		c-1.798-0.311-3.021-1.546-3.35-3.389c-0.02-0.104-0.033-0.207-0.045-0.315c-2.515,2.38-5.418,4.324-8.093,4.286
		c-2.495-0.014-3.647-1.197-4.172-2.186c-0.379-0.711-0.532-1.555-0.521-2.476c-2.254,1.937-4.611,3.423-6.64,4.165
		c-2.28,0.835-4.18,0.809-5.64-0.079c-1.303-0.786-2.197-2.065-2.586-3.698c-0.588-2.474,0.041-5.523,1.777-8.693l-0.51-0.479
		c-3.453,4.504-12.707,13.168-18.429,13.553c-1.941,0.129-3.541-0.633-4.505-2.152c-0.569-0.9-0.82-1.834-0.841-2.768
		c-3.666,2.938-7.683,5.377-10.694,5.77c-2.854,0.374-4.258-1.043-4.84-1.922c-0.743-1.124-0.965-2.514-0.642-4.021
		c0.18-0.83,0.524-1.697,1.018-2.572c-1.16,0.779-2.254,1.584-3.282,2.402c0.305,6.125,0.356,13.688-1.228,20.498
		c-1.264,5.42-3.613,12.364-7.627,14.682C52.023,109.729,51.042,110,50.046,110z M58.64,76.768
		c-5.326,5.049-8.38,10.28-9.611,13.793c-2.182,6.223-2.659,11.819-1.246,14.608c0.393,0.776,0.899,1.249,1.547,1.448
		c0.689,0.209,1.318,0.128,1.982-0.256c2.305-1.329,4.52-5.918,6.074-12.588C58.666,88.273,58.809,82.139,58.64,76.768z
		 M79.203,64.871c-1.788,0.619-3.604,1.438-5.154,2.412c-3.566,2.257-6.293,5.309-6.782,7.592c-0.137,0.637-0.079,1.152,0.17,1.53
		c0.131,0.196,0.48,0.726,2.001,0.433c4.225-0.814,10.84-6.379,14.518-10.355c0.177-0.223,0.351-0.438,0.515-0.643
		c0.233-0.287,0.455-0.549,0.674-0.81c0.28-0.331,0.655-0.776,0.97-1.185c0.047-0.072,0.092-0.143,0.132-0.21
		C85.088,63.545,82.859,63.72,79.203,64.871z M21.638,63.57c-2.794,0-7.876,1.426-11.507,3.713c-3.57,2.258-6.299,5.309-6.786,7.591
		c-0.137,0.636-0.08,1.151,0.171,1.528c0.13,0.199,0.481,0.728,2.003,0.434c4.233-0.816,10.865-6.402,14.537-10.382
		c0.18-0.226,0.353-0.438,0.515-0.64c0.216-0.267,0.438-0.529,0.658-0.791c0.273-0.325,0.64-0.763,0.95-1.164
		c0.059-0.088,0.113-0.174,0.163-0.256C22.128,63.582,21.893,63.57,21.638,63.57z"/>
	<path fill="#555555" d="M61.761,54.793c-0.043,0-0.136-0.004-0.178-0.008c-1.281-0.098-2.247-1.127-2.247-2.393
		c0-1.327,1.003-2.356,2.33-2.393c0.002,0,0.003,0,0.005,0c0.924,0,1.457,0.362,1.755,0.664c0.306,0.311,0.665,0.864,0.653,1.752
		C64.061,53.726,63.021,54.793,61.761,54.793z"/>
</g>
</svg>
