<?xml version="1.0" encoding="utf-8"?>
<!-- Generator: Adobe Illustrator 16.0.4, SVG Export Plug-In . SVG Version: 6.00 Build 0)  -->
<!DOCTYPE svg PUBLIC "-//W3C//DTD SVG 1.1//EN" "http://www.w3.org/Graphics/SVG/1.1/DTD/svg11.dtd">
<svg version="1.1" id="Layer_1" xmlns="http://www.w3.org/2000/svg" xmlns:xlink="http://www.w3.org/1999/xlink" x="0px" y="0px"
	 width="120px" height="120px" viewBox="-195.5 316.5 120 120" enable-background="new -195.5 316.5 120 120" xml:space="preserve">
<path fill="#555555" d="M-157.937,349.634c-1.535-14.499,7.954-28.387,22.039-32.137c7.175-1.909,14.979-1.058,21.558,2.384
	c4.997,2.618,8.939,6.811,15.001,5.165c4.215-1.141,8.421-2.284,12.63-3.426c6.094-1.651,8.467,7.994,2.717,10.208
	c9.488,6.044-7.938,13.837-11.718,16.104c-4.562,2.721-5.765,8.982-2.312,13.129c1.763,2.103,4.237,2.672,6.573,3.854
	c3.224,1.621,6.118,3.867,8.505,6.574c18.287,20.771-0.188,53.191-22.367,61.734c-23.948,9.229-53.194-2.189-70.156-19.916
	c-8.759-9.154-15.159-20.519-18.33-32.796c-1.372-5.25-3.568-12.029,1.289-16.174c7.293-6.207,12.115,1.532,15.937,6.649
	c10.855,14.529,31.231,13.604,45.692,5.279C-146.143,374.897-156.454,363.645-157.937,349.634z"/>
</svg>
