<?xml version="1.0" encoding="utf-8"?>
<!-- Generator: Adobe Illustrator 16.0.4, SVG Export Plug-In . SVG Version: 6.00 Build 0)  -->
<!DOCTYPE svg PUBLIC "-//W3C//DTD SVG 1.1//EN" "http://www.w3.org/Graphics/SVG/1.1/DTD/svg11.dtd">
<svg version="1.1" id="Layer_1" xmlns="http://www.w3.org/2000/svg" xmlns:xlink="http://www.w3.org/1999/xlink" x="0px" y="0px"
	 width="120px" height="120px" viewBox="0 0 120 120" enable-background="new 0 0 120 120" xml:space="preserve">
<g>
	<path id="Bowl" fill="#555555" d="M60.001,120C26.91,120,6.235,89.671,6.235,72.288c0-3.351,2.701-6.054,6.053-6.054
		c23.843,0,71.583,0,95.425,0c3.352,0,6.053,2.703,6.053,6.054C113.766,89.671,93.088,120,60.001,120z"/>
	<g id="Noodles">
		<path fill="#555555" d="M87.424,38.693c-1.383,0-2.715,0.13-4.01,0.41C77.426,33.089,69.141,29.4,60.001,29.4
			c-12.901,0-24.098,7.383-29.54,18.158c-7.728,2.596-14.179,7.975-18.167,14.93h7.244c0.72-0.945,1.519-1.829,2.365-2.701
			c2.48-2.482,5.384-4.443,8.59-5.788c3.348-1.409,6.885-2.121,10.535-2.121c3.651,0,7.216,0.712,10.536,2.121
			c2.894,1.208,5.505,2.915,7.815,5.038c-0.811,1.072-1.516,2.236-2.1,3.451h7.043c0.373-0.493,0.807-0.969,1.264-1.426
			c2.15-2.151,4.871-3.549,7.852-4.034c0.703,1.699,1.064,3.559,1.064,5.459h6.025c0-11.321-9.18-20.529-20.528-20.529
			c-4.82,0-9.258,1.657-12.766,4.449c-2.006-0.376-4.089-0.583-6.207-0.583c-0.815,0-1.624,0.021-2.403,0.095
			c0.671-0.903,1.438-1.746,2.247-2.558c2.482-2.481,5.385-4.442,8.593-5.789c3.349-1.436,6.885-2.146,10.536-2.146
			c3.649,0,7.187,0.711,10.536,2.146c3.205,1.347,6.109,3.308,8.59,5.789c2.51,2.48,4.443,5.385,5.816,8.591
			c1.406,3.35,2.119,6.887,2.119,10.535h7.506c0.457-0.979,0.707-2.101,0.707-3.267c0-2.781-1.484-5.242-3.674-6.634
			c-0.89-2.793-2.107-5.437-3.67-7.834c3.692,0.126,7.122,1.625,9.731,4.23c2.752,2.729,4.264,6.367,4.264,10.237
			c0,1.127-0.123,2.209-0.362,3.266h6.137c0.156-1.06,0.252-2.141,0.252-3.266C107.953,47.902,98.771,38.693,87.424,38.693z
			 M60.001,48.011c3.616,0,7.022,1.308,9.696,3.694c-2.199,0.689-4.221,1.732-6.043,3.055c-2.553-2.38-5.488-4.372-8.687-5.871
			C56.57,48.301,58.254,48.011,60.001,48.011z"/>
		<path fill="#555555" d="M41.029,58.382c-4.61,0-8.895,1.528-12.318,4.106H53.35C49.924,59.91,45.668,58.382,41.029,58.382z"/>
	</g>
	<polygon id="Right_Star" fill="#555555" points="56.171,12.869 57.88,6.675 61.76,11.795 68.178,11.481 64.498,16.755 
		66.783,22.751 60.623,20.894 55.634,24.927 55.476,18.504 50.13,14.982 	"/>
	<polygon id="Center_Star" fill="#555555" points="36.257,3.649 42.275,1.385 40.423,7.52 44.435,12.531 38.013,12.671 
		34.495,18.044 32.375,11.979 26.207,10.305 31.296,6.42 30.976,0 	"/>
	<polygon id="Left_Star" fill="#555555" points="19.882,29.674 26.123,28.232 23.464,34.082 26.798,39.58 20.404,38.87 
		16.199,43.709 14.905,37.414 9.006,34.925 14.568,31.755 15.125,25.349 	"/>
</g>
</svg>
