<?xml version="1.0" encoding="utf-8"?>
<!-- Generator: Adobe Illustrator 16.0.4, SVG Export Plug-In . SVG Version: 6.00 Build 0)  -->
<!DOCTYPE svg PUBLIC "-//W3C//DTD SVG 1.1//EN" "http://www.w3.org/Graphics/SVG/1.1/DTD/svg11.dtd">
<svg version="1.1" id="Layer_1" xmlns="http://www.w3.org/2000/svg" xmlns:xlink="http://www.w3.org/1999/xlink" x="0px" y="0px"
	 width="152px" height="152px" viewBox="0 0 152 152" enable-background="new 0 0 152 152" xml:space="preserve">
<path fill="#1A1A1A" d="M118.744,131.396V152H86.122v-20.604c0-2.357,1.914-4.264,4.271-4.264c0.021,0,0.047,0,0.074,0
	c0.204-0.021,0.344-0.23,0.344-0.441v-0.418c0-0.17-0.094-0.34-0.242-0.406c-0.045-0.021-0.092-0.031-0.139-0.031h-0.01v-0.006
	c-1.854-0.459-3.229-2.135-3.229-4.132c0-2.357,1.91-4.269,4.268-4.269c0.093,0,0.18,0.006,0.268,0.012c0.006,0,0.006,0,0.006,0
	c0.229-0.002,0.39-0.223,0.39-0.443v-0.415c0-0.198-0.124-0.388-0.31-0.435c-0.01-0.004-0.027-0.004-0.047-0.004
	c-0.01,0-0.019-0.004-0.027-0.011c-1.985-0.364-3.479-2.1-3.479-4.188c0-2.34,1.874-4.231,4.205-4.264h-0.002
	c0.231,0,0.39-0.218,0.39-0.445v-0.418c0-0.223-0.158-0.44-0.39-0.44c-3.05-0.261-5.11-4.991-5.11-13.532
	c0-16.526,7.09-27.716,7.09-40.188c0-14.124-5.863-11.755-5.863-14.815c0-3.108,5.117-3.108,5.117-6.823
	c0-2.775-2.662-4.366-2.662-4.366c-3.024-2.152-4.91-5.167-4.91-8.507c0-5.562,5.3-10.187,12.264-11.492
	c0.366-0.068,2.239-0.579,2.239-2.179c0-1.251-1.292-1.8-2.133-1.909V1.266c1.261-1.266,0,0,1.261-1.266h5.363
	c1.261,1.266,0,0,1.261,1.266v1.301c-0.842,0.109-2.131,0.658-2.131,1.909c0,1.601,1.874,2.111,2.243,2.179
	c6.963,1.305,12.255,5.929,12.255,11.492c0,3.34-1.884,6.354-4.905,8.507c0,0-2.668,1.591-2.668,4.366
	c0,3.715,5.124,3.715,5.124,6.823c0,3.061-5.866,0.691-5.866,14.815c0,12.471,7.088,23.661,7.088,40.188
	c0,8.541-2.057,13.271-5.108,13.532c-0.226,0-0.39,0.22-0.39,0.44v0.418c0,0.229,0.164,0.445,0.39,0.445l0,0
	c2.329,0.031,4.202,1.924,4.202,4.264c0,2.089-1.493,3.822-3.473,4.188c-0.019,0.007-0.023,0.011-0.037,0.011
	c-0.013,0-0.031,0-0.043,0.004c-0.187,0.047-0.307,0.235-0.307,0.435v0.415c0,0.223,0.157,0.441,0.387,0.443l0,0
	c0.096-0.006,0.188-0.012,0.277-0.012c2.354,0,4.262,1.91,4.262,4.269c0,1.997-1.373,3.673-3.228,4.132v0.006h-0.011
	c-0.047,0-0.092,0.01-0.133,0.031c-0.152,0.066-0.248,0.236-0.248,0.406v0.418c0,0.211,0.141,0.422,0.348,0.441
	c0.025,0,0.053,0,0.074,0C116.833,127.133,118.744,129.038,118.744,131.396z"/>
<path fill="#1A1A1A" d="M65.872,135.66V152H33.256v-16.34c0-2.356,1.905-4.263,4.264-4.263h2.073c0.225,0,0.39-0.219,0.39-0.448
	v-0.417c0-0.221-0.165-0.438-0.39-0.438c-3.049-0.265-5.11-5.865-5.11-9.272c0-7.854,6.232-12.929,6.232-18.659
	c0-3.194-5.004-4.271-5.004-6.498c0-3.108,5.111-3.108,5.111-6.821c0-2.771-2.662-4.367-2.662-4.367
	c-3.024-2.152-4.904-5.168-4.904-8.501c0-5.569,5.292-10.191,12.261-11.497c0.362-0.068,2.234-0.582,2.234-2.178
	c0-1.254-1.29-1.802-2.131-1.908v-1.305c1.259-1.264,0,0,1.259-1.264h5.369c1.26,1.264,0,0,1.26,1.264v1.305
	c-0.84,0.105-2.127,0.653-2.127,1.908c0,1.597,1.874,2.11,2.236,2.178c6.967,1.305,12.255,5.928,12.255,11.497
	c0,3.335-1.88,6.349-4.898,8.501c0,0-2.668,1.596-2.668,4.367c0,3.713,5.117,3.713,5.117,6.821c0,2.228-5.01,3.304-5.01,6.498
	c0,5.73,6.236,10.805,6.236,18.659c0,3.407-2.061,9.009-5.115,9.272c-0.22,0-0.39,0.219-0.39,0.438v0.417
	c0,0.229,0.169,0.448,0.39,0.448h2.081C63.964,131.397,65.872,133.304,65.872,135.66z"/>
</svg>
