<?xml version="1.0" encoding="utf-8"?>
<!-- Generator: Adobe Illustrator 16.0.4, SVG Export Plug-In . SVG Version: 6.00 Build 0)  -->
<!DOCTYPE svg PUBLIC "-//W3C//DTD SVG 1.1//EN" "http://www.w3.org/Graphics/SVG/1.1/DTD/svg11.dtd">
<svg version="1.1" id="Layer_1" xmlns="http://www.w3.org/2000/svg" xmlns:xlink="http://www.w3.org/1999/xlink" x="0px" y="0px"
	 width="152px" height="152px" viewBox="0 0 152 152" enable-background="new 0 0 152 152" xml:space="preserve">
<path fill="#1A1A1A" d="M114.788,4.973c-3.32,0-8.485,1.2-10.628,1.2c-2.313,0-9.173-4.37-12.346-4.37
	c-3.256,0-7.028,2.313-9.255,2.313C80.416,4.115,76.554,0,73.3,0c-3.258,0-7.118,3.344-9.261,3.344C62.068,3.344,58.037,0,54.78,0
	c-3.169,0-7.029,4.115-9.255,4.115c-2.026,0-6.003-2.313-9.26-2.313c-1.972,0-18.52,6.601-18.52,12.6
	c0,9.088,9.259,16.46,9.259,21.606c0,9.513-16.715,20.831-16.715,53.494c0,20.647,5.827,47.237,25.576,62.498h56.353
	c16.489-15.088,21.001-29.103,23.512-40.895h3.522c15.518-27.52,22.461-46.292,22.461-66.867
	C141.712,17.97,129.205,4.973,114.788,4.973z M118.048,91.313c0-3.225-0.086-4.672-0.254-7.984
	c-1.415-27.517-16.717-37.808-16.717-47.321c0-4.284,7.031-10.032,9.258-18.576c1.067-4.094,21.091-5.43,21.091,26.806
	C131.426,58.125,126.15,76,118.048,91.313z"/>
</svg>
