<?xml version="1.0" encoding="utf-8"?>
<!-- Generator: Adobe Illustrator 16.0.4, SVG Export Plug-In . SVG Version: 6.00 Build 0)  -->
<!DOCTYPE svg PUBLIC "-//W3C//DTD SVG 1.1//EN" "http://www.w3.org/Graphics/SVG/1.1/DTD/svg11.dtd">
<svg version="1.1" id="Layer_1" xmlns="http://www.w3.org/2000/svg" xmlns:xlink="http://www.w3.org/1999/xlink" x="0px" y="0px"
	 width="152px" height="152px" viewBox="0 0 152 152" enable-background="new 0 0 152 152" xml:space="preserve">
<g>
	<path fill-rule="evenodd" clip-rule="evenodd" fill="#1A1A1A" d="M114.736,81.911c0,0,0.21,18.554,0.21,23.09
		c0,10.942,3.39,11.99,2.33,13.423c0,0,0.685,1.167,0.685,2.089c0,1.142-0.647,1.771-0.647,1.771s0.319,0.308,0.319,0.67
		c0,0.95-1.03,1.225-1.03,4.703c0,1.698,3.21,5.993,1.771,7.256c0,0,2.303,2.213,2.303,6.744c0,5.096-2.644,5.677-2.644,5.677
		c0,1.114-2.63,4.339-5.17,4.667c-2.527-0.328-5.156-3.553-5.156-4.667c0,0-2.659-0.581-2.659-5.677
		c0-4.531,2.305-6.744,2.305-6.744c-1.429-1.263,1.783-5.558,1.783-7.256c0-3.479-1.051-3.753-1.051-4.703
		c0-0.362,0.34-0.67,0.34-0.67s-0.649-0.629-0.649-1.771c0-0.922,0.688-2.089,0.688-2.089c-1.074-1.433,2.313-2.48,2.313-13.423
		c0-4.536,0.218-23.09,0.218-23.09c-1.253,0-1.253-2.11-1.253-2.11c-1,0.002-0.95-2.188-0.95-2.188
		c-3.694-1.544-8.549-5.614-8.549-16.292c0-9.527,5.658-17.246,12.62-17.246c6.973,0,12.624,7.719,12.624,17.246
		c0,10.678-4.848,14.748-8.542,16.292c0,0,0.029,2.189-0.96,2.188C115.984,79.801,115.972,81.911,114.736,81.911z"/>
	<path fill-rule="evenodd" clip-rule="evenodd" fill="#1A1A1A" d="M84.729,139.185c0,6.303-3.269,7.026-3.269,7.026
		c0,1.429-3.605,5.789-6.89,5.789c-3.288,0-6.896-4.36-6.896-5.789c0,0-3.263-0.724-3.263-7.026c0-5.578,2.842-8.309,2.842-8.309
		c-1.775-1.546,2.196-6.865,2.196-8.972c0-4.278-1.295-4.644-1.295-5.789c0-0.463,0.411-0.825,0.411-0.825s-0.8-0.775-0.8-2.189
		c0-1.16,0.835-2.583,0.835-2.583c-1.309-1.759,0.97-3.113,0.97-16.63c0-5.6,0.096-18.313,0.297-20.771
		c0.075-0.762,0.804-1.179,0.804-2.146c0-0.538-0.326-0.757-0.804-1.107c-1.876-1.369-7.769-49.407,2.583-66.483
		c2.975-4.887,8.041-3.918,7.827-0.616c-0.482,6.858-0.544,18.882-0.092,23.472c1.545,15.335,0.801,42.188-0.919,43.627
		c-0.46,0.386-0.789,0.569-0.789,1.107c0,0.967,0.729,1.384,0.789,2.146c0.208,2.458,0.307,15.171,0.307,20.771
		c0,13.517,2.276,14.871,0.958,16.63c0,0,0.848,1.423,0.848,2.583c0,1.414-0.81,2.189-0.81,2.189s0.404,0.362,0.404,0.825
		c0,1.146-1.283,1.511-1.283,5.789c0,2.106,3.955,7.426,2.196,8.972C81.886,130.876,84.729,133.606,84.729,139.185z"/>
	<path fill-rule="evenodd" clip-rule="evenodd" fill="#1A1A1A" d="M44.22,140.265c0,5.789-3.006,6.45-3.006,6.45
		c0,1.24-2.969,4.917-5.856,5.285c-2.88-0.368-5.842-4.045-5.842-5.285c0,0-3.002-0.661-3.002-6.45c0-5.121,2.603-7.635,2.603-7.635
		c-1.623-1.42,2.023-6.29,2.023-8.226c0-3.929-1.183-4.263-1.183-5.32c0-0.417,0.375-0.77,0.375-0.77s-0.744-0.695-0.744-2.004
		c0-1.058,0.779-2.356,0.779-2.356c-1.214-1.642,2.626-2.812,2.626-15.226c0-5.129,0.241-23.9,0.251-25.488v-0.672
		c-0.579-0.027-1.132-0.594-1.132-1.694c0,0-4.62-0.858-4.62-5.386c0-2.181,0.037-11.708,0.51-21.681
		c0.344-7.225,0.514-16.709,0.514-16.88c0-0.302,0.247-0.532,0.54-0.532c0.301,0,0.532,0.23,0.532,0.532
		c0,0.171,0.517,32.864,0.517,33.246c0,0.579,0.461,1.047,1.055,1.047c0.585,0,1.05-0.468,1.05-1.047c0,0,0.515-33.088,0.515-33.246
		c0-0.302,0.247-0.532,0.532-0.532c0.293,0,0.541,0.23,0.541,0.532c0,0.171,0.514,33.246,0.514,33.246
		c0,0.579,0.472,1.047,1.046,1.047c0.586,0,1.053-0.468,1.053-1.047c0,0,0.52-33.075,0.52-33.246c0-0.302,0.242-0.532,0.539-0.532
		c0.278,0,0.526,0.23,0.526,0.532c0,0.158,0.52,33.246,0.52,33.246c0,0.579,0.473,1.047,1.048,1.047c0.59,0,1.054-0.468,1.054-1.047
		c0-0.382,0.523-33.075,0.523-33.246c0-0.302,0.231-0.532,0.534-0.532c0.292,0,0.538,0.23,0.538,0.532
		c0,0.171,0.171,9.655,0.513,16.88c0.47,9.973,0.507,19.5,0.507,21.681c0,4.527-4.614,5.386-4.614,5.386
		c0,1.101-0.563,1.667-1.138,1.694v0.672c0.012,1.588,0.245,20.359,0.245,25.488c0,12.414,3.843,13.584,2.635,15.226
		c0,0,0.779,1.299,0.779,2.356c0,1.309-0.742,2.004-0.742,2.004s0.374,0.353,0.374,0.77c0,1.058-1.184,1.392-1.184,5.32
		c0,1.936,3.646,6.806,2.019,8.226C41.606,132.63,44.22,135.144,44.22,140.265z"/>
</g>
</svg>
