<?xml version="1.0" encoding="utf-8"?>
<!-- Copyright © 2014 Brian Speir. All rights reserved.  -->
<!DOCTYPE svg PUBLIC "-//W3C//DTD SVG 1.1//EN" "http://www.w3.org/Graphics/SVG/1.1/DTD/svg11.dtd">
<svg version="1.1" id="Layer_1" xmlns="http://www.w3.org/2000/svg" xmlns:xlink="http://www.w3.org/1999/xlink" x="0px" y="0px"
	 width="152px" height="152px" viewBox="0 0 152 152" enable-background="new 0 0 152 152" xml:space="preserve">
<path fill="#FFFFFF" d="M114,0H16.286v152H114c11.943,0,21.714-9.771,21.714-21.714V21.714C135.714,9.771,125.943,0,114,0z"/>
<linearGradient id="SVGID_1_" gradientUnits="userSpaceOnUse" x1="75.9995" y1="0" x2="75.9995" y2="152.0005">
	<stop  offset="0" style="stop-color:#BA40FF"/>
	<stop  offset="1" style="stop-color:#A200FF"/>
</linearGradient>
<path fill="url(#SVGID_1_)" d="M114,0H16.286v152H114c11.943,0,21.714-9.771,21.714-21.714V21.714C135.714,9.771,125.943,0,114,0z
	 M42.071,143.857H38V8.143h4.071V143.857z M96.896,58.14l6.191,20.574L85.5,66.447L67.91,78.714L74.1,58.14L57,45.165l21.443-0.432
	L85.5,24.429l7.057,20.304L114,45.165L96.896,58.14z"/>
</svg>
