<?xml version="1.0" encoding="utf-8"?>
<!-- Generator: Adobe Illustrator 16.0.5, SVG Export Plug-In . SVG Version: 6.00 Build 0)  -->
<!DOCTYPE svg PUBLIC "-//W3C//DTD SVG 1.1//EN" "http://www.w3.org/Graphics/SVG/1.1/DTD/svg11.dtd">
<svg version="1.1" id="Picture" xmlns="http://www.w3.org/2000/svg" xmlns:xlink="http://www.w3.org/1999/xlink" x="0px" y="0px"
	 width="44px" height="44px" viewBox="0 0 44 44" enable-background="new 0 0 44 44" xml:space="preserve">
<g opacity="0.87">
	<path d="M0,4v40h44V4H0z M13.5,9c2.48,0,4.5,2.02,4.5,4.5S15.98,18,13.5,18S9,15.98,9,13.5S11.02,9,13.5,9z M42,42H2V26.83
		l5.12-4.95l9.73,10.87L34.02,11L42,20.141V42z"/>
</g>
<polygon fill="#FFFFFF" points="42,42 2,42 2,26.83 7.12,21.88 16.85,32.75 34.02,11 42,20.141 "/>
<path fill="#FFFFFF" d="M13.5,9c2.48,0,4.5,2.02,4.5,4.5S15.98,18,13.5,18C11.02,18,9,15.98,9,13.5S11.02,9,13.5,9z"/>
</svg>
