<?xml version="1.0" encoding="utf-8"?>
<!-- Copyright (C) 2014 Brian Speir. All rights reserved. -->
<!DOCTYPE svg PUBLIC "-//W3C//DTD SVG 1.1//EN" "http://www.w3.org/Graphics/SVG/1.1/DTD/svg11.dtd">
<svg version="1.1" id="Picture" xmlns="http://www.w3.org/2000/svg" xmlns:xlink="http://www.w3.org/1999/xlink" x="0px" y="0px"
	 width="120px" height="120px" viewBox="0 0 120 120" enable-background="new 0 0 120 120" xml:space="preserve">
<radialGradient id="Sky_1_" cx="60" cy="60" r="60" gradientTransform="matrix(-4.371139e-08 -1 3 -1.311342e-07 -120 120)" gradientUnits="userSpaceOnUse">
	<stop  offset="0" style="stop-color:#FFDE03"/>
	<stop  offset="0.2298" style="stop-color:#FFD302"/>
	<stop  offset="0.6153" style="stop-color:#FFC700"/>
	<stop  offset="1" style="stop-color:#FFC300"/>
</radialGradient>
<rect id="Sky" fill="url(#Sky_1_)" width="120" height="120"/>
<linearGradient id="Mountains_1_" gradientUnits="userSpaceOnUse" x1="59.9995" y1="45.7891" x2="59.9995" y2="120.0005">
	<stop  offset="0" style="stop-color:#FFDE03"/>
	<stop  offset="0.0198" style="stop-color:#F9DE06"/>
	<stop  offset="0.2035" style="stop-color:#C5DC23"/>
	<stop  offset="0.3839" style="stop-color:#99DB3A"/>
	<stop  offset="0.5572" style="stop-color:#78DA4C"/>
	<stop  offset="0.7215" style="stop-color:#60DA59"/>
	<stop  offset="0.8731" style="stop-color:#51D961"/>
	<stop  offset="1" style="stop-color:#4CD964"/>
</linearGradient>
<polygon id="Mountains" fill="url(#Mountains_1_)" points="0,66.314 15.789,48.947 35.526,70.264 45,60.789 58.421,75.789
	82.105,45.789 96.314,61.578 106.579,52.105 120,63.158 120,120 0,120 "/>
<polygon id="Sun" fill="#FFDE03" points="33.729,15.427 36.351,6.315 38.947,15.42 44.573,7.731 43.848,17.17 51.799,11.833
	47.842,20.466 57.156,18.122 50.444,24.914 60,25.85 51.343,29.976 59.985,34.075 50.428,35.04 57.116,41.812 47.81,39.497
	51.74,48.12 43.805,42.808 44.497,52.243 38.898,44.575 36.277,53.684 33.684,44.582 28.059,52.268 28.782,42.832 20.83,48.17
	24.79,39.533 15.475,41.877 22.188,35.083 12.632,34.152 21.289,30.024 12.644,25.924 22.205,24.96 15.514,18.193 24.822,20.504
	20.892,11.88 28.825,17.193 28.13,7.756 "/>
</svg>
