<?xml version="1.0" encoding="utf-8"?>
<!-- Generator: Adobe Illustrator 16.0.5, SVG Export Plug-In . SVG Version: 6.00 Build 0)  -->
<!DOCTYPE svg PUBLIC "-//W3C//DTD SVG 1.1//EN" "http://www.w3.org/Graphics/SVG/1.1/DTD/svg11.dtd">
<svg version="1.1" id="Picture" xmlns="http://www.w3.org/2000/svg" xmlns:xlink="http://www.w3.org/1999/xlink" x="0px" y="0px"
	 width="44px" height="44px" viewBox="-72.5 217.5 44 44" enable-background="new -72.5 217.5 44 44" xml:space="preserve">
<g>
	<path fill="#4B4B4B" d="M-72.5,221.5v40h44v-40H-72.5z M-59,226.5c2.48,0,4.5,2.02,4.5,4.5s-2.02,4.5-4.5,4.5s-4.5-2.02-4.5-4.5
		S-61.48,226.5-59,226.5z M-30.5,259.5h-40v-15.17l5.12-4.95l9.73,10.87l17.17-21.75l7.98,9.14V259.5z"/>
</g>
<g id="Sky" display="none">
	<path display="inline" fill="#4B4B4B" d="M-29.5,218.5v42h-42v-42H-29.5 M-28.5,217.5h-44v44h44V217.5L-28.5,217.5z"/>
</g>
<polygon id="Mountains" display="none" fill="#4BFF4B" points="-72.5,241.812 -66.707,235.448 -59.476,243.266 -56,239.789 
	-51.08,245.289 -42.396,234.289 -37.184,240.082 -33.42,236.606 -28.5,240.655 -28.5,261.496 -72.5,261.496 "/>
<polygon id="Mountains_1_" display="none" fill="#4B4B4B" points="-72.5,247.5 -60.5,234.5 -51.5,245.5 -42.5,233.5 -28.5,249.5 
	-28.5,240.653 -28.5,261.493 -72.5,261.493 "/>
<polygon id="Sun" display="none" fill="#FF4B4B" points="-60.133,223.156 -59.171,219.814 -58.22,223.154 -56.156,220.335 
	-56.422,223.796 -53.507,221.839 -54.958,225.004 -51.542,224.145 -54.004,226.635 -50.5,226.979 -53.674,228.491 -50.505,229.994 
	-54.01,230.348 -51.558,232.831 -54.97,231.982 -53.529,235.145 -56.438,233.195 -56.185,236.656 -58.237,233.844 -59.198,237.184 
	-60.149,233.848 -62.212,236.665 -61.946,233.205 -64.862,235.162 -63.41,231.995 -66.826,232.854 -64.364,230.363 -67.868,230.021 
	-64.694,228.509 -67.864,227.006 -64.358,226.652 -66.812,224.171 -63.398,225.02 -64.839,221.855 -61.931,223.805 -62.186,220.344 
	"/>
</svg>
