<?xml version="1.0" encoding="utf-8"?>
<!-- Copyright (C) 2014 Brian Speir. All rights reserved. -->
<!DOCTYPE svg PUBLIC "-//W3C//DTD SVG 1.1//EN" "http://www.w3.org/Graphics/SVG/1.1/DTD/svg11.dtd">
<svg version="1.1" id="Picture" xmlns="http://www.w3.org/2000/svg" xmlns:xlink="http://www.w3.org/1999/xlink" x="0px" y="0px"
	 width="120px" height="120px" viewBox="0.5 120.5 120 120" enable-background="new 0.5 120.5 120 120" xml:space="preserve">
<rect id="Sky" x="0.5" y="120.5" fill="#D1D1D1" width="120" height="120"/>
<polygon id="Mountains" fill="#888888" points="0.5,186.814 16.289,169.447 36.026,190.764 45.5,181.289 58.921,196.289
	82.605,166.289 96.814,182.078 107.079,172.605 120.5,183.658 120.5,240.5 0.5,240.5 "/>
<polygon id="Sun" fill="#FFFFFF" points="34.229,135.927 36.851,126.814 39.447,135.92 45.073,128.23 44.348,137.67 52.299,132.333
	48.342,140.966 57.656,138.622 50.944,145.414 60.5,146.35 51.843,150.477 60.485,154.575 50.928,155.54 57.616,162.312
	48.31,159.997 52.24,168.62 44.305,163.309 44.997,172.743 39.398,165.075 36.777,174.184 34.184,165.082 28.559,172.768
	29.282,163.332 21.33,168.67 25.29,160.033 15.975,162.377 22.688,155.583 13.132,154.652 21.789,150.523 13.144,146.424
	22.705,145.46 16.014,138.693 25.322,141.004 21.392,132.38 29.325,137.693 28.63,128.256 "/>
</svg>
