<?xml version="1.0" encoding="utf-8"?>
<!-- Copyright (C) 2014 Brian Speir. All rights reserved. -->
<!DOCTYPE svg PUBLIC "-//W3C//DTD SVG 1.1//EN" "http://www.w3.org/Graphics/SVG/1.1/DTD/svg11.dtd">
<svg version="1.1" id="Pixel" xmlns="http://www.w3.org/2000/svg" xmlns:xlink="http://www.w3.org/1999/xlink" x="0px" y="0px"
	 width="120px" height="120px" viewBox="0 0 120 120" enable-background="new 0 0 120 120" xml:space="preserve">
<linearGradient id="Face_1_" gradientUnits="userSpaceOnUse" x1="0" y1="60" x2="120" y2="60">
	<stop  offset="0" style="stop-color:#FFCD02"/>
	<stop  offset="1" style="stop-color:#FFDB4C"/>
</linearGradient>
<path id="Face" fill="url(#Face_1_)" d="M120,60c0,33.141-26.859,60-60,60c-19.64,0-37.06-9.42-48.01-24c0,0,0-0.01,0.01-0.02V93H9
	v-6H6v-9H3v-9H0V49h3v-9h3v-9h6v-9h9v-9h6V7h12V3h9V0h12C93.141,0,120,26.85,120,60z"/>
<path id="Mouth" fill="#555555" d="M60,99.012V99H48v-3l-3,0.001V93h15v0.252V99.012z"/>
<path id="Eye_-_Right" fill="#F7F7F7" d="M105.967,59.595c0,10.717-8.682,19.409-19.395,19.409
	c-10.732,0-19.424-8.691-19.424-19.409c0-10.728,8.688-19.409,19.424-19.409C97.285,40.186,105.967,48.872,105.967,59.595z"/>
<linearGradient id="Pupil_-_Right_1_" gradientUnits="userSpaceOnUse" x1="79.9414" y1="59.5967" x2="93.1641" y2="59.5967">
	<stop  offset="0" style="stop-color:#4A4A4A"/>
	<stop  offset="1" style="stop-color:#2B2B2B"/>
</linearGradient>
<path id="Pupil_-_Right" fill="url(#Pupil_-_Right_1_)" d="M86.572,52.983c3.643,0,6.592,2.964,6.592,6.611
	c0,3.639-2.949,6.616-6.592,6.616c-3.633,0-6.631-2.979-6.631-6.616C79.941,55.947,82.939,52.983,86.572,52.983z"/>
<linearGradient id="Eyebrow_-_Right_1_" gradientUnits="userSpaceOnUse" x1="72.1152" y1="25.5576" x2="99.8721" y2="25.5576">
	<stop  offset="0" style="stop-color:#4A4A4A"/>
	<stop  offset="1" style="stop-color:#2B2B2B"/>
</linearGradient>
<path id="Eyebrow_-_Right" fill="url(#Eyebrow_-_Right_1_)" d="M99.863,29.365c0.078,0.679-0.361,1.279-1.045,1.382
	c-0.869,0.122-7.51-3.853-15.938-4.775c-4.219-0.439-4.95-0.234-7.998,0.029c-2.139,0.146-3.192-0.742-2.606-2.222
	c0.971-2.407,6.729-3.867,11.992-3.286C91.738,21.318,99.473,25.708,99.863,29.365z"/>
<path id="Eye_-_Left" fill="#FFFFFF" d="M21,51h-9v18h8v9h6v3h13v-3h6v-3h3v-3h3v-6h3V54h-3v-6h-3v-3h-3v-3h-5v-3H27v3h-6V51z"/>
<polygon id="Pupil_-_Left" fill="#555555" points="37,57 40,57 40,63 37,63 37,66 27,66 27,54 37,54 "/>
<path id="Eyebrow_-_Left" fill="#555555" d="M18,30h18v-3h9v-3h3v-3H30v3H18V30z"/>
<linearGradient id="SVGID_1_" gradientUnits="userSpaceOnUse" x1="312.5742" y1="-314.0112" x2="312.5742" y2="-308.2397" gradientTransform="matrix(1 0 0 -1 -246 -215)">
	<stop  offset="0" style="stop-color:#4A4A4A"/>
	<stop  offset="1" style="stop-color:#2B2B2B"/>
</linearGradient>
<path fill="url(#SVGID_1_)" d="M73.146,96.127c0,1.593-1.292,2.885-2.885,2.885H60V93.24h10.262
	C71.854,93.242,73.146,94.534,73.146,96.127L73.146,96.127z"/>
</svg>
