<?xml version="1.0" encoding="utf-8"?>
<!-- Copyright © 2014 Brian Speir. All rights reserved.  -->
<!DOCTYPE svg PUBLIC "-//W3C//DTD SVG 1.1//EN" "http://www.w3.org/Graphics/SVG/1.1/DTD/svg11.dtd">
<svg version="1.1" id="Layer_6" xmlns="http://www.w3.org/2000/svg" xmlns:xlink="http://www.w3.org/1999/xlink" x="0px" y="0px"
	 width="44px" height="44px" viewBox="0 0 44 44" enable-background="new 0 0 44 44" xml:space="preserve">
<rect x="7" y="8" fill="#4B4B4B" width="3" height="3"/>
<rect x="10" y="8" fill="#4B4B4B" width="3" height="3"/>
<rect x="13" y="8" fill="#4B4B4B" width="3" height="3"/>
<rect x="28" y="8" fill="#4B4B4B" width="3" height="3"/>
<rect x="31" y="8" fill="#4B4B4B" width="3" height="3"/>
<rect x="34" y="8" fill="#4B4B4B" width="3" height="3"/>
<rect x="4" y="11" fill="#4B4B4B" width="3" height="3"/>
<rect x="7" y="11" fill="#4B4B4B" width="3" height="3"/>
<rect x="10" y="11" fill="#4B4B4B" width="3" height="3"/>
<rect x="13" y="11" fill="#4B4B4B" width="3" height="3"/>
<rect x="16" y="11" fill="#4B4B4B" width="3" height="3"/>
<rect x="25" y="11" fill="#4B4B4B" width="3" height="3"/>
<rect x="28" y="11" fill="#4B4B4B" width="3" height="3"/>
<rect x="31" y="11" fill="#4B4B4B" width="3" height="3"/>
<rect x="34" y="11" fill="#4B4B4B" width="3" height="3"/>
<rect x="37" y="11" fill="#4B4B4B" width="3" height="3"/>
<rect x="1" y="14" fill="#4B4B4B" width="3" height="3"/>
<rect x="4" y="14" fill="#4B4B4B" width="3" height="3"/>
<rect x="7" y="14" fill="#4B4B4B" width="3" height="3"/>
<rect x="10" y="14" fill="#4B4B4B" width="3" height="3"/>
<rect x="13" y="14" fill="#4B4B4B" width="3" height="3"/>
<rect x="16" y="14" fill="#4B4B4B" width="3" height="3"/>
<rect x="19" y="14" fill="#4B4B4B" width="3" height="3"/>
<rect x="22" y="14" fill="#4B4B4B" width="3" height="3"/>
<rect x="25" y="14" fill="#4B4B4B" width="3" height="3"/>
<rect x="28" y="14" fill="#4B4B4B" width="3" height="3"/>
<rect x="31" y="14" fill="#4B4B4B" width="3" height="3"/>
<rect x="34" y="14" fill="#4B4B4B" width="3" height="3"/>
<rect x="37" y="14" fill="#4B4B4B" width="3" height="3"/>
<rect x="40" y="14" fill="#4B4B4B" width="3" height="3"/>
<rect x="1" y="17" fill="#4B4B4B" width="3" height="3"/>
<rect x="4" y="17" fill="#4B4B4B" width="3" height="3"/>
<rect x="7" y="17" fill="#4B4B4B" width="3" height="3"/>
<rect x="10" y="17" fill="#4B4B4B" width="3" height="3"/>
<rect x="13" y="17" fill="#4B4B4B" width="3" height="3"/>
<rect x="16" y="17" fill="#4B4B4B" width="3" height="3"/>
<rect x="19" y="17" fill="#4B4B4B" width="3" height="3"/>
<rect x="22" y="17" fill="#4B4B4B" width="3" height="3"/>
<rect x="25" y="17" fill="#4B4B4B" width="3" height="3"/>
<rect x="28" y="17" fill="#4B4B4B" width="3" height="3"/>
<rect x="31" y="17" fill="#4B4B4B" width="3" height="3"/>
<rect x="34" y="17" fill="#4B4B4B" width="3" height="3"/>
<rect x="37" y="17" fill="#4B4B4B" width="3" height="3"/>
<rect x="40" y="17" fill="#4B4B4B" width="3" height="3"/>
<rect x="1" y="20" fill="#4B4B4B" width="3" height="3"/>
<rect x="4" y="20" fill="#4B4B4B" width="3" height="3"/>
<rect x="7" y="20" fill="#4B4B4B" width="3" height="3"/>
<rect x="10" y="20" fill="#4B4B4B" width="3" height="3"/>
<rect x="13" y="20" fill="#4B4B4B" width="3" height="3"/>
<rect x="16" y="20" fill="#4B4B4B" width="3" height="3"/>
<rect x="19" y="20" fill="#4B4B4B" width="3" height="3"/>
<rect x="22" y="20" fill="#4B4B4B" width="3" height="3"/>
<rect x="25" y="20" fill="#4B4B4B" width="3" height="3"/>
<rect x="28" y="20" fill="#4B4B4B" width="3" height="3"/>
<rect x="31" y="20" fill="#4B4B4B" width="3" height="3"/>
<rect x="34" y="20" fill="#4B4B4B" width="3" height="3"/>
<rect x="37" y="20" fill="#4B4B4B" width="3" height="3"/>
<rect x="40" y="20" fill="#4B4B4B" width="3" height="3"/>
<rect x="1" y="23" fill="#4B4B4B" width="3" height="3"/>
<rect x="4" y="23" fill="#4B4B4B" width="3" height="3"/>
<rect x="7" y="23" fill="#4B4B4B" width="3" height="3"/>
<rect x="10" y="23" fill="#4B4B4B" width="3" height="3"/>
<rect x="13" y="23" fill="#4B4B4B" width="3" height="3"/>
<rect x="16" y="23" fill="#4B4B4B" width="3" height="3"/>
<rect x="19" y="23" fill="#4B4B4B" width="3" height="3"/>
<rect x="22" y="23" fill="#4B4B4B" width="3" height="3"/>
<rect x="25" y="23" fill="#4B4B4B" width="3" height="3"/>
<rect x="28" y="23" fill="#4B4B4B" width="3" height="3"/>
<rect x="31" y="23" fill="#4B4B4B" width="3" height="3"/>
<rect x="34" y="23" fill="#4B4B4B" width="3" height="3"/>
<rect x="37" y="23" fill="#4B4B4B" width="3" height="3"/>
<rect x="40" y="23" fill="#4B4B4B" width="3" height="3"/>
<rect x="4" y="26" fill="#4B4B4B" width="3" height="3"/>
<rect x="7" y="26" fill="#4B4B4B" width="3" height="3"/>
<rect x="10" y="26" fill="#4B4B4B" width="3" height="3"/>
<rect x="13" y="26" fill="#4B4B4B" width="3" height="3"/>
<rect x="16" y="26" fill="#4B4B4B" width="3" height="3"/>
<rect x="19" y="26" fill="#4B4B4B" width="3" height="3"/>
<rect x="22" y="26" fill="#4B4B4B" width="3" height="3"/>
<rect x="25" y="26" fill="#4B4B4B" width="3" height="3"/>
<rect x="28" y="26" fill="#4B4B4B" width="3" height="3"/>
<rect x="31" y="26" fill="#4B4B4B" width="3" height="3"/>
<rect x="34" y="26" fill="#4B4B4B" width="3" height="3"/>
<rect x="37" y="26" fill="#4B4B4B" width="3" height="3"/>
<rect x="7" y="29" fill="#4B4B4B" width="3" height="3"/>
<rect x="10" y="29" fill="#4B4B4B" width="3" height="3"/>
<rect x="13" y="29" fill="#4B4B4B" width="3" height="3"/>
<rect x="16" y="29" fill="#4B4B4B" width="3" height="3"/>
<rect x="19" y="29" fill="#4B4B4B" width="3" height="3"/>
<rect x="22" y="29" fill="#4B4B4B" width="3" height="3"/>
<rect x="25" y="29" fill="#4B4B4B" width="3" height="3"/>
<rect x="28" y="29" fill="#4B4B4B" width="3" height="3"/>
<rect x="31" y="29" fill="#4B4B4B" width="3" height="3"/>
<rect x="34" y="29" fill="#4B4B4B" width="3" height="3"/>
<rect x="10" y="32" fill="#4B4B4B" width="3" height="3"/>
<rect x="13" y="32" fill="#4B4B4B" width="3" height="3"/>
<rect x="16" y="32" fill="#4B4B4B" width="3" height="3"/>
<rect x="19" y="32" fill="#4B4B4B" width="3" height="3"/>
<rect x="22" y="32" fill="#4B4B4B" width="3" height="3"/>
<rect x="25" y="32" fill="#4B4B4B" width="3" height="3"/>
<rect x="28" y="32" fill="#4B4B4B" width="3" height="3"/>
<rect x="31" y="32" fill="#4B4B4B" width="3" height="3"/>
<rect x="13" y="35" fill="#4B4B4B" width="3" height="3"/>
<rect x="16" y="35" fill="#4B4B4B" width="3" height="3"/>
<rect x="19" y="35" fill="#4B4B4B" width="3" height="3"/>
<rect x="22" y="35" fill="#4B4B4B" width="3" height="3"/>
<rect x="25" y="35" fill="#4B4B4B" width="3" height="3"/>
<rect x="28" y="35" fill="#4B4B4B" width="3" height="3"/>
<rect x="16" y="38" fill="#4B4B4B" width="3" height="3"/>
<rect x="19" y="38" fill="#4B4B4B" width="3" height="3"/>
<rect x="22" y="38" fill="#4B4B4B" width="3" height="3"/>
<rect x="25" y="38" fill="#4B4B4B" width="3" height="3"/>
<rect x="19" y="41" fill="#4B4B4B" width="3" height="3"/>
<rect x="22" y="41" fill="#4B4B4B" width="3" height="3"/>
</svg>
