<?xml version="1.0" encoding="utf-8"?>
<!-- Copyright © 2014 Brian Speir. All rights reserved.  -->
<!DOCTYPE svg PUBLIC "-//W3C//DTD SVG 1.1//EN" "http://www.w3.org/Graphics/SVG/1.1/DTD/svg11.dtd">
<svg version="1.1" id="Layer_2" xmlns="http://www.w3.org/2000/svg" xmlns:xlink="http://www.w3.org/1999/xlink" x="0px" y="0px"
	 width="117px" height="117px" viewBox="0 0 117 117" enable-background="new 0 0 117 117" xml:space="preserve">
<rect x="19" y="19" fill="#FF8DD6" width="7" height="7"/>
<rect x="27" y="19" fill="#FF8DD6" width="7" height="7"/>
<rect x="35" y="19" fill="#FF8DD6" width="7" height="7"/>
<rect x="75" y="19" fill="#FF8DD6" width="7" height="7"/>
<rect x="83" y="19" fill="#FF8DD6" width="7" height="7"/>
<rect x="91" y="19" fill="#FF8DD6" width="7" height="7"/>
<rect x="11" y="27" fill="#FF80D2" width="7" height="7"/>
<rect x="19" y="27" fill="#FF80D2" width="7" height="7"/>
<rect x="27" y="27" fill="#FF80D2" width="7" height="7"/>
<rect x="35" y="27" fill="#FF80D2" width="7" height="7"/>
<rect x="43" y="27" fill="#FF80D2" width="7" height="7"/>
<rect x="67" y="27" fill="#FF80D2" width="7" height="7"/>
<rect x="75" y="27" fill="#FF80D2" width="7" height="7"/>
<rect x="83" y="27" fill="#FF80D2" width="7" height="7"/>
<rect x="91" y="27" fill="#FF80D2" width="7" height="7"/>
<rect x="99" y="27" fill="#FF80D2" width="7" height="7"/>
<rect x="3" y="35" fill="#FF73CD" width="7" height="7"/>
<rect x="11" y="35" fill="#FF73CD" width="7" height="7"/>
<rect x="19" y="35" fill="#FF73CD" width="7" height="7"/>
<rect x="27" y="35" fill="#FF73CD" width="7" height="7"/>
<rect x="35" y="35" fill="#FF73CD" width="7" height="7"/>
<rect x="43" y="35" fill="#FF73CD" width="7" height="7"/>
<rect x="51" y="35" fill="#FF73CD" width="7" height="7"/>
<rect x="59" y="35" fill="#FF73CD" width="7" height="7"/>
<rect x="67" y="35" fill="#FF73CD" width="7" height="7"/>
<rect x="75" y="35" fill="#FF73CD" width="7" height="7"/>
<rect x="83" y="35" fill="#FF73CD" width="7" height="7"/>
<rect x="91" y="35" fill="#FF73CD" width="7" height="7"/>
<rect x="99" y="35" fill="#FF73CD" width="7" height="7"/>
<rect x="107" y="35" fill="#FF73CD" width="7" height="7"/>
<rect x="3" y="43" fill="#FF66C8" width="7" height="7"/>
<rect x="11" y="43" fill="#FF66C8" width="7" height="7"/>
<rect x="19" y="43" fill="#FF66C8" width="7" height="7"/>
<rect x="27" y="43" fill="#FF66C8" width="7" height="7"/>
<rect x="35" y="43" fill="#FF66C8" width="7" height="7"/>
<rect x="43" y="43" fill="#FF66C8" width="7" height="7"/>
<rect x="51" y="43" fill="#FF66C8" width="7" height="7"/>
<rect x="59" y="43" fill="#FF66C8" width="7" height="7"/>
<rect x="67" y="43" fill="#FF66C8" width="7" height="7"/>
<rect x="75" y="43" fill="#FF66C8" width="7" height="7"/>
<rect x="83" y="43" fill="#FF66C8" width="7" height="7"/>
<rect x="91" y="43" fill="#FF66C8" width="7" height="7"/>
<rect x="99" y="43" fill="#FF66C8" width="7" height="7"/>
<rect x="107" y="43" fill="#FF66C8" width="7" height="7"/>
<rect x="3" y="51" fill="#FF5AC4" width="7" height="7"/>
<rect x="11" y="51" fill="#FF5AC4" width="7" height="7"/>
<rect x="19" y="51" fill="#FF5AC4" width="7" height="7"/>
<rect x="27" y="51" fill="#FF5AC4" width="7" height="7"/>
<rect x="35" y="51" fill="#FF5AC4" width="7" height="7"/>
<rect x="43" y="51" fill="#FF5AC4" width="7" height="7"/>
<rect x="51" y="51" fill="#FF5AC4" width="7" height="7"/>
<rect x="59" y="51" fill="#FF5AC4" width="7" height="7"/>
<rect x="67" y="51" fill="#FF5AC4" width="7" height="7"/>
<rect x="75" y="51" fill="#FF5AC4" width="7" height="7"/>
<rect x="83" y="51" fill="#FF5AC4" width="7" height="7"/>
<rect x="91" y="51" fill="#FF5AC4" width="7" height="7"/>
<rect x="99" y="51" fill="#FF5AC4" width="7" height="7"/>
<rect x="107" y="51" fill="#FF5AC4" width="7" height="7"/>
<rect x="3" y="59" fill="#FF4DBF" width="7" height="7"/>
<rect x="11" y="59" fill="#FF4DBF" width="7" height="7"/>
<rect x="19" y="59" fill="#FF4DBF" width="7" height="7"/>
<rect x="27" y="59" fill="#FF4DBF" width="7" height="7"/>
<rect x="35" y="59" fill="#FF4DBF" width="7" height="7"/>
<rect x="43" y="59" fill="#FF4DBF" width="7" height="7"/>
<rect x="51" y="59" fill="#FF4DBF" width="7" height="7"/>
<rect x="59" y="59" fill="#FF4DBF" width="7" height="7"/>
<rect x="67" y="59" fill="#FF4DBF" width="7" height="7"/>
<rect x="75" y="59" fill="#FF4DBF" width="7" height="7"/>
<rect x="83" y="59" fill="#FF4DBF" width="7" height="7"/>
<rect x="91" y="59" fill="#FF4DBF" width="7" height="7"/>
<rect x="99" y="59" fill="#FF4DBF" width="7" height="7"/>
<rect x="107" y="59" fill="#FF4DBF" width="7" height="7"/>
<rect x="11" y="67" fill="#FF3FB4" width="7" height="7"/>
<rect x="19" y="67" fill="#FF3FB4" width="7" height="7"/>
<rect x="27" y="67" fill="#FF3FB4" width="7" height="7"/>
<rect x="35" y="67" fill="#FF3FB4" width="7" height="7"/>
<rect x="43" y="67" fill="#FF3FB4" width="7" height="7"/>
<rect x="51" y="67" fill="#FF3FB4" width="7" height="7"/>
<rect x="59" y="67" fill="#FF3FB4" width="7" height="7"/>
<rect x="67" y="67" fill="#FF3FB4" width="7" height="7"/>
<rect x="75" y="67" fill="#FF3FB4" width="7" height="7"/>
<rect x="83" y="67" fill="#FF3FB4" width="7" height="7"/>
<rect x="91" y="67" fill="#FF3FB4" width="7" height="7"/>
<rect x="99" y="67" fill="#FF3FB4" width="7" height="7"/>
<rect x="19" y="75" fill="#FF33B6" width="7" height="7"/>
<rect x="27" y="75" fill="#FF33B6" width="7" height="7"/>
<rect x="35" y="75" fill="#FF33B6" width="7" height="7"/>
<rect x="43" y="75" fill="#FF33B6" width="7" height="7"/>
<rect x="51" y="75" fill="#FF33B6" width="7" height="7"/>
<rect x="59" y="75" fill="#FF33B6" width="7" height="7"/>
<rect x="67" y="75" fill="#FF33B6" width="7" height="7"/>
<rect x="75" y="75" fill="#FF33B6" width="7" height="7"/>
<rect x="83" y="75" fill="#FF33B6" width="7" height="7"/>
<rect x="91" y="75" fill="#FF33B6" width="7" height="7"/>
<rect x="27" y="83" fill="#FF27B2" width="7" height="7"/>
<rect x="35" y="83" fill="#FF27B2" width="7" height="7"/>
<rect x="43" y="83" fill="#FF27B2" width="7" height="7"/>
<rect x="51" y="83" fill="#FF27B2" width="7" height="7"/>
<rect x="59" y="83" fill="#FF27B2" width="7" height="7"/>
<rect x="67" y="83" fill="#FF27B2" width="7" height="7"/>
<rect x="75" y="83" fill="#FF27B2" width="7" height="7"/>
<rect x="83" y="83" fill="#FF27B2" width="7" height="7"/>
<rect x="35" y="91" fill="#FF1AAD" width="7" height="7"/>
<rect x="43" y="91" fill="#FF1AAD" width="7" height="7"/>
<rect x="51" y="91" fill="#FF1AAD" width="7" height="7"/>
<rect x="59" y="91" fill="#FF1AAD" width="7" height="7"/>
<rect x="67" y="91" fill="#FF1AAD" width="7" height="7"/>
<rect x="75" y="91" fill="#FF1AAD" width="7" height="7"/>
<rect x="43" y="99" fill="#FF0DA9" width="7" height="7"/>
<rect x="51" y="99" fill="#FF0DA9" width="7" height="7"/>
<rect x="59" y="99" fill="#FF0DA9" width="7" height="7"/>
<rect x="67" y="99" fill="#FF0DA9" width="7" height="7"/>
<rect x="51" y="107" fill="#FF00A4" width="7" height="7"/>
<rect x="59" y="107" fill="#FF00A4" width="7" height="7"/>
</svg>
