<?xml version="1.0" encoding="utf-8"?>
<!-- Copyright (C) 2014 Brian Speir. All rights reserved. -->
<!DOCTYPE svg PUBLIC "-//W3C//DTD SVG 1.1//EN" "http://www.w3.org/Graphics/SVG/1.1/DTD/svg11.dtd">
<svg version="1.1" id="Pixel" xmlns="http://www.w3.org/2000/svg" xmlns:xlink="http://www.w3.org/1999/xlink" x="0px" y="0px"
	 width="120px" height="120px" viewBox="0 0 120 120" enable-background="new 0 0 120 120" xml:space="preserve">
<path id="Face" fill="#AAAAAA" d="M120,60c0,33.141-26.859,60-60,60c-19.64,0-37.06-9.42-48.01-24c0,0,0-0.01,0.01-0.02V93H9v-6H6
	v-9H3v-9H0V49h3v-9h3v-9h6v-9h9v-9h6V7h12V3h9V0h12C93.141,0,120,26.85,120,60z"/>
<path id="Mouth" fill="#555555" d="M73.42,96.123c0,1.611-1.289,2.9-2.861,2.9L60.5,99.012V99h-12v-3l-3,0.001V93h15v0.252h10.059
	C72.131,93.252,73.42,94.541,73.42,96.123L73.42,96.123z"/>
<path id="Eye_-_Right" fill="#FFFFFF" d="M106.467,59.596c0,10.717-8.682,19.408-19.395,19.408
	c-10.732,0-19.424-8.691-19.424-19.408c0-10.729,8.688-19.41,19.424-19.41C97.785,40.186,106.467,48.872,106.467,59.596z"/>
<path id="Pupil_-_Right" fill="#555555" d="M87.072,52.982c3.643,0,6.592,2.965,6.592,6.61c0,3.64-2.949,6.616-6.592,6.616
	c-3.633,0-6.631-2.979-6.631-6.616C80.441,55.947,83.439,52.982,87.072,52.982z"/>
<path id="Eyebrow_-_Right" fill="#555555" d="M100.363,29.365c0.078,0.679-0.361,1.279-1.045,1.382
	c-0.869,0.122-7.51-3.853-15.938-4.774c-4.219-0.438-4.95-0.233-7.998,0.028c-2.139,0.146-3.192-0.742-2.606-2.222
	c0.972-2.407,6.729-3.867,11.992-3.286C92.238,21.318,99.973,25.708,100.363,29.365z"/>
<path id="Eye_-_Left" fill="#FFFFFF" d="M21.5,51h-9v18h8v9h6v3h13v-3h6v-3h3v-3h3v-6h3V54h-3v-6h-3v-3h-3v-3h-5v-3h-13v3h-6V51z"/>
<polygon id="Pupil_-_Left" fill="#555555" points="37.5,57 40.5,57 40.5,63 37.5,63 37.5,66 27.5,66 27.5,54 37.5,54 "/>
<path id="Eyebrow_-_Left" fill="#555555" d="M18.5,30h18v-3h9v-3h3v-3h-18v3h-12V30z"/>
</svg>
