<?xml version="1.0" encoding="utf-8"?>
<!-- Generator: Adobe Illustrator 16.0.5, SVG Export Plug-In . SVG Version: 6.00 Build 0)  -->
<!DOCTYPE svg PUBLIC "-//W3C//DTD SVG 1.1//EN" "http://www.w3.org/Graphics/SVG/1.1/DTD/svg11.dtd">
<svg version="1.1" id="Layer_1" xmlns="http://www.w3.org/2000/svg" xmlns:xlink="http://www.w3.org/1999/xlink" x="0px" y="0px"
	 viewBox="-308.5 560.5 286 90" enable-background="new -308.5 560.5 286 90" xml:space="preserve">
<g>
	<rect x="-302.194" y="637.932" fill="#111111" width="273.387" height="12.568"/>
	<path fill="#111111" d="M-219.928,606.703c-1.228-3.518-4.76-14.117-4.76-14.117s-3.554,10.607-4.814,14.117
		c-1.487,4.145-6.222,16.477-6.222,16.477h-12.181l17.001-44.312h12.552l16.686,44.312h-12.299
		C-213.965,623.18-218.481,610.841-219.928,606.703z"/>
	<path fill="#111111" d="M-70.068,606.703c-1.228-3.518-4.759-14.117-4.759-14.117s-3.557,10.607-4.816,14.117
		c-1.49,4.145-6.222,16.477-6.222,16.477h-12.183l17.001-44.312h12.552l16.686,44.312h-12.297
		C-64.107,623.18-68.623,610.841-70.068,606.703z"/>
	<rect x="-302.194" y="560.5" fill="#111111" width="273.387" height="12.57"/>
	<path fill="#111111" d="M-276.108,603.893c0,3.193-0.851,5.644-2.552,7.349c-1.987,1.95-4.826,2.927-8.511,2.927h-4.761v9.016
		h-10.262v-20.438h-6.306v-9.126h21.329c3.286,0,5.924,0.879,7.911,2.64C-277.158,598.132-276.108,600.676-276.108,603.893z
		 M-286.514,604.148c0-1.799-1.089-2.697-3.267-2.697h-2.151v5.396h2.151C-287.603,606.848-286.514,605.948-286.514,604.148z"/>
	<path fill="#111111" d="M-251.171,623.18h-19.953v-29.562h10.636v20.69h9.317V623.18z"/>
	<path fill="#111111" d="M-175.919,612.816v10.131c-1.854,0.9-4.291,1.35-7.31,1.35c-4.415,0-8.295-1.635-11.636-4.906
		c-3.04-2.947-4.558-6.608-4.558-10.992c0-4.42,1.614-8.181,4.845-11.278c1.49-1.437,3.308-2.562,5.445-3.388
		c2.046-0.82,4.016-1.232,5.905-1.232c2.677,0,5.113,0.42,7.31,1.264v10.131c-1.854-1.686-3.909-2.525-6.164-2.525
		c-2.024,0-3.65,0.658-4.874,1.98c-1.223,1.303-1.833,2.984-1.833,5.051c0,2.065,0.602,3.74,1.806,5.023
		c1.223,1.34,2.854,2.008,4.901,2.008C-180.019,615.43-177.966,614.557-175.919,612.816z"/>
	<path fill="#111111" d="M-146.75,623.18h-20.325v-29.562h20.067v7.891h-9.429v3.046h8.625v7.604h-8.625v3.129h9.687V623.18z"/>
	<path fill="#111111" d="M-100.739,623.18h-10.289l-1.604-16.306l-0.26,0.032l-5.305,16.273h-6.019l-4.958-16.308l-0.261,0.032
		l-1.717,16.271h-10.322l4.96-29.562h10.863l4.474,15.557l0.258-0.028l4.442-15.526h10.809L-100.739,623.18z"/>
	<path fill="#111111" d="M-22.501,602.743h-6.306v20.437h-10.261v-20.437h-6.309v-9.126H-22.5L-22.501,602.743L-22.501,602.743z"/>
</g>
</svg>
