<?xml version="1.0" encoding="utf-8"?>
<!-- Generator: Adobe Illustrator 16.0.4, SVG Export Plug-In . SVG Version: 6.00 Build 0)  -->
<!DOCTYPE svg PUBLIC "-//W3C//DTD SVG 1.1//EN" "http://www.w3.org/Graphics/SVG/1.1/DTD/svg11.dtd">
<svg version="1.1" id="Layer_1" xmlns="http://www.w3.org/2000/svg" xmlns:xlink="http://www.w3.org/1999/xlink" x="0px" y="0px"
	 width="660px" height="132px" viewBox="0 0 660 132" enable-background="new 0 0 660 132" xml:space="preserve">
<g>
	<polygon fill="#111111" points="652.479,54.735 653.15,62.585 660,66.481 652.742,69.548 651.152,77.266 645.994,71.311 
		638.163,72.184 642.232,65.437 638.982,58.259 646.656,60.045 	"/>
	<polygon fill="#111111" points="599.396,54.925 599.014,62.794 605.281,67.568 597.68,69.641 595.074,77.075 590.756,70.484 
		582.879,70.307 587.812,64.162 585.55,56.614 592.917,59.409 	"/>
	<polygon fill="#111111" points="550.157,64.995 543.572,69.322 543.402,77.199 537.253,72.273 529.709,74.547 532.493,67.177 
		528,60.704 535.87,61.074 540.639,54.801 542.718,62.4 	"/>
</g>
<path fill="#111111" d="M0,43.612C0,39.518,3.32,36.2,7.416,36.2c29.292,0,87.876,0,117.168,0c4.096,0,7.416,3.318,7.416,7.412
	c0,21.35-25.361,52.188-66,52.188S0,64.962,0,43.612z"/>
<g>
	
		<rect x="266.655" y="44.412" transform="matrix(-0.8387 -0.5446 0.5446 -0.8387 585.1791 270.5478)" fill="#111111" width="132.001" height="8.402"/>
	
		<rect x="266.658" y="71.81" transform="matrix(-0.9511 -0.309 0.309 -0.9511 625.5604 251.0878)" fill="#111111" width="132.009" height="8.398"/>
	
		<rect x="262.669" y="58.835" transform="matrix(-0.4067 -0.9136 0.9136 -0.4067 404.7462 388.9305)" fill="#111111" width="131.998" height="8.4"/>
	
		<rect x="255.053" y="63.146" transform="matrix(0.5446 -0.8387 0.8387 0.5446 89.7255 299.9368)" fill="#111111" width="132.002" height="8.4"/>
	
		<rect x="285.671" y="61.8" transform="matrix(0.2079 -0.9781 0.9781 0.2079 213.9955 396.2572)" fill="#111111" width="131.987" height="8.397"/>
	
		<rect x="259.237" y="69.796" transform="matrix(0.9136 -0.4067 0.4067 0.9136 -1.9827 138.6648)" fill="#111111" width="131.998" height="8.402"/>
</g>
</svg>
