<?xml version="1.0" encoding="utf-8"?>
<!-- Generator: Adobe Illustrator 16.0.4, SVG Export Plug-In . SVG Version: 6.00 Build 0)  -->
<!DOCTYPE svg PUBLIC "-//W3C//DTD SVG 1.1//EN" "http://www.w3.org/Graphics/SVG/1.1/DTD/svg11.dtd">
<svg version="1.1" id="Layer_1" xmlns="http://www.w3.org/2000/svg" xmlns:xlink="http://www.w3.org/1999/xlink" x="0px" y="0px"
	 width="435px" height="435px" viewBox="-271.5 454.5 435 435" enable-background="new -271.5 454.5 435 435" xml:space="preserve">
<linearGradient id="SVGID_1_" gradientUnits="userSpaceOnUse" x1="-78" y1="-772.4995" x2="-78" y2="-337.4995" gradientTransform="matrix(1 0 0 -1 24 117)">
	<stop  offset="0" style="stop-color:#FF3300"/>
	<stop  offset="1" style="stop-color:#FE5000"/>
</linearGradient>
<rect x="-271.5" y="454.5" fill="url(#SVGID_1_)" width="435" height="435"/>
<path id="Bowl" fill="#FFFFFF" d="M-54,857.779c-114.39,0-185.779-104.788-185.779-164.905c0-11.528,9.346-20.874,20.872-20.874
	c82.453,0,247.355,0,329.811,0c11.525,0,20.871,9.346,20.871,20.874C131.779,752.991,60.39,857.779-54,857.779z"/>
<g id="Noodles">
	<path fill="#FFFFFF" d="M40.768,576.814c-4.753,0-9.397,0.469-13.879,1.355C6.183,557.468-22.414,544.665-54,544.665
		c-44.592,0-83.22,25.514-102.094,62.735c-26.695,8.994-48.99,27.576-62.778,51.65h25.009c2.509-3.277,5.242-6.395,8.194-9.346
		c8.599-8.592,18.6-15.344,29.733-20.054c11.517-4.867,23.76-7.339,36.394-7.339s24.878,2.472,36.394,7.339
		c9.963,4.215,19.016,10.063,26.973,17.409c-2.794,3.729-5.228,7.746-7.249,11.99h24.351c1.322-1.729,2.776-3.384,4.336-4.943
		c7.478-7.486,16.912-12.305,27.14-13.993c2.421,5.937,3.688,12.341,3.688,18.94h20.874c0-39.199-31.776-70.972-70.972-70.972
		c-16.665,0-31.992,5.738-44.104,15.366c-6.949-1.314-14.114-2.004-21.442-2.004c-2.812,0-5.599,0.096-8.358,0.301
		c2.396-3.084,4.987-6.021,7.778-8.818c8.599-8.595,18.6-15.341,29.732-20.054c11.518-4.863,23.76-7.339,36.394-7.339
		s24.876,2.476,36.394,7.339c11.133,4.713,21.134,11.459,29.729,20.054c8.599,8.599,15.344,18.604,20.054,29.732
		c4.871,11.518,7.339,23.764,7.339,36.395h25.943c1.574-3.432,2.445-7.251,2.445-11.272c0-9.697-5.09-18.212-12.736-23.001
		c-3.025-9.632-7.276-18.714-12.594-27.063c12.711,0.446,24.591,5.603,33.621,14.638c9.463,9.459,14.675,22.042,14.675,35.424
		c0,3.838-0.429,7.617-1.271,11.271h21.254c0.586-3.67,0.887-7.434,0.887-11.271C111.74,608.587,79.967,576.814,40.768,576.814z
		 M-54,608.961c12.484,0,24.272,4.533,33.472,12.824c-7.562,2.365-14.583,5.966-20.819,10.558
		c-8.814-8.258-18.946-15.136-30.038-20.292C-65.891,610.016-60.022,608.961-54,608.961z"/>
	<path fill="#FFFFFF" d="M-119.546,644.863c-15.979,0-30.723,5.281-42.584,14.195h85.173
		C-88.819,650.145-103.566,644.863-119.546,644.863z"/>
</g>
<polygon id="Right_Star" fill="#FFFFFF" points="-67.196,487.532 -61.339,466.139 -47.921,483.797 -25.765,482.753 -38.414,500.973 
	-30.577,521.718 -51.81,515.32 -69.121,529.186 -69.597,507.015 -88.136,494.834 "/>
<polygon id="Center_Star" fill="#FFFFFF" points="-118.409,458.25 -121.657,469.082 -107.771,486.375 -129.945,486.881 
	-142.096,505.433 -149.431,484.504 -170.827,478.678 -153.188,465.237 -153.529,458.25 "/>
<polygon id="Left_Star" fill="#FFFFFF" points="-192.682,545.657 -171.087,540.633 -180.236,560.833 -168.78,579.828 
	-190.822,577.371 -205.342,594.129 -209.815,572.405 -230.246,563.777 -210.967,552.812 -209.074,530.716 "/>
<path id="Mask" fill="#FFFFFF" d="M-271.5,454.5v435h435v-435H-271.5z M159.75,741.101c0,48.974,0,62.706-7.09,83.792
	c-9.104,24.921-28.85,44.664-53.774,53.768c-21.079,7.09-34.819,7.09-83.785,7.09c-138.201,0-138.201,0-138.201,0
	c-48.968,0-62.708,0-83.791-7.09c-24.922-9.104-44.667-28.85-53.771-53.774c-7.088-21.079-7.088-34.819-7.088-83.785
	c0-138.201,0-138.201,0-138.201c0-48.974,0-62.706,7.092-83.792c9.104-24.921,28.848-44.664,53.771-53.768
	c21.083-7.09,34.823-7.09,83.787-7.09H15.101c48.966,0,62.706,0,83.792,7.09c24.921,9.104,44.664,28.85,53.768,53.774
	c7.09,21.079,7.09,34.819,7.09,83.785C159.75,741.101,159.75,741.101,159.75,741.101z"/>
<g id="Outline_2_">
	<path fill="#DDDDDD" d="M15.104,458.25c48.962,0,62.703,0,83.789,7.09c24.921,9.111,44.664,28.85,53.768,53.774
		c7.09,21.079,7.09,34.819,7.09,83.782c0,138.2,0,138.2,0,138.2c0,48.97,0,62.71-7.09,83.789
		c-9.111,24.925-28.85,44.663-53.774,53.774c-21.079,7.09-34.819,7.09-83.782,7.09c-138.205,0-138.205,0-138.205,0
		c-48.964,0-62.704,0-83.787-7.09c-24.922-9.111-44.663-28.85-53.771-53.774c-7.092-21.079-7.092-34.819-7.092-83.785
		c0-138.201,0-138.201,0-138.201c0-48.966,0-62.706,7.092-83.785c9.107-24.925,28.848-44.663,53.771-53.774
		c21.083-7.09,34.823-7.09,83.782-7.09H15.104 M15.104,454.5h-138.21c-48.636,0-63.314,0-84.977,7.28
		c-26.161,9.565-46.571,29.978-56.1,56.041c-7.317,21.757-7.317,36.442-7.317,85.075v138.2c0,48.64,0,63.317,7.286,84.986
		c9.56,26.159,29.971,46.571,56.038,56.101c21.757,7.316,36.438,7.316,85.071,7.316H15.101c48.636,0,63.313,0,84.979-7.28
		c26.162-9.565,46.57-29.978,56.1-56.041c7.32-21.757,7.32-36.442,7.32-85.078V602.896c0-48.641,0-63.318-7.287-84.983
		c-9.559-26.155-29.971-46.571-56.038-56.1C78.422,454.5,63.736,454.5,15.104,454.5L15.104,454.5z"/>
</g>
</svg>
