<?xml version="1.0" encoding="utf-8"?>
<!-- Generator: Adobe Illustrator 16.0.4, SVG Export Plug-In . SVG Version: 6.00 Build 0)  -->
<!DOCTYPE svg PUBLIC "-//W3C//DTD SVG 1.1//EN" "http://www.w3.org/Graphics/SVG/1.1/DTD/svg11.dtd">
<svg version="1.1" id="Layer_1" xmlns="http://www.w3.org/2000/svg" xmlns:xlink="http://www.w3.org/1999/xlink" x="0px" y="0px"
	 width="660px" height="161px" viewBox="0 0 660 161" enable-background="new 0 0 660 161" xml:space="preserve">
<g>
	<path fill="#111111" d="M17,160.727c-10.467,0-17-9.586-17-15.092c0-1.052,0.855-1.906,1.908-1.906c7.547,0,22.634,0,30.184,0
		c1.051,0,1.908,0.854,1.908,1.906C34,151.141,27.47,160.727,17,160.727z"/>
	<g>
		<path fill="#111111" d="M25.672,135.018c-0.432,0-0.86,0.043-1.271,0.121c-1.896-1.892-4.51-3.064-7.4-3.064
			c-4.08,0-7.615,2.335-9.342,5.74c-2.443,0.824-4.484,2.524-5.746,4.729h2.291c0.227-0.3,0.479-0.588,0.747-0.856
			c0.788-0.787,1.702-1.402,2.721-1.838c1.056-0.445,2.176-0.673,3.333-0.673c1.153,0,2.276,0.228,3.33,0.673
			c0.911,0.389,1.738,0.922,2.469,1.594c-0.257,0.343-0.479,0.709-0.664,1.102h2.227c0.123-0.16,0.253-0.312,0.396-0.455
			c0.688-0.688,1.552-1.128,2.483-1.281c0.223,0.547,0.339,1.131,0.339,1.736H23.5c0-3.59-2.912-6.496-6.498-6.496
			c-1.525,0-2.928,0.526-4.035,1.406c-0.637-0.123-1.291-0.184-1.961-0.184c-0.258,0-0.514,0.011-0.767,0.025
			c0.22-0.279,0.455-0.552,0.713-0.805c0.785-0.79,1.702-1.403,2.721-1.837c1.054-0.444,2.173-0.669,3.329-0.669
			c1.157,0,2.279,0.225,3.33,0.669c1.021,0.434,1.936,1.047,2.723,1.837c0.785,0.787,1.404,1.699,1.832,2.722
			c0.446,1.052,0.674,2.172,0.674,3.33h2.373c0.143-0.315,0.225-0.664,0.225-1.032c0-0.89-0.465-1.668-1.168-2.109
			c-0.273-0.877-0.668-1.707-1.148-2.473c1.16,0.041,2.248,0.51,3.074,1.34c0.865,0.869,1.342,2.02,1.342,3.242
			c0,0.35-0.041,0.698-0.117,1.032h1.948c0.052-0.336,0.081-0.685,0.081-1.032C32.168,137.923,29.26,135.018,25.672,135.018z
			 M17,137.955c1.141,0,2.221,0.417,3.061,1.179c-0.689,0.216-1.334,0.543-1.9,0.968c-0.809-0.761-1.734-1.39-2.75-1.859
			C15.913,138.057,16.449,137.955,17,137.955z"/>
		<path fill="#111111" d="M11.004,141.245c-1.462,0-2.814,0.483-3.898,1.299h7.793C13.814,141.729,12.465,141.245,11.004,141.245z"
			/>
	</g>
	<polygon fill="#111111" points="4.31,132.166 6.286,131.704 5.447,133.553 6.498,135.289 4.482,135.062 3.15,136.602 
		2.742,134.615 0.871,133.82 2.635,132.816 2.811,130.8 	"/>
	<polygon fill="#111111" points="9.494,123.934 11.394,123.212 10.809,125.159 12.081,126.739 10.051,126.788 8.939,128.482 
		8.268,126.57 6.311,126.035 7.924,124.805 7.826,122.777 	"/>
	<polygon fill="#111111" points="15.793,126.844 16.328,124.889 17.559,126.503 19.582,126.407 18.428,128.075 19.144,129.977 
		17.2,129.393 15.618,130.655 15.572,128.627 13.878,127.512 	"/>
</g>
<g>
	<path fill="#111111" d="M173.333,160.727c-16.933,0-27.5-15.511-27.5-24.41c0-1.707,1.385-3.09,3.09-3.09
		c12.205,0,36.613,0,48.819,0c1.704,0,3.091,1.383,3.091,3.09C200.833,145.216,190.265,160.727,173.333,160.727z"/>
	<g>
		<path fill="#111111" d="M187.36,119.137c-0.703,0-1.391,0.068-2.055,0.202c-3.065-3.065-7.297-4.96-11.973-4.96
			c-6.602,0-12.319,3.775-15.112,9.288c-3.952,1.331-7.253,4.081-9.294,7.646h3.703c0.371-0.485,0.775-0.947,1.212-1.387
			c1.272-1.271,2.754-2.27,4.401-2.967c1.705-0.72,3.518-1.086,5.387-1.086s3.684,0.366,5.389,1.086
			c1.474,0.624,2.812,1.489,3.991,2.577c-0.413,0.552-0.772,1.146-1.072,1.774h3.604c0.195-0.256,0.41-0.5,0.643-0.731
			c1.107-1.106,2.503-1.822,4.017-2.073c0.358,0.881,0.546,1.828,0.546,2.807h3.092c0-5.804-4.705-10.508-10.506-10.508
			c-2.469,0-4.735,0.853-6.529,2.275c-1.027-0.195-2.089-0.297-3.174-0.297c-0.416,0-0.828,0.016-1.238,0.045
			c0.355-0.456,0.739-0.893,1.154-1.305c1.271-1.273,2.752-2.271,4.398-2.969c1.707-0.722,3.52-1.087,5.389-1.087
			s3.682,0.365,5.387,1.087c1.646,0.698,3.129,1.694,4.4,2.969c1.273,1.271,2.271,2.754,2.969,4.399
			c0.721,1.705,1.086,3.517,1.086,5.388h3.841c0.231-0.508,0.362-1.074,0.362-1.668c0-1.437-0.754-2.695-1.887-3.406
			c-0.447-1.424-1.078-2.769-1.864-4.004c1.882,0.064,3.64,0.828,4.977,2.166c1.401,1.4,2.173,3.264,2.173,5.244
			c0,0.568-0.064,1.129-0.188,1.668h3.146c0.085-0.543,0.131-1.101,0.131-1.668C197.866,123.842,193.163,119.137,187.36,119.137z
			 M173.333,123.896c1.847,0,3.592,0.672,4.954,1.897c-1.12,0.351-2.159,0.883-3.081,1.562c-1.307-1.223-2.805-2.24-4.445-3.004
			C171.572,124.052,172.44,123.896,173.333,123.896z"/>
		<path fill="#111111" d="M163.63,129.211c-2.364,0-4.549,0.781-6.303,2.102h12.607C168.179,129.992,165.995,129.211,163.63,129.211
			z"/>
	</g>
	<polygon fill="#111111" points="152.804,114.525 156.002,113.781 154.647,116.771 156.343,119.583 153.081,119.219 150.93,121.701 
		150.267,118.484 147.245,117.207 150.097,115.583 150.378,112.312 	"/>
	<polygon fill="#111111" points="161.191,101.21 164.262,100.046 163.317,103.191 165.372,105.75 162.091,105.826 160.292,108.57 
		159.206,105.475 156.039,104.611 158.649,102.621 158.492,99.342 	"/>
	<polygon fill="#111111" points="171.38,105.922 172.245,102.756 174.233,105.369 177.511,105.215 175.639,107.912 176.8,110.982 
		173.656,110.035 171.094,112.088 171.022,108.803 168.28,107.002 	"/>
</g>
<g>
	<path fill="#111111" d="M358.668,160.727c-27.396,0-44.501-25.098-44.501-39.506c0-2.754,2.24-4.992,4.996-4.992
		c19.756,0,59.25,0,79.011,0c2.751,0,4.993,2.238,4.993,4.992C403.167,135.629,386.077,160.727,358.668,160.727z"/>
	<g>
		<path fill="#111111" d="M381.368,93.428c-1.129,0-2.254,0.111-3.326,0.314c-4.965-4.949-11.807-8.021-19.374-8.021
			c-10.682,0-19.932,6.111-24.454,15.027c-6.395,2.158-11.735,6.609-15.039,12.381h5.996c0.595-0.783,1.256-1.537,1.955-2.242
			c2.063-2.061,4.453-3.672,7.122-4.811c2.765-1.167,5.695-1.762,8.722-1.762c3.021,0,5.964,0.595,8.722,1.762
			c2.385,1.016,4.551,2.41,6.459,4.168c-0.668,0.898-1.25,1.857-1.735,2.885h5.827c0.324-0.419,0.662-0.814,1.039-1.189
			c1.797-1.797,4.062-2.953,6.499-3.354c0.582,1.431,0.884,2.959,0.884,4.545h5.017c0-9.396-7.624-17.006-17.012-17.006
			c-3.993,0-7.663,1.379-10.562,3.683c-1.667-0.322-3.382-0.48-5.138-0.48c-0.674,0-1.344,0.029-2.002,0.068
			c0.57-0.732,1.189-1.441,1.865-2.105c2.055-2.068,4.457-3.674,7.121-4.807c2.758-1.164,5.688-1.75,8.714-1.75
			c3.03,0,5.964,0.586,8.72,1.75c2.671,1.133,5.062,2.737,7.128,4.807c2.056,2.061,3.676,4.452,4.792,7.126
			c1.173,2.75,1.765,5.687,1.765,8.716h6.215c0.371-0.828,0.588-1.738,0.588-2.701c0-2.328-1.215-4.367-3.059-5.521
			c-0.72-2.3-1.746-4.472-3.008-6.478c3.036,0.108,5.884,1.338,8.047,3.51c2.266,2.273,3.515,5.285,3.515,8.488
			c0,0.916-0.108,1.828-0.308,2.701h5.102c0.137-0.879,0.211-1.789,0.211-2.701C398.374,101.031,390.762,93.428,381.368,93.428z
			 M358.668,101.117c2.984,0,5.815,1.09,8.013,3.084c-1.805,0.564-3.491,1.424-4.977,2.531c-2.117-1.986-4.543-3.633-7.195-4.865
			C355.824,101.379,357.228,101.117,358.668,101.117z"/>
		<path fill="#111111" d="M342.97,109.729c-3.822,0-7.362,1.267-10.203,3.4h20.401C350.332,110.994,346.8,109.729,342.97,109.729z"
			/>
	</g>
	<polygon fill="#111111" points="325.448,85.964 330.622,84.754 328.431,89.592 331.175,94.139 325.899,93.548 322.413,97.57 
		321.346,92.375 316.446,90.298 321.065,87.67 321.525,82.385 	"/>
	<polygon fill="#111111" points="339.021,64.414 343.991,62.524 342.462,67.621 345.792,71.758 340.476,71.885 337.565,76.322 
		335.809,71.317 330.685,69.914 334.913,66.69 334.653,61.389 	"/>
	<polygon fill="#111111" points="355.507,72.031 356.911,66.913 360.13,71.138 365.425,70.891 362.407,75.256 364.278,80.229 
		359.193,78.699 355.05,82.01 354.931,76.699 350.497,73.779 	"/>
</g>
<g>
	<path fill="#111111" d="M588.002,160.727c-44.326,0-72.002-40.606-72.002-63.92c0-4.455,3.625-8.078,8.083-8.078
		c31.965,0,95.866,0,127.839,0c4.451,0,8.078,3.623,8.078,8.078C660,120.119,632.35,160.727,588.002,160.727z"/>
	<g>
		<path fill="#111111" d="M624.73,51.84c-1.826,0-3.646,0.18-5.384,0.508c-8.03-8.008-19.103-12.979-31.346-12.979
			c-17.283,0-32.248,9.888-39.565,24.314c-10.347,3.49-18.988,10.692-24.334,20.03h9.703c0.962-1.268,2.032-2.486,3.162-3.628
			c3.339-3.332,7.206-5.941,11.523-7.782c4.472-1.889,9.214-2.851,14.111-2.851c4.89,0,9.648,0.962,14.108,2.851
			c3.858,1.645,7.362,3.901,10.451,6.744c-1.079,1.455-2.021,3.005-2.809,4.666h9.429c0.524-0.677,1.069-1.318,1.682-1.924
			c2.907-2.908,6.572-4.777,10.516-5.431c0.941,2.314,1.431,4.789,1.431,7.354h8.117c0-15.202-12.339-27.514-27.525-27.514
			c-6.461,0-12.399,2.231-17.089,5.956c-2.696-0.522-5.471-0.776-8.311-0.776c-1.09,0-2.175,0.046-3.239,0.111
			c0.922-1.188,1.924-2.335,3.018-3.407c3.324-3.348,7.211-5.945,11.523-7.779c4.46-1.884,9.2-2.828,14.098-2.828
			c4.902,0,9.648,0.944,14.109,2.828c4.319,1.834,8.188,4.432,11.53,7.779c3.325,3.333,5.945,7.203,7.756,11.529
			c1.894,4.449,2.854,9.197,2.854,14.101h10.054c0.603-1.339,0.953-2.812,0.953-4.37c0-3.767-1.967-7.064-4.949-8.935
			c-1.163-3.719-2.823-7.233-4.864-10.479c4.912,0.178,9.518,2.166,13.017,5.68c3.667,3.679,5.688,8.553,5.688,13.734
			c0,1.481-0.176,2.957-0.497,4.37h8.254c0.223-1.421,0.342-2.894,0.342-4.37C652.246,64.143,639.93,51.84,624.73,51.84z
			 M588.002,64.279c4.828,0,9.409,1.764,12.965,4.991c-2.92,0.913-5.649,2.304-8.051,4.095c-3.428-3.213-7.352-5.878-11.644-7.871
			C583.401,64.705,585.67,64.279,588.002,64.279z"/>
		<path fill="#111111" d="M562.604,78.211c-6.188,0-11.914,2.05-16.51,5.503h33.01C574.515,80.261,568.799,78.211,562.604,78.211z"
			/>
	</g>
	<polygon fill="#111111" points="534.254,39.762 542.623,37.805 539.079,45.633 543.52,52.986 534.984,52.033 529.342,58.541 
		527.615,50.136 519.688,46.773 527.162,42.521 527.906,33.973 	"/>
	<polygon fill="#111111" points="556.213,4.895 564.256,1.838 561.781,10.082 567.169,16.777 558.568,16.983 553.859,24.163 
		551.017,16.064 542.727,13.795 549.566,8.578 549.146,0 	"/>
	<polygon fill="#111111" points="582.888,17.22 585.159,8.938 590.367,15.773 598.935,15.373 594.052,22.437 597.08,30.482 
		588.854,28.008 582.148,33.363 581.955,24.771 574.783,20.049 	"/>
</g>
</svg>
