<?xml version="1.0" encoding="utf-8"?>
<!-- Generator: Adobe Illustrator 16.0.4, SVG Export Plug-In . SVG Version: 6.00 Build 0)  -->
<!DOCTYPE svg PUBLIC "-//W3C//DTD SVG 1.1//EN" "http://www.w3.org/Graphics/SVG/1.1/DTD/svg11.dtd">
<svg version="1.1" id="Layer_1" xmlns="http://www.w3.org/2000/svg" xmlns:xlink="http://www.w3.org/1999/xlink" x="0px" y="0px"
	 width="435px" height="435px" viewBox="0 0 435 435" enable-background="new 0 0 435 435" xml:space="preserve">
<g id="Outline_2_" display="none">
	<path display="inline" fill="#DDDDDD" d="M269.064,58c36.537,0,46.789,0,62.521,5.289c18.597,6.796,33.329,21.53,40.126,40.126
		C377,119.145,377,129.397,377,165.935c0,103.129,0,103.129,0,103.129c0,36.537,0,46.789-5.289,62.521
		c-6.797,18.597-21.529,33.329-40.126,40.126C315.854,377,305.604,377,269.064,377c-103.129,0-103.129,0-103.129,0
		c-36.538,0-46.791,0-62.521-5.289c-18.597-6.797-33.33-21.529-40.126-40.126C58,315.854,58,305.604,58,269.064
		c0-103.129,0-103.129,0-103.129c0-36.538,0-46.79,5.289-62.521c6.796-18.596,21.529-33.33,40.126-40.126
		C119.145,58,129.397,58,165.936,58H269.064 M269.064,52H165.936c-36.697,0-47.772,0-64.433,5.602l-0.074,0.025l-0.073,0.027
		c-20.339,7.433-36.268,23.362-43.702,43.702l-0.027,0.073l-0.025,0.074C52,118.163,52,129.238,52,165.935v103.129
		c0,36.695,0,47.771,5.602,64.433l0.025,0.073l0.027,0.074c7.433,20.338,23.362,36.268,43.702,43.701l0.073,0.026l0.074,0.024
		C118.163,383,129.238,383,165.936,383h103.128c36.696,0,47.771,0,64.434-5.602l0.074-0.025l0.072-0.025
		c20.341-7.436,36.269-23.363,43.702-43.703l0.026-0.072l0.025-0.074C383,316.836,383,305.761,383,269.064V165.935
		c0-36.697,0-47.772-5.602-64.433l-0.025-0.074l-0.026-0.073c-7.435-20.34-23.362-36.269-43.702-43.702l-0.072-0.027l-0.074-0.025
		C316.836,52,305.761,52,269.064,52L269.064,52z"/>
</g>
<path id="Outline_4_" fill="#DDDDDD" d="M269.064,58c36.537,0,46.789,0,62.521,5.289c18.597,6.796,33.329,21.53,40.126,40.126
	C377,119.145,377,129.397,377,165.935c0,103.129,0,103.129,0,103.129c0,36.537,0,46.789-5.289,62.521
	c-6.797,18.597-21.529,33.329-40.126,40.126C315.854,377,305.604,377,269.064,377c-103.129,0-103.129,0-103.129,0
	c-36.538,0-46.791,0-62.521-5.289c-18.597-6.797-33.33-21.529-40.126-40.126C58,315.854,58,305.604,58,269.064
	c0-103.129,0-103.129,0-103.129c0-36.538,0-46.79,5.289-62.521c6.796-18.596,21.529-33.33,40.126-40.126
	C119.145,58,129.397,58,165.936,58H269.064 M269.064,52H165.936c-36.697,0-47.772,0-64.433,5.602l-0.074,0.025l-0.073,0.027
	c-20.339,7.433-36.268,23.362-43.702,43.702l-0.027,0.073l-0.025,0.074C52,118.163,52,129.238,52,165.935v103.129
	c0,36.695,0,47.771,5.602,64.433l0.025,0.073l0.027,0.074c7.433,20.338,23.362,36.268,43.702,43.701l0.073,0.026l0.074,0.024
	C118.163,383,129.238,383,165.936,383h103.128c36.696,0,47.771,0,64.434-5.602l0.074-0.025l0.072-0.025
	c20.341-7.436,36.269-23.363,43.702-43.703l0.026-0.072l0.025-0.074C383,316.836,383,305.761,383,269.064V165.935
	c0-36.697,0-47.772-5.602-64.433l-0.025-0.074l-0.026-0.073c-7.435-20.34-23.362-36.269-43.702-43.702l-0.072-0.027l-0.074-0.025
	C316.836,52,305.761,52,269.064,52L269.064,52z"/>
<rect y="50" fill="#00FFFF" width="65" height="2"/>
<rect x="370" y="50" fill="#00FFFF" width="65" height="2"/>
<rect y="383" fill="#00FFFF" width="65" height="2"/>
<rect x="370" y="383" fill="#00FFFF" width="65" height="2"/>
<rect x="50" fill="#00FFFF" width="2" height="65"/>
<rect x="383" fill="#00FFFF" width="2" height="65"/>
<rect x="50" y="370" fill="#00FFFF" width="2" height="65"/>
<rect x="383" y="370" fill="#00FFFF" width="2" height="65"/>
</svg>
