<?xml version="1.0" encoding="utf-8"?>
<!-- Copyright (C) 2014 Brian Speir. All rights reserved. -->
<!DOCTYPE svg PUBLIC "-//W3C//DTD SVG 1.1//EN" "http://www.w3.org/Graphics/SVG/1.1/DTD/svg11.dtd">
<svg version="1.1" id="Layer_1" xmlns="http://www.w3.org/2000/svg" xmlns:xlink="http://www.w3.org/1999/xlink" x="0px" y="0px"
	 width="435px" height="435px" viewBox="0 0 435 435" enable-background="new 0 0 435 435" xml:space="preserve">
<linearGradient id="SVGID_1_" gradientUnits="userSpaceOnUse" x1="439.5" y1="774" x2="439.5" y2="339" gradientTransform="matrix(1 0 0 1 -222 -339)">
	<stop  offset="0" style="stop-color:#FF3300"/>
	<stop  offset="1" style="stop-color:#FE5000"/>
</linearGradient>
<rect fill="url(#SVGID_1_)" width="435" height="435"/>
<path id="Bowl" fill="#FFFFFF" d="M217.5,403.279c-114.39,0-185.779-104.788-185.779-164.905c0-11.528,9.346-20.874,20.872-20.874
	c82.453,0,247.354,0,329.812,0c11.525,0,20.871,9.346,20.871,20.874C403.279,298.491,331.891,403.279,217.5,403.279z"/>
<g id="Noodles">
	<path fill="#FFFFFF" d="M312.268,122.314c-4.752,0-9.396,0.469-13.879,1.354c-20.705-20.701-49.303-33.504-80.889-33.504
		c-44.592,0-83.22,25.514-102.094,62.735c-26.695,8.993-48.99,27.575-62.778,51.649h25.009c2.509-3.276,5.242-6.395,8.194-9.346
		c8.599-8.592,18.6-15.344,29.733-20.054c11.517-4.867,23.76-7.34,36.394-7.34s24.878,2.473,36.394,7.34
		c9.963,4.215,19.016,10.062,26.973,17.408c-2.794,3.729-5.228,7.746-7.249,11.99h24.351c1.322-1.729,2.776-3.384,4.337-4.943
		c7.478-7.485,16.911-12.305,27.139-13.992c2.422,5.937,3.688,12.341,3.688,18.939h20.874c0-39.199-31.775-70.972-70.972-70.972
		c-16.665,0-31.992,5.738-44.104,15.366c-6.949-1.314-14.114-2.004-21.442-2.004c-2.812,0-5.599,0.096-8.358,0.301
		c2.396-3.084,4.987-6.021,7.778-8.818c8.599-8.595,18.6-15.341,29.732-20.054c11.518-4.863,23.76-7.339,36.394-7.339
		c12.634,0,24.876,2.476,36.394,7.339c11.133,4.713,21.135,11.459,29.729,20.054c8.599,8.6,15.344,18.604,20.054,29.732
		c4.871,11.518,7.339,23.764,7.339,36.395h25.943c1.573-3.432,2.444-7.251,2.444-11.271c0-9.697-5.09-18.212-12.735-23.001
		c-3.024-9.632-7.276-18.714-12.595-27.063c12.711,0.446,24.592,5.604,33.621,14.639c9.463,9.459,14.676,22.042,14.676,35.424
		c0,3.838-0.43,7.617-1.271,11.271h21.254c0.586-3.67,0.887-7.434,0.887-11.271C383.24,154.087,351.467,122.314,312.268,122.314z
		 M217.5,154.461c12.484,0,24.271,4.533,33.473,12.824c-7.562,2.365-14.584,5.966-20.82,10.558
		c-8.813-8.258-18.945-15.136-30.037-20.292C205.609,155.516,211.478,154.461,217.5,154.461z"/>
	<path fill="#FFFFFF" d="M151.954,190.363c-15.979,0-30.723,5.28-42.584,14.194h85.173
		C182.681,195.645,167.934,190.363,151.954,190.363z"/>
</g>
<polygon id="Right_Star" fill="#FFFFFF" points="204.304,33.032 210.161,11.639 223.579,29.297 245.734,28.253 233.086,46.473
	240.923,67.218 219.689,60.82 202.379,74.686 201.903,52.515 183.364,40.334 "/>
<polygon id="Center_Star" fill="#FFFFFF" points="153.091,3.75 149.843,14.582 163.729,31.875 141.555,32.381 129.404,50.933
	122.069,30.004 100.673,24.178 118.312,10.737 117.971,3.75 "/>
<polygon id="Left_Star" fill="#FFFFFF" points="78.818,91.157 100.413,86.133 91.264,106.333 102.72,125.328 80.678,122.871
	66.158,139.629 61.685,117.905 41.254,109.277 60.533,98.312 62.426,76.216 "/>
<path id="Mask" fill="#F7F7F7" d="M0,0v435h435V0H0z M431.25,286.601c0,48.975,0,62.706-7.09,83.792
	c-9.104,24.922-28.85,44.664-53.773,53.769c-21.08,7.09-34.82,7.09-83.785,7.09c-138.202,0-138.202,0-138.202,0
	c-48.968,0-62.708,0-83.791-7.09c-24.922-9.104-44.667-28.851-53.771-53.774C3.75,349.308,3.75,335.568,3.75,286.602
	c0-138.2,0-138.2,0-138.2c0-48.975,0-62.706,7.092-83.792c9.104-24.921,28.848-44.664,53.771-53.769
	c21.083-7.09,34.823-7.09,83.787-7.09h138.202c48.965,0,62.705,0,83.791,7.09c24.922,9.104,44.664,28.851,53.769,53.774
	c7.09,21.079,7.09,34.818,7.09,83.785C431.25,286.601,431.25,286.601,431.25,286.601z"/>
<g id="Outline_2_">
	<path fill="#DDDDDD" d="M286.604,3.75c48.963,0,62.703,0,83.789,7.09c24.922,9.111,44.664,28.851,53.769,53.774
		c7.09,21.079,7.09,34.818,7.09,83.782c0,138.199,0,138.199,0,138.199c0,48.971,0,62.71-7.09,83.789
		c-9.111,24.925-28.851,44.663-53.774,53.774c-21.078,7.09-34.818,7.09-83.781,7.09c-138.206,0-138.206,0-138.206,0
		c-48.964,0-62.704,0-83.787-7.09c-24.922-9.111-44.663-28.851-53.771-53.774C3.75,349.306,3.75,335.566,3.75,286.6
		c0-138.2,0-138.2,0-138.2c0-48.967,0-62.706,7.092-83.785C19.949,39.689,39.69,19.951,64.613,10.84
		c21.083-7.09,34.823-7.09,83.782-7.09H286.604 M286.604,0H148.394C99.758,0,85.08,0,63.417,7.28
		c-26.161,9.564-46.571,29.978-56.1,56.041C0,85.078,0,99.763,0,148.396v138.199c0,48.641,0,63.317,7.286,84.986
		c9.56,26.159,29.971,46.571,56.038,56.101c21.757,7.316,36.438,7.316,85.071,7.316h138.207c48.635,0,63.312,0,84.979-7.28
		c26.162-9.564,46.57-29.978,56.1-56.041C435,349.921,435,335.236,435,286.6V148.396c0-48.642,0-63.318-7.287-84.983
		c-9.559-26.155-29.971-46.571-56.038-56.101C349.922,0,335.236,0,286.604,0L286.604,0z"/>
</g>
</svg>
