<?xml version="1.0" encoding="utf-8"?>
<!-- Generator: Adobe Illustrator 16.0.4, SVG Export Plug-In . SVG Version: 6.00 Build 0)  -->
<!DOCTYPE svg PUBLIC "-//W3C//DTD SVG 1.1//EN" "http://www.w3.org/Graphics/SVG/1.1/DTD/svg11.dtd">
<svg version="1.1" id="Layer_1" xmlns="http://www.w3.org/2000/svg" xmlns:xlink="http://www.w3.org/1999/xlink" x="0px" y="0px"
	 width="382px" height="120px" viewBox="-64.5 316.5 382 120" enable-background="new -64.5 316.5 382 120" xml:space="preserve">
<g>
	<rect x="-10.355" y="408.932" fill="#111111" width="273.71" height="12.568"/>
	<path fill="#111111" d="M72.009,377.703c-1.229-3.518-4.766-14.117-4.766-14.117s-3.558,10.607-4.82,14.117
		c-1.489,4.145-6.229,16.477-6.229,16.477H43.999l17.021-44.312h12.567l16.705,44.312H77.979
		C77.979,394.18,73.457,381.841,72.009,377.703z"/>
	<path fill="#111111" d="M222.046,377.703c-1.229-3.518-4.765-14.117-4.765-14.117s-3.56,10.607-4.821,14.117
		c-1.492,4.145-6.229,16.477-6.229,16.477h-12.198l17.021-44.312h12.568l16.705,44.312h-12.312
		C228.013,394.18,223.492,381.841,222.046,377.703z"/>
	<rect x="-10.355" y="331.5" fill="#111111" width="273.71" height="12.57"/>
	<path fill="#111111" d="M15.762,374.893c0,3.193-0.852,5.643-2.555,7.348c-1.989,1.951-4.831,2.927-8.521,2.927h-4.767v9.015
		h-10.274v-20.438h-6.313v-9.126H4.686c3.29,0,5.931,0.879,7.92,2.64C14.711,369.132,15.762,371.676,15.762,374.893z M5.344,375.148
		c0-1.799-1.09-2.697-3.271-2.697H-0.08v5.396h2.153C4.254,377.848,5.344,376.948,5.344,375.148z"/>
	<path fill="#111111" d="M40.729,394.18H20.752v-29.562h10.649v20.69h9.328V394.18z"/>
	<path fill="#111111" d="M116.07,383.816v10.131c-1.857,0.9-4.296,1.35-7.319,1.35c-4.42,0-8.305-1.635-11.65-4.906
		c-3.043-2.947-4.563-6.609-4.563-10.992c0-4.42,1.616-8.181,4.851-11.279c1.492-1.436,3.312-2.562,5.452-3.387
		c2.048-0.821,4.021-1.233,5.912-1.233c2.68,0,5.119,0.42,7.319,1.263v10.131c-1.857-1.685-3.914-2.525-6.171-2.525
		c-2.027,0-3.655,0.658-4.88,1.98c-1.224,1.303-1.835,2.985-1.835,5.051c0,2.066,0.602,3.74,1.808,5.024
		c1.225,1.339,2.857,2.007,4.907,2.007C111.965,386.43,114.02,385.557,116.07,383.816z"/>
	<path fill="#111111" d="M145.273,394.18h-20.349v-29.562h20.091v7.891h-9.44v3.046h8.635v7.604h-8.635v3.129h9.698V394.18z"/>
	<path fill="#111111" d="M191.339,394.18h-10.301l-1.606-16.306l-0.26,0.032l-5.311,16.273h-6.026l-4.964-16.307l-0.261,0.032
		l-1.719,16.272h-10.334l4.966-29.562h10.876l4.479,15.557l0.258-0.028l4.448-15.527h10.821L191.339,394.18z"/>
	<path fill="#111111" d="M269.669,373.743h-6.314v20.437h-10.273v-20.437h-6.316v-9.126h22.904V373.743L269.669,373.743z"/>
</g>
</svg>
