<?xml version="1.0" encoding="utf-8"?>
<!-- Generator: Adobe Illustrator 16.0.5, SVG Export Plug-In . SVG Version: 6.00 Build 0)  -->
<!DOCTYPE svg PUBLIC "-//W3C//DTD SVG 1.1//EN" "http://www.w3.org/Graphics/SVG/1.1/DTD/svg11.dtd">
<svg version="1.1" id="Toolbox" xmlns="http://www.w3.org/2000/svg" xmlns:xlink="http://www.w3.org/1999/xlink" x="0px" y="0px"
	 width="44px" height="44px" viewBox="0 0 44 44" enable-background="new 0 0 44 44" xml:space="preserve">
<path id="outlines" d="M37,7h-7V3.8C30,1.15,28.75,0,26,0h-8c-2.75,0-4,1.15-4,3.8V7H7c-3.65,0-7,2.35-7,6v31h44V13.45
	C44,9.8,40.641,7,37,7z M16,3.8C16,2.14,16.49,2,18,2h8c1.51,0,2,0.14,2,1.8V7H16V3.8z M2,13c0-2.6,2.58-4,5-4h30
	c2.71,0,5,2.04,5,4.45V37H2V13z M42,42H2v-3h40V42z"/>
<path id="bottom" fill="#FFFFFF" d="M2,13c0-2.6,2.58-4,5-4h30c2.71,0,5,2.04,5,4.45V37H2V13z"/>
<rect id="top" x="2" y="39" fill="#FFFFFF" width="40" height="3"/>
<g>
	<path d="M26,15c0,0.553-0.447,1-1,1h-6c-0.552,0-1-0.447-1-1v-2c0-0.553,0.448-1,1-1h6c0.553,0,1,0.447,1,1V15z"/>
	<g>
		<path fill="#FFFFFF" d="M20.349,14.105c0,0.096-0.191,0.039-0.191,0.228c0,0.298,0.638,0.197,0.638-0.107
			c0-0.208-0.315-0.438-0.315-0.704c0-0.202,0.118-0.37,0.263-0.498c0.145-0.129,0.368-0.258,0.564-0.258
			c0.118,0,0.219,0.063,0.219,0.189c0,0.167-0.156,0.32-0.277,0.417c-0.077,0.06-0.26,0.186-0.358,0.186
			c-0.061,0-0.143-0.095,0.019-0.153c0.099-0.032,0.194-0.084,0.276-0.148c0.255-0.205,0.225-0.356,0.099-0.356
			s-0.298,0.093-0.397,0.17c-0.12,0.09-0.257,0.26-0.257,0.421c0,0.271,0.326,0.516,0.326,0.74c0,0.266-0.323,0.416-0.553,0.416
			c-0.567,0-0.471-0.607-0.12-0.607C20.322,14.04,20.349,14.067,20.349,14.105z"/>
		<path fill="#FFFFFF" d="M21.089,14.842l-0.205,0.494c-0.008,0.027-0.036,0.098-0.071,0.098s-0.062-0.041-0.062-0.071
			c0-0.096,0.246-0.627,0.298-0.739l0.435-0.83l0.071-0.123c0.02-0.036,0.049-0.094,0.093-0.094c0.03,0,0.052,0.028,0.052,0.055
			c0,0.041-0.027,0.082-0.049,0.115l-0.049,0.083l0.005,0.005c0.052-0.036,0.116-0.08,0.187-0.08c0.09,0,0.128,0.055,0.128,0.143
			c0,0.238-0.309,0.69-0.567,0.69c-0.052,0-0.087-0.02-0.125-0.05L21.089,14.842z M21.284,14.42
			c0.019,0.025,0.049,0.033,0.077,0.033c0.126,0,0.244-0.162,0.307-0.257c0.036-0.058,0.106-0.189,0.106-0.26
			c0-0.033-0.022-0.052-0.055-0.052c-0.063,0-0.153,0.085-0.192,0.128c-0.076,0.083-0.128,0.189-0.181,0.288L21.284,14.42z"/>
		<path fill="#FFFFFF" d="M22.556,13.815c0,0.164-0.221,0.427-0.495,0.499c-0.014,0.085,0.047,0.131,0.128,0.131
			c0.236,0,0.422-0.317,0.477-0.317c0.02,0,0.041,0.019,0.039,0.038c-0.01,0.096-0.357,0.43-0.582,0.422
			c-0.123-0.005-0.211-0.08-0.211-0.211c0-0.345,0.383-0.66,0.54-0.66C22.507,13.717,22.556,13.758,22.556,13.815z M22.329,14.048
			c0.03-0.033,0.093-0.104,0.093-0.153c0-0.019-0.011-0.03-0.03-0.03c-0.047,0-0.118,0.06-0.178,0.134
			c-0.06,0.071-0.112,0.156-0.123,0.206C22.186,14.174,22.257,14.125,22.329,14.048z"/>
		<path fill="#FFFFFF" d="M23.117,13.738c0.027,0,0.051,0.022,0.051,0.052c0,0.061-0.223,0.279-0.352,0.723
			c-0.016,0.047-0.025,0.115-0.086,0.115c-0.037,0-0.061-0.033-0.061-0.065C22.67,14.396,23.02,13.738,23.117,13.738z
			 M23.447,13.281c0,0.071-0.098,0.2-0.174,0.2c-0.037,0-0.061-0.028-0.061-0.066c0-0.069,0.098-0.2,0.168-0.2
			C23.424,13.216,23.447,13.243,23.447,13.281z"/>
		<path fill="#FFFFFF" d="M23.65,14.193c-0.066,0-0.121-0.021-0.121-0.095c0-0.031,0.014-0.052,0.029-0.074l-0.004-0.006
			c-0.168,0.137-0.307,0.321-0.406,0.516c-0.02,0.041-0.047,0.114-0.102,0.114c-0.031,0-0.057-0.016-0.057-0.052
			c0-0.074,0.143-0.397,0.178-0.471c0.035-0.08,0.191-0.37,0.293-0.37c0.025,0,0.055,0.017,0.055,0.044
			c0,0.066-0.158,0.187-0.191,0.312l0.006,0.005c0.047-0.074,0.418-0.403,0.492-0.403c0.021,0,0.053,0.041,0.053,0.066
			c0,0.046-0.199,0.159-0.199,0.235c0,0.021,0.018,0.036,0.041,0.036c0.082,0,0.213-0.117,0.244-0.117
			c0.023,0,0.039,0.021,0.039,0.038c0,0.043-0.076,0.098-0.104,0.121C23.828,14.144,23.736,14.193,23.65,14.193z"/>
	</g>
</g>
</svg>
