<?xml version="1.0" encoding="utf-8"?>
<!-- Generator: Adobe Illustrator 16.0.5, SVG Export Plug-In . SVG Version: 6.00 Build 0)  -->
<!DOCTYPE svg PUBLIC "-//W3C//DTD SVG 1.1//EN" "http://www.w3.org/Graphics/SVG/1.1/DTD/svg11.dtd">
<svg version="1.1" id="Toolbox" xmlns="http://www.w3.org/2000/svg" xmlns:xlink="http://www.w3.org/1999/xlink" x="0px" y="0px"
	 width="44px" height="44px" viewBox="0 0 44 44" enable-background="new 0 0 44 44" xml:space="preserve">
<path id="outlines" d="M37,7h-7V3.8C30,1.15,28.75,0,26,0h-8c-2.75,0-4,1.15-4,3.8V7H7c-3.65,0-7,2.35-7,6v31h44V13.45
	C44,9.8,40.64,7,37,7z M16,3.8C16,2.14,16.49,2,18,2h8c1.51,0,2,0.14,2,1.8V7H16V3.8z M2,13c0-2.6,2.58-4,5-4h30
	c2.71,0,5,2.04,5,4.45V37H2V13z M42,42H2v-3h40V42z"/>
<path id="bottom" fill="#FFFFFF" d="M2,13c0-2.6,2.58-4,5-4h30c2.71,0,5,2.04,5,4.45V37H2V13z"/>
<rect id="top" x="2" y="39" fill="#FFFFFF" width="40" height="3"/>
</svg>
