<?xml version="1.0" encoding="utf-8"?>
<!-- Copyright (C) 2014 Brian Speir. All rights reserved. -->
<!DOCTYPE svg PUBLIC "-//W3C//DTD SVG 1.1//EN" "http://www.w3.org/Graphics/SVG/1.1/DTD/svg11.dtd">
<svg version="1.1" id="Quotes" xmlns="http://www.w3.org/2000/svg" xmlns:xlink="http://www.w3.org/1999/xlink" x="0px" y="0px"
	 width="120px" height="120px" viewBox="10.5 120.5 120 120" enable-background="new 10.5 120.5 120 120" xml:space="preserve">
<path id="Pair" fill="#555555" d="M21.487,170.305c7.327-11.904,20.552-22.801,39.686-32.662l3.594,6.721
	c-9.576,6.778-16.643,12.467-21.236,17.053c-8.063,8.274-12.096,16.188-12.096,23.765c0,2.588,0.739,4.29,2.234,5.083
	c1.496,0.891,2.794,1.345,3.881,1.345c3.795-0.491,6.283-0.738,7.478-0.738c6.376,0,11.618,2.309,15.709,6.938
	c4.084,4.638,6.114,10.25,6.114,16.816c0,7.385-2.233,13.545-6.72,18.467c-4.485,4.941-10.659,7.408-18.53,7.408
	c-9.275,0-16.782-3.319-22.499-9.944c-5.738-6.626-8.603-15.478-8.603-26.53C10.5,193.448,14.164,182.211,21.487,170.305z
	 M85.809,169.48c7.762-11.849,20.768-22.467,39.014-31.839l3.583,6.72c-8.959,6.286-15.848,11.812-20.622,16.602
	c-8.48,8.48-12.715,16.352-12.715,23.622c0,2.085,0.548,3.788,1.644,5.073c1.098,1.306,2.594,1.948,4.485,1.948
	c3.786-0.491,6.285-0.738,7.479-0.738c6.286,0,11.481,2.294,15.628,6.873c4.121,4.579,6.196,10.222,6.196,16.884
	c0,7.779-2.293,14.037-6.873,18.768c-4.594,4.734-10.826,7.106-18.695,7.106c-8.959,0-16.342-3.319-22.112-9.945
	c-5.793-6.624-8.669-15.477-8.669-26.525C74.15,192.858,78.029,181.351,85.809,169.48z"/>
</svg>
