<?xml version="1.0" encoding="utf-8"?>
<!-- Generator: Adobe Illustrator 16.0.5, SVG Export Plug-In . SVG Version: 6.00 Build 0)  -->
<!DOCTYPE svg PUBLIC "-//W3C//DTD SVG 1.1//EN" "http://www.w3.org/Graphics/SVG/1.1/DTD/svg11.dtd">
<svg version="1.1" id="Quotes" xmlns="http://www.w3.org/2000/svg" xmlns:xlink="http://www.w3.org/1999/xlink" x="0px" y="0px"
	 width="140px" height="120px" viewBox="0 0 140 120" enable-background="new 0 0 140 120" xml:space="preserve">
<g id="Pair">
	<path fill="#FFFFFF" d="M16.903,39.67c7.938-12.897,22.265-24.701,42.993-35.384l3.894,7.28
		C53.416,18.91,45.76,25.072,40.784,30.041C32.049,39.005,27.68,47.577,27.68,55.785c0,2.804,0.801,4.649,2.42,5.507
		c1.621,0.965,3.027,1.457,4.205,1.457c4.111-0.532,6.807-0.8,8.101-0.8c6.908,0,12.586,2.501,17.019,7.517
		c4.424,5.024,6.623,11.104,6.623,18.218c0,8-2.419,14.674-7.28,20.006c-4.859,5.354-11.548,8.025-20.074,8.025
		c-10.048,0-18.181-3.596-24.374-10.773C8.104,97.764,5,88.175,5,76.201C5,64.742,8.969,52.568,16.903,39.67z M86.584,38.777
		c8.409-12.836,22.498-24.339,42.266-34.492l3.881,7.28c-9.705,6.81-17.168,12.796-22.34,17.985
		c-9.188,9.187-13.774,17.713-13.774,25.59c0,2.258,0.594,4.104,1.78,5.496c1.188,1.415,2.811,2.111,4.859,2.111
		c4.102-0.532,6.809-0.8,8.102-0.8c6.811,0,12.438,2.484,16.931,7.445C132.752,74.354,135,80.467,135,87.684
		c0,8.428-2.484,15.207-7.445,20.332c-4.977,5.129-11.729,7.698-20.254,7.698c-9.705,0-17.703-3.596-23.955-10.774
		c-6.275-7.176-9.392-16.766-9.392-28.734C73.954,64.104,78.157,51.637,86.584,38.777z"/>
	<linearGradient id="SVGID_1_" gradientUnits="userSpaceOnUse" x1="69.9995" y1="4.2852" x2="69.9995" y2="115.7153">
		<stop  offset="0" style="stop-color:#777777"/>
		<stop  offset="0.1713" style="stop-color:#727272"/>
		<stop  offset="0.3856" style="stop-color:#626262"/>
		<stop  offset="0.6226" style="stop-color:#494949"/>
		<stop  offset="0.8745" style="stop-color:#252525"/>
		<stop  offset="1" style="stop-color:#111111"/>
	</linearGradient>
	<path fill="url(#SVGID_1_)" d="M128.432,5.627l3.001,5.628c-9.563,6.747-16.685,12.505-21.749,17.587
		c-9.334,9.334-14.067,18.182-14.067,26.297c0,2.506,0.68,4.573,2.015,6.139c1.375,1.638,3.268,2.468,5.625,2.468h0.064l0.064-0.009
		c4.047-0.524,6.729-0.791,7.973-0.791c6.558,0,11.854,2.328,16.188,7.114C131.828,74.822,134,80.751,134,87.684
		c0,8.119-2.41,14.726-7.163,19.636c-4.761,4.906-11.334,7.395-19.536,7.395c-9.367,0-17.173-3.51-23.202-10.433
		c-6.068-6.938-9.145-16.385-9.145-28.076c0-11.848,4.194-24.256,12.467-36.88C95.575,26.877,109.371,15.542,128.432,5.627
		 M59.48,5.628l3.013,5.632c-9.959,7.085-17.498,13.163-22.425,18.083C31.185,38.459,26.68,47.355,26.68,55.785
		c0,3.203,0.993,5.353,2.909,6.366c1.806,1.075,3.349,1.598,4.716,1.598h0.064l0.064-0.008c4.057-0.525,6.739-0.792,7.973-0.792
		c6.585,0,12.06,2.415,16.268,7.178c4.229,4.803,6.374,10.71,6.374,17.557c0,7.719-2.361,14.224-7.021,19.334
		c-4.635,5.107-11.14,7.697-19.333,7.697c-9.701,0-17.647-3.508-23.618-10.428C9.054,97.333,6,87.883,6,76.201
		c0-11.213,3.955-23.328,11.754-36.007C25.458,27.679,39.492,16.053,59.48,5.628 M128.85,4.285
		c-19.768,10.153-33.856,21.656-42.266,34.492c-8.427,12.86-12.63,25.327-12.63,37.428c0,11.969,3.116,21.559,9.392,28.734
		c6.252,7.179,14.25,10.774,23.955,10.774c8.525,0,15.277-2.569,20.254-7.698c4.961-5.125,7.445-11.904,7.445-20.332
		c0-7.217-2.248-13.33-6.712-18.291c-4.492-4.961-10.12-7.445-16.931-7.445c-1.293,0-4,0.268-8.102,0.8
		c-2.049,0-3.671-0.696-4.859-2.111c-1.187-1.392-1.78-3.238-1.78-5.496c0-7.877,4.587-16.403,13.774-25.59
		c5.172-5.189,12.635-11.175,22.34-17.985L128.85,4.285L128.85,4.285z M59.896,4.286C39.168,14.969,24.841,26.773,16.903,39.67
		C8.969,52.568,5,64.742,5,76.201c0,11.974,3.104,21.562,9.32,28.74c6.193,7.178,14.326,10.773,24.374,10.773
		c8.526,0,15.215-2.671,20.074-8.025c4.861-5.332,7.28-12.006,7.28-20.006c0-7.113-2.199-13.193-6.623-18.218
		c-4.433-5.016-10.111-7.517-17.019-7.517c-1.294,0-3.99,0.268-8.101,0.8c-1.178,0-2.584-0.492-4.205-1.457
		c-1.619-0.858-2.42-2.703-2.42-5.507c0-8.208,4.369-16.78,13.104-25.744C45.76,25.072,53.416,18.91,63.79,11.566L59.896,4.286
		L59.896,4.286z"/>
</g>
</svg>
