<?xml version="1.0" encoding="utf-8"?>
<!-- Copyright (C) 2014 Brian Speir. All rights reserved. -->
<!DOCTYPE svg PUBLIC "-//W3C//DTD SVG 1.1//EN" "http://www.w3.org/Graphics/SVG/1.1/DTD/svg11.dtd">
<svg version="1.1" id="Quotes" xmlns="http://www.w3.org/2000/svg" xmlns:xlink="http://www.w3.org/1999/xlink" x="0px" y="0px"
	 width="140px" height="120px" viewBox="0 0 140 120" enable-background="new 0 0 140 120" xml:space="preserve">
<linearGradient id="Pair_1_" gradientUnits="userSpaceOnUse" x1="69.9995" y1="4.2852" x2="69.9995" y2="115.7153">
	<stop  offset="0" style="stop-color:#777777"/>
	<stop  offset="0.1713" style="stop-color:#727272"/>
	<stop  offset="0.3856" style="stop-color:#626262"/>
	<stop  offset="0.6226" style="stop-color:#494949"/>
	<stop  offset="0.8745" style="stop-color:#252525"/>
	<stop  offset="1" style="stop-color:#111111"/>
</linearGradient>
<path id="Pair" fill="url(#Pair_1_)" d="M16.903,39.67c7.938-12.897,22.265-24.701,42.993-35.384l3.894,7.28
	C53.416,18.91,45.76,25.072,40.784,30.041C32.049,39.005,27.68,47.577,27.68,55.785c0,2.804,0.801,4.649,2.42,5.507
	c1.621,0.965,3.027,1.457,4.205,1.457c4.111-0.532,6.807-0.8,8.101-0.8c6.908,0,12.586,2.501,17.019,7.517
	c4.424,5.024,6.623,11.104,6.623,18.218c0,8-2.419,14.674-7.28,20.006c-4.859,5.354-11.548,8.025-20.074,8.025
	c-10.048,0-18.181-3.596-24.374-10.773C8.104,97.764,5,88.175,5,76.201C5,64.742,8.969,52.568,16.903,39.67z M86.584,38.777
	c8.409-12.836,22.498-24.339,42.266-34.492l3.881,7.28c-9.705,6.81-17.168,12.796-22.34,17.985
	c-9.188,9.187-13.775,17.713-13.775,25.59c0,2.258,0.594,4.104,1.781,5.496c1.188,1.415,2.81,2.111,4.859,2.111
	c4.102-0.532,6.809-0.8,8.102-0.8c6.81,0,12.438,2.484,16.93,7.445C132.752,74.354,135,80.467,135,87.684
	c0,8.428-2.484,15.207-7.445,20.332c-4.977,5.129-11.729,7.698-20.254,7.698c-9.705,0-17.703-3.596-23.955-10.774
	c-6.275-7.176-9.392-16.766-9.392-28.735C73.954,64.104,78.157,51.637,86.584,38.777z"/>
</svg>
