<?xml version="1.0" encoding="utf-8"?>
<!-- Generator: Adobe Illustrator 16.0.5, SVG Export Plug-In . SVG Version: 6.00 Build 0)  -->
<!DOCTYPE svg PUBLIC "-//W3C//DTD SVG 1.1//EN" "http://www.w3.org/Graphics/SVG/1.1/DTD/svg11.dtd">
<svg version="1.1" id="Quotes" xmlns="http://www.w3.org/2000/svg" xmlns:xlink="http://www.w3.org/1999/xlink" x="0px" y="0px"
	 width="64px" height="64px" viewBox="0 0 64 64" enable-background="new 0 0 64 64" xml:space="preserve">
<g id="Pair" opacity="0.87">
	<path d="M26.19,8.554l0.192,0.372c-4.467,3.332-7.897,6.223-10.222,8.62c-4.642,4.922-6.996,9.789-6.996,14.468
		c0,0.8,0.105,4.819,2.173,6.024c1.124,0.687,2.135,1.02,3.089,1.02h0.133l0.132-0.018c2.521-0.338,3.415-0.389,3.723-0.389
		c2.817,0,5.06,1.021,6.854,3.122c1.874,2.197,2.785,4.804,2.785,7.966c0,3.605-1.009,6.502-3.089,8.858
		C22.956,60.887,20.216,62,16.587,62c-4.367,0-7.79-1.558-10.468-4.766C3.386,53.975,2,49.489,2,43.903
		c0-5.977,2.138-13.281,5.578-19.062C11.056,19.003,17.312,13.529,26.19,8.554 M60.132,8.554l0.188,0.364
		c-4.264,3.159-7.504,5.903-9.874,8.361c-4.873,5.035-7.344,9.883-7.344,14.408c0,0.039,0.016,3.973,1.327,5.561
		c0.965,1.184,2.327,1.809,3.941,1.809h0.133l0.132-0.018c2.535-0.338,3.421-0.389,3.724-0.389c2.763,0,4.997,1.016,6.826,3.102
		C61.079,43.925,62,46.538,62,49.741c0,3.797-1.022,6.731-3.127,8.974C56.801,60.925,54.018,62,50.365,62
		c-4.204,0-7.562-1.56-10.267-4.772c-2.755-3.256-4.151-7.739-4.151-13.324c0-6.263,2.264-13.723,5.907-19.47
		C45.534,18.629,51.678,13.292,60.132,8.554 M60.972,5.818c-9.73,5.165-16.668,11.016-20.807,17.545
		c-4.148,6.543-6.218,14.384-6.218,20.54c0,6.088,1.536,10.966,4.624,14.616C41.647,62.172,45.587,64,50.365,64
		c4.197,0,7.52-1.307,9.967-3.918C62.777,57.478,64,54.028,64,49.741c0-3.672-1.108-6.781-3.307-9.304
		c-2.21-2.52-4.98-3.787-8.334-3.787c-0.635,0-1.968,0.137-3.988,0.406c-1.008,0-1.806-0.354-2.391-1.072
		c-0.586-0.709-0.878-3.147-0.878-4.297c0-4.006,2.258-8.344,6.781-13.017c2.545-2.639,6.219-5.686,10.997-9.149L60.972,5.818
		L60.972,5.818z M27.025,5.818c-10.205,5.435-17.258,11.44-21.166,18C1.955,30.379,0,38.071,0,43.903
		c0,6.088,1.528,10.969,4.587,14.616c3.049,3.652,7.053,5.48,12,5.48c4.198,0,7.492-1.36,9.881-4.085
		c2.394-2.712,3.585-6.106,3.585-10.177c0-3.616-1.084-6.708-3.263-9.264c-2.181-2.552-4.976-3.824-8.376-3.824
		c-0.637,0-1.963,0.135-3.988,0.406c-0.581,0-1.271-0.25-2.07-0.74c-0.797-0.438-1.192-2.878-1.192-4.304
		c0-4.175,2.15-8.535,6.451-13.095c2.45-2.525,6.219-5.66,11.328-9.397L27.025,5.818L27.025,5.818z"/>
</g>
</svg>
