<?xml version="1.0" encoding="utf-8"?>
<!-- Generator: Adobe Illustrator 16.0.5, SVG Export Plug-In . SVG Version: 6.00 Build 0)  -->
<!DOCTYPE svg PUBLIC "-//W3C//DTD SVG 1.1//EN" "http://www.w3.org/Graphics/SVG/1.1/DTD/svg11.dtd">
<svg version="1.1" id="friends" xmlns="http://www.w3.org/2000/svg" xmlns:xlink="http://www.w3.org/1999/xlink" x="0px" y="0px"
	 width="96px" height="64px" viewBox="0 0 96 64" enable-background="new 0 0 96 64" xml:space="preserve">
<path id="him" d="M96,37.395C96,52.086,84.086,64,69.398,64c-7.911,0-15.036-3.447-19.895-8.979c0.51-0.623,0.973-1.271,1.389-1.943
	c0.879,1.064,1.875,2.035,2.937,2.938l-0.022,0.021c0.369,0.324,0.741,0.604,1.111,0.857c-0.37-0.279-0.742-0.578-1.089-0.881
	c2.684-3.076,5.367-3.932,7.543-4.672c1.783-0.623,1.664-1.734,1.827-2.752c0.046-0.254,0.09-0.717-0.044-0.857
	c-1.69-1.617-1.416-4.234-2.016-6.362c-0.117-0.393-0.53-0.438-0.81-0.668c-0.3-0.256-0.511-0.603-0.601-0.995
	c-0.093-0.485-0.118-0.971-0.257-1.459c-0.185-0.647-0.462-1.247-0.602-1.849c-0.163-0.532-0.693-2.545,0.323-2.614
	c0.511-0.024,0.511,0.046,0.37-0.51c-0.14-0.67-0.253-1.341-0.325-1.988c-0.229-2.338-0.714-4.858,0.118-7.125
	c1.156-3.146,5.273-5.135,9.831-5.135c4.258,0,8.883,1.99,9.713,5.737c0.555,2.383,0.211,4.835-0.274,7.194
	c-0.118,0.554-0.23,1.11-0.371,1.664c-0.044,0.395,0.464,0.117,0.672,0.231c0.855,0.486,0.3,2.545,0.069,3.238
	c-0.162,0.556-0.415,1.088-0.533,1.666c-0.093,0.485-0.115,0.994-0.3,1.456c-0.232,0.465-0.578,0.533-0.925,0.811
	c-0.418,0.301-0.487,1.02-0.603,1.458c-0.23,1.134-0.301,2.337-0.601,3.446c-0.161,0.533-0.441,1.018-0.739,1.434
	c-0.418,0.531-0.788,0.762-0.763,1.479c0,0,0.229,0.719,0.414,1.18c0.459,1.021,0.669,1.115,1.688,1.322
	c3.077,0.623,5.39,2.035,8.167,4.812c5.436-4.465,8.884-11.219,8.884-18.763c0-13.394-10.896-24.289-24.289-24.289
	c-7.426,0-14.064,3.331-18.53,8.604c-0.415-0.672-0.881-1.319-1.365-1.92c4.838-5.526,11.963-8.996,19.896-8.996
	C84.086,10.793,96,22.707,96,37.395z"/>
<path id="her" d="M26.603,10.794C11.913,10.794,0,22.707,0,37.396C0,45.1,3.285,52.062,8.535,56.918
	C13.277,61.314,19.639,64,26.602,64c6.823,0,13.046-2.57,17.765-6.801c5.436-4.859,8.839-11.936,8.839-19.803
	C53.206,22.708,41.292,10.794,26.603,10.794z M42.819,55.486c-0.301,0.277-0.602,0.531-0.925,0.787
	c-2.313-0.809-4.696-1.227-7.01-2.014c-0.995-0.348-1.896-0.74-2.151-1.828c-0.254-1.131-1.157-3.697-0.417-4.395
	c1.203-1.156,6.408-0.508,7.195-2.127c0.715-1.48-1.688-4.65-2.244-8.328c-0.74-5.135-0.347-9.184-0.578-10.595
	c-0.162-1.202-0.879-2.013-1.412-3.101c-0.393-0.901-1.457-1.411-2.336-1.735c-1.111-0.394-2.243-0.786-3.354-1.18
	c-1.087-0.394-2.197-0.694-3.331-0.648c-1.32,0.046-2.359,0.578-3.563,0.926c-0.973,0.255-1.92,0.625-2.708,1.18
	c-0.901,0.625-1.433,1.343-2.451,1.76c-0.949,0.348-1.435,1.365-1.781,2.242c-0.532,1.32-0.324,5.737-0.856,11.058
	c-0.394,3.771-2.984,6.916-2.244,8.422c0.764,1.549,5.182,0.508,6.87,2.127c0.787,0.74,0.069,3.031,0.069,3.031
	s-0.185,2.01-1.179,2.588c-1.041,0.602-2.431,0.859-3.609,1.158c-1.133,0.324-2.313,0.648-3.423,1.041
	c-0.071,0.023-0.208,0.07-0.393,0.137c-0.302-0.254-0.579-0.506-0.88-0.787c-4.95-4.578-7.795-11.053-7.795-17.809
	c0-13.394,10.895-24.29,24.29-24.29c13.394,0,24.29,10.896,24.29,24.29C50.893,44.291,47.955,50.883,42.819,55.486z"/>
</svg>
