<?xml version="1.0" encoding="utf-8"?>
<!-- Generator: Adobe Illustrator 16.0.5, SVG Export Plug-In . SVG Version: 6.00 Build 0)  -->
<!DOCTYPE svg PUBLIC "-//W3C//DTD SVG 1.1//EN" "http://www.w3.org/Graphics/SVG/1.1/DTD/svg11.dtd">
<svg version="1.1" id="Layer_1" xmlns="http://www.w3.org/2000/svg" xmlns:xlink="http://www.w3.org/1999/xlink" x="0px" y="0px"
	 width="74px" height="64.003px" viewBox="0 0 74 64.003" enable-background="new 0 0 74 64.003" xml:space="preserve">
<g opacity="0.87" enable-background="new    ">
	<path d="M54.398,2c4.333,0,8.62,1.547,11.764,4.245c3.82,3.28,5.84,8.162,5.838,14.12c0,6.843-3.736,13.344-12.114,21.077
		C52.4,48.349,40.195,59.61,37.001,61.777c-3.189-2.166-15.398-13.428-22.886-20.335C5.736,33.708,2,27.208,2,20.365
		C2,7.747,11.124,2,19.601,2c6.136,0,12.977,4.588,15.572,10.445L37,16.568l1.83-4.123C41.429,6.588,48.268,2,54.398,2 M54.398,0
		c-6.87,0-14.493,5.091-17.397,11.635C34.102,5.091,26.477,0,19.601,0C10.905,0,0,5.818,0,20.365
		c0,7.142,3.696,14.182,12.758,22.547C25.619,54.775,35.726,64,37,64c1.276,0,11.384-9.225,24.242-21.088
		C70.305,34.547,74,27.507,74,20.365C74.004,5.818,63.102,0,54.398,0L54.398,0z"/>
</g>
</svg>
