<?xml version="1.0" encoding="utf-8"?>
<!-- Copyright (C) 2014 Brian Speir. All rights reserved. -->
<!DOCTYPE svg PUBLIC "-//W3C//DTD SVG 1.1//EN" "http://www.w3.org/Graphics/SVG/1.1/DTD/svg11.dtd">
<svg version="1.1" id="Layer_1" xmlns="http://www.w3.org/2000/svg" xmlns:xlink="http://www.w3.org/1999/xlink" x="0px" y="0px"
	 width="1518px" height="426px" viewBox="0 0 1518 426" enable-background="new 0 0 1518 426" xml:space="preserve">
<g>
	<defs>
		<path id="SVGID_1_" d="M628,62c0,173.41-140.59,314-314,314c-9.899,0-19.69-0.459-29.351-1.359L93,426l30.62-114.279
			C48.479,254.35,0,163.83,0,62h0.35c0-33.9,27.48-62,61.391-62c33.909,0,61.39,28.1,61.39,62h0.35
			c0,105.221,85.301,190.52,190.521,190.52c105.21,0,190.52-85.299,190.52-190.52h0.36c0-33.9,27.48-62,61.39-62
			c33.9,0,61.381,28.1,61.381,62H628z"/>
	</defs>
	<clipPath id="SVGID_2_">
		<use xlink:href="#SVGID_1_"  overflow="visible"/>
	</clipPath>
	<linearGradient id="SVGID_3_" gradientUnits="userSpaceOnUse" x1="313.9995" y1="-404" x2="313.9995" y2="620.0005">
		<stop  offset="0" style="stop-color:#FF9CB4"/>
		<stop  offset="1" style="stop-color:#FF0040"/>
	</linearGradient>
	<path clip-path="url(#SVGID_2_)" fill="url(#SVGID_3_)" d="M154.207-404h319.586c101.42,0,152.127,0,206.71,17.26
		c59.597,21.692,106.544,68.639,128.237,128.237C826-203.92,826-153.212,826-51.795v319.588c0,101.42,0,152.127-17.26,206.711
		C787.047,534.1,740.1,581.047,680.503,602.74C625.92,620,575.213,620,473.793,620H154.207c-101.42,0-152.125,0-206.71-17.26
		c-59.599-21.693-106.545-68.641-128.237-128.236C-198,419.92-198,369.213-198,267.793V-51.795c0-101.417,0-152.125,17.26-206.708
		c21.692-59.599,68.639-106.545,128.237-128.237C2.082-404,52.787-404,154.207-404L154.207-404"/>
</g>
<g>
	<path fill="#FFE733" d="M852.463,141.987c-8.798-14.768-20.109-22.31-38.02-22.31c-18.852,0-39.592,12.884-39.592,33.621
		c0,18.54,18.225,28.28,32.993,33.936l16.968,6.6c33.621,13.197,58.758,31.735,58.758,71.327c0,43.047-33.307,73.84-75.726,73.84
		c-38.333,0-68.186-28.279-73.212-66.298l29.85-6.285c-0.314,26.079,20.424,44.933,45.876,44.933
		c25.451,0,43.677-21.368,43.677-46.189c0-25.452-20.426-36.45-40.848-44.933l-16.342-6.913
		c-27.021-11.626-51.529-27.023-51.529-60.016c0-38.333,33.935-61.271,69.756-61.271c26.395,0,48.076,12.883,60.957,35.821
		L852.463,141.987z"/>
	<path fill="#FFE733" d="M949.553,274.586l-27.023,59.387h-31.735L1003.911,87l113.118,246.973h-31.734l-27.024-59.387H949.553z
		 M1003.911,151.728l-42.104,95.836h84.211L1003.911,151.728z"/>
	<path fill="#FFE733" d="M1112.312,97.055h33.936l58.128,101.176l58.132-101.176h33.936l-77.299,133.856v103.062h-29.535V230.911
		L1112.312,97.055z"/>
	<path fill="#FFE733" d="M1350.488,274.586l-27.024,59.387h-31.735L1404.848,87l113.118,246.973h-31.736l-27.022-59.387H1350.488z
		 M1404.848,151.728l-42.104,95.836h84.21L1404.848,151.728z"/>
</g>
</svg>
