<?xml version="1.0" encoding="utf-8"?>
<!-- Copyright (C) 2014 Brian Speir. All rights reserved. -->
<!DOCTYPE svg PUBLIC "-//W3C//DTD SVG 1.1//EN" "http://www.w3.org/Graphics/SVG/1.1/DTD/svg11.dtd">
<svg version="1.1" id="Layer_1" xmlns="http://www.w3.org/2000/svg" xmlns:xlink="http://www.w3.org/1999/xlink" x="0px" y="0px"
	 width="96px" height="64px" viewBox="0 0 96 64" enable-background="new 0 0 96 64" xml:space="preserve">
<g>
	<path fill="#FF3366" d="M48.739,57.141c-6.677,0-12.956-2.6-17.677-7.32c-4.722-4.723-7.322-11-7.322-17.679
		c0-6.678,2.6-12.957,7.322-17.678s11-7.323,17.677-7.323c6.679,0,12.958,2.601,17.679,7.323s7.322,11,7.322,17.678
		c0,6.679-2.602,12.956-7.322,17.679C61.697,54.541,55.418,57.141,48.739,57.141z M48.739,11.141c-5.609,0-10.883,2.185-14.849,6.15
		s-6.15,9.24-6.15,14.85c0,5.61,2.185,10.884,6.15,14.851c3.966,3.965,9.24,6.148,14.849,6.148c5.61,0,10.884-2.184,14.851-6.148
		c3.967-3.967,6.15-9.24,6.15-14.851c0-5.61-2.184-10.884-6.15-14.85S54.35,11.141,48.739,11.141z"/>
	<g>
		<path fill="#FF3366" d="M53.945,37.346c-2.875,2.873-7.531,2.873-10.411,0c-2.872-2.877-2.872-7.533,0-10.409
			c2.88-2.874,7.536-2.874,10.411,0C56.816,29.813,56.816,34.469,53.945,37.346z"/>
	</g>
	<path fill="#FF3366" d="M48.739,19.501c3.376,0,6.552,1.314,8.938,3.702c2.387,2.387,3.703,5.561,3.703,8.938
		c0,3.378-1.316,6.55-3.703,8.938c-2.387,2.387-5.562,3.701-8.938,3.701c-3.375,0-6.55-1.314-8.937-3.703
		c-2.388-2.387-3.703-5.559-3.703-8.937c0-3.377,1.315-6.551,3.703-8.939C42.189,20.816,45.364,19.501,48.739,19.501 M48.739,16.501
		c-4.002,0-8.004,1.526-11.058,4.58c-6.109,6.107-6.109,16.012,0,22.12c3.054,3.053,7.056,4.58,11.058,4.58
		c4.003,0,8.005-1.527,11.06-4.58c6.109-6.107,6.109-16.012,0-22.12C56.744,18.028,52.742,16.501,48.739,16.501L48.739,16.501z"/>
</g>
</svg>
