<?xml version="1.0" encoding="utf-8"?>
<!-- Generator: Adobe Illustrator 16.0.5, SVG Export Plug-In . SVG Version: 6.00 Build 0)  -->
<!DOCTYPE svg PUBLIC "-//W3C//DTD SVG 1.1//EN" "http://www.w3.org/Graphics/SVG/1.1/DTD/svg11.dtd">
<svg version="1.1" id="Layer_1" xmlns="http://www.w3.org/2000/svg" xmlns:xlink="http://www.w3.org/1999/xlink" x="0px" y="0px"
	 width="64px" height="64px" viewBox="0 0 64 64" enable-background="new 0 0 64 64" xml:space="preserve">
<g opacity="0.87">
	<path d="M31.999,2c8.012,0,15.547,3.121,21.218,8.787c11.696,11.7,11.696,30.733,0.001,42.429C47.547,58.881,40.012,62,31.999,62
		c-8.016,0-15.549-3.119-21.213-8.783c-11.697-11.697-11.697-30.732,0-42.431C16.451,5.12,23.985,2,31.999,2 M31.999,0
		c-8.191,0-16.38,3.125-22.627,9.372c-12.495,12.497-12.495,32.764,0,45.259C15.618,60.878,23.807,64,31.999,64
		c8.192,0,16.379-3.122,22.632-9.369c12.493-12.493,12.493-32.761,0-45.258C48.378,3.125,40.19,0,31.999,0L31.999,0z"/>
</g>
<g opacity="0.87">
	<path d="M39.245,39.242c-4,3.997-10.481,3.997-14.488,0c-3.996-4.003-3.996-10.481,0-14.481c4.007-4,10.488-4,14.488,0
		C43.239,28.761,43.239,35.239,39.245,39.242z"/>
</g>
<g opacity="0.87">
	<path d="M31.999,12.241c5.281,0,10.243,2.055,13.974,5.787c3.732,3.732,5.788,8.694,5.788,13.973
		c0,5.279-2.056,10.241-5.788,13.974c-3.732,3.731-8.694,5.786-13.974,5.786c-5.278,0-10.24-2.055-13.972-5.786
		c-3.732-3.732-5.788-8.694-5.788-13.974c0-5.279,2.056-10.241,5.789-13.974C21.757,14.296,26.718,12.241,31.999,12.241
		 M31.999,10.241c-5.569,0-11.137,2.122-15.386,6.373c-8.499,8.497-8.499,22.278,0,30.775c4.247,4.247,9.816,6.372,15.386,6.372
		c5.572,0,11.14-2.125,15.388-6.372c8.498-8.497,8.498-22.278,0-30.775C43.139,12.365,37.571,10.241,31.999,10.241L31.999,10.241z"
		/>
</g>
</svg>
