<?xml version="1.0" encoding="utf-8"?>
<!-- Generator: Adobe Illustrator 16.0.5, SVG Export Plug-In . SVG Version: 6.00 Build 0)  -->
<!DOCTYPE svg PUBLIC "-//W3C//DTD SVG 1.1//EN" "http://www.w3.org/Graphics/SVG/1.1/DTD/svg11.dtd">
<svg version="1.1" id="Layer_1" xmlns="http://www.w3.org/2000/svg" xmlns:xlink="http://www.w3.org/1999/xlink" x="0px" y="0px"
	 width="96px" height="64px" viewBox="0 0 96 64" enable-background="new 0 0 96 64" xml:space="preserve">
<path d="M65.333,5C81.141,5,94,17.785,94,33.5S81.141,62,65.333,62H30.667C14.86,62,2,49.215,2,33.5S14.86,5,30.667,5H65.333
	 M65.333,3H30.667C13.731,3,0,16.656,0,33.5C0,50.346,13.731,64,30.667,64h34.666C82.27,64,96,50.346,96,33.5
	C96,16.656,82.27,3,65.333,3L65.333,3z"/>
<circle cx="24" cy="33.501" r="8"/>
<circle cx="48" cy="33.501" r="8"/>
<circle cx="72" cy="33.501" r="8"/>
</svg>
