<svg xmlns="http://www.w3.org/2000/svg" width="401" height="45" viewBox="0 0 401 45">
  <title>SS Logo</title>
  <path d="M0,37.54l3.21-4.11a17.68,17.68,0,0,0,13.43,6.17c7.65,0,10.09-4.11,10.09-7.46C26.74,21.08,1.35,27.25,1.35,12c0-7.07,6.3-12,14.78-12C22.62,0,27.7,2.25,31.3,6L28.09,10A16.18,16.18,0,0,0,15.68,4.82c-5.08,0-8.81,2.76-8.81,6.81,0,9.64,25.39,4.11,25.39,20.12,0,6.17-4.24,12.6-15.81,12.6C9.06,44.35,3.54,41.52,0,37.54Zm77.71,6V23.91H52.64V43.58H47.31V.71h5.33V19.15H77.71V.71H83V43.58Zm19.41-21.4C97.13,9.51,105.74,0,118.4,0s21.34,9.51,21.34,22.17-8.68,22.17-21.34,22.17S97.13,34.84,97.13,22.17Zm37.09,0c0-10-6.23-17.42-15.81-17.42s-15.75,7.39-15.75,17.42,6.11,17.42,15.75,17.42S134.21,32.14,134.21,22.17Zm20.89,21.4V.71h17.23c8.61,0,13.43,5.91,13.43,12.92s-4.89,12.92-13.43,12.92H160.44v17Zm25.13-30c0-4.82-3.47-8.16-8.55-8.16H160.44V21.79h11.25C176.77,21.79,180.24,18.45,180.24,13.63Zm17.1,23.91,3.21-4.11A17.68,17.68,0,0,0,214,39.59c7.65,0,10.09-4.11,10.09-7.46,0-11.05-25.39-4.88-25.39-20.18,0-7.07,6.3-12,14.78-12C220,0,225,2.25,228.64,6L225.43,10A16.18,16.18,0,0,0,213,4.82c-5.08,0-8.81,2.76-8.81,6.81,0,9.64,25.39,4.11,25.39,20.12,0,6.17-4.24,12.6-15.81,12.6C206.4,44.35,200.87,41.52,197.34,37.54Zm56.72,6V5.46H240.49V.71H273V5.46H259.39V43.58Zm45.57,0V25.45L282.72.71H289l13.31,19.93L315.57.71h6.24L305,25.45V43.58Zm34.13,0V.71h5.33V38.82H359v4.76Zm38.18,0V.71H400V5.46H377.28V19.28h22.3V24h-22.3V38.82H400v4.76Z" style="fill:#444"></path>
</svg>
