<?xml version="1.0" encoding="utf-8"?>
<!-- Copyright (C) 2014 Brian Speir. All rights reserved. -->
<!DOCTYPE svg PUBLIC "-//W3C//DTD SVG 1.1//EN" "http://www.w3.org/Graphics/SVG/1.1/DTD/svg11.dtd">
<svg version="1.1" id="Browser" xmlns="http://www.w3.org/2000/svg" xmlns:xlink="http://www.w3.org/1999/xlink" x="0px" y="0px"
	 width="120px" height="120px" viewBox="18 120.5 120 120" enable-background="new 18 120.5 120 120" xml:space="preserve">
<rect id="Background" x="20.177" y="140.531" fill="#F7F7F7" width="115.646" height="98.227"/>
<path id="Title_Bar" fill="#DDDDDD" d="M135.709,125.82v12.935H20.282V125.82c0-1.672,1.367-3.039,3.057-3.039h109.322
	C134.352,122.781,135.709,124.148,135.709,125.82z"/>
<path id="Close_2_" fill="#AAAAAA" d="M33.248,131.148c0,2.105-1.707,3.81-3.812,3.81c-2.106,0-3.814-1.704-3.814-3.81
	c0-2.096,1.708-3.802,3.814-3.802C31.541,127.346,33.248,129.052,33.248,131.148z"/>
<path id="Minimize_2_" fill="#AAAAAA" d="M48.501,131.148c0,2.105-1.709,3.81-3.811,3.81c-2.108,0-3.817-1.704-3.817-3.81
	c0-2.096,1.709-3.802,3.817-3.802C46.792,127.346,48.501,129.052,48.501,131.148z"/>
<path id="Zoom_2_" fill="#AAAAAA" d="M63.75,131.148c0,2.105-1.707,3.81-3.811,3.81s-3.814-1.704-3.814-3.81
	c0-2.096,1.71-3.802,3.814-3.802S63.75,129.052,63.75,131.148z"/>
<path id="Outline" fill="#555555" d="M132.661,120.5H23.339c-2.952,0-5.339,2.387-5.339,5.322V235.17c0,2.943,2.387,5.33,5.339,5.33
	h109.322c2.942,0,5.339-2.387,5.339-5.33V125.82C138,122.886,135.604,120.5,132.661,120.5z M135.709,235.17
	c0,1.69-1.359,3.049-3.048,3.049H23.339c-1.689,0-3.057-1.355-3.057-3.049v-94.124h115.427V235.17z M20.282,138.756V125.82
	c0-1.672,1.367-3.039,3.057-3.039h109.322c1.688,0,3.048,1.367,3.048,3.039v12.935L20.282,138.756L20.282,138.756z"/>
</svg>
