<?xml version="1.0" encoding="utf-8"?>
<!-- Generator: Adobe Illustrator 16.0.5, SVG Export Plug-In . SVG Version: 6.00 Build 0)  -->
<!DOCTYPE svg PUBLIC "-//W3C//DTD SVG 1.1//EN" "http://www.w3.org/Graphics/SVG/1.1/DTD/svg11.dtd">
<svg version="1.1" id="Sites" xmlns="http://www.w3.org/2000/svg" xmlns:xlink="http://www.w3.org/1999/xlink" x="0px" y="0px"
	 width="64px" height="64px" viewBox="0 0 64 64" enable-background="new 0 0 64 64" xml:space="preserve">
<path id="Browser_1_" opacity="0.87" d="M61.091,5.818H2.909C1.338,5.818,0,7.156,0,8.727v52.364C0,62.662,1.338,64,2.909,64h58.24
	C62.72,64,64,62.72,64,61.149V8.727C64,7.156,62.662,5.818,61.091,5.818z M22.546,8.727c1.207,0,2.182,0.975,2.182,2.182
	s-0.975,2.182-2.182,2.182c-1.208,0-2.182-0.974-2.182-2.182S21.338,8.727,22.546,8.727z M14.545,8.727
	c1.208,0,2.182,0.975,2.182,2.182s-0.974,2.182-2.182,2.182s-2.182-0.974-2.182-2.182S13.338,8.727,14.545,8.727z M6.545,8.727
	c1.208,0,2.182,0.975,2.182,2.182s-0.974,2.182-2.182,2.182s-2.182-0.974-2.182-2.182S5.338,8.727,6.545,8.727z M62,59.637
	C62,60.538,60.538,62,59.637,62H4.364C3.461,62,2,60.538,2,59.637V16h60V59.637z"/>
</svg>
