<?xml version="1.0" encoding="utf-8"?>
<!-- Copyright © 2014 Brian Speir. All rights reserved.  -->
<!DOCTYPE svg PUBLIC "-//W3C//DTD SVG 1.1//EN" "http://www.w3.org/Graphics/SVG/1.1/DTD/svg11.dtd">
<svg version="1.1" id="Browser" xmlns="http://www.w3.org/2000/svg" xmlns:xlink="http://www.w3.org/1999/xlink" x="0px" y="0px"
	 width="476px" height="476px" viewBox="-15.5 136.5 476 476" enable-background="new -15.5 136.5 476 476" xml:space="preserve">
<rect id="Background" x="-6.5" y="217.5" fill="#FFFFFF" width="458" height="386"/>
<path id="Title_Bar" fill="#DDDDDD" d="M450.432,157.56v51.199H-6.466V157.56c0-6.618,5.41-12.029,12.099-12.029h432.734
	C445.059,145.53,450.432,150.941,450.432,157.56z"/>
<path id="Close_2_" fill="#AAAAAA" d="M44.857,178.65c0,8.33-6.757,15.079-15.089,15.079c-8.336,0-15.097-6.745-15.097-15.079
	c0-8.3,6.761-15.053,15.097-15.053C38.1,163.598,44.857,170.351,44.857,178.65z"/>
<path id="Minimize_2_" fill="#AAAAAA" d="M105.233,178.65c0,8.33-6.765,15.079-15.086,15.079c-8.344,0-15.108-6.745-15.108-15.079
	c0-8.3,6.765-15.053,15.108-15.053C98.469,163.598,105.233,170.351,105.233,178.65z"/>
<path id="Zoom_2_" fill="#AAAAAA" d="M165.594,178.65c0,8.33-6.757,15.079-15.085,15.079c-8.329,0-15.098-6.745-15.098-15.079
	c0-8.3,6.769-15.053,15.098-15.053C158.837,163.598,165.594,170.351,165.594,178.65z"/>
<path id="Outline" fill="#AAAAAA" d="M439.322,136.5H5.677c-11.708,0-21.177,9.467-21.177,21.111v433.746
	c0,11.676,9.469,21.143,21.177,21.143h433.645c11.672,0,21.178-9.467,21.178-21.143V157.604
	C460.5,145.963,450.994,136.5,439.322,136.5z M451.412,591.357c0,6.701-5.392,12.094-12.09,12.094H5.677
	c-6.699,0-12.125-5.377-12.125-12.094V217.998h457.859V591.357z M-6.5,208.5v-51.016c0-6.593,5.411-11.984,12.102-11.984h432.831
	c6.686,0,12.067,5.392,12.067,11.984v51.012L-6.5,208.5L-6.5,208.5z"/>
<g>
	<path fill="#AAAAAA" d="M166.269,377.688c3.437,1.725,6.158,3.152,8.946,4.454c4.953,2.304,8.569,5.93,11.087,10.748
		c1.375,2.643,1.604,5.195-0.21,7.728c-1.632,2.284-0.515,2.964,1.727,2.854c4.64-0.223,9.306-0.294,13.919-0.8
		c8.326-0.923,16.693-0.308,25.006-1.023c7.441-0.645,13.769,3.396,20.652,5.081c2.898,0.703,5.732,1.647,8.618,2.338
		c1.14,0.275,2.42,0.381,3.537,0.163c1.541-0.3,3.037-1.86,4.423,0.203c1.19,1.761,0.97,3.537-0.583,5.405
		c4.192,0.528,7.919-0.229,11.653-0.578c5.938-0.549,11.856-1.182,17.799-1.675c3.1-0.252,3.269-1.517,1.769-3.88
		c-3.681-5.755-9.034-9.798-14.135-14.081c-5.663-4.739-11.589-9.171-17.193-13.956c-2.759-2.347-4.409-5.589-5.326-9.146
		c-0.596-2.309,0.135-4.215,2.353-4.945c12.752-4.204,25.685-6.314,39.004-3.151c1.816,0.437,3.53,1.419,5.234,2.273
		c0.994,0.502,1.833,1.332,1.152,2.58c-0.632,1.136-1.695,1.176-2.816,0.768c-0.215-0.087-0.458-0.144-0.662-0.243
		c-12.029-5.724-24.138-3.887-36.259-0.41c-3.666,1.051-3.96,2.354-1.929,5.764c2.802,4.666,7.487,7.29,11.403,10.756
		c5.696,5.047,11.672,9.818,17.455,14.799c2.821,2.437,5.01,5.482,6.633,8.79c1.141,2.313,2.559,3.054,5.03,2.915
		c8.568-0.477,17.127-0.723,25.732-0.248c6.905,0.383,13.107,2.256,18.903,5.757c4.564,2.761,9.096,3.053,13.956,0.926
		c2.114-0.936,5.064-2.313,6.129,0.732c1.074,3.038-1.955,4.44-4.352,4.952c-6.134,1.314-12.294,2.663-18.168-1.419
		c-8.161-5.663-17.501-7.12-27.235-6.828c-4.763,0.146-9.527,0.236-14.289,0.337c-2.146,0.041-3.598,0.711-3.926,3.179
		c-0.699,5.214-4.282,8.391-8.414,10.96c-10.91,6.766-23.083,9.984-35.581,11.976c-13.39,2.118-26.828,2.351-40.133-0.374
		c-4.111-0.843-8.457-1.371-12.029-4.111c-4.249-3.258-4.507-6.307-0.546-10.022c4.082-3.834,9.271-5.386,14.545-6.403
		c10.181-1.956,20.533-2.794,30.844-3.903c1.617-0.179,4.393,0.435,4.621-1.429c0.26-1.993-2.523-2.102-4.13-2.639
		c-12.901-4.271-25.807-7.997-39.79-6.291c-9.674,1.184-19.509,1.235-29.276,1.41c-6.412,0.116-11.653,3.399-17.092,5.858
		c-11.946,5.387-24.479,8.556-37.225,10.996c-11.383,2.178-22.89,2.829-34.468,1.521c-4.327-0.499-8.355-1.887-12.298-3.437
		c-5.705-2.247-6.462-7.989-1.731-11.889c5.497-4.548,12.354-4.771,18.95-5.389c15.087-1.404,30.259-0.844,45.384-1.352
		c9.3-0.3,18.602-0.252,27.903-0.071c4.765,0.092,7.853-2.476,10.547-5.726c1.984-2.384,0.23-4.587-1.249-6.391
		c-4.668-5.714-11.107-8.487-18.027-10.22c-3.911-0.995-7.918-1.625-11.867-2.468c-1.527-0.333-3.272-0.755-3.004-2.842
		c0.269-2.096,1.909-2.451,3.744-2.409c6.729,0.137,13.345-0.421,19.574-3.287c1.057-0.485,2.479-0.691,2.417-2.241
		c-0.058-1.316-1.071-2.082-2.185-2.619c-4.467-2.122-9.26-2.834-14.093-3.67c-5.9-1.018-9.997,0.815-13.286,5.688
		c-3.749,5.574-9.244,9.997-10.77,17.015c-0.401,1.827-1.968,2.709-3.812,2.653c-1.914-0.062-3.538-1.034-4.294-2.753
		c-0.878-2.035,0.641-3.732,2.012-4.573c5.724-3.541,8.331-9.701,12.631-14.42c0.515-0.576,1.424-1.235,0.787-2.139
		c-0.533-0.755-1.586-0.587-2.339-0.377c-1.719,0.454-3.379,1.141-5.07,1.694c-1.717,0.555-3.318,0.328-4.671-0.911
		c-0.773-0.721-1.049-1.682-0.447-2.599c0.935-1.419,2.062-2.58,3.959-2.707c4.126-0.267,8.169-1.192,12.382-0.953
		c3.306,0.186,3.771-3.11,4.966-5.312c0.729-1.34,0.99-3.025,3.038-3.022c1.225,0,2.396,0.102,3.208,1.189
		c0.826,1.103,0.114,2.012-0.385,2.963c-2.256,4.307-2.216,4.025,2.603,4.581c7.09,0.82,14.284,1.654,19.84,6.972
		c3.206,3.082,2.617,6.412-1.222,8.678C173.057,375.646,169.784,375.876,166.269,377.688z M234.853,440.102
		c10.43-0.058,18.04-0.516,25.514-2.188c10.011-2.243,19.816-5.135,28.678-10.536c3.318-2.028,6.183-4.469,7.298-8.438
		c0.408-1.495,0.504-2.604-1.653-2.396c-8.046,0.762-16.114,1.319-24.153,2.181c-11.707,1.257-23.385,2.754-35.09,4.055
		c-7.931,0.882-15.852,1.787-23.348,4.729c-2.271,0.878-5.321,1.968-5.28,4.723c0.04,2.821,3.169,3.553,5.48,4.383
		C220.508,439.49,229.042,440.061,234.853,440.102z M164.471,409.298c-0.059-0.408-0.116-0.808-0.179-1.22
		c-3.41,0-6.828-0.06-10.24,0.013c-13.906,0.3-27.816,0.568-41.719,0.986c-9.366,0.287-18.816,0.05-27.781,3.545
		c-1.878,0.739-4.196,1.145-4.325,3.633c-0.114,2.405,1.989,3.392,3.766,4.312c6.467,3.369,13.562,3.254,20.568,3.379
		c14.942,0.277,29.256-3.243,43.359-7.739C153.614,414.399,159.436,412.705,164.471,409.298z"/>
	<path fill="#AAAAAA" d="M336.704,397.744c-4.897,0.119-9.449-0.684-13.18-4.34c-1.877-1.85-2.707-3.938-2.227-6.451
		c0.327-1.727,2.728-3.421-0.376-5.022c-0.6-0.312,0.337-1.178,1.079-1.323c8.221-1.656,16.174-1.186,23.416,3.484
		c2.433,1.567,4.638,3.623,4.161,6.982c-0.466,3.323-3.112,4.525-5.846,5.615C341.467,397.593,339.097,397.688,336.704,397.744z
		 M335.866,393.349c1.756-0.258,3.543-0.408,5.253-0.82c1.219-0.291,2.692-0.545,2.95-2.155c0.216-1.364-0.812-2.128-1.689-2.938
		c-2.472-2.264-11.442-3.25-14.289-1.491c-1.885,1.158-1.831,2.638-0.314,4.071C330.025,392.14,332.745,393.196,335.866,393.349z"/>
	<path fill="#AAAAAA" d="M212.252,375.09c0.052-5.812,2.243-7.49,6.745-5.792c1.702,0.641,3.229,0.403,4.877,0.245
		c5.146-0.486,9.97,0.274,13.885,4.058c2.713,2.625,2.578,6.098-0.74,7.66c-6.887,3.248-13.927,4.774-20.947,0.092
		C213.483,379.623,212.318,377.223,212.252,375.09z M225.958,379.821c1.947,0.091,3.8-0.362,5.578-1.062
		c0.93-0.374,2.255-0.604,2.255-1.951c0-1.228-1.125-1.775-2.012-2.318c-1.872-1.15-4.036-1.697-6.162-1.521
		c-2.588,0.214-5.801-0.595-7.349,2.301C217.486,376.754,222.551,379.723,225.958,379.821z"/>
</g>
</svg>
