<?xml version="1.0" encoding="utf-8"?>
<!-- Copyright (C) 2014 Brian Speir. All rights reserved. -->
<!DOCTYPE svg PUBLIC "-//W3C//DTD SVG 1.1//EN" "http://www.w3.org/Graphics/SVG/1.1/DTD/svg11.dtd">
<svg version="1.1" id="Layer_1" xmlns="http://www.w3.org/2000/svg" xmlns:xlink="http://www.w3.org/1999/xlink" x="0px" y="0px"
	 width="120px" height="120px" viewBox="0 0 120 120" enable-background="new 0 0 120 120" xml:space="preserve">
<path fill="#FFC300" d="M37.564,33.135c-1.535-14.499,7.954-28.387,22.04-32.137c7.174-1.909,14.979-1.059,21.558,2.384
	C86.158,6,90.101,10.193,96.163,8.546c4.215-1.141,8.421-2.283,12.63-3.426c6.094-1.65,8.467,7.995,2.717,10.208
	c9.488,6.044-7.938,13.837-11.718,16.104c-4.562,2.721-5.766,8.981-2.312,13.129c1.764,2.104,4.236,2.672,6.572,3.854
	c3.225,1.621,6.118,3.867,8.506,6.574c18.286,20.77-0.188,53.19-22.367,61.733c-23.948,9.229-53.194-2.188-70.156-19.916
	c-8.76-9.153-15.16-20.52-18.331-32.796c-1.372-5.25-3.568-12.029,1.289-16.174c7.293-6.208,12.115,1.532,15.937,6.649
	c10.855,14.529,31.232,13.603,45.692,5.279C49.358,58.397,39.047,47.147,37.564,33.135z"/>
</svg>
