<?xml version="1.0" encoding="utf-8"?>
<!-- Generator: Adobe Illustrator 16.0.4, SVG Export Plug-In . SVG Version: 6.00 Build 0)  -->
<!DOCTYPE svg PUBLIC "-//W3C//DTD SVG 1.1//EN" "http://www.w3.org/Graphics/SVG/1.1/DTD/svg11.dtd">
<svg version="1.1" id="Bag" xmlns="http://www.w3.org/2000/svg" xmlns:xlink="http://www.w3.org/1999/xlink" x="0px" y="0px"
	 width="660px" height="908px" viewBox="0 0 660 908" enable-background="new 0 0 660 908" xml:space="preserve">
<g id="bag">
	<rect x="1" y="249" width="658" height="658"/>
	<path fill="#CCCCCC" d="M658,250v656H2V250H658 M660,248h-2H2H0v2v656v2h2h656h2v-2V250V248L660,248z"/>
</g>
<path id="handle" d="M330,0C218.019,0,127.5,103.453,127.5,231.066V250h10.743v-18.934c0-29.62,4.99-58.341,15.026-85.386
	c9.692-26.12,23.52-49.579,41.203-69.73c17.685-20.153,38.243-35.967,61.163-47.014c23.724-11.436,48.924-17.237,74.915-17.237
	c25.99,0,51.188,5.801,74.921,17.237c22.92,11.047,43.501,26.861,61.185,47.014c17.684,20.151,31.459,43.61,41.153,69.73
	c10.034,27.045,15.024,55.767,15.024,85.386V250h9.668v-18.934C532.5,103.453,441.981,0,330,0z"/>
<path id="duck-golden" fill="#FFC300" d="M157.782,711.054c-1.224-11.563,6.342-22.641,17.585-25.632
	c5.723-1.522,11.941-0.844,17.19,1.903c3.982,2.081,7.135,5.431,11.966,4.117c3.358-0.91,6.715-1.823,10.073-2.734
	c4.857-1.319,6.753,6.38,2.165,8.146c7.57,4.823-6.322,11.036-9.346,12.844c-3.633,2.171-4.598,7.169-1.836,10.469
	c1.405,1.678,3.376,2.135,5.242,3.077c2.565,1.297,4.877,3.085,6.776,5.243c14.59,16.57-0.145,42.434-17.83,49.25
	c-19.113,7.365-42.43-1.754-55.963-15.888c-6.992-7.301-12.085-16.366-14.627-26.16c-1.086-4.187-2.843-9.596,1.042-12.904
	c5.814-4.951,9.656,1.228,12.703,5.308c8.657,11.592,24.909,10.853,36.439,4.209C167.189,731.21,158.965,722.233,157.782,711.054z"
	/>
<g id="ducks">
	<path fill="#FFFFFF" d="M658,533.244v91.323c-17.233,3.799-37.702-4.86-49.887-17.594c-6.99-7.304-11.953-16.37-14.492-26.158
		c-1.086-4.195-2.78-9.604,1.112-12.906c5.805-4.958,9.679,1.226,12.734,5.302c8.655,11.596,24.924,10.854,36.45,4.216
		c-12.174-1.096-20.381-10.065-21.564-21.253c-1.227-11.562,6.338-22.638,17.588-25.63c5.723-1.526,11.669-0.849,16.918,1.905
		C657.343,532.695,658,532.966,658,533.244z"/>
	<path fill="#FFFFFF" d="M157.782,401.297c-1.224-11.564,6.342-22.641,17.585-25.633c5.723-1.521,11.941-0.842,17.19,1.903
		c3.982,2.084,7.135,5.433,11.966,4.12c3.358-0.912,6.715-1.824,10.073-2.735c4.857-1.32,6.753,6.379,2.165,8.145
		c7.57,4.824-6.322,11.037-9.346,12.843c-3.633,2.172-4.598,7.17-1.836,10.47c1.405,1.677,3.376,2.135,5.242,3.076
		c2.565,1.296,4.877,3.086,6.776,5.244c14.59,16.57-0.145,42.435-17.83,49.248c-19.113,7.366-42.43-1.752-55.963-15.886
		c-6.992-7.303-12.085-16.367-14.627-26.159c-1.086-4.189-2.843-9.597,1.042-12.905c5.814-4.951,9.656,1.229,12.703,5.308
		c8.657,11.592,24.909,10.853,36.439,4.21C167.189,421.453,158.965,412.478,157.782,401.297z"/>
	<path fill="#FFFFFF" d="M312.642,401.297c-1.224-11.564,6.341-22.641,17.584-25.633c5.723-1.521,11.94-0.842,17.189,1.903
		c3.982,2.084,7.135,5.433,11.966,4.12c3.357-0.912,6.714-1.824,10.072-2.735c4.858-1.32,6.754,6.379,2.166,8.145
		c7.569,4.824-6.323,11.037-9.346,12.843c-3.634,2.172-4.598,7.17-1.837,10.47c1.404,1.677,3.377,2.135,5.241,3.076
		c2.566,1.296,4.879,3.086,6.778,5.244c14.59,16.57-0.146,42.435-17.83,49.248c-19.114,7.366-42.43-1.752-55.963-15.886
		c-6.992-7.303-12.086-16.367-14.627-26.159c-1.085-4.189-2.843-9.597,1.042-12.905c5.814-4.951,9.656,1.229,12.702,5.308
		c8.657,11.592,24.91,10.853,36.44,4.21C322.049,421.453,313.824,412.478,312.642,401.297z"/>
	<path fill="#FFFFFF" d="M467.501,401.297c-1.225-11.564,6.341-22.641,17.585-25.633c5.723-1.521,11.94-0.842,17.19,1.903
		c3.982,2.084,7.135,5.433,11.965,4.12c3.356-0.912,6.716-1.824,10.072-2.735c4.858-1.32,6.754,6.379,2.166,8.145
		c7.569,4.824-6.322,11.037-9.346,12.843c-3.635,2.172-4.599,7.17-1.837,10.47c1.402,1.677,3.375,2.135,5.241,3.076
		c2.564,1.296,4.877,3.086,6.776,5.244c14.591,16.57-0.145,42.435-17.828,49.248c-19.115,7.366-42.431-1.752-55.964-15.886
		c-6.992-7.303-12.085-16.367-14.627-26.159c-1.085-4.189-2.844-9.597,1.041-12.905c5.814-4.951,9.655,1.229,12.702,5.308
		c8.657,11.592,24.91,10.853,36.441,4.21C476.908,421.453,468.684,412.478,467.501,401.297z"/>
	<path fill="#FFFFFF" d="M312.642,556.175c-1.224-11.564,6.341-22.639,17.584-25.633c5.723-1.522,11.94-0.842,17.189,1.903
		c3.982,2.083,7.136,5.431,11.966,4.119c3.359-0.911,6.716-1.822,10.073-2.734c4.857-1.319,6.753,6.38,2.166,8.146
		c7.568,4.822-6.325,11.036-9.347,12.842c-3.634,2.172-4.597,7.17-1.836,10.47c1.403,1.678,3.376,2.137,5.24,3.078
		c2.567,1.295,4.879,3.084,6.779,5.243c14.59,16.57-0.146,42.434-17.831,49.247c-19.113,7.367-42.43-1.752-55.962-15.886
		c-6.993-7.302-12.086-16.366-14.627-26.16c-1.086-4.187-2.843-9.596,1.042-12.903c5.814-4.951,9.656,1.228,12.702,5.307
		c8.657,11.594,24.91,10.854,36.44,4.21C322.048,576.332,313.824,567.355,312.642,556.175z"/>
	<path fill="#FFFFFF" d="M312.642,711.054c-1.224-11.563,6.341-22.641,17.584-25.632c5.723-1.522,11.94-0.844,17.189,1.903
		c3.982,2.081,7.135,5.431,11.966,4.117c3.357-0.91,6.714-1.823,10.072-2.734c4.858-1.319,6.754,6.38,2.166,8.146
		c7.569,4.823-6.323,11.036-9.346,12.844c-3.634,2.171-4.598,7.169-1.837,10.469c1.404,1.678,3.377,2.135,5.241,3.077
		c2.566,1.297,4.879,3.085,6.778,5.243c14.59,16.57-0.146,42.434-17.83,49.25c-19.114,7.365-42.43-1.754-55.963-15.888
		c-6.992-7.301-12.086-16.366-14.627-26.16c-1.085-4.187-2.843-9.596,1.042-12.904c5.814-4.951,9.656,1.228,12.702,5.308
		c8.657,11.592,24.91,10.853,36.44,4.209C322.049,731.21,313.824,722.233,312.642,711.054z"/>
	<path fill="#FFFFFF" d="M658,688.122v91.325c-17.233,3.796-37.702-4.862-49.887-17.596c-6.99-7.302-11.953-16.37-14.492-26.157
		c-1.086-4.194-2.78-9.604,1.112-12.907c5.805-4.958,9.69,1.226,12.734,5.303c8.655,11.594,24.924,10.852,36.45,4.215
		c-12.174-1.096-20.381-10.065-21.564-21.251c-1.227-11.562,6.338-22.641,17.588-25.63c5.723-1.528,11.669-0.851,16.918,1.904
		C657.343,687.574,658,687.844,658,688.122z"/>
	<path fill="#FFFFFF" d="M44.641,312.886c-13.69,5.271-29.715,2.098-42.641-5.312v-35.688c7.541,1.216,15.68-0.386,22.229-4.161
		C13.261,266.734,5.776,258.619,3.485,250h45.802c-0.431,1.077,0,3.882,1.43,5.593c1.408,1.667,3.376,1.995,5.248,2.941
		c2.559,1.291,4.737,3.009,6.64,5.17C77.188,280.278,62.32,306.067,44.641,312.886z"/>
	<path fill="#FFFFFF" d="M199.769,312.886c-19.109,7.369-42.435-1.752-55.964-15.885c-6.99-7.304-12.087-16.37-14.626-26.157
		c-1.085-4.195-2.849-9.594,1.043-12.907c5.808-4.947,9.658,1.226,12.702,5.302c8.657,11.594,24.906,11.133,36.435,4.486
		c-10.969-0.991-18.724-9.106-21.014-17.725h45.802c-0.431,1.077,0,3.882,1.43,5.593c1.409,1.667,3.377,1.995,5.249,2.941
		c2.559,1.291,4.872,3.009,6.775,5.17C232.182,280.278,217.449,306.067,199.769,312.886z"/>
	<path fill="#FFFFFF" d="M354.628,312.886c-19.121,7.369-42.436-1.752-55.965-15.885c-6.99-7.304-12.087-16.37-14.625-26.157
		c-1.085-4.195-2.85-9.594,1.043-12.907c5.807-4.947,9.657,1.226,12.7,5.302c8.657,11.594,24.907,11.133,36.435,4.486
		c-10.968-0.991-18.722-9.106-21.013-17.725h45.802c-0.431,1.077,0,3.882,1.429,5.593c1.41,1.667,3.378,1.995,5.248,2.941
		c2.559,1.291,4.873,3.009,6.777,5.17C387.042,280.278,372.308,306.067,354.628,312.886z"/>
	<path fill="#FFFFFF" d="M509.489,312.886c-19.121,7.369-42.436-1.752-55.965-15.885c-6.99-7.304-12.087-16.37-14.626-26.157
		c-1.085-4.195-2.85-9.594,1.043-12.907c5.807-4.947,9.656,1.226,12.7,5.302c8.657,11.594,24.908,11.133,36.435,4.486
		c-10.969-0.991-18.723-9.106-21.014-17.725h45.803c-0.431,1.077,0,3.882,1.43,5.593c1.408,1.667,3.377,1.995,5.247,2.941
		c2.559,1.291,4.873,3.009,6.776,5.17C541.901,280.278,527.166,306.067,509.489,312.886z"/>
	<path fill="#FFFFFF" d="M658,250v64.596c-17.233,3.797-37.702-4.86-49.887-17.595c-6.99-7.304-11.953-16.37-14.492-26.157
		c-1.086-4.195-2.78-9.594,1.112-12.907c5.805-4.947,9.69,1.226,12.734,5.302c8.655,11.594,24.924,11.133,36.45,4.486
		c-10.969-0.991-18.706-9.106-20.995-17.725H658z"/>
	<path fill="#FFFFFF" d="M44.641,467.979c-13.69,5.271-29.715,2.099-42.641-5.312V426.97c7.541,1.215,15.68-0.646,22.229-4.421
		c-12.173-1.096-20.255-10.066-21.438-21.253c-1.225-11.562,6.401-22.64,17.65-25.63c5.721-1.527,11.971-0.85,17.218,1.904
		c3.99,2.076,7.158,5.432,11.986,4.12c3.355-0.916,6.72-1.83,10.085-2.743c4.851-1.313,6.758,6.388,2.167,8.152
		c7.571,4.82-6.322,11.036-9.344,12.843c-3.635,2.172-4.602,7.163-1.837,10.464c1.408,1.679,3.377,2.141,5.248,3.076
		c2.559,1.303,4.738,3.088,6.64,5.249C77.188,435.305,62.32,461.162,44.641,467.979z"/>
	<path fill="#FFFFFF" d="M658,378.366v91.324c-17.233,3.798-37.702-4.86-49.887-17.595c-6.99-7.304-11.953-16.371-14.492-26.156
		c-1.086-4.197-2.78-9.604,1.112-12.908c5.805-4.958,9.69,1.227,12.734,5.302c8.655,11.595,24.924,10.853,36.45,4.217
		c-12.174-1.096-20.381-10.066-21.564-21.253c-1.227-11.562,6.338-22.64,17.588-25.63c5.723-1.527,11.669-0.85,16.918,1.904
		C657.343,377.817,658,378.086,658,378.366z"/>
	<path fill="#FFFFFF" d="M44.641,622.858c-13.69,5.271-29.715,2.098-42.641-5.312v-35.699c7.541,1.216,15.68-0.645,22.229-4.421
		c-12.173-1.096-20.255-10.065-21.438-21.253c-1.225-11.562,6.401-22.638,17.65-25.63c5.721-1.526,11.971-0.849,17.218,1.905
		c3.99,2.075,7.158,5.431,11.986,4.118c3.355-0.914,6.72-1.827,10.085-2.743c4.851-1.312,6.758,6.39,2.167,8.153
		c7.571,4.818-6.322,11.035-9.344,12.842c-3.635,2.172-4.602,7.163-1.837,10.464c1.408,1.68,3.377,2.143,5.248,3.077
		c2.559,1.302,4.738,3.087,6.64,5.248C77.188,590.183,62.32,616.04,44.641,622.858z"/>
	<path fill="#FFFFFF" d="M157.782,556.175c-1.224-11.564,6.342-22.639,17.585-25.633c5.723-1.522,11.941-0.842,17.19,1.903
		c3.982,2.083,7.135,5.431,11.966,4.119c3.358-0.911,6.715-1.822,10.073-2.734c4.857-1.319,6.753,6.38,2.165,8.146
		c7.57,4.822-6.322,11.036-9.346,12.842c-3.633,2.172-4.598,7.17-1.836,10.47c1.404,1.678,3.376,2.137,5.242,3.078
		c2.565,1.295,4.877,3.084,6.776,5.243c14.59,16.57-0.145,42.434-17.83,49.247c-19.113,7.367-42.43-1.752-55.963-15.886
		c-6.992-7.302-12.086-16.366-14.627-26.16c-1.086-4.187-2.842-9.596,1.041-12.903c5.814-4.951,9.656,1.228,12.704,5.307
		c8.657,11.594,24.909,10.854,36.439,4.21C167.189,576.332,158.965,567.355,157.782,556.175z"/>
	<path fill="#FFFFFF" d="M467.5,556.175c-1.225-11.564,6.341-22.639,17.585-25.633c5.724-1.522,11.94-0.842,17.19,1.903
		c3.982,2.083,7.135,5.431,11.966,4.119c3.356-0.911,6.714-1.822,10.072-2.734c4.856-1.319,6.754,6.38,2.166,8.146
		c7.567,4.822-6.324,11.036-9.348,12.842c-3.634,2.172-4.597,7.17-1.835,10.47c1.402,1.678,3.375,2.137,5.239,3.078
		c2.566,1.295,4.879,3.084,6.778,5.243c14.591,16.57-0.145,42.434-17.829,49.247c-19.114,7.367-42.431-1.752-55.964-15.886
		c-6.992-7.302-12.085-16.366-14.627-26.16c-1.085-4.187-2.843-9.596,1.041-12.903c5.814-4.951,9.655,1.228,12.703,5.307
		c8.656,11.594,24.91,10.854,36.441,4.21C476.908,576.332,468.682,567.355,467.5,556.175z"/>
	<path fill="#FFFFFF" d="M44.641,777.738c-13.69,5.269-29.715,2.096-42.641-5.314v-35.697c7.541,1.216,15.68-0.645,22.229-4.422
		c-12.173-1.096-20.255-10.065-21.438-21.251c-1.225-11.562,6.401-22.641,17.65-25.63c5.721-1.528,11.971-0.851,17.218,1.904
		c3.99,2.074,7.158,5.431,11.986,4.118c3.355-0.914,6.72-1.829,10.085-2.743c4.851-1.312,6.758,6.389,2.167,8.152
		c7.571,4.819-6.322,11.036-9.344,12.844c-3.635,2.171-4.602,7.163-1.837,10.464c1.408,1.679,3.377,2.14,5.248,3.076
		c2.559,1.303,4.738,3.087,6.64,5.248C77.188,745.062,62.32,770.918,44.641,777.738z"/>
	<path fill="#FFFFFF" d="M467.501,711.054c-1.225-11.563,6.341-22.641,17.585-25.632c5.723-1.522,11.94-0.844,17.19,1.903
		c3.982,2.081,7.135,5.431,11.965,4.117c3.356-0.91,6.716-1.823,10.072-2.734c4.858-1.319,6.754,6.38,2.166,8.146
		c7.569,4.823-6.322,11.036-9.346,12.844c-3.635,2.171-4.599,7.169-1.837,10.469c1.402,1.678,3.375,2.135,5.241,3.077
		c2.564,1.297,4.877,3.085,6.776,5.243c14.591,16.57-0.145,42.434-17.828,49.25c-19.115,7.365-42.431-1.754-55.964-15.888
		c-6.992-7.301-12.085-16.366-14.627-26.16c-1.085-4.187-2.844-9.596,1.041-12.904c5.814-4.951,9.655,1.228,12.702,5.308
		c8.657,11.592,24.91,10.853,36.441,4.209C476.908,731.21,468.684,722.233,467.501,711.054z"/>
	<path fill="#FFFFFF" d="M67.935,906H2v-14.478c7.541,1.216,15.68-0.646,22.229-4.421c-12.173-1.097-20.255-10.066-21.438-21.253
		c-1.225-11.562,6.401-22.64,17.65-25.63c5.721-1.527,11.971-0.85,17.218,1.904c3.99,2.075,7.158,5.431,11.986,4.119
		c3.355-0.914,6.72-1.828,10.085-2.743c4.851-1.312,6.758,6.39,2.167,8.153c7.571,4.818-6.322,11.035-9.344,12.842
		c-3.635,2.172-4.602,7.163-1.837,10.464c1.408,1.68,3.377,2.142,5.248,3.077c2.559,1.302,4.873,3.355,6.775,5.519
		C68.482,890.081,69.676,897.381,67.935,906z"/>
	<path fill="#FFFFFF" d="M222.793,906h-87.41c-2.742-5.388-4.839-9.992-6.205-15.241c-1.085-4.194-2.849-9.739,1.043-13.04
		c5.808-4.96,9.658,1.156,12.702,5.233c8.657,11.596,24.906,10.819,36.435,4.183c-12.174-1.096-20.39-10.083-21.573-21.27
		c-1.225-11.562,6.335-22.647,17.583-25.639c5.722-1.526,11.937-0.854,17.186,1.901c3.989,2.075,7.14,5.429,11.969,4.116
		c3.356-0.914,6.711-1.829,10.077-2.744c4.851-1.312,6.754,6.389,2.161,8.153c7.572,4.817-6.323,11.034-9.346,12.841
		c-3.634,2.172-4.602,7.163-1.838,10.464c1.409,1.68,3.377,2.142,5.249,3.077c2.559,1.302,4.872,3.355,6.775,5.519
		C223.342,890.081,224.536,897.381,222.793,906z"/>
	<path fill="#FFFFFF" d="M377.652,906h-87.408c-2.743-5.388-4.84-9.992-6.206-15.241c-1.085-4.194-2.85-9.739,1.043-13.04
		c5.807-4.96,9.657,1.156,12.7,5.233c8.657,11.596,24.907,10.819,36.435,4.183c-12.173-1.096-20.389-10.083-21.572-21.27
		c-1.226-11.562,6.334-22.647,17.583-25.639c5.722-1.526,11.937-0.854,17.186,1.901c3.989,2.075,7.14,5.429,11.969,4.116
		c3.355-0.914,6.71-1.829,10.076-2.744c4.851-1.312,6.754,6.389,2.162,8.153c7.571,4.817-6.323,11.034-9.346,12.841
		c-3.635,2.172-4.601,7.163-1.839,10.464c1.41,1.68,3.378,2.142,5.248,3.077c2.559,1.302,4.873,3.355,6.777,5.519
		C378.202,890.081,379.395,897.381,377.652,906z"/>
	<path fill="#FFFFFF" d="M532.513,906h-87.41c-2.742-5.388-4.839-9.992-6.205-15.241c-1.085-4.194-2.85-9.739,1.043-13.04
		c5.807-4.96,9.656,1.156,12.7,5.233c8.657,11.596,24.908,10.819,36.435,4.183c-12.173-1.096-20.39-10.083-21.572-21.27
		c-1.227-11.562,6.333-22.647,17.583-25.639c5.722-1.526,11.937-0.854,17.186,1.901c3.99,2.075,7.141,5.429,11.969,4.116
		c3.354-0.914,6.71-1.829,10.076-2.744c4.851-1.312,6.754,6.389,2.162,8.153c7.571,4.817-6.322,11.034-9.346,12.841
		c-3.636,2.172-4.602,7.163-1.839,10.464c1.408,1.68,3.377,2.142,5.247,3.077c2.559,1.302,4.873,3.355,6.776,5.519
		C533.061,890.081,534.254,897.381,532.513,906z"/>
	<path fill="#FFFFFF" d="M658,842.918V906h-58.039c-2.74-5.388-4.837-9.992-6.205-15.241c-1.086-4.194-2.849-9.739,1.044-13.04
		c5.807-4.96,9.657,1.156,12.701,5.233c8.657,11.596,24.906,10.819,36.435,4.183c-12.174-1.096-20.391-10.083-21.572-21.27
		c-1.227-11.562,6.334-22.647,17.582-25.639c5.723-1.526,11.667-0.854,16.916,1.901C657.345,842.373,658,842.639,658,842.918z"/>
</g>
</svg>
