<?xml version="1.0" encoding="utf-8"?>
<!-- Generator: Adobe Illustrator 16.0.5, SVG Export Plug-In . SVG Version: 6.00 Build 0)  -->
<!DOCTYPE svg PUBLIC "-//W3C//DTD SVG 1.1//EN" "http://www.w3.org/Graphics/SVG/1.1/DTD/svg11.dtd">
<svg version="1.1" id="Words" xmlns="http://www.w3.org/2000/svg" xmlns:xlink="http://www.w3.org/1999/xlink" x="0px" y="0px"
	 width="92px" height="120px" viewBox="0 0 92 120" enable-background="new 0 0 92 120" xml:space="preserve">
<path id="Background" fill="#FFFFFF" d="M92,120H0V0h53c6.512,0.813,5.939,1,22,17s16.244,15.481,17,22V120z"/>
<path id="Paper" fill="#007AFF" d="M76,16C71.593,11.595,62.273,2.021,56.25,0H0v120h92V35.75C89.98,29.725,80.407,20.405,76,16z
	 M91,119H1V1h55c10.939,4.85,10.38,14.92,10,25c10.08-0.38,20.15-0.94,25,10V119z"/>
<g id="Blocks">
	<rect x="13" y="16" opacity="0.5" fill="#5AC8FA" enable-background="new    " width="33" height="8"/>
	<rect x="13" y="48" opacity="0.5" fill="#5AC8FA" enable-background="new    " width="66" height="8"/>
	<rect x="13" y="32" opacity="0.5" fill="#5AC8FA" enable-background="new    " width="66" height="8"/>
	<rect x="13" y="64" opacity="0.5" fill="#5AC8FA" enable-background="new    " width="66" height="8"/>
	<rect x="13" y="80" opacity="0.5" fill="#5AC8FA" enable-background="new    " width="66" height="8"/>
	<rect x="13" y="96" opacity="0.5" fill="#5AC8FA" enable-background="new    " width="66" height="8"/>
</g>
</svg>
