<?xml version="1.0" encoding="utf-8"?>
<!-- Copyright (C) 2014 Brian Speir. All rights reserved. -->
<!DOCTYPE svg PUBLIC "-//W3C//DTD SVG 1.1//EN" "http://www.w3.org/Graphics/SVG/1.1/DTD/svg11.dtd">
<svg version="1.1" id="Phone" xmlns="http://www.w3.org/2000/svg" xmlns:xlink="http://www.w3.org/1999/xlink" x="0px" y="0px"
	 width="120px" height="120px" viewBox="0 0 120 120" enable-background="new 0 0 120 120" xml:space="preserve">
<rect id="Screen" x="34" y="14.5" fill="#F7F7F7" width="52" height="91"/>
<path id="Body" fill="#777777" d="M88.507,111.133c0,4.896-3.987,8.867-8.905,8.867H40.4c-4.919,0-8.907-3.971-8.907-8.867V8.866
	C31.493,3.97,35.481,0,40.4,0h39.202c4.916,0,8.904,3.97,8.904,8.866L88.507,111.133L88.507,111.133z M84.925,15.969H35.077v88.062
	h49.848V15.969z"/>
<ellipse id="Home_Button" fill="#555555" cx="60" cy="111.164" rx="5.296" ry="5.271"/>
<path id="Earpiece_2_" fill="#555555" d="M64.751,10.388c0,0.343-0.278,0.62-0.622,0.62h-8.257c-0.344,0-0.623-0.277-0.623-0.62l0,0
	c0-0.343,0.279-0.62,0.623-0.62h8.257C64.473,9.768,64.751,10.045,64.751,10.388L64.751,10.388z"/>
<ellipse id="Front_Camera_2_" fill="#555555" cx="60" cy="5.737" rx="1.168" ry="1.162"/>
</svg>
