<!-- Copyright © 2014 Brian Speir. All rights reserved.  -->
<svg version="1.2" baseProfile="tiny" id="Layer_1" xmlns="http://www.w3.org/2000/svg" xmlns:xlink="http://www.w3.org/1999/xlink"
	 x="0px" y="0px" width="120px" height="120px" viewBox="0 0 120 120" xml:space="preserve">
<g>
	<path fill="#555555" d="M0,48.47h8.378v23.06H0V48.47z"/>
	<path fill="#555555" d="M15.321,48.47h10.621c5.383,0,9.358,2.747,9.358,8.475c0,4.702-2.938,7.64-7.616,7.64h-4.289v6.945h-8.074
		V48.47z M23.396,58.777h0.826c1.476,0,3.061-0.246,3.061-2.111c0-1.81-1.708-1.898-3.083-1.898h-0.804V58.777z"/>
	<path fill="#555555" d="M41.267,63.273l0.424,0.34c1.497,1.16,3.306,2.11,5.238,2.11c0.822,0,2.132-0.341,2.132-1.386
		c0-1.039-1.093-1.128-1.864-1.284l-1.674-0.301c-3.274-0.581-6.031-2.514-6.031-6.12c0-5.472,4.98-8.531,10.007-8.531
		c2.622,0,5.048,0.641,7.302,2.021l-2.254,5.895c-1.442-0.97-3.061-1.741-4.871-1.741c-0.736,0-1.802,0.279-1.802,1.229
		c0,0.859,1.044,0.974,1.68,1.128l1.899,0.437c3.551,0.793,6.119,2.688,6.119,6.599c0,5.505-5.015,8.23-10.007,8.23
		c-2.903,0-6.264-0.792-8.865-2.11L41.267,63.273z"/>
	<path fill="#555555" d="M84.451,48.47v13.635c0,6.734-4.221,9.794-10.675,9.794c-6.45,0-10.669-3.06-10.669-9.794V48.47h8.38
		v12.842c0,1.811,0.06,3.395,2.289,3.395c2.232,0,2.301-1.584,2.301-3.395V48.47H84.451z"/>
	<path fill="#555555" d="M92.472,48.47h8.62l3.184,12.115h0.213c0.156-1.016,0.312-2.088,0.58-3.058l2.602-9.058h8.532L120,71.529
		h-8.108l-1.128-12.63h-0.156c-0.154,0.76-0.301,1.562-0.547,2.289l-3.34,10.341h-4.891l-2.992-9.76
		c-0.245-0.971-0.462-1.888-0.526-2.87h-0.278c-0.055,0.916-0.123,1.865-0.212,2.78l-0.971,9.85h-8.108L92.472,48.47z"/>
</g>
</svg>
