<?xml version="1.0" encoding="utf-8"?>
<!-- Generator: Adobe Illustrator 16.0.4, SVG Export Plug-In . SVG Version: 6.00 Build 0)  -->
<!DOCTYPE svg PUBLIC "-//W3C//DTD SVG 1.1//EN" "http://www.w3.org/Graphics/SVG/1.1/DTD/svg11.dtd">
<svg version="1.1" xmlns="http://www.w3.org/2000/svg" xmlns:xlink="http://www.w3.org/1999/xlink" x="0px" y="0px" width="120px"
	 height="120px" viewBox="0 0 120 120" enable-background="new 0 0 120 120" xml:space="preserve">
<g id="Layer_1" display="none">
	<path display="inline" fill="#BBBBBB" d="M60,120c-15.415,0-30.063-5.834-41.248-16.426C6.66,92.124,0,76.649,0,60
		C0,26.915,26.915,0,60,0c33.083,0,60,26.915,60,60c0,16.67-6.674,32.154-18.787,43.605C90.035,114.176,75.398,120,60,120z"/>
	<path display="inline" fill="#555555" d="M101.212,103.605C90.465,113.771,75.962,120,60,120c-15.979,0-30.497-6.244-41.247-16.427
		c4.43-3.216,11.759-6.026,14.776-6.81c2.503-0.649,11.167-1.455,12.647-3.576c1.588-2.278,0.294-10.836,0.294-10.836
		c-2.215-2.863-4.065-11.842-3.962-12.595c-1.091,0-2.088-0.813-2.903-2.1c-1.756-0.773-2.321-2.456-2.426-4.5
		c-0.944-1.459-3.018-2.883-2.668-5.109c0.215-1.368,1.732-2.138,1.262-3.697c-0.6-0.488-1.176-0.273-1.72-0.612
		c-1.242-0.788-1.965-3.356-1.368-5.2c0.621-1.923,3.145-1.841,4.044-3.32c-1.044-2.047-1.271-4.58,0.112-6.677
		c0.391-0.594,2.1-1.35,2.323-2.009c0.062-0.167-0.306-2.532-0.118-2.982c0.347-0.838,1.409-0.47,1.827-1.167
		c0.474-0.779,0.138-1.909,0.606-2.621c0.612-0.95,1.7-1.144,2.909-1.144c0.521,0,1.062,0.035,1.612,0.062
		c0.235-0.979-0.688-1.626-0.544-2.765c0.179-1.306,1.891-2.794,3.138-2.794c0.874,0,1.417,0.991,2.247,1.065
		c0.741,0,0.888-0.324,1.347-0.474c0.497-0.165,0.944-0.306,1.447-0.306c1.603,0,2.012,0.68,3.338,1.077
		c0.444-2.03,2.2-3.292,3.317-3.292c0.021,0,0.059-0.008,0.083-0.005c0,0,0.07-0.012,0.188-0.012c0.412,0,1.437,0.103,2.491,1.141
		c0.447,0.441,1.865,1.088,2.56,1.074c0.637-0.015,1.709-0.597,2.466-0.597c0,0,0.021,0,0.028,0c2.115,0.147,3.08,1.191,4.443,2.491
		c0.788,0.756,1.395,0.512,2.059,1.15c0.828,0.806,0.812,2.232,1.444,2.633c0.485,0.306,1.7-0.197,2.273,0.261
		c0.974,0.783,1.098,1.559,0.526,2.844c1.474,0.803,3.295,1.518,4.357,2.936c0.785,1.065,1.623,2.756,1.05,4.456
		c-0.335,1.015-0.668,2.053-0.094,2.053c0,0,1.944,0.612,2.354,2.167c0.392,1.509-0.65,3.574-1.361,3.985
		c1,1.371,3.214,2.841,2.018,5.162c1.178,2.297-0.918,3.85-1.656,5.697c-0.373,0.938-0.439,1.899-0.875,2.714
		c-0.611,1.143-1.854,1.691-2.652,2.27c-0.814,3.386-2.529,6.146-4.5,6.146c0.104,0.755-1.747,9.729-3.963,12.595
		c0,0-1.295,8.558,0.295,10.836c1.479,2.121,10.146,2.92,12.646,3.576C89.512,97.562,96.887,100.309,101.212,103.605z"/>
	<path display="inline" fill="#888888" d="M60,2c31.98,0,58,26.019,58,58c0,16.113-6.45,31.084-18.162,42.152
		C89.034,112.372,74.887,118,60,118c-14.901,0-29.062-5.641-39.872-15.879C8.438,91.055,2,76.096,2,60C2,28.019,28.019,2,60,2 M60,0
		C26.862,0,0,26.862,0,60c0,17.162,7.203,32.639,18.753,43.573C29.503,113.756,44.021,120,60,120
		c15.962,0,30.465-6.229,41.212-16.395C112.782,92.671,120,77.18,120,60C120,26.862,93.139,0,60,0L60,0z"/>
</g>
<g id="Layer_1_copy" display="none">
	<path fill="#BBBBBB" d="M60,120c-15.415,0-30.063-5.834-41.248-16.426C6.66,92.124,0,76.649,0,60C0,26.915,26.915,0,60,0
		c33.083,0,60,26.915,60,60c0,16.67-6.674,32.154-18.787,43.605C90.035,114.176,75.398,120,60,120z"/>
	<path fill="#888888" d="M60,2c31.98,0,58,26.019,58,58c0,16.113-6.45,31.084-18.162,42.152C89.034,112.372,74.887,118,60,118
		c-14.901,0-29.062-5.641-39.872-15.879C8.438,91.055,2,76.096,2,60C2,28.019,28.019,2,60,2 M60,0C26.862,0,0,26.862,0,60
		c0,17.162,7.203,32.639,18.753,43.573C29.503,113.756,44.021,120,60,120c15.962,0,30.465-6.229,41.212-16.395
		C112.782,92.671,120,77.18,120,60C120,26.862,93.139,0,60,0L60,0z"/>
</g>
<g id="Silhouette">
	<path id="Me" fill="#555555" d="M120,102l-5,18c0,0-43.459,0-54.996,0C48.51,120,5,120,5,120l-5-18
		c5.379-3.905,24.198-9.264,27.861-10.215c3.04-0.789,13.56-1.767,15.356-4.343c1.929-2.767,0.358-13.157,0.358-13.157
		c-2.69-3.478-4.937-14.379-4.812-15.293c-1.325,0-2.535-0.988-3.525-2.55c-2.132-0.939-2.818-2.982-2.945-5.464
		c-1.147-1.772-3.665-3.501-3.24-6.205c0.261-1.661,2.103-2.596,1.532-4.489c-0.729-0.593-1.428-0.332-2.088-0.743
		c-1.508-0.957-2.387-4.076-1.662-6.314c0.754-2.335,3.819-2.235,4.911-4.032c-1.268-2.485-1.543-5.561,0.136-8.107
		c0.475-0.721,2.55-1.639,2.821-2.439c0.075-0.203-0.372-3.075-0.144-3.622c0.421-1.018,1.711-0.57,2.219-1.417
		c0.576-0.946,0.167-2.318,0.735-3.182c0.743-1.154,2.064-1.389,3.533-1.389c0.633,0,1.29,0.042,1.957,0.075
		c0.285-1.189-0.835-1.975-0.66-3.357c0.217-1.586,2.296-3.393,3.81-3.393c1.062,0,1.721,1.203,2.729,1.293
		c0.9,0,1.078-0.394,1.636-0.576c0.604-0.201,1.146-0.371,1.757-0.371c1.946,0,2.443,0.825,4.053,1.307
		C56.867,1.553,59,0.021,60.356,0.021c0.025,0,0.072-0.01,0.101-0.006c0,0,0.085-0.015,0.228-0.015c0.5,0,1.744,0.125,3.024,1.386
		c0.544,0.535,2.266,1.321,3.108,1.304c0.773-0.019,2.075-0.725,2.994-0.725c0,0,0.025,0,0.034,0
		c2.568,0.179,3.74,1.446,5.396,3.025c0.957,0.918,1.693,0.622,2.5,1.396c1.006,0.979,0.985,2.71,1.754,3.197
		c0.589,0.372,2.064-0.239,2.761,0.317c1.182,0.95,1.332,1.893,0.639,3.453c1.789,0.975,4.001,1.843,5.291,3.565
		c0.953,1.293,1.971,3.347,1.274,5.411c-0.406,1.233-0.811,2.493-0.113,2.493c0,0,2.36,0.743,2.858,2.631
		c0.476,1.832-0.789,4.34-1.652,4.839c1.214,1.665,3.902,3.45,2.449,6.268c1.431,2.789-1.114,4.675-2.011,6.917
		c-0.453,1.139-0.533,2.306-1.062,3.295c-0.742,1.387-2.251,2.054-3.221,2.756c-0.989,4.111-3.071,7.462-5.464,7.462
		c0.125,0.917-2.122,11.814-4.812,15.293c0,0-1.572,10.391,0.358,13.157c1.795,2.576,12.32,3.546,15.356,4.343
		C95.839,92.755,114.748,97.997,120,102z"/>
</g>
</svg>
