<!-- Copyright © 2014 Brian Speir. All rights reserved.  -->
<svg version="1.2" baseProfile="tiny" id="Layer_1" xmlns="http://www.w3.org/2000/svg" xmlns:xlink="http://www.w3.org/1999/xlink"
	 x="0px" y="0px" width="120px" height="120px" viewBox="0 0 120 120" xml:space="preserve">
<g>
	<rect fill="#BBBBBB" width="120" height="120"/>
	<polygon fill="#555555" points="0,66.315 15.789,48.947 35.526,70.264 45,60.789 58.421,75.789 82.105,45.789 96.315,61.578
		106.579,52.105 120,63.158 120,120 0,120 	"/>
	<polygon fill="#555555" points="33.729,15.427 36.351,6.315 38.947,15.42 44.573,7.731 43.848,17.17 51.799,11.833 47.842,20.466
		57.156,18.122 50.444,24.914 60,25.85 51.343,29.976 59.985,34.075 50.428,35.04 57.116,41.812 47.81,39.497 51.74,48.12
		43.805,42.808 44.497,52.243 38.898,44.575 36.277,53.684 33.684,44.582 28.059,52.268 28.782,42.832 20.83,48.17 24.79,39.533
		15.475,41.877 22.188,35.083 12.632,34.152 21.289,30.024 12.644,25.924 22.205,24.96 15.514,18.193 24.822,20.504 20.892,11.88
		28.825,17.193 28.13,7.756 	"/>
</g>
</svg>
