<?xml version="1.0" encoding="utf-8"?>
<!-- Generator: Adobe Illustrator 16.0.4, SVG Export Plug-In . SVG Version: 6.00 Build 0)  -->
<!DOCTYPE svg PUBLIC "-//W3C//DTD SVG 1.1//EN" "http://www.w3.org/Graphics/SVG/1.1/DTD/svg11.dtd">
<svg version="1.1" id="Browser" xmlns="http://www.w3.org/2000/svg" xmlns:xlink="http://www.w3.org/1999/xlink" x="0px" y="0px"
	 width="155px" height="120px" viewBox="0 0 155 120" enable-background="new 0 0 155 120" xml:space="preserve">
<rect id="Background" x="2.5" y="23" fill="#F7F7F7" width="150" height="95"/>
<path id="Title_Bar" fill="#DDDDDD" d="M152.37,6.11v14.85H2.62V6.11c0-1.92,1.57-3.49,3.51-3.49h142.74
	C150.81,2.62,152.37,4.19,152.37,6.11z"/>
<path id="Close_2_" fill="#AAAAAA" d="M17.507,12.227c0,2.417-1.96,4.373-4.377,4.373c-2.419,0-4.379-1.956-4.379-4.373
	c0-2.407,1.96-4.365,4.379-4.365C15.547,7.861,17.507,9.819,17.507,12.227z"/>
<path id="Minimize_2_" fill="#AAAAAA" d="M35.02,12.227c0,2.417-1.962,4.373-4.375,4.373c-2.421,0-4.383-1.956-4.383-4.373
	c0-2.407,1.962-4.365,4.383-4.365C33.058,7.861,35.02,9.819,35.02,12.227z"/>
<path id="Zoom_2_" fill="#AAAAAA" d="M52.528,12.227c0,2.417-1.96,4.373-4.375,4.373s-4.379-1.956-4.379-4.373
	c0-2.407,1.964-4.365,4.379-4.365S52.528,9.819,52.528,12.227z"/>
<path id="Outline" fill="#555555" d="M148.87,0H6.13C2.74,0,0,2.74,0,6.11v107.77c0,3.38,2.74,6.12,6.13,6.12h142.74
	c3.38,0,6.13-2.74,6.13-6.12V6.11C155,2.74,152.25,0,148.87,0z M152.37,113.88c0,1.94-1.561,3.5-3.5,3.5H6.13
	c-1.94,0-3.51-1.56-3.51-3.5V23.59h149.75V113.88z M2.62,20.96V6.11c0-1.92,1.57-3.49,3.51-3.49h142.74c1.939,0,3.5,1.57,3.5,3.49
	v14.85H2.62z"/>
</svg>
