<?xml version="1.0" encoding="utf-8"?>
<!-- Copyright (C) 2014 Brian Speir. All rights reserved. -->
<!DOCTYPE svg PUBLIC "-//W3C//DTD SVG 1.1//EN" "http://www.w3.org/Graphics/SVG/1.1/DTD/svg11.dtd">
<svg version="1.1" id="Me_1_" xmlns="http://www.w3.org/2000/svg" xmlns:xlink="http://www.w3.org/1999/xlink" x="0px" y="0px"
	 width="120px" height="120px" viewBox="0 0 120 120" enable-background="new 0 0 120 120" xml:space="preserve">
<path id="Silhouette_1_" fill="#555555" d="M120,102l-5,18c0,0-43.459,0-54.996,0C48.51,120,5,120,5,120l-5-18
	c5.379-3.904,24.198-9.264,27.861-10.215c3.04-0.789,13.56-1.768,15.356-4.344c1.929-2.768,0.358-13.156,0.358-13.156
	c-2.69-3.479-4.937-14.379-4.812-15.293c-1.325,0-2.535-0.988-3.525-2.55c-2.132-0.939-2.818-2.982-2.945-5.464
	c-1.147-1.772-3.665-3.501-3.24-6.205c0.261-1.661,2.103-2.596,1.532-4.489c-0.729-0.593-1.428-0.332-2.088-0.743
	c-1.508-0.957-2.387-4.076-1.662-6.314c0.754-2.335,3.819-2.235,4.911-4.032c-1.268-2.485-1.543-5.561,0.136-8.107
	c0.475-0.721,2.55-1.639,2.821-2.439c0.075-0.203-0.372-3.075-0.144-3.622c0.421-1.018,1.711-0.57,2.219-1.417
	c0.576-0.946,0.167-2.318,0.735-3.182c0.743-1.154,2.064-1.389,3.533-1.389c0.633,0,1.29,0.042,1.957,0.075
	c0.285-1.189-0.835-1.975-0.66-3.357c0.217-1.586,2.296-3.393,3.81-3.393c1.062,0,1.721,1.203,2.729,1.293
	c0.9,0,1.078-0.394,1.636-0.576c0.604-0.201,1.146-0.371,1.757-0.371c1.946,0,2.443,0.825,4.053,1.307
	C56.867,1.553,59,0.021,60.356,0.021c0.025,0,0.072-0.01,0.101-0.006c0,0,0.085-0.015,0.229-0.015c0.5,0,1.744,0.125,3.023,1.386
	c0.544,0.535,2.266,1.321,3.107,1.304c0.772-0.019,2.076-0.725,2.994-0.725c0,0,0.024,0,0.035,0
	c2.566,0.179,3.738,1.446,5.396,3.025c0.957,0.918,1.692,0.622,2.5,1.396c1.006,0.979,0.985,2.71,1.754,3.197
	c0.589,0.372,2.063-0.239,2.761,0.317c1.182,0.95,1.332,1.893,0.639,3.453c1.789,0.975,4.002,1.843,5.291,3.565
	c0.953,1.293,1.973,3.347,1.274,5.411c-0.405,1.233-0.812,2.493-0.112,2.493c0,0,2.359,0.743,2.857,2.631
	c0.477,1.832-0.789,4.34-1.652,4.839c1.215,1.665,3.902,3.45,2.449,6.268c1.432,2.789-1.113,4.675-2.011,6.917
	c-0.453,1.139-0.533,2.306-1.062,3.295c-0.742,1.387-2.252,2.054-3.223,2.756c-0.989,4.111-3.07,7.462-5.464,7.462
	c0.125,0.917-2.122,11.814-4.812,15.293c0,0-1.572,10.391,0.357,13.156c1.795,2.576,12.318,3.547,15.355,4.344
	C95.839,92.755,114.748,97.997,120,102z"/>
</svg>
