<!-- Copyright © 2014 Brian Speir. All rights reserved.  -->
<svg version="1.1" id="Layer_1" xmlns="http://www.w3.org/2000/svg" xmlns:xlink="http://www.w3.org/1999/xlink" x="0px" y="0px"
	 width="152px" height="152px" viewBox="0 0 152 152" enable-background="new 0 0 152 152" xml:space="preserve">
<linearGradient id="SVGID_1_" gradientUnits="userSpaceOnUse" x1="76.0005" y1="152" x2="76.0005" y2="9.765625e-04">
	<stop  offset="0" style="stop-color:#FFCD02"/>
	<stop  offset="1" style="stop-color:#FFDB4C"/>
</linearGradient>
<circle fill="url(#SVGID_1_)" cx="76" cy="76" r="76"/>
<linearGradient id="SVGID_2_" gradientUnits="userSpaceOnUse" x1="55.1646" y1="51.4067" x2="55.1646" y2="71.3892">
	<stop  offset="0" style="stop-color:#4A4A4A"/>
	<stop  offset="1" style="stop-color:#2B2B2B"/>
</linearGradient>
<ellipse fill="url(#SVGID_2_)" cx="55.164" cy="61.398" rx="8.368" ry="9.991"/>
<linearGradient id="SVGID_3_" gradientUnits="userSpaceOnUse" x1="96.8359" y1="51.4067" x2="96.8359" y2="71.3892">
	<stop  offset="0" style="stop-color:#4A4A4A"/>
	<stop  offset="1" style="stop-color:#2B2B2B"/>
</linearGradient>
<ellipse fill="url(#SVGID_3_)" cx="96.836" cy="61.398" rx="8.369" ry="9.991"/>
<linearGradient id="SVGID_4_" gradientUnits="userSpaceOnUse" x1="74.9756" y1="112.7188" x2="97.5195" y2="112.7188">
	<stop  offset="0" style="stop-color:#4A4A4A"/>
	<stop  offset="1" style="stop-color:#2B2B2B"/>
</linearGradient>
<path fill="url(#SVGID_4_)" d="M74.976,130.699c0-1.071,15.541-3.78,15.541-7.66c0-4.222-12.125-6.846-12.125-10.098
	c0-3.479,12.125-7.017,12.125-9.926c0-4.507-15.541-7.274-15.541-8.34c0-0.945,22.544,0.866,22.544,8.34
	c0,5.305-12.297,7.587-12.297,9.926c0,2.054,12.297,4.393,12.297,10.098C97.52,130.798,74.976,131.601,74.976,130.699z"/>
</svg>
