<!-- Copyright © 2014 Brian Speir. All rights reserved.  -->
<svg version="1.1" id="Layer_1" xmlns="http://www.w3.org/2000/svg" xmlns:xlink="http://www.w3.org/1999/xlink" x="0px" y="0px"
	 width="152px" height="152px" viewBox="0 0 152 152" enable-background="new 0 0 152 152" xml:space="preserve">
<linearGradient id="SVGID_1_" gradientUnits="userSpaceOnUse" x1="76.0005" y1="152" x2="76.0005" y2="9.765625e-04">
	<stop  offset="0" style="stop-color:#FFCD02"/>
	<stop  offset="1" style="stop-color:#FFDB4C"/>
</linearGradient>
<circle fill="url(#SVGID_1_)" cx="76" cy="76" r="76"/>
<g>
	<path fill="#F7F7F7" d="M110.381,83.856H41.62c-8.461,0-15.318,6.811-15.318,15.213v2.536c0,8.402,6.857,15.213,15.318,15.213
		h68.761c8.461,0,15.318-6.811,15.318-15.213v-2.536C125.699,90.667,118.842,83.856,110.381,83.856z"/>
	<path fill="#2B2B2B" d="M110.381,83.856H41.62c-8.461,0-15.318,6.811-15.318,15.213v2.536c0,8.402,6.857,15.213,15.318,15.213
		h68.761c8.461,0,15.318-6.811,15.318-15.213v-2.536C125.699,90.667,118.842,83.856,110.381,83.856z M122.295,99.069v0.254h-11.573
		V87.242C117.135,87.421,122.295,92.658,122.295,99.069z M109.359,99.323H93.701V87.237h15.658V99.323z M92.34,99.323H76.681V87.237
		H92.34V99.323z M75.319,99.323H59.661V87.237h15.658V99.323z M58.299,99.323H42.641V87.237h15.659V99.323z M29.706,99.069
		c0-6.411,5.16-11.648,11.573-11.827v12.081H29.706V99.069z M29.706,101.605v-0.254h11.573v12.081
		C34.866,113.253,29.706,108.017,29.706,101.605z M42.641,101.352h15.659v12.086H42.641V101.352z M59.661,101.352h15.658v12.086
		H59.661V101.352z M76.681,101.352H92.34v12.086H76.681V101.352z M93.701,101.352h15.658v12.086H93.701V101.352z M122.295,101.605
		c0,6.411-5.16,11.647-11.573,11.827v-12.081h11.573V101.605z"/>
</g>
<linearGradient id="SVGID_2_" gradientUnits="userSpaceOnUse" x1="55.1646" y1="51.4067" x2="55.1646" y2="71.3892">
	<stop  offset="0" style="stop-color:#4A4A4A"/>
	<stop  offset="1" style="stop-color:#2B2B2B"/>
</linearGradient>
<ellipse fill="url(#SVGID_2_)" cx="55.164" cy="61.398" rx="8.368" ry="9.991"/>
<linearGradient id="SVGID_3_" gradientUnits="userSpaceOnUse" x1="96.8359" y1="51.4067" x2="96.8359" y2="71.3892">
	<stop  offset="0" style="stop-color:#4A4A4A"/>
	<stop  offset="1" style="stop-color:#2B2B2B"/>
</linearGradient>
<ellipse fill="url(#SVGID_3_)" cx="96.836" cy="61.398" rx="8.369" ry="9.991"/>
</svg>
