<!-- Copyright © 2014 Brian Speir. All rights reserved.  -->
<svg version="1.1" id="Nexus5" xmlns="http://www.w3.org/2000/svg" xmlns:xlink="http://www.w3.org/1999/xlink" x="0px" y="0px"
	 width="795px" height="405px" viewBox="0 0 795 405" enable-background="new 0 0 795 405" xml:space="preserve">
<g id="Body">
	<g>
		<path fill="#777777" d="M1.339,173.392c0-64.275,3.731-111.215,11.091-139.516C17.532,14.251,26.337,5.5,40.979,5.5h476.5v-4h122
			v4h115.5c16.125,0,22.112,10.854,26.547,28.368c11.953,47.219,11.953,135.315,11.953,168.48c0,0,0.004,5.505,0.01,8.271
			c0.005,3.266,0.012,6.834,0.012,10.652c0,46.147-1.139,111.995-10.977,150.859c-6.312,24.932-16.969,28.368-27.545,28.368h-63.5v3
			h-47v-3h-603.5c-14.644,0-23.445-8.752-28.551-28.378C5.071,343.819,1.337,296.877,1.337,232.598c0-7.781,0.05-14.66,0.089-20.188
			c0.027-3.781,0.053-6.958,0.053-9.41c0-2.453-0.022-5.63-0.053-9.413C1.389,188.058,1.339,181.176,1.339,173.392z M88.479,21.5
			v363h643v-363H88.479z"/>
	</g>
	<g>
		<path fill="#555555" d="M792,221.27c0,46.069-1.133,111.793-10.932,150.494c-2.678,10.581-6.24,17.794-10.892,22.054
			c-3.864,3.536-8.694,5.186-15.2,5.186h-65v3h-44v-3h-605c-9.313,0-20.812-3.098-27.097-27.255
			C6.554,343.569,2.838,296.753,2.838,232.602c0-7.775,0.05-14.652,0.089-20.178c0.026-3.732,0.05-6.96,0.05-9.421
			s-0.021-5.688-0.05-9.424c-0.039-5.528-0.089-12.407-0.089-20.183c0-64.149,3.716-110.962,11.042-139.14
			C20.162,10.098,31.661,7,40.979,7h478V3h119v4h117c11.234,0,19.351,4.556,25.092,27.236
			c11.908,47.037,11.908,134.998,11.908,168.112C791.979,202.348,792,217.452,792,221.27 M87,20l-0.021,366h646V20h-646 M795,221.27
			c0-7.047-0.021-13.234-0.021-18.27c0-0.217,0-0.432,0-0.652c0-34.681-0.039-121.599-12-168.848c-5.927-23.405-14.807-29.5-28-29.5
			h-114V0h-125v4h-475c-12.896,0-23.94,6.196-30,29.499C1.079,71.571,0,134.222,0,173.394C0,186.477,0,196.949,0,203
			c0,6.053,0,16.516,0,29.598C0,271.77,1.077,334.429,10.979,372.5c6.061,23.303,17.104,29.5,30,29.5h602v3h50v-3h62
			c13.195,0,23.076-6.094,29-29.5C794.245,331.94,795,262.154,795,221.27L795,221.27z M90,23h640v360H90L89.979,23H90z"/>
	</g>
</g>
<circle id="Front_Camera" fill="#555555" cx="753.475" cy="70.5" r="5"/>
<path id="Speaker" fill="#555555" d="M754.475,214.5c-5.517,0-9.996-4.479-9.996-10.003c0-5.522,4.479-9.997,9.996-9.997
	c5.521,0,10.004,4.475,10.004,9.997C764.479,210.021,759.996,214.5,754.475,214.5z"/>
</svg>
