<!-- Copyright © 2014 Brian Speir. All rights reserved.  -->
<svg version="1.1" id="Layer_1" xmlns="http://www.w3.org/2000/svg" xmlns:xlink="http://www.w3.org/1999/xlink" x="0px" y="0px"
	 width="120px" height="120px" viewBox="0 0 120 120" enable-background="new 0 0 120 120" xml:space="preserve">
<g>
	<path fill="#555555" d="M118.134,15.744c-2.348-6.45-7.427-11.529-13.876-13.875c-0.666-0.214-1.326-0.401-1.986-0.565
		L87.964,65.971l-5.567-0.683L83.807,0H47.31c-5.486,0-9.603,0-13.084,0.234c-3.481,0.232-6.329,0.699-9.284,1.635
		c-6.449,2.346-11.528,7.425-13.873,13.875C9.2,21.652,9.2,27.139,9.2,38.113v34.583c0,5.072,0,8.974,0.186,12.279L0,120
		l34.982-9.375c3.319,0.186,7.23,0.186,12.327,0.186h34.582c10.971,0,16.459,0,22.366-1.865c6.449-2.35,11.528-7.43,13.876-13.877
		C120,89.158,120,83.672,120,72.695V38.113C120,27.139,120,21.652,118.134,15.744z M70.973,51.91h-7.332l-1.246,10.484h6.936V70
		h-8.135l-0.883,9.663H53.63L54.778,70h-10.22l-0.912,9.663h-6.698L38.129,70h-7.241v-7.605h8.067l1.34-10.482h-7.559V44.51h8.512
		l1.225-9.663h6.617l-1.167,9.663h10.002l1.228-9.663h6.615l-1.17,9.663h6.375V51.91L70.973,51.91z M89.641,80.208
		c-0.496,4.05-3.589,6.237-6.966,5.819c-3.373-0.41-5.847-3.282-5.348-7.332c0.487-3.969,3.573-6.071,6.946-5.658
		C87.646,73.449,90.131,76.24,89.641,80.208z M45.717,62.395h9.914l1.34-10.481H46.964L45.717,62.395z"/>
</g>
</svg>
