<!-- Copyright © 2014 Brian Speir. All rights reserved.  -->
<svg version="1.1" id="Layer_1" xmlns="http://www.w3.org/2000/svg" xmlns:xlink="http://www.w3.org/1999/xlink" x="0px" y="0px"
	 width="182px" height="21px" viewBox="0 0 182 21" enable-background="new 0 0 182 21" xml:space="preserve">
<g>
	<path fill="#555555" d="M12.526,15.132c0,1.066-0.203,1.944-0.606,2.625c-0.402,0.685-0.919,1.22-1.547,1.616
		c-0.629,0.393-1.323,0.668-2.083,0.828c-0.758,0.158-1.487,0.238-2.182,0.238H0V0.562h5.434c0.751,0,1.495,0.075,2.236,0.225
		c0.742,0.15,1.403,0.403,1.984,0.758c0.582,0.356,1.051,0.833,1.407,1.433c0.356,0.598,0.535,1.356,0.535,2.273
		c0,0.713-0.113,1.329-0.338,1.853c-0.226,0.524-0.532,0.973-0.915,1.348C9.96,8.825,9.524,9.13,9.036,9.363
		C8.547,9.597,8.051,9.77,7.543,9.883V9.94c0.507,0.055,1.052,0.193,1.633,0.406c0.582,0.216,1.121,0.529,1.618,0.939
		c0.499,0.412,0.91,0.938,1.24,1.574C12.362,13.496,12.526,14.253,12.526,15.132z M10.978,5.334c0-0.805-0.16-1.479-0.479-2.022
		C10.179,2.77,9.757,2.34,9.232,2.021c-0.525-0.318-1.13-0.548-1.816-0.688C6.73,1.193,6.014,1.122,5.264,1.122H0.62v8.564h4.785
		c0.675,0,1.346-0.083,2.014-0.252C8.083,9.265,8.679,9.01,9.205,8.662c0.523-0.346,0.951-0.795,1.279-1.348
		C10.813,6.761,10.978,6.103,10.978,5.334z M11.906,15.217c0-0.898-0.181-1.667-0.548-2.302c-0.366-0.635-0.83-1.149-1.394-1.546
		c-0.562-0.393-1.182-0.679-1.857-0.854c-0.676-0.179-1.333-0.267-1.971-0.267H0.62v9.629h5.208c0.862,0,1.671-0.089,2.421-0.268
		c0.75-0.176,1.393-0.453,1.928-0.828c0.536-0.372,0.957-0.855,1.267-1.447C11.753,16.748,11.906,16.041,11.906,15.217z"/>
	<path fill="#555555" d="M31.357,20.439l-6.024-10.024H20.66v10.024h-0.619V0.562h5.518c0.731,0,1.473,0.066,2.224,0.196
		c0.75,0.131,1.421,0.379,2.012,0.746c0.591,0.364,1.074,0.865,1.45,1.501c0.375,0.636,0.563,1.46,0.563,2.471
		c0,0.937-0.179,1.712-0.536,2.331c-0.357,0.619-0.816,1.118-1.379,1.501c-0.562,0.384-1.187,0.661-1.872,0.83
		c-0.685,0.166-1.355,0.253-2.013,0.253l6.051,10.05h-0.702V20.439z M31.188,5.475c0-0.86-0.168-1.576-0.504-2.146
		c-0.341-0.572-0.786-1.021-1.338-1.349c-0.554-0.327-1.19-0.557-1.914-0.688c-0.724-0.13-1.46-0.196-2.209-0.196h-4.561v8.787
		h4.871c1.839,0,3.24-0.381,4.208-1.15C30.705,7.963,31.188,6.878,31.188,5.475z"/>
	<path fill="#555555" d="M39.575,20.439V0.562h0.621v19.877H39.575z"/>
	<path fill="#555555" d="M62.854,20.439L60.49,14.74H48.922l-2.451,5.699h-0.672l8.638-19.878h0.79l8.301,19.878H62.854z
		 M54.805,0.955l-5.658,13.252h11.147L54.805,0.955z"/>
	<path fill="#555555" d="M84.132,20.439L69.836,1.347h-0.083v19.092h-0.621V0.562h0.87l14.331,19.062h0.082V0.562h0.62v19.877
		H84.132z"/>
	<path fill="#555555" d="M114.702,15.665c0,0.843-0.164,1.599-0.493,2.262c-0.329,0.665-0.764,1.226-1.311,1.685
		c-0.54,0.459-1.187,0.804-1.927,1.037c-0.742,0.233-1.516,0.353-2.321,0.353c-1.239,0-2.369-0.221-3.393-0.66
		c-1.025-0.44-1.871-1.036-2.548-1.782l0.474-0.424c0.718,0.771,1.544,1.346,2.493,1.73c0.948,0.382,1.927,0.574,2.942,0.574
		c0.731,0,1.427-0.109,2.083-0.323c0.657-0.218,1.239-0.525,1.744-0.925c0.504-0.404,0.906-0.9,1.196-1.489
		c0.292-0.591,0.438-1.271,0.438-2.036c0-0.77-0.163-1.412-0.479-1.939c-0.323-0.521-0.734-0.971-1.239-1.344
		c-0.506-0.377-1.083-0.688-1.731-0.941c-0.646-0.254-1.301-0.482-1.96-0.688c-0.822-0.259-1.58-0.536-2.261-0.827
		c-0.686-0.292-1.277-0.646-1.773-1.067c-0.498-0.421-0.883-0.927-1.154-1.516c-0.273-0.589-0.408-1.306-0.408-2.148
		c0-0.822,0.165-1.559,0.492-2.205c0.328-0.646,0.772-1.186,1.337-1.626c0.56-0.439,1.215-0.777,1.957-1.01
		C107.604,0.117,108.387,0,109.209,0c1.019,0,1.979,0.192,2.889,0.576c0.911,0.382,1.659,0.931,2.237,1.642l-0.479,0.421
		c-0.525-0.656-1.194-1.166-2.017-1.53c-0.812-0.365-1.698-0.547-2.656-0.547c-0.673,0-1.337,0.094-1.985,0.281
		c-0.646,0.189-1.233,0.473-1.758,0.855c-0.525,0.384-0.946,0.866-1.266,1.446c-0.32,0.581-0.479,1.264-0.479,2.049
		c0,0.769,0.141,1.418,0.423,1.952c0.279,0.533,0.656,0.988,1.126,1.36c0.47,0.377,0.999,0.686,1.59,0.928
		c0.59,0.243,1.196,0.467,1.816,0.673c0.844,0.281,1.63,0.566,2.362,0.859c0.732,0.289,1.375,0.639,1.929,1.051
		c0.554,0.411,0.985,0.91,1.295,1.502C114.548,14.107,114.702,14.824,114.702,15.665z"/>
	<path fill="#555555" d="M134.096,5.503c0,0.842-0.155,1.587-0.465,2.232c-0.31,0.646-0.728,1.184-1.251,1.614
		c-0.527,0.431-1.143,0.758-1.846,0.983c-0.699,0.226-1.448,0.337-2.237,0.337h-5.151v9.771h-0.618V0.562h5.404
		c0.713,0,1.437,0.08,2.168,0.239c0.731,0.159,1.393,0.424,1.983,0.8c0.591,0.374,1.075,0.879,1.451,1.515
		C133.908,3.753,134.096,4.548,134.096,5.503z M133.476,5.503c0-0.842-0.158-1.544-0.474-2.105
		c-0.323-0.561-0.736-1.012-1.243-1.348c-0.508-0.336-1.074-0.579-1.702-0.73c-0.63-0.149-1.251-0.224-1.872-0.224h-5.038v9.041
		h5.18c0.62,0,1.239-0.085,1.857-0.254c0.616-0.166,1.175-0.439,1.663-0.812c0.486-0.375,0.88-0.858,1.181-1.447
		C133.327,7.033,133.476,6.326,133.476,5.503z"/>
	<path fill="#555555" d="M141.159,20.439V0.562h11.624v0.56h-11.005v8.733h10.36v0.561h-10.36v9.461h11.456v0.562H141.159z"/>
	<path fill="#555555" d="M160.863,20.439V0.562h0.618v19.877H160.863z"/>
	<path fill="#555555" d="M181.297,20.439l-6.021-10.024h-4.673v10.024h-0.62V0.562h5.517c0.732,0,1.475,0.066,2.225,0.196
		c0.751,0.131,1.421,0.379,2.011,0.746c0.596,0.364,1.076,0.865,1.451,1.501c0.376,0.636,0.563,1.46,0.563,2.471
		c0,0.937-0.18,1.712-0.534,2.331c-0.356,0.619-0.816,1.118-1.38,1.501c-0.562,0.384-1.191,0.661-1.872,0.83
		c-0.687,0.166-1.355,0.253-2.012,0.253L182,20.441h-0.703V20.439z M181.13,5.475c0-0.86-0.169-1.576-0.509-2.146
		c-0.337-0.572-0.781-1.021-1.335-1.349c-0.555-0.327-1.191-0.557-1.913-0.688c-0.723-0.13-1.463-0.196-2.21-0.196h-4.561v8.787
		h4.869c1.835,0,3.239-0.381,4.207-1.15C180.646,7.963,181.13,6.878,181.13,5.475z"/>
</g>
</svg>
