<!-- Copyright © 2014 Brian Speir. All rights reserved.  -->
<svg version="1.1" id="Layer_1" xmlns="http://www.w3.org/2000/svg" xmlns:xlink="http://www.w3.org/1999/xlink" x="0px" y="0px"
	 width="152px" height="152px" viewBox="0 0 152 152" enable-background="new 0 0 152 152" xml:space="preserve">
<path fill="#1A1A1A" d="M148.436,96.281c-1.949,0-3.565,1.617-3.565,3.564c0,0.668,0.665,1.781,0.665,1.784
	c0.581,1.574-3.034,1.159-7.131,0.444c-6.465-1.131-7.764,6.003-9.805,4.013c-1.306-1.27,2.271-4.599,4.68-5.349
	c3.27-1.021,3.053-4.164,0-4.904c-0.996-0.244-2.996-0.569-3.788-1.561c-1.56-1.947-1.45-4.955-7.804-7.8
	c-2.32-1.038-8.521-1.058-10.918-1.56c-1.231-0.26-2.586-1.252-5.572-4.233c-3.535-3.54-8.69-3.569-8.69-3.569
	c0-1.392-1.862-1.014-2.455-1.335c-0.634-0.35-0.778-1.338-2.45-1.338h-2.674c1.475-1.476-2.007-2.453-2.007-2.453
	c-2.172-5.604,4.901-7.542,5.349-9.133c0.41-1.45-1.336-0.893-1.336-0.893s0.111-5.406-6.021-6.466c0,0,1.196-0.891,0.448-1.781
	c-1.312-1.56-2.144,1.147-6.239-0.669c0,0-0.808-1.116-2.673-1.116h-0.896c-1.865,0-2.673,1.116-2.673,1.116
	c-4.097,1.816-4.928-0.891-6.239,0.669c-0.75,0.891,0.448,1.781,0.448,1.781c-6.131,1.06-6.018,6.466-6.018,6.466
	s-1.748-0.557-1.338,0.893c0.448,1.591,7.521,3.529,5.349,9.133c0,0-3.481,0.977-2.006,2.453h-2.674
	c-1.671,0-1.816,0.988-2.451,1.338c-0.592,0.322-2.454-0.056-2.454,1.335c0,0-5.156,0.029-8.691,3.569
	c-2.984,2.981-4.341,3.974-5.573,4.233c-2.396,0.502-8.597,0.521-10.919,1.56c-6.352,2.845-6.243,5.853-7.803,7.8
	c-0.792,0.991-2.792,1.316-3.788,1.561c-3.053,0.74-3.268,3.884,0,4.904c2.408,0.75,5.984,4.079,4.68,5.349
	c-2.042,1.99-3.341-5.144-9.805-4.013c-4.098,0.715-7.714,1.13-7.132-0.444c0-0.002,0.666-1.116,0.666-1.784
	c0-1.947-1.617-3.564-3.566-3.564C1.617,96.281,0,97.898,0,99.846c0,3.144,2.119,5.979,6.466,6.466
	c3.86,0.43,9.359-3.064,12.256,4.008c0,0-1.643,1.479,0,3.123c1.15,1.145,3.045,0.256,3.121,0.221
	c-0.109,0.188-6.486,11.018,4.01,18.279c2.366,1.633,6.696,2.896,11.813,3.787c3.231,4.276,2.354,7.896,1.113,9.139
	c-0.779,0.781-2.396,0.064-2.449,2.449c-0.031,1.213,0.746,1.455,0.891,1.562c-0.111,1.386,0.361,2.356,1.113,3.121h6.021
	c0.75-0.765,1.111-1.744,1.111-2.897c0-0.421-0.108-0.732-0.223-1.117c0.67-0.125,1.339-0.496,1.339-2.004
	c0-0.474-0.424-1.162-0.669-1.561c0.399-0.936,0.717-1.975,0.445-3.121c-0.421-1.775-0.611-2.792,0-4.457
	c13.926,1.423,29.194,1.337,29.194,1.337h0.896c0,0,15.268,0.086,29.194-1.337c0.61,1.665,0.42,2.682,0,4.457
	c-0.272,1.146,0.045,2.188,0.444,3.121c-0.245,0.398-0.669,1.087-0.669,1.561c0,1.508,0.669,1.879,1.34,2.004
	c-0.115,0.385-0.223,0.696-0.223,1.117c0,1.153,0.361,2.135,1.113,2.897h6.018c0.752-0.765,1.225-1.735,1.113-3.121
	c0.143-0.104,0.922-0.349,0.891-1.562c-0.053-2.385-1.67-1.668-2.452-2.449c-1.235-1.243-2.114-4.861,1.116-9.139
	c5.117-0.891,9.447-2.154,11.812-3.787c10.496-7.263,4.119-18.092,4.011-18.279c0.075,0.035,1.971,0.924,3.12-0.221
	c1.646-1.646,0-3.123,0-3.123c2.897-7.072,8.396-3.578,12.257-4.008c4.347-0.486,6.466-3.322,6.466-6.466
	C152,97.898,150.382,96.281,148.436,96.281z M83.355,73.993c0,0-1.521-0.668-2.898-0.668c-1.002,0-1.781,0.891-1.781,0.891
	c-0.148-1.164-2.228-1.336-2.228-1.336h-0.896c0,0-2.078,0.172-2.227,1.336c0,0-0.781-0.891-1.783-0.891
	c-1.378,0-2.899,0.668-2.899,0.668c2.51-7.323-2.228-9.807-2.228-9.807c1.03-1.893-1.112-2.006-1.112-2.006
	c-0.224-3.56,6.909-5.679,10.249-4.68h0.896c3.34-1,10.472,1.12,10.249,4.68c0,0-2.143,0.114-1.112,2.006
	C85.584,64.187,80.848,66.671,83.355,73.993z"/>
</svg>
