<!-- Copyright © 2014 Brian Speir. All rights reserved.  -->
<svg version="1.1" id="Layer_1" xmlns="http://www.w3.org/2000/svg" xmlns:xlink="http://www.w3.org/1999/xlink" x="0px" y="0px"
	 width="222px" height="203px" viewBox="0 0 222 203" enable-background="new 0 0 222 203" xml:space="preserve">
<g>
	<path fill="#111111" d="M108.871,133.5C84.321,133.5,69,111.012,69,98.108c0-2.474,2.006-4.479,4.48-4.479
		c17.695,0,53.086,0,70.782,0c2.475,0,4.48,2.005,4.48,4.479C148.742,111.012,133.419,133.5,108.871,133.5z"/>
	<g>
		<path fill="#111111" d="M129.208,73.201c-1.021,0-2.017,0.101-2.979,0.292c-4.442-4.443-10.58-7.19-17.358-7.19
			c-9.569,0-17.861,5.475-21.91,13.464c-5.73,1.93-10.514,5.918-13.473,11.085h5.367c0.539-0.704,1.125-1.375,1.759-2.007
			c1.844-1.845,3.992-3.293,6.38-4.303c2.473-1.044,5.1-1.575,7.812-1.575c2.71,0,5.339,0.531,7.811,1.575
			c2.138,0.904,4.081,2.159,5.79,3.735c-0.601,0.801-1.121,1.663-1.556,2.575h5.226c0.283-0.372,0.596-0.726,0.933-1.063
			c1.604-1.604,3.628-2.639,5.823-3.003c0.521,1.275,0.791,2.648,0.791,4.066h4.48c0-8.413-6.818-15.232-15.23-15.232
			c-3.576,0-6.866,1.233-9.465,3.298c-1.491-0.284-3.03-0.431-4.602-0.431c-0.604,0-1.2,0.022-1.796,0.064
			c0.515-0.662,1.07-1.292,1.671-1.891c1.845-1.845,3.992-3.292,6.38-4.303c2.472-1.044,5.101-1.575,7.811-1.575
			s5.338,0.531,7.812,1.575c2.389,1.011,4.534,2.458,6.381,4.303c1.845,1.844,3.293,3.992,4.304,6.38
			c1.044,2.472,1.573,5.1,1.573,7.812h5.567c0.339-0.737,0.525-1.557,0.525-2.42c0-2.082-1.093-3.908-2.733-4.938
			c-0.648-2.065-1.562-4.014-2.703-5.806c2.727,0.095,5.276,1.201,7.217,3.141c2.03,2.031,3.147,4.731,3.147,7.603
			c0,0.825-0.093,1.635-0.271,2.42h4.561c0.127-0.788,0.191-1.597,0.191-2.42C144.441,80.021,137.622,73.201,129.208,73.201z
			 M108.871,80.1c2.679,0,5.209,0.974,7.184,2.752c-1.623,0.509-3.13,1.281-4.468,2.267c-1.893-1.773-4.066-3.249-6.446-4.356
			C106.318,80.326,107.577,80.1,108.871,80.1z"/>
		<path fill="#111111" d="M94.804,87.805c-3.429,0-6.595,1.133-9.14,3.047h18.278C101.398,88.938,98.232,87.805,94.804,87.805z"/>
	</g>
	<polygon fill="#111111" points="79.107,66.515 83.743,65.435 81.78,69.772 84.237,73.847 79.507,73.319 76.389,76.918
		75.43,72.255 71.047,70.402 75.182,68.049 75.59,63.307 	"/>
	<polygon fill="#111111" points="91.268,47.209 95.717,45.521 94.35,50.081 97.331,53.792 92.572,53.9 89.964,57.881 88.39,53.39
		83.798,52.14 87.583,49.255 87.354,44.5 	"/>
	<polygon fill="#111111" points="106.039,54.04 107.296,49.448 110.176,53.238 114.93,53.014 112.216,56.924 113.898,61.377
		109.34,60.003 105.625,62.98 105.523,58.22 101.545,55.606 	"/>
</g>
<g>
	<g>
		<line fill="none" stroke="#00FFFF" stroke-miterlimit="10" x1="149.242" y1="0" x2="149.242" y2="4"/>

			<line fill="none" stroke="#00FFFF" stroke-miterlimit="10" stroke-dasharray="8.0952,8.0952" x1="149.242" y1="12.095" x2="149.242" y2="169.952"/>
		<line fill="none" stroke="#00FFFF" stroke-miterlimit="10" x1="149.242" y1="174" x2="149.242" y2="178"/>
	</g>
</g>
<g>
	<g>
		<line fill="none" stroke="#00FFFF" stroke-miterlimit="10" x1="68.5" y1="0" x2="68.5" y2="4"/>

			<line fill="none" stroke="#00FFFF" stroke-miterlimit="10" stroke-dasharray="8.0952,8.0952" x1="68.5" y1="12.095" x2="68.5" y2="169.952"/>
		<line fill="none" stroke="#00FFFF" stroke-miterlimit="10" x1="68.5" y1="174" x2="68.5" y2="178"/>
	</g>
</g>
<line fill="none" stroke="#FF00FF" stroke-miterlimit="10" stroke-dasharray="8" x1="135.516" y1="134" x2="22.133" y2="134"/>
<line fill="none" stroke="#FF00FF" stroke-miterlimit="10" stroke-dasharray="8" x1="135.516" y1="44" x2="22.871" y2="44"/>
<rect x="192.742" y="134" fill="none" stroke="#00FFFF" stroke-miterlimit="10" width="21" height="43.5"/>
<rect x="149.242" y="177.5" fill="none" stroke="#00FFFF" stroke-miterlimit="10" width="43.5" height="21"/>
<polyline fill="none" stroke="#FF00FF" stroke-miterlimit="10" points="23.496,134 3.965,134 3.965,44 23.496,44 "/>
<g>
	<rect x="206.242" y="150.75" fill="#FFFFFF" width="15" height="10"/>
	<g>
		<path fill="#00FFFF" d="M207.877,158.6c0,0.174-0.062,0.326-0.189,0.461c-0.127,0.133-0.287,0.199-0.479,0.199
			c-0.188,0-0.347-0.064-0.476-0.195c-0.131-0.129-0.194-0.28-0.194-0.455c0-0.18,0.062-0.334,0.188-0.465
			c0.127-0.129,0.287-0.194,0.48-0.194s0.354,0.063,0.48,0.19S207.877,158.42,207.877,158.6z"/>
		<path fill="#00FFFF" d="M213.406,152.979h-2.92l-0.06,1.854c0.134-0.048,0.281-0.082,0.445-0.102
			c0.162-0.021,0.315-0.031,0.465-0.031c0.34,0,0.654,0.053,0.942,0.156c0.291,0.104,0.541,0.252,0.75,0.444
			c0.212,0.193,0.375,0.431,0.496,0.707c0.119,0.277,0.181,0.586,0.181,0.927c0,0.375-0.062,0.713-0.188,1.014
			s-0.302,0.556-0.521,0.766c-0.222,0.211-0.479,0.375-0.781,0.492c-0.299,0.115-0.627,0.175-0.979,0.175
			c-0.553,0-1.021-0.128-1.398-0.386c-0.381-0.256-0.668-0.602-0.861-1.035l0.881-0.35c0.113,0.287,0.291,0.518,0.535,0.689
			c0.242,0.174,0.525,0.26,0.844,0.26c0.207,0,0.4-0.035,0.58-0.109c0.183-0.072,0.338-0.176,0.472-0.311
			c0.133-0.134,0.237-0.293,0.313-0.479c0.076-0.188,0.115-0.395,0.115-0.621c0-0.266-0.045-0.498-0.135-0.693
			c-0.09-0.197-0.211-0.359-0.365-0.486c-0.152-0.127-0.33-0.219-0.529-0.278c-0.201-0.062-0.41-0.09-0.631-0.09
			c-0.266,0-0.539,0.036-0.82,0.108c-0.278,0.074-0.528,0.168-0.75,0.28l0.103-3.761h3.818L213.406,152.979L213.406,152.979z"/>
		<path fill="#00FFFF" d="M217.797,154.76l1.68-2.641h1.16l-2.26,3.351l2.57,3.729h-1.25l-1.941-2.979l-1.898,2.979h-1.221
			l2.529-3.75l-2.279-3.33h1.211L217.797,154.76z"/>
	</g>
</g>
<g>
	<rect y="84" fill="#FFFFFF" width="8" height="10"/>
	<g>
		<path fill="#FF00FF" d="M4.004,88.1l1.68-2.64h1.16l-2.26,3.35l2.57,3.73h-1.25l-1.94-2.98l-1.9,2.98h-1.22l2.53-3.75l-2.28-3.33
			h1.21L4.004,88.1z"/>
	</g>
</g>
<g>
	<rect x="163.492" y="194.5" fill="#FFFFFF" width="15" height="8"/>
	<g>
		<path fill="#00FFFF" d="M165.127,201.35c0,0.174-0.062,0.326-0.189,0.461c-0.127,0.133-0.287,0.199-0.479,0.199
			c-0.188,0-0.347-0.064-0.476-0.195c-0.131-0.129-0.194-0.28-0.194-0.455c0-0.18,0.062-0.334,0.188-0.465
			c0.127-0.129,0.287-0.194,0.48-0.194s0.354,0.063,0.48,0.19S165.127,201.17,165.127,201.35z"/>
		<path fill="#00FFFF" d="M170.656,195.729h-2.92l-0.06,1.854c0.134-0.048,0.281-0.082,0.445-0.102
			c0.162-0.021,0.315-0.031,0.465-0.031c0.34,0,0.654,0.053,0.942,0.156c0.291,0.104,0.541,0.252,0.75,0.444
			c0.212,0.193,0.375,0.431,0.496,0.707c0.119,0.277,0.181,0.586,0.181,0.927c0,0.375-0.062,0.713-0.188,1.014
			s-0.302,0.556-0.521,0.766c-0.222,0.211-0.479,0.375-0.781,0.492c-0.299,0.115-0.627,0.175-0.979,0.175
			c-0.553,0-1.021-0.128-1.398-0.386c-0.381-0.256-0.668-0.602-0.861-1.035l0.881-0.35c0.113,0.287,0.291,0.518,0.535,0.689
			c0.242,0.174,0.525,0.26,0.844,0.26c0.207,0,0.4-0.035,0.58-0.109c0.183-0.072,0.338-0.176,0.472-0.311
			c0.133-0.134,0.237-0.293,0.313-0.479c0.076-0.188,0.115-0.395,0.115-0.621c0-0.266-0.045-0.498-0.135-0.693
			c-0.09-0.197-0.211-0.359-0.365-0.486c-0.152-0.127-0.33-0.219-0.529-0.278c-0.201-0.062-0.41-0.09-0.631-0.09
			c-0.266,0-0.539,0.036-0.82,0.108c-0.278,0.074-0.528,0.168-0.75,0.28l0.103-3.761h3.818L170.656,195.729L170.656,195.729z"/>
		<path fill="#00FFFF" d="M175.047,197.51l1.68-2.641h1.16l-2.26,3.351l2.57,3.729h-1.25l-1.941-2.979l-1.898,2.979h-1.221
			l2.529-3.75l-2.279-3.33h1.211L175.047,197.51z"/>
	</g>
</g>
<g>
	<rect x="188.992" y="133.5" fill="#00FFFF" width="4" height="1"/>
	<path fill="#00FFFF" d="M181.361,134.5h-7.631v-1h7.631V134.5z M166.1,134.5h-7.631v-1h7.631V134.5z M150.84,134.5h-7.631v-1h7.631
		V134.5z"/>
</g>
<g>
	<rect x="188.992" y="43.5" fill="#00FFFF" width="4" height="1"/>
	<path fill="#00FFFF" d="M181.361,44.5h-7.631v-1h7.631V44.5z M166.1,44.5h-7.631v-1h7.631V44.5z M150.84,44.5h-7.631v-1h7.631V44.5
		z"/>
</g>
<rect x="25" y="0.5" fill="none" stroke="#00FFFF" stroke-miterlimit="10" width="167.742" height="177"/>
</svg>
